<svg width="32" height="32" viewBox="0 0 32 32" fill="none" xmlns="http://www.w3.org/2000/svg">
<g clip-path="url(#clip0)">
<path d="M19.3236 0.13446V6.70186H26.0763V0.13446H19.3236ZM19.3236 9.58797V11.2623C20.1166 11.0746 20.9386 10.9645 21.7868 10.9645C23.3103 10.9645 24.7595 11.2904 26.0763 11.8674V9.58797H19.3236ZM0.0617662 9.68934V16.2567H6.81451V9.68934H0.0617662ZM9.69269 9.68934V16.2567H12.5376C13.4888 14.6618 14.8353 13.3306 16.4454 12.4028V9.68934H9.69269ZM0 19.2442V25.8116H6.75274V19.2442H0ZM9.66103 19.2442V25.8116H11.8264C11.3073 24.5525 11.0154 23.1766 11.0154 21.7359C11.0154 20.8774 11.1291 20.046 11.321 19.2442H9.66103Z" fill="#1971BD"/>
<path d="M22.1916 12.3326C16.797 12.3326 12.3833 16.7464 12.3833 22.141C12.3833 27.5356 16.797 31.9493 22.1916 31.9493C27.5862 31.9493 31.9999 27.5356 31.9999 22.141C31.9999 16.7464 27.5862 12.3326 22.1916 12.3326ZM26.3111 26.2605L21.2108 23.1218V17.2368H22.682V22.3371L27.0958 24.9854L26.3111 26.2605Z" fill="#1971BD"/>
</g>
<defs>
<clipPath id="clip0">
<rect width="32" height="32" fill="white"/>
</clipPath>
</defs>
</svg>
