<?xml version="1.0" encoding="utf-8"?>
<!-- Generator: Adobe Illustrator 23.0.1, SVG Export Plug-In . SVG Version: 6.00 Build 0)  -->
<svg version="1.1"
	 id="svg13826" inkscape:version="0.91 r13725" sodipodi:docname="cronjob.svg" xmlns:cc="http://creativecommons.org/ns#" xmlns:dc="http://purl.org/dc/elements/1.1/" xmlns:inkscape="http://www.inkscape.org/namespaces/inkscape" xmlns:rdf="http://www.w3.org/1999/02/22-rdf-syntax-ns#" xmlns:sodipodi="http://sodipodi.sourceforge.net/DTD/sodipodi-0.dtd" xmlns:svg="http://www.w3.org/2000/svg"
	 xmlns="http://www.w3.org/2000/svg" xmlns:xlink="http://www.w3.org/1999/xlink" x="0px" y="0px" viewBox="0 0 50 50"
	 style="enable-background:new 0 0 50 50;" xml:space="preserve">
<style type="text/css">
	.st0{clip-path:url(#SVGID_3_);}
	.st1{clip-path:url(#SVGID_4_);fill:#FFFFFF;}
	.st2{fill:#1971BD;}
	.st3{fill:#FFFFFF;}
</style>
<sodipodi:namedview  bordercolor="#666666" borderopacity="1.0" fit-margin-bottom="0" fit-margin-left="0" fit-margin-right="0" fit-margin-top="0" id="base" inkscape:current-layer="layer1" inkscape:cx="-2.090004" inkscape:cy="23.752239" inkscape:document-units="mm" inkscape:pageopacity="0.0" inkscape:pageshadow="2" inkscape:window-height="771" inkscape:window-maximized="0" inkscape:window-width="1440" inkscape:window-x="106" inkscape:window-y="92" inkscape:zoom="8" pagecolor="#ffffff" showgrid="false">
	</sodipodi:namedview>
<g id="layer1" transform="translate(-0.99262638,-1.174181)" inkscape:groupmode="layer" inkscape:label="Calque 1">
	<g id="g3340" transform="translate(-0.57788824,0.77481116)">
		<g>
			<defs>
				<polygon id="SVGID_1_" points="-0.6,2.3 2.2,2.3 -0.6,5.1 				"/>
			</defs>
			<defs>
				<polygon id="SVGID_2_" points="-6.3,-3.4 -9.1,-3.4 -6.3,-6.2 				"/>
			</defs>
			<clipPath id="SVGID_3_">
				<use xlink:href="#SVGID_1_"  style="overflow:visible;"/>
			</clipPath>
			<clipPath id="SVGID_4_" class="st0">
				<use xlink:href="#SVGID_2_"  style="overflow:visible;"/>
			</clipPath>
			<path id="path9087" inkscape:connector-curvature="0" class="st1" d="M32.3,22c-5,0-9.1,4.1-9.1,9.1s4.1,9.1,9.1,9.1
				c5,0,9.1-4.1,9.1-9.1S37.3,22,32.3,22z M36.1,34.8l-4.7-2.9v-5.4h1.4v4.7l4.1,2.4L36.1,34.8z"/>
		</g>
	</g>
</g>
<g>
	<path id="rect9061" inkscape:connector-curvature="0" sodipodi:nodetypes="cccccccsccccccccccccccccccccccscc" class="st2" d="
		M31.1,0.3v10.6H42V0.3H31.1z M31.1,15.5v2.7c1.3-0.3,2.6-0.5,4-0.5c2.5,0,4.8,0.5,6.9,1.5v-3.7H31.1z M0.1,15.7v10.6h10.9V15.7H0.1
		z M15.6,15.7v10.6h4.6c1.5-2.6,3.7-4.7,6.3-6.2v-4.4H15.6z M0,31.1v10.6h10.9V31.1H0z M15.5,31.1v10.6H19c-0.8-2-1.3-4.2-1.3-6.6
		c0-1.4,0.2-2.7,0.5-4H15.5z"/>
	<circle class="st2" cx="35.3" cy="35" r="14.7"/>
	<polygon class="st3" points="33.7,26.3 36.1,26.3 36.1,34.5 43.2,38.8 41.9,40.8 33.7,35.8 	"/>
</g>
</svg>
