<svg width="32" height="32" viewBox="0 0 32 32" fill="none" xmlns="http://www.w3.org/2000/svg">
<path d="M16.9328 25.002C11.3939 25.002 6.88794 20.5605 6.88794 15.1008C6.88794 9.64116 11.3942 5.19958 16.9328 5.19958C22.4717 5.19958 26.9777 9.64116 26.9777 15.1008C26.9777 20.5605 22.4717 25.002 16.9328 25.002V25.002ZM16.9328 6.63444C12.1855 6.63444 8.3231 10.4324 8.3231 15.1008C8.3231 19.7689 12.1855 23.5672 16.9328 23.5672C21.6802 23.5672 25.5426 19.7689 25.5426 15.1008C25.5426 10.4324 21.6802 6.63444 16.9328 6.63444Z" fill="#1971BD"/>
<path d="M6.4578 25.4747C6.26816 25.4747 6.07882 25.4 5.93788 25.2518C3.31165 22.4913 1.8656 18.8863 1.8656 15.1007C1.8656 6.91413 8.6246 0.254028 16.9328 0.254028C17.329 0.254028 17.6502 0.575237 17.6502 0.971456C17.6502 1.36767 17.329 1.68919 16.9328 1.68919C9.41583 1.68919 3.30046 7.70535 3.30046 15.1007C3.30046 18.5164 4.60616 21.7702 6.97742 24.2627C7.25054 24.5498 7.23935 25.0041 6.95232 25.2772C6.81349 25.4094 6.63534 25.4747 6.4578 25.4747Z" fill="#1971BD"/>
<path d="M16.9327 29.9472C16.9276 29.9472 16.9222 29.9472 16.917 29.9472L0.702001 29.5939C0.305783 29.5851 -0.00846994 29.257 0.000301306 28.8608C0.00877007 28.4645 0.336633 28.1536 0.733154 28.1591L16.9403 28.512C24.4533 28.5078 30.5651 22.4931 30.5651 15.1008C30.5651 10.8244 28.5637 6.903 25.0746 4.34271C24.7552 4.1083 24.6859 3.65946 24.9206 3.33976C25.155 3.02037 25.6042 2.95141 25.9236 3.18581C27.7673 4.5387 29.2957 6.31624 30.3434 8.32606C31.4425 10.4348 31.9999 12.7141 31.9999 15.1008C31.9999 23.2871 25.2409 29.9472 16.9327 29.9472V29.9472Z" fill="#1971BD"/>
<path d="M30.8521 30.3113H24.3947C23.9985 30.3113 23.6772 29.9901 23.6772 29.5939C23.6772 29.1977 23.9985 28.8765 24.3947 28.8765H29.691L29.4926 28.4797C29.3156 28.1252 29.459 27.6942 29.8138 27.5169C30.168 27.34 30.599 27.4834 30.7762 27.8382L31.4939 29.273C31.6049 29.4953 31.5931 29.7597 31.4625 29.9711C31.3315 30.1825 31.1007 30.3113 30.8521 30.3113Z" fill="#1971BD"/>
<path d="M30.134 31.7464C30.026 31.7464 29.9165 31.7222 29.8137 31.6705C29.4592 31.4932 29.3155 31.0622 29.4925 30.7081L30.2102 29.2729C30.3874 28.9184 30.8181 28.7748 31.1726 28.952C31.5271 29.1293 31.6711 29.5603 31.4938 29.9147L30.7761 31.3496C30.6506 31.6009 30.3971 31.7464 30.134 31.7464V31.7464Z" fill="#1971BD"/>
<path d="M24.3947 5.91697C24.3197 5.91697 24.2431 5.90517 24.1678 5.88007C23.7919 5.75455 23.5886 5.34835 23.7138 4.97239L24.4316 2.81981C24.5293 2.52703 24.8033 2.32922 25.1121 2.32922H27.2647C27.6609 2.32922 27.9821 2.65074 27.9821 3.04695C27.9821 3.44317 27.6609 3.76438 27.2647 3.76438H25.6293L25.0755 5.42638C24.9751 5.72672 24.695 5.91697 24.3947 5.91697Z" fill="#1971BD"/>
<path d="M14.4711 17.8891H11.8433C11.5868 17.8891 11.35 17.7524 11.2218 17.5304L9.90819 15.255C9.77995 15.033 9.77995 14.7593 9.90819 14.5373L11.2218 12.2619C11.35 12.0399 11.5868 11.9032 11.8433 11.9032H14.4711C14.7272 11.9032 14.9641 12.0399 15.0923 12.2619L16.4062 14.5373C16.5344 14.7593 16.5344 15.033 16.4062 15.255L15.0923 17.5304C14.9641 17.7524 14.7272 17.8891 14.4711 17.8891ZM12.2577 16.4543H14.0567L14.9565 14.896L14.0567 13.3381H12.2577L11.3579 14.896L12.2577 16.4543Z" fill="#1971BD"/>
<path d="M20.2108 21.2304H17.5831C17.3269 21.2304 17.0901 21.0934 16.9618 20.8717L15.648 18.596C15.52 18.374 15.52 18.1005 15.648 17.8785L16.9618 15.6029C17.0901 15.3809 17.3269 15.2441 17.5831 15.2441H20.2108C20.4673 15.2441 20.7041 15.3809 20.8324 15.6029L22.1459 17.8785C22.2742 18.1002 22.2742 18.374 22.1459 18.596L20.8324 20.8717C20.7041 21.0934 20.4673 21.2304 20.2108 21.2304V21.2304ZM17.9974 19.7955H19.7967L20.6963 18.2373L19.7967 16.6793H17.9974L17.0979 18.2373L17.9974 19.7955Z" fill="#1971BD"/>
<path d="M20.2108 14.7729H17.5831C17.3269 14.7729 17.0901 14.6362 16.9618 14.4142L15.648 12.1385C15.52 11.9165 15.52 11.6431 15.648 11.4211L16.9618 9.1457C17.0901 8.9234 17.3269 8.78699 17.5831 8.78699H20.2108C20.4673 8.78699 20.7041 8.9237 20.8324 9.1457L22.1459 11.4211C22.2742 11.6431 22.2742 11.9165 22.1459 12.1385L20.8324 14.4142C20.7041 14.6362 20.4673 14.7729 20.2108 14.7729V14.7729ZM17.9974 13.3381H19.7967L20.6963 11.7798L19.7967 10.2218H17.9974L17.0979 11.7798L17.9974 13.3381Z" fill="#1971BD"/>
<path d="M14.3497 20.2665C14.161 20.2665 13.9759 20.1897 13.8425 20.0563C13.7091 19.9229 13.6323 19.7378 13.6323 19.5491C13.6323 19.3604 13.7091 19.1753 13.8425 19.0419C13.9759 18.9082 14.161 18.8317 14.3497 18.8317C14.5385 18.8317 14.7236 18.9082 14.857 19.0419C14.9907 19.1753 15.0672 19.3604 15.0672 19.5491C15.0672 19.7378 14.9904 19.9229 14.857 20.0563C14.7236 20.1897 14.5385 20.2665 14.3497 20.2665Z" fill="#1971BD"/>
<path d="M14.3497 10.9393C14.161 10.9393 13.9759 10.8625 13.8425 10.7291C13.7091 10.5954 13.6323 10.4103 13.6323 10.2219C13.6323 10.0328 13.7091 9.84804 13.8425 9.71436C13.9759 9.58097 14.161 9.50415 14.3497 9.50415C14.5385 9.50415 14.7236 9.58097 14.857 9.71436C14.9907 9.84804 15.0672 10.0331 15.0672 10.2219C15.0672 10.4103 14.9904 10.5954 14.857 10.7291C14.7236 10.8625 14.5385 10.9393 14.3497 10.9393Z" fill="#1971BD"/>
<path d="M22.2421 15.9616C22.0534 15.9616 21.8683 15.8848 21.7349 15.7514C21.6012 15.618 21.5247 15.4329 21.5247 15.2442C21.5247 15.0554 21.6012 14.8703 21.7349 14.7369C21.8683 14.6033 22.0534 14.5267 22.2421 14.5267C22.4308 14.5267 22.6159 14.6033 22.7493 14.7369C22.883 14.8703 22.9595 15.0554 22.9595 15.2442C22.9595 15.4329 22.883 15.618 22.7493 15.7514C22.6159 15.8848 22.4308 15.9616 22.2421 15.9616Z" fill="#1971BD"/>
</svg>
