<svg xmlns="http://www.w3.org/2000/svg" width="13.995" height="13.982" viewBox="0 0 13.995 13.982">
  <g id="elastic_search_versions" data-name="elastic search versions" transform="translate(-860.78 -653.016)">
    <path id="Path_20968" data-name="Path 20968" d="M873.99,662.9a1,1,0,0,1-.455-.9.342.342,0,0,1,.042-.058c.324-.433.324-.433-.056-.823-.266-.276-.31-.286-.574-.044-.185.169-.362.243-.585.077a.387.387,0,0,0-.153-.063.408.408,0,0,1-.061-.008.4.4,0,0,1-.306-.476,1.121,1.121,0,0,0-.012-.141.217.217,0,0,0,0-.044.2.2,0,0,0-.228-.167h-.213c-.5.012-.576-.107-.6.507-.009.225-.693.565-.893.465a.612.612,0,0,1-.057-.042c-.447-.327-.447-.327-.837.066l-.118.116a.206.206,0,0,0-.014.332.6.6,0,0,1,.248.464.667.667,0,0,1-.081.278l-.129.276a.457.457,0,0,1-.076.127.243.243,0,0,1-.152.057,2.069,2.069,0,0,1-.208.014c-.1.011-.257,0-.3.111a.42.42,0,0,0-.026.168v.361c0,.358.009.367.363.4a1.163,1.163,0,0,0,.118.009c.243.022.6.673.5.892a.334.334,0,0,1-.039.059c-.318.456-.318.456.073.856l.1.1c.106.1.232.132.332.015a.452.452,0,0,1,.048-.06.58.58,0,0,1,.819-.04.411.411,0,0,0,.132.049.255.255,0,0,1,.212.273c0,.086.019.172.019.259a.234.234,0,0,0,0,.079.223.223,0,0,0,.265.172,4.649,4.649,0,0,1,.473,0c.192.01.294-.08.28-.263,0-.018-.006-.036-.008-.054a.519.519,0,0,1,.474-.561.385.385,0,0,0,.129-.058h0a.331.331,0,0,1,.464.063,2.262,2.262,0,0,0,.276.211c.2-.005.692-.495.674-.628a.256.256,0,0,0-.073-.167.557.557,0,0,1-.1-.845.277.277,0,0,0,.033-.088c.04-.2.17-.256.359-.268.44-.028.44-.035.44-.47C874.505,662.972,874.505,662.972,873.99,662.9Zm-1.309.551a1.348,1.348,0,1,1-1.334-1.362h.013a1.334,1.334,0,0,1,1.321,1.345Z" fill="#0071bd"/>
    <path id="Path_20969" data-name="Path 20969" d="M868.247,666.741c-.554-.568-.554-.568-.1-1.212a.53.53,0,0,0,.055-.084c.149-.311-.364-1.232-.7-1.263-.056-.006-.111-.008-.167-.012-.5-.047-.512-.059-.513-.57v-.343a8.8,8.8,0,0,1-1.8,2.91.323.323,0,0,0-.025.049,9.781,9.781,0,0,0,2.151.671c.268.045.534.074.8.111h.639a.423.423,0,0,1-.194-.114Z" fill="#0071bd"/>
    <path id="Path_20970" data-name="Path 20970" d="M866.32,661.906a7.93,7.93,0,0,0,.011-3.785c-.027-.114-.078-.137-.186-.137h-4.4c-.2,0-.392.007-.587,0l-.018,0a.124.124,0,0,0-.13.118c-.037.182-.088.362-.119.546-.044.268-.074.538-.111.808v.928c.009.062.021.124.027.186a5.086,5.086,0,0,0,.276,1.332.144.144,0,0,0,.155.116h4.946C866.269,662.016,866.3,661.987,866.32,661.906Z" fill="#0071bd"/>
    <path id="Path_20971" data-name="Path 20971" d="M866.858,656.813c.03.075.058.129.158.129,1.63.024,3.265.058,4.9.076a4.6,4.6,0,0,0,.922-.085,3.722,3.722,0,0,0,1.937-1.041,8.25,8.25,0,0,0-9.763-2.1c.164.2.34.39.5.59A9.477,9.477,0,0,1,866.858,656.813Z" fill="#0071bd"/>
    <path id="Path_20972" data-name="Path 20972" d="M872.511,660.1a.611.611,0,0,0,.073.01.549.549,0,0,1,.216.09.5.5,0,0,0,.547.077,1.932,1.932,0,0,0-.521-1.632,2.239,2.239,0,0,0-1.679-.664h-3.89a7.955,7.955,0,0,1,0,4.019.715.715,0,0,0,.115.006c.241,0,.482,0,.723,0a.941.941,0,0,0,.11-.38.842.842,0,0,0-.352-.656c-.163-.135-.134-.32.02-.471l.168-.164c.553-.556.553-.556,1.185-.093a.917.917,0,0,0,.081.059c.282.148,1.252-.34,1.264-.658.033-.87.143-.7.851-.717h.3a.283.283,0,0,1,.323.236.228.228,0,0,1,0,.064,1.48,1.48,0,0,1,.017.2A.572.572,0,0,0,872.511,660.1Z" fill="#0071bd"/>
    <path id="Path_20973" data-name="Path 20973" d="M864.187,654.225a6.775,6.775,0,0,0-2.613,2.787h4.445A13.045,13.045,0,0,0,864.187,654.225Z" fill="#0071bd"/>
    <path id="Path_20974" data-name="Path 20974" d="M861.485,662.989a7.176,7.176,0,0,0,2.619,2.7,7.485,7.485,0,0,0,1.833-2.7Z" fill="#0071bd"/>
  </g>
</svg>
