<svg width="32" height="32" viewBox="0 0 32 32" fill="none" xmlns="http://www.w3.org/2000/svg">
<g clip-path="url(#clip0)">
<path d="M29.4429 19.2778C29.3817 19.4196 29.3396 19.5423 29.2784 19.6496C29.068 20.0138 28.85 20.3741 28.6281 20.7305C28.5669 20.8302 28.5631 20.9069 28.6166 21.0104C28.7237 21.2327 28.8041 21.4703 28.9112 21.6965C28.9418 21.7578 29.0145 21.8268 29.0795 21.8421C29.573 21.9724 30.0665 22.0913 30.5638 22.2101C30.889 22.2906 30.9999 22.4286 31.0037 22.762C31.0037 23.2872 31.0037 23.8085 31.0037 24.3336C31.0037 24.6556 30.889 24.7974 30.5753 24.874C30.0818 24.9967 29.5845 25.1117 29.091 25.242C29.0221 25.2612 28.9418 25.334 28.9112 25.3992C28.8041 25.6215 28.7084 25.8515 28.6243 26.0853C28.6013 26.1504 28.6051 26.2501 28.6396 26.3076C28.8461 26.6679 29.0604 27.0205 29.2746 27.377C29.4812 27.722 29.4659 27.8753 29.1866 28.1551C28.8308 28.5116 28.4751 28.8719 28.1193 29.2245C27.8859 29.4545 27.6947 29.4775 27.4154 29.3089C27.0558 29.0942 26.6962 28.8719 26.3289 28.6649C26.2601 28.6266 26.1453 28.6227 26.0688 28.6496C25.824 28.7377 25.583 28.8451 25.3496 28.9562C25.2846 28.9869 25.2157 29.0559 25.2004 29.121C25.0703 29.6155 24.9518 30.11 24.8332 30.6083C24.7528 30.9417 24.6151 31.0529 24.267 31.0529C23.7582 31.0529 23.2456 31.0529 22.7368 31.0529C22.3886 31.0529 22.2509 30.9417 22.1706 30.6083C22.0482 30.1138 21.9334 29.6155 21.8033 29.121C21.788 29.0559 21.7153 28.983 21.6541 28.9562C21.417 28.8451 21.1798 28.7416 20.9349 28.6496C20.8699 28.6266 20.7704 28.6304 20.7092 28.6649C20.3496 28.8719 19.9977 29.0865 19.6419 29.3012C19.3512 29.4775 19.1675 29.4545 18.9265 29.2169C18.5669 28.8566 18.2035 28.4963 17.8439 28.1321C17.5991 27.8868 17.5799 27.7066 17.7559 27.4153C17.9587 27.0704 18.1729 26.7254 18.3718 26.3689C18.4101 26.2999 18.4177 26.1849 18.391 26.1121C18.3068 25.8706 18.2035 25.6368 18.0964 25.4068C18.062 25.3378 17.9855 25.265 17.9166 25.2458C17.4231 25.1155 16.9296 24.9967 16.4323 24.8779C16.1109 24.7974 16 24.6556 16 24.3221C16 23.8046 16 23.2872 16 22.7697C16 22.4324 16.1109 22.2944 16.4361 22.2139C16.9296 22.0913 17.4269 21.9763 17.9166 21.8421C17.9855 21.823 18.0543 21.7463 18.0926 21.6811C18.15 21.5815 18.1576 21.455 18.2188 21.363C18.4101 21.0793 18.3565 20.834 18.1691 20.5696C17.9587 20.2744 17.7904 19.9486 17.6029 19.6381C17.4193 19.3315 17.4384 19.1628 17.6909 18.906C18.0505 18.5419 18.4101 18.1816 18.7735 17.8213C19.0183 17.5798 19.1714 17.5568 19.4698 17.7331C19.8561 17.9593 20.2387 18.1892 20.6174 18.4231C20.7284 18.4921 20.8202 18.4959 20.9349 18.4384C21.1721 18.3272 21.417 18.2391 21.6503 18.1241C21.7115 18.0934 21.7804 18.0206 21.7957 17.9554C21.9258 17.461 22.0443 16.9665 22.1629 16.4682C22.2471 16.1462 22.3886 16.0351 22.7176 16.0312C23.2417 16.0312 23.762 16.0312 24.2861 16.0312C24.6075 16.0312 24.749 16.1501 24.8255 16.4605C24.9479 16.955 25.0627 17.4533 25.1928 17.9478C25.2119 18.0168 25.2807 18.0973 25.3496 18.1279C25.5791 18.2391 25.8125 18.3387 26.0535 18.4269C26.1185 18.4499 26.218 18.4422 26.2754 18.4116C26.6503 18.1969 27.0214 17.9669 27.3924 17.7484C27.7138 17.5606 27.8592 17.576 28.1193 17.8366C28.4904 18.2046 28.8615 18.5725 29.2249 18.9482C29.3167 19.0363 29.3702 19.1628 29.4429 19.2778ZM23.498 20.4699C21.7957 20.4699 20.4261 21.846 20.43 23.5516C20.4338 25.2573 21.8033 26.6257 23.5095 26.6219C25.2004 26.6181 26.57 25.242 26.57 23.5516C26.5661 21.8421 25.2004 20.4699 23.498 20.4699Z" fill="#1971BD"/>
</g>
<path d="M16.9143 31.35C15.5429 29.9759 15.5428 29.9759 16.6856 28.6018C16.6856 28.6018 16.6857 28.3728 16.9143 28.3728C17.1429 27.6857 16 25.6246 15.3143 25.3955C15.0857 25.3955 15.0857 25.3955 14.8571 25.3955C13.7142 25.3955 13.7142 25.1665 13.7142 24.0214V23.3344C12.7999 25.8536 11.4285 28.1438 9.59998 29.9759C11.2 30.663 12.8 31.121 14.6286 31.579C15.3143 31.579 15.7714 31.808 16.4571 31.808H17.8285C17.5999 31.808 17.6 31.579 17.3715 31.579L16.9143 31.35Z" fill="#1971BD"/>
<path d="M12.5714 20.3571C13.2571 17.6089 13.2571 14.6317 12.5714 11.6545C12.5714 11.4255 12.3428 11.4254 12.1142 11.4254H2.0572C1.60005 11.4254 1.14283 11.4254 0.685685 11.4254C0.457114 11.4254 0.45717 11.4255 0.45717 11.6545C0.45717 12.1125 0.228655 12.5705 0.228655 12.7996C0.228655 13.4866 0 13.9446 0 14.6317V16.6928C0 16.9219 0 16.9219 0 17.1509C0 18.296 0.228543 19.212 0.685685 20.1281C0.685685 20.3571 0.914284 20.3571 1.14286 20.3571H12.3429C12.5715 20.5862 12.5714 20.5862 12.5714 20.3571Z" fill="#1971BD"/>
<path d="M13.943 8.67725C13.943 8.90627 14.1714 8.90628 14.4 8.90628C18.0571 8.90628 21.9429 9.13531 25.6001 9.13531C26.2858 9.13531 26.9716 9.1353 27.6573 8.90628C29.2573 8.67726 30.8572 7.76119 32.0001 6.6161C26.5143 0.203582 17.3715 -1.8576 9.60004 1.8067C10.0572 2.26473 10.2858 2.72278 10.7429 3.18082C12.1143 4.78395 13.0287 6.61608 13.943 8.67725Z" fill="#1971BD"/>
<path d="M26.7429 16.2348C26.7429 16.2348 26.9714 16.2348 26.7429 16.2348C27.2 16.2348 27.2 16.4639 27.4285 16.4639C27.8857 16.6929 28.3428 16.9219 28.5714 16.6928C28.8 15.3187 28.3428 13.9447 27.4285 13.0286C26.5143 12.1125 24.9142 11.4254 23.5428 11.4254H14.6287C15.3144 14.4027 15.3144 17.6089 14.6287 20.5862H14.8572C15.3143 20.5862 16.0001 20.5862 16.4572 20.5862C16.6858 20.3572 16.6857 20.1282 16.6857 19.6701C16.6857 18.9831 16.4572 18.525 15.7715 18.067C15.3144 17.8379 15.5429 17.3799 15.7715 16.9219L16.2287 16.4639C17.6001 15.0898 17.6 15.0898 18.9714 16.2348C18.9714 16.2348 19.2001 16.2349 19.2001 16.4639C19.8858 16.6929 22.1715 15.7768 22.1715 14.8607C22.1715 12.7996 22.4001 13.2576 24.2286 13.2576H24.9143C25.3715 13.2576 25.6 13.4866 25.6 13.7156C25.6 13.7156 25.6 13.7156 25.6 13.9447C25.6 14.1737 25.6 14.1736 25.6 14.4027C25.6 15.3187 26.0571 16.0058 26.7429 16.2348Z" fill="#1971BD"/>
<path d="M7.77146 2.72281C5.25716 4.32593 3.19993 6.38707 1.82849 9.13528H11.8857C10.7429 6.8451 9.37147 4.78397 7.77146 2.72281Z" fill="#1971BD"/>
<path d="M1.59998 22.8763C2.97141 25.3955 5.02851 27.4567 7.54281 29.0598C9.37139 27.2277 10.7429 25.1665 11.6572 22.8763H1.59998Z" fill="#1971BD"/>
<defs>
<clipPath id="clip0">
<rect width="15" height="15.0293" fill="white" transform="translate(16 16.0312)"/>
</clipPath>
</defs>
</svg>
