<svg xmlns="http://www.w3.org/2000/svg" width="13.489" height="13.623" viewBox="0 0 13.489 13.623">
  <g id="etcdversions" transform="translate(-786.015 -581.999)">
    <path id="Path_21017" data-name="Path 21017" d="M798.99,591.9a1,1,0,0,1-.455-.9.342.342,0,0,1,.042-.058c.324-.433.324-.433-.056-.823-.266-.276-.31-.286-.574-.044-.185.169-.362.243-.585.077a.387.387,0,0,0-.153-.063.408.408,0,0,1-.061-.008.4.4,0,0,1-.306-.476,1.121,1.121,0,0,0-.012-.141.217.217,0,0,0,0-.044.2.2,0,0,0-.228-.167h-.213c-.5.012-.576-.107-.6.507-.009.225-.693.565-.893.465a.612.612,0,0,1-.057-.042c-.447-.327-.447-.327-.837.066l-.118.116a.206.206,0,0,0-.014.332.6.6,0,0,1,.248.464.667.667,0,0,1-.081.278l-.129.276a.457.457,0,0,1-.076.127.243.243,0,0,1-.152.057,2.069,2.069,0,0,1-.208.014c-.1.011-.257,0-.3.111a.42.42,0,0,0-.026.168v.361c0,.358.009.367.363.4a1.163,1.163,0,0,0,.118.009c.243.022.6.673.5.892a.334.334,0,0,1-.039.059c-.318.456-.318.456.073.856l.1.1c.106.1.232.132.332.015a.452.452,0,0,1,.048-.06.58.58,0,0,1,.819-.04.411.411,0,0,0,.132.049.255.255,0,0,1,.212.273c0,.086.019.172.019.259a.234.234,0,0,0,0,.079.223.223,0,0,0,.265.172,4.649,4.649,0,0,1,.473,0c.192.01.294-.08.28-.263,0-.018-.006-.036-.008-.054a.519.519,0,0,1,.474-.561.385.385,0,0,0,.129-.058h0a.331.331,0,0,1,.464.063,2.262,2.262,0,0,0,.276.211c.2-.005.692-.495.674-.628a.256.256,0,0,0-.073-.167.557.557,0,0,1-.1-.845.277.277,0,0,0,.033-.088c.04-.2.17-.256.359-.268.44-.028.44-.035.44-.47C799.505,591.972,799.505,591.972,798.99,591.9Zm-1.309.551a1.348,1.348,0,1,1-1.334-1.362h.013a1.334,1.334,0,0,1,1.321,1.345Z" fill="#0071bd"/>
    <circle id="Ellipse_1" data-name="Ellipse 1" cx="0.912" cy="0.912" r="0.912" transform="translate(793.59 587.093)" fill="#0071bd"/>
    <circle id="Ellipse_2" data-name="Ellipse 2" cx="0.912" cy="0.912" r="0.912" transform="translate(790.587 587.093)" fill="#0071bd"/>
    <path id="Path_21018" data-name="Path 21018" d="M792.5,593.182c-.056-.006-.111-.008-.167-.012-.5-.047-.512-.059-.513-.57v-.511a.6.6,0,0,1,.037-.237c.068-.151.292-.148.432-.157l.025,0a8.058,8.058,0,0,1-1.475-.246,8.385,8.385,0,0,1-.925-1.951,3.51,3.51,0,0,1,6.569-2.129c-.01.19-.044.375-.067.563h.3a.283.283,0,0,1,.323.236.228.228,0,0,1,0,.064,1.48,1.48,0,0,1,.017.2.572.572,0,0,0,.446.675.611.611,0,0,0,.073.01.549.549,0,0,1,.216.09c.315.234.566.131.828-.11a1.274,1.274,0,0,1,.264-.2,2.52,2.52,0,0,1-.453-.162,10.718,10.718,0,0,0,.163-2.047,10.573,10.573,0,0,0-1.326-1.57,2.632,2.632,0,0,1,.934-1l.171-.106-.134-.151a6.973,6.973,0,0,0-2.439-1.779l-.185-.081-.047.2a2.623,2.623,0,0,1-.66,1.2,2.706,2.706,0,0,0-3.815,0,2.619,2.619,0,0,1-.658-1.2l-.054-.2-.186.08a7.038,7.038,0,0,0-2.438,1.777l-.124.151.171.106a2.625,2.625,0,0,1,.931.995,2.713,2.713,0,0,0-1.178,3.624,2.616,2.616,0,0,1-1.152.267h-.2l-.2-.021.019.2a6.937,6.937,0,0,0,.937,2.868l.1.174.153-.13a2.617,2.617,0,0,1,1.243-.582,10.6,10.6,0,0,0,1.063,1.732,10.73,10.73,0,0,0,2.015.487,2.62,2.62,0,0,1-.163,1.376l-.076.187.2.044a7.032,7.032,0,0,0,1.509.162h0c-.3-.339-.245-.434.131-.968a.53.53,0,0,0,.055-.084C793.351,594.134,792.838,593.213,792.5,593.182Z" fill="#0071bd"/>
  </g>
</svg>
