<svg width="32" height="32" viewBox="0 0 32 32" fill="none" xmlns="http://www.w3.org/2000/svg">
<g clip-path="url(#clip0)">
<path d="M30.817 4.91462C30.1312 5.14319 29.6741 5.37179 28.9883 5.37179C26.2455 5.60036 25.3312 6.51463 23.2741 9.71463C20.9883 13.6003 20.0741 14.286 14.817 15.886C10.4741 17.2574 9.78837 17.486 8.87408 18.4003C8.18837 19.086 7.50267 19.7717 6.81695 20.4574C5.90267 21.6003 5.67409 21.8289 4.98837 21.8289C4.53123 21.8289 3.84552 21.8289 3.38838 21.6003C2.47409 21.3717 1.33123 21.3717 0.416944 21.8289C0.188373 22.0575 -0.0401917 22.0575 -0.0401917 22.2861C0.416951 22.7432 1.10264 23.2004 1.78835 23.6575C2.01692 23.6575 2.01692 23.886 1.78835 24.1146C1.10264 25.0289 0.87408 25.2575 0.87408 25.486C0.87408 25.7146 0.874073 25.7146 1.33122 25.7146C1.78836 25.7146 2.2455 25.7146 2.47407 25.486C4.07407 25.0289 5.44552 24.3432 6.81695 23.4289C9.55981 21.8289 10.2455 21.6003 14.1312 22.0575C15.2741 22.286 16.4169 22.2861 16.8741 22.2861C17.7884 22.2861 17.7884 22.286 18.0169 21.8289C18.2455 21.6003 18.4741 21.3718 18.4741 20.9146C18.7027 20.4575 18.7027 20.0003 19.1598 19.5432C19.1598 20.686 18.9313 21.8289 18.4741 22.7432C18.017 23.6574 17.5598 24.3432 16.8741 25.0289L16.6455 25.2575H17.1027C18.017 25.0289 18.9312 24.8003 19.8455 24.3432C21.2169 23.4289 22.1312 22.0575 22.817 20.686C22.817 20.4575 23.0455 20.2289 23.2741 20.0003C23.2741 20.2289 23.2741 20.4575 23.2741 20.686V21.3718L23.7312 21.1432C24.6455 20.4575 25.5598 19.5432 26.0169 18.6289C27.1598 16.3432 27.8455 13.8289 28.3027 11.5432C28.7598 9.7146 28.9884 9.48603 30.817 8.1146C31.7312 7.65746 32.1884 6.74317 32.1884 5.82889C32.1884 4.45746 31.7312 4.2289 30.817 4.91462Z" fill="#1971BD"/>
</g>
<defs>
<clipPath id="clip0">
<rect width="32" height="32" fill="white"/>
</clipPath>
</defs>
</svg>
