<svg xmlns="http://www.w3.org/2000/svg" width="13.996" height="13.13" viewBox="0 0 13.996 13.13">
  <g id="memcachedversions" transform="translate(-859.776 -635.492)">
    <path id="Path_20994" data-name="Path 20994" d="M872.99,644.9a1,1,0,0,1-.455-.9.342.342,0,0,1,.042-.058c.324-.433.324-.433-.056-.823-.266-.276-.31-.286-.574-.044-.185.169-.362.243-.585.077a.387.387,0,0,0-.153-.063.408.408,0,0,1-.061-.008.4.4,0,0,1-.306-.476,1.121,1.121,0,0,0-.012-.141.217.217,0,0,0,0-.044.2.2,0,0,0-.228-.167h-.213c-.5.012-.576-.107-.6.507-.009.225-.693.565-.893.465a.612.612,0,0,1-.057-.042c-.447-.327-.447-.327-.837.066l-.118.116a.206.206,0,0,0-.014.332.6.6,0,0,1,.248.464.667.667,0,0,1-.081.278l-.129.276a.457.457,0,0,1-.076.127.243.243,0,0,1-.152.057,2.069,2.069,0,0,1-.208.014c-.1.011-.257,0-.3.111a.42.42,0,0,0-.026.168v.361c0,.358.009.367.363.4a1.163,1.163,0,0,0,.118.009c.243.022.6.673.5.892a.334.334,0,0,1-.039.059c-.318.456-.318.456.073.856l.1.1c.106.1.232.132.332.015a.452.452,0,0,1,.048-.06.58.58,0,0,1,.819-.04.411.411,0,0,0,.132.049.255.255,0,0,1,.212.273c0,.086.019.172.019.259a.234.234,0,0,0,0,.079.223.223,0,0,0,.265.172,4.649,4.649,0,0,1,.473,0c.192.01.294-.08.28-.263,0-.018-.006-.036-.008-.054a.519.519,0,0,1,.474-.561.385.385,0,0,0,.129-.058h0a.331.331,0,0,1,.464.063,2.262,2.262,0,0,0,.276.211c.2-.005.692-.495.674-.628a.256.256,0,0,0-.073-.167.557.557,0,0,1-.1-.845.277.277,0,0,0,.033-.088c.04-.2.17-.256.359-.268.44-.028.44-.035.44-.47C873.505,644.972,873.505,644.972,872.99,644.9Zm-1.309.551a1.348,1.348,0,1,1-1.334-1.362h.013a1.334,1.334,0,0,1,1.321,1.345Z" fill="#0071bd"/>
    <path id="Path_20995" data-name="Path 20995" d="M865.2,647.039a.74.74,0,0,0-.74.74h0a.74.74,0,1,0,.74-.741Z" fill="#0071bd"/>
    <path id="Path_20996" data-name="Path 20996" d="M872.356,635.5h-1.91a1.466,1.466,0,0,0-1.1.363,15.167,15.167,0,0,0-2.574,3.117,15.193,15.193,0,0,0-2.571-3.119,1.463,1.463,0,0,0-1.1-.363h-1.91c-.871,0-1.415.7-1.415,2.722v7.49c0,1.372.479,2.635,1.154,2.635h2.416c1.04,0-.892-3.157-.892-6.423v-.936c0-1.067.23-2.057.784-1.611,1.758,1.415,1.81,5.434,2.584,6v-.288a.6.6,0,0,1,.037-.237c.068-.151.292-.148.432-.157a2.644,2.644,0,0,0,.294-.02.339.339,0,0,0,.215-.081.6.6,0,0,0,.108-.18l.183-.391a.951.951,0,0,0,.114-.393.842.842,0,0,0-.352-.656c-.163-.135-.134-.32.02-.471l.168-.164c.553-.556.553-.556,1.185-.093a.917.917,0,0,0,.081.059.684.684,0,0,0,.466-.042,5.691,5.691,0,0,1,1.541-2.888c.554-.446.784.544.784,1.611v.751a.561.561,0,0,0,.413.368.611.611,0,0,0,.073.01.549.549,0,0,1,.216.09c.315.234.566.131.828-.11.373-.343.436-.329.813.062a3.583,3.583,0,0,1,.331.37v-4.306C873.772,636.2,873.228,635.5,872.356,635.5Z" fill="#0071bd"/>
  </g>
</svg>
