<svg width="32" height="32" viewBox="0 0 32 32" fill="none" xmlns="http://www.w3.org/2000/svg">
<g clip-path="url(#clip0)">
<path d="M25.4429 20.2402C25.3817 20.3818 25.3396 20.5042 25.2784 20.6113C25.068 20.9748 24.85 21.3344 24.6281 21.6901C24.5669 21.7896 24.5631 21.8661 24.6166 21.9694C24.7237 22.1913 24.8041 22.4285 24.9112 22.6542C24.9418 22.7154 25.0145 22.7842 25.0795 22.7995C25.573 22.9296 26.0665 23.0482 26.5638 23.1668C26.889 23.2471 26.9999 23.3849 27.0037 23.7177C27.0037 24.2418 27.0037 24.7621 27.0037 25.2862C27.0037 25.6075 26.889 25.749 26.5753 25.8256C26.0818 25.948 25.5845 26.0627 25.091 26.1928C25.0221 26.2119 24.9418 26.2846 24.9112 26.3497C24.8041 26.5715 24.7084 26.8011 24.6243 27.0344C24.6013 27.0995 24.6051 27.1989 24.6396 27.2563C24.8461 27.6159 25.0604 27.9679 25.2746 28.3236C25.4812 28.6679 25.4659 28.821 25.1866 29.1002C24.8308 29.456 24.4751 29.8156 24.1193 30.1676C23.8859 30.3971 23.6947 30.42 23.4154 30.2517C23.0558 30.0375 22.6962 29.8156 22.3289 29.609C22.2601 29.5708 22.1453 29.5669 22.0688 29.5937C21.824 29.6817 21.583 29.7888 21.3496 29.8998C21.2846 29.9304 21.2157 29.9992 21.2004 30.0643C21.0703 30.5578 20.9518 31.0513 20.8332 31.5486C20.7528 31.8814 20.6151 31.9923 20.267 31.9923C19.7582 31.9923 19.2456 31.9923 18.7368 31.9923C18.3886 31.9923 18.2509 31.8814 18.1706 31.5486C18.0482 31.0551 17.9334 30.5578 17.8033 30.0643C17.788 29.9992 17.7153 29.9266 17.6541 29.8998C17.417 29.7888 17.1798 29.6855 16.9349 29.5937C16.8699 29.5708 16.7704 29.5746 16.7092 29.609C16.3496 29.8156 15.9977 30.0298 15.6419 30.2441C15.3512 30.42 15.1675 30.3971 14.9265 30.1599C14.5669 29.8003 14.2035 29.4407 13.8439 29.0773C13.5991 28.8324 13.5799 28.6526 13.7559 28.3619C13.9587 28.0176 14.1729 27.6733 14.3718 27.3175C14.4101 27.2487 14.4177 27.1339 14.391 27.0612C14.3068 26.8202 14.2035 26.5868 14.0964 26.3573C14.062 26.2884 13.9855 26.2158 13.9166 26.1966C13.4231 26.0666 12.9296 25.948 12.4323 25.8294C12.1109 25.749 12 25.6075 12 25.2747C12 24.7582 12 24.2418 12 23.7253C12 23.3887 12.1109 23.251 12.4361 23.1706C12.9296 23.0482 13.4269 22.9334 13.9166 22.7995C13.9855 22.7804 14.0543 22.7039 14.0926 22.6389C14.15 22.5394 14.1576 22.4132 14.2188 22.3213C14.4101 22.0383 14.3565 21.7934 14.1691 21.5295C13.9587 21.2349 13.7904 20.9097 13.6029 20.5998C13.4193 20.2938 13.4384 20.1255 13.6909 19.8692C14.0505 19.5057 14.4101 19.1461 14.7735 18.7865C15.0183 18.5455 15.1714 18.5226 15.4698 18.6985C15.8561 18.9243 16.2387 19.1538 16.6174 19.3871C16.7284 19.456 16.8202 19.4598 16.9349 19.4024C17.1721 19.2915 17.417 19.2035 17.6503 19.0888C17.7115 19.0581 17.7804 18.9855 17.7957 18.9204C17.9258 18.4269 18.0443 17.9334 18.1629 17.4361C18.2471 17.1148 18.3886 17.0038 18.7176 17C19.2417 17 19.762 17 20.2861 17C20.6075 17 20.749 17.1186 20.8255 17.4285C20.9479 17.922 21.0627 18.4193 21.1928 18.9128C21.2119 18.9816 21.2807 19.062 21.3496 19.0926C21.5791 19.2035 21.8125 19.303 22.0535 19.391C22.1185 19.4139 22.218 19.4063 22.2754 19.3757C22.6503 19.1614 23.0214 18.9319 23.3924 18.7138C23.7138 18.5264 23.8592 18.5417 24.1193 18.8018C24.4904 19.1691 24.8614 19.5363 25.2249 19.9112C25.3167 19.9992 25.3702 20.1255 25.4429 20.2402ZM19.498 21.43C17.7957 21.43 16.4261 22.8034 16.43 24.5057C16.4338 26.2081 17.8033 27.5738 19.5095 27.57C21.2004 27.5662 22.57 26.1928 22.57 24.5057C22.5661 22.7995 21.2004 21.43 19.498 21.43Z" fill="#1971BD"/>
</g>
<path d="M12.2016 31.5396C11.0505 30.1583 11.0505 30.1583 11.9714 28.777C11.9714 28.777 11.9713 28.5468 12.2016 28.5468C12.4318 27.8561 11.2805 25.7842 10.5899 25.554C10.3597 25.554 10.3598 25.554 10.1296 25.554C9.20869 25.554 8.97848 25.3238 8.97848 24.6331C3.68351 23.9425 0 22.1008 0 20.0288V26.9353C0 29.4677 5.52518 31.7698 12.6619 32C12.6619 32 12.6619 32 12.4317 32L12.2016 31.5396Z" fill="#1971BD"/>
<path d="M22.1007 16.5756C22.3309 16.1151 22.331 15.4245 22.5613 14.964C22.1008 15.1943 21.41 15.1943 20.9496 15.4245C20.9496 15.8849 21.41 16.3454 22.1007 16.5756Z" fill="#1971BD"/>
<path d="M11.5108 21.6403C11.5108 21.4101 11.741 21.1799 11.741 20.9497C11.741 20.7194 11.9714 20.7194 11.9714 20.4892C11.9714 20.259 11.9714 20.0288 11.9714 19.7986C11.9714 19.3382 11.5109 18.8777 11.2806 18.6475C10.8202 18.4173 11.0504 17.9569 11.2806 17.4964L11.741 17.036C12.892 15.8849 12.8922 15.8849 14.5037 16.8057C14.5037 16.8057 14.7339 16.8057 14.7339 17.036C15.1943 17.2662 17.0359 16.5755 17.4964 15.8849C16.3453 16.1151 15.1943 16.1151 13.813 16.1151C6.21583 16.1151 0 13.8129 0 11.0503V17.9568C0 18.187 -5.62085e-05 18.6475 0.23016 18.8777C0.460376 19.108 0.690704 19.5684 0.92092 19.7986C1.15114 20.0288 1.61162 20.259 1.84184 20.4892C2.30227 20.7194 2.76265 20.9497 3.22308 21.1799C3.68351 21.4101 4.37405 21.6403 4.83448 21.8705C5.52513 22.1007 5.98567 22.331 6.67632 22.331C7.13675 22.331 7.36697 22.5611 7.8274 22.5611H8.51816C8.74837 22.5611 8.97848 22.5611 8.97848 22.5611C9.20869 22.5611 9.4388 22.5611 9.4388 22.5611C9.66901 22.5611 9.66918 22.5611 9.8994 22.5611C10.1296 22.5611 10.1295 22.5611 10.3597 22.5611C10.5899 22.5611 10.8203 22.5612 11.0505 22.331C11.5109 21.8705 11.5108 21.6403 11.5108 21.6403Z" fill="#1971BD"/>
<path d="M24.4028 16.3453C25.3237 15.6547 25.3238 15.6547 26.2447 16.3453C27.3957 17.4964 27.3957 17.4964 26.4748 19.1079C26.4748 19.1079 26.4749 19.3381 26.2447 19.3381C26.2447 20.4892 26.705 21.6403 27.6259 22.331C28.777 22.5612 29.2376 22.5612 29.2376 23.2518C29.9282 22.331 30.3885 21.6403 30.849 20.7194C31.5396 18.1871 31.3095 15.6547 30.3887 13.3525C29.9282 12.2014 29.4677 11.2806 28.5468 10.3597C28.0864 9.66907 27.626 8.97844 27.3957 8.28779C26.4749 9.43887 25.7842 10.5899 25.0936 11.741C24.8634 11.9712 24.8635 12.4317 24.6333 12.6619C23.9426 14.0432 23.482 15.6547 23.2517 17.036C23.9424 17.036 24.1726 16.8058 24.4028 16.3453Z" fill="#1971BD"/>
<path d="M13.813 0C6.21583 0 0 2.30219 0 5.06478V8.74818C0 11.5108 6.21583 13.813 13.813 13.813C17.036 13.813 20.4894 13.3525 23.4822 12.4316C23.4822 12.2014 23.7124 11.9712 23.7124 11.741C23.9426 11.2806 24.1726 11.0504 24.4028 10.5899C25.3237 8.97844 26.2447 7.59715 27.3958 6.21586V5.06478C27.3958 2.30219 21.4101 0 13.813 0Z" fill="#1971BD"/>
<defs>
<clipPath id="clip0">
<rect width="15" height="15" fill="white" transform="translate(12 17)"/>
</clipPath>
</defs>
</svg>
