<svg xmlns="http://www.w3.org/2000/svg" width="13.666" height="13.893" viewBox="0 0 13.666 13.893">
  <g id="mongodbversions" transform="translate(-1609.133 -520.526)">
    <path id="Path_20950" data-name="Path 20950" d="M1619.528,533.705a2.234,2.234,0,0,1-.276-.211.331.331,0,0,0-.464-.063.377.377,0,0,1-.129.058.519.519,0,0,0-.466.615c.014.183-.088.273-.28.263-.157-.009-.315-.007-.473,0a.223.223,0,0,1-.267-.251c0-.087-.017-.173-.019-.259a.256.256,0,0,0-.212-.273.424.424,0,0,1-.132-.049.58.58,0,0,0-.867.1c-.1.117-.226.09-.332-.015l-.1-.1c-.391-.4-.391-.4-.073-.856a.344.344,0,0,0,.039-.059c.105-.219-.257-.87-.5-.892-.04,0-.078-.005-.118-.009-.354-.033-.362-.042-.363-.4v-.071c0-.1,0-.194,0-.29a.425.425,0,0,1,.026-.168c.048-.107.206-.1.305-.111a1.9,1.9,0,0,0,.208-.014.242.242,0,0,0,.152-.057.436.436,0,0,0,.076-.127l.129-.276a.662.662,0,0,0,.081-.278.6.6,0,0,0-.248-.464c-.115-.1-.095-.226.014-.332l.118-.116c.39-.393.39-.393.837-.066a.521.521,0,0,0,.057.042c.2.1.884-.24.893-.465.024-.614.1-.495.6-.507.071,0,.142,0,.213,0a.2.2,0,0,1,.23.211,1.03,1.03,0,0,1,.012.141.4.4,0,0,0,.367.484.392.392,0,0,1,.153.063c.223.166.4.092.585-.077.264-.242.308-.232.574.044.38.39.38.39.056.823a.445.445,0,0,0-.042.058,1,1,0,0,0,.455.9c.515.071.515.071.514.588,0,.435,0,.442-.44.47-.189.012-.319.071-.359.268a.253.253,0,0,1-.033.088.561.561,0,0,0,.1.845.259.259,0,0,1,.073.167C1620.22,533.21,1619.725,533.7,1619.528,533.705Zm-1.824-3.865a1.348,1.348,0,1,0,1.334,1.345A1.333,1.333,0,0,0,1617.7,529.84Z" transform="translate(-0.224 -0.224)" fill="#0071bd"/>
    <path id="Path_20951" data-name="Path 20951" d="M1614.99,534.418h0Z" fill="none"/>
    <path id="Path_20952" data-name="Path 20952" d="M1615.089,534.419h0Z" fill="#0071bd"/>
    <path id="Path_20953" data-name="Path 20953" d="M1614.415,534.231c-.549-.562-.548-.562-.1-1.2a.54.54,0,0,0,.055-.083c.147-.308-.36-1.219-.7-1.25-.055-.005-.111-.007-.166-.012-.433-.04-.492-.075-.5-.415-2.259-.308-3.87-1.1-3.87-2.032v3.008c0,1.141,2.409,2.073,5.471,2.162a.561.561,0,0,1-.051-.038Z" fill="#0071bd"/>
    <path id="Path_20954" data-name="Path 20954" d="M1618.7,527.675c.008,0,.014.007.022.009a4.888,4.888,0,0,1,.163-.741h0c-.229.065-.461.116-.694.168A.551.551,0,0,0,1618.7,527.675Z" fill="#0071bd"/>
    <path id="Path_20955" data-name="Path 20955" d="M1614.123,529.863c.045-.1.092-.2.141-.3a1.11,1.11,0,0,0,.07-.176.75.75,0,0,0,.026-.339.887.887,0,0,0-.339-.52c-.161-.133-.133-.315.02-.465l.165-.163c.547-.55.547-.55,1.173-.092a.627.627,0,0,0,.079.059c.238.125.964-.206,1.183-.5a13.649,13.649,0,0,1-1.553.079c-3.288,0-5.954-.972-5.954-2.171v2.977a.866.866,0,0,0,.094.387,1.364,1.364,0,0,0,.274.366,2.463,2.463,0,0,0,.437.337,4.362,4.362,0,0,0,.583.3,6.654,6.654,0,0,0,.712.261c.272.084.548.155.826.215.165.035.331.067.5.095l.253.041a1.453,1.453,0,0,0,.228.029,1.506,1.506,0,0,0,.241-.03c.07-.013.14-.025.211-.032s.142,0,.213-.005a.428.428,0,0,0,.318-.135A.962.962,0,0,0,1614.123,529.863Z" fill="#0071bd"/>
    <path id="Path_20956" data-name="Path 20956" d="M1619.735,527.655c.369-.339.43-.326.781.037l.023.024c.532.547.532.547.078,1.154a.789.789,0,0,0-.058.08,1.4,1.4,0,0,0,.637,1.259c.537.075.674.1.708.4a6.214,6.214,0,0,0,.731-1.149,5.175,5.175,0,0,0-.215-3.237,3.736,3.736,0,0,0-.793-1.3,4.119,4.119,0,0,1-.545-.89v0a11.168,11.168,0,0,0-1.016,1.516c-.076.134-.146.27-.211.409a5.68,5.68,0,0,0-.565,1.926A.754.754,0,0,0,1619.735,527.655Z" fill="#0071bd"/>
    <path id="Path_20957" data-name="Path 20957" d="M1615.087,520.526c-3.289,0-5.954.972-5.954,2.171v1.581c0,1.2,2.665,2.172,5.954,2.172a12.733,12.733,0,0,0,4.215-.638c.043-.1.089-.194.136-.29h0c.083-.172.173-.34.272-.506a13.926,13.926,0,0,1,1.306-1.873l.021.044v-.49C1621.041,521.5,1618.375,520.526,1615.087,520.526Z" fill="#0071bd"/>
  </g>
</svg>
