<svg width="32" height="32" viewBox="0 0 32 32" fill="none" xmlns="http://www.w3.org/2000/svg">
<path d="M11.0232 25.5389C10.8922 25.5389 10.543 25.1678 10.4338 25.0587C10.3247 24.9495 10.0191 24.7312 9.73533 24.8186C9.27231 24.8983 8.83688 25.0935 8.4693 25.3861C8.223 25.6863 8.09837 26.068 8.12005 26.4557C8.12005 26.9359 7.63983 27.0232 7.2251 27.0232C6.81036 27.0232 5.98089 27.0232 5.89358 26.6085C5.80627 26.1937 5.89358 25.4516 5.17325 25.1023C4.72261 24.8683 4.20005 24.8137 3.71077 24.9495C3.40518 25.1023 3.23055 25.5607 2.85948 25.5389C2.54909 25.4469 2.26946 25.2725 2.05036 25.0342C1.83126 24.7958 1.68089 24.5026 1.61527 24.1855C1.61527 23.7272 2.11732 23.4652 2.20463 23.0505C2.23147 22.6082 2.09124 22.1719 1.81173 21.8281C1.72882 21.696 1.62054 21.5817 1.49314 21.4918C1.36575 21.4019 1.22178 21.3381 1.06957 21.3042C0.785806 21.3042 0.327416 21.3042 0.152791 21.0641C0.112483 20.9587 0.112483 20.8421 0.152791 20.7367C0.152791 20.3438 -0.0654899 19.296 0.371072 19.0778C0.542997 19.0343 0.723022 19.0343 0.894947 19.0778C1.68076 19.0778 1.9427 18.6194 2.13915 17.9427C2.25003 17.6782 2.26944 17.3843 2.19431 17.1075C2.11918 16.8307 1.95381 16.5869 1.72441 16.4147C1.22237 15.9127 1.65893 15.5416 1.89904 15.2797C2.13915 15.0177 2.44474 14.603 2.85948 14.603C3.27421 14.603 3.55798 15.1487 3.95088 15.236H4.36561C4.80218 15.236 5.91541 14.7776 5.93724 14.2101C5.95907 13.6426 5.93724 13.2933 6.26466 13.1187C6.70785 12.9991 7.17481 12.9991 7.618 13.1187C8.40381 13.2715 8.05456 14.3629 8.60027 14.7776L9.14597 15.0614C9.32611 15.1558 9.51655 15.229 9.7135 15.2797C9.86602 15.2971 10.0205 15.2785 10.1646 15.2255C10.3086 15.1724 10.4382 15.0863 10.543 14.9741C11.1105 14.4502 11.1978 14.472 11.7872 14.9741C12.0273 15.2142 12.4638 15.5416 12.4202 15.9345C12.3765 16.3274 12.0273 16.502 11.8963 16.8076C11.8308 17.0197 11.8145 17.244 11.8485 17.4633C11.8826 17.6827 11.9661 17.8914 12.0928 18.0737C12.2078 18.2968 12.3632 18.4966 12.5512 18.663C12.9222 18.9031 13.4024 18.794 13.7299 19.0778C14.0573 19.3615 13.9263 19.8199 13.9263 20.1255C13.9263 21.086 13.9263 21.1078 12.9659 21.1514C12.0055 21.1951 11.6999 22.4175 11.8308 23.0723C11.9618 23.7271 12.4638 23.7053 12.4857 24.1419C12.5075 24.5784 11.4597 25.5389 11.0232 25.5389ZM7.05047 17.1132C6.4668 17.1046 5.89372 17.2695 5.40391 17.5871C4.9141 17.9046 4.52963 18.3604 4.29927 18.8968C4.06891 19.4332 4.00304 20.0259 4.11 20.5997C4.21697 21.1735 4.49196 21.7027 4.90009 22.12C5.30823 22.5374 5.83111 22.8241 6.40243 22.9438C6.97375 23.0636 7.56777 23.0109 8.10913 22.7926C8.65049 22.5743 9.1148 22.2 9.44319 21.7174C9.77157 21.2348 9.94922 20.6656 9.95361 20.0819C9.9653 19.6962 9.89942 19.3121 9.75986 18.9524C9.6203 18.5927 9.40992 18.2647 9.1412 17.9878C8.87247 17.7109 8.55087 17.4908 8.19548 17.3406C7.84008 17.1904 7.45814 17.1131 7.0723 17.1132H7.05047Z" fill="#1971BD"/>
<path d="M31.7599 24.0109V23.7708C31.6104 23.5118 31.4426 23.2638 31.2578 23.0287C30.93 22.5701 30.5407 22.1588 30.101 21.8063C29.7299 21.5225 29.2497 21.2169 29.1187 20.7367C30.0412 20.6827 30.9596 20.5734 31.869 20.4093V20.191C31.7685 19.9994 31.6516 19.8169 31.5198 19.6453C31.401 19.4494 31.262 19.2665 31.105 19.0996C30.8224 18.7515 30.5161 18.4233 30.1883 18.1173C29.8052 17.754 29.3967 17.4184 28.9659 17.1132L28.3765 16.7858C28.2237 16.6767 27.9181 16.5894 27.809 16.4147C27.3738 15.4696 27.0374 14.4821 26.8049 13.4679C26.4118 11.9269 25.7862 10.4548 24.9495 9.10232C24.0864 7.79692 22.9646 6.68253 21.6535 5.8281C20.9498 5.4153 20.1704 5.14808 19.3615 5.04229C19.1651 4.93315 19.0123 4.67121 18.8377 4.54025C18.2987 4.02342 17.6257 3.668 16.895 3.51432C16.7534 3.4928 16.6088 3.50115 16.4706 3.53886C16.3325 3.57657 16.2037 3.64279 16.0927 3.73326C15.9817 3.82373 15.8908 3.93645 15.826 4.06416C15.7611 4.19186 15.7237 4.33173 15.7162 4.47476C15.6979 4.91297 15.812 5.34654 16.0437 5.71896C16.2401 6.09004 16.502 6.43929 16.6985 6.8322C16.9297 7.49147 17.0978 8.17118 17.2005 8.86221C17.2982 9.30097 17.4295 9.73154 17.5935 10.1501C17.5935 10.3684 17.7681 10.5866 17.8772 10.8049C17.9864 11.0232 18.1173 11.0887 18.1392 11.2851C17.9674 11.587 17.8354 11.9099 17.7462 12.2456C17.7462 12.6166 17.4843 12.9659 17.4188 13.337C17.3323 13.7091 17.2884 14.0899 17.2879 14.472C17.2655 15.2191 17.3993 15.9625 17.6808 16.6548C17.7411 16.945 17.86 17.2198 18.03 17.4625C18.128 17.5825 18.2576 17.6727 18.4042 17.7229C18.5508 17.7731 18.7085 17.7811 18.8595 17.7462C19.4488 17.5498 19.4052 16.7858 19.6235 16.131C19.6235 16 19.6235 15.869 19.7544 15.8035C19.9384 16.3828 20.1874 16.9393 20.4966 17.4625C20.7938 17.9459 21.1374 18.3991 21.5225 18.8158C22.2698 19.6824 23.1547 20.4199 24.1419 20.9986C25.0628 21.5265 26.0099 22.0073 26.9795 22.4393C26.9795 22.4393 28.704 23.2469 29.5989 23.6398C30.3765 23.9558 31.1798 24.2041 32 24.382C32 24.382 31.8472 24.1201 31.7599 24.0109ZM20.0382 7.7708C19.9712 7.83495 19.8883 7.88015 19.7981 7.90177C19.6799 7.42048 19.4806 6.96282 19.2087 6.54843C18.8158 6.24284 19.2087 5.84993 19.7326 5.9809C19.9509 5.9809 20.06 6.17735 20.2128 6.33015C20.3751 6.56549 20.4386 6.8551 20.3896 7.13674C20.3406 7.41838 20.1831 7.66956 19.9509 7.83629L20.0382 7.7708Z" fill="#1971BD"/>
<path d="M15.4761 21.6535C14.9086 21.6535 14.4939 21.8718 14.3629 22.4829C14.3852 22.5762 14.3852 22.6734 14.3629 22.7667C14.2019 22.927 14.0741 23.1174 13.9869 23.3272C13.8997 23.537 13.8548 23.7619 13.8548 23.9891C13.8548 24.2163 13.8997 24.4412 13.9869 24.651C14.0741 24.8607 14.2019 25.0512 14.3629 25.2115L14.5812 25.3861C19.2961 25.015 22.854 23.5089 23.0505 21.6753C22.7101 21.4649 22.3951 21.2159 22.1119 20.9332C22.0291 20.8551 21.9416 20.7822 21.8499 20.7149C21.61 20.5113 21.3907 20.2847 21.1951 20.0382L20.9113 19.6453L20.5184 19.296C19.3292 19.747 18.1019 20.0904 16.8513 20.322C16.8513 21.5443 16.8076 21.5662 15.4761 21.6535Z" fill="#1971BD"/>
<path d="M13.97 15.4325L13.839 15.6071C13.8202 16.0987 13.9171 16.5879 14.1218 17.0353C14.3265 17.4826 14.6334 17.8757 15.0177 18.1828L16.9168 17.9427C16.7647 17.7224 16.6331 17.4886 16.5239 17.2442C16.0236 15.9816 15.9096 14.5989 16.1964 13.2715C15.5853 13.3588 14.9741 13.4243 14.3629 13.4679C14.9304 14.1446 14.7776 14.3629 13.97 15.4325Z" fill="#1971BD"/>
<path d="M2.59755 13.206C3.03411 13.4243 4.191 12.9877 4.78036 12.442C2.77217 11.6999 1.44066 10.6958 1.44066 9.56071V12.442C1.78948 12.6264 2.1186 12.8458 2.42292 13.0969L2.59755 13.206Z" fill="#1971BD"/>
<path d="M7.2251 10.2156H7.87994C8.03904 10.1903 8.20167 10.2289 8.33247 10.3229C8.46327 10.4169 8.55167 10.5588 8.57844 10.7176V10.9141C9.79465 11.0701 11.0194 11.1503 12.2456 11.1542C13.7519 11.1509 15.2556 11.0268 16.7422 10.7831C16.6112 10.7831 16.1965 9.40791 16.1528 9.27694C16.0063 8.34749 15.7725 7.43393 15.4543 6.54843C15.1924 5.9809 14.7776 5.50068 14.5593 4.91132C14.3195 4.27844 14.3195 3.57968 14.5593 2.94679C14.7018 2.61717 14.9461 2.34184 15.2564 2.16115C15.5667 1.98046 15.9268 1.9039 16.2838 1.9427C17.1795 2.09458 18.0087 2.51296 18.663 3.14325C18.8158 3.27422 18.9468 3.47067 19.1214 3.60164C19.3935 3.73342 19.6923 3.80065 19.9945 3.79809C20.3327 3.8817 20.6618 3.99869 20.9768 4.14734C21.7824 4.50703 22.5206 5.00163 23.1596 5.60982V3.99454C23.0505 1.7899 18.2046 0 12.2456 0C6.28649 0 1.33151 1.7899 1.33151 3.99454V7.18145C1.33151 8.4693 3.0341 9.58254 5.69713 10.3247C5.95907 10.1501 6.41746 10.2374 7.2251 10.2156Z" fill="#1971BD"/>
</svg>
