<svg xmlns="http://www.w3.org/2000/svg" width="14.631" height="12.368" viewBox="0 0 14.631 12.368">
  <g id="mysqlversions" transform="translate(-860.138 -599.254)">
    <path id="Path_20950" data-name="Path 20950" d="M865.171,610.955a2.262,2.262,0,0,1-.276-.211.331.331,0,0,0-.464-.063h0a.385.385,0,0,1-.129.058.519.519,0,0,0-.474.561c0,.018.005.036.008.054.014.183-.088.273-.28.263a4.649,4.649,0,0,0-.473,0,.223.223,0,0,1-.265-.172.234.234,0,0,1,0-.079c0-.087-.017-.173-.019-.259a.255.255,0,0,0-.212-.273.411.411,0,0,1-.132-.049.58.58,0,0,0-.819.04.452.452,0,0,0-.048.06c-.1.117-.226.09-.332-.015l-.1-.1c-.391-.4-.391-.4-.073-.856a.334.334,0,0,0,.039-.059c.1-.219-.257-.87-.5-.892a1.163,1.163,0,0,1-.118-.009c-.354-.033-.362-.042-.363-.4v-.361a.42.42,0,0,1,.026-.168c.048-.107.206-.1.3-.111a2.069,2.069,0,0,0,.208-.014.243.243,0,0,0,.152-.057.457.457,0,0,0,.076-.127l.129-.276a.667.667,0,0,0,.081-.278.6.6,0,0,0-.248-.464.206.206,0,0,1,.014-.332l.118-.116c.39-.393.39-.393.837-.066a.612.612,0,0,0,.057.042c.2.1.884-.24.893-.465.024-.614.1-.495.6-.507h.213a.2.2,0,0,1,.228.167.217.217,0,0,1,0,.044,1.121,1.121,0,0,1,.012.141.4.4,0,0,0,.306.476.408.408,0,0,0,.061.008.387.387,0,0,1,.153.063c.223.166.4.092.585-.077.264-.242.308-.232.574.044.38.39.38.39.056.823a.342.342,0,0,0-.042.058,1,1,0,0,0,.455.9c.515.071.515.071.514.588,0,.435,0,.442-.44.47-.189.012-.319.071-.359.268a.277.277,0,0,1-.033.088.557.557,0,0,0,.1.845.256.256,0,0,1,.073.167C865.863,610.46,865.368,610.95,865.171,610.955Zm-1.824-3.865a1.348,1.348,0,1,0,1.334,1.362v-.017a1.334,1.334,0,0,0-1.321-1.345h-.013Z" fill="#0071bd"/>
    <path id="Path_20975" data-name="Path 20975" d="M869.192,601.96h0a.161.161,0,0,0-.044,0c-.191-.056-.417.125-.243.266a1.923,1.923,0,0,1,.273.65.535.535,0,0,0,.113-.061.5.5,0,0,0,.114-.7C869.335,602.053,869.285,601.968,869.192,601.96Z" fill="none"/>
    <path id="Path_20976" data-name="Path 20976" d="M874.769,610.419a7.606,7.606,0,0,1-1.1-.36c-.409-.179-1.177-.524-1.2-.546-2-.963-1.825-1.024-2.1-1.24a5.08,5.08,0,0,1-.377-.4,3.309,3.309,0,0,1-.649-.891c-.061-.174-.121-.35-.182-.525v-.014c-.037.043-.032.1-.055.163-.105.3-.084.649-.35.734-.3.1-.483-.255-.557-.42a2.838,2.838,0,0,1,.042-2.054,1.811,1.811,0,0,1,.176-.444c0-.108-.081-.148-.121-.222a3.006,3.006,0,0,1-.167-.393,8.037,8.037,0,0,1-.212-.849c-.027-.115-.024-.219-.058-.328a2.914,2.914,0,0,0-.237-.486c-.115-.214-.452-.642-.26-1.023a.444.444,0,0,1,.491-.261l-.005-.006a2,2,0,0,1,.894.477c.076.063.154.187.237.234l.424.071a2.54,2.54,0,0,1,.694.323,5.937,5.937,0,0,1,1.959,2.5,5.805,5.805,0,0,1,.214.721c.107.368.23.748.357,1.1a3.033,3.033,0,0,0,.185.494c.036.063.147.094.207.135.18.123.393.224.56.365a8.247,8.247,0,0,1,.851.842c.1.113.158.269.248.391l-.006.055-.279.054c-.206.035-.377,0-.577.04a2.671,2.671,0,0,1-.4.056l.012.016c.051.228.428.454.59.608a2.845,2.845,0,0,1,.532.669l.145.2c.033.059.038.139.074.2Z" fill="none"/>
    <path id="Path_20977" data-name="Path 20977" d="M874.7,610.205l-.145-.2a2.845,2.845,0,0,0-.532-.669c-.162-.154-.539-.38-.59-.608l-.012-.016a2.671,2.671,0,0,0,.4-.056c.2-.035.371-.005.577-.04l.279-.054.006-.055c-.09-.122-.147-.278-.248-.391a8.247,8.247,0,0,0-.851-.842c-.167-.141-.38-.242-.56-.365-.06-.041-.171-.072-.207-.135a3.033,3.033,0,0,1-.185-.494c-.127-.352-.25-.732-.357-1.1a5.805,5.805,0,0,0-.214-.721,5.937,5.937,0,0,0-1.959-2.5,2.54,2.54,0,0,0-.694-.323l-.424-.071c-.083-.047-.161-.171-.237-.234a2,2,0,0,0-.894-.477l.005.006a.444.444,0,0,0-.491.261c-.192.381.145.809.26,1.023a2.914,2.914,0,0,1,.237.486c.034.109.031.213.058.328a8.037,8.037,0,0,0,.212.849,3.006,3.006,0,0,0,.167.393c.04.074.119.114.121.222a1.811,1.811,0,0,0-.176.444,2.838,2.838,0,0,0-.042,2.054c.074.165.253.517.557.42.266-.085.245-.436.35-.734.023-.067.018-.12.055-.163v.014c.061.175.121.351.182.525a3.309,3.309,0,0,0,.649.891,5.08,5.08,0,0,0,.377.4c.275.216.1.277,2.1,1.24.023.022.791.367,1.2.546a7.606,7.606,0,0,0,1.1.36v-.014C874.733,610.344,874.728,610.264,874.7,610.205Zm-5.4-7.389a.535.535,0,0,1-.113.061,1.923,1.923,0,0,0-.273-.65c-.174-.141.052-.322.243-.266a.161.161,0,0,1,.044,0h0c.093.008.143.093.213.158A.5.5,0,0,1,869.291,602.816Z" fill="#0071bd"/>
    <path id="Path_20978" data-name="Path 20978" d="M867.21,609.176c-.268.017-.452.1-.509.379a.37.37,0,0,1-.047.125.8.8,0,0,0,.042,1.122.742.742,0,0,0,.1.078l0,.005c2.158-.175,3.787-.866,3.877-1.706a2.293,2.293,0,0,1-.427-.334l0,0a1.1,1.1,0,0,0-.115-.1,2.265,2.265,0,0,1-.3-.312c-.044-.053-.087-.1-.134-.151s-.119-.124-.177-.188a10.025,10.025,0,0,1-1.686.471C867.832,609.121,867.813,609.137,867.21,609.176Z" fill="#0071bd"/>
    <path id="Path_20979" data-name="Path 20979" d="M866.52,606.322a.679.679,0,0,0-.059.082,1.408,1.408,0,0,0,.531,1.176c.291-.029.582-.062.871-.111a1.747,1.747,0,0,1-.181-.313h0a3.187,3.187,0,0,1-.145-1.825c-.281.04-.563.069-.845.09C866.956,605.729,866.89,605.829,866.52,606.322Z" fill="#0071bd"/>
    <path id="Path_20980" data-name="Path 20980" d="M861.307,605.3c.2.1.726-.1,1.034-.348-.957-.333-1.561-.8-1.561-1.323v1.32a2.89,2.89,0,0,1,.446.292A.917.917,0,0,0,861.307,605.3Z" fill="#0071bd"/>
    <path id="Path_20981" data-name="Path 20981" d="M863.422,603.93h.3a.283.283,0,0,1,.323.236.228.228,0,0,1,0,.064l0,.019a12.713,12.713,0,0,0,1.679.115,12.488,12.488,0,0,0,2.062-.168,3.591,3.591,0,0,1-.2-.465h0a5.3,5.3,0,0,1-.183-.7c-.018-.087-.038-.173-.058-.259-.015-.065-.023-.127-.031-.188a.849.849,0,0,0-.026-.151,2.31,2.31,0,0,0-.178-.372l-.062-.112c-.018-.033-.041-.072-.067-.115a1.311,1.311,0,0,1-.221-1.259.772.772,0,0,1,.819-.436,2.441,2.441,0,0,1,1.122.584,1.054,1.054,0,0,1,.135.14c.018.02.041.047.061.067l.444.079.1.037a2.551,2.551,0,0,1,.734.358c.171.135.338.275.5.422v-.747c0-1.008-2.217-1.825-4.953-1.825s-4.953.817-4.953,1.825v1.46c0,.59.774,1.109,1.954,1.443C862.848,603.9,863.052,603.939,863.422,603.93Z" fill="#0071bd"/>
  </g>
</svg>
