<svg xmlns="http://www.w3.org/2000/svg" width="12.633" height="13.952" viewBox="0 0 12.633 13.952">
  <g id="perconaxtradbversions" transform="translate(-861.138 -550.03)">
    <path id="Path_21006" data-name="Path 21006" d="M866.99,559.9a1,1,0,0,1-.455-.9.342.342,0,0,1,.042-.058c.324-.433.324-.433-.056-.823-.266-.276-.31-.286-.574-.044-.185.169-.362.243-.585.077a.387.387,0,0,0-.153-.063.408.408,0,0,1-.061-.008.4.4,0,0,1-.306-.476,1.121,1.121,0,0,0-.012-.141.217.217,0,0,0,0-.044.2.2,0,0,0-.228-.167h-.213c-.5.012-.576-.107-.6.507-.009.225-.693.565-.893.465a.612.612,0,0,1-.057-.042c-.447-.327-.447-.327-.837.066l-.118.116a.206.206,0,0,0-.014.332.6.6,0,0,1,.248.464.667.667,0,0,1-.081.278l-.129.276a.457.457,0,0,1-.076.127.243.243,0,0,1-.152.057,2.069,2.069,0,0,1-.208.014c-.1.011-.257,0-.3.111a.42.42,0,0,0-.026.168v.361c0,.358.009.367.363.4a1.163,1.163,0,0,0,.118.009c.243.022.6.673.5.892a.334.334,0,0,1-.039.059c-.318.456-.318.456.073.856l.1.1c.106.1.232.132.332.015a.452.452,0,0,1,.048-.06.58.58,0,0,1,.819-.04.411.411,0,0,0,.132.049.255.255,0,0,1,.212.273c0,.086.019.172.019.259a.234.234,0,0,0,0,.079.223.223,0,0,0,.265.172,4.649,4.649,0,0,1,.473,0c.192.01.294-.08.28-.263,0-.018-.006-.036-.008-.054a.519.519,0,0,1,.474-.561.385.385,0,0,0,.129-.058h0a.331.331,0,0,1,.464.063,2.262,2.262,0,0,0,.276.211c.2-.005.692-.495.674-.628a.256.256,0,0,0-.073-.167.557.557,0,0,1-.1-.845.277.277,0,0,0,.033-.088c.04-.2.17-.256.359-.268.44-.028.44-.035.44-.47C867.505,559.972,867.505,559.972,866.99,559.9Zm-1.309.551a1.348,1.348,0,1,1-1.334-1.362h.013a1.334,1.334,0,0,1,1.321,1.345Z" fill="#0071bd"/>
    <path id="Path_21007" data-name="Path 21007" d="M866.847,555.915c.053.04.106.083.161.121a1.821,1.821,0,0,0,.546.238l-.113-.117C867.153,555.858,867.046,555.783,866.847,555.915Z" fill="#0071bd"/>
    <path id="Path_21008" data-name="Path 21008" d="M865.754,555.414a.51.51,0,0,0-.326.151.772.772,0,0,0-.176.4.567.567,0,0,0,.259.139.611.611,0,0,0,.073.01.548.548,0,0,1,.193.081.763.763,0,0,1,.007-.158.259.259,0,0,1,.184-.2.338.338,0,0,1,.266.047,1.973,1.973,0,0,1,.2.143,1.508,1.508,0,0,0,.149.1c.015-.013.03-.021.045-.035a1.839,1.839,0,0,1,.219-.18c-.124-.092-.248-.184-.374-.279A.9.9,0,0,0,865.754,555.414Z" fill="#0071bd"/>
    <path id="Path_21009" data-name="Path 21009" d="M867.874,556.345a1.823,1.823,0,0,1-.32-.071l.09.1Z" fill="#0071bd"/>
    <path id="Path_21010" data-name="Path 21010" d="M870.631,557.14h-.01a.105.105,0,0,0-.022.009.343.343,0,0,1-.362.06c-.132-.046-.258-.107-.386-.157a.982.982,0,0,0-.707-.05.826.826,0,0,0-.281.156c.068.005.138,0,.2.008a2.013,2.013,0,0,1,.461.148.155.155,0,0,1,.117.176.429.429,0,0,0,.087.293.376.376,0,0,0,.348.123.371.371,0,0,0,.368-.309.05.05,0,0,1,.018-.031c.032-.018.066-.032.107-.05a.42.42,0,0,0,.255.235,1.907,1.907,0,0,0,.577.133,2.8,2.8,0,0,0,.29,0c-.164-.062-.342-.12-.511-.2A.936.936,0,0,1,870.631,557.14Z" fill="#0071bd"/>
    <path id="Path_21011" data-name="Path 21011" d="M873.66,555.482a2.6,2.6,0,0,0,.1-1,2.274,2.274,0,0,0-.8-1.5,2.7,2.7,0,0,0-.78-.477l-.027-.009h-.014a1.145,1.145,0,0,1,.009.661,4.026,4.026,0,0,0-.907-1.194,3.471,3.471,0,0,0-1.254-.8.853.853,0,0,1,.156.572c-.078-.061-.142-.116-.214-.165a2.652,2.652,0,0,0-1.055-.462,2.8,2.8,0,0,0-.876-.031.173.173,0,0,1-.2-.1,4.059,4.059,0,0,0-.566-.642c-.087-.086-.179-.168-.267-.252a.465.465,0,0,1-.047-.053l-.608.24a3.77,3.77,0,0,1,.848.876c.019.029.036.06.058.1a4.668,4.668,0,0,0-1.032.507c.072-.021.144-.047.214-.065.214-.053.419-.116.633-.152a5.7,5.7,0,0,1,.715-.077,4.288,4.288,0,0,1,.543.031,2.428,2.428,0,0,1,.6.141,2.917,2.917,0,0,1,.937.54c.2.171.385.356.579.535.023.021.048.041.08.067a1.452,1.452,0,0,0-.011-.749l.017-.012c.073.042.149.078.214.124a2.961,2.961,0,0,1,.625.589,5.789,5.789,0,0,1,.765,1.168c.048.1.089.2.135.3a1.3,1.3,0,0,0,.214-1.076.682.682,0,0,1,.083.048,1.746,1.746,0,0,1,.49.63,2.015,2.015,0,0,1,.177.535,2.05,2.05,0,0,1,.01.749l-.064.344-.02.006a.309.309,0,0,1-.032-.048,2.411,2.411,0,0,0-.428-.709c-.046-.051-.1-.1-.16-.155a.56.56,0,0,0,.019.058,4.01,4.01,0,0,1,.278.929,7.248,7.248,0,0,1,.107,1.07,8.927,8.927,0,0,1-.05,1.167c-.024.226-.056.45-.1.672a4.854,4.854,0,0,1-.321,1.1c-.062.137-.139.266-.208.4.042.078.092.159.131.247a.769.769,0,0,1,.03.483,1.113,1.113,0,0,1-.285.526.749.749,0,0,1-.547.261.637.637,0,0,1-.365-.149,3,3,0,0,0-.954-.452,1.824,1.824,0,0,0-.535-.063.063.063,0,0,0-.043.017c.065.025.132.047.2.074a5.3,5.3,0,0,1,.83.42.371.371,0,0,1,.177.231.215.215,0,0,1-.16.252.474.474,0,0,1-.378-.074c-.107-.066-.214-.141-.321-.207.044.055.089.107.132.163a1.9,1.9,0,0,1,.363.765.981.981,0,0,1-.4,1.061c-.022.015-.047.027-.071.041l-.012-.011c.019-.042.039-.082.054-.124a.644.644,0,0,0-.245-.789,1.9,1.9,0,0,0-.2-.134,1.206,1.206,0,0,1,.205.773,1.479,1.479,0,0,1-.321.743c.041-.007.082-.012.121-.021a2.134,2.134,0,0,0,.874-.367,1.1,1.1,0,0,0,.409-.627,1.508,1.508,0,0,0,.025-.552v-.017c0-.04-.02-.087,0-.117s.065-.033.1-.049a.5.5,0,0,0,.286-.364c.01-.048.032-.047.068-.042a2.01,2.01,0,0,0,.246.036,1.137,1.137,0,0,0,1.07-.619,1.418,1.418,0,0,0,.191-.662,1.536,1.536,0,0,0-.074-.551.083.083,0,0,1,.006-.062,3.772,3.772,0,0,0,.388-1.009c.047-.2.087-.409.124-.615a6.608,6.608,0,0,0,.076-1.46c-.01-.206-.048-.413-.072-.619a.123.123,0,0,1,.012-.068A3.576,3.576,0,0,0,873.66,555.482Z" fill="#0071bd"/>
    <path id="Path_21012" data-name="Path 21012" d="M869.637,563.238l-.015-.01a1.057,1.057,0,0,1-.466.356.742.742,0,0,1-.592-.051,2.422,2.422,0,0,0,.2-.192.894.894,0,0,0,.2-.856.685.685,0,0,0-.4-.442,1.447,1.447,0,0,0-.724-.057c-.033.005-.067,0-.1.008l.013.01.044.013c.024.006.044.023.068.03a1.129,1.129,0,0,1,.307.137.645.645,0,0,1,.29.565.978.978,0,0,1-.19.525,2.118,2.118,0,0,1-.606.572l-.045.033v.017c.181.025.361.057.543.074a1.919,1.919,0,0,0,.8-.08,1.022,1.022,0,0,0,.58-.437A2.14,2.14,0,0,0,869.637,563.238Z" fill="#0071bd"/>
    <path id="Path_21013" data-name="Path 21013" d="M868.58,551.762l-.06.02a3.172,3.172,0,0,0-1.064.53,2.135,2.135,0,0,0-.83,1.309,1.972,1.972,0,0,0,.64,1.862v-.009a2.1,2.1,0,0,0,1.118.5,2.678,2.678,0,0,0,1.255-.138,1.267,1.267,0,0,0,.819-.856.919.919,0,0,0-.059-.679.667.667,0,0,0-.632-.385.982.982,0,0,0-.441.113c-.092.046-.181.1-.271.152.136,0,.264,0,.39.012a.6.6,0,0,1,.389.191.755.755,0,0,1,.2.736.834.834,0,0,1-.321.486,1.275,1.275,0,0,1-.687.235,1.422,1.422,0,0,1-.779-.154,1.693,1.693,0,0,1-.682-.642,2.264,2.264,0,0,1-.262-1.727,2.08,2.08,0,0,1,.62-1.028c.1-.091.214-.171.313-.256l.013.014c0,.006-.007.012-.01.017a.275.275,0,0,1-.028.035,2.072,2.072,0,0,0-.524,1.417,1.138,1.138,0,0,0,.14.565.929.929,0,0,0,.76.466,1.867,1.867,0,0,0,.606-.025l-.014-.009-.084-.015a1.1,1.1,0,0,1-.908-.67,1.622,1.622,0,0,1-.12-.8,2.236,2.236,0,0,1,.341-1.027C868.462,551.928,868.521,551.85,868.58,551.762Z" fill="#0071bd"/>
    <path id="Path_21014" data-name="Path 21014" d="M871.274,560.818a.28.28,0,0,0,.229.107c.107,0,.222.005.335.009h.143v-.014l-.034-.027c-.1-.081-.207-.158-.3-.245a1.167,1.167,0,0,0-.242-.218.18.18,0,0,0-.225.017.172.172,0,0,0-.024.214A1.13,1.13,0,0,0,871.274,560.818Z" fill="#0071bd"/>
    <path id="Path_21015" data-name="Path 21015" d="M871.673,560.215c-.006-.014-.011-.028-.018-.042a.6.6,0,0,0-.49-.332.378.378,0,0,0-.339.134.548.548,0,0,0-.077.46,1.624,1.624,0,0,0,.049.181c.016-.058.018-.114.029-.169a.916.916,0,0,1,.046-.163.361.361,0,0,1,.406-.236A1.066,1.066,0,0,1,871.673,560.215Z" fill="#0071bd"/>
    <path id="Path_21016" data-name="Path 21016" d="M871.679,560.218l-.006,0v0Z" fill="#0071bd"/>
  </g>
</svg>
