<svg width="32" height="32" viewBox="0 0 32 32" fill="none" xmlns="http://www.w3.org/2000/svg">
<g clip-path="url(#clip0)">
<path d="M13.4429 18.2508C13.3817 18.3924 13.3396 18.5148 13.2784 18.6219C13.068 18.9854 12.85 19.345 12.6281 19.7007C12.5669 19.8002 12.5631 19.8767 12.6166 19.98C12.7237 20.2019 12.8041 20.4391 12.9112 20.6648C12.9418 20.726 13.0145 20.7948 13.0795 20.8101C13.573 20.9402 14.0665 21.0588 14.5638 21.1774C14.889 21.2577 14.9999 21.3955 15.0037 21.7283C15.0037 22.2524 15.0037 22.7727 15.0037 23.2968C15.0037 23.6181 14.889 23.7596 14.5753 23.8362C14.0818 23.9586 13.5845 24.0733 13.091 24.2034C13.0221 24.2225 12.9418 24.2952 12.9112 24.3603C12.8041 24.5821 12.7084 24.8117 12.6243 25.045C12.6013 25.1101 12.6051 25.2095 12.6396 25.2669C12.8461 25.6265 13.0604 25.9785 13.2746 26.3342C13.4812 26.6785 13.4659 26.8316 13.1866 27.1108C12.8308 27.4666 12.4751 27.8262 12.1193 28.1782C11.8859 28.4077 11.6947 28.4307 11.4154 28.2623C11.0558 28.0481 10.6962 27.8262 10.3289 27.6196C10.2601 27.5814 10.1453 27.5776 10.0688 27.6043C9.82397 27.6923 9.58297 27.7994 9.34961 27.9104C9.28457 27.941 9.21571 28.0098 9.20041 28.0749C9.07034 28.5684 8.95175 29.0619 8.83316 29.5592C8.75282 29.892 8.61511 30.003 8.26698 30.003C7.75819 30.003 7.24556 30.003 6.73677 30.003C6.38864 30.003 6.25092 29.892 6.17059 29.5592C6.04817 29.0657 5.93341 28.5684 5.80334 28.0749C5.78803 28.0098 5.71535 27.9372 5.65414 27.9104C5.41696 27.7994 5.17977 27.6961 4.93494 27.6043C4.86991 27.5814 4.77044 27.5852 4.70923 27.6196C4.34963 27.8262 3.99768 28.0404 3.64191 28.2547C3.35117 28.4307 3.16754 28.4077 2.92653 28.1705C2.56693 27.8109 2.20351 27.4513 1.84391 27.0879C1.59907 26.843 1.57995 26.6632 1.75592 26.3725C1.95867 26.0282 2.1729 25.6839 2.37183 25.3281C2.41009 25.2593 2.41774 25.1445 2.39096 25.0718C2.3068 24.8308 2.20351 24.5974 2.09639 24.3679C2.06196 24.2991 1.98545 24.2264 1.91659 24.2072C1.4231 24.0772 0.929605 23.9586 0.432285 23.84C0.110941 23.7596 0 23.6181 0 23.2853C0 22.7688 0 22.2524 0 21.7359C0 21.3993 0.110941 21.2616 0.436111 21.1812C0.929605 21.0588 1.42692 20.944 1.91659 20.8101C1.98545 20.791 2.05431 20.7145 2.09257 20.6495C2.14995 20.55 2.1576 20.4238 2.21881 20.332C2.41009 20.0489 2.35653 19.804 2.16908 19.5401C1.95867 19.2455 1.79035 18.9203 1.6029 18.6105C1.41927 18.3044 1.4384 18.1361 1.69089 17.8798C2.05049 17.5163 2.41009 17.1567 2.77351 16.7971C3.01835 16.5561 3.17137 16.5332 3.46976 16.7092C3.85614 16.9349 4.23869 17.1644 4.61742 17.3978C4.72836 17.4666 4.82017 17.4704 4.93494 17.4131C5.17212 17.3021 5.41696 17.2141 5.65032 17.0994C5.71152 17.0688 5.78038 16.9961 5.79569 16.931C5.92575 16.4375 6.04435 15.944 6.16294 15.4467C6.2471 15.1254 6.38864 15.0144 6.71764 15.0106C7.24174 15.0106 7.76201 15.0106 8.28611 15.0106C8.60745 15.0106 8.749 15.1292 8.82551 15.4391C8.94793 15.9326 9.06269 16.4299 9.19276 16.9234C9.21189 16.9922 9.28075 17.0726 9.34961 17.1032C9.57914 17.2141 9.8125 17.3136 10.0535 17.4016C10.1185 17.4245 10.218 17.4169 10.2754 17.3863C10.6503 17.172 11.0214 16.9425 11.3924 16.7245C11.7138 16.537 11.8592 16.5523 12.1193 16.8124C12.4904 17.1797 12.8614 17.5469 13.2249 17.9219C13.3167 18.0098 13.3702 18.1361 13.4429 18.2508ZM7.49805 19.4406C5.79569 19.4406 4.42614 20.814 4.42997 22.5163C4.4338 24.2187 5.80334 25.5844 7.50953 25.5806C9.20041 25.5768 10.57 24.2034 10.57 22.5163C10.5661 20.8101 9.20041 19.4406 7.49805 19.4406Z" fill="#1971BD"/>
<path d="M30.0294 22.0184C29.4769 21.9195 28.9127 21.9049 28.3559 21.975L27.878 22.0391V22.0025C28.1066 21.9362 28.3558 21.8653 28.5844 21.8082C29.0862 21.6777 29.6067 21.6345 30.1231 21.6802V21.6252C30.0728 21.0994 30.0202 20.5714 29.9699 20.0433C29.9699 19.9564 29.9151 19.9381 29.8374 19.9381C29.1929 19.9174 28.55 20.0135 27.9398 20.2216C27.7843 20.2719 27.6334 20.3245 27.4825 20.377C28.2022 19.8992 29.0365 19.6221 29.899 19.5746C29.803 19.1608 29.7206 18.7629 29.6223 18.3696C29.5057 17.9124 29.499 17.9125 29.012 17.885C28.2123 17.8595 27.4168 18.011 26.6824 18.3286L26.6115 18.3583H26.5497C27.3778 17.759 28.3868 17.4627 29.4074 17.5193C29.1903 16.9569 28.9777 16.4173 28.7674 15.8824C28.7436 15.8482 28.7076 15.8245 28.6668 15.8161C28.2505 15.707 27.8162 15.6851 27.3911 15.752C26.6143 15.8703 25.8658 16.1298 25.1826 16.5178C25.1536 16.5316 25.1238 16.5439 25.0935 16.5545C25.5485 16.1271 26.0858 15.7966 26.6726 15.5836C27.2595 15.3706 27.8835 15.2793 28.5067 15.3153C28.4839 15.2513 28.4633 15.2056 28.4473 15.1644C28.269 14.8306 28.1043 14.4923 27.9237 14.1631C27.8806 14.094 27.8154 14.0416 27.7386 14.0145C27.2052 13.8491 26.64 13.8139 26.0902 13.9117C25.2193 14.062 24.3838 14.3719 23.6257 14.8261L23.4931 14.8993C23.5092 14.8579 23.5381 14.8227 23.5754 14.7987C23.8863 14.5861 24.1766 14.3598 24.4898 14.1677C25.3719 13.5508 26.4564 13.2939 27.5214 13.4498C27.3637 13.196 27.2173 12.956 27.0642 12.7274C27.0252 12.6702 26.9746 12.6218 26.9156 12.5856C26.3128 12.2407 25.6082 12.1178 24.9242 12.2382C24.0924 12.3797 23.2987 12.6909 22.5924 13.1526C22.3317 13.3126 22.0847 13.4886 21.8218 13.6647L21.8356 13.6235C22.4731 12.9375 23.24 12.3843 24.0921 11.9958C24.8172 11.6638 25.639 11.6101 26.4011 11.8449C26.4193 11.8473 26.4378 11.8473 26.4561 11.8449C26.4322 11.8077 26.4062 11.7717 26.3783 11.7374C26.2873 11.6374 26.2196 11.5186 26.18 11.3894C26.1405 11.2601 26.1301 11.1236 26.1496 10.9899C26.1732 10.5081 26.2632 10.0318 26.4171 9.57465C26.7007 8.74625 26.7007 7.84711 26.4171 7.01872C25.9165 5.61936 25.0478 4.38096 23.9024 3.43396C22.7199 2.46202 21.3275 1.77874 19.8352 1.43814C18.9417 1.22181 18.0302 1.08778 17.1123 1.03794C16.245 0.983069 15.375 0.987749 14.5083 1.05176C13.6899 1.11577 12.8966 1.22083 12.0896 1.31228C11.925 1.33057 11.7625 1.36717 11.6002 1.3946C12.3783 1.66647 13.1318 2.00458 13.8522 2.40515C13.7916 2.40241 13.7316 2.3917 13.6739 2.37319C12.7716 2.10334 11.845 1.92257 10.9075 1.83359C10.1395 1.77864 9.36759 1.84731 8.62132 2.03704C7.14088 2.3565 5.72945 2.93804 4.45358 3.75407C3.14606 4.58556 2.0739 5.73872 1.33977 7.10328C0.318488 9.02949 -0.0966965 11.2194 0.148663 13.3857C0.19966 13.8785 0.303148 14.3645 0.457323 14.8353C0.955716 14.4077 1.23458 14.4191 1.82899 14.8146C1.9052 14.5266 1.98984 14.2408 2.08281 13.9573C2.1815 13.645 2.32466 13.3486 2.50799 13.0772C2.51487 13.0949 2.51487 13.1144 2.50799 13.1321C2.30723 13.7339 2.16266 14.353 2.07597 14.9815L2.48064 15.2743C2.53986 15.3226 2.60166 15.3675 2.6658 15.409C3.08418 15.6377 4.15633 15.2353 4.87191 14.7232C4.98851 14.1631 5.07318 13.5939 5.23778 13.0429C5.26979 13.0772 5.2926 12.9536 5.26974 13.0885C5.25602 13.1777 5.23779 13.2692 5.2195 13.3584C5.13949 13.7699 5.08223 14.1882 5.02736 14.6043C5.28794 14.4447 5.4771 14.1909 5.55551 13.8956C5.63096 11.9066 5.88247 12.2953 7.5011 12.2564H8.18694C8.3564 12.2302 8.52932 12.2722 8.66779 12.3734C8.80625 12.4745 8.89892 12.6265 8.92538 12.7959C8.93226 12.8444 8.93226 12.8938 8.92538 12.9423C8.94866 13.0936 8.96171 13.2464 8.96431 13.3995C8.92991 13.5678 8.92889 13.7412 8.96152 13.9098C8.99414 14.0785 9.05967 14.239 9.15436 14.3823C9.24905 14.5256 9.37107 14.6488 9.51339 14.745C9.65572 14.8411 9.81563 14.9084 9.98392 14.9427C10.039 14.9537 10.0948 14.9613 10.1508 14.9656C10.2508 14.9927 10.3469 15.0327 10.4366 15.0845C10.208 14.25 9.97937 13.4155 9.83991 12.5696C9.79419 12.3044 9.75297 12.0393 9.71182 11.7741C9.74214 11.8072 9.76207 11.8486 9.76903 11.8929C9.83533 12.2862 9.89935 12.6793 9.97708 13.0702C10.1103 13.7707 10.3014 14.459 10.5486 15.1279C10.5814 15.1388 10.6135 15.1517 10.6446 15.1667C11.3648 15.7016 11.9386 15.4662 12.5376 14.9152C13.3904 14.1311 13.5344 14.1631 14.3963 15.057C15.6263 16.3213 15.6262 16.3212 14.5768 17.7204C14.5273 17.7794 14.4823 17.8422 14.442 17.9079C14.417 18.3505 14.4835 18.7935 14.6373 19.2092C14.7911 19.625 15.0289 20.0047 15.3359 20.3244C16.2976 20.712 17.3217 20.9219 18.3583 20.944C19.3274 20.9571 20.2951 20.869 21.2458 20.6811C21.5247 20.6285 21.799 20.5667 22.0939 20.505C21.1857 19.6943 20.5221 18.6459 20.1781 17.4781L20.121 17.3844V17.3044C20.137 17.3638 20.1644 17.4187 20.1804 17.4781C20.3633 17.7845 20.537 18.1068 20.745 18.3925C21.3005 19.2401 22.0589 19.9356 22.9513 20.4158C23.4225 20.658 23.8027 21.0462 24.0349 21.5224C24.4407 22.3708 24.6554 23.2979 24.6637 24.2384C24.6955 25.0821 24.6248 25.9266 24.4533 26.7533C24.3209 27.5319 24.0399 28.2778 23.6257 28.9503C23.4243 29.289 23.1572 29.5839 22.8399 29.8175C22.5226 30.0512 22.1616 30.2188 21.7784 30.3105C21.7121 30.3288 21.6299 30.338 21.5499 30.3517C21.646 30.2852 21.7486 30.2285 21.8562 30.1826C22.1812 30.0455 22.4592 29.8167 22.6563 29.5241C22.6997 29.4532 22.7158 29.4029 22.6358 29.3343C22.4271 29.1287 22.2703 28.8763 22.1785 28.5981C21.9981 28.0633 21.9681 27.4892 22.0917 26.9384C22.2745 26.1122 22.5928 25.3219 23.0336 24.5996C23.2851 24.1675 23.4908 23.7262 23.7194 23.269C23.7658 23.151 23.7898 23.0254 23.7903 22.8987C23.7903 22.7638 23.7354 22.7157 23.5959 22.7157C23.4999 22.7254 23.4055 22.7469 23.3148 22.7798C22.8624 22.9376 22.3804 22.9923 21.9042 22.9398C21.4881 22.8964 21.1109 22.837 20.6765 22.7958C20.2421 22.7547 20.1164 22.8895 20.201 23.317C20.2512 23.6244 20.2512 23.9378 20.201 24.2452C20.1011 24.7793 19.9425 25.3007 19.7278 25.7998C19.2116 27.0627 19.0001 28.4295 19.1105 29.7894C19.149 30.4136 19.3897 31.0082 19.7963 31.4834C20.1884 31.9262 20.6655 32.2858 21.1992 32.5406C21.7329 32.7955 22.3124 32.9405 22.9033 32.9671C23.7915 33.0197 24.6772 32.8301 25.466 32.4184C26.6826 31.8022 27.7014 30.8563 28.4061 29.6888C28.5181 29.5173 28.6165 29.3389 28.7262 29.156L28.2689 29.0142C28.3962 29.0068 28.5239 29.0168 28.6485 29.0439C28.7308 29.0599 28.7628 29.0783 28.8108 28.964C28.8588 28.8497 28.925 28.7353 28.9731 28.621C29.1217 28.2621 29.2635 27.9009 29.4167 27.5237L28.6599 27.3248V27.2951L29.451 27.3728C29.563 26.8767 29.6796 26.3874 29.7916 25.8685L28.477 25.5827V25.5507L29.835 25.6307C29.9127 25.0759 29.989 24.5165 30.0637 23.9526C29.5041 23.8081 28.9292 23.7314 28.3513 23.724C28.9162 23.6167 29.4937 23.5912 30.0659 23.6485C30.0751 23.6233 30.082 23.5973 30.0864 23.5708C30.1002 23.0747 30.1117 22.5808 30.1254 22.0847C30.1368 22.039 30.0911 22.0184 30.0294 22.0184ZM15.1919 9.93131C15.051 10.0134 14.8912 10.0577 14.7281 10.0597C14.565 10.0617 14.4042 10.0214 14.2613 9.94275C13.9655 9.77606 13.7199 9.53289 13.5504 9.23864C13.7705 9.13171 14.0135 9.08074 14.258 9.09031C14.5025 9.09988 14.7408 9.16967 14.9518 9.29348C15.1043 9.40714 15.2151 9.56784 15.2673 9.75075V9.76666C15.2759 9.79731 15.2729 9.83011 15.259 9.85875C15.2451 9.88739 15.2213 9.91002 15.1919 9.92224V9.93131Z" fill="#1971BD"/>
</g>
<defs>
<clipPath id="clip0">
<rect width="32" height="32" fill="white"/>
</clipPath>
</defs>
</svg>
