<svg xmlns="http://www.w3.org/2000/svg" width="13.181" height="13.997" viewBox="0 0 13.181 13.997">
  <g id="pgbouncerversions" transform="translate(-860.138 -566.002)">
    <path id="Path_20997" data-name="Path 20997" d="M865.99,574.9a1,1,0,0,1-.455-.9.342.342,0,0,1,.042-.058c.324-.433.324-.433-.056-.823-.266-.276-.31-.286-.574-.044-.185.169-.362.243-.585.077a.387.387,0,0,0-.153-.063.408.408,0,0,1-.061-.008.4.4,0,0,1-.306-.476,1.121,1.121,0,0,0-.012-.141.217.217,0,0,0,0-.044.2.2,0,0,0-.228-.167h-.213c-.5.012-.576-.107-.6.507-.009.225-.693.565-.893.465a.612.612,0,0,1-.057-.042c-.447-.327-.447-.327-.837.066l-.118.116a.206.206,0,0,0-.014.332.6.6,0,0,1,.248.464.667.667,0,0,1-.081.278l-.129.276a.457.457,0,0,1-.076.127.243.243,0,0,1-.152.057,2.069,2.069,0,0,1-.208.014c-.1.011-.257,0-.3.111a.42.42,0,0,0-.026.168v.361c0,.358.009.367.363.4a1.163,1.163,0,0,0,.118.009c.243.022.6.673.5.892a.334.334,0,0,1-.039.059c-.318.456-.318.456.073.856l.1.1c.106.1.232.132.332.015a.452.452,0,0,1,.048-.06.58.58,0,0,1,.819-.04.411.411,0,0,0,.132.049.255.255,0,0,1,.212.273c0,.086.019.172.019.259a.234.234,0,0,0,0,.079.223.223,0,0,0,.265.172,4.649,4.649,0,0,1,.473,0c.192.01.294-.08.28-.263,0-.018-.006-.036-.008-.054a.519.519,0,0,1,.474-.561.385.385,0,0,0,.129-.058h0a.331.331,0,0,1,.464.063,2.262,2.262,0,0,0,.276.211c.2-.005.692-.495.674-.628a.256.256,0,0,0-.073-.167.557.557,0,0,1-.1-.845.277.277,0,0,0,.033-.088c.04-.2.17-.256.359-.268.44-.028.44-.035.44-.47C866.505,574.972,866.505,574.972,865.99,574.9Zm-1.309.551a1.348,1.348,0,1,1-1.334-1.362h.013a1.334,1.334,0,0,1,1.321,1.345Z" fill="#0071bd"/>
    <path id="Path_20998" data-name="Path 20998" d="M873.273,575.191a2.429,2.429,0,0,0-.732-.019l-.209.028v-.016c.1-.029.209-.06.309-.085a1.98,1.98,0,0,1,.673-.056v-.024c-.022-.23-.045-.461-.067-.692,0-.038-.024-.046-.058-.046a2.34,2.34,0,0,0-.83.124c-.068.022-.134.045-.2.068a2.122,2.122,0,0,1,1.057-.351c-.042-.181-.078-.355-.121-.527-.051-.2-.054-.2-.267-.212a2.376,2.376,0,0,0-1.019.194l-.031.013-.027,0a1.948,1.948,0,0,1,1.25-.367c-.095-.246-.188-.482-.28-.716a.071.071,0,0,0-.044-.029,1.364,1.364,0,0,0-.558-.028,2.813,2.813,0,0,0-.966.335.4.4,0,0,1-.039.016,2.011,2.011,0,0,1,1.493-.542c-.01-.028-.019-.048-.026-.066-.078-.146-.15-.294-.229-.438a.157.157,0,0,0-.081-.065,1.53,1.53,0,0,0-.721-.045,3.136,3.136,0,0,0-1.078.4l-.058.032a.092.092,0,0,1,.036-.044c.136-.093.263-.192.4-.276a1.847,1.847,0,0,1,1.326-.314c-.069-.111-.133-.216-.2-.316a.214.214,0,0,0-.065-.062,1.3,1.3,0,0,0-.871-.152,2.688,2.688,0,0,0-1.02.4c-.114.07-.222.147-.337.224l.006-.018a3.107,3.107,0,0,1,.987-.712,1.421,1.421,0,0,1,1.01-.066.093.093,0,0,0,.024,0,.521.521,0,0,0-.034-.047.4.4,0,0,1-.1-.327,2.29,2.29,0,0,1,.117-.619,1.726,1.726,0,0,0,0-1.118,3.614,3.614,0,0,0-1.1-1.568,4.313,4.313,0,0,0-1.779-.873,6.576,6.576,0,0,0-1.191-.175,8.326,8.326,0,0,0-1.139.006c-.358.028-.705.074-1.058.114-.072.008-.143.024-.214.036a6.308,6.308,0,0,1,.985.442.3.3,0,0,1-.078-.014,6.3,6.3,0,0,0-1.21-.236,3.147,3.147,0,0,0-1,.089,5.56,5.56,0,0,0-1.823.751,3.959,3.959,0,0,0-1.362,1.465,4.73,4.73,0,0,0-.521,2.748,3.044,3.044,0,0,0,.135.634c.218-.187.34-.182.6-.009q.05-.189.111-.375a1.49,1.49,0,0,1,.186-.385.033.033,0,0,1,0,.024,4.5,4.5,0,0,0-.189.809l.177.128a.917.917,0,0,0,.081.059c.183.1.652-.076.965-.3.051-.245.088-.494.16-.735.014.015.024-.039.014.02-.006.039-.014.079-.022.118-.035.18-.06.363-.084.545a.52.52,0,0,0,.231-.31c.033-.87.143-.7.851-.717h.3a.283.283,0,0,1,.323.236.228.228,0,0,1,0,.064,1.48,1.48,0,0,1,.017.2.572.572,0,0,0,.446.675.611.611,0,0,0,.073.01.524.524,0,0,1,.125.052c-.1-.365-.2-.73-.261-1.1-.02-.116-.038-.232-.056-.348a.1.1,0,0,1,.025.052c.029.172.057.344.091.515a5.629,5.629,0,0,0,.25.9.367.367,0,0,1,.042.017c.315.234.566.131.828-.11.373-.343.436-.329.813.062.538.553.538.553.079,1.165a.679.679,0,0,0-.059.082,1.411,1.411,0,0,0,.391,1.057,3.75,3.75,0,0,0,1.322.271,6.087,6.087,0,0,0,1.263-.115c.122-.023.242-.05.371-.077a2.857,2.857,0,0,1-.838-1.324l-.025-.041v-.035c.007.026.019.05.026.076.08.134.156.275.247.4a2.662,2.662,0,0,0,.965.885,1.073,1.073,0,0,1,.474.484,2.811,2.811,0,0,1,.275,1.188,4.567,4.567,0,0,1-.092,1.1,2.693,2.693,0,0,1-.362.961,1.289,1.289,0,0,1-.808.595c-.029.008-.065.012-.1.018a.761.761,0,0,1,.134-.074.794.794,0,0,0,.35-.288c.019-.031.026-.053-.009-.083a.807.807,0,0,1-.2-.322,1.348,1.348,0,0,1-.038-.726,3.355,3.355,0,0,1,.412-1.023c.11-.189.2-.382.3-.582a.448.448,0,0,0,.031-.162c0-.059-.024-.08-.085-.08a.511.511,0,0,0-.123.028,1.406,1.406,0,0,1-.617.07c-.182-.019-.347-.045-.537-.063s-.245.041-.208.228a1.259,1.259,0,0,1,0,.406,3.217,3.217,0,0,1-.207.68,3.8,3.8,0,0,0-.27,1.745,1.259,1.259,0,0,0,.3.741,1.931,1.931,0,0,0,1.359.649,2.148,2.148,0,0,0,1.121-.24,3.181,3.181,0,0,0,1.286-1.194c.049-.075.092-.153.14-.233l-.2-.062a.611.611,0,0,1,.166.013c.036.007.05.015.071-.035s.05-.1.071-.15c.065-.157.127-.315.194-.48l-.331-.087v-.013l.346.034c.049-.217.1-.431.149-.658l-.575-.125v-.014l.594.035q.051-.364.1-.734a3.156,3.156,0,0,0-.749-.1,2.62,2.62,0,0,1,.75-.033.192.192,0,0,0,.009-.034c.006-.217.011-.433.017-.65C873.32,575.2,873.3,575.191,873.273,575.191Zm-6.49-5.287a.413.413,0,0,1-.407.005.828.828,0,0,1-.311-.308.65.65,0,0,1,.613.024.379.379,0,0,1,.138.2l0,.007A.057.057,0,0,1,866.783,569.9Z" fill="#0071bd"/>
  </g>
</svg>
