<svg xmlns="http://www.w3.org/2000/svg" width="13.547" height="13.961" viewBox="0 0 13.547 13.961">
  <g id="postgresversions" transform="translate(-861.076 -670.999)">
    <path id="Path_20950" data-name="Path 20950" d="M867.171,683.955a2.262,2.262,0,0,1-.276-.211.331.331,0,0,0-.464-.063h0a.385.385,0,0,1-.129.058.519.519,0,0,0-.474.561c0,.018.005.036.008.054.014.183-.088.273-.28.263a4.649,4.649,0,0,0-.473,0,.223.223,0,0,1-.265-.172.234.234,0,0,1,0-.079c0-.087-.017-.173-.019-.259a.255.255,0,0,0-.212-.273.411.411,0,0,1-.132-.049.58.58,0,0,0-.819.04.452.452,0,0,0-.048.06c-.1.117-.226.09-.332-.015l-.1-.1c-.391-.4-.391-.4-.073-.856a.334.334,0,0,0,.039-.059c.1-.219-.257-.87-.5-.892a1.163,1.163,0,0,1-.118-.009c-.354-.033-.362-.042-.363-.4v-.361a.42.42,0,0,1,.026-.168c.048-.107.206-.1.3-.111a2.069,2.069,0,0,0,.208-.014.243.243,0,0,0,.152-.057.457.457,0,0,0,.076-.127l.129-.276a.667.667,0,0,0,.081-.278.6.6,0,0,0-.248-.464.206.206,0,0,1,.014-.332l.118-.116c.39-.393.39-.393.837-.066a.612.612,0,0,0,.057.042c.2.1.884-.24.893-.465.024-.614.1-.495.6-.507h.213a.2.2,0,0,1,.228.167.217.217,0,0,1,0,.044,1.121,1.121,0,0,1,.012.141.4.4,0,0,0,.306.476.408.408,0,0,0,.061.008.387.387,0,0,1,.153.063c.223.166.4.092.585-.077.264-.242.308-.232.574.044.38.39.38.39.056.823a.342.342,0,0,0-.042.058,1,1,0,0,0,.455.9c.515.071.515.071.514.588,0,.435,0,.442-.44.47-.189.012-.319.071-.359.268a.277.277,0,0,1-.033.088.557.557,0,0,0,.1.845.256.256,0,0,1,.073.167C867.863,683.46,867.368,683.95,867.171,683.955Zm-1.824-3.865a1.348,1.348,0,1,0,1.334,1.362v-.017a1.334,1.334,0,0,0-1.321-1.345h-.013Z" fill="#0071bd"/>
    <path id="Path_20958" data-name="Path 20958" d="M870.9,675.313a.1.1,0,0,0-.051.132.117.117,0,0,0,.029.037.354.354,0,0,0,.271.134l0,0a.39.39,0,0,0,.325-.214c.043-.077.023-.136-.061-.161A.6.6,0,0,0,870.9,675.313Z" fill="none"/>
    <path id="Path_20959" data-name="Path 20959" d="M866.941,675.75a.393.393,0,0,0,.146-.095c.1-.1.085-.2-.042-.261a2.321,2.321,0,0,0-.317-.1,1.454,1.454,0,0,0-.217.053.118.118,0,0,0-.077.149l.008.02A.389.389,0,0,0,866.941,675.75Z" fill="none"/>
    <path id="Path_20960" data-name="Path 20960" d="M870.844,671h.179C870.963,671,870.9,671,870.844,671Z" fill="#0071bd"/>
    <path id="Path_20961" data-name="Path 20961" d="M869.119,671.223c-.306-.025-.609-.065-.915-.076a3.254,3.254,0,0,0-1.739.4.139.139,0,0,1-.092.005c-.322-.082-.639-.18-.964-.247a4.925,4.925,0,0,0-1.95-.051,2.664,2.664,0,0,0-2.185,1.932,4.905,4.905,0,0,0-.111,2.3,20.656,20.656,0,0,0,.665,2.785c.02.07.05.137.072.206l.141-.138c.077-.077.141-.141.2-.2a18.181,18.181,0,0,1-.563-2.138,9.968,9.968,0,0,1-.163-1,4.111,4.111,0,0,1,.21-1.886,2.226,2.226,0,0,1,1.662-1.432,4.206,4.206,0,0,1,1.521-.052,7.36,7.36,0,0,1,1.518.368.12.12,0,0,0,.091-.009,2.875,2.875,0,0,1,1.7-.43,4.447,4.447,0,0,1,.867.113.2.2,0,0,0,.1-.011,4.873,4.873,0,0,1,3-.036,3.441,3.441,0,0,1,1.664,1.17,1.308,1.308,0,0,1,.246.716,5.026,5.026,0,0,1-.122,1.512,12.563,12.563,0,0,1-1.68,4.074l-.088.138-.009.03a1.873,1.873,0,0,0,.222.077,2.319,2.319,0,0,0,.814-.006c.171-.025.341-.06.512-.083a.611.611,0,0,1,.2.008.257.257,0,0,1,.081.023.265.265,0,0,1,.129.352.884.884,0,0,1-.2.287,2.407,2.407,0,0,1-1.273.618,3.341,3.341,0,0,1-.915.042c-.088-.01-.176-.029-.269-.044-.025.216-.046.432-.076.645-.088.634-.173,1.268-.273,1.9a2.011,2.011,0,0,1-.147.459,1.377,1.377,0,0,1-.658.7,2.635,2.635,0,0,1-1.125.3,1.289,1.289,0,0,1-.525-.087,2.686,2.686,0,0,1-.339.323,1.487,1.487,0,0,0,.327.126c.087.022.176.034.264.051l.334-.01a.083.083,0,0,1,.026-.011c.219-.044.444-.077.66-.135a2.069,2.069,0,0,0,1.14-.732,3.024,3.024,0,0,0,.524-1.218,8.5,8.5,0,0,0,.172-1.582c0-.073.011-.145.017-.22h.049c.227-.01.456-.008.681-.031a2.938,2.938,0,0,0,1.558-.621,1.487,1.487,0,0,0,.431-.495.72.72,0,0,0-.466-1.041,1.364,1.364,0,0,0-.6.014c-.181.033-.364.058-.564.089l.055-.1a12.928,12.928,0,0,0,1.45-3.744,5.258,5.258,0,0,0,.121-1.668,1.73,1.73,0,0,0-.335-.909,3.977,3.977,0,0,0-2.608-1.495,5.653,5.653,0,0,0-.566-.051h-.179a5.624,5.624,0,0,0-1.615.215A.37.37,0,0,1,869.119,671.223Z" fill="#0071bd"/>
    <path id="Path_20962" data-name="Path 20962" d="M868.441,678.157c.538.553.538.553.079,1.165a.679.679,0,0,0-.059.082,1.418,1.418,0,0,0,.644,1.273c.729.1.729.1.728.833,0,.615,0,.626-.623.666-.268.017-.452.1-.509.379a.37.37,0,0,1-.047.125.8.8,0,0,0,.042,1.122.742.742,0,0,0,.1.078.363.363,0,0,1,.1.23.929.929,0,0,0,.436.034,3.812,3.812,0,0,0,.614-.141,1.1,1.1,0,0,0,.768-.756,2.573,2.573,0,0,0,.1-.414c.142-.974.289-1.946.348-2.931a.7.7,0,0,1,.522-.678c.013,0,.025-.01.044-.017-.028-.038-.052-.072-.079-.1a3.2,3.2,0,0,1-.394-.591c-.088-.186-.188-.372-.288-.555a9.375,9.375,0,0,1-.573-1.191,2.952,2.952,0,0,1-.23-1.064.938.938,0,0,1,.647-.962,1.869,1.869,0,0,1,.451-.091c.175-.012.355,0,.54,0-.006-.017-.012-.033-.019-.049-.11-.225-.2-.462-.332-.675a3.8,3.8,0,0,0-3.249-1.973,2.551,2.551,0,0,0-1.166.209,2.32,2.32,0,0,0-1.092,1.062,4.375,4.375,0,0,0-.458,1.458c-.018.124-.031.247-.048.382l.083-.041a2.708,2.708,0,0,1,1.035-.311l.037-.006a.993.993,0,0,1,1.118.85c.058.3.107.6.135.9a3.448,3.448,0,0,1-.227,1.651l.013-.01C868,677.752,868.064,677.766,868.441,678.157Z" fill="#0071bd"/>
    <path id="Path_20963" data-name="Path 20963" d="M863.226,678.246a.917.917,0,0,0,.081.059c.282.148,1.252-.34,1.264-.658.025-.669.1-.723.453-.72.02-.281.048-.563.04-.845a6.854,6.854,0,0,1,.055-1.568,4.716,4.716,0,0,1,.518-1.535,3.091,3.091,0,0,1,.508-.669l-.046-.014a6.743,6.743,0,0,0-1.254-.28,3.929,3.929,0,0,0-1.248.028,1.873,1.873,0,0,0-1.522,1.324,3.788,3.788,0,0,0-.135,1.689c.056.429.141.855.233,1.279a16.218,16.218,0,0,0,.418,1.578C862.743,677.9,862.9,678.008,863.226,678.246Z" fill="#0071bd"/>
    <path id="Path_20964" data-name="Path 20964" d="M872.158,674.5a.925.925,0,0,1,.078.344q-.014.416-.067.828a4.058,4.058,0,0,0-.037,1.05c.035.285.062.571.076.857a2.1,2.1,0,0,1-.262,1.157l-.008.011a.1.1,0,0,0,.036.137c.008-.012.017-.023.025-.034a12.12,12.12,0,0,0,1.6-3.893,4.611,4.611,0,0,0,.118-1.414.937.937,0,0,0-.166-.506,3.109,3.109,0,0,0-1.749-1.126,4.312,4.312,0,0,0-1.527-.082c-.154.017-.307.045-.482.071l.06.035A4.547,4.547,0,0,1,872.158,674.5Z" fill="#0071bd"/>
    <path id="Path_20965" data-name="Path 20965" d="M865.722,676.93a.283.283,0,0,1,.323.236.228.228,0,0,1,0,.064,1.48,1.48,0,0,1,.017.2.572.572,0,0,0,.446.675.611.611,0,0,0,.073.01.549.549,0,0,1,.216.09.572.572,0,0,0,.316.119c.039-.094.064-.193.107-.284a2.848,2.848,0,0,0,.24-.99,5.309,5.309,0,0,0-.145-1.454.564.564,0,0,0-.43-.472,1.047,1.047,0,0,0-.3-.026,2.337,2.337,0,0,0-1.111.4.1.1,0,0,0-.047.1c.012.211.022.422.032.633l.015.009c-.018.228-.038.459-.056.69h.3Zm.789-1.581a1.454,1.454,0,0,1,.217-.053,2.321,2.321,0,0,1,.317.1c.127.061.142.161.042.261a.389.389,0,0,1-.645-.137l-.008-.02A.118.118,0,0,1,866.511,675.349Z" fill="#0071bd"/>
    <path id="Path_20966" data-name="Path 20966" d="M871.778,676.98a4.352,4.352,0,0,1,.015-1.367c.032-.181.046-.366.068-.545a.189.189,0,0,0-.032-.015,2.264,2.264,0,0,0-.757.014.586.586,0,0,0-.51.494,1.336,1.336,0,0,0,.021.488,4.533,4.533,0,0,0,.424,1.143c.206.411.424.815.637,1.222.005.01.013.018.034.048.044-.158.092-.3.119-.441A3.19,3.19,0,0,0,871.778,676.98Zm-.3-1.576a.39.39,0,0,1-.325.214l0,0a.354.354,0,0,1-.271-.134.117.117,0,0,1-.029-.037.1.1,0,0,1,.051-.132.6.6,0,0,1,.517-.07C871.5,675.268,871.516,675.327,871.473,675.4Z" fill="#0071bd"/>
    <path id="Path_20967" data-name="Path 20967" d="M871.929,679.565h-.007a.389.389,0,0,0-.378.4c-.01.182,0,.192.176.223a2.541,2.541,0,0,0,.729,0,2.228,2.228,0,0,0,1.121-.43c.035-.027.069-.057.093-.077-.288.028-.574.067-.858.085a1.294,1.294,0,0,1-.836-.194A.056.056,0,0,0,871.929,679.565Z" fill="#0071bd"/>
  </g>
</svg>
