<svg width="32" height="32" viewBox="0 0 32 32" fill="none" xmlns="http://www.w3.org/2000/svg">
<path d="M13.9821 29.7999C13.7587 29.6524 13.5444 29.4916 13.3403 29.3185C13.2834 29.2364 13.2104 29.1668 13.1257 29.1139C13.041 29.061 12.9463 29.026 12.8476 29.011C12.7489 28.996 12.6482 29.0013 12.5516 29.0266C12.4549 29.0518 12.3645 29.0966 12.2858 29.158V29.158C12.1961 29.2223 12.095 29.269 11.9878 29.2956C11.6736 29.3248 11.3831 29.475 11.1778 29.7146C10.9724 29.9542 10.8683 30.2643 10.8875 30.5792V30.5792C10.8875 30.5792 10.8875 30.5792 10.8875 30.7168C10.8875 31.1294 10.6812 31.3357 10.2457 31.3128H9.16834C9.03481 31.3405 8.89574 31.3153 8.78033 31.2427C8.66492 31.17 8.58216 31.0555 8.54943 30.9231V30.9231V30.7397C8.54943 30.5334 8.54943 30.35 8.54943 30.1437C8.56286 29.9987 8.52057 29.854 8.43116 29.739C8.34174 29.6241 8.21192 29.5475 8.06806 29.5248L7.77006 29.4102C7.6482 29.284 7.50219 29.1837 7.34072 29.1151C7.17926 29.0466 7.00564 29.0113 6.83023 29.0113C6.65482 29.0113 6.48121 29.0466 6.31974 29.1151C6.15828 29.1837 6.01226 29.284 5.89041 29.4102L5.77579 29.5477C5.54657 29.8228 5.27149 29.754 5.01935 29.5477L4.79012 29.3185C3.89614 28.4016 3.89614 28.4016 4.62966 27.3701V27.2325C4.85889 26.7282 4.03367 25.2383 3.48353 25.1924H3.27722C2.45201 25.1924 2.45201 25.1924 2.45201 24.2755V23.3815C2.41688 23.254 2.41688 23.1194 2.45201 22.9918C2.45201 22.7397 2.93339 22.7626 3.13969 22.7397H3.62106C3.74455 22.7367 3.8643 22.6967 3.9649 22.6251C4.03911 22.5344 4.10079 22.4342 4.14828 22.3271L4.58381 21.6394C4.61719 21.4345 4.61719 21.2255 4.58381 21.0205C4.5743 20.8096 4.51792 20.6035 4.4188 20.4172C4.31967 20.2308 4.18028 20.0689 4.01075 19.9431C3.92527 19.8536 3.87758 19.7346 3.87758 19.6108C3.87758 19.487 3.92527 19.3679 4.01075 19.2784V19.2784L4.28582 19.0033C5.1798 18.1093 5.1798 18.1093 6.21132 18.8658H6.34886C6.80731 19.095 8.36605 18.3156 8.38897 17.7884C8.38897 16.3901 8.6182 16.6652 9.76433 16.6423H10.2457C10.3641 16.6222 10.4857 16.6493 10.5843 16.7179C10.6829 16.7865 10.7506 16.891 10.7729 17.009V17.009C10.7852 17.1157 10.7852 17.2233 10.7729 17.33C10.7461 17.4489 10.7432 17.5721 10.7645 17.6922C10.7858 17.8123 10.8309 17.9269 10.8971 18.0294C10.9632 18.1319 11.0492 18.2201 11.1499 18.2889C11.2506 18.3577 11.364 18.4058 11.4835 18.4302H11.6211C11.7485 18.4504 11.8676 18.506 11.9649 18.5907C12.4692 18.9575 12.8818 18.797 13.3173 18.4073C13.7529 18.0176 14.005 17.8801 14.6239 18.4073C15.2428 18.9345 15.495 19.3013 14.7615 20.3099V20.4245C14.7381 20.831 14.8235 21.2365 15.0089 21.5991C15.1942 21.9616 15.4727 22.2683 15.8159 22.4875C16.985 22.6709 16.985 22.6709 16.985 23.84C16.985 25.009 16.985 24.8486 15.9764 24.9173C15.5408 24.9173 15.2428 25.0778 15.1511 25.5363C15.1709 25.6036 15.1709 25.6752 15.1511 25.7426C14.9118 25.9831 14.7774 26.3087 14.7774 26.648C14.7774 26.9874 14.9118 27.3129 15.1511 27.5535L15.3116 27.6681C15.3637 27.7185 15.4049 27.7791 15.4325 27.8462C15.4601 27.9132 15.4736 27.9852 15.4721 28.0577C15.5638 28.562 14.4176 29.7999 13.9821 29.7999ZM9.78725 20.8371C9.17622 20.8327 8.57754 21.0092 8.06669 21.3445C7.55584 21.6798 7.15568 22.1588 6.91667 22.7211C6.67766 23.2835 6.61048 23.9041 6.72362 24.5045C6.83675 25.105 7.12513 25.6586 7.5524 26.0954C7.97967 26.5323 8.5267 26.8328 9.12454 26.9592C9.72237 27.0856 10.3442 27.0322 10.9118 26.8057C11.4793 26.5792 11.967 26.1897 12.3136 25.6864C12.6601 25.1831 12.8498 24.5885 12.8589 23.9775C12.865 23.5711 12.7909 23.1675 12.641 22.7897C12.491 22.412 12.2681 22.0674 11.985 21.7758C11.7019 21.4842 11.3641 21.2512 10.991 21.0901C10.6178 20.9291 10.2166 20.8431 9.81018 20.8371H9.78725Z" fill="#1971BD"/>
<path d="M18.3365 0.528229C17.6488 0.528229 16.9382 0.36777 16.2505 0.344848C14.8618 0.275799 13.4811 0.593193 12.262 1.26175H12.1474C11.4597 1.07837 10.6803 0.872068 9.92389 0.71161C8.44995 0.402483 6.92791 0.402483 5.45397 0.71161C4.29536 0.874754 3.20814 1.36781 2.32207 2.13194C1.43601 2.89607 0.788506 3.89901 0.456839 5.02107C-0.0501162 6.73259 -0.136614 8.54117 0.20469 10.2933C0.559575 12.4502 1.06511 14.5795 1.71758 16.6658C1.71758 16.8262 1.8322 16.9867 1.87804 17.1471L2.29065 16.8262L2.7491 16.3678C2.18586 14.7638 1.72646 13.1253 1.37374 11.4623C1.21329 10.7059 1.09867 9.94943 1.00698 9.17006C0.820573 7.71575 0.985647 6.23794 1.48836 4.86061C1.78094 4.0294 2.28622 3.28938 2.95385 2.71425C3.62148 2.13912 4.42816 1.74897 5.29351 1.58267C6.43765 1.33109 7.61735 1.28453 8.77776 1.44513C9.96454 1.61098 11.1318 1.8951 12.262 2.29327C12.294 2.30939 12.3293 2.31779 12.3651 2.31779C12.401 2.31779 12.4363 2.30939 12.4683 2.29327C13.6376 1.57593 14.9947 1.22468 16.3651 1.28468C17.0298 1.31023 17.6902 1.40239 18.3365 1.55975H18.5657C20.8011 0.83768 23.2071 0.83768 25.4425 1.55975C26.9494 2.00736 28.2846 2.90277 29.2706 4.12708C29.6185 4.60954 29.8177 5.18324 29.8437 5.77751C29.9055 6.91559 29.8129 8.0568 29.5686 9.17006C28.8392 12.5023 27.5362 15.6824 25.7176 18.5683L25.5113 18.8893L26.0156 19.0726C26.6379 19.1757 27.2729 19.1757 27.8952 19.0726L29.0643 18.8893C29.2153 18.8556 29.3718 18.8556 29.5227 18.8893H29.7061C29.8496 18.9589 29.9606 19.0811 30.0161 19.2306C30.0717 19.3801 30.0674 19.5452 30.0041 19.6916C29.8918 19.9385 29.7366 20.1636 29.5457 20.3563C28.7274 21.1063 27.7074 21.6004 26.6116 21.7775C25.9192 21.8688 25.2179 21.8688 24.5256 21.7775L23.9067 21.6629C23.9067 22.1672 23.7921 22.6715 23.7233 23.1529C23.5399 24.597 23.3336 26.064 23.1044 27.5082C23.0352 27.8729 22.9196 28.2272 22.7606 28.5626C22.4708 29.2578 21.9424 29.8268 21.2706 30.1672C20.4654 30.5768 19.5826 30.8112 18.6803 30.8549C18.2723 30.8803 17.8641 30.8096 17.4884 30.6486C17.2516 30.9165 16.9907 31.162 16.709 31.3821C16.9388 31.5144 17.1856 31.6146 17.4425 31.6801L18.0614 31.7947H18.8866C19.3909 31.7947 19.8952 31.6113 20.3995 31.4738C21.3833 31.26 22.2694 30.7284 22.921 29.9609C23.522 29.1293 23.9293 28.1738 24.113 27.1643C24.3684 25.9739 24.499 24.7601 24.5027 23.5426C24.5027 23.3821 24.5027 23.2216 24.5027 23.0383C25.0299 23.0383 25.5571 23.0383 26.0614 23.0383C27.4276 22.9251 28.7287 22.4062 29.7978 21.5483C30.2079 21.2542 30.5451 20.8699 30.7835 20.4251C30.8955 20.2321 30.9672 20.0185 30.9943 19.7971C31.0214 19.5757 31.0034 19.3511 30.9412 19.1368C30.8791 18.9226 30.7742 18.7231 30.6328 18.5506C30.4914 18.378 30.3166 18.2359 30.1187 18.1328L29.7978 18.0182C29.3451 17.9158 28.8752 17.9158 28.4225 18.0182L27.1159 18.3391L27.2534 18.1099C28.7915 15.43 29.9123 12.5314 30.5772 9.5139C30.8631 8.26708 30.9559 6.98373 30.8523 5.70874C30.7945 4.95381 30.5243 4.23062 30.0729 3.62278C28.6147 1.71555 26.4666 0.456326 24.0901 0.115621L22.921 0.0010083H22.3938C21.1379 -0.0147904 19.8865 0.155146 18.6803 0.505306L18.3365 0.528229Z" fill="#1971BD"/>
<path d="M16.8933 16.413C18.1082 17.6738 18.1082 17.6738 17.0537 19.095L16.9162 19.2784C16.8829 19.8449 16.9962 20.4104 17.2451 20.9203C17.4941 21.4302 17.8703 21.8674 18.3374 22.1896C20.0108 22.4188 20.0108 22.4188 20.0108 24.0921C20.0108 25.7655 20.0108 25.5363 18.5666 25.628C17.9707 25.628 17.5351 25.8572 17.4205 26.499C17.4334 26.5903 17.4334 26.6828 17.4205 26.7741C17.0776 27.1179 16.885 27.5836 16.885 28.0692C16.885 28.5548 17.0776 29.0206 17.4205 29.3643L17.6497 29.5248C17.7852 29.6685 17.8663 29.855 17.879 30.052C18.2103 30.1327 18.5562 30.1327 18.8876 30.052C19.3743 30.0026 19.8569 29.9183 20.3317 29.7999C20.7501 29.6842 21.1319 29.4633 21.4408 29.1584C21.7498 28.8535 21.9756 28.4746 22.0967 28.0577C22.1973 27.7509 22.2739 27.4366 22.326 27.1179C22.6469 24.8257 22.9907 22.648 23.1282 20.4016C23.1264 20.0465 23.2425 19.7008 23.4582 19.4188C23.6739 19.1367 23.9771 18.9342 24.3202 18.8428V18.8428L24.1368 18.6136C23.792 18.1956 23.4923 17.7423 23.2429 17.2612C23.0366 16.8257 22.8073 16.413 22.5781 15.9775C22.0738 15.1028 21.637 14.1909 21.2715 13.2497C20.9456 12.4798 20.7667 11.6557 20.7443 10.8199C20.6833 10.3268 20.7966 9.82778 21.0644 9.40923C21.3323 8.99068 21.738 8.67886 22.2113 8.52766C22.5523 8.41297 22.9068 8.34361 23.2658 8.32136C23.6781 8.29842 24.0913 8.29842 24.5036 8.32136C24.498 8.28336 24.498 8.24474 24.5036 8.20674C24.2762 7.67161 24.0159 7.15104 23.7242 6.64801C22.9754 5.3459 21.9018 4.2602 20.6081 3.49686C19.3145 2.73353 17.845 2.31864 16.3431 2.2927C15.4616 2.23043 14.5771 2.36349 13.7529 2.68239C12.6334 3.16677 11.7175 4.0259 11.1626 5.11219C10.62 6.1583 10.2633 7.29069 10.1082 8.45889C10.1082 8.73397 10.1082 9.03196 10.1082 9.32995H10.2916C11.0038 8.95005 11.7816 8.70891 12.5838 8.61935V8.61935C13.1784 8.54734 13.7776 8.7109 14.2531 9.07504C14.7286 9.43918 15.0427 9.97498 15.1282 10.5678C15.2658 11.2555 15.3804 11.9431 15.4492 12.6308C15.586 13.9157 15.4049 15.2145 14.9219 16.413C15.8618 15.4961 16.0451 15.5191 16.8933 16.413Z" fill="#1971BD"/>
<path d="M4.92766 16.6194L5.11104 16.7569C5.75288 17.1007 7.97637 15.9775 8.02222 15.244C8.02222 13.7082 8.22852 13.5936 9.05374 13.5936C9.08801 12.9522 9.08801 12.3094 9.05374 11.6681C8.95402 10.468 8.99247 9.26048 9.16835 8.06921C9.40079 6.84485 9.83456 5.66748 10.452 4.58497C10.7745 4.02521 11.1674 3.50907 11.6211 3.04915H11.4606C10.5464 2.70975 9.60246 2.4565 8.64113 2.29271C7.69278 2.13197 6.72414 2.13197 5.7758 2.29271C4.9516 2.41819 4.18228 2.78254 3.56301 3.3407C2.94374 3.89886 2.50169 4.62633 2.29156 5.43311C1.8995 6.68481 1.7899 8.00788 1.97064 9.30703C2.10818 10.2927 2.29156 11.2784 2.52078 12.2411C2.75001 13.2039 3.09385 14.6709 3.46061 15.8629C3.82737 15.8171 4.17121 16.0463 4.92766 16.6194Z" fill="#1971BD"/>
<path d="M25.3976 8.02337C25.5151 8.27469 25.5777 8.54822 25.581 8.82566C25.5606 9.46221 25.507 10.0973 25.4205 10.7282C25.3171 11.5272 25.3171 12.3362 25.4205 13.1351C25.4205 13.7769 25.5581 14.4417 25.581 15.0835C25.6564 16.0098 25.4486 16.9371 24.985 17.7426V17.7426C24.943 17.7854 24.9195 17.843 24.9195 17.903C24.9195 17.963 24.943 18.0206 24.985 18.0635C26.7392 15.3418 27.9965 12.3305 28.6985 9.1695C28.9612 8.11357 29.054 7.02254 28.9735 5.93741C29.0072 5.45815 28.8779 4.98157 28.6068 4.58497C27.5807 3.33368 26.1708 2.45551 24.5953 2.0864C23.4445 1.83093 22.2593 1.76896 21.0881 1.90302L19.9879 2.06348H20.1254C22.5998 3.27734 24.4947 5.41936 25.3976 8.02337V8.02337Z" fill="#1971BD"/>
<path d="M10.6583 13.5936C10.7471 13.577 10.8384 13.5781 10.9267 13.5967C11.0151 13.6154 11.099 13.6513 11.1735 13.7024C11.248 13.7535 11.3117 13.8188 11.361 13.8945C11.4102 13.9702 11.4441 14.0549 11.4606 14.1437V14.2812C11.4606 14.4417 11.4606 14.6022 11.4606 14.7397C11.4237 14.9083 11.4205 15.0826 11.4512 15.2525C11.482 15.4223 11.5461 15.5844 11.6399 15.7294C11.7337 15.8743 11.8553 15.9992 11.9976 16.0969C12.14 16.1946 12.3003 16.2631 12.4692 16.2984H12.6526C12.8287 16.3225 12.9951 16.3938 13.134 16.5047C13.3118 16.6548 13.5247 16.7573 13.7529 16.8027C13.7529 16.5735 13.8904 16.3443 13.9821 16.138C14.307 15.4149 14.4936 14.6374 14.5323 13.8457C14.6026 12.7401 14.5255 11.6301 14.303 10.5449C14.2709 10.2852 14.1587 10.042 13.9821 9.84894C13.8054 9.6559 13.5731 9.52259 13.3174 9.46749C13.0894 9.43291 12.8576 9.43291 12.6297 9.46749C11.7193 9.56037 10.8456 9.87521 10.0853 10.3844C10.0455 10.4068 10.0134 10.4407 9.99294 10.4815C9.97252 10.5223 9.96477 10.5683 9.97067 10.6136V12.0577L9.83313 13.6394H10.5437L10.6583 13.5936ZM12.4692 9.97179H12.9506L13.7529 10.0864C14.0509 10.2239 14.0738 10.4532 13.7529 10.6824C13.5854 10.849 13.3588 10.9425 13.1225 10.9425C12.8863 10.9425 12.6597 10.849 12.4922 10.6824C12.3976 10.5854 12.3269 10.4676 12.2859 10.3385V10.3385C12.2633 10.2716 12.2674 10.1985 12.2973 10.1345C12.3272 10.0705 12.3805 10.0205 12.4463 9.99471L12.4692 9.97179Z" fill="#1971BD"/>
<path d="M24.5265 10.6365C24.3661 11.6695 24.3661 12.7211 24.5265 13.754C24.67 14.5102 24.6855 15.285 24.5724 16.0463C24.4744 16.3729 24.3596 16.6943 24.2285 17.009L22.7615 14.2125C22.3298 13.3944 22.0061 12.5237 21.7987 11.6222C21.718 11.2522 21.718 10.8691 21.7987 10.499C21.8387 10.2075 21.9758 9.93801 22.188 9.73417C22.4002 9.53032 22.6749 9.40405 22.9678 9.3758C23.5362 9.27264 24.1186 9.27264 24.687 9.3758C24.5265 9.78841 24.5265 10.2239 24.5265 10.6365Z" fill="#1971BD"/>
<path d="M24.8704 19.6451C24.752 19.645 24.6349 19.6689 24.5261 19.7155C24.4173 19.7622 24.3192 19.8305 24.2376 19.9163C24.1561 20.0021 24.093 20.1036 24.052 20.2146C24.011 20.3256 23.9931 20.4439 23.9993 20.562V20.562C23.9993 20.9747 23.9993 20.9976 24.389 21.0663C24.943 21.1578 25.5083 21.1578 26.0624 21.0663C26.9921 20.9785 27.88 20.6376 28.6297 20.0807L28.8589 19.8973L26.8876 20.1036C26.2157 20.1675 25.541 20.0149 24.9621 19.6681L24.8704 19.6451Z" fill="#1971BD"/>
</svg>
