<svg xmlns="http://www.w3.org/2000/svg" width="12.727" height="13.622" viewBox="0 0 12.727 13.622">
  <g id="proxysqlversions" transform="translate(-859.777 -582)">
    <path id="Path_20950" data-name="Path 20950" d="M871.171,594.955a2.262,2.262,0,0,1-.276-.211.331.331,0,0,0-.464-.063h0a.385.385,0,0,1-.129.058.519.519,0,0,0-.474.561c0,.018.005.036.008.054.014.183-.088.273-.28.263a4.649,4.649,0,0,0-.473,0,.223.223,0,0,1-.265-.172.234.234,0,0,1,0-.079c0-.087-.017-.173-.019-.259a.255.255,0,0,0-.212-.273.411.411,0,0,1-.132-.049.58.58,0,0,0-.819.04.452.452,0,0,0-.048.06c-.1.117-.226.09-.332-.015l-.1-.1c-.391-.4-.391-.4-.073-.856a.334.334,0,0,0,.039-.059c.1-.219-.257-.87-.5-.892a1.163,1.163,0,0,1-.118-.009c-.354-.033-.362-.042-.363-.4v-.361a.42.42,0,0,1,.026-.168c.048-.107.206-.1.3-.111a2.069,2.069,0,0,0,.208-.014.243.243,0,0,0,.152-.057.457.457,0,0,0,.076-.127l.129-.276a.667.667,0,0,0,.081-.278.6.6,0,0,0-.248-.464.206.206,0,0,1,.014-.332l.118-.116c.39-.393.39-.393.837-.066a.612.612,0,0,0,.057.042c.2.1.884-.24.893-.465.024-.614.1-.495.6-.507h.213a.2.2,0,0,1,.228.167.217.217,0,0,1,0,.044,1.121,1.121,0,0,1,.012.141.4.4,0,0,0,.306.476.408.408,0,0,0,.061.008.387.387,0,0,1,.153.063c.223.166.4.092.585-.077.264-.242.308-.232.574.044.38.39.38.39.056.823a.342.342,0,0,0-.042.058,1,1,0,0,0,.455.9c.515.071.515.071.514.588,0,.435,0,.442-.44.47-.189.012-.319.071-.359.268a.277.277,0,0,1-.033.088.557.557,0,0,0,.1.845.256.256,0,0,1,.073.167C871.863,594.46,871.368,594.95,871.171,594.955Zm-1.824-3.865a1.348,1.348,0,1,0,1.334,1.362v-.017a1.334,1.334,0,0,0-1.321-1.345h-.013Z" fill="#0071bd"/>
    <path id="Path_20999" data-name="Path 20999" d="M865.5,593.182c-.056-.006-.111-.008-.167-.012-.494-.046-.511-.063-.512-.556-.084-.019-.168-.038-.253-.053a.717.717,0,0,0-.179.005c-.09.008-.181.024-.268.03a.107.107,0,0,1-.068-.035c-.078-.086-.152-.172-.231-.259a.284.284,0,0,0-.072-.041c-.1-.055-.208-.106-.307-.166-.139-.084-.277-.171-.409-.265-.106-.075-.2-.161-.3-.247-.062-.053-.124-.107-.181-.166-.1-.1-.189-.2-.282-.3-.056-.061-.108-.127-.16-.192s-.076-.106-.118-.155a.514.514,0,0,0-.081-.067c-.035-.025-.071-.049-.107-.073s-.1-.066-.151-.1a.108.108,0,0,1-.052-.093c0-.1-.008-.2-.013-.316a.407.407,0,0,0-.051-.166c-.053-.138-.108-.276-.159-.416a2.394,2.394,0,0,1-.074-.242c-.032-.135-.059-.27-.09-.405a3.86,3.86,0,0,1-.072-.625c-.011-.141,0-.282,0-.424a.908.908,0,0,0,.005-.138,1.057,1.057,0,0,0-.043-.165c-.018-.06-.037-.119-.056-.179v-.008c-.043-.058-.016-.1.02-.145.062-.076.121-.156.18-.235a.267.267,0,0,0,.035-.072c.041-.131.077-.265.122-.4.039-.112.088-.221.136-.33.038-.086.074-.173.118-.259.061-.114.127-.225.2-.334a3.525,3.525,0,0,1,.209-.307c.125-.155.259-.3.383-.455a.816.816,0,0,0,.087-.172c.032-.064.056-.131.086-.194.023-.048.077-.048.12-.059.086-.022.172-.039.259-.059a.087.087,0,0,0,.033-.017c.107-.075.21-.156.322-.223q.233-.141.476-.258c.129-.062.264-.112.4-.162.112-.04.226-.074.34-.106.1-.026.2-.049.288-.067s.173-.034.259-.046a1.649,1.649,0,0,1,.252-.025.431.431,0,0,0,.179-.062.979.979,0,0,0,.1-.058,1.178,1.178,0,0,1,.123-.061.048.048,0,0,1,.037,0c.108.059.214.118.322.172a.216.216,0,0,0,.087.015,2.957,2.957,0,0,1,.512.078c.119.026.236.06.352.1s.242.077.345.116.2.088.3.133a1.7,1.7,0,0,1,.19.086c.112.063.222.129.329.2s.181.124.267.186a.169.169,0,0,0,.049.023c.046.012.095.02.142.03.066.015.132.029.2.046a.064.064,0,0,1,.035.032c.05.118.1.238.147.358a.083.083,0,0,0,.013.027c.054.059.109.118.162.179.036.042.07.085.1.129.048.061.1.122.14.186.058.079.124.179.168.252s.091.147.13.224c.065.123.132.247.186.375.068.162.127.327.185.493a1.378,1.378,0,0,1,.06.218c.008.064.064.1.1.145.044.07.1.134.141.2a.1.1,0,0,1,.009.064,2.674,2.674,0,0,1-.087.276.583.583,0,0,0-.011.246c0,.148.006.3,0,.443,0,.121-.017.243-.031.364-.01.089-.027.182-.043.269-.005.028-.011.056-.016.085a.551.551,0,0,0,.222.1.611.611,0,0,0,.073.01.549.549,0,0,1,.216.09.528.528,0,0,0,.705-.014l.005-.026c.019-.109.041-.227.054-.34.018-.153.034-.307.04-.461.007-.186,0-.373,0-.559a.725.725,0,0,1,.014-.311,3.351,3.351,0,0,0,.109-.35.117.117,0,0,0-.011-.08c-.057-.088-.122-.17-.179-.259-.039-.061-.109-.1-.12-.183a1.87,1.87,0,0,0-.075-.276c-.074-.209-.149-.419-.235-.623-.068-.162-.152-.318-.234-.474-.05-.1-.109-.192-.165-.284s-.14-.218-.213-.319c-.056-.08-.116-.158-.176-.235-.043-.056-.085-.109-.131-.163-.067-.077-.137-.151-.2-.227a.106.106,0,0,1-.018-.033c-.061-.152-.122-.3-.185-.453a.074.074,0,0,0-.045-.04c-.082-.022-.166-.04-.249-.058-.06-.013-.121-.023-.18-.038a.246.246,0,0,1-.061-.03c-.109-.078-.218-.161-.338-.235-.135-.088-.275-.171-.415-.25a1.994,1.994,0,0,0-.241-.109c-.127-.057-.252-.119-.382-.168s-.29-.1-.437-.147-.294-.087-.445-.119a3.624,3.624,0,0,0-.648-.1.256.256,0,0,1-.109-.018c-.137-.069-.271-.144-.408-.218a.055.055,0,0,0-.047,0,1.478,1.478,0,0,0-.154.077,1.148,1.148,0,0,1-.13.073.542.542,0,0,1-.226.079,2,2,0,0,0-.318.032c-.11.015-.219.034-.328.057s-.244.053-.364.085c-.145.041-.289.083-.43.135a5.353,5.353,0,0,0-.5.2q-.308.148-.6.327c-.142.084-.272.186-.407.281a.113.113,0,0,1-.042.022c-.109.025-.218.046-.328.074-.054.015-.122.015-.151.075-.038.079-.069.164-.109.245a1.028,1.028,0,0,1-.109.218c-.157.2-.328.38-.485.576a4.3,4.3,0,0,0-.265.388c-.086.138-.169.278-.246.422-.056.109-.1.219-.15.328-.06.138-.122.276-.171.418-.058.164-.1.334-.155.5a.308.308,0,0,1-.045.091c-.074.1-.148.2-.226.3-.046.058-.08.11-.026.184v.01c.024.075.048.15.071.226a1.362,1.362,0,0,1,.055.209,1.129,1.129,0,0,1-.007.174c0,.179-.014.358,0,.536a4.886,4.886,0,0,0,.091.791c.039.17.073.341.114.511.026.1.057.206.093.307.064.176.134.351.2.526a.514.514,0,0,1,.064.21c.007.15.011.275.017.4a.135.135,0,0,0,.065.118c.064.041.128.082.191.125.046.03.092.06.135.091a.646.646,0,0,1,.1.085c.053.062.1.132.149.2.066.081.132.164.2.242.117.127.235.254.356.376.072.074.15.142.229.21a4.835,4.835,0,0,0,.38.312c.167.118.342.229.517.334.126.077.259.141.389.211a.34.34,0,0,1,.091.052c.1.109.194.219.293.328a.125.125,0,0,0,.086.043c.109-.007.225-.027.338-.037a.864.864,0,0,1,.227-.006c.176.031.347.078.522.109a4.462,4.462,0,0,0,.764.081,5.747,5.747,0,0,0,.6-.019C866,593.588,865.718,593.2,865.5,593.182Z" fill="#0071bd"/>
    <path id="Path_21000" data-name="Path 21000" d="M865.853,589.974a.269.269,0,0,1-.107-.216,2.129,2.129,0,0,1-.58.022c-.02,0-.039-.008-.059-.009.077.029.151.065.23.086s.157.038.234.062a.078.078,0,0,1,.047.047c0,.011-.02.035-.038.046-.053.036-.109.071-.166.1a1.35,1.35,0,0,1-.641.18,2.663,2.663,0,0,1-.611-.047,2.691,2.691,0,0,1-1.091-.6,3.812,3.812,0,0,1-.436-.444c-.109-.142-.218-.286-.334-.423a2.273,2.273,0,0,1-.276-.647v-.01a6.19,6.19,0,0,1-.046-1.7s-.1.512-.109.643a.486.486,0,0,0-.012.076v.039a3.217,3.217,0,0,0,.042.808.489.489,0,0,0,.013.067,3.286,3.286,0,0,0,.379.994,2.015,2.015,0,0,0,.245.368c.025.034.051.068.076.1a1.521,1.521,0,0,0,.165.2l.139.133a3.134,3.134,0,0,0,.414.349,5.655,5.655,0,0,0,.638.34,2.353,2.353,0,0,0,.923.24,3.378,3.378,0,0,0,1.112-.061c.066-.016.129-.043.194-.063,0-.008.006-.016.007-.024A.842.842,0,0,0,865.853,589.974Z" fill="#0071bd" opacity="0.3"/>
    <path id="Path_21001" data-name="Path 21001" d="M867.677,588.285a1.163,1.163,0,0,0-.269-.419.23.23,0,0,0-.043-.025.16.16,0,0,0-.02.051,1.77,1.77,0,0,1-.1.572,1.955,1.955,0,0,1-.285.545c-.008.011-.02.019-.028.029.083.054.176.12.3.208a.917.917,0,0,0,.081.059.48.48,0,0,0,.3.007,1.752,1.752,0,0,0,.127-.849A.743.743,0,0,0,867.677,588.285Z" fill="#0071bd" opacity="0.3"/>
    <path id="Path_21002" data-name="Path 21002" d="M869.216,587.93a2.348,2.348,0,0,0-.068-.245c-.03-.067-.063-.132-.1-.2a3.044,3.044,0,0,0-.283-.436,5.422,5.422,0,0,0-.5-.474,2.289,2.289,0,0,0-.734-.414,2.972,2.972,0,0,0-.789-.178,3.477,3.477,0,0,0-1.611.229c-.109.046-.218.109-.327.162a.108.108,0,0,1-.093-.024.53.53,0,0,1-.014-.37,1.256,1.256,0,0,1,.479-.486,2.92,2.92,0,0,1,1.309-.451,4.756,4.756,0,0,1,1.392.1c.084.017.168.037.253.056l.012-.035a.52.52,0,0,0-.117-.061,6.264,6.264,0,0,0-.707-.155,4.622,4.622,0,0,0-.856-.038,3.923,3.923,0,0,0-1.257.3,3.075,3.075,0,0,0-.73.423,4.485,4.485,0,0,0-.5.481,2,2,0,0,0-.487.857,2.026,2.026,0,0,0,.062,1.255,2.459,2.459,0,0,0,.29.569,2.536,2.536,0,0,0,.317.369,1.683,1.683,0,0,0,.542.275,1.613,1.613,0,0,0,.386.029.847.847,0,0,0,.405-.109.826.826,0,0,0,.109-.064c.011-.008.024-.023.024-.029a.054.054,0,0,0-.03-.031c-.049-.015-.1-.027-.148-.038a1.764,1.764,0,0,1-.947-.669,1.545,1.545,0,0,1-.183-.36,1.277,1.277,0,0,1-.039-.794,1.264,1.264,0,0,1,.307-.545,2.789,2.789,0,0,1,.319-.3,1.936,1.936,0,0,1,.462-.267,2.479,2.479,0,0,1,.794-.19,3.114,3.114,0,0,1,.546.024,4.237,4.237,0,0,1,.447.1.341.341,0,0,1,.073.039l-.008.023-.159-.035a2.983,2.983,0,0,0-.879-.064,1.853,1.853,0,0,0-.827.286.791.791,0,0,0-.3.307.334.334,0,0,0,.009.233.064.064,0,0,0,.059.015c.07-.03.136-.073.208-.1a2.188,2.188,0,0,1,1.019-.145,1.85,1.85,0,0,1,.5.109,1.451,1.451,0,0,1,.464.262,3.294,3.294,0,0,1,.314.3,1.942,1.942,0,0,1,.179.276,1.3,1.3,0,0,1,.063.124,1.532,1.532,0,0,1,.1.83,1.841,1.841,0,0,1-.081.409,1.93,1.93,0,0,1-.1.2,1.929,1.929,0,0,0,.179-.074,3.224,3.224,0,0,0,.217-.488,2.824,2.824,0,0,0,.162-.906.232.232,0,0,1,.032-.08.308.308,0,0,1,.068.039,1.757,1.757,0,0,1,.231.287C868.759,587.909,868.919,587.925,869.216,587.93Z" fill="#0071bd" opacity="0.3"/>
    <path id="Path_21003" data-name="Path 21003" d="M864.158,589.169a1.74,1.74,0,0,1-.149-.106,2.367,2.367,0,0,1-.277-.28c-.067-.09-.138-.181-.21-.267a1.465,1.465,0,0,1-.175-.409V588.1a3.927,3.927,0,0,1-.029-1.077s-.061.328-.067.406a.265.265,0,0,0-.007.048v.025a2.034,2.034,0,0,0,.026.511.3.3,0,0,0,.007.042,2.1,2.1,0,0,0,.24.628,1.31,1.31,0,0,0,.154.234l.049.062a1.024,1.024,0,0,0,.109.128l.089.085a1.9,1.9,0,0,0,.262.218,3.539,3.539,0,0,0,.4.218,1.491,1.491,0,0,0,.524.143,2.608,2.608,0,0,1-.643-.341A2.465,2.465,0,0,1,864.158,589.169Z" fill="#0071bd"/>
    <path id="Path_21004" data-name="Path 21004" d="M865.746,589.758a.38.38,0,0,1,.127-.255l.168-.164c.448-.45.538-.53.889-.3.008-.01.02-.018.028-.029a1.955,1.955,0,0,0,.285-.545,1.77,1.77,0,0,0,.1-.572.16.16,0,0,1,.02-.051.23.23,0,0,1,.043.025,1.163,1.163,0,0,1,.269.419.743.743,0,0,1,.053.178,1.752,1.752,0,0,1-.127.849,1.4,1.4,0,0,0,.181-.053,1.93,1.93,0,0,0,.1-.2,1.841,1.841,0,0,0,.081-.409,1.532,1.532,0,0,0-.1-.83,1.3,1.3,0,0,0-.063-.124,1.942,1.942,0,0,0-.179-.276,3.294,3.294,0,0,0-.314-.3,1.451,1.451,0,0,0-.464-.262,1.85,1.85,0,0,0-.5-.109,2.188,2.188,0,0,0-1.019.145c-.072.029-.138.072-.208.1a.064.064,0,0,1-.059-.015.334.334,0,0,1-.009-.233.791.791,0,0,1,.3-.307,1.853,1.853,0,0,1,.827-.286,2.983,2.983,0,0,1,.879.064l.159.035.008-.023a.341.341,0,0,0-.073-.039,4.237,4.237,0,0,0-.447-.1,3.114,3.114,0,0,0-.546-.024,2.479,2.479,0,0,0-.794.19,1.936,1.936,0,0,0-.462.267,2.789,2.789,0,0,0-.319.3,1.264,1.264,0,0,0-.307.545,1.277,1.277,0,0,0,.039.794,1.545,1.545,0,0,0,.183.36,1.764,1.764,0,0,0,.947.669c.05.011.1.023.148.038a.054.054,0,0,1,.03.031c0,.006-.013.021-.024.029a.826.826,0,0,1-.109.064.847.847,0,0,1-.405.109,1.613,1.613,0,0,1-.386-.029,1.683,1.683,0,0,1-.542-.275,2.465,2.465,0,0,0,.306.261,2.608,2.608,0,0,0,.643.341c.02,0,.039.008.059.009A2.129,2.129,0,0,0,865.746,589.758Z" fill="#0071bd"/>
    <path id="Path_21005" data-name="Path 21005" d="M866.041,589.339l-.168.164a.38.38,0,0,0-.127.255c.041-.006.082-.008.122-.017a1.972,1.972,0,0,0,.29-.1,1.886,1.886,0,0,0,.772-.608C866.579,588.809,866.489,588.889,866.041,589.339Z" fill="#0071bd"/>
  </g>
</svg>
