<svg width="32" height="32" viewBox="0 0 32 32" fill="none" xmlns="http://www.w3.org/2000/svg">
<g clip-path="url(#clip0)">
<path d="M26.7175 31.5209C26.4834 31.3776 26.2633 31.2125 26.0602 31.0279C25.9349 30.867 25.7513 30.762 25.5491 30.7357C25.3469 30.7093 25.1425 30.7637 24.9802 30.887V30.887C24.8883 30.9529 24.7847 31.0007 24.675 31.0279C24.5145 31.0397 24.3579 31.0832 24.2143 31.1558C24.0707 31.2284 23.9428 31.3287 23.8381 31.4509C23.7333 31.5731 23.6538 31.7148 23.604 31.8678C23.5543 32.0208 23.5352 32.1822 23.548 32.3426V32.3426C23.548 32.7887 23.3368 33 22.8907 32.9765C22.5232 32.9531 22.1547 32.9531 21.7872 32.9765C21.6475 33.0056 21.5019 32.9806 21.3799 32.9066C21.2578 32.8325 21.1685 32.7148 21.1299 32.5774V32.5774V32.3896C21.1415 32.1941 21.1415 31.9981 21.1299 31.8026C21.1501 31.6503 21.1097 31.4962 21.0176 31.3733C20.9254 31.2504 20.7887 31.1685 20.6368 31.1453C20.5282 31.127 20.4245 31.0871 20.3316 31.0279C20.0733 30.7783 19.7282 30.6388 19.369 30.6388C19.0099 30.6388 18.6647 30.7783 18.4064 31.0279V31.1687C18.1717 31.4505 17.8899 31.38 17.6317 31.1687L17.3969 30.934C16.4813 29.9949 16.4813 29.9949 17.2326 28.9149V28.774C17.4673 28.2575 16.6222 26.7315 16.0587 26.6845H15.7535C14.9318 26.6845 14.9083 26.6845 14.9083 25.7454V24.9472C14.8734 24.8164 14.8734 24.6788 14.9083 24.5481C14.9083 24.3133 15.4013 24.3133 15.6126 24.2898H16.1056C16.1687 24.2859 16.2303 24.2694 16.2867 24.2411C16.3432 24.2129 16.3934 24.1735 16.4343 24.1255C16.5186 24.0388 16.5828 23.9346 16.6221 23.8203L16.9274 23.1864C17.036 22.9831 17.1001 22.759 17.1152 22.529C17.1053 22.3163 17.0474 22.1087 16.9457 21.9216C16.8441 21.7345 16.7013 21.573 16.5282 21.449C16.4407 21.3573 16.3918 21.2354 16.3918 21.1086C16.3918 20.9818 16.4407 20.8599 16.5282 20.7682V20.6508L16.7865 20.3925C17.7021 19.4769 17.7021 19.4769 18.7586 20.2282H18.8995C19.369 20.4629 20.9655 19.6647 20.989 19.1482C20.989 17.7161 21.2238 17.9743 22.3976 17.9508H23.0081C23.1318 17.9369 23.2563 17.9702 23.3565 18.0443C23.4567 18.1183 23.5251 18.2275 23.548 18.35C23.5589 18.4593 23.5589 18.5694 23.548 18.6787C23.4989 18.9243 23.5474 19.1794 23.6833 19.3898C23.8192 19.6002 24.0318 19.7494 24.2759 19.8056H24.4167C24.5437 19.8236 24.6645 19.8719 24.7689 19.9464C25.3089 20.3456 25.708 20.1577 26.1541 19.7586C26.6001 19.3595 26.8819 19.2186 27.4923 19.876C28.1027 20.5334 28.3844 20.7916 27.6332 21.8012V21.942C27.6068 22.3562 27.6907 22.7699 27.8763 23.1411C28.0619 23.5123 28.3425 23.8276 28.6896 24.055C29.9105 24.2194 29.9105 24.2194 29.9105 25.4402C29.9105 26.661 29.9105 26.4732 28.8775 26.5437C28.4314 26.5437 28.1262 26.708 28.0323 27.1775C28.0449 27.2395 28.0449 27.3034 28.0323 27.3654C27.7871 27.6117 27.6495 27.9452 27.6495 28.2927C27.6495 28.6403 27.7871 28.9737 28.0323 29.2201L28.1966 29.361C28.3087 29.4645 28.3761 29.6077 28.3844 29.7601C28.3375 30.2766 27.1636 31.5209 26.7175 31.5209ZM22.4211 22.3646C21.7943 22.36 21.1801 22.5414 20.6564 22.8858C20.1326 23.2302 19.7227 23.7222 19.4786 24.2995C19.2344 24.8769 19.1669 25.5136 19.2847 26.1293C19.4024 26.745 19.7001 27.312 20.14 27.7585C20.58 28.2051 21.1425 28.5111 21.7564 28.6379C22.3703 28.7648 23.008 28.7068 23.5889 28.4712C24.1698 28.2356 24.6678 27.833 25.0199 27.3144C25.372 26.7958 25.5625 26.1844 25.5671 25.5576C25.5733 25.1444 25.4981 24.7341 25.3457 24.35C25.1933 23.966 24.9668 23.6157 24.679 23.3192C24.3912 23.0227 24.0478 22.7858 23.6685 22.622C23.2891 22.4582 22.8812 22.3708 22.4681 22.3646H22.4211Z" fill="#1971BD"/>
<path d="M13.4057 27.2715H13.0066C11.8562 27.2715 11.8092 27.1306 11.8092 25.9567H11.1988H10.7762H10.1658C10.1398 25.9677 10.1119 25.9733 10.0836 25.9733C10.0554 25.9733 10.0275 25.9677 10.0015 25.9567L9.39105 25.2054H9.22671L8.4989 24.8063L7.53632 24.1959C7.29112 24.0131 7.056 23.8172 6.83199 23.609L6.40939 23.2333L5.75202 22.529L5.37638 22.0594C5.27397 21.9491 5.17981 21.8314 5.09464 21.7073L4.90682 21.5429L4.69552 21.2847L4.34336 21.0499C4.30934 21.0256 4.28116 20.994 4.26085 20.9575C4.24055 20.9209 4.22863 20.8803 4.22597 20.8386C4.22597 20.6038 4.22597 20.369 4.22597 20.0873C4.19421 19.9792 4.14675 19.8764 4.08511 19.7821C3.96772 19.4769 3.85033 19.1482 3.70946 18.8195C3.5686 18.4908 3.59208 18.4439 3.54512 18.2561L3.33382 17.1996C3.24435 16.7189 3.18943 16.2325 3.16948 15.7439C3.16948 15.3918 3.16948 15.0631 3.16948 14.7344C3.18131 14.6252 3.18131 14.515 3.16948 14.4057C3.18016 14.2807 3.18016 14.1551 3.16948 14.0301L3.02861 13.6075C3.02861 13.4666 3.02861 13.3727 3.02861 13.2788C3.16708 13.1084 3.29265 12.9279 3.40426 12.7388C3.41196 12.6843 3.41196 12.629 3.40426 12.5745L3.68599 11.6354C3.68599 11.3771 3.89729 11.1189 4.01467 10.8606C4.13206 10.6023 4.17902 10.4615 4.29641 10.2502C4.43555 9.98179 4.59241 9.72296 4.76596 9.47542C4.9087 9.2242 5.06546 8.98122 5.23551 8.74762L6.15114 7.66764C6.22765 7.5416 6.29061 7.40782 6.33896 7.26853C6.41892 7.12454 6.4895 6.97553 6.55026 6.82245C6.55026 6.82245 6.73808 6.82245 6.83199 6.68159L7.44241 6.54072L8.19369 6.02421L9.39105 5.31988L10.3302 4.94424L11.1284 4.68599L11.8092 4.54512L12.4197 4.42773H13.0066C13.1577 4.40418 13.3019 4.34811 13.4292 4.26339L13.664 4.146C13.7832 4.04307 13.9303 3.97772 14.0866 3.95818L14.8379 4.3573H15.0492C15.4529 4.38539 15.8535 4.44823 16.2465 4.54512L17.0682 4.7799L17.8899 5.06163L18.5943 5.36684C18.7746 5.4503 18.9409 5.56118 19.0873 5.69552C19.3557 5.83467 19.6145 5.99153 19.8621 6.16508L20.4725 6.58767H20.8012H21.2707L21.6229 7.43287L22.2333 8.04329C22.3243 8.13453 22.4032 8.23711 22.4681 8.3485L22.7968 8.77109L23.1959 9.35803L23.5011 9.89802C23.642 10.1798 23.8063 10.4615 23.9237 10.7667C24.0411 11.0719 24.2289 11.5415 24.3698 11.9406C24.4382 12.098 24.4856 12.2638 24.5106 12.4336C24.5106 12.5979 24.6515 12.6684 24.7454 12.7858C24.8393 12.9032 24.9802 13.091 25.0741 13.2553C25.0851 13.3016 25.0851 13.3499 25.0741 13.3962C25.0286 13.6225 24.9577 13.8431 24.8628 14.0536C24.8278 14.2398 24.8278 14.4308 24.8628 14.617C24.8628 14.9692 24.8628 15.3214 24.8628 15.6735C24.8628 16.0257 24.8628 16.237 24.8628 16.5187C24.8628 16.8004 24.8628 16.9413 24.8628 17.1526C24.8628 17.3639 24.8628 17.2935 24.8628 17.3639C25.0234 17.4655 25.1972 17.5445 25.3793 17.5987H25.5671C25.7475 17.6234 25.9179 17.6964 26.0602 17.81C26.2888 18.0162 26.5857 18.1303 26.8936 18.1303C27.2015 18.1303 27.4985 18.0162 27.7271 17.81V17.81L27.8679 17.0117C27.8679 16.6361 27.8679 16.2839 27.8679 15.9083V14.6405C27.8091 14.3935 27.8091 14.1362 27.8679 13.8892C27.968 13.6199 28.0542 13.3456 28.1262 13.0675C28.1477 13.0067 28.1477 12.9404 28.1262 12.8797L27.7036 12.2927C27.7036 12.1284 27.4453 12.058 27.4219 11.8467C27.381 11.6295 27.3181 11.4171 27.234 11.2128C27.0697 10.7197 26.9054 10.2267 26.6941 9.73368C26.4828 9.24065 26.3419 9.00587 26.1541 8.63023C25.9946 8.42379 25.8221 8.22774 25.6376 8.04329L25.1445 7.292L24.7219 6.72854C24.6273 6.59769 24.5254 6.47228 24.4167 6.3529C24.2524 6.16508 24.088 6.00073 23.9472 5.81291L23.4776 4.61555C23.4398 4.6011 23.398 4.6011 23.3602 4.61555C23.1681 4.5549 22.972 4.50783 22.7733 4.47469H22.3507H22.2098L21.4116 3.91123L20.449 3.06603L19.8855 2.83125L18.9934 2.43214L17.9604 2.07997C17.6153 1.96137 17.2622 1.86723 16.9039 1.79824C16.4116 1.67248 15.9085 1.59387 15.4013 1.56346C15.3169 1.5876 15.2275 1.5876 15.1431 1.56346L14.0866 1L13.7109 1.18782L13.4057 1.37564C13.2426 1.47534 13.0568 1.5319 12.8657 1.53999H12.1145H11.3632L10.4945 1.96258L9.39105 2.26779L8.21717 2.73734C7.74762 2.97212 7.27806 3.23037 6.80851 3.51211C6.47982 3.69993 6.17461 3.95818 5.86941 4.16948L5.11812 4.3573C4.97726 4.3573 4.81291 4.3573 4.74248 4.52164C4.67441 4.72121 4.59605 4.91712 4.5077 5.10858C4.4259 5.30981 4.33181 5.50583 4.22597 5.69552C3.85033 6.16508 3.45121 6.58767 3.07557 7.03375C2.69993 7.47982 2.65297 7.64417 2.46515 7.94938C2.27733 8.25459 2.06603 8.60675 1.87821 8.93544C1.69039 9.26412 1.64343 9.45194 1.52605 9.7102C1.40866 9.96845 1.24431 10.391 1.12693 10.6728C1.00954 10.9545 0.89215 11.4475 0.751284 11.8467C0.760123 11.9168 0.760123 11.9878 0.751284 12.058L0.117388 12.7388C0.117388 12.8797 -0.0704329 12.9971 0.117388 13.1614H0C0 13.3492 0.117388 13.5136 0.164343 13.7014C0.17514 13.8656 0.17514 14.0303 0.164343 14.1944C0.175672 14.3272 0.175672 14.4607 0.164343 14.5935C0.140848 15.0158 0.140848 15.4391 0.164343 15.8613C0.188325 16.484 0.258956 17.104 0.375642 17.7161C0.375642 18.1152 0.539985 18.5143 0.633896 18.9134L1.03302 19.7821C1.19736 20.1812 1.3617 20.6038 1.50257 21.0029C1.58849 21.1552 1.64429 21.3226 1.66691 21.496C1.66691 21.8481 1.66691 22.1533 1.66691 22.4351C1.65603 22.491 1.66394 22.5489 1.68942 22.5999C1.7149 22.6509 1.75651 22.692 1.80778 22.7168L2.34776 22.9281L2.67645 23.1394L2.91123 23.3272L3.26339 23.7968C3.40701 23.995 3.56389 24.1832 3.73294 24.3602C3.9912 24.6654 4.27293 24.9707 4.55466 25.2524L5.09464 25.7454C5.37638 26.0037 5.68158 26.2384 5.98679 26.4732L7.20763 27.2715L8.12326 27.7645H8.33456L9.01541 28.5393C9.08359 28.5644 9.15852 28.5644 9.22671 28.5393H10.0015H10.5415L11.7623 28.7975C12.3608 28.8949 12.9644 28.9576 13.5701 28.9853H14.9787C14.5796 28.234 13.8988 27.3184 13.4057 27.2715Z" fill="#1971BD"/>
<path opacity="0.3" d="M14.2274 19.7821C14.1627 19.7098 14.1162 19.6231 14.0917 19.5291C14.0672 19.4352 14.0654 19.3368 14.0866 19.2421C13.6346 19.3011 13.1769 19.3011 12.7249 19.2421H12.4666L13.0066 19.4534L13.5701 19.5943L13.171 19.8291C12.7507 20.1557 12.2605 20.3807 11.7388 20.4864C11.2584 20.5068 10.7773 20.4674 10.3067 20.369C9.35007 20.1189 8.47067 19.6348 7.74762 18.9604C7.36897 18.6522 7.02283 18.306 6.71461 17.9274C6.45635 17.5987 6.1981 17.2465 5.93985 16.9413C5.64016 16.4712 5.41819 15.956 5.28247 15.4153V15.4153C5.10638 14.0907 5.10638 12.7486 5.28247 11.4241C5.28247 11.4241 5.0477 12.6214 5.0477 12.9266C5.0477 13.2318 5.0477 12.9266 5.0477 13.1145C4.96612 13.7457 4.96612 14.3849 5.0477 15.0161C5.03671 15.0625 5.03671 15.1107 5.0477 15.157C5.2146 15.9831 5.51599 16.7763 5.93985 17.5048C6.10008 17.8039 6.28877 18.087 6.50331 18.35L6.69113 18.5847C6.79727 18.7556 6.92338 18.9132 7.06677 19.0543L7.39546 19.383C7.70247 19.6819 8.03214 19.9566 8.38152 20.2047C8.85107 20.4864 9.36758 20.7682 9.86061 21.0029C10.5454 21.3296 11.2867 21.5209 12.044 21.5664C12.9146 21.661 13.7948 21.6135 14.65 21.4255L15.0961 21.2612C15.0688 20.966 14.9768 20.6804 14.8267 20.4248C14.6765 20.1692 14.4719 19.9497 14.2274 19.7821V19.7821Z" fill="#1971BD"/>
<path opacity="0.3" d="M18.5003 15.7674C18.3569 15.3997 18.1414 15.0645 17.8665 14.7814V14.7814C17.8665 14.7814 17.8665 14.7814 17.8665 14.8988C17.8723 15.3556 17.7927 15.8094 17.6317 16.237C17.4318 16.6765 17.1622 17.0808 16.8334 17.4343V17.4343L17.5378 17.9039C17.5837 17.9697 17.6495 18.0191 17.7256 18.0448C17.9531 18.1273 18.2024 18.1273 18.4299 18.0448C18.6783 17.4587 18.7984 16.8263 18.7821 16.19C18.6997 16.0418 18.6055 15.9005 18.5003 15.7674Z" fill="#1971BD"/>
<path opacity="0.3" d="M22.1159 14.9457C22.0721 14.7472 22.0172 14.5512 21.9516 14.3588L21.7168 13.8892C21.556 13.5336 21.3594 13.1953 21.1298 12.8797C20.7619 12.4804 20.3699 12.1041 19.956 11.7527C19.4487 11.3293 18.8677 11.003 18.2421 10.7902C17.6619 10.5707 17.053 10.4362 16.4343 10.391C15.1495 10.2744 13.8552 10.4593 12.6544 10.931L11.7388 11.2832C11.706 11.2997 11.6698 11.3083 11.6331 11.3083C11.5965 11.3083 11.5603 11.2997 11.5275 11.2832C11.4096 10.9989 11.4013 10.6811 11.504 10.391C11.7726 9.91564 12.1612 9.51898 12.6309 9.24064C13.557 8.64773 14.6116 8.28544 15.7065 8.18415C16.7999 8.10969 17.8984 8.18871 18.9699 8.41893L19.5803 8.55979L19.2986 8.41893C18.7594 8.25862 18.2105 8.13315 17.6552 8.04328C16.9918 7.97241 16.3229 7.97241 15.6596 8.04328C14.6413 8.11284 13.6417 8.35084 12.7014 8.74761C12.0903 9.00175 11.5143 9.33314 10.9875 9.73367C10.5736 10.085 10.1816 10.4614 9.81363 10.8606C9.29081 11.3899 8.89714 12.0326 8.66323 12.7388C8.40253 13.7094 8.46013 14.7381 8.82757 15.6735C8.98782 16.1505 9.21721 16.6014 9.50842 17.0117C9.71917 17.3266 9.96318 17.6178 10.2362 17.8804C10.6224 18.1774 11.0602 18.4003 11.5275 18.5378C11.8244 18.562 12.1228 18.562 12.4196 18.5378C12.7553 18.5216 13.0835 18.4335 13.3822 18.2795L13.6405 18.1152H13.2883C12.3507 17.8706 11.5234 17.3163 10.9406 16.5422C10.7809 16.2702 10.6397 15.9879 10.518 15.697C10.3189 15.0867 10.3189 14.429 10.518 13.8188C10.6516 13.3423 10.9017 12.9066 11.2458 12.551C11.4729 12.2925 11.7245 12.0566 11.9971 11.8467C12.3258 11.5861 12.6893 11.3728 13.077 11.2128C13.6654 10.9597 14.2926 10.8089 14.9318 10.7667C15.3614 10.7311 15.7933 10.7311 16.223 10.7667L17.2795 11.0015H17.4439H17.0682C16.3892 10.8606 15.6941 10.8132 15.0022 10.8606C14.3178 10.926 13.6584 11.1511 13.077 11.518C12.7808 11.6924 12.5374 11.944 12.3727 12.2458C12.3372 12.3314 12.3189 12.4231 12.3189 12.5158C12.3189 12.6084 12.3372 12.7002 12.3727 12.7858C12.3727 12.7858 12.3727 12.7858 12.4901 12.7858L12.9831 12.551C13.7288 12.257 14.5317 12.1366 15.3309 12.1988C15.7311 12.2374 16.1253 12.3241 16.5048 12.4571C16.9033 12.5993 17.276 12.8055 17.6082 13.0675L18.336 13.7718C18.5053 13.9679 18.6547 14.1802 18.7821 14.4057L18.923 14.6875C19.1856 15.3013 19.267 15.9775 19.1577 16.6361C19.1315 16.963 19.0685 17.2859 18.9699 17.5987C18.9059 17.7619 18.8274 17.9191 18.7351 18.0682L19.1577 17.9039C19.3633 17.5363 19.5361 17.1513 19.6742 16.7535C19.9032 16.0716 20.0298 15.3595 20.0499 14.6405C20.0365 14.5786 20.0365 14.5146 20.0499 14.4527H20.2142C20.414 14.6632 20.5947 14.8911 20.7542 15.1335C21.1298 14.8988 21.4351 14.9222 22.1159 14.9457Z" fill="#1971BD"/>
<path d="M10.2363 17.8569L9.90759 17.5987C9.66558 17.4037 9.44519 17.1833 9.25022 16.9413L8.75719 16.3074C8.56919 16.0178 8.42667 15.7011 8.33459 15.3683V15.3683C8.185 14.4997 8.16128 13.6141 8.26416 12.7388C8.26416 12.7388 8.12329 13.5136 8.12329 13.7014C8.07666 14.0992 8.07666 14.501 8.12329 14.8988V14.8988C8.23678 15.417 8.42668 15.9155 8.68675 16.3778L9.0624 16.9413L9.22674 17.4343L9.39108 17.7161L9.5789 17.9039C9.77478 18.0942 9.98688 18.267 10.2128 18.4204C10.5151 18.6113 10.8287 18.7838 11.1519 18.9369C11.5364 19.1173 11.9496 19.2286 12.3727 19.2656C11.8351 19.0755 11.3287 18.8064 10.8702 18.4674C10.6492 18.2742 10.4376 18.0705 10.2363 17.8569V17.8569Z" fill="#1971BD"/>
<path d="M14.0866 19.2421C14.1144 19.0094 14.2223 18.7936 14.3918 18.6317L14.7909 18.2561C15.8474 17.1996 16.0587 17.0117 16.8804 17.5517C17.1757 17.1609 17.4056 16.7248 17.5613 16.2605C17.7112 15.83 17.7905 15.378 17.796 14.9222C17.796 14.9222 17.796 14.9222 17.796 14.8048C18.0753 15.0754 18.2917 15.404 18.4299 15.7674C18.4508 15.9075 18.4508 16.0499 18.4299 16.19C18.5022 16.8683 18.4054 17.5539 18.1482 18.1856L18.7821 18.0682C18.8697 17.9166 18.9481 17.7598 19.0169 17.5987C19.1154 17.2859 19.1784 16.963 19.2047 16.6361C19.304 15.9773 19.2229 15.3038 18.9699 14.6875L18.7821 14.4057L18.3595 13.7483C18.1266 13.4956 17.8755 13.2602 17.6082 13.044C17.2934 12.7693 16.926 12.5616 16.5283 12.4336C16.152 12.2894 15.7564 12.2024 15.3544 12.1753C14.5567 12.0904 13.7503 12.2033 13.0066 12.504C12.847 12.5918 12.6823 12.6702 12.5136 12.7388C12.4916 12.7493 12.4675 12.7547 12.4431 12.7547C12.4188 12.7547 12.3947 12.7493 12.3727 12.7388C12.3153 12.5634 12.3153 12.3743 12.3727 12.1988C12.5374 11.897 12.7808 11.6455 13.077 11.471C13.6652 11.0964 14.3322 10.8633 15.0257 10.7902C15.7187 10.7388 16.4155 10.7943 17.0917 10.9545H17.4674H17.2795C16.9413 10.8515 16.5961 10.773 16.2465 10.7197C15.8168 10.6846 15.385 10.6846 14.9553 10.7197C14.3145 10.7509 13.6853 10.9022 13.1005 11.1658C12.7044 11.3133 12.3325 11.519 11.9971 11.7762C11.732 11.9866 11.4882 12.2225 11.2693 12.4806C10.9167 12.839 10.6655 13.2846 10.5415 13.7718C10.3426 14.3741 10.3426 15.0243 10.5415 15.6266C10.6346 15.9297 10.7774 16.2154 10.9641 16.4718C11.5416 17.2514 12.3711 17.8072 13.3118 18.0448H13.664L13.4057 18.1856C13.1208 18.3528 12.7969 18.4419 12.4666 18.4439C12.1632 18.4903 11.8544 18.4903 11.551 18.4439C11.0961 18.3046 10.6676 18.0904 10.2832 17.81C10.51 18.0316 10.7533 18.2357 11.011 18.4204C11.4695 18.7595 11.9759 19.0285 12.5136 19.2186H12.6544C13.1285 19.2914 13.6103 19.2993 14.0866 19.2421V19.2421Z" fill="#1971BD"/>
<path d="M14.6735 18.2561L14.2744 18.6317C14.1474 18.8095 14.0815 19.0237 14.0866 19.2421H14.3683L15.0492 19.0073C15.7515 18.6467 16.3436 18.1032 16.763 17.4343C15.9178 17.0117 15.73 17.1996 14.6735 18.2561Z" fill="#1971BD"/>
</g>
<defs>
<clipPath id="clip0">
<rect width="32" height="32" fill="white"/>
</clipPath>
</defs>
</svg>
