<svg width="32" height="32" viewBox="0 0 32 32" fill="none" xmlns="http://www.w3.org/2000/svg">
<path d="M15.8565 0L2 7.99985V23.9996L15.8565 31.9994L21.0525 28.9995V22.9996L15.8565 25.9995L7.1967 20.9996V10.9998L15.8565 5.99989L24.5164 10.9998V30.9994L29.7131 27.9995V7.99985L15.8565 0Z" fill="#1971BD"/>
<path d="M10.6602 12.998V18.9979L15.8561 21.9978L21.052 18.9979V12.998L15.8561 9.99805L10.6602 12.998Z" fill="#1971BD"/>
<path d="M21.0523 23V28.9999L15.8564 31.9998V25.9999L21.0523 23Z" fill="#1971BD"/>
<path d="M29.7123 8V27.9996L24.5156 30.9996V10.9999L29.7123 8Z" fill="#1971BD"/>
<path d="M29.7131 7.99985L24.5164 10.9998L15.8565 5.99989L7.1967 10.9998L2 7.99985L15.8565 0L29.7131 7.99985Z" fill="#1971BD"/>
<path d="M15.8565 25.9997V31.9996L2 23.9997V8L7.1967 10.9999V20.9998L15.8565 25.9997Z" fill="#1971BD"/>
<path d="M21.052 12.998L15.8561 15.9979L10.6602 12.998L15.8561 9.99805L21.052 12.998Z" fill="#1971BD"/>
<path d="M15.8561 15.999V21.9989L10.6602 18.9989V12.999L15.8561 15.999Z" fill="#1971BD"/>
<path d="M21.0523 12.999V18.9989L15.8564 21.9989V15.999L21.0523 12.999Z" fill="#1971BD"/>
</svg>
