<svg xmlns="http://www.w3.org/2000/svg" width="13.965" height="13.91" viewBox="0 0 13.965 13.91">
  <g id="redisversions" transform="translate(-859.768 -617.094)">
    <path id="Path_20950" data-name="Path 20950" d="M872.171,629.955a2.262,2.262,0,0,1-.276-.211.331.331,0,0,0-.464-.063h0a.385.385,0,0,1-.129.058.519.519,0,0,0-.474.561c0,.018.005.036.008.054.014.183-.088.273-.28.263a4.649,4.649,0,0,0-.473,0,.223.223,0,0,1-.265-.172.234.234,0,0,1,0-.079c0-.087-.017-.173-.019-.259a.255.255,0,0,0-.212-.273.411.411,0,0,1-.132-.049.58.58,0,0,0-.819.04.452.452,0,0,0-.048.06c-.1.117-.226.09-.332-.015l-.1-.1c-.391-.4-.391-.4-.073-.856a.334.334,0,0,0,.039-.059c.1-.219-.257-.87-.5-.892a1.163,1.163,0,0,1-.118-.009c-.354-.033-.362-.042-.363-.4v-.361a.42.42,0,0,1,.026-.168c.048-.107.206-.1.3-.111a2.069,2.069,0,0,0,.208-.014.243.243,0,0,0,.152-.057.457.457,0,0,0,.076-.127l.129-.276a.667.667,0,0,0,.081-.278.6.6,0,0,0-.248-.464.206.206,0,0,1,.014-.332l.118-.116c.39-.393.39-.393.837-.066a.612.612,0,0,0,.057.042c.2.1.884-.24.893-.465.024-.614.1-.495.6-.507h.213a.2.2,0,0,1,.228.167.217.217,0,0,1,0,.044,1.121,1.121,0,0,1,.012.141.4.4,0,0,0,.306.476.408.408,0,0,0,.061.008.387.387,0,0,1,.153.063c.223.166.4.092.585-.077.264-.242.308-.232.574.044.38.39.38.39.056.823a.342.342,0,0,0-.042.058,1,1,0,0,0,.455.9c.515.071.515.071.514.588,0,.435,0,.442-.44.47-.189.012-.319.071-.359.268a.277.277,0,0,1-.033.088.557.557,0,0,0,.1.845.256.256,0,0,1,.073.167C872.863,629.46,872.368,629.95,872.171,629.955Zm-1.824-3.865a1.348,1.348,0,1,0,1.334,1.362v-.017a1.334,1.334,0,0,0-1.321-1.345h-.013Z" fill="#0071bd"/>
    <path id="Path_20982" data-name="Path 20982" d="M872.938,631l.012,0h-.016Z" fill="#0071bd"/>
    <path id="Path_20983" data-name="Path 20983" d="M864.525,621.255l2.52,1.034.74-1.406-3.252.324Z" fill="none"/>
    <path id="Path_20984" data-name="Path 20984" d="M868.143,619.9a.543.543,0,0,0,.074.051c.611.252,1.22.505,1.833.752a.274.274,0,0,0,.185-.014c.5-.2,1.007-.41,1.51-.616.04-.017.079-.039.133-.066h0a.455.455,0,0,0-.078-.052c-.607-.245-1.214-.492-1.824-.733a.264.264,0,0,0-.171.006c-.516.2-1.03.407-1.544.611C868.224,619.854,868.191,619.875,868.143,619.9Z" fill="none"/>
    <path id="Path_20985" data-name="Path 20985" d="M864.409,618.784c.034.005.067.011.1.013.427.032.852.066,1.279.092a.2.2,0,0,1,.2.131c.075.166.162.325.253.507.2-.166.376-.324.563-.469a.358.358,0,0,1,.216-.073c.335.017.669.049,1,.073.133.01.265.016.4.023l.01-.046-1.1-.429.593-.5-.025-.041c-.389.075-.776.154-1.165.22a.62.62,0,0,1-.293-.026c-.293-.1-.58-.219-.869-.33-.039-.014-.08-.022-.151-.041l.293.6-1.31.258Z" fill="none"/>
    <path id="Path_20986" data-name="Path 20986" d="M861.807,620.262a1.394,1.394,0,0,0,.423.235,3.274,3.274,0,0,0,1.966.063,1.588,1.588,0,0,0,.511-.254.309.309,0,0,0,.093-.427.312.312,0,0,0-.081-.085,1.239,1.239,0,0,0-.331-.212,3.119,3.119,0,0,0-1.211-.228c-.187.017-.377.023-.561.052a1.593,1.593,0,0,0-.8.3.326.326,0,0,0-.009.556Z" fill="none"/>
    <path id="Path_20987" data-name="Path 20987" d="M859.775,620.012q.009.877,0,1.756h0v-1.758Z" fill="#0071bd"/>
    <path id="Path_20988" data-name="Path 20988" d="M859.941,622.019q3.344,1.331,6.69,2.652a.368.368,0,0,0,.136,0,.423.423,0,0,1,.106-.168l.168-.164c.521-.524.558-.549,1.089-.162q.722-.288,1.444-.573c.035-.814.154-.657.848-.674h.3a.268.268,0,0,1,.252.118c.859-.34,1.716-.683,2.576-1.022a.244.244,0,0,0,.18-.272c-.008-.285,0-.57,0-.855l0,0c0-.285-.011-.57,0-.855a.26.26,0,0,0-.193-.294q-3.315-1.318-6.633-2.629a.454.454,0,0,0-.3,0q-3.324,1.32-6.648,2.636a.238.238,0,0,0-.179.256v1.758A.231.231,0,0,0,859.941,622.019Zm7.1.27-2.52-1.034.008-.048,3.252-.324Zm2.93-3.067c.61.241,1.217.488,1.824.733a.455.455,0,0,1,.078.052h0c-.054.027-.093.049-.133.066-.5.206-1.01.416-1.51.616a.274.274,0,0,1-.185.014c-.613-.247-1.222-.5-1.833-.752a.543.543,0,0,1-.074-.051c.048-.025.081-.046.117-.061.514-.2,1.028-.411,1.544-.611A.264.264,0,0,1,869.975,619.222Zm-4.555-1.338c.071.019.112.027.151.041.289.111.576.23.869.33a.62.62,0,0,0,.293.026c.389-.066.776-.145,1.165-.22l.025.041-.593.5,1.1.429-.01.046c-.135-.007-.267-.013-.4-.023-.331-.024-.665-.056-1-.073a.358.358,0,0,0-.216.073c-.187.145-.363.3-.563.469-.091-.182-.178-.341-.253-.507a.2.2,0,0,0-.2-.131c-.427-.026-.852-.06-1.279-.092-.033,0-.066-.008-.1-.013l-.006-.042,1.31-.258Zm-3.6,1.822a1.593,1.593,0,0,1,.8-.3c.184-.029.374-.035.561-.052a3.119,3.119,0,0,1,1.211.228,1.239,1.239,0,0,1,.331.212.312.312,0,0,1,.081.085.309.309,0,0,1-.093.427,1.588,1.588,0,0,1-.511.254,3.274,3.274,0,0,1-1.966-.063,1.394,1.394,0,0,1-.423-.235.326.326,0,0,1,.009-.556Z" fill="#0071bd"/>
    <path id="Path_20989" data-name="Path 20989" d="M859.768,626.354c0,.571.007,1.142,0,1.712,0,.011.007.02.007.031v-1.829Z" fill="#0071bd"/>
    <path id="Path_20990" data-name="Path 20990" d="M859.95,628.336q3.322,1.321,6.65,2.636a.431.431,0,0,0,.288,0l.422-.167-.063-.064c-.554-.568-.554-.568-.1-1.212a.53.53,0,0,0,.055-.084.831.831,0,0,0-.1-.6l-.191.076a.4.4,0,0,1-.32,0l-3.656-1.455-3.153-1.255-.005.057V628.1A.241.241,0,0,0,859.95,628.336Z" fill="#0071bd"/>
    <path id="Path_20991" data-name="Path 20991" d="M859.773,623.15c0,.587.006,1.172,0,1.757l0,.009v-1.788Z" fill="#0071bd"/>
    <path id="Path_20992" data-name="Path 20992" d="M859.942,625.156q2.94,1.17,5.88,2.331v-.4a.6.6,0,0,1,.037-.237c.068-.151.292-.148.432-.157a2.644,2.644,0,0,0,.294-.02.339.339,0,0,0,.215-.081.6.6,0,0,0,.108-.18l.183-.391a.951.951,0,0,0,.114-.393h0l-.283.112a.413.413,0,0,1-.334,0c-1.109-.446-2.219-.885-3.33-1.327l-3.473-1.382a.566.566,0,0,1-.01.1v1.788A.228.228,0,0,0,859.942,625.156Z" fill="#0071bd"/>
    <path id="Path_20993" data-name="Path 20993" d="M871.511,624.1a.611.611,0,0,0,.073.01.549.549,0,0,1,.216.09c.315.234.566.131.828-.11.373-.343.436-.329.813.062.126.13.22.227.288.311v-1.317c0-.037-.011-.075-.011-.118-.08.035-.149.066-.22.094l-2.208.878A.57.57,0,0,0,871.511,624.1Z" fill="#0071bd"/>
  </g>
</svg>
