<svg xmlns="http://www.w3.org/2000/svg" width="33" height="33" fill="none" xmlns:v="https://vecta.io/nano"><g clip-path="url(#A)"><g clip-path="url(#B)"><path fill-rule="evenodd" d="M8.212 27.038L2.93 23.744V9.663l12.917-7.382 12.604 7.394v14.81l-12.804 7.189-4.445-2.773v-5.937-.81l-2.41-1.503v-7.635l6.979-3.988 6.82 4.001v8.001l-5.399 3.031v-3.222c1.619-.621 2.78-2.218 2.78-4.103 0-2.429-1.93-4.381-4.28-4.381s-4.28 1.951-4.28 4.381c0 1.885 1.162 3.482 2.78 4.103v6.105l1.544.963 9.467-5.315V11.529l-9.375-5.5-9.645 5.512v10.408l2.032 1.267v3.822zm7.479-12.315c1.064 0 1.905.913 1.905 2.013s-.841 2.013-1.905 2.013-1.905-.914-1.905-2.013.841-2.013 1.905-2.013z" fill="#1971bd"/></g></g><defs><clipPath id="A"><path fill="#fff" transform="translate(.074 .969)" d="M0 0h32v32H0z"/></clipPath><clipPath id="B"><path fill="#fff" transform="translate(2.508 1.437)" d="M0 0h27.079v30.791H0z"/></clipPath></defs></svg>