<svg xmlns="http://www.w3.org/2000/svg" width="33" height="32" fill="none" xmlns:v="https://vecta.io/nano"><g clip-path="url(#A)" fill-rule="evenodd"><path d="M6.625 16.538c0 .207-.122.396-.36.433-.409.073-1.262.116-1.982.116s-1.574-.043-1.982-.116c-.238-.043-.354-.232-.354-.433v-1.36c0-.207.159-.402.354-.433.122-.024.403-.043.622-.043.085 0 .146.067.152.165v.945l1.214-.024 1.214.024v-.945c0-.098.067-.165.146-.165.22 0 .5.018.622.043.195.037.36.232.36.433l-.006 1.36zm-2.35-4.094c-1.903 0-3.452 1.561-3.452 3.483s1.549 3.476 3.452 3.476 3.452-1.561 3.452-3.476-1.535-3.483-3.452-3.483z" fill="#ec1218"/><g fill="#000"><path d="M11.403 17.596c-1.073 0-1.61-.781-1.61-1.647 0-.86.561-1.634 1.622-1.634.409 0 .701.085.939.25l-.305.506c-.171-.11-.366-.183-.646-.183-.579 0-.884.463-.884 1.043 0 .592.293 1.092.897 1.092.335 0 .543-.116.707-.244l.281.488c-.165.146-.543.329-1 .329zm2.293-.001c-.799 0-1.153-.61-1.153-1.214s.348-1.226 1.147-1.226 1.165.604 1.165 1.208c0 .592-.354 1.232-1.159 1.232zm-.018-1.952c-.348 0-.451.293-.451.72s.134.738.476.738c.348 0 .463-.287.463-.72s-.134-.738-.488-.738zm2.197-.426v1.488c0 .232.079.342.299.342.232 0 .409-.226.451-.281v-1.549h.646v1.641a3.32 3.32 0 0 0 .067.683h-.634a2.01 2.01 0 0 1-.049-.305c-.122.159-.36.366-.738.366-.506 0-.689-.329-.689-.756v-1.628h.646zm2.982 2.379c-.744 0-1.195-.488-1.195-1.22 0-.781.512-1.226 1.22-1.226.372 0 .592.11.701.183l-.207.445a.82.82 0 0 0-.476-.134c-.36 0-.555.281-.555.708s.183.732.567.732c.256 0 .421-.091.488-.134l.195.433c-.11.073-.317.213-.738.213zm2.47-.056v-1.488c0-.232-.079-.341-.293-.341-.238 0-.415.22-.457.281v1.555h-.647v-3.44h.647v1.384c.116-.128.335-.335.714-.335.506 0 .689.323.689.756v1.622l-.652.006zm1.824-3.434v1.287a.82.82 0 0 1 .561-.244c.573 0 .97.396.97 1.201 0 .799-.531 1.238-1.226 1.238-.525 0-.842-.128-.951-.189v-3.293c-.006 0 .646 0 .646 0zm0 2.928c.043.012.14.049.305.049.335 0 .537-.25.537-.726 0-.427-.14-.683-.47-.683-.195 0-.335.122-.378.171l.006 1.189zm3.136.506a1.55 1.55 0 0 1-.043-.25.83.83 0 0 1-.64.305c-.39 0-.695-.238-.695-.653 0-.604.61-.823 1.226-.823h.079v-.134c0-.195-.079-.311-.366-.311-.293 0-.494.152-.585.22l-.274-.403c.14-.122.439-.335.933-.335.634 0 .933.25.933.866v.817a3.5 3.5 0 0 0 .067.701h-.634zm-.073-1.025h-.079c-.354 0-.598.104-.598.372 0 .165.128.238.268.238.22 0 .341-.122.409-.195v-.415zm1.811 1.081c-.415 0-.677-.122-.817-.22l.22-.457c.085.061.311.189.567.189.238 0 .372-.067.372-.201 0-.152-.256-.195-.585-.354-.317-.152-.5-.335-.5-.683 0-.439.342-.72.866-.72a1.46 1.46 0 0 1 .744.183l-.226.445c-.085-.061-.268-.146-.488-.146s-.311.079-.311.195c0 .152.213.189.47.293.36.146.616.317.616.714-.012.506-.36.762-.927.762zm2.416-.489c.311 0 .482-.098.592-.159l.207.421c-.152.085-.39.226-.86.226-.768 0-1.208-.488-1.208-1.232 0-.738.506-1.208 1.14-1.208.726 0 1.073.506.994 1.378h-1.433c.024.348.195.573.567.573zm.244-1.019c-.006-.256-.104-.463-.384-.463-.256 0-.402.165-.439.463h.823z"/></g></g><defs><clipPath id="A"><path fill="#fff" transform="translate(.157)" d="M0 0h32v32H0z"/></clipPath></defs></svg>