<svg width="32" height="32" viewBox="0 0 32 32" fill="none" xmlns="http://www.w3.org/2000/svg">
<path d="M1.11849 27.0678C1.68131 29.0895 2.97729 30.3706 4.9842 30.9335C5.88768 30.9335 6.78376 30.9261 7.68724 30.9261C13.1526 30.9261 18.6105 30.9261 24.0758 30.9261C25.0089 30.9261 25.9494 30.9853 26.8751 30.8668C28.8154 30.541 30.6519 28.5933 30.8519 26.6382C30.8667 26.5197 30.9037 26.4605 30.9926 26.4087C30.9926 22.928 30.9926 19.4474 30.9926 15.9668C20.9951 15.9668 10.9975 15.9668 1 15.9668C1 19.5955 1 23.2243 1 26.853C1.11108 26.8826 1.09627 26.9863 1.11849 27.0678ZM18.8771 20.6767C18.9733 19.6548 19.5288 19.129 20.5581 19.0771C20.6544 19.0697 20.7581 19.0697 20.8544 19.0771C22.3503 19.0771 23.0834 20.0547 22.6687 21.5062C22.5502 21.9357 22.3133 22.2912 21.9948 22.5948C21.6393 22.9354 21.2765 23.2687 20.921 23.6094C20.6988 23.8241 20.5211 24.0685 20.4026 24.4092C21.1506 24.4092 21.8393 24.4166 22.5354 24.4018C22.7428 24.4018 22.802 24.461 22.802 24.6684C22.8094 25.3867 22.8168 25.3867 22.0985 25.3867C21.1358 25.3867 20.173 25.3793 19.2103 25.3941C18.9511 25.3941 18.8548 25.3645 18.8845 25.0534C18.9585 24.224 19.3436 23.5575 19.9064 22.9725C20.2397 22.6244 20.5952 22.2986 20.9506 21.9801C21.4394 21.5432 21.506 20.9878 21.4246 20.3879C21.3802 20.0991 21.195 19.9288 20.8988 19.8992C20.6174 19.8769 20.3878 19.9732 20.2619 20.2398C20.1656 20.4324 20.1212 20.6471 20.136 20.8471C20.1508 21.1211 20.0175 21.1507 19.8028 21.1359C19.6324 21.1211 19.4547 21.1359 19.2844 21.1359C18.8326 21.1359 18.8326 21.1359 18.8771 20.6767ZM14.3967 19.0105C15.2854 19.0401 16.174 18.9216 17.0553 19.0771C17.781 19.2104 18.1291 19.6252 18.2254 20.4027C18.3142 21.1433 18.0254 21.7061 17.3885 22.0023C17.4034 22.0172 17.4182 22.0468 17.433 22.0542C18.3439 22.5504 18.5957 23.128 18.3513 24.15C18.1661 24.9201 17.5218 25.3719 16.5961 25.3867C15.8926 25.3941 15.1891 25.3867 14.4856 25.3941C14.293 25.3941 14.2338 25.3423 14.2338 25.1497C14.2412 23.1872 14.2338 21.2322 14.2412 19.2697C14.2412 19.1586 14.1967 19.0031 14.3967 19.0105ZM9.6275 19.0031C10.1829 19.0253 10.7383 19.0105 11.2938 19.0105C12.5231 19.0105 13.1822 19.5511 13.3599 20.7656C13.508 21.758 13.5006 22.7577 13.3155 23.7427C13.1007 24.8609 12.4786 25.3793 11.3456 25.3867C10.7309 25.3941 10.1163 25.3793 9.4942 25.3941C9.26463 25.4015 9.19798 25.3349 9.20538 25.1053C9.22019 24.1351 9.21279 23.1576 9.21279 22.1875C9.21279 21.2618 9.235 20.3361 9.20538 19.4178C9.18316 19.0623 9.30165 18.9883 9.6275 19.0031Z" fill="#1971BD"/>
<path d="M1.57023 15.8482C2.92545 15.8482 4.28067 15.8482 5.6433 15.8482C13.8487 15.8482 22.0467 15.8482 30.252 15.8482C30.5038 15.8482 30.7778 15.7889 31 15.9667C31 12.5083 31 9.05727 31 5.59886C30.9556 5.5174 30.8741 5.44335 30.8593 5.35448C30.4668 3.05875 29.1042 1.6665 26.8899 1.05924C26.8751 1.05184 26.8677 1.02222 26.8529 1C19.6472 1 12.4342 1 5.22859 1C5.16934 1.12589 5.03604 1.09627 4.93977 1.12589C2.96248 1.69612 1.69612 2.96988 1.12589 4.93977C1.09627 5.03604 1.12589 5.16934 1 5.22859C1 8.80548 1 12.3898 1 15.9667C1.17033 15.826 1.37028 15.8482 1.57023 15.8482ZM10.1311 13.7154C10.1237 13.8783 10.1755 14.056 9.88669 14.0412C9.3609 14.019 8.8277 14.0338 8.2945 14.0338C7.75389 14.0338 7.20588 14.019 6.66527 14.0412C6.39867 14.0486 6.39867 13.9301 6.39867 13.7302C6.39867 13.5376 6.39867 13.4192 6.65786 13.4192C7.73167 13.434 8.80548 13.434 9.87188 13.4192C10.1237 13.4266 10.1385 13.5376 10.1311 13.7154ZM14.6337 14.0338C13.3747 14.0486 12.1232 14.0338 10.8642 14.0412C10.6421 14.0412 10.5828 13.9672 10.605 13.7672C10.6273 13.6191 10.531 13.4266 10.8346 13.4266C12.5231 13.4414 14.2041 13.434 15.9815 13.434C15.5594 13.8487 15.1224 14.0264 14.6337 14.0338ZM16.5221 12.3972C16.5073 12.5897 16.5221 12.8711 16.2111 12.9008C16.1518 12.9082 16.0852 12.9008 16.0259 12.9008C14.3374 12.9008 12.649 12.9008 10.9679 12.9008C10.7531 12.9008 10.605 12.9156 10.605 12.6045C10.605 12.3009 10.7161 12.2713 10.9679 12.2713C11.8418 12.2861 12.7156 12.2787 13.5895 12.2787C14.4633 12.2787 15.3372 12.2713 16.2111 12.2861C16.3221 12.2935 16.5443 12.1972 16.5221 12.3972ZM13.2859 8.13898C13.3007 8.28709 13.3155 8.44261 13.0785 8.42039C12.886 8.40558 12.686 8.42039 12.4861 8.42039C12.3379 8.42039 12.1898 8.42039 12.0417 8.42039C11.6862 8.42039 11.5826 8.26487 11.6714 7.92422C11.7011 7.79832 11.7825 7.81313 11.864 7.81313C12.2713 7.81313 12.6786 7.82054 13.0785 7.80573C13.3747 7.79832 13.271 7.99827 13.2859 8.13898ZM13.3081 11.4937C13.3155 11.6566 13.3377 11.8196 13.0785 11.7973C12.886 11.7825 12.686 11.7973 12.4935 11.7973C12.3453 11.7973 12.1972 11.7751 12.0565 11.8047C11.6937 11.8714 11.6492 11.6788 11.6714 11.39C11.6862 11.2345 11.7307 11.1753 11.8862 11.1753C12.2935 11.1827 12.6934 11.1901 13.1007 11.1753C13.3747 11.1679 13.3007 11.353 13.3081 11.4937ZM11.901 10.6569C11.6418 10.6569 11.6788 10.5088 11.6788 10.3458C11.6788 10.1829 11.6492 10.0348 11.9084 10.0422C13.1526 10.057 14.3967 10.0496 15.6334 10.0496C16.0037 10.0496 16.0555 10.4051 16.2185 10.6569C14.7818 10.6569 13.3377 10.6495 11.901 10.6569ZM15.3668 9.53863C14.2486 9.4942 13.1229 9.51642 12.0047 9.53123C11.7603 9.53123 11.664 9.4942 11.664 9.22019C11.6714 8.9684 11.7455 8.91656 11.9825 8.92397C13.3821 8.93138 14.7892 8.93138 16.2481 8.93138C16.0555 9.33128 15.8408 9.55344 15.3668 9.53863ZM19.4325 14.0412C18.7067 14.0264 17.981 14.0264 17.2552 14.0412C16.9886 14.0486 17.0331 13.8857 17.0331 13.7302C17.0331 13.5673 17.0035 13.4118 17.2627 13.4266C17.6181 13.4488 17.9736 13.434 18.3365 13.434C18.7067 13.434 19.077 13.4488 19.4473 13.4266C19.7213 13.4118 19.6621 13.5895 19.6695 13.7376C19.6621 13.9005 19.6991 14.0486 19.4325 14.0412ZM19.6621 11.59C19.6547 11.7455 19.6028 11.8047 19.4473 11.7973C19.1066 11.7899 18.7586 11.7825 18.4179 11.7973C18.1883 11.8047 18.0625 11.7825 18.0699 11.4937C18.0773 11.2345 18.1513 11.1456 18.4031 11.1753C18.5586 11.1901 18.7215 11.1753 18.8771 11.1753C19.0104 11.1753 19.1511 11.1975 19.277 11.1679C19.6547 11.1086 19.6843 11.3086 19.6621 11.59ZM19.4547 10.6569C19.2548 10.6421 19.0622 10.6569 18.8623 10.6569C18.729 10.6569 18.5882 10.6347 18.455 10.6643C18.0921 10.7309 18.055 10.5458 18.0699 10.2496C18.0847 10.0792 18.1439 10.0496 18.2994 10.0496C18.6845 10.057 19.0622 10.0644 19.4473 10.0496C19.6917 10.0348 19.6695 10.1903 19.6547 10.331C19.6472 10.4643 19.7435 10.6717 19.4547 10.6569ZM21.2765 14.0264C21.1728 13.8413 21.0543 13.6561 21.121 13.4562C21.1358 13.4192 21.395 13.4043 21.4172 13.4488C21.5431 13.6561 21.3505 13.8265 21.2765 14.0264ZM21.3727 12.9082C21.158 12.8711 20.884 13.0341 20.7803 12.6638C20.6988 12.375 20.6988 12.2269 21.0543 12.2861C21.1284 12.3009 21.2024 12.2861 21.2765 12.2861C21.3283 12.2861 21.3802 12.2713 21.4246 12.2861C21.5579 12.3379 21.8245 12.1454 21.8097 12.4268C21.7875 12.649 21.7801 12.9822 21.3727 12.9082ZM22.1651 11.3086C22.1429 11.5011 22.1651 11.8344 21.7726 11.8047C21.432 11.7825 21.0839 11.7973 20.7359 11.7973C20.6248 11.7973 20.5359 11.7973 20.4693 11.664C20.2619 11.2345 20.2915 11.1827 20.7655 11.1827C20.9358 11.1827 21.1136 11.1827 21.2839 11.1827C21.4542 11.1827 21.6319 11.1605 21.8023 11.1901C21.9356 11.2049 22.1874 11.0568 22.1651 11.3086ZM21.9134 10.6569C21.4912 10.6569 21.0765 10.6569 20.6544 10.6569C20.1138 10.6569 20.1138 10.6569 19.9953 10.0644C20.8395 10.0644 21.6912 10.0644 22.5354 10.0644C22.4614 10.6569 22.4614 10.6569 21.9134 10.6569ZM23.0908 10.0496C23.2834 10.057 23.4833 10.0496 23.6833 10.0496C23.8166 10.0496 23.9573 10.0718 24.0906 10.0422C24.4461 9.97556 24.4979 10.1533 24.4757 10.4569C24.4609 10.6273 24.3942 10.6569 24.2535 10.6569C23.8758 10.6495 23.4907 10.6421 23.1131 10.6569C22.8761 10.6643 22.8909 10.5236 22.9057 10.3755C22.9057 10.2422 22.802 10.0348 23.0908 10.0496ZM22.8835 11.3086C22.9205 11.1753 23.0094 11.1753 23.1057 11.1753C23.4833 11.1753 23.8684 11.1901 24.2461 11.1679C24.5053 11.1605 24.4683 11.3234 24.4683 11.4789C24.4683 11.627 24.5201 11.8121 24.2535 11.7973C24.061 11.7825 23.861 11.7973 23.6685 11.7973C23.5352 11.7973 23.4019 11.7973 23.2612 11.7973C22.8983 11.7973 22.7946 11.6566 22.8835 11.3086ZM25.2977 14.0412C24.572 14.0264 23.8462 14.0264 23.1205 14.0412C22.8465 14.0486 22.8909 13.8931 22.8909 13.7376C22.8909 13.5895 22.8391 13.4118 23.1057 13.4266C23.4759 13.4488 23.8462 13.434 24.2165 13.434C24.572 13.434 24.9348 13.4488 25.2903 13.4266C25.5569 13.4118 25.5199 13.5747 25.5125 13.7302C25.5051 13.8783 25.5717 14.0486 25.2977 14.0412ZM25.2755 12.9082C24.92 12.886 24.5646 12.9008 24.2091 12.9008C23.8536 12.9008 23.4981 12.886 23.1427 12.9082C22.8613 12.923 22.8983 12.7527 22.8909 12.5749C22.8835 12.3972 22.8909 12.2713 23.1353 12.2787C23.8462 12.2935 24.5646 12.2935 25.2755 12.2787C25.5643 12.2713 25.5125 12.4416 25.5125 12.6119C25.5199 12.7823 25.5273 12.923 25.2755 12.9082ZM22.3799 6.02839C22.4095 5.85806 22.3799 5.54703 22.6613 5.53962C23.5574 5.5174 24.4609 5.52481 25.357 5.53962C25.631 5.53962 25.4754 5.7766 25.5051 5.9099C25.5421 6.06542 25.4902 6.15428 25.2977 6.15428C24.8312 6.13947 24.3646 6.14688 23.8906 6.14688C23.4833 6.14688 23.076 6.15428 22.6687 6.13947C22.5725 6.13207 22.3503 6.24315 22.3799 6.02839ZM22.017 7.18366C22.0467 6.99852 21.9874 6.67267 22.3577 6.67267C22.802 6.67267 23.2464 6.67267 23.6833 6.67267C24.2091 6.67267 24.7423 6.68748 25.2681 6.66527C25.5051 6.65786 25.5273 6.77635 25.5125 6.95409C25.4977 7.11701 25.5717 7.30215 25.2755 7.28734C24.7571 7.26512 24.2387 7.27993 23.7277 7.27993C23.2612 7.27993 22.7946 7.28734 22.3281 7.27253C22.217 7.27993 21.9874 7.3762 22.017 7.18366ZM22.291 7.80573C22.9427 7.80573 23.6018 7.81313 24.2535 7.80573C24.4905 7.79832 24.4831 7.93162 24.4683 8.08714C24.4535 8.22785 24.5571 8.42039 24.2683 8.42039C23.3945 8.41298 22.5206 8.42039 21.6393 8.42039C21.743 7.80573 21.743 7.80573 22.291 7.80573ZM21.2839 9.41274C21.3061 8.79067 21.743 8.92397 22.1059 8.92397C22.7946 8.91656 23.4907 8.93878 24.1795 8.91656C24.4535 8.90916 24.4535 9.03505 24.4683 9.24241C24.4831 9.47939 24.4016 9.53863 24.1795 9.52382C23.824 9.50901 23.4611 9.50901 23.1057 9.52382C22.9279 9.53123 22.8613 9.47198 22.8687 9.26463C22.802 9.53863 22.6243 9.52382 22.4392 9.51642C21.6468 9.50901 20.8618 9.50901 20.0694 9.51642C19.8842 9.51642 19.7065 9.52382 19.6991 9.2276C19.6917 9.46458 19.5954 9.52382 19.4029 9.51642C19.0474 9.50161 18.6845 9.4942 18.3291 9.51642C18.0995 9.53123 18.055 9.43495 18.0773 9.24241C18.0921 9.08689 18.0106 8.90175 18.3142 8.90916C19.1659 8.92397 20.0175 8.93138 20.8692 8.90916C21.2246 8.90916 21.1061 9.2276 21.2839 9.41274ZM20.8766 8.41298C20.0027 8.41298 19.1289 8.40558 18.2624 8.41298C17.9958 8.41298 18.0921 8.22785 18.0847 8.10936C18.0847 7.98346 18.0032 7.80573 18.2624 7.80573C19.0252 7.81313 19.788 7.80573 20.5507 7.81313C20.7581 7.81313 20.7803 7.86497 20.8766 8.41298ZM17.0331 5.80622C17.0183 5.6507 17.0183 5.52481 17.2478 5.52481C18.0995 5.53962 18.9511 5.5174 19.7954 5.53221C20.1879 5.53962 20.0323 5.9099 20.1879 6.13947C19.1659 6.13947 18.1958 6.13947 17.2256 6.13947C16.9442 6.14688 17.0405 5.94693 17.0331 5.80622ZM17.0257 7.00592C17.0405 6.843 16.9738 6.66527 17.2627 6.66527C18.2254 6.68008 19.1881 6.66527 20.1434 6.67267C20.3137 6.67267 20.5878 7.1096 20.5063 7.2429C20.4471 7.33177 20.3508 7.28734 20.2693 7.28734C19.7657 7.29474 19.2622 7.28734 18.7512 7.28734C18.255 7.28734 17.7662 7.27253 17.2701 7.29474C17.0479 7.30215 17.0109 7.19847 17.0257 7.00592ZM17.2701 12.2787C17.9958 12.2935 18.7215 12.2935 19.4399 12.2787C19.7139 12.2713 19.6547 12.449 19.6547 12.5971C19.6547 12.7527 19.6991 12.923 19.4325 12.9082C19.0622 12.8934 18.6993 12.9008 18.3291 12.9008C17.9736 12.9008 17.6181 12.886 17.2627 12.9082C16.9738 12.923 17.0257 12.7378 17.0183 12.5749C17.0183 12.3972 17.0331 12.2787 17.2701 12.2787ZM16.3592 11.8047C16.1666 11.8047 15.9667 11.8047 15.7741 11.8047C15.6186 11.8047 15.4483 11.7825 15.3002 11.8121C14.9077 11.8862 14.8929 11.6566 14.9151 11.3678C14.9225 11.2271 14.9743 11.1753 15.115 11.1753C15.5297 11.1827 15.9445 11.1753 16.3666 11.1827C16.6776 11.1827 16.5887 11.4493 16.6258 11.6196C16.6628 11.8344 16.4925 11.8047 16.3592 11.8047ZM16.5739 7.99827C16.5517 8.21303 16.5961 8.45001 16.2333 8.42039C15.8704 8.39077 15.5001 8.39817 15.1298 8.42039C14.8632 8.4352 14.8781 8.28709 14.8707 8.10936C14.8632 7.902 14.8929 7.78351 15.1447 7.80573C15.3372 7.82794 15.5372 7.81313 15.7297 7.81313C15.9 7.81313 16.0778 7.79832 16.2407 7.82054C16.374 7.82794 16.6036 7.69464 16.5739 7.99827ZM16.5295 7.16885C16.5073 7.35399 16.3666 7.28734 16.2703 7.28734C15.3668 7.29474 14.4707 7.28734 13.5673 7.28734C12.6786 7.28734 11.7899 7.27993 10.9013 7.29474C10.6421 7.30215 10.605 7.20587 10.5976 6.9763C10.5902 6.73932 10.6569 6.66527 10.9087 6.66527C12.6342 6.67267 14.3597 6.67267 16.0852 6.67267C16.3592 6.67267 16.5591 6.90225 16.5295 7.16885ZM10.9161 5.52481C12.1232 5.53962 13.3303 5.52481 14.5374 5.53221C15.0484 5.53221 15.4927 5.72476 15.8926 6.08023C15.7889 6.1765 15.7001 6.13947 15.626 6.13947C14.0634 6.13947 12.5009 6.13207 10.9383 6.14688C10.6865 6.14688 10.605 6.09504 10.605 5.82844C10.605 5.57665 10.6791 5.52481 10.9161 5.52481ZM6.62083 5.52481C7.71686 5.53962 8.80548 5.53962 9.90151 5.52481C10.2051 5.5174 10.1163 5.70995 10.1311 5.86547C10.1533 6.05801 10.1089 6.15428 9.87929 6.14688C9.33868 6.13207 8.79807 6.13947 8.25747 6.13947C7.71686 6.13947 7.17625 6.12466 6.63565 6.14688C6.37645 6.15428 6.40607 6.00617 6.41348 5.84325C6.42088 5.70254 6.33942 5.52481 6.62083 5.52481ZM6.66527 6.66527C7.73908 6.68008 8.81289 6.68008 9.88669 6.66527C10.1681 6.65786 10.1237 6.82819 10.1311 6.99852C10.1385 7.17625 10.1311 7.30215 9.88669 7.29474C9.33128 7.27993 8.77586 7.28734 8.22044 7.28734C7.70205 7.28734 7.18366 7.27253 6.66527 7.29474C6.39867 7.30955 6.40607 7.16885 6.40607 6.98371C6.40607 6.79116 6.39867 6.65786 6.66527 6.66527ZM8.84251 11.8047C8.64996 11.7899 8.45001 11.8047 8.25747 11.8047C8.10195 11.8047 7.93903 11.8047 7.78351 11.8047C7.48729 11.8047 7.33918 11.5604 7.45766 11.2715C7.5021 11.1605 7.59097 11.1827 7.67243 11.1827C8.06492 11.1827 8.45742 11.1901 8.84991 11.1753C9.11651 11.1679 9.07208 11.3382 9.07208 11.4937C9.05727 11.6418 9.10911 11.8196 8.84251 11.8047ZM9.05727 8.11676C9.06468 8.28709 9.07949 8.44261 8.8277 8.41298C8.63515 8.39077 8.4352 8.40558 8.23525 8.40558C8.10195 8.40558 7.96124 8.38336 7.82794 8.41298C7.48729 8.47223 7.40583 8.31671 7.43545 8.01308C7.45026 7.85016 7.5021 7.80573 7.65021 7.80573C8.04271 7.81313 8.4352 7.82054 8.8277 7.80573C9.1017 7.79832 9.04986 7.96865 9.05727 8.11676ZM9.05727 9.24981C9.07208 9.39793 9.08689 9.55344 8.84991 9.53123C8.65737 9.51642 8.45742 9.53123 8.25747 9.53123C8.10936 9.53123 7.96124 9.50901 7.81313 9.53863C7.43545 9.61269 7.42804 9.39052 7.44285 9.11651C7.45026 8.9684 7.49469 8.92397 7.6354 8.92397C8.04271 8.93138 8.45001 8.93138 8.84991 8.92397C9.13873 8.90916 9.04246 9.10911 9.05727 9.24981ZM9.06468 10.4643C9.05727 10.605 9.00543 10.6569 8.87213 10.6569C8.46482 10.6495 8.06492 10.6495 7.65762 10.6569C7.3762 10.6643 7.46507 10.4717 7.45766 10.331C7.45026 10.1829 7.42064 10.0274 7.66502 10.0496C7.85757 10.0644 8.05752 10.0496 8.25747 10.0496C8.40558 10.0496 8.55369 10.0718 8.7018 10.0422C9.06468 9.97556 9.07949 10.1829 9.06468 10.4643ZM6.40607 12.5971C6.40607 12.412 6.39126 12.2787 6.66527 12.2787C7.73908 12.2935 8.81289 12.2935 9.88669 12.2787C10.1681 12.2713 10.1311 12.4342 10.1311 12.6119C10.1385 12.7897 10.1385 12.9156 9.88669 12.9082C9.34609 12.8934 8.80548 12.9008 8.25747 12.9008C7.72427 12.9008 7.19847 12.886 6.66527 12.9082C6.40607 12.923 6.40607 12.7897 6.40607 12.5971Z" fill="#1971BD"/>
<path d="M30.2446 15.8483C22.0392 15.8483 13.8413 15.8483 5.63589 15.8483C4.28067 15.8483 2.92545 15.8483 1.56282 15.8483C1.37028 15.8483 1.16292 15.8261 1 15.9668C10.9975 15.9668 20.9951 15.9668 30.9926 15.9668C30.7704 15.7891 30.4964 15.8483 30.2446 15.8483Z" fill="white"/>
<path d="M26.6979 30.9331C26.5202 30.9701 26.3425 30.9627 26.1647 30.9627C19.1591 30.9627 12.146 30.9627 5.1403 30.9627C5.09587 30.9627 5.05884 30.9553 5.0144 30.9553C5.0144 30.9627 5.02181 30.9627 5.0144 30.9701C5.007 30.9924 4.99959 30.9998 4.99219 30.9998C12.2274 30.9998 19.4553 30.9998 26.6905 30.9998C26.6979 30.9701 26.6979 30.9479 26.6979 30.9331Z" fill="#1971BD"/>
<path d="M26.8753 30.8667C25.9422 30.9852 25.0091 30.9259 24.076 30.9259C18.6106 30.9334 13.1527 30.9259 7.68741 30.9259C6.78393 30.9259 5.88786 30.9334 4.98438 30.9334C5.00659 30.9408 5.014 30.9482 5.0214 30.9556C5.06584 30.9556 5.10286 30.963 5.1473 30.963C12.153 30.963 19.1661 30.963 26.1717 30.963C26.3495 30.963 26.5272 30.9704 26.7049 30.9334C26.7197 30.8667 26.8308 30.9037 26.8753 30.8667Z" fill="#1971BD"/>
<path d="M26.727 30.9258C26.7196 30.9258 26.7122 30.9258 26.7048 30.9332C26.6974 30.948 26.6974 30.9702 26.7048 30.9998C26.7344 30.9776 26.7714 30.9554 26.801 30.9258C26.7714 30.9258 26.7492 30.9258 26.727 30.9258Z" fill="#1971BD"/>
<path d="M26.6973 30.9334C26.7047 30.9334 26.7121 30.9334 26.7195 30.9259C26.7417 30.9259 26.7639 30.9259 26.7861 30.9259C26.8158 30.9037 26.838 30.8815 26.8676 30.8667C26.8306 30.9037 26.7195 30.8667 26.6973 30.9334Z" fill="#1971BD"/>
<path d="M5.0214 30.9704C5.0214 30.963 5.0214 30.9556 5.0214 30.9556C5.00659 30.9556 4.99919 30.9556 4.98438 30.9556C4.98438 30.9704 4.99178 30.9852 4.99919 31C5.00659 31 5.014 30.9926 5.0214 30.9704Z" fill="#1971BD"/>
<path d="M4.98438 30.9553C4.99919 30.9553 5.00659 30.9553 5.0214 30.9553C5.014 30.9479 5.00659 30.9405 4.98438 30.9331C4.98438 30.9405 4.98438 30.9479 4.98438 30.9553Z" fill="#1971BD"/>
<path d="M14.4858 25.3938C15.1893 25.3864 15.8928 25.3938 16.5963 25.3864C17.522 25.379 18.1663 24.9199 18.3515 24.1497C18.5959 23.1277 18.3441 22.5501 17.4332 22.0539C17.411 22.0465 17.4036 22.0169 17.3887 22.0021C18.0256 21.6984 18.3218 21.1356 18.2256 20.4024C18.1293 19.6249 17.7812 19.2102 17.0555 19.0769C16.1742 18.9213 15.2856 19.0398 14.3969 19.0102C14.1895 19.0028 14.234 19.1583 14.234 19.2694C14.234 21.2319 14.234 23.1869 14.2266 25.1494C14.234 25.342 14.3006 25.3938 14.4858 25.3938ZM17.0703 23.4313C17.0999 24.1719 16.3594 24.7125 15.6484 24.4681C15.5374 24.4311 15.5374 24.3496 15.5374 24.2682C15.5374 23.7646 15.5299 23.2536 15.5374 22.75C15.5448 22.3575 15.8706 22.6463 15.9595 22.5353C16.7296 22.5427 17.0407 22.8093 17.0703 23.4313ZM15.9002 19.9581C16.7 19.9729 16.9666 20.2321 16.9222 20.906C16.8852 21.4392 16.115 21.8762 15.6262 21.6466C15.5151 21.5947 15.5448 21.5059 15.5374 21.4244C15.5374 21.0764 15.5522 20.7357 15.5299 20.3876C15.5151 20.0618 15.567 19.8396 15.9002 19.9581Z" fill="white"/>
<path d="M9.20549 22.1871C9.20549 23.1573 9.21289 24.1348 9.19808 25.1049C9.19808 25.3345 9.25733 25.4011 9.4869 25.3937C10.1016 25.3789 10.7162 25.3937 11.3383 25.3863C12.4713 25.3789 13.1008 24.8605 13.3082 23.7423C13.4933 22.75 13.5007 21.7576 13.3526 20.7653C13.1749 19.5507 12.5232 19.0101 11.2865 19.0101C10.731 19.0101 10.1756 19.0249 9.6202 19.0027C9.29435 18.9879 9.17586 19.062 9.19067 19.4174C9.2203 20.3357 9.20549 21.2614 9.20549 22.1871ZM10.8125 19.9506C11.6641 19.9506 11.9678 20.1506 12.0714 20.9652C12.1825 21.8317 12.1973 22.7129 12.0418 23.5794C11.9159 24.2977 11.3457 24.6384 10.6422 24.468C10.4496 24.4236 10.5089 24.2903 10.5089 24.1792C10.5015 23.5127 10.5089 22.8462 10.5089 22.1797C10.5089 21.5354 10.5237 20.8986 10.5015 20.2543C10.4867 20.0025 10.5755 19.9506 10.8125 19.9506Z" fill="white"/>
<path d="M19.2765 21.1359C19.4469 21.1359 19.6246 21.1285 19.7949 21.1359C20.0097 21.1507 20.143 21.1211 20.1282 20.8471C20.1134 20.6397 20.1652 20.4324 20.2541 20.2398C20.3874 19.9732 20.6169 19.877 20.8909 19.8992C21.1872 19.9214 21.3723 20.0991 21.4167 20.3879C21.5056 20.9878 21.4316 21.5432 20.9428 21.9801C20.5873 22.2986 20.2318 22.6318 19.8986 22.9725C19.3358 23.5501 18.9507 24.2166 18.8766 25.0534C18.847 25.3645 18.9433 25.3941 19.2025 25.3941C20.1652 25.3793 21.1279 25.3867 22.0907 25.3867C22.809 25.3867 22.8016 25.3867 22.7942 24.6684C22.7942 24.461 22.7349 24.3944 22.5276 24.4018C21.8389 24.4166 21.1501 24.4092 20.3948 24.4092C20.5133 24.0685 20.691 23.8241 20.9132 23.6094C21.2686 23.2687 21.6315 22.9355 21.987 22.5948C22.3054 22.2912 22.535 21.9357 22.6609 21.5062C23.0682 20.0547 22.3424 19.0771 20.8465 19.0771C20.7502 19.0771 20.6466 19.0771 20.5503 19.0771C19.5209 19.129 18.9655 19.6548 18.8692 20.6768C18.8322 21.1359 18.8322 21.1359 19.2765 21.1359Z" fill="white"/>
<path d="M16.2115 12.2933C15.3376 12.2859 14.4638 12.2859 13.5899 12.2859C12.7161 12.2859 11.8422 12.2933 10.9683 12.2785C10.7166 12.2711 10.6055 12.3081 10.6055 12.6118C10.6055 12.9228 10.7536 12.908 10.9683 12.908C12.6568 12.9006 14.3453 12.908 16.0264 12.908C16.0856 12.908 16.1522 12.9154 16.2115 12.908C16.5299 12.8784 16.5077 12.5895 16.5225 12.4044C16.5447 12.197 16.3226 12.2933 16.2115 12.2933Z" fill="white"/>
<path d="M10.9165 6.66504C10.6721 6.66504 10.6055 6.73909 10.6055 6.97607C10.6055 7.20565 10.6499 7.29451 10.9091 7.29451C11.7978 7.2797 12.6864 7.28711 13.5751 7.28711C14.4786 7.28711 15.3747 7.28711 16.2781 7.28711C16.3744 7.28711 16.5151 7.35376 16.5373 7.16862C16.567 6.90942 16.367 6.67244 16.1004 6.67244C14.3675 6.67244 12.642 6.67244 10.9165 6.66504Z" fill="white"/>
<path d="M18.3143 8.91672C18.0181 8.90931 18.0996 9.09445 18.0774 9.24997C18.0551 9.44252 18.0996 9.53879 18.3292 9.52398C18.6846 9.50176 19.0475 9.50917 19.403 9.52398C19.5955 9.53138 19.6918 9.47214 19.6992 9.23516C19.7066 9.53138 19.8769 9.52398 20.0695 9.52398C20.8619 9.51657 21.6469 9.51657 22.4393 9.52398C22.6244 9.52398 22.8095 9.54619 22.8688 9.27219C22.8614 9.47954 22.9354 9.53879 23.1058 9.53138C23.4612 9.51657 23.8241 9.51657 24.1796 9.53138C24.4017 9.54619 24.4832 9.47954 24.4684 9.24997C24.461 9.04261 24.461 8.90931 24.1796 8.92412C23.4908 8.94634 22.7947 8.93153 22.106 8.93153C21.7431 8.93153 21.2988 8.79823 21.284 9.4203C21.0988 9.24256 21.2247 8.91672 20.8619 8.92412C20.0176 8.93153 19.166 8.93153 18.3143 8.91672Z" fill="white"/>
<path d="M10.8348 13.4268C10.5312 13.4268 10.6275 13.6119 10.6053 13.7674C10.5756 13.9674 10.6423 14.0414 10.8645 14.0414C12.1234 14.034 13.375 14.0414 14.6339 14.034C15.1227 14.0266 15.5596 13.8489 15.9891 13.4342C14.2118 13.4342 12.5233 13.4416 10.8348 13.4268Z" fill="white"/>
<path d="M10.9305 6.14697C12.4931 6.13216 14.0557 6.13957 15.6182 6.13957C15.6997 6.13957 15.7886 6.16919 15.8848 6.08032C15.4849 5.72485 15.0406 5.53971 14.5296 5.53231C13.3225 5.5249 12.1154 5.53971 10.9083 5.5249C10.6713 5.5249 10.5972 5.57674 10.5898 5.82853C10.5972 6.09513 10.6787 6.15438 10.9305 6.14697Z" fill="white"/>
<path d="M11.9829 8.9165C11.7459 8.9165 11.6718 8.96834 11.6644 9.21273C11.657 9.48673 11.7607 9.53117 12.0051 9.52376C13.1233 9.50895 14.249 9.49414 15.3672 9.53117C15.8412 9.54598 16.0559 9.33122 16.2485 8.9165C14.7896 8.92391 13.3899 8.92391 11.9829 8.9165Z" fill="white"/>
<path d="M16.2182 10.6567C16.0479 10.4049 16.0034 10.0494 15.6332 10.0494C14.389 10.0494 13.1449 10.0568 11.9082 10.042C11.649 10.042 11.6786 10.1901 11.6786 10.3456C11.6786 10.5011 11.6416 10.6567 11.9008 10.6567C13.3374 10.6492 14.7815 10.6567 16.2182 10.6567Z" fill="white"/>
<path d="M6.67229 12.9081C7.19809 12.8859 7.73129 12.9007 8.26449 12.9007C8.8051 12.9007 9.35311 12.8859 9.89372 12.9081C10.1381 12.9155 10.1455 12.7896 10.1381 12.6119C10.1307 12.4415 10.1751 12.2786 9.89372 12.2786C8.81991 12.2934 7.7461 12.2934 6.67229 12.2786C6.39829 12.2712 6.4131 12.4119 6.4131 12.597C6.40569 12.7896 6.40569 12.9229 6.67229 12.9081Z" fill="white"/>
<path d="M6.66547 7.29481C7.18386 7.27259 7.70225 7.2874 8.22064 7.2874C8.77606 7.2874 9.33147 7.27259 9.88689 7.29481C10.1313 7.30221 10.1387 7.18372 10.1313 6.99858C10.1239 6.82826 10.1683 6.66533 9.88689 6.66533C8.81308 6.68014 7.73927 6.68014 6.66547 6.66533C6.39886 6.65793 6.40627 6.79123 6.40627 6.97637C6.40627 7.16891 6.39886 7.30221 6.66547 7.29481Z" fill="white"/>
<path d="M22.3283 7.27995C22.7948 7.29476 23.2614 7.28735 23.728 7.28735C24.2463 7.28735 24.7647 7.27254 25.2757 7.29476C25.5719 7.30957 25.4979 7.12443 25.5127 6.96151C25.5275 6.78378 25.5127 6.66529 25.2683 6.67269C24.7425 6.6875 24.2093 6.6801 23.6835 6.6801C23.2392 6.6801 22.7948 6.6801 22.3579 6.6801C21.995 6.6801 22.0469 7.00594 22.0173 7.19108C21.9876 7.37622 22.2172 7.27995 22.3283 7.27995Z" fill="white"/>
<path d="M17.2844 7.29473C17.7732 7.27992 18.2693 7.28732 18.7655 7.28732C19.2691 7.28732 19.7727 7.28732 20.2836 7.28732C20.3651 7.28732 20.4614 7.33176 20.5206 7.24289C20.6021 7.11699 20.3281 6.67266 20.1578 6.67266C19.195 6.67266 18.2323 6.68007 17.277 6.66525C16.9882 6.65785 17.0474 6.84299 17.04 7.00591C17.0104 7.19846 17.0474 7.30213 17.2844 7.29473Z" fill="white"/>
<path d="M9.88632 13.4266C8.81251 13.4414 7.73871 13.4414 6.6723 13.4266C6.4057 13.4192 6.41311 13.5451 6.41311 13.7376C6.41311 13.9302 6.41311 14.0561 6.67971 14.0486C7.22031 14.0264 7.76092 14.0412 8.30893 14.0412C8.84214 14.0412 9.36793 14.0264 9.90113 14.0486C10.19 14.0635 10.1307 13.8857 10.1455 13.7228C10.1381 13.5377 10.1233 13.4266 9.88632 13.4266Z" fill="white"/>
<path d="M6.63589 6.14669C7.1765 6.12447 7.7171 6.13928 8.25771 6.13928C8.79832 6.13928 9.33892 6.13188 9.87953 6.14669C10.1091 6.1541 10.1535 6.05782 10.1313 5.86528C10.1165 5.70976 10.2054 5.51722 9.90175 5.52462C8.80572 5.53943 7.7171 5.53943 6.62108 5.52462C6.33966 5.52462 6.42113 5.69495 6.41372 5.84306C6.40632 6.00598 6.37669 6.1541 6.63589 6.14669Z" fill="white"/>
<path d="M22.6757 6.13928C23.0831 6.15409 23.4904 6.14669 23.8977 6.14669C24.3642 6.14669 24.8308 6.13928 25.3047 6.15409C25.4973 6.1615 25.5491 6.06522 25.5121 5.90971C25.4825 5.78381 25.638 5.54683 25.364 5.53943C24.4679 5.52462 23.5644 5.52462 22.6683 5.53943C22.3869 5.54683 22.4166 5.85787 22.3869 6.0282C22.3499 6.24296 22.5721 6.13187 22.6757 6.13928Z" fill="white"/>
<path d="M17.2251 6.14689C18.1952 6.13948 19.1654 6.14689 20.1873 6.14689C20.0318 5.91732 20.1873 5.54704 19.7948 5.53963C18.9432 5.52482 18.0915 5.53963 17.2473 5.53223C17.0177 5.53223 17.0103 5.65812 17.0326 5.81364C17.04 5.94694 16.9437 6.14689 17.2251 6.14689Z" fill="white"/>
<path d="M17.2631 12.9081C17.6186 12.8933 17.974 12.9007 18.3295 12.9007C18.6998 12.9007 19.0701 12.8859 19.4329 12.9081C19.6995 12.9229 19.6551 12.7526 19.6551 12.5971C19.6551 12.449 19.7144 12.2712 19.4404 12.2786C18.7146 12.2935 17.9889 12.2935 17.2705 12.2786C17.0335 12.2712 17.0113 12.3897 17.0187 12.5749C17.0335 12.7452 16.9817 12.9229 17.2631 12.9081Z" fill="white"/>
<path d="M25.2759 12.2786C24.565 12.2934 23.8466 12.2934 23.1357 12.2786C22.8913 12.2712 22.8839 12.3971 22.8913 12.5749C22.8987 12.7526 22.8617 12.9229 23.1431 12.9081C23.4986 12.8859 23.854 12.9007 24.2095 12.9007C24.565 12.9007 24.9204 12.8859 25.2759 12.9081C25.5277 12.9229 25.5203 12.7822 25.5129 12.6119C25.5055 12.449 25.5647 12.2712 25.2759 12.2786Z" fill="white"/>
<path d="M24.2686 8.42033C24.5574 8.42033 24.4538 8.22778 24.4686 8.08708C24.4834 7.93156 24.4908 7.80566 24.2538 7.80566C23.6021 7.82048 22.943 7.80566 22.2913 7.80566C21.7433 7.80566 21.7433 7.80566 21.6396 8.41292C22.5209 8.41292 23.3948 8.40552 24.2686 8.42033Z" fill="white"/>
<path d="M18.2693 7.80566C18.0101 7.80566 18.0841 7.9834 18.0915 8.10929C18.0915 8.23519 18.0027 8.42033 18.2693 8.41292C19.1357 8.40552 20.0096 8.41292 20.8834 8.41292C20.7872 7.86491 20.765 7.81307 20.5576 7.81307C19.7948 7.80566 19.0321 7.81307 18.2693 7.80566Z" fill="white"/>
<path d="M19.4396 13.4268C19.0693 13.449 18.699 13.4342 18.3288 13.4342C17.9733 13.4342 17.6104 13.449 17.2549 13.4268C16.9957 13.4119 17.018 13.5675 17.0254 13.7304C17.0254 13.8859 16.9809 14.0488 17.2475 14.0414C17.9733 14.0266 18.699 14.0266 19.4248 14.0414C19.6914 14.0488 19.6544 13.8933 19.6469 13.7378C19.6544 13.5823 19.7062 13.4119 19.4396 13.4268Z" fill="white"/>
<path d="M25.2905 13.4267C24.9351 13.4489 24.5796 13.4341 24.2167 13.4341C23.8465 13.4341 23.4762 13.4489 23.1059 13.4267C22.8319 13.4119 22.8911 13.5896 22.8911 13.7378C22.8911 13.8933 22.8467 14.0488 23.1207 14.0414C23.8465 14.0192 24.5722 14.0266 25.298 14.0414C25.572 14.0488 25.5053 13.8785 25.5127 13.7303C25.5127 13.5748 25.5571 13.4119 25.2905 13.4267Z" fill="white"/>
<path d="M20.6542 10.6569C21.0763 10.6569 21.491 10.6569 21.9132 10.6569C22.4686 10.6569 22.4686 10.6569 22.5352 10.0645C21.691 10.0645 20.8468 10.0645 19.9951 10.0645C20.1136 10.6569 20.1136 10.6569 20.6542 10.6569Z" fill="white"/>
<path d="M21.8021 11.1826C21.6317 11.153 21.4614 11.1752 21.2837 11.1752C21.1133 11.1752 20.9356 11.1752 20.7653 11.1752C20.2913 11.1752 20.2617 11.2271 20.469 11.6566C20.5357 11.7899 20.6246 11.7899 20.7356 11.7899C21.0837 11.7899 21.4244 11.7751 21.7724 11.7973C22.1649 11.8269 22.1427 11.4937 22.1649 11.3011C22.1871 11.0567 21.9354 11.2048 21.8021 11.1826Z" fill="white"/>
<path d="M16.3515 11.1827C15.9368 11.1753 15.5221 11.1827 15.1 11.1753C14.9592 11.1753 14.9148 11.2197 14.9 11.3678C14.8778 11.6567 14.8926 11.8788 15.2851 11.8122C15.4406 11.7826 15.6035 11.8048 15.759 11.8048C15.9516 11.8048 16.1515 11.8048 16.3441 11.8048C16.4774 11.8048 16.6477 11.8344 16.5959 11.6122C16.5811 11.4419 16.6625 11.1827 16.3515 11.1827Z" fill="white"/>
<path d="M13.101 11.175C12.7011 11.1898 12.2938 11.1824 11.8865 11.175C11.731 11.175 11.6791 11.2269 11.6717 11.3898C11.6495 11.6786 11.6939 11.8711 12.0568 11.8045C12.1975 11.7823 12.353 11.7971 12.4937 11.7971C12.6863 11.7971 12.8862 11.7823 13.0788 11.7971C13.338 11.8193 13.3158 11.6564 13.3084 11.4935C13.301 11.3528 13.375 11.1676 13.101 11.175Z" fill="white"/>
<path d="M8.83452 11.1752C8.44202 11.19 8.04953 11.1752 7.65703 11.1826C7.57557 11.1826 7.4867 11.1604 7.44227 11.2715C7.32378 11.5529 7.47189 11.7973 7.76812 11.8047C7.92363 11.8047 8.08656 11.8047 8.24207 11.8047C8.43462 11.8047 8.63457 11.7899 8.82711 11.8047C9.09371 11.8269 9.04188 11.6418 9.04928 11.4863C9.05669 11.3307 9.10112 11.1604 8.83452 11.1752Z" fill="white"/>
<path d="M19.2846 11.175C19.1513 11.1972 19.018 11.1824 18.8847 11.1824C18.7217 11.1824 18.5662 11.1972 18.4107 11.1824C18.1589 11.1528 18.0775 11.2416 18.0775 11.5008C18.0701 11.7896 18.1959 11.8193 18.4255 11.8045C18.7662 11.7896 19.1142 11.797 19.4549 11.8045C19.6104 11.8045 19.6623 11.7526 19.6697 11.5971C19.6845 11.3083 19.6548 11.1083 19.2846 11.175Z" fill="white"/>
<path d="M23.2612 11.7974C23.3945 11.7974 23.5278 11.7974 23.6685 11.7974C23.861 11.7974 24.061 11.79 24.2535 11.7974C24.5201 11.8122 24.4683 11.627 24.4683 11.4789C24.4683 11.3234 24.5053 11.1531 24.2461 11.1679C23.8684 11.1827 23.4908 11.1753 23.1057 11.1753C23.0094 11.1753 22.9205 11.1679 22.8835 11.3086C22.7946 11.6567 22.8983 11.7974 23.2612 11.7974Z" fill="white"/>
<path d="M16.248 7.81305C16.0776 7.79824 15.9073 7.80565 15.737 7.80565C15.5444 7.80565 15.3445 7.82046 15.1519 7.79824C14.9001 7.76862 14.8705 7.89452 14.8779 8.10187C14.8853 8.28701 14.8705 8.43512 15.1371 8.41291C15.5 8.39069 15.8777 8.38328 16.2406 8.41291C16.596 8.44253 16.559 8.20555 16.5812 7.99079C16.6034 7.69457 16.3739 7.82787 16.248 7.81305Z" fill="white"/>
<path d="M8.68737 10.0423C8.54666 10.072 8.39115 10.0497 8.24304 10.0497C8.04309 10.0497 7.85054 10.0645 7.65059 10.0497C7.40621 10.0275 7.43583 10.183 7.44323 10.3311C7.45064 10.4719 7.36177 10.6644 7.64318 10.657C8.05049 10.6422 8.45039 10.6496 8.8577 10.657C8.99841 10.657 9.04284 10.6052 9.05024 10.4644C9.07987 10.183 9.06506 9.97568 8.68737 10.0423Z" fill="white"/>
<path d="M8.85734 8.9167C8.45003 8.93152 8.04273 8.92411 7.64283 8.9167C7.50212 8.9167 7.45769 8.96114 7.45028 9.10925C7.43547 9.38326 7.44288 9.60542 7.82056 9.53137C7.96127 9.50174 8.11678 9.52396 8.26489 9.52396C8.46485 9.52396 8.65739 9.50915 8.85734 9.52396C9.09432 9.54618 9.07951 9.39066 9.0647 9.24255C9.04248 9.10925 9.13875 8.9093 8.85734 8.9167Z" fill="white"/>
<path d="M13.0856 7.80586C12.6783 7.82068 12.271 7.80586 11.8711 7.81327C11.7896 7.81327 11.7081 7.79846 11.6785 7.92435C11.5896 8.26501 11.6933 8.41312 12.0488 8.42053C12.1969 8.42053 12.345 8.42053 12.4931 8.42053C12.6931 8.42053 12.8856 8.40572 13.0856 8.42053C13.3225 8.44274 13.3077 8.28723 13.2929 8.13912C13.2707 7.99841 13.3744 7.79846 13.0856 7.80586Z" fill="white"/>
<path d="M8.83536 7.8059C8.44287 7.82071 8.05037 7.8133 7.65787 7.8059C7.50236 7.8059 7.45792 7.85033 7.44311 8.01325C7.41349 8.32429 7.49495 8.4798 7.83561 8.41315C7.96891 8.39094 8.10221 8.40575 8.24292 8.40575C8.44287 8.40575 8.63541 8.39094 8.83536 8.41315C9.08715 8.43537 9.07234 8.27985 9.06493 8.11693C9.05012 7.96882 9.10196 7.79849 8.83536 7.8059Z" fill="white"/>
<path d="M23.1055 10.657C23.4832 10.6422 23.8683 10.6496 24.246 10.657C24.3941 10.657 24.4607 10.6274 24.4681 10.4571C24.4903 10.1609 24.4385 9.97574 24.083 10.0424C23.9497 10.0646 23.8164 10.0498 23.6757 10.0498C23.4758 10.0498 23.2832 10.0572 23.0833 10.0498C22.8019 10.035 22.8981 10.2423 22.8833 10.383C22.8759 10.5237 22.8611 10.6719 23.1055 10.657Z" fill="white"/>
<path d="M19.4476 10.0423C19.0625 10.0571 18.6848 10.0497 18.2997 10.0423C18.1516 10.0423 18.085 10.0719 18.0702 10.2422C18.0479 10.531 18.0924 10.7236 18.4553 10.6569C18.5886 10.6347 18.7293 10.6495 18.8626 10.6495C19.0625 10.6495 19.2551 10.6421 19.455 10.6495C19.7438 10.6643 19.6401 10.457 19.655 10.3237C19.6698 10.183 19.692 10.0349 19.4476 10.0423Z" fill="white"/>
<path d="M21.417 12.2862C21.3726 12.2714 21.3207 12.2862 21.2689 12.2862C21.1948 12.2862 21.1208 12.2936 21.0467 12.2862C20.6913 12.2269 20.6913 12.375 20.7727 12.6639C20.8764 13.0341 21.1504 12.8712 21.3652 12.9083C21.7725 12.9823 21.7799 12.6491 21.7947 12.4269C21.8169 12.1529 21.5503 12.338 21.417 12.2862Z" fill="white"/>
<path d="M21.1134 13.4489C21.0467 13.6562 21.1726 13.8339 21.2689 14.0191C21.343 13.8265 21.5355 13.6562 21.4096 13.434C21.3874 13.397 21.1282 13.4118 21.1134 13.4489Z" fill="white"/>
<path d="M15.9596 22.5355C15.8633 22.6466 15.5375 22.3504 15.5375 22.7503C15.5301 23.2539 15.5375 23.7648 15.5375 24.2684C15.5375 24.3573 15.5375 24.4313 15.6486 24.4684C16.3521 24.7202 17.1 24.1795 17.0704 23.4316C17.0408 22.8095 16.7298 22.5429 15.9596 22.5355Z" fill="#1971BD"/>
<path d="M15.5367 21.4244C15.5367 21.5059 15.5145 21.5948 15.6255 21.6466C16.1069 21.8762 16.8845 21.4393 16.9215 20.906C16.966 20.2247 16.7068 19.9655 15.8996 19.9581C15.5663 19.8471 15.5145 20.0692 15.5367 20.3951C15.5515 20.7357 15.5367 21.0838 15.5367 21.4244Z" fill="#1971BD"/>
<path d="M10.5011 22.1798C10.5011 22.8463 10.5011 23.5128 10.5011 24.1793C10.5011 24.2904 10.4493 24.4237 10.6344 24.4681C11.338 24.6384 11.9082 24.3052 12.0341 23.5794C12.1896 22.713 12.1748 21.8317 12.0637 20.9652C11.96 20.1506 11.6564 19.9507 10.8048 19.9507C10.5678 19.9507 10.4863 20.0025 10.4863 20.2543C10.516 20.8986 10.5011 21.5429 10.5011 22.1798Z" fill="#1971BD"/>
</svg>
