<svg xmlns="http://www.w3.org/2000/svg" width="14" height="14" viewBox="0 0 14 14">
  <g id="Dormant_Database" data-name="Dormant Database" transform="translate(22551 -15832)">
    <rect id="Rectangle_1797" data-name="Rectangle 1797" width="14" height="14" transform="translate(-22551 15832)" fill="none"/>
    <g id="Group_2015" data-name="Group 2015" transform="translate(-22623.99 15293.838)">
      <g id="Group_2014" data-name="Group 2014">
        <g id="Group_2013" data-name="Group 2013">
          <g id="Group_2012" data-name="Group 2012">
            <path id="Path_2731" data-name="Path 2731" d="M79.991,538.162a7,7,0,1,0,7,7A7,7,0,0,0,79.991,538.162Zm-.875,8.75a.875.875,0,0,1-1.75,0v-3.5a.875.875,0,0,1,1.75,0Zm3.5,0a.875.875,0,0,1-1.75,0v-3.5a.875.875,0,0,1,1.75,0Z" fill="#0071bd"/>
          </g>
        </g>
      </g>
    </g>
  </g>
</svg>
