<svg width="32" height="32" viewBox="0 0 32 32" fill="none" xmlns="http://www.w3.org/2000/svg">
<g clip-path="url(#clip0)">
<path d="M16 0C12.8355 0 9.74207 0.938384 7.11088 2.69649C4.4797 4.45459 2.42894 6.95345 1.21793 9.87707C0.00693267 12.8007 -0.309921 16.0177 0.307443 19.1214C0.924806 22.2251 2.44866 25.0761 4.6863 27.3137C6.92394 29.5513 9.77487 31.0752 12.8786 31.6926C15.9823 32.3099 19.1993 31.9931 22.1229 30.7821C25.0466 29.5711 27.5454 27.5203 29.3035 24.8891C31.0616 22.2579 32 19.1645 32 16C32 11.7565 30.3143 7.68687 27.3137 4.68629C24.3131 1.68571 20.2435 0 16 0ZM13.9886 20C13.9886 20.2611 13.9371 20.5197 13.8372 20.761C13.7373 21.0023 13.5908 21.2215 13.4061 21.4061C13.2215 21.5908 13.0023 21.7373 12.761 21.8372C12.5197 21.9371 12.2612 21.9886 12 21.9886C11.7389 21.9886 11.4803 21.9371 11.239 21.8372C10.9978 21.7373 10.7785 21.5908 10.5939 21.4061C10.4092 21.2215 10.2627 21.0023 10.1628 20.761C10.0629 20.5197 10.0114 20.2611 10.0114 20V12C10.0114 11.4726 10.2209 10.9668 10.5939 10.5939C10.9668 10.2209 11.4726 10.0114 12 10.0114C12.5274 10.0114 13.0332 10.2209 13.4061 10.5939C13.7791 10.9668 13.9886 11.4726 13.9886 12V20ZM21.9886 20C22.0186 20.2806 21.9893 20.5644 21.9025 20.8329C21.8156 21.1014 21.6733 21.3487 21.4847 21.5586C21.296 21.7685 21.0653 21.9363 20.8076 22.0513C20.5498 22.1662 20.2708 22.2255 19.9886 22.2255C19.7064 22.2255 19.4273 22.1662 19.1696 22.0513C18.9118 21.9363 18.6811 21.7685 18.4925 21.5586C18.3039 21.3487 18.1615 21.1014 18.0747 20.8329C17.9879 20.5644 17.9585 20.2806 17.9886 20V12C18.0414 11.5064 18.2749 11.0498 18.6441 10.718C19.0133 10.3862 19.4922 10.2027 19.9886 10.2027C20.485 10.2027 20.9638 10.3862 21.333 10.718C21.7023 11.0498 21.9357 11.5064 21.9886 12V20Z" fill="#1971BD"/>
</g>
<defs>
<clipPath id="clip0">
<rect width="32" height="32" fill="white"/>
</clipPath>
</defs>
</svg>
