<svg xmlns="http://www.w3.org/2000/svg" width="33" height="33" fill="none" xmlns:v="https://vecta.io/nano"><g clip-path="url(#A)"><g clip-path="url(#B)" fill="#1971bd"><path d="M17.089 5.541h5.482c3.5.022 6.711 2.257 7.933 5.52.527 1.409.641 2.867.491 4.364-.22 2.198-.876 4.238-2.118 6.067-1.916 2.822-4.617 4.391-7.962 4.913-1.134.177-2.272.156-3.411.156-.473 0-.726-.216-.754-.608-.03-.419.233-.742.7-.77l1.555-.02c3.149-.086 5.876-1.171 8.035-3.503 1.513-1.635 2.28-3.626 2.54-5.82.18-1.523.161-3.036-.44-4.478-.922-2.207-2.575-3.56-4.85-4.187-.883-.244-1.789-.29-2.695-.295l-10.147-.009c-.142 0-.286.005-.428-.007a.68.68 0 0 1-.617-.64.67.67 0 0 1 .151-.432.66.66 0 0 1 .394-.232 2.62 2.62 0 0 1 .467-.023h5.677l-.002.002zm-3.464 16.19H7.559c-.13.006-.26.003-.389-.009-.351-.047-.572-.249-.606-.604s.132-.598.467-.722c.212-.078.435-.061.654-.061l11.972-.007a4.74 4.74 0 0 0 3.569-1.551c.823-.881 1.255-1.946 1.384-3.145.101-.94-.033-1.805-.616-2.573-.649-.856-1.525-1.286-2.579-1.29l-11.311-.012c-.401 0-.802-.033-1.201-.07-.345-.032-.535-.24-.558-.587-.026-.378.168-.651.511-.717a1.83 1.83 0 0 1 .347-.016h12.132c2.038.004 3.801 1.238 4.443 3.166.456 1.369.293 2.749-.218 4.076-.981 2.548-3.292 4.115-6.026 4.122h-5.908zM4.579 11.69h-1.4c-.389-.007-.687-.263-.732-.612s.174-.648.595-.734a3.68 3.68 0 0 1 .695-.046h1.905a2.47 2.47 0 0 1 .575.067c.343.087.53.38.49.736s-.255.57-.614.581l-1.516.005.002.003zm8.512 14.867h-1.322c-.418-.009-.7-.247-.743-.597a.7.7 0 0 1 .631-.759 18.35 18.35 0 0 1 2.829-.004c.089.004.176.026.256.064a.65.65 0 0 1 .21.161.66.66 0 0 1 .129.23c.027.084.036.174.027.263-.029.389-.303.627-.735.645H13.09v-.003z"/></g></g><defs><clipPath id="A"><path fill="#fff" transform="translate(.161 .196)" d="M0 0h32v32H0z"/></clipPath><clipPath id="B"><path fill="#fff" transform="translate(.847 3.94)" d="M0 0h30.791v24.24H0z"/></clipPath></defs></svg>