<svg width="32" height="32" viewBox="0 0 32 32" fill="none" xmlns="http://www.w3.org/2000/svg">
<path d="M16.3658 31.9726L14.56 31.7212C12.8701 31.3951 11.2218 30.8814 9.64575 30.1897C9.64575 30.1897 9.64575 30.1897 9.64575 30.0754C11.4844 28.0923 12.9067 25.7606 13.8286 23.2183C13.8507 23.1173 13.9099 23.0282 13.9946 22.969C14.0794 22.9097 14.1833 22.8844 14.2858 22.8983L25.4858 22.8297C27.7853 22.7419 30.027 23.563 31.7258 25.1154L31.9086 25.2983C31.2847 26.086 30.5799 26.8061 29.8058 27.4469C26.978 29.7761 23.5447 31.2508 19.9086 31.6983L18.4915 31.9726H16.3658Z" fill="#1971BD"/>
<path d="M0 14.7154C0 14.0983 0.16 13.4812 0.251429 12.8869C0.342857 12.2926 0.434286 12.0412 0.525714 11.6297C0.542228 11.5547 0.587162 11.489 0.651087 11.4464C0.715012 11.4037 0.792959 11.3875 0.868571 11.4012H12.2971C12.3469 11.3914 12.3982 11.392 12.4477 11.4031C12.4972 11.4142 12.5439 11.4355 12.5847 11.4656C12.6256 11.4957 12.6597 11.5339 12.685 11.5779C12.7102 11.6219 12.726 11.6707 12.7314 11.7212C13.4399 14.5653 13.4399 17.5399 12.7314 20.384C12.7193 20.4222 12.699 20.4572 12.6718 20.4867C12.6447 20.5162 12.6115 20.5394 12.5744 20.5546C12.5374 20.5699 12.4975 20.5768 12.4575 20.575C12.4175 20.5732 12.3783 20.5626 12.3429 20.544H1.05143C0.973515 20.5535 0.894695 20.536 0.828133 20.4944C0.761571 20.4528 0.711299 20.3896 0.685714 20.3154C0.321312 19.3376 0.0906556 18.315 0 17.2754L0 16.8412V14.7154Z" fill="#1971BD"/>
<path d="M32 6.57831C30.7941 7.76819 29.2562 8.56506 27.5886 8.86402C26.8959 9.00037 26.1917 9.06926 25.4858 9.06974L14.24 8.97831C14.0115 8.97831 13.9429 8.97831 13.8743 8.68117C13.1317 6.6964 12.0996 4.83241 10.8115 3.14974C10.4458 2.66974 10.0343 2.25831 9.64575 1.80117C13.3809 0.0398829 17.5909 -0.446611 21.6293 0.416395C25.6676 1.2794 29.3111 3.44419 32 6.57831Z" fill="#1971BD"/>
<path d="M14.8115 20.544C15.5918 17.5464 15.5918 14.3989 14.8115 11.4012H23.703C24.4125 11.3739 25.12 11.4939 25.7809 11.7535C26.4417 12.0132 27.0417 12.4068 27.543 12.9097C28.0696 13.4496 28.4499 14.1149 28.6478 14.8427C28.8457 15.5705 28.8546 16.3367 28.6739 17.069C28.4931 17.8012 28.1285 18.4752 27.6147 19.0273C27.1008 19.5794 26.4546 19.9913 25.7372 20.224C25.0975 20.4487 24.4265 20.5721 23.7487 20.5897H14.8115V20.544Z" fill="#1971BD"/>
<path d="M7.79424 2.78403C9.46383 4.69914 10.8705 6.82839 11.9771 9.11546H1.80566C3.15193 6.47334 5.23108 4.27516 7.79424 2.78403Z" fill="#1971BD"/>
<path d="M7.58842 28.9783C5.08487 27.4928 3.01881 25.3716 1.59985 22.8297H11.7941C10.8566 25.161 9.42124 27.2594 7.58842 28.9783Z" fill="#1971BD"/>
</svg>
