<?xml version="1.0" encoding="utf-8"?>
<!-- Generator: Adobe Illustrator 23.0.1, SVG Export Plug-In . SVG Version: 6.00 Build 0)  -->
<svg version="1.1"
	 id="svg13826" inkscape:version="0.92.4 5da689c313, 2019-01-14" sodipodi:docname="etcd.svg" xmlns:cc="http://creativecommons.org/ns#" xmlns:dc="http://purl.org/dc/elements/1.1/" xmlns:inkscape="http://www.inkscape.org/namespaces/inkscape" xmlns:rdf="http://www.w3.org/1999/02/22-rdf-syntax-ns#" xmlns:sodipodi="http://sodipodi.sourceforge.net/DTD/sodipodi-0.dtd" xmlns:svg="http://www.w3.org/2000/svg"
	 xmlns="http://www.w3.org/2000/svg" xmlns:xlink="http://www.w3.org/1999/xlink" x="0px" y="0px" viewBox="0 0 50 50"
	 style="enable-background:new 0 0 50 50;" xml:space="preserve">
<style type="text/css">
	.st0{fill:#0071BD;}
</style>
<sodipodi:namedview  bordercolor="#666666" borderopacity="1.0" fit-margin-bottom="0" fit-margin-left="0" fit-margin-right="0" fit-margin-top="0" id="base" inkscape:current-layer="layer1" inkscape:cx="-40.594342" inkscape:cy="20.272431" inkscape:document-units="mm" inkscape:pageopacity="0.0" inkscape:pageshadow="2" inkscape:window-height="1043" inkscape:window-maximized="1" inkscape:window-width="1920" inkscape:window-x="0" inkscape:window-y="0" inkscape:zoom="5.6568543" pagecolor="#ffffff" showgrid="false">
	</sodipodi:namedview>
<g id="layer1" transform="translate(-0.99262638,-1.174181)" inkscape:groupmode="layer" inkscape:label="Calque 1">
	<path id="path4590" inkscape:connector-curvature="0" class="st0" d="M50.2,27.2c-0.2,0-0.5,0-0.7,0c-1.5,0-2.9-0.3-4.1-1
		c0.4-2.4,0.6-4.9,0.6-7.3c-1.4-2-3-3.9-4.7-5.6c0.8-1.4,1.9-2.7,3.3-3.6l0.6-0.4l-0.5-0.5C42.2,6,39.3,3.9,36,2.5l-0.7-0.3
		l-0.2,0.7c-0.4,1.6-1.2,3.1-2.4,4.3C30.6,6,28.3,5.1,26,4.3c-2.4,0.7-4.6,1.7-6.8,2.8c-1.1-1.2-2-2.6-2.4-4.3l-0.2-0.7L16,2.5
		c-3.3,1.4-6.3,3.6-8.7,6.3L6.8,9.4l0.6,0.4c1.4,0.9,2.6,2.1,3.3,3.6C8.9,15,7.4,16.9,6,18.9c-0.1,2.4,0.1,4.9,0.5,7.4
		c-1.3,0.6-2.7,1-4.1,1c-0.3,0-0.5,0-0.7,0L1,27.1l0.1,0.7c0.4,3.6,1.5,7.1,3.3,10.2l0.4,0.6l0.5-0.5c1.3-1.1,2.8-1.8,4.4-2.1
		c1.1,2.2,2.3,4.2,3.8,6.2c2.3,0.8,4.7,1.4,7.2,1.8c0.2,1.6,0,3.3-0.6,4.9l-0.3,0.7l0.7,0.2c1.8,0.4,3.6,0.6,5.4,0.6l5.4-0.6
		l0.7-0.2L31.8,49c-0.6-1.6-0.8-3.3-0.6-4.9c2.5-0.4,4.9-1,7.2-1.8c1.5-1.9,2.7-4,3.8-6.2c1.6,0.3,3.2,1,4.5,2.1l0.5,0.5l0.4-0.6
		c1.9-3.2,3-6.6,3.3-10.2l0.1-0.7L50.2,27.2z M33.7,35.9c-2.5,0.7-5.1,1-7.7,1c-2.6,0-5.2-0.3-7.7-1c-1.4-2.2-2.5-4.5-3.3-7
		c-0.8-2.4-1.3-5-1.4-7.6c1.6-2,3.5-3.8,5.6-5.3c2.1-1.5,4.4-2.8,6.8-3.7c2.4,0.9,4.7,2.2,6.8,3.7c2.1,1.5,4,3.3,5.6,5.4
		C38.2,24,37.8,26.5,37,29C36.2,31.4,35.1,33.8,33.7,35.9z M28.1,23.6c0,1.8,1.5,3.3,3.3,3.3c1.8,0,3.3-1.5,3.3-3.3
		c0-1.8-1.5-3.3-3.3-3.3C29.5,20.4,28.1,21.8,28.1,23.6L28.1,23.6z M23.9,23.6c0,1.8-1.5,3.3-3.3,3.3c-1.8,0-3.3-1.5-3.3-3.3
		c0-1.8,1.5-3.3,3.3-3.3C22.4,20.4,23.9,21.8,23.9,23.6L23.9,23.6z"/>
</g>
</svg>
