<svg xmlns="http://www.w3.org/2000/svg" width="32" height="33" fill="#1971bd" xmlns:v="https://vecta.io/nano"><path d="M14.592 1.576c-3.389.755-6.871 3.279-8.455 6.117l-.497.921 1.418-.811c3.813-2.174 8.252-2.487 11.771-.792 1.437.663 3.15 2.469 3.924 4.072.737 1.548 1.437 4.035 1.602 5.656.11 1.29.129 1.308.479.995.553-.497 1.603-2.837 1.897-4.238.755-3.574-.129-6.725-2.56-9.046-2.689-2.58-6.189-3.63-9.579-2.874zM6.856 9.922l-2.1 1.971C2.417 13.938.667 17.752.667 20.81c0 1.455.553 3.74 1.234 5.14 1.492 3.077 5.416 5.177 10.168 5.453 1.732.111 1.75.111 1.308-.221-1.271-.903-2.634-2.413-3.168-3.519-.516-1.05-.608-1.437-.663-2.985-.074-1.566-.018-1.916.368-2.893.81-1.99 1.824-2.874 4.034-3.556 1.989-.608 2.763-1.419 3.481-3.722.405-1.326.276-1.75-.608-1.879-3.776-.553-4.808-.976-6.631-2.782-.737-.737-1.381-1.198-1.621-1.198s-.903.497-1.713 1.271zm4.218 1.566c.313.221.313.332.111 1.382-.203.995-.184 1.216.074 1.603.46.719 1.197.589 2.137-.387.811-.829 1.032-.921 2.137-.866.424.037.571.111.497.295-.111.295.387.848.774.848.332 0 .332.092-.055.7-.995 1.603-2.395 2.432-4.144 2.432-2.597-.018-4.255-2.045-3.758-4.661.258-1.345 1.326-2.008 2.229-1.345zm17.592 2.303c0 .203-.24 1.087-.534 1.953-1.418 4.256-4.734 7.756-8.308 8.843-1.897.553-6.392.553-8.326-.018-.939-.276.147 1.898 1.768 3.537 2.634 2.653 5.913 3.556 9.652 2.653 6.76-1.621 10.094-7.333 8.031-13.818-.626-1.99-2.284-4.274-2.284-3.15z"/></svg>