<svg width="32" height="32" viewBox="0 0 32 32" fill="none" xmlns="http://www.w3.org/2000/svg">
<path d="M6.67282 20.791C6.67282 20.791 2.1892 27.5888 11.0118 28.9808C11.8796 29.0893 18.2796 29.7582 19.9248 31.8554C19.9248 31.8554 19.7802 28.2396 14.5734 26.1063C9.36661 23.9729 7.25135 23.4306 6.67282 20.791Z" fill="#1971BD"/>
<path d="M11.048 6.14685C11.048 6.14685 -1.51701 13.8124 10.3248 21.4237C12.6028 22.9062 20.8649 27.0282 20.6299 30.8429C20.6299 30.8429 25.6378 23.4305 18.3158 18.7661C10.7949 13.9751 8.91463 8.89487 11.048 6.14685Z" fill="#1971BD"/>
<path d="M24.0288 13.6316C18.6412 7.99096 17.1406 4.50169 19.4548 0C19.4548 0 3.38244 6.18305 19.2559 17.1571C24.9327 21.0802 23.9926 25.0938 23.9926 25.2384C24.8785 24.3164 29.4163 19.2723 24.0288 13.6316Z" fill="#1971BD"/>
</svg>
