<svg width="32" height="32" viewBox="0 0 32 32" fill="none" xmlns="http://www.w3.org/2000/svg">
<path d="M30.951 19.2573L27.9422 6C27.7742 5.28533 27.1273 4.54267 26.3964 4.34267L12.7025 0.0573333C12.5332 0 12.3364 0 12.112 0C11.5215 0 10.931 0.228 10.5085 0.6L0.696038 9.88533C0.160669 10.3733 -0.120138 11.3427 0.0491333 12.028L3.25479 26.228C3.42275 26.9427 4.06965 27.6853 4.80054 27.8853L17.6232 31.9427C17.7911 32 17.988 32 18.2137 32C18.8041 32 19.3946 31.772 19.8158 31.4L30.3041 21.4853C30.8381 20.9147 31.1203 20 30.951 19.2573ZM14.1367 3.2L23.5555 6.14267C23.9216 6.25733 23.9216 6.428 23.5555 6.51467L18.6073 7.65733C18.2412 7.772 17.7071 7.6 17.4539 7.31467L14.0239 3.54267C13.7142 3.228 13.7706 3.08533 14.1367 3.2ZM20.0127 20.3427C20.1255 20.7147 19.8722 20.9427 19.5075 20.828L9.35643 17.628C8.99033 17.5147 8.90635 17.2 9.18716 16.9427L16.9487 9.6C17.2295 9.31467 17.5392 9.428 17.6232 9.8L20.0127 20.3427ZM3.28366 11L11.5215 3.2C11.8023 2.91467 12.2249 2.972 12.5057 3.228L16.639 7.772C16.9198 8.05733 16.8634 8.48533 16.6102 8.772L8.3723 16.572C8.09149 16.8573 7.66897 16.8 7.38816 16.5427L3.25479 12C2.97398 11.6853 3.00154 11.228 3.28235 11H3.28366ZM5.2808 23.3427L3.1157 13.628C3.00285 13.2573 3.17212 13.172 3.42406 13.4573L6.85542 17.228C7.13622 17.5147 7.2202 18.0573 7.13622 18.428L5.64558 23.3427C5.53405 23.7427 5.36478 23.7427 5.2808 23.3427ZM17.3437 29.0573L6.5733 25.6573C6.39177 25.5986 6.24011 25.47 6.15082 25.299C6.06153 25.128 6.04173 24.9283 6.09566 24.7427L7.89597 18.8573C7.95374 18.6732 8.08013 18.5193 8.2481 18.4286C8.41607 18.3379 8.6123 18.3176 8.79482 18.372L19.5639 21.7427C19.93 21.8573 20.1544 22.2573 20.0428 22.6573L18.2425 28.5427C18.1792 28.7244 18.0533 28.8766 17.888 28.9712C17.7228 29.0658 17.5294 29.0964 17.3437 29.0573ZM26.9029 21.0853L19.7056 27.8853C19.4235 28.172 19.2831 28.0573 19.3959 27.6853L20.8866 22.772C20.9981 22.4 21.3918 22 21.7854 21.9427L26.735 20.8C27.0997 20.6573 27.1562 20.828 26.9029 21.0853ZM27.6902 19.6L21.7579 20.972C21.3918 21.0853 20.9981 20.828 20.9141 20.4573L18.3829 9.31467C18.2714 8.94267 18.5246 8.54267 18.8894 8.45733L24.8231 7.08533C25.1879 6.972 25.5815 7.228 25.6655 7.6L28.1967 18.7427C28.2807 19.172 28.0563 19.5427 27.6902 19.6Z" fill="#1971BD"/>
</svg>
