<svg xmlns="http://www.w3.org/2000/svg" width="33" height="33" fill="none" xmlns:v="https://vecta.io/nano"><path d="M13.994 4.868a1.72 1.72 0 0 0-1.243-.533c-.468 0-.904.194-1.227.533s-.516.792-.5 1.261a1.83 1.83 0 0 0 .5 1.261c.323.339.775.517 1.227.517.468 0 .92-.178 1.243-.517s.516-.792.5-1.261c.016-.469-.178-.921-.5-1.261zm-1.243 24.437c.468 0 .92-.194 1.243-.517.323-.339.516-.792.5-1.261a1.84 1.84 0 0 0-.5-1.277c-.323-.339-.775-.517-1.243-.517a1.67 1.67 0 0 0-1.227.517 1.73 1.73 0 0 0-.5 1.277 1.74 1.74 0 0 0 .517 1.228c.323.339.775.517 1.227.517l-.016.032zm9.54-5.398a1.71 1.71 0 0 0 1.065-.824l.032-.065c.21-.388.258-.857.145-1.277a1.73 1.73 0 0 0-.823-1.083l-.032-.016c-.839-.469-1.905-.162-2.373.679-.484.857-.21 1.939.646 2.441a1.83 1.83 0 0 0 1.34.145zm-7.748-8.921c-.969-.986-2.55-1.018-3.535-.048l-.049.048c-.484.485-.742 1.148-.742 1.826s.258 1.341.742 1.826c.969.986 2.567 1.002 3.551.032l.032-.032c.468-.485.742-1.147.742-1.826a2.61 2.61 0 0 0-.742-1.826zm-1.017-3.038c1.001.178 1.921.663 2.631 1.39l.323.356 1.743-1.034c-.549-1.713.145-3.604 1.711-4.525l.032-.016c.855-.501 1.872-.63 2.841-.372.968.275 1.808.921 2.292 1.794a3.9 3.9 0 0 1 .371 2.909c-.258.986-.888 1.826-1.759 2.344l-.242.146h-.032c-.807.388-1.727.485-2.599.242-.71-.194-1.34-.598-1.824-1.148l-1.743 1.034a4.92 4.92 0 0 1 0 3.491l1.743 1.018c.484-.549 1.114-.954 1.824-1.147.969-.275 2.018-.129 2.873.388l.065.032c.839.517 1.453 1.341 1.695 2.311.258.986.129 2.036-.371 2.909l-.032.065c-.5.857-1.308 1.471-2.26 1.745a3.73 3.73 0 0 1-2.873-.388c-1.55-.921-2.26-2.796-1.711-4.525l-1.743-1.034c-.097.129-.21.242-.323.355-.71.727-1.63 1.212-2.631 1.374v2.053c.71.162 1.372.517 1.889 1.051 1.485 1.503 1.485 3.927 0 5.447a3.74 3.74 0 0 1-5.278.065l-.065-.065c-1.485-1.503-1.485-3.927 0-5.447a3.85 3.85 0 0 1 1.889-1.051V21.66c-1.001-.162-1.921-.646-2.631-1.374a4.99 4.99 0 0 1 0-6.966c.71-.727 1.63-1.212 2.631-1.39V9.91c-.71-.162-1.372-.517-1.889-1.051-1.485-1.503-1.485-3.927 0-5.447a3.72 3.72 0 0 1 5.262-.065c.032.016.048.048.064.065 1.485 1.519 1.485 3.927 0 5.447a3.85 3.85 0 0 1-1.889 1.051l.016 2.036zm9.831-1.358v-.016a1.7 1.7 0 0 0-1.049-.808c-.452-.129-.936-.065-1.34.178s-.694.63-.807 1.083a1.82 1.82 0 0 0 .177 1.358c.226.404.613.695 1.065.824s.92.065 1.324-.178h.016c.387-.242.678-.63.791-1.067a1.91 1.91 0 0 0-.178-1.374z" fill="#1971bd"/></svg>