<svg xmlns="http://www.w3.org/2000/svg" xmlns:xlink="http://www.w3.org/1999/xlink" width="14" height="14" viewBox="0 0 14 14">
  <defs>
    <clipPath id="clip-path">
      <rect id="Rectangle_2861" data-name="Rectangle 2861" width="14" height="14" transform="translate(-21173 16773)" fill="#fff"/>
    </clipPath>
  </defs>
  <g id="mariadbs" transform="translate(21173 -16773)" clip-path="url(#clip-path)">
    <g id="Group_9194" data-name="Group 9194" transform="translate(-21427.617 16418.15)">
      <path id="Path_20596" data-name="Path 20596" d="M268.061,356.974a2.31,2.31,0,0,1-.833.179c-1.176.107-1.641.455-2.465,1.856-1,1.7-1.381,1.979-3.656,2.715-1.943.634-2.194.736-2.638,1.084a4.285,4.285,0,0,0-.869.915c-.394.522-.481.583-.833.583a5.745,5.745,0,0,1-.7-.077,1.818,1.818,0,0,0-1.268.051c-.1.072-.189.148-.184.169a5.557,5.557,0,0,0,.762.573c.061.041.056.072-.041.2-.276.368-.368.532-.368.644s.02.123.245.123a2.5,2.5,0,0,0,.527-.072,9.634,9.634,0,0,0,1.861-.9c1.161-.747,1.544-.818,3.247-.614.465.056,1.007.1,1.212.1.358,0,.368-.005.511-.179a1.217,1.217,0,0,0,.21-.368,1.58,1.58,0,0,1,.271-.578,3.4,3.4,0,0,1-.317,1.4,6.26,6.26,0,0,1-.68,1.018l-.138.143h.194a2.858,2.858,0,0,0,1.161-.424,3.684,3.684,0,0,0,1.289-1.636.959.959,0,0,1,.189-.343.831.831,0,0,1,.005.337l-.036.343.169-.1a3.092,3.092,0,0,0,.982-1.125,11.3,11.3,0,0,0,.961-3.14c.179-.767.266-.885,1.125-1.524a1.36,1.36,0,0,0,.649-1.028c.046-.491-.066-.557-.547-.332Z" transform="translate(0 0)" fill="#0071bd"/>
    </g>
  </g>
</svg>
