<svg xmlns="http://www.w3.org/2000/svg" width="14" height="14" viewBox="0 0 14 14">
  <g id="Memcached" transform="translate(22551 -15809)">
    <rect id="Rectangle_1797" data-name="Rectangle 1797" width="14" height="14" transform="translate(-22551 15809)" fill="none"/>
    <g id="Group_2087" data-name="Group 2087" transform="translate(0 0.356)">
      <path id="Path_2779" data-name="Path 2779" d="M346.358,874.059a.74.74,0,1,1,.741.74A.74.74,0,0,1,346.358,874.059Zm3.157,0a.74.74,0,1,1,.74.74A.74.74,0,0,1,349.515,874.059Z" transform="translate(-22892.678 14947.364)" fill="#0071bd"/>
      <path id="Path_2780" data-name="Path 2780" d="M20.842,39.839H18.928a1.466,1.466,0,0,0-1.1.363,15.207,15.207,0,0,0-2.574,3.117A15.21,15.21,0,0,0,12.683,40.2a1.465,1.465,0,0,0-1.1-.363H9.673c-.871,0-1.415.7-1.415,2.722v7.49c0,1.372.479,2.635,1.154,2.635h2.416c1.04,0-.892-3.157-.892-6.423v-.936c0-1.067.23-2.057.784-1.611,1.894,1.524,1.807,6.075,2.776,6.075H16.02c.969,0,.882-4.551,2.776-6.075.554-.446.784.544.784,1.611v.936c0,3.266-1.933,6.423-.893,6.423H21.1c.676,0,1.154-1.263,1.154-2.635V42.56c0-2.025-.544-2.722-1.416-2.722Z" transform="translate(-22559.258 15769.305)" fill="#0071bd"/>
    </g>
  </g>
</svg>
