<svg width="32" height="32" viewBox="0 0 32 32" fill="none" xmlns="http://www.w3.org/2000/svg">
<path d="M7.24288 8.22379C11.4861 3.9254 18.3668 3.9254 22.61 8.22379C26.86 12.5221 26.86 19.4911 22.61 23.7824C18.3668 28.0737 11.4861 28.0737 7.24288 23.7753L0.307479 16.75C-0.102493 16.3342 -0.102493 15.6649 0.307479 15.2491L7.24288 8.22379ZM20.9633 10.2884C17.8475 7.13157 12.7911 7.13157 9.67537 10.2884L4.57804 15.4465C4.27738 15.7565 4.27738 16.2497 4.57804 16.5527L9.68213 21.7178C12.798 24.8746 17.8543 24.8746 20.9701 21.7178C24.0859 18.5609 24.0859 13.4452 20.9633 10.2884ZM15.3601 10.4928C18.3149 10.4928 20.7102 12.963 20.7102 16.0101C20.7102 19.0573 18.3149 21.5275 15.3601 21.5275C12.4053 21.5275 10.01 19.0573 10.01 16.0101C10.01 12.963 12.4053 10.4928 15.3601 10.4928ZM31.6977 15.2561L28.6434 12.1063C28.4588 11.916 28.1513 12.0923 28.2129 12.353C28.739 14.7557 28.739 17.2644 28.2129 19.6672C28.1582 19.9279 28.4656 20.0969 28.6434 19.9138L31.6977 16.764C32.0771 16.3661 32.0994 15.7498 31.7646 15.332L31.6977 15.2561Z" fill="#1971BD"/>
</svg>
