<svg xmlns="http://www.w3.org/2000/svg" width="14" height="14" viewBox="0 0 14 14">
  <g id="MongoDB" transform="translate(22551 -15758)">
    <rect id="Rectangle_1797" data-name="Rectangle 1797" width="14" height="14" transform="translate(-22551 15758)" fill="none"/>
    <g id="Group_2007" data-name="Group 2007" transform="translate(-22623.98 15293.13)">
      <g id="Group_2006" data-name="Group 2006" transform="translate(73.116 464.978)">
        <path id="Path_2720" data-name="Path 2720" d="M84.62,476.536a4.314,4.314,0,0,1-1.274-1.293,12.61,12.61,0,0,1-4.277.662c-3.288,0-5.954-.972-5.954-2.171v3.008c0,1.2,2.665,2.171,5.954,2.171,2.71,0,5-.66,5.716-1.564-.047-.287-.119-.636-.165-.813Z" transform="translate(-73.116 -465.02)" fill="#0071bd"/>
        <path id="Path_2721" data-name="Path 2721" d="M82.868,471.417a13.49,13.49,0,0,1-3.8.5c-3.288,0-5.954-.972-5.954-2.171v2.977c0,1.2,2.665,2.171,5.954,2.171a13.375,13.375,0,0,0,3.855-.517,4.755,4.755,0,0,1-.056-2.959Z" transform="translate(-73.116 -465.001)" fill="#0071bd"/>
        <path id="Path_2722" data-name="Path 2722" d="M83.422,469.974q.125-.258.272-.506A13.959,13.959,0,0,1,85,467.595l0,.016v-.016l.021.044v-.49c0-1.2-2.665-2.171-5.954-2.171s-5.954.972-5.954,2.171v1.581c0,1.2,2.665,2.172,5.954,2.172a12.751,12.751,0,0,0,4.215-.638q.066-.146.137-.29Zm2.978.7a3.722,3.722,0,0,0-.792-1.3,4.124,4.124,0,0,1-.546-.89v.013l0-.013A11.268,11.268,0,0,0,84.046,470q-.113.2-.21.409c-1.741,3.633.929,5.271.929,5.271a5.151,5.151,0,0,1,.16,1.027h.392l.063-1.051a6.222,6.222,0,0,0,1.235-1.745,5.165,5.165,0,0,0-.215-3.237Z" transform="translate(-73.116 -464.978)" fill="#0071bd"/>
      </g>
    </g>
  </g>
</svg>
