<svg xmlns="http://www.w3.org/2000/svg" width="33" height="33" fill="none" xmlns:v="https://vecta.io/nano"><g clip-path="url(#A)"><g clip-path="url(#B)" fill="#1971bd"><path d="M20.827 15.664l-5.876 1.93-5.112 2.27-1.43.38-1.159 1.059-1.199 1.01a8.94 8.94 0 0 0-1.164 1.162c-.404.509-.724 1.05-.862 1.466-.244.751-.124 1.51.346 2.212.604.894 1.808 1.805 3.211 2.426.715.317 1.919.724 2.825.952 1.506.384 4.419.8 6.023.862h.777c.036-.022.284-.5.573-1.095.986-2.024 1.697-3.923 2.083-5.545.231-.983.413-2.292.533-3.843a32.8 32.8 0 0 0 .018-2.377c-.04-.804-.111-1.457-.222-2.096-.018-.094-.022-.179-.013-.183.018-.013.071-.031.795-.241l-.146-.348h0 0 0zm-1.341.791c.053 0 .195 1.372.231 2.239.009.183.004.304-.005.304-.035 0-.751-.424-1.261-.746L17.03 17.3c-.044-.031-.04-.036.324-.161l2.132-.684zm-2.994.992c.04 0 .142.058.386.21.915.576 2.159 1.273 2.692 1.506.164.072.182.045-.195.304-.808.554-1.817 1.099-3.051 1.649l-.404.174c-.009 0 .018-.112.053-.246.298-1.113.466-2.239.475-3.141.004-.447.004-.447.044-.46zm-.617.237c.026.027.009 1.028-.027 1.3a11.43 11.43 0 0 1-.409 1.944l-.102.313c-.018.022-.626-.576-.826-.809-.347-.402-.617-.804-.817-1.198-.102-.201-.262-.594-.249-.608.071-.049 2.412-.961 2.43-.943zm-2.905 1.148c.022.013.053.085.08.165a6.05 6.05 0 0 0 .737 1.327 7.54 7.54 0 0 0 1.026 1.113l.218.188c.027.027.036.022-.688.299l-2.803.983-.751.246c-.04.013-.027-.009.089-.192.52-.818 1.31-2.422 1.754-3.557l.164-.438a.16.16 0 0 1 .098-.116l.076-.018zm-.888.371c.013.009-.213.487-.435.925l-1.532 2.685-.222.353c-.022.031-.031.022-.102-.116-.151-.299-.275-.684-.342-1.037s-.053-.956.022-1.332c.058-.277.053-.273.187-.34l2.425-1.139zm7.662.313v.188a24.52 24.52 0 0 1-.262 3.36l-.053.322-.28-.08a11.42 11.42 0 0 1-2.043-.88c-.431-.237-1.057-.626-1.039-.644.004-.004.191-.103.409-.219a26.12 26.12 0 0 0 2.43-1.434l.768-.559.071-.054zM8.728 20.838c.018 0 .013.036-.013.197a6.34 6.34 0 0 0-.049.478c-.036.652.071 1.135.391 1.796l.155.34a153.72 153.72 0 0 1-3.895 1.148l-.533.147c-.031.009-.035.005-.022-.071.102-.657.6-1.515 1.292-2.239.462-.482.831-.764 1.461-1.126l1.204-.666zm6.929 1.247c.004-.005.111.054.24.13.95.554 2.274 1.068 3.402 1.331l.102.022-.142.08c-.591.331-2.532 1.144-4.517 1.89l-.626.237c-.053.022-.102.036-.102.031a9.31 9.31 0 0 1 .182-.353c.555-1.046 1.115-2.319 1.399-3.204l.062-.165zm-.706.232c.005.005-.031.098-.075.206-.386.943-.893 1.971-1.541 3.123l-.306.532a7.96 7.96 0 0 1-.297-.179c-.942-.581-1.777-1.296-2.323-1.988l-.08-.098.404-.112c1.448-.398 2.678-.827 3.9-1.354l.32-.13zm4.388 1.541c.004.103-.222 1.023-.409 1.689l-.533 1.769-.204.621c-.005 0-.031-.004-.058-.013-1.319-.241-2.501-.577-3.611-1.023l-.782-.348c-.009-.009.258-.134.595-.282l4.837-2.332a.56.56 0 0 1 .164-.08zm-10.131.349c.009.009-.555.827-1.346 1.939l-.715 1.014-.404.599-.187.29-.2-.17a7.51 7.51 0 0 1-.826-.849c-.382-.478-.64-.983-.742-1.443-.049-.215-.049-.322-.005-.335l2.363-.559 1.59-.375.471-.112zm.568.219l.142.161a8.35 8.35 0 0 0 2.083 1.716c.142.08.249.152.24.156-.031.022-2.745.992-4.002 1.43l-1.292.451c-.004 0-.044-.027-.089-.058l-.08-.058.129-.188c.417-.608.942-1.273 2.083-2.659l.786-.952zm3.544 2.551c.004-.004.2.067.44.157.577.219 1.035.357 1.648.514.755.192 1.848.38 2.492.433.098.009.151.018.133.031a30.28 30.28 0 0 1-1.164.389l-4.997 1.483-.671.192c-.044.009-.191-.031-.191-.049a3.37 3.37 0 0 1 .235-.299 26.15 26.15 0 0 0 1.803-2.44l.271-.411zm-.782.022c.004.004-.311.514-.862 1.39l-.591.938-.298.491-.129.228-.067-.018a36.45 36.45 0 0 1-1.581-.563c-.369-.147-.751-.326-1.035-.478-.355-.192-.799-.478-.764-.487.009-.004.617-.17 1.35-.371l3.731-1.063.244-.067zm5.53 1.305h.004c.018.045-.702 2.055-.964 2.69-.058.143-.08.179-.111.174a85.8 85.8 0 0 1-1.754-.246l-3.429-.603-.107-.022.662-.152 2.798-.71a19.7 19.7 0 0 0 2.616-1.014l.284-.116zm-3.299-26.42c-.098-.013-1.674.559-2.692.974-1.372.563-2.438 1.099-3.096 1.564-.244.174-.551.483-.6.603a.42.42 0 0 0-.027.152l.595.567 1.417.456 3.371.608 3.855.666.04-.335c-.013 0-.022-.004-.036-.004l-.506-.08-.102-.183-1.439-2.86c-.262-.603-.511-1.3-.649-1.801-.075-.304-.084-.322-.133-.326h0 0 0zm-.071.228h.005c.004.004.022.13.04.277a9.38 9.38 0 0 0 .431 1.881c.164.492.164.465-.027.407-.453-.125-2.483-.478-3.953-.684l-.435-.067c-.018-.018 1.061-.585 1.537-.809l2.403-1.005zm-4.282 2.002l.173.058c.941.322 3.309.778 4.615.885l.275.027c.004.004-.12.071-.28.147l-1.803 1.005c-.142.089-.271.161-.289.161s-.111-.018-.209-.031l-.178-.027-.444-.438-1.63-1.577-.231-.21zm-.178.138l.626.786.764.952.133.174c-.018.013-.906-.161-1.377-.268l-.982-.259-.244-.08v-.063c.004-.299.382-.746 1.022-1.202l.058-.04zm5.321 1.072c.018 0 .04.04.093.161.151.335.622 1.238.737 1.412.036.058.098.063-.529-.04l-1.99-.335a.46.46 0 0 1 .102-.067 8.67 8.67 0 0 0 1.355-.943l.213-.179z"/><path d="M8.413 4.962s-.098.156-.004.389c.058.143.227.317.417.496l2.216 2.216c1.093 1.269 1.568 2.52 1.612 4.245.027 1.108-.182 2.082-.702 3.213-.924 2.029-2.874 4.267-5.881 6.752l.44-.148c.284-.215.671-.442 1.577-.943 2.092-1.153 4.446-2.212 7.333-3.302 4.157-1.573 10.993-3.414 14.883-4.013l.404-.063-.062-.098c-.355-.554-.6-.898-.893-1.264-.853-1.063-1.888-1.926-3.153-2.641-1.741-.979-3.993-1.743-6.844-2.31-.537-.107-1.719-.313-2.678-.46l-4.797-.786-1.812-.335c-.267-.058-.777-.179-1.177-.317-.32-.125-.782-.25-.879-.63zm1.146 1.117c.004-.004.075.022.169.054a11.48 11.48 0 0 0 .644.197l.586.156.493.13c.031.031.48 1.474.631 2.029.058.21.102.389.098.389a.9.9 0 0 1-.111-.174c-.52-.92-1.341-1.854-2.292-2.605-.124-.089-.218-.17-.218-.174zm2.185.608c.022 0 .12.013.24.04.755.17 2.11.429 2.976.576.147.022.262.049.262.058s-.053.04-.12.076a16.11 16.11 0 0 0-.933.563c-.493.331-.937.688-1.257 1.01l-.24.237s-.027-.076-.049-.17a14.54 14.54 0 0 0-.795-2.189 1.92 1.92 0 0 1-.089-.205zm3.846.737c.027.009.071.161.16.496a7.36 7.36 0 0 1 .213 2.047c-.009.188-.018.362-.027.384l-.013.045-.231-.076c-.475-.152-1.248-.38-1.91-.567-.378-.103-.684-.197-.684-.206 0-.027.551-.581.786-.791.448-.398 1.665-1.345 1.706-1.332zm.306.045c.013-.013 1.839.304 2.669.465l1.568.331c.027.009-.067.063-.364.197-1.172.532-2.043 1.01-2.909 1.591l-.422.277c-.004 0-.009-.13-.009-.286 0-.849-.169-1.707-.48-2.431-.031-.072-.058-.139-.053-.143zm4.721.938c.013.013-.044.375-.098.59-.16.666-.591 1.653-1.119 2.583-.093.165-.178.299-.187.304s-.129-.063-.267-.143c-.515-.304-1.101-.59-1.741-.858-.178-.076-.333-.139-.338-.147-.031-.027 1.399-.979 2.154-1.434.6-.366 1.577-.912 1.595-.894zm.338.054c.04 0 .848.223 1.27.349 1.044.313 2.243.755 3.025 1.113l.324.147-.226.054c-1.91.442-3.544.952-5.121 1.595a3.3 3.3 0 0 1-.253.098c-.009 0 .035-.103.093-.228.475-1.014.782-2.073.857-2.976.005-.085.018-.152.031-.152zm-8.048 1.859c.013-.013.631.134.964.228.506.143 1.581.505 1.581.532 0 .004-.12.107-.262.232-.582.487-1.141 1.001-1.812 1.653-.2.192-.369.349-.377.349s-.013-.027-.009-.063c.102-.751.08-1.716-.062-2.694-.013-.125-.027-.232-.022-.237zm12.974.013c.009.009-.284.474-.471.737-.267.384-.657.894-1.541 2.011l-1.164 1.479-.329.411c-.004 0-.062-.08-.124-.179-.498-.751-1.093-1.408-1.799-1.997l-.329-.268a.5.5 0 0 1-.089-.076c0-.013.755-.34 1.328-.572a45.31 45.31 0 0 1 3.398-1.22c.537-.17 1.11-.335 1.119-.326zm.342.089c.018-.004.124.049.253.125 1.079.621 2.136 1.421 2.971 2.243.235.232.817.84.808.845l-.444.036c-1.87.143-4.264.541-6.565 1.099l-.302.067a6.34 6.34 0 0 1 .382-.384c1.35-1.309 1.968-2.136 2.696-3.61l.2-.42zm-9.891 1.019c.062.013.64.286 1.075.505.4.201.999.523 1.031.55a6.28 6.28 0 0 1-.471.246c-.835.42-1.55.818-2.296 1.273l-.395.237c-.018 0-.013-.018.107-.237a9.37 9.37 0 0 0 .902-2.462c.018-.067.035-.112.049-.112zm-.577.107c.013.013-.138.563-.231.862-.182.568-.489 1.278-.786 1.814l-.236.411-.111.179-.249-.241c-.289-.281-.524-.456-.826-.612-.12-.062-.213-.116-.213-.125 0-.036.76-.728 1.341-1.229.418-.362 1.297-1.072 1.31-1.059zm3.531 1.461l.218.143a16.89 16.89 0 0 1 1.532 1.139c.253.21.742.652.839.76l.053.058-.36.103c-2.034.567-3.607 1.072-5.441 1.752-.204.076-.378.139-.391.139-.027 0-.049.022.409-.402 1.173-1.086 2.212-2.283 2.985-3.449l.155-.241zm-.928.232c.009.009-.6.871-.964 1.358-.435.581-1.208 1.555-1.741 2.189l-.422.487c-.013.005-.018-.062-.018-.165 0-.541-.138-1.117-.378-1.609-.102-.206-.12-.255-.098-.277.084-.076 1.377-.818 2.194-1.26.551-.295 1.412-.733 1.426-.724zm-5.614 1.385c.013 0 .116.054.231.116a4.88 4.88 0 0 1 .764.518c.009.009-.107.103-.258.214a41.38 41.38 0 0 0-1.434 1.09c-.391.313-.404.322-.36.255.293-.451.44-.706.595-1.032.138-.29.275-.634.373-.934.035-.13.08-.228.089-.228zm1.497 1.18c.022-.004.049.036.169.215.253.38.449.889.498 1.3l.009.089-.608.237c-1.088.424-2.092.845-2.772 1.157l-.742.358c-.218.112-.395.197-.395.192s.138-.107.306-.232c1.328-.969 2.478-2.033 3.34-3.096l.186-.219h.009zm-.688.17c.018.018-.489.594-.835.947-.857.88-1.705 1.569-2.758 2.239l-.266.17c-.031.018.009-.027.471-.532.293-.317.515-.585.768-.916.169-.219.2-.25.444-.425.653-.474 2.159-1.501 2.176-1.483z"/></g></g><defs><clipPath id="A"><path fill="#fff" transform="translate(.458 .947)" d="M0 0h32v32H0z"/></clipPath><clipPath id="B"><path fill="#fff" transform="translate(1.364 1.198)" d="M0 0h30.354v31.228H0z"/></clipPath></defs></svg>