<svg xmlns="http://www.w3.org/2000/svg" width="14" height="14" viewBox="0 0 14 14">
  <g id="MySQL" transform="translate(22551 -15736)">
    <rect id="Rectangle_1797" data-name="Rectangle 1797" width="14" height="14" transform="translate(-22551 15736)" fill="none"/>
    <g id="Group_2005" data-name="Group 2005" transform="translate(-22623.99 15292.805)">
      <g id="Group_2004" data-name="Group 2004" transform="translate(72.991 444.449)">
        <path id="Path_2717" data-name="Path 2717" d="M80.068,446.055a.444.444,0,0,0-.491.261c-.192.381.145.809.26,1.023a3.031,3.031,0,0,1,.237.486c.034.109.031.213.058.328a7.741,7.741,0,0,0,.212.849,2.971,2.971,0,0,0,.167.393c.04.074.119.114.121.222a1.828,1.828,0,0,0-.176.444,2.841,2.841,0,0,0-.042,2.054c.074.165.253.517.557.42.266-.085.245-.436.35-.734.023-.067.018-.12.055-.163l0,.014c.061.175.121.351.182.525a3.287,3.287,0,0,0,.649.891,4.913,4.913,0,0,0,.377.4c.275.216.1.277,2.1,1.24.023.022.791.367,1.2.546a7.406,7.406,0,0,0,1.1.36V455.6c-.036-.061-.041-.141-.074-.2l-.145-.2a2.862,2.862,0,0,0-.532-.669c-.162-.154-.539-.38-.59-.608l-.012-.016a2.592,2.592,0,0,0,.4-.056c.2-.035.371-.005.577-.04l.279-.054.006-.055c-.09-.122-.147-.278-.248-.391a8.355,8.355,0,0,0-.851-.842c-.167-.141-.38-.242-.56-.365-.06-.041-.171-.072-.207-.135a3.053,3.053,0,0,1-.185-.494c-.127-.352-.25-.732-.357-1.1a5.867,5.867,0,0,0-.214-.721,5.945,5.945,0,0,0-1.959-2.5,2.537,2.537,0,0,0-.694-.323l-.424-.071c-.083-.047-.161-.171-.237-.234a2.013,2.013,0,0,0-.894-.477h0Zm1.339,1.1c.093.008.143.093.213.158a.5.5,0,0,1-.227.759,1.938,1.938,0,0,0-.273-.65c-.174-.141.052-.322.243-.266a.222.222,0,0,1,.044,0Zm1.053,6.882a1.244,1.244,0,0,0-.115-.1,2.227,2.227,0,0,1-.3-.312c-.044-.053-.087-.1-.134-.151s-.119-.124-.177-.188a9.934,9.934,0,0,1-3.788.65c-2.736,0-4.953-.817-4.953-1.825v2.19c0,1.008,2.217,1.825,4.953,1.825,2.669,0,4.839-.778,4.943-1.752a2.265,2.265,0,0,1-.427-.334Z" transform="translate(-72.991 -444.449)" fill="#0071bd"/>
        <path id="Path_2718" data-name="Path 2718" d="M79.893,452.351a3.181,3.181,0,0,1-.145-1.825,12.651,12.651,0,0,1-1.8.127c-2.736,0-4.953-.817-4.953-1.824v2.189c0,1.008,2.217,1.825,4.953,1.825a12.44,12.44,0,0,0,2.13-.179,1.645,1.645,0,0,1-.181-.313Z" transform="translate(-72.991 -444.449)" fill="#0071bd"/>
        <path id="Path_2719" data-name="Path 2719" d="M79.808,448.926a5.372,5.372,0,0,1-.183-.7c-.018-.087-.038-.173-.058-.259-.015-.065-.023-.127-.031-.188a.885.885,0,0,0-.026-.151,2.307,2.307,0,0,0-.178-.372l-.062-.112c-.018-.033-.041-.072-.067-.115a1.311,1.311,0,0,1-.221-1.259.773.773,0,0,1,.819-.436,2.447,2.447,0,0,1,1.122.584,1.136,1.136,0,0,1,.135.14c.018.02.041.047.061.067l.444.079.1.037a2.563,2.563,0,0,1,.734.358c.171.135.338.275.5.422v-.747c0-1.008-2.217-1.825-4.953-1.825s-4.953.817-4.953,1.825v1.46c0,1.007,2.217,1.825,4.953,1.825a12.465,12.465,0,0,0,2.062-.168,3.512,3.512,0,0,1-.2-.465Z" transform="translate(-72.991 -444.449)" fill="#0071bd"/>
      </g>
    </g>
  </g>
</svg>
