<svg width="32" height="32" viewBox="0 0 32 32" fill="none" xmlns="http://www.w3.org/2000/svg">
<g clip-path="url(#clip0)">
<path d="M16.1829 6.68001C15.9561 6.63091 15.7192 6.66364 15.5142 6.77241C15.3092 6.88117 15.1493 7.05896 15.0629 7.27429C14.6057 8.14286 15.3829 9.12572 15.6571 9.56001C15.8688 9.91514 16.0449 10.2903 16.1829 10.68C16.1829 10.9314 16.1829 11.16 16.32 11.4114C16.48 12.0514 16.5943 12.76 16.8 13.3543C16.9059 13.6686 17.0358 13.9742 17.1886 14.2686C17.1886 14.4286 17.4629 14.52 17.4629 14.7714C17.2925 15.0894 17.162 15.4272 17.0743 15.7772C16.4828 17.2909 16.4828 18.9719 17.0743 20.4857C17.2571 20.8514 17.6686 21.6514 18.3543 21.4457C19.04 21.24 18.9257 20.44 19.1543 19.7543C19.1543 19.6171 19.1543 19.48 19.2914 19.3886C19.4286 19.8 19.5657 20.1886 19.7257 20.6C20.1047 21.3499 20.5983 22.0363 21.1886 22.6343C21.4857 22.9086 21.7143 23.2743 22.0571 23.5486C22.4 23.8229 22.2857 24.1886 26.88 26.3829C26.88 26.3829 28.6857 27.2286 29.6229 27.64C30.4379 27.9803 31.2786 28.2555 32.1371 28.4629C32.1371 28.3029 32.1371 28.12 31.9771 27.9829L31.6343 27.5257C31.3078 26.9654 30.8995 26.4569 30.4229 26.0171C30.0571 25.6514 29.1886 25.1257 29.0743 24.6229C29.3814 24.6074 29.687 24.5692 29.9886 24.5086C30.4457 24.5086 30.8343 24.5086 31.2914 24.5086L31.9314 24.3714V24.1657C31.7596 23.857 31.5688 23.5593 31.36 23.2743C30.7166 22.5611 30.0214 21.8964 29.28 21.2857C28.8673 20.9902 28.4401 20.7156 28 20.4629C27.8629 20.4629 27.6114 20.3029 27.52 20.1429C27.3506 19.7743 27.213 19.392 27.1086 19C26.8114 18.2 26.5371 17.3314 26.2857 16.4857C26.1636 15.9268 26.0032 15.3769 25.8057 14.84C24.8357 12.5515 23.254 10.5745 21.2343 9.12572C20.7419 8.80078 20.2022 8.55405 19.6343 8.39429L18.6743 8.23429C18.4914 8.23429 18.3086 7.82286 18.1257 7.68572C17.5503 7.16007 16.85 6.79026 16.0914 6.61143L16.1829 6.68001ZM19.2457 9.19429C19.4514 9.19429 19.5657 9.40001 19.7257 9.56001C19.8282 9.70249 19.8965 9.86667 19.9253 10.0398C19.9541 10.2129 19.9426 10.3904 19.8918 10.5584C19.841 10.7264 19.7521 10.8804 19.6321 11.0085C19.5122 11.1366 19.3643 11.2354 19.2 11.2971C19.089 10.7819 18.8794 10.2929 18.5829 9.85715C18.1943 9.53715 18.5829 9.12572 19.1314 9.24001L19.2457 9.19429ZM21.6457 24.92L21.3714 24.6914C21.1198 24.4787 20.8901 24.2413 20.6857 23.9829C20.6035 23.8343 20.5037 23.6962 20.3886 23.5714L19.9771 23.1372C17.2548 24.2026 14.3517 24.7304 11.4286 24.6914C5.07429 24.6914 0 22.8172 0 20.5086V25.5143C0 27.8 5.07429 29.6972 11.4286 29.6972C17.7829 29.6972 22.4914 27.9143 22.8571 25.6972C22.4977 25.4811 22.1674 25.2199 21.8743 24.92H21.6457Z" fill="#1971BD"/>
<path d="M15.7714 21.0571C15.2552 19.7328 15.1438 18.2849 15.4514 16.8971C14.1183 17.0803 12.7742 17.172 11.4286 17.1714C5.07429 17.1714 0 15.32 0 13.0114V18.0171C0 20.3029 5.07429 22.1771 11.4286 22.1771C13.0595 22.1848 14.6881 22.0548 16.2971 21.7886C16.1061 21.5565 15.9304 21.3122 15.7714 21.0571Z" fill="#1971BD"/>
<path d="M15.5886 13.24C15.412 12.7158 15.267 12.1815 15.1543 11.64C15.1672 11.4421 15.1672 11.2436 15.1543 11.0457C15.134 10.9017 15.134 10.7555 15.1543 10.6114V10.2686C15.0452 9.97388 14.9074 9.69061 14.7429 9.42286L14.3543 9.17143C14.3096 9.07525 14.256 8.98342 14.1943 8.89714C13.8809 8.49498 13.6728 8.02094 13.589 7.51802C13.5052 7.0151 13.5483 6.49921 13.7143 6.01714C13.8738 5.67405 14.1409 5.3924 14.4751 5.215C14.8092 5.0376 15.1922 4.97414 15.5657 5.03429C16.5243 5.23355 17.4098 5.69212 18.1257 6.36C18.238 6.46088 18.3448 6.5677 18.4457 6.68L18.5829 6.84L19.5886 7.02286H19.8171C20.4201 7.20809 20.9907 7.48567 21.5086 7.84571C21.8971 8.14286 22.2629 8.48571 22.6514 8.80571V7.16C22.6514 4.87429 17.5771 3 11.4286 3C5.28 3 0 4.87429 0 7.16V10.4971C0 12.7829 5.07429 14.68 11.4286 14.68C12.9605 14.677 14.4895 14.547 16 14.2914C15.815 13.9561 15.6619 13.604 15.5429 13.24H15.5886Z" fill="#1971BD"/>
</g>
<defs>
<clipPath id="clip0">
<rect width="32" height="32" fill="white"/>
</clipPath>
</defs>
</svg>
