<svg xmlns="http://www.w3.org/2000/svg" width="33" height="33" fill="none" xmlns:v="https://vecta.io/nano"><g clip-path="url(#A)"><g clip-path="url(#B)"><path fill-rule="evenodd" d="M16.448 2.133h14.52v11.684.114 11.684h-9.551v6.526L16.523 27.6v.024l-2.147-2.009H1.927V13.931h0V2.133h14.52v9.505l-4.43-4.142H6.573v12.64h3.482v-9.95l6.392 5.983v9.38h.001v-9.379l4.226 3.956h5.261V7.497h-3.471v9.767l-6.015-5.624V2.133zm0 9.506l-.001-.001v2.178h0v2.354h.001v-2.24-.114-2.177z" fill="#1971bd"/></g></g><defs><clipPath id="A"><path fill="#fff" transform="translate(.724 .947)" d="M0 0h32v32H0z"/></clipPath><clipPath id="B"><path fill="#fff" transform="translate(.724 .511)" d="M0 0h31.446v32.319H0z"/></clipPath></defs></svg>