<svg xmlns="http://www.w3.org/2000/svg" width="33" height="33" fill="none" xmlns:v="https://vecta.io/nano"><g clip-path="url(#A)"><g fill="#231f20"><path d="M6.437 13.539c-1.75 0-2.92 1.016-2.92 2.994v1.408a1.28 1.28 0 0 1 .565-.129c.203 0 .397.05.57.134v-1.413c0-1.279.704-1.938 1.785-1.938s1.785.659 1.785 1.938v3.078h1.135v-3.078c0-1.988-1.175-2.994-2.92-2.994zm3.54 3.113c0-1.795 1.319-3.113 3.182-3.113s3.163 1.319 3.163 3.113v.421h-5.15c.168 1.056.957 1.641 1.988 1.641.768 0 1.304-.238 1.651-.754h1.259c-.456 1.101-1.532 1.809-2.91 1.809-1.869-.005-3.182-1.319-3.182-3.118zm5.145-.595c-.228-.947-1.006-1.462-1.963-1.462s-1.725.525-1.953 1.462h3.916zm1.809.595c0-1.795 1.319-3.113 3.182-3.113s3.182 1.319 3.182 3.113-1.319 3.113-3.182 3.113-3.182-1.314-3.182-3.113zm5.215 0c0-1.2-.813-2.057-2.037-2.057s-2.037.862-2.037 2.057.813 2.057 2.037 2.057 2.037-.858 2.037-2.057zm7.654 4.132h.134c.729 0 1.006-.322 1.006-1.16v-5.889h1.135v5.815c0 1.462-.575 2.216-2.037 2.216H29.8v-.981zm-.57-.603h-1.135v-1.403H25.21c-.575 0-1.076-.282-1.304-.734-.213-.426-.154-.927.154-1.348l2.593-3.401a1.41 1.41 0 0 1 1.596-.506 1.41 1.41 0 0 1 .982 1.353v3.624h.853v1.011h-.853v1.403zm-4.213-2.865c-.035.045-.055.104-.055.169 0 .159.129.288.287.288h2.85V14.12c0-.188-.139-.258-.198-.278-.025-.005-.059-.015-.104-.015-.069 0-.154.025-.228.119l-2.553 3.371z"/></g><g fill="#014063"><path d="M.826 16.705a.96.96 0 0 0-.387.362c-.099.164-.139.337-.124.511a.92.92 0 0 0 .471.758c.263.149.56.114.843.05.347-.089.644-.124.957.064.55.312.55 1.096.015 1.408-.327.188-.625.149-.972.064-.273-.074-.57-.114-.843.049a.96.96 0 0 0-.471.759c-.015.174.025.347.124.511s.223.287.387.362c.273.139.61.139.892-.025.263-.149.387-.436.461-.709.099-.347.213-.625.535-.798.312-.188.61-.149.957-.064.273.074.57.114.843-.049a.96.96 0 0 0 .471-.758v-.064-.064a.92.92 0 0 0-.471-.759c-.263-.149-.56-.114-.843-.05-.347.089-.644.124-.957-.064s-.436-.451-.535-.798c-.074-.273-.198-.55-.461-.709-.288-.119-.62-.119-.892.015zm30.684-5.383c-.535 0-.972.436-.972.971s.436.972.972.972.972-.436.972-.972-.436-.971-.972-.971z"/></g></g><defs><clipPath id="A"><path fill="#fff" transform="translate(.312 .435)" d="M0 0h32v32H0z"/></clipPath></defs></svg>