<svg xmlns="http://www.w3.org/2000/svg" width="33" height="33" fill="none" xmlns:v="https://vecta.io/nano"><path d="M21.782 3c-5.937 0-9.906 3.448-9.906 10.159v4.776c.589-.286 1.228-.437 1.917-.437a4.42 4.42 0 0 1 1.934.454v-4.793c0-4.339 2.388-6.576 6.055-6.576s6.055 2.237 6.055 6.576v10.444h3.851V13.159C31.688 6.414 27.702 3 21.782 3z" fill="#231f20"/><path d="M2.743 13.745c-.505.252-.975.673-1.312 1.228a2.83 2.83 0 0 0-.42 1.732c.05 1.06.639 2.035 1.598 2.573.891.505 1.901.387 2.859.168 1.177-.303 2.186-.421 3.246.219h.05c1.816 1.06 1.816 3.717 0 4.776h-.05c-1.06.639-2.069.505-3.246.219-.925-.252-1.934-.387-2.859.168-.975.555-1.514 1.564-1.598 2.573a2.83 2.83 0 0 0 .42 1.732c.336.555.757.976 1.312 1.228.925.471 2.069.471 3.027-.084.891-.505 1.312-1.48 1.564-2.405.336-1.177.723-2.119 1.816-2.708 1.06-.639 2.069-.505 3.246-.219.925.252 1.934.387 2.859-.168.976-.555 1.514-1.564 1.598-2.573v-.219-.219c-.05-1.059-.639-2.035-1.598-2.573-.891-.505-1.9-.387-2.859-.168-1.177.303-2.186.421-3.246-.219s-1.48-1.53-1.816-2.708c-.252-.925-.673-1.867-1.564-2.405-.975-.404-2.102-.404-3.027.05z" fill="#014063"/></svg>