<svg width="32" height="32" viewBox="0 0 32 32" fill="none" xmlns="http://www.w3.org/2000/svg">
<path d="M21.482 1H21.5352C15.2394 1 11.0068 4.62643 11.0068 11.7623V16.1119C11.6565 15.8297 12.3519 15.6676 13.0594 15.6334C13.7776 15.6045 14.4903 15.7699 15.1224 16.1119V11.7623C15.1224 7.16813 17.6641 4.74342 21.5033 4.74342C25.3424 4.74342 27.8843 7.16813 27.8843 11.7623V22.8863H31.9999V11.7623C31.9999 4.62643 27.746 1 21.482 1Z" fill="#1971BD"/>
<path d="M12.8256 17.6855C12.0696 17.6463 11.3286 17.9061 10.7625 18.4087L6.89143 15.8775C6.99557 15.5662 7.0389 15.2377 7.01904 14.9098C7.02335 13.4895 6.17102 12.2065 4.85998 11.6599C3.54892 11.1134 2.03769 11.4111 1.03179 12.4138C0.0258785 13.4167 -0.276332 14.927 0.266236 16.2397C0.808811 17.5525 2.08916 18.4087 3.50957 18.4087C4.26296 18.4522 5.00233 18.1917 5.56208 17.6855L9.43314 20.3442C9.33736 20.6574 9.29775 20.985 9.31615 21.312C9.29661 21.6389 9.33623 21.9668 9.43314 22.2798L5.56208 24.949C4.98218 24.4765 4.25761 24.2175 3.50957 24.2153C2.09013 24.2153 0.810446 25.0703 0.267243 26.3817C-0.275956 27.6931 0.0243056 29.2026 1.02801 30.2063C2.03171 31.2101 3.54119 31.5103 4.85259 30.9671C6.16398 30.4238 7.01904 29.1442 7.01904 27.7247C7.0397 27.397 6.99635 27.0682 6.89143 26.757L10.7625 24.0983C11.3463 24.57 12.0751 24.8255 12.8256 24.8215C13.7554 24.8215 14.6469 24.4513 15.3034 23.7929C15.9599 23.1345 16.3273 22.2418 16.3246 21.312C16.3369 19.3534 14.7833 17.7432 12.8256 17.6855Z" fill="#1971BD"/>
</svg>
