<svg xmlns="http://www.w3.org/2000/svg" width="32" height="33" fill="none" xmlns:v="https://vecta.io/nano"><g clip-path="url(#A)"><g clip-path="url(#B)"><path d="M64.512 18.706h9.735l-5.142-8.324-9.454 15.034h-4.299L66.85 7.379a2.74 2.74 0 0 1 .971-.859c.388-.204.818-.313 1.256-.316s.87.099 1.261.298.728.488.983.845l11.53 18.069h-4.299l-2.025-3.361h-9.85l-2.146-3.349m44.67 3.349V6.387h-3.654v17.211a1.77 1.77 0 0 0 .14.696c.094.22.23.419.403.584a1.84 1.84 0 0 0 1.328.557h16.608l2.166-3.361h-17.011m-60.389-2.817a6.41 6.41 0 0 0 4.539-1.885 6.44 6.44 0 0 0 0-9.1 6.41 6.41 0 0 0-4.539-1.885H32.823v19.029h3.647V9.755h12.098a3.07 3.07 0 0 1 2.173.902c.576.578.9 1.361.9 2.178s-.324 1.6-.9 2.178a3.07 3.07 0 0 1-2.173.902H38.278l10.897 9.502h5.295l-7.32-6.16h1.642zm-38.403 6.16h11.032a9.48 9.48 0 0 0 6.552-2.871c1.727-1.777 2.694-4.159 2.694-6.64s-.967-4.863-2.694-6.64a9.48 9.48 0 0 0-6.552-2.871H10.389a9.47 9.47 0 0 0-3.707.652A9.49 9.49 0 0 0 3.519 9.09c-.908.886-1.629 1.946-2.122 3.117s-.746 2.428-.746 3.698.254 2.528.746 3.698 1.214 2.23 2.122 3.117a9.49 9.49 0 0 0 3.163 2.045c1.18.463 2.441.685 3.707.652zm10.783-3.349h-10.54a6.14 6.14 0 0 1-4.216-1.872c-1.11-1.149-1.73-2.685-1.73-4.285s.621-3.136 1.73-4.285a6.14 6.14 0 0 1 4.216-1.872h10.54a6.13 6.13 0 0 1 2.412.41c.768.297 1.469.747 2.061 1.321a6.16 6.16 0 0 1 1.383 2.022c.321.76.487 1.577.487 2.403s-.166 1.643-.487 2.403a6.16 6.16 0 0 1-1.383 2.022c-.592.574-1.293 1.024-2.061 1.321a6.13 6.13 0 0 1-2.412.41zm69.3 3.349h11.261l2.134-3.349H90.721a6.13 6.13 0 0 1-2.412-.41c-.768-.297-1.469-.747-2.061-1.321a6.16 6.16 0 0 1-1.383-2.022 6.17 6.17 0 0 1 0-4.806 6.16 6.16 0 0 1 1.383-2.022c.592-.574 1.293-1.023 2.061-1.321a6.13 6.13 0 0 1 2.412-.41h10.699l2.159-3.361H90.472a9.47 9.47 0 0 0-3.707.652 9.49 9.49 0 0 0-3.163 2.045c-.908.886-1.629 1.946-2.121 3.117a9.53 9.53 0 0 0 0 7.396c.493 1.17 1.214 2.23 2.121 3.117a9.49 9.49 0 0 0 3.163 2.045c1.18.463 2.441.685 3.707.652zm44.631-3.349c-1.339 0-2.641-.437-3.708-1.246s-1.843-1.945-2.207-3.236h15.598l2.147-3.355h-17.745a6.15 6.15 0 0 1 2.206-3.237 6.13 6.13 0 0 1 3.709-1.245h10.705l2.14-3.361h-13.094c-2.474.064-4.826 1.095-6.553 2.871s-2.693 4.159-2.693 6.64.966 4.863 2.693 6.64 4.079 2.807 6.553 2.871h11.261l2.14-3.349h-13.159" fill="#1971bd"/></g></g><defs><clipPath id="A"><path fill="#fff" transform="translate(-.01 .199)" d="M0 0h32v32H0z"/></clipPath><clipPath id="B"><path fill="#fff" transform="translate(.24 6.127)" d="M0 0h31.446v19.872H0z"/></clipPath></defs></svg>