<svg xmlns="http://www.w3.org/2000/svg" xmlns:xlink="http://www.w3.org/1999/xlink" width="14" height="14" viewBox="0 0 14 14">
  <defs>
    <clipPath id="clip-path">
      <rect id="Rectangle_2863" data-name="Rectangle 2863" width="14" height="14" transform="translate(-20936 16895)" fill="#fff"/>
    </clipPath>
  </defs>
  <g id="perconaxtradbs" transform="translate(20936 -16895)" clip-path="url(#clip-path)">
    <g id="Group_9195" data-name="Group 9195" transform="translate(-18083.697 16806.482)">
      <path id="Path_20597" data-name="Path 20597" d="M-2847.955,100.762a1.728,1.728,0,0,0,.229.152.863.863,0,0,0,.53.042,1.5,1.5,0,0,0,.821-.492c.009-.01.016-.022.032-.042l-.215.07a1.878,1.878,0,0,1-.556.095.838.838,0,0,1-.746-.426c-.024-.037-.047-.074-.075-.119l-.07.094a3.817,3.817,0,0,1-1.052.956c-.073.046-.146.092-.218.14a.064.064,0,0,1-.083,0,7.277,7.277,0,0,1-.741-.607,6.926,6.926,0,0,1-.915-1.047,6.838,6.838,0,0,1-.513-.839,6.125,6.125,0,0,1-.441-1.062c-.07-.236-.132-.475-.189-.715a4.988,4.988,0,0,1-.132-.96c-.011-.269-.017-.538-.012-.807,0-.178.028-.356.048-.533.015-.133.032-.267.059-.4.039-.193.079-.387.133-.576.067-.237.14-.473.227-.7a6.775,6.775,0,0,1,1-1.761,7.007,7.007,0,0,1,1.683-1.553,7.21,7.21,0,0,1,1.4-.711.1.1,0,0,1,.107.015,3.532,3.532,0,0,1,.793.819c.018.027.034.056.054.091a4.353,4.353,0,0,0-.965.474c.067-.02.135-.044.2-.061.2-.05.392-.108.592-.142a5.425,5.425,0,0,1,.669-.072,3.968,3.968,0,0,1,.508.029,2.287,2.287,0,0,1,.56.132,2.721,2.721,0,0,1,.876.505c.186.16.36.333.541.5.021.02.045.038.075.063a1.357,1.357,0,0,0-.01-.7l.016-.011c.068.039.139.073.2.116a2.758,2.758,0,0,1,.584.551,5.45,5.45,0,0,1,.715,1.092c.045.09.083.183.126.281a1.219,1.219,0,0,0,.2-1.006.732.732,0,0,1,.078.045,1.633,1.633,0,0,1,.458.589,1.875,1.875,0,0,1,.165.5,1.916,1.916,0,0,1,.009.7c-.02.107-.04.214-.06.322l-.019.006a.28.28,0,0,1-.03-.045,2.25,2.25,0,0,0-.4-.663c-.043-.048-.093-.09-.15-.145a.562.562,0,0,0,.017.054,3.753,3.753,0,0,1,.26.869,6.746,6.746,0,0,1,.1,1,8.3,8.3,0,0,1-.047,1.091c-.022.211-.052.421-.093.628a4.521,4.521,0,0,1-.3,1.027c-.058.128-.13.249-.194.371.039.073.086.149.123.231a.711.711,0,0,1,.028.452,1.032,1.032,0,0,1-.266.492.7.7,0,0,1-.511.244.591.591,0,0,1-.341-.139,2.791,2.791,0,0,0-.892-.423,1.711,1.711,0,0,0-.5-.059.06.06,0,0,0-.04.016c.061.023.123.044.183.069a4.977,4.977,0,0,1,.776.393.346.346,0,0,1,.166.216.2.2,0,0,1-.15.236.445.445,0,0,1-.353-.069c-.1-.062-.2-.132-.3-.193.041.051.083.1.123.152a1.756,1.756,0,0,1,.339.715.916.916,0,0,1-.373.992c-.021.014-.044.025-.066.038l-.011-.01c.017-.039.036-.077.05-.116a.6.6,0,0,0-.229-.738,1.765,1.765,0,0,0-.188-.125,1.119,1.119,0,0,1,.192.723,1.379,1.379,0,0,1-.3.695c.038-.006.077-.011.114-.02a1.988,1.988,0,0,0,.816-.343,1.02,1.02,0,0,0,.382-.586,1.388,1.388,0,0,0,.023-.516c0-.005,0-.01,0-.016,0-.037-.019-.081,0-.109s.061-.031.093-.046a.462.462,0,0,0,.267-.34c.009-.045.03-.044.063-.039a1.9,1.9,0,0,0,.23.034,1.062,1.062,0,0,0,1-.579,1.316,1.316,0,0,0,.178-.619,1.407,1.407,0,0,0-.069-.515.079.079,0,0,1,.006-.058,3.51,3.51,0,0,0,.363-.943c.044-.19.081-.382.116-.575a6.114,6.114,0,0,0,.071-1.365c-.009-.193-.045-.386-.067-.579a.113.113,0,0,1,.012-.064,3.364,3.364,0,0,0,.277-.65,2.4,2.4,0,0,0,.091-.933,2.127,2.127,0,0,0-.748-1.405,2.533,2.533,0,0,0-.729-.446l-.025-.008s-.007,0-.013,0a1.08,1.08,0,0,1,.008.618,3.785,3.785,0,0,0-.848-1.116,3.25,3.25,0,0,0-1.172-.749.8.8,0,0,1,.146.535c-.073-.057-.133-.108-.2-.154a2.476,2.476,0,0,0-.986-.432,2.613,2.613,0,0,0-.819-.029.162.162,0,0,1-.183-.09,3.849,3.849,0,0,0-.529-.6c-.082-.08-.168-.157-.251-.236-.013-.012-.024-.027-.043-.049a6.865,6.865,0,0,1,3.156-.092,6.83,6.83,0,0,1,4.433,2.962,6.977,6.977,0,0,1-.988,8.974,6.983,6.983,0,0,1-8.294.994A4.049,4.049,0,0,0-2847.955,100.762Zm2.437-10.4-.056.019a2.976,2.976,0,0,0-.995.495,2,2,0,0,0-.776,1.224,1.842,1.842,0,0,0,.05.9,1.827,1.827,0,0,0,.548.841,1.958,1.958,0,0,0,1.045.464,2.253,2.253,0,0,0,.581.007,2.259,2.259,0,0,0,.592-.136,1.185,1.185,0,0,0,.766-.8.862.862,0,0,0-.055-.635.622.622,0,0,0-.591-.36.918.918,0,0,0-.412.106c-.086.043-.169.094-.254.142.127,0,.247,0,.365.011a.565.565,0,0,1,.364.179.708.708,0,0,1,.186.688.776.776,0,0,1-.3.454,1.192,1.192,0,0,1-.642.22,1.327,1.327,0,0,1-.728-.144,1.585,1.585,0,0,1-.638-.6,2.049,2.049,0,0,1-.293-.842,2.051,2.051,0,0,1,.048-.773,1.94,1.94,0,0,1,.579-.961c.094-.085.2-.16.293-.239l.012.013c0,.006-.006.011-.009.016s-.017.023-.026.033a1.938,1.938,0,0,0-.49,1.325,1.063,1.063,0,0,0,.131.528.869.869,0,0,0,.711.436,1.749,1.749,0,0,0,.567-.023.057.057,0,0,0-.013-.008l-.079-.014a1.024,1.024,0,0,1-.849-.626,1.514,1.514,0,0,1-.112-.752,2.089,2.089,0,0,1,.319-.96C-2845.629,90.521-2845.574,90.448-2845.518,90.366Zm-.8,9.571a.112.112,0,0,0,.018.013l.041.012a1.043,1.043,0,0,1,.351.156.6.6,0,0,1,.271.528.916.916,0,0,1-.178.491,1.987,1.987,0,0,1-.567.535c-.015.01-.027.021-.042.031,0,.005,0,.01,0,.016.169.023.338.053.508.069a1.793,1.793,0,0,0,.749-.075.956.956,0,0,0,.542-.409,1.929,1.929,0,0,0,.092-.2l-.014-.009a.988.988,0,0,1-.436.333.693.693,0,0,1-.553-.048,2.232,2.232,0,0,0,.184-.18.836.836,0,0,0,.184-.8.642.642,0,0,0-.376-.413A1.369,1.369,0,0,0-2846.313,99.937Zm-3.615-3.618a.314.314,0,0,0-.037.028c-.127.127-.262.248-.379.384a1.6,1.6,0,0,0-.373.816,1.465,1.465,0,0,0,.011.5,1.506,1.506,0,0,0,.247.589,1.253,1.253,0,0,0,.878.561.374.374,0,0,0,.21-.018,1.461,1.461,0,0,1-.574-.565,2.142,2.142,0,0,1-.256-.832,2.714,2.714,0,0,1,.046-.864A1.813,1.813,0,0,1-2849.928,96.319Zm2.41-.914,0-.014-.073-.039a1.1,1.1,0,0,1-.433-.387.709.709,0,0,1-.106-.591.242.242,0,0,1,.172-.19.313.313,0,0,1,.249.044,1.735,1.735,0,0,1,.19.134,1.439,1.439,0,0,0,1.07.327c.093-.007.185-.021.276-.031a1.733,1.733,0,0,1-.812-.287c-.17-.117-.331-.247-.5-.372a.848.848,0,0,0-.672-.208.476.476,0,0,0-.305.141.73.73,0,0,0-.175.418.8.8,0,0,0,.3.713,1.491,1.491,0,0,0,.618.3C-2847.648,95.377-2847.583,95.39-2847.518,95.4Zm.247,3.964a.639.639,0,0,1-.751-.268.681.681,0,0,1,.185-.937.117.117,0,0,0-.027,0c-.044.012-.089.022-.132.037a.769.769,0,0,0-.563.618.671.671,0,0,0,.193.616.8.8,0,0,0,.7.214c.065-.008.065-.01.064.055a.62.62,0,0,0,.006.158.459.459,0,0,0,.451.347.916.916,0,0,0,.421-.086c.033-.014.064-.032.1-.048a.876.876,0,0,1-.442-.127.448.448,0,0,1-.215-.5C-2847.281,99.421-2847.278,99.4-2847.271,99.369Zm3.667-3.967a.078.078,0,0,0-.021.008.32.32,0,0,1-.341.057c-.123-.043-.241-.1-.361-.147a.915.915,0,0,0-.661-.047.779.779,0,0,0-.263.146c.064.005.129,0,.191.007a1.893,1.893,0,0,1,.431.138.145.145,0,0,1,.109.165.4.4,0,0,0,.081.274.353.353,0,0,0,.326.115.347.347,0,0,0,.344-.289.045.045,0,0,1,.017-.029c.03-.017.062-.03.1-.047a.393.393,0,0,0,.238.22,1.79,1.79,0,0,0,.539.124,2.5,2.5,0,0,0,.271,0c-.153-.058-.32-.112-.478-.184A.873.873,0,0,1-2843.6,95.4Zm1.269,3.543s0-.009,0-.013l-.032-.025c-.094-.076-.193-.148-.282-.229a1.078,1.078,0,0,0-.225-.2.167.167,0,0,0-.21.016.161.161,0,0,0-.022.2,1.029,1.029,0,0,0,.11.147.262.262,0,0,0,.214.1c.1,0,.208.005.313.008Zm-.289-.668a.423.423,0,0,0-.018-.042.558.558,0,0,0-.458-.31.354.354,0,0,0-.317.125.514.514,0,0,0-.072.43,1.4,1.4,0,0,0,.046.169c.015-.054.017-.107.027-.158a.815.815,0,0,1,.043-.152.337.337,0,0,1,.381-.217A.985.985,0,0,1-2842.624,98.277Z" transform="translate(0 0)" fill="#0071bd"/>
    </g>
  </g>
</svg>
