<svg xmlns="http://www.w3.org/2000/svg" xmlns:xlink="http://www.w3.org/1999/xlink" width="14" height="14" viewBox="0 0 14 14">
  <defs>
    <clipPath id="clip-path">
      <rect id="Rectangle_2865" data-name="Rectangle 2865" width="14" height="14" transform="translate(-20946 16890)" fill="#fff"/>
    </clipPath>
  </defs>
  <g id="pgbouncer" transform="translate(20946 -16890)" clip-path="url(#clip-path)">
    <g id="Group_9196" data-name="Group 9196" transform="translate(-16602.689 16709.957)">
      <path id="Path_20598" data-name="Path 20598" d="M-4334.142,187.183a2.865,2.865,0,0,0,.864,1.4c-.129.027-.249.054-.37.077a6.073,6.073,0,0,1-1.263.115,3.75,3.75,0,0,1-1.725-.423,3.391,3.391,0,0,1-1.341-1.346,5.52,5.52,0,0,1-.6-1.679c-.034-.171-.062-.343-.092-.515a.091.091,0,0,0-.025-.052c.018.116.036.232.056.348a12.239,12.239,0,0,0,.344,1.452,3.938,3.938,0,0,0,.565,1.117,4.115,4.115,0,0,1,.65,1.381,1.781,1.781,0,0,1,.063.549c-.131-.046-.256-.1-.386-.135-.41-.125-.822-.245-1.231-.37-.176-.054-.349-.117-.523-.174a.072.072,0,0,1-.058-.067c-.048-.332-.1-.662-.144-.995a12.016,12.016,0,0,1-.079-1.883c.01-.3.041-.592.063-.889a.054.054,0,0,0-.011-.04c-.008.028-.018.056-.025.085a6.55,6.55,0,0,0-.15.993,11.417,11.417,0,0,0-.039,1.374c.012.4.04.8.061,1.206,0,.021,0,.042,0,.07-.115-.051-.231-.095-.341-.151-.278-.142-.554-.289-.831-.433a.1.1,0,0,1-.058-.082,9.286,9.286,0,0,1-.047-1.292,8.429,8.429,0,0,1,.154-1.369q.012-.059.022-.118s0-.005-.014-.02a8.743,8.743,0,0,0-.369,2.687c-.046-.03-.089-.054-.127-.083-.289-.219-.576-.439-.865-.658a.156.156,0,0,1-.062-.127,4.478,4.478,0,0,1,.229-1.784.031.031,0,0,0,0-.024,1.48,1.48,0,0,0-.186.385c-.045.138-.088.277-.124.418s-.059.281-.081.423-.036.287-.066.437c-.074-.122-.153-.241-.221-.366a3.1,3.1,0,0,1-.357-1.162,4.733,4.733,0,0,1,.521-2.748A3.962,3.962,0,0,1-4341,181.25a5.549,5.549,0,0,1,1.823-.751,3.141,3.141,0,0,1,1-.089,6.246,6.246,0,0,1,1.21.236.3.3,0,0,0,.078.014,6.376,6.376,0,0,0-.985-.442c.071-.012.142-.028.214-.036.353-.04.7-.086,1.058-.114a8.215,8.215,0,0,1,1.138-.006,6.533,6.533,0,0,1,1.192.175,4.3,4.3,0,0,1,1.779.873,3.619,3.619,0,0,1,1.1,1.568,1.733,1.733,0,0,1,0,1.118,2.3,2.3,0,0,0-.117.619.4.4,0,0,0,.1.327.488.488,0,0,1,.034.047.1.1,0,0,1-.025,0,1.418,1.418,0,0,0-1.01.066,3.1,3.1,0,0,0-.987.712.127.127,0,0,0-.006.018c.115-.077.223-.154.337-.224a2.688,2.688,0,0,1,1.02-.4,1.293,1.293,0,0,1,.871.152.215.215,0,0,1,.065.062c.067.1.131.205.2.316a1.846,1.846,0,0,0-1.326.314c-.137.084-.264.183-.4.276a.087.087,0,0,0-.036.044l.058-.032a3.131,3.131,0,0,1,1.078-.4,1.531,1.531,0,0,1,.721.045.156.156,0,0,1,.08.065c.079.144.152.292.229.438.008.018.016.038.027.066a2.01,2.01,0,0,0-1.493.542c.012-.005.026-.009.039-.016a2.82,2.82,0,0,1,.966-.335,1.364,1.364,0,0,1,.558.028.07.07,0,0,1,.044.029c.092.234.185.47.28.716a1.944,1.944,0,0,0-1.25.367.2.2,0,0,0,.027-.005l.031-.013a2.387,2.387,0,0,1,1.019-.194c.213.011.217.008.267.212.043.172.079.346.121.527a2.125,2.125,0,0,0-1.057.351c.066-.023.132-.046.2-.068a2.357,2.357,0,0,1,.83-.124c.034,0,.055.008.058.046.022.231.045.462.067.692a.139.139,0,0,1,0,.024,1.993,1.993,0,0,0-.673.056c-.1.025-.206.056-.309.085l0,.016c.069-.009.139-.019.209-.028a2.421,2.421,0,0,1,.732.019c.025,0,.047.009.046.045-.006.217-.011.433-.017.65a.178.178,0,0,1-.009.034,2.623,2.623,0,0,0-.75.033,3.15,3.15,0,0,1,.749.1c-.033.246-.066.491-.1.734l-.594-.035a.138.138,0,0,1,0,.014l.575.125c-.051.227-.1.441-.149.658l-.346-.034a.121.121,0,0,0,0,.013l.331.087c-.067.165-.129.323-.194.48-.021.051-.05.1-.071.15s-.035.042-.071.035a.592.592,0,0,0-.166-.013l.2.062c-.048.08-.091.158-.139.233a3.184,3.184,0,0,1-1.286,1.194,2.144,2.144,0,0,1-1.121.24,1.931,1.931,0,0,1-1.359-.649,1.255,1.255,0,0,1-.3-.741,3.783,3.783,0,0,1,.27-1.745,3.257,3.257,0,0,0,.206-.68,1.219,1.219,0,0,0,0-.406c-.036-.187.017-.246.208-.228s.356.044.537.063a1.421,1.421,0,0,0,.617-.07.51.51,0,0,1,.123-.028c.061,0,.088.021.085.08a.447.447,0,0,1-.031.162c-.1.2-.19.393-.3.582a3.347,3.347,0,0,0-.412,1.023,1.345,1.345,0,0,0,.038.726.8.8,0,0,0,.2.322c.034.03.028.052.009.083a.792.792,0,0,1-.35.288.713.713,0,0,0-.134.074c.035-.006.071-.01.1-.018a1.29,1.29,0,0,0,.807-.595,2.682,2.682,0,0,0,.363-.961,4.6,4.6,0,0,0,.092-1.1,2.811,2.811,0,0,0-.275-1.188,1.07,1.07,0,0,0-.474-.484,2.653,2.653,0,0,1-.965-.885c-.1-.143-.183-.3-.272-.446Zm-2.879-3.539a.827.827,0,0,0,.311.308.415.415,0,0,0,.407-.005.057.057,0,0,0,.033-.079.377.377,0,0,0-.138-.2A.652.652,0,0,0-4337.021,183.644Z" transform="translate(0 0)" fill="#0071bd"/>
    </g>
  </g>
</svg>
