<svg xmlns="http://www.w3.org/2000/svg" width="14" height="14" viewBox="0 0 14 14">
  <g id="PostgreSql" transform="translate(22551 -15689)">
    <rect id="Rectangle_1797" data-name="Rectangle 1797" width="14" height="14" transform="translate(-22551 15689)" fill="none"/>
    <g id="Group_2001" data-name="Group 2001" transform="translate(-22623.932 15294.009)">
      <g id="Group_2000" data-name="Group 2000" transform="translate(73.232 394.991)">
        <path id="Path_2703" data-name="Path 2703" d="M81.1,408.951c-.088-.017-.177-.029-.264-.051a1.484,1.484,0,0,1-1.019-.9,4.11,4.11,0,0,1-.34-1.454c-.018-.348-.031-.7-.046-1.045,0-.017,0-.033,0-.049a2.48,2.48,0,0,1-2.327-.32l-.029.018a1.244,1.244,0,0,1-1.583-.043,3.021,3.021,0,0,1-.714-.9,9.971,9.971,0,0,1-.794-1.945,20.735,20.735,0,0,1-.665-2.785,4.9,4.9,0,0,1,.111-2.3,2.665,2.665,0,0,1,2.185-1.932,4.937,4.937,0,0,1,1.95.051c.325.067.642.165.964.247a.137.137,0,0,0,.092-.005,3.263,3.263,0,0,1,1.739-.4c.306.011.609.051.915.076a.369.369,0,0,0,.11-.008,5.629,5.629,0,0,1,2.36-.164,3.978,3.978,0,0,1,2.608,1.495,1.726,1.726,0,0,1,.335.909,5.248,5.248,0,0,1-.121,1.668,12.912,12.912,0,0,1-1.45,3.744l-.055.1c.2-.031.383-.056.564-.089a1.374,1.374,0,0,1,.6-.014.718.718,0,0,1,.466,1.041,1.472,1.472,0,0,1-.431.495,2.936,2.936,0,0,1-1.558.621c-.225.023-.454.021-.681.031l-.049,0c-.006.075-.014.147-.017.22a8.477,8.477,0,0,1-.172,1.582,3.02,3.02,0,0,1-.524,1.218,2.059,2.059,0,0,1-1.14.732c-.216.058-.441.091-.66.135a.118.118,0,0,0-.026.011Zm-1.312-4.266v.108a20.937,20.937,0,0,0,.073,2.1,2.3,2.3,0,0,0,.24.886,1.3,1.3,0,0,0,1.272.759,2.628,2.628,0,0,0,1.125-.3,1.375,1.375,0,0,0,.658-.7,1.991,1.991,0,0,0,.147-.459c.1-.632.185-1.266.273-1.9.03-.213.051-.429.076-.645.093.015.181.034.269.044a3.334,3.334,0,0,0,.915-.042,2.4,2.4,0,0,0,1.273-.618.876.876,0,0,0,.2-.287.265.265,0,0,0-.21-.375.627.627,0,0,0-.2-.008c-.171.023-.341.058-.512.083a2.317,2.317,0,0,1-.814.006,1.948,1.948,0,0,1-.222-.077l.009-.03.088-.138a12.552,12.552,0,0,0,1.68-4.074,4.981,4.981,0,0,0,.122-1.512,1.307,1.307,0,0,0-.246-.716,3.446,3.446,0,0,0-1.664-1.17,4.872,4.872,0,0,0-3,.036.2.2,0,0,1-.1.011,4.426,4.426,0,0,0-.867-.113,2.874,2.874,0,0,0-1.7.43.12.12,0,0,1-.091.009,7.391,7.391,0,0,0-1.518-.368,4.22,4.22,0,0,0-1.521.052,2.228,2.228,0,0,0-1.662,1.432,4.109,4.109,0,0,0-.21,1.886,10.065,10.065,0,0,0,.163,1,18.238,18.238,0,0,0,.869,3.059,5.629,5.629,0,0,0,.663,1.286,1.812,1.812,0,0,0,.458.463.777.777,0,0,0,.943-.011,2,2,0,0,0,.3-.286c.343-.382.68-.767,1.018-1.153a.067.067,0,0,1,.1-.019,1.582,1.582,0,0,0,.5.16c.071.01.142.017.226.027l-.216.271a.607.607,0,0,1-.321.212c-.153.041-.311.069-.462.115a1.961,1.961,0,0,0-.417.156.321.321,0,0,0-.039.557,1.143,1.143,0,0,0,.259.157,1.907,1.907,0,0,0,.671.144,1.823,1.823,0,0,0,1.3-.387Z" transform="translate(-73.232 -394.991)" fill="#0071bd"/>
        <path id="Path_2704" data-name="Path 2704" d="M83.946,398.638c-.185,0-.365-.012-.54,0a1.907,1.907,0,0,0-.451.091.94.94,0,0,0-.647.962,2.964,2.964,0,0,0,.23,1.064,9.5,9.5,0,0,0,.573,1.191c.1.183.2.369.288.555a3.177,3.177,0,0,0,.394.591c.027.033.051.067.079.105-.019.007-.031.013-.044.017a.7.7,0,0,0-.522.678c-.059.985-.206,1.957-.348,2.931a2.57,2.57,0,0,1-.1.414,1.1,1.1,0,0,1-.768.756,3.716,3.716,0,0,1-.614.141.937.937,0,0,1-1.028-.536,1.868,1.868,0,0,1-.205-.762,24.41,24.41,0,0,1-.063-2.611,1.712,1.712,0,0,0-.027-.431.73.73,0,0,0-.6-.578,1.091,1.091,0,0,0-.215,0,.92.92,0,0,1,.032-.12c.128-.331.254-.663.391-.992a3.447,3.447,0,0,0,.229-1.66c-.028-.3-.077-.6-.135-.9A.993.993,0,0,0,78.7,398.7a2.725,2.725,0,0,0-1.035.311l-.083.041c.017-.135.03-.258.048-.382a4.388,4.388,0,0,1,.458-1.458,2.32,2.32,0,0,1,1.092-1.062,2.56,2.56,0,0,1,1.166-.209,3.8,3.8,0,0,1,3.249,1.973c.131.213.222.45.332.675A.468.468,0,0,1,83.946,398.638Z" transform="translate(-73.224 -394.99)" fill="#0071bd"/>
        <path id="Path_2705" data-name="Path 2705" d="M78.3,396.3a3.092,3.092,0,0,0-.508.669,4.73,4.73,0,0,0-.518,1.535,6.9,6.9,0,0,0-.055,1.568,8.2,8.2,0,0,1-.06,1.264,1.971,1.971,0,0,0,.629,1.711l.045.041c-.064.07-.128.137-.189.206-.294.336-.585.673-.882,1.007a1.263,1.263,0,0,1-.224.2.383.383,0,0,1-.436.007,1.193,1.193,0,0,1-.35-.33,4.768,4.768,0,0,1-.585-1.079,16.228,16.228,0,0,1-.839-2.773c-.092-.424-.177-.85-.233-1.279a3.784,3.784,0,0,1,.135-1.689,1.873,1.873,0,0,1,1.522-1.324A3.954,3.954,0,0,1,77,396.006a6.815,6.815,0,0,1,1.254.28Z" transform="translate(-73.231 -394.99)" fill="#0071bd"/>
        <path id="Path_2706" data-name="Path 2706" d="M84.115,402.877a.1.1,0,0,1-.028-.148,2.092,2.092,0,0,0,.262-1.157c-.014-.286-.041-.572-.076-.857a4.093,4.093,0,0,1,.037-1.05,8.17,8.17,0,0,0,.067-.828.911.911,0,0,0-.078-.344,4.545,4.545,0,0,0-2.305-2.565l-.06-.035c.175-.026.328-.054.482-.071a4.325,4.325,0,0,1,1.527.082,3.113,3.113,0,0,1,1.749,1.126.934.934,0,0,1,.166.506,4.592,4.592,0,0,1-.118,1.414,12.109,12.109,0,0,1-1.6,3.893C84.132,402.854,84.123,402.865,84.115,402.877Z" transform="translate(-73.217 -394.99)" fill="#0071bd"/>
        <path id="Path_2707" data-name="Path 2707" d="M77.61,400.215c-.01-.211-.02-.422-.032-.633a.1.1,0,0,1,.047-.1,2.352,2.352,0,0,1,1.111-.4,1.062,1.062,0,0,1,.3.026.565.565,0,0,1,.43.472,5.262,5.262,0,0,1,.145,1.454,2.825,2.825,0,0,1-.24.99,7.293,7.293,0,0,0-.4,1.062c-.011.043-.04.039-.071.038a1.332,1.332,0,0,1-.889-.4,1.628,1.628,0,0,1-.475-1.4c.038-.368.06-.737.089-1.1Zm1.266-.935a1.644,1.644,0,0,0-.217.053.119.119,0,0,0-.069.169.389.389,0,0,0,.645.137c.1-.1.085-.2-.042-.261A2.368,2.368,0,0,0,78.876,399.28Z" transform="translate(-73.224 -394.984)" fill="#0071bd"/>
        <path id="Path_2708" data-name="Path 2708" d="M84,399.052c-.022.179-.036.364-.068.545a4.348,4.348,0,0,0-.015,1.367,3.184,3.184,0,0,1,.019,1.041c-.027.143-.075.283-.119.441-.021-.03-.029-.038-.034-.048-.213-.407-.431-.811-.637-1.222a4.549,4.549,0,0,1-.424-1.143,1.354,1.354,0,0,1-.021-.488.587.587,0,0,1,.51-.494,2.261,2.261,0,0,1,.757-.014A.176.176,0,0,1,84,399.052Zm-.713.55a.389.389,0,0,0,.325-.214c.043-.077.023-.136-.061-.161a.6.6,0,0,0-.517.07.1.1,0,0,0-.022.169A.355.355,0,0,0,83.283,399.6Z" transform="translate(-73.215 -394.984)" fill="#0071bd"/>
        <path id="Path_2709" data-name="Path 2709" d="M77.778,404.546c.132-.032.265-.062.4-.1s.27-.071.4-.114a.9.9,0,0,0,.429-.3c.091-.112.185-.222.275-.336.133-.164.27-.134.4.007a.345.345,0,0,1,.01.5,1.431,1.431,0,0,1-1.367.526,3.245,3.245,0,0,1-.423-.093.658.658,0,0,1-.126-.06Z" transform="translate(-73.224 -394.976)" fill="#0071bd"/>
        <path id="Path_2710" data-name="Path 2710" d="M85.8,403.657c-.024.02-.058.05-.093.077a2.224,2.224,0,0,1-1.121.43,2.506,2.506,0,0,1-.729,0c-.178-.031-.186-.041-.176-.223a.389.389,0,0,1,.385-.4.06.06,0,0,1,.04.007,1.293,1.293,0,0,0,.836.194C85.226,403.724,85.512,403.685,85.8,403.657Z" transform="translate(-73.213 -394.976)" fill="#0071bd"/>
      </g>
    </g>
  </g>
</svg>
