<svg xmlns="http://www.w3.org/2000/svg" width="32" height="33" fill="none" xmlns:v="https://vecta.io/nano"><g clip-path="url(#A)"><path d="M31.483 12.16h-7.578c-2.048-4.051-4.216-7.198-7.165-7.198-3.84 0-5.642 3.454-7.386 6.818l-.152.295H.473v1.997h5.084c1.795 0 2.16.624 2.16.624-1.408 2.255-3.101 4.484-5.924 4.484H.473v2.095h1.332c5.472 0 7.86-4.577 9.778-8.251 1.759-3.386 2.986-5.436 5.16-5.436 2.258 0 4.632 5.066 6.72 9.539l.93 1.975c-8.012.261-11.83 2.195-14.935 3.775-2.273 1.154-4.068 2.584-7.02 2.584H.473v2.098H2.42c3.557 0 5.776-1.131 8.135-2.333 3.268-1.658 6.973-3.536 15.709-3.536h5.048v-2.098h-2.852c-.235.019-.47-.019-.687-.112s-.413-.232-.568-.415c-.499-.997-.988-2.046-1.466-3.095l-.662-1.396s.474-.523 1.784-.523h4.621V12.16z" fill="#1971bd"/></g><defs><clipPath id="A"><path fill="#fff" transform="translate(.005 .344)" d="M0 0h32v32H0z"/></clipPath></defs></svg>