<svg xmlns="http://www.w3.org/2000/svg" width="14" height="14" viewBox="0 0 14 14">
  <g id="Redis" transform="translate(22551 -15784)">
    <rect id="Rectangle_1797" data-name="Rectangle 1797" width="14" height="14" transform="translate(-22551 15784)" fill="none"/>
    <g id="Group_2009" data-name="Group 2009" transform="translate(-22623.99 15293.207)">
      <g id="Group_2008" data-name="Group 2008" transform="translate(72.991 490.887)">
        <path id="Path_2723" data-name="Path 2723" d="M86.945,494.692c0,.285-.008.57,0,.855a.244.244,0,0,1-.18.272q-2.894,1.142-5.782,2.294c-.3.119-.593.242-.893.351a.367.367,0,0,1-.244,0q-3.347-1.322-6.69-2.652a.23.23,0,0,1-.166-.251q.009-.878,0-1.756a.237.237,0,0,1,.179-.257q3.324-1.316,6.648-2.636a.449.449,0,0,1,.3,0q3.318,1.31,6.633,2.629a.259.259,0,0,1,.193.294c-.011.285,0,.57,0,.855Zm-10.553-1.545c-.187.017-.377.023-.561.052a1.592,1.592,0,0,0-.8.3.326.326,0,0,0-.009.556,1.388,1.388,0,0,0,.423.235,3.276,3.276,0,0,0,1.966.063,1.6,1.6,0,0,0,.511-.254.309.309,0,0,0,.012-.512,1.244,1.244,0,0,0-.331-.212A3.126,3.126,0,0,0,76.392,493.147Zm8.7.653a.54.54,0,0,0-.078-.052c-.607-.245-1.214-.492-1.824-.733a.266.266,0,0,0-.171.006c-.516.2-1.03.407-1.544.611-.036.015-.069.036-.117.061a.527.527,0,0,0,.074.051c.611.252,1.22.505,1.833.752a.279.279,0,0,0,.185-.014c.5-.2,1.007-.41,1.51-.616C85,493.849,85.039,493.827,85.093,493.8Zm-3.954-1.905-.025-.041c-.389.075-.776.154-1.165.22a.609.609,0,0,1-.293-.026c-.293-.1-.58-.219-.869-.33-.039-.014-.08-.022-.151-.041l.293.6-1.31.258.006.042c.034.005.067.011.1.013.427.032.852.066,1.279.092a.2.2,0,0,1,.2.131c.075.166.162.325.253.507.2-.166.376-.324.563-.469a.358.358,0,0,1,.216-.073c.335.017.669.049,1,.073.133.01.265.016.4.023l.01-.046-1.1-.429Zm-.878,4.187L81,494.676,77.748,495l-.008.048Z" transform="translate(-72.991 -490.887)" fill="#0071bd"/>
        <path id="Path_2724" data-name="Path 2724" d="M72.995,500.032l3.153,1.255q1.827.727,3.656,1.455a.4.4,0,0,0,.32,0q3.3-1.316,6.6-2.627c.065-.026.129-.055.206-.089,0,.05.009.093.009.136,0,.575,0,1.152,0,1.727a.246.246,0,0,1-.186.268q-3.326,1.316-6.65,2.636a.433.433,0,0,1-.288,0q-3.327-1.314-6.65-2.636a.245.245,0,0,1-.182-.27c.007-.57,0-1.141,0-1.712Z" transform="translate(-72.991 -490.915)" fill="#0071bd"/>
        <path id="Path_2725" data-name="Path 2725" d="M73,496.843l3.473,1.382c1.111.442,2.221.881,3.33,1.327a.415.415,0,0,0,.334,0q3.287-1.31,6.576-2.614c.071-.028.14-.059.22-.094,0,.043.011.081.011.118,0,.586,0,1.171,0,1.758a.229.229,0,0,1-.171.247q-3.333,1.319-6.664,2.642a.426.426,0,0,1-.288,0q-3.333-1.316-6.664-2.642a.229.229,0,0,1-.169-.249c.006-.585,0-1.17,0-1.757C72.994,496.922,73,496.887,73,496.843Z" transform="translate(-72.991 -490.905)" fill="#0071bd"/>
      </g>
    </g>
  </g>
</svg>
