<svg xmlns="http://www.w3.org/2000/svg" width="33" height="33" fill="#1971bd" xmlns:v="https://vecta.io/nano"><path d="M16.956 1.607c3.214.894 6.142 3.147 7.357 5.9 1.857 4.47 1.428 10.12-.607 13.481-1.714 2.753-4.357 4.22-7.392 4.184a8.56 8.56 0 0 1-3.279-.65c-1.04-.43-1.985-1.061-2.781-1.856s-1.427-1.74-1.858-2.779-.653-2.154-.653-3.279.222-2.24.653-3.279 1.062-1.984 1.858-2.779 1.741-1.426 2.781-1.856 2.154-.651 3.279-.65c1.1 0 2.19.219 3.204.645 0 0-.924-.547-3.298-.915-6.821-.894-14.87 4.275-13.012 16.183 1.628 2.899 4.173 5.174 7.235 6.469s6.467 1.535 9.681.684 6.053-2.747 8.072-5.388 3.104-5.878 3.083-9.202c0-7.938-6.464-14.697-14.321-14.911z"/><path d="M22.563 7.935c-1.143-2.396-3.5-4.291-6.393-5.042a9.34 9.34 0 0 0-2.071-.286c-1.109.002-2.213.146-3.286.429-2.237.681-4.248 1.954-5.821 3.683a14.91 14.91 0 0 0-3 5.185c0 .036-.036.072-.036.143a6.45 6.45 0 0 0-.179.679c-.036.072-.036.179-.071.25l-.107.429c.002.019 0 .039-.006.058s-.016.036-.03.05c-.928 4.613.614 8.753 1.543 10.29l.614 1C1.613 13.361 7.671 7.9 14.563 7.757c3.607-.071 7.214 1.395 8.964 4.327-.107-1.609-.214-2.503-.964-4.148z"/></svg>