<svg xmlns="http://www.w3.org/2000/svg" width="33" height="33" fill="none" xmlns:v="https://vecta.io/nano"><path d="M27.085 6.745L13.094 21.954l17.595-8.137c-.522-2.697-1.793-5.112-3.591-7.029M16.486 2.229a14.15 14.15 0 0 0-5.469 1.095l-1.878 15.89 9.37-16.828a14.1 14.1 0 0 0-2.035-.148" fill="#1971bd"/><mask id="A" maskUnits="userSpaceOnUse" x="13" y="14" width="18" height="11"><path d="M13.942 14.585h16.959v9.798H13.942v-9.798z" fill="#fff"/></mask><g mask="url(#A)"><path d="M30.9 14.669l-16.662 9.372 15.645-1.866c.742-1.734 1.153-3.638 1.153-5.623a14.66 14.66 0 0 0-.122-1.862" fill="#1971bd"/></g><path d="M24.541 28.387a14.32 14.32 0 0 0 4.494-4.942l-14.669 2.922 10.175 2.019zM19.453 2.526l-8.14 17.765L26.449 6.232C24.554 4.4 22.167 3.088 19.496 2.53m-1.739 28.243a13.79 13.79 0 0 0 4.452-1.125l-8.225-.98 3.773 2.105zM3.766 10.665a14.28 14.28 0 0 0-1.2 4.601l2.209 3.97-1.009-8.571zm6.36-6.753c-2.01 1.082-3.727 2.629-5.003 4.516l2.065 10.437 2.938-14.953z" fill="#1971bd"/></svg>