<svg width="32" height="32" viewBox="0 0 32 32" fill="none" xmlns="http://www.w3.org/2000/svg">
<path d="M29.9919 10.3062L24.6362 7.19782C23.7331 6.67275 22.5989 7.32384 22.5989 8.37397V16.25L18.7974 14.0657C16.7602 12.8896 14.2398 12.8896 12.2026 14.0657L8.40108 16.25V8.35297C8.40108 7.30283 7.26694 6.67275 6.36382 7.17682L1.00813 10.3062C0.378049 10.6633 0 11.3354 0 12.0494V19.4634C0 19.9885 0.126016 20.4715 0.378049 20.9126C0.630081 21.3536 0.966125 21.7317 1.40718 22.0257L4.17954 23.79L6.30081 25.1341C7.58198 25.9532 9.19919 25.8692 10.4173 24.9661L10.5854 24.8401C10.5854 24.8401 10.6064 24.8191 10.6274 24.7981L13.8198 22.3618C14.7439 21.6477 16.2771 21.6477 17.2222 22.3618L20.3936 24.7771L20.5827 24.9241C21.7798 25.8272 23.418 25.8902 24.6992 25.0921L26.8205 23.748L29.5928 21.9837C30.0339 21.7107 30.3909 21.3116 30.622 20.8706C30.853 20.4295 31 19.9465 31 19.4214V12.0284C31 11.3144 30.622 10.6423 29.9919 10.2852V10.3062Z" fill="#1971BD"/>
<path d="M22.6407 21.0388V23.7061C22.6407 24.5252 22.0526 25.1973 21.3386 25.1973C20.6245 25.1973 20.7085 25.0503 20.3724 24.7982L17.201 22.3619C16.2769 21.6478 14.7437 21.6478 13.7986 22.3619L10.6062 24.7982C10.2911 25.0293 10.0811 25.1133 9.78706 25.1133C9.05197 25.1133 8.37988 24.5672 8.37988 23.6851V21.0388L12.9375 18.0984C14.4917 17.0903 16.5079 17.0903 18.0621 18.0984L22.6407 20.9758V21.0388Z" fill="#1971BD"/>
<path d="M22.5992 16.229V21.0806L18.0836 18.1822C16.5294 17.1741 14.5342 17.1741 12.959 18.1822L8.40137 21.0806V16.229L12.2029 14.0447C14.2401 12.8686 16.7394 12.8686 18.7977 14.0447L22.5992 16.229Z" fill="#1971BD"/>
<path d="M30.9997 12.0494V19.4424C30.9997 19.9675 30.8737 20.4505 30.6217 20.8916L22.5986 16.229V8.35297C22.5986 7.30283 23.7328 6.67275 24.6359 7.17682L29.9916 10.2852C30.6217 10.6423 30.9997 11.3144 30.9997 12.0284V12.0494Z" fill="#1971BD"/>
<path d="M8.40108 8.35293V16.2499L0.378049 20.9126C0.126016 20.4715 0 19.9884 0 19.4634V12.0494C0 11.3353 0.378049 10.6632 1.00813 10.3062L6.36382 7.19778C7.26694 6.67271 8.40108 7.3238 8.40108 8.37393V8.35293Z" fill="#1971BD"/>
<path d="M21.2337 25.0921C21.9478 25.0921 22.6198 24.525 22.6198 23.7269V21.0596L26.8624 23.7689L24.7201 25.1341C23.4389 25.9532 21.8007 25.8902 20.6036 24.9661L20.3936 24.7981C20.6876 25.0081 20.9396 25.0921 21.2337 25.0921Z" fill="#1971BD"/>
<path d="M30.6217 20.9126C30.3906 21.3537 30.0336 21.7317 29.5925 22.0257L26.8202 23.79L22.5986 21.1016V16.25L30.6217 20.9336V20.9126Z" fill="#1971BD"/>
<path d="M8.40123 23.7269C8.40123 24.546 9.07332 25.1761 9.78741 25.0921C10.1025 25.0501 10.3545 25.0081 10.6065 24.819L10.4175 24.9661C9.22034 25.8692 7.58213 25.9322 6.30096 25.1341L4.17969 23.7899L8.40123 21.0806V23.7269Z" fill="#1971BD"/>
<path d="M8.40097 16.229V21.0806L4.17942 23.79L1.40706 22.0258C0.966006 21.7527 0.60896 21.3537 0.37793 20.9126L8.40097 16.25V16.229Z" fill="#1971BD"/>
</svg>
