<svg xmlns="http://www.w3.org/2000/svg" width="33" height="32" fill="none" xmlns:v="https://vecta.io/nano"><g clip-path="url(#A)"><path d="M2.856 1.768h6.946c.5.003.78.022 1.009.137a1.29 1.29 0 0 1 .551.551c.138.267.138.624.138 1.337v9.297c-.003.798-.029 1.237-.218 1.517s-.494.478-.834.535-.741-.107-1.465-.441l-3.787-1.773c-1.198-.571-1.89-.947-2.427-1.472a5.44 5.44 0 0 1-1.304-2.041c-.249-.702-.297-1.483-.306-2.812l-.001-3.137c.003-.5.022-.78.137-1.009a1.29 1.29 0 0 1 .551-.551c.23-.115.515-.134 1.012-.137zm20.694 0h6.95c.5.003.78.022 1.009.137a1.29 1.29 0 0 1 .551.551c.138.267.138.624.138 1.337l-.002 2.807c-.009 1.327-.056 2.115-.306 2.823a5.44 5.44 0 0 1-1.304 2.041c-.656.648-1.564 1.069-3.362 1.912l-5.379 2.503.001-12.414c.003-.5.022-.78.137-1.009a1.29 1.29 0 0 1 .551-.551c.229-.115.515-.134 1.017-.137zm-7.076 16.614l5.371-2.503-.001 12.414c-.003.5-.022.78-.137 1.009a1.29 1.29 0 0 1-.551.551c-.267.138-.624.138-1.337.138h-6.622c-.5-.003-.78-.022-1.009-.137a1.29 1.29 0 0 1-.551-.551c-.138-.267-.138-.624-.138-1.337l.002-2.815c.009-1.327.056-2.115.306-2.823.276-.77.721-1.466 1.304-2.041.656-.648 1.563-1.069 3.362-1.904z" fill="#1971bd"/></g><defs><clipPath id="A"><path fill="#fff" transform="translate(.712 -.01)" d="M0 0h32v32H0z"/></clipPath></defs></svg>