<svg width="32" height="32" viewBox="0 0 32 32" fill="none" xmlns="http://www.w3.org/2000/svg">
<g clip-path="url(#clip0)">
<path d="M31.8425 11.73L29.6892 8.5L31.8425 5.27C32.0524 4.95512 32.0524 4.54481 31.8425 4.22994L29.3425 0.479937C29.1687 0.219125 28.876 0.0625 28.5625 0.0625H17.3125C17.1669 0.0625 17.0234 0.096375 16.8932 0.161437L12.0912 2.5625H0.9375C0.41975 2.5625 0 2.98225 0 3.5V28.5C0 29.0178 0.41975 29.4375 0.9375 29.4375H12.0912L16.8932 31.8386C17.0234 31.9037 17.1669 31.9375 17.3125 31.9375H28.5625C28.876 31.9375 29.1687 31.7809 29.3425 31.52L31.8425 27.77C32.0524 27.4551 32.0524 27.0448 31.8425 26.7299L29.6892 23.5L31.8425 20.27C32.0524 19.9551 32.0524 19.5448 31.8425 19.2299L29.6892 16L31.8425 12.77C32.0525 12.4551 32.0525 12.0449 31.8425 11.73V11.73ZM29.9358 4.75L28.0608 7.5625H18.25V1.9375H28.0608L29.9358 4.75ZM13.25 4.07944L16.375 2.51694V7.76806L13.25 8.54931V4.07944ZM16.375 22.2992L13.25 21.518V16.9375H16.375V22.2992ZM16.375 15.0625H13.25V10.482L16.375 9.70075V15.0625ZM11.375 15.0625H1.875V10.6875H11.375V15.0625ZM1.875 16.9375H11.375V21.3125H1.875V16.9375ZM13.25 23.4508L16.375 24.232V29.4831L13.25 27.9206V23.4508ZM1.875 4.4375H11.375V8.8125H1.875V4.4375ZM1.875 23.1875H11.375V27.5625H1.875V23.1875ZM28.0608 30.0625H18.25V24.4375H28.0608L29.9358 27.25L28.0608 30.0625ZM28.0608 22.5625H18.25V16.9375H28.0608L29.9358 19.75L28.0608 22.5625ZM28.0608 15.0625H18.25V9.4375H28.0608L29.9358 12.25L28.0608 15.0625Z" fill="#1971BD"/>
</g>
<defs>
<clipPath id="clip0">
<rect width="32" height="32" fill="white"/>
</clipPath>
</defs>
</svg>
