<svg width="32" height="32" viewBox="0 0 32 32" fill="none" xmlns="http://www.w3.org/2000/svg">
<g clip-path="url(#clip0)">
<path d="M31.5291 20.3538H29.1467C29.0695 19.9595 28.7217 19.661 28.3052 19.661H25.1934C24.7205 19.661 24.3357 20.0458 24.3357 20.5188V20.8669H22.3431C23.3614 19.5077 23.9653 17.821 23.9653 15.9958C23.9653 14.4367 23.5231 12.9215 22.6864 11.614C22.5463 11.3949 22.2548 11.3311 22.0361 11.4711C21.817 11.6113 21.753 11.9025 21.8932 12.1215C22.6327 13.2772 23.0237 14.617 23.0237 15.9958C23.0237 19.9649 19.7945 23.194 15.8255 23.194C11.8564 23.194 8.62738 19.9649 8.62738 15.9958C8.62738 12.1809 11.6105 9.05031 15.3665 8.81275H15.5428C15.5798 8.81275 15.6157 8.80804 15.6503 8.79994C15.7086 8.79856 15.767 8.79774 15.8255 8.79774C17.6256 8.79774 19.3484 9.46549 20.6768 10.6781C20.8689 10.8535 21.1666 10.8399 21.342 10.6477C21.5173 10.4557 21.5037 10.1579 21.3117 9.98256C19.8094 8.61128 17.8611 7.85601 15.8255 7.85601C15.6616 7.85601 15.499 7.86147 15.3375 7.87108H7.6643V7.52295C7.6643 7.04995 7.27951 6.66516 6.80651 6.66516H3.69472C3.27823 6.66516 2.93041 6.96369 2.85325 7.35796H0.470865C0.210822 7.35796 0 7.56878 0 7.82883V8.51911C0 8.77916 0.210822 8.98998 0.470865 8.98998C0.730908 8.98998 0.94173 8.77916 0.94173 8.51911V8.29969H2.83699V10.5982H0.94173V10.4026C0.94173 10.1425 0.730908 9.93171 0.470865 9.93171C0.210822 9.93171 0 10.1425 0 10.4026V11.0691C0 11.3291 0.210822 11.5399 0.470865 11.5399H2.83995C2.87033 11.9855 3.24156 12.339 3.69472 12.339H6.80651C7.27951 12.339 7.6643 11.9542 7.6643 11.4812V11.133H9.3016C8.28698 12.4908 7.68552 14.1744 7.68552 15.9959C7.68552 20.4842 11.3371 24.1358 15.8254 24.1358C16.0006 24.1358 24.3357 24.1289 24.3357 24.1289V24.477C24.3357 24.95 24.7205 25.3348 25.1934 25.3348H28.3052C28.7583 25.3348 29.1296 24.9814 29.16 24.5358H31.5291C31.7892 24.5358 32 24.3249 32 24.0649V20.8246C32 20.5646 31.7892 20.3538 31.5291 20.3538V20.3538ZM6.72257 11.3972H3.77872V7.60689H6.72257V11.3972ZM7.6643 8.81275H12C11.3098 9.18178 10.6789 9.64731 10.125 10.1913C10.1247 10.1913 10.1245 10.1913 10.1242 10.1913H7.6643V8.81275ZM19.6353 23.1872C20.3281 22.8187 20.9615 22.3531 21.5175 21.8085C21.5183 21.8085 21.5191 21.8086 21.52 21.8086H24.3357V23.1872H19.6353ZM28.2213 24.3931H25.2774V20.6027H28.2213V24.3931ZM31.0583 23.594H29.1629V21.2955H31.0583V23.594Z" fill="#1971BD"/>
<path d="M15.8256 10.1322C12.5923 10.1322 9.96191 12.7626 9.96191 15.9959C9.96191 19.2292 12.5924 21.8597 15.8256 21.8597C19.0588 21.8597 21.6893 19.2292 21.6893 15.9959C21.6893 12.7626 19.0588 10.1322 15.8256 10.1322ZM15.8256 20.9179C13.1116 20.9179 10.9036 18.7099 10.9036 15.9959C10.9036 13.2819 13.1116 11.0739 15.8256 11.0739C18.5396 11.0739 20.7476 13.2819 20.7476 15.9959C20.7476 18.7099 18.5396 20.9179 15.8256 20.9179Z" fill="#1971BD"/>
</g>
<defs>
<clipPath id="clip0">
<rect width="32" height="32" fill="white"/>
</clipPath>
</defs>
</svg>
