<svg width="32" height="32" viewBox="0 0 32 32" fill="none" xmlns="http://www.w3.org/2000/svg">
<g clip-path="url(#clip0)">
<path fill-rule="evenodd" clip-rule="evenodd" d="M26.9368 12.9867C26.0984 12.4081 25.5076 11.536 25.2812 10.543C25.0549 9.5498 25.2094 8.50781 25.7143 7.62317C25.9639 7.18677 26.0769 6.68555 26.0387 6.1842C26.0005 5.68286 25.813 5.20459 25.5002 4.81091C25.1874 4.41736 24.7639 4.12659 24.2841 3.97607C23.8044 3.82568 23.2906 3.82251 22.8091 3.96704C21.8348 4.26416 20.7846 4.18494 19.866 3.74512C18.9473 3.30518 18.2272 2.53674 17.8478 1.59143C17.6627 1.12219 17.3406 0.719482 16.9235 0.435547C16.5065 0.151733 16.0136 0 15.5091 0C15.0046 0 14.5118 0.151733 14.0947 0.435547C13.6776 0.719482 13.3555 1.12219 13.1704 1.59143C12.7928 2.53589 12.0752 3.30457 11.1589 3.74597C10.2426 4.18726 9.19415 4.26941 8.22034 3.97595C7.73883 3.83142 7.22497 3.83459 6.7453 3.98499C6.26556 4.1355 5.84198 4.42627 5.52917 4.81995C5.21643 5.2135 5.02887 5.69189 4.99066 6.19312C4.95251 6.69446 5.06555 7.19568 5.31512 7.63208C5.81994 8.51685 5.97449 9.55872 5.74817 10.5519C5.52179 11.545 4.93103 12.4171 4.09265 12.9956C3.67676 13.2808 3.35614 13.6843 3.17254 14.1539C2.98895 14.6237 2.95086 15.1376 3.06311 15.6293C3.17541 16.1208 3.43298 16.5673 3.80224 16.9106C4.17157 17.254 4.63562 17.4784 5.13409 17.5546C6.13873 17.7126 7.04773 18.2412 7.68194 19.0364C8.3161 19.8314 8.62939 20.8352 8.56 21.8499C8.52362 22.3527 8.63922 22.8549 8.89184 23.2911C9.14441 23.7274 9.52234 24.0776 9.97656 24.2964C10.4307 24.5153 10.9402 24.5924 11.4388 24.5179C11.9374 24.4436 12.4021 24.2209 12.7726 23.879C13.5225 23.1925 14.5024 22.8116 15.5192 22.8116C16.5359 22.8116 17.5158 23.1925 18.2657 23.879C18.6362 24.2209 19.101 24.4436 19.5995 24.5179C20.0981 24.5924 20.6076 24.5153 21.0618 24.2964C21.516 24.0776 21.8939 23.7274 22.1465 23.2911C22.3991 22.8549 22.5147 22.3527 22.4783 21.8499C22.409 20.8352 22.7222 19.8314 23.3564 19.0364C23.9906 18.2412 24.8996 17.7126 25.9042 17.5546C26.4027 17.4784 26.8668 17.254 27.2361 16.9106C27.6054 16.5673 27.8629 16.1208 27.9752 15.6293C28.0875 15.1376 28.0494 14.6237 27.8658 14.1539C27.6822 13.6843 27.3616 13.2808 26.9457 12.9956L26.9368 12.9867ZM15.5103 20.9962C13.8832 20.9962 12.2928 20.5137 10.9399 19.6097C9.58716 18.7059 8.53277 17.4211 7.91015 15.918C7.28753 14.4148 7.12463 12.7607 7.44201 11.165C7.75946 9.56934 8.54291 8.10352 9.69336 6.953C10.8439 5.80261 12.3096 5.01904 13.9054 4.70166C15.5011 4.38428 17.1551 4.54724 18.6583 5.1698C20.1614 5.79248 21.4462 6.8468 22.3502 8.19958C23.254 9.55237 23.7365 11.1429 23.7365 12.7699C23.7341 14.9509 22.8667 17.0419 21.3245 18.5841C19.7823 20.1263 17.6912 20.9938 15.5103 20.9962ZM11.5495 26.0399C12.3548 25.92 13.1039 25.5558 13.6956 24.9963C13.9823 24.7333 14.3267 24.5411 14.7012 24.4354L11.387 31.7678C11.3722 31.7999 11.3533 31.8297 11.3308 31.8566C11.3047 31.8878 11.274 31.9149 11.2394 31.937C11.175 31.9781 11.1003 32 11.0239 32C10.9474 32 10.8727 31.9781 10.8083 31.937C10.744 31.8959 10.6927 31.8372 10.6607 31.7678L9.97467 30.351C9.7774 29.9424 9.44281 29.6162 9.02936 29.4294C8.6159 29.2428 8.1499 29.2074 7.71301 29.3296L6.19562 29.752C6.12213 29.7726 6.04425 29.7717 5.97125 29.7495C5.89819 29.7273 5.83307 29.6847 5.78351 29.6266C5.73395 29.5686 5.70196 29.4976 5.69147 29.422C5.68091 29.3463 5.69226 29.2694 5.72406 29.2L7.80688 24.5919C8.18591 25.0459 8.65857 25.4125 9.19244 25.6667C9.92138 26.0295 10.7441 26.1599 11.5495 26.0399ZM23.2158 24.5986L25.2986 29.2046H25.3008C25.3326 29.2739 25.3439 29.351 25.3334 29.4265C25.3229 29.5022 25.291 29.5731 25.2415 29.6311C25.1918 29.6892 25.1267 29.7318 25.0536 29.754C24.9806 29.7762 24.9028 29.7772 24.8293 29.7566L23.3118 29.3341C22.8749 29.2119 22.409 29.2473 21.9955 29.4341C21.5821 29.6207 21.2474 29.9469 21.0502 30.3555L20.3641 31.7723C20.3321 31.8417 20.2809 31.9004 20.2166 31.9415C20.1522 31.9828 20.0775 32.0046 20.001 32.0046C19.993 32.0046 19.9849 32.0044 19.9769 32.0039C19.9557 32.0027 19.9348 31.9996 19.9141 31.995C19.8687 31.985 19.8251 31.9669 19.7855 31.9415C19.7211 31.9004 19.6699 31.8417 19.6379 31.7723L16.3237 24.4399C16.6976 24.5466 17.0413 24.7396 17.3271 25.0032C17.9187 25.5626 18.6678 25.9269 19.4731 26.0468C20.2785 26.1666 21.1013 26.0364 21.8302 25.6736C22.3641 25.4193 22.8367 25.0526 23.2158 24.5986ZM11.7917 7.20471C12.8924 6.46924 14.1865 6.07666 15.5103 6.07666C17.2845 6.07959 18.9852 6.78577 20.2398 8.04028C21.4944 9.29492 22.2006 10.9956 22.2035 12.7699C22.2035 14.0936 21.811 15.3877 21.0755 16.4884C20.34 17.5891 19.2947 18.447 18.0717 18.9536C16.8486 19.4602 15.5029 19.5928 14.2045 19.3345C12.9061 19.0762 11.7135 18.4387 10.7775 17.5027C9.84137 16.5667 9.20398 15.374 8.94568 14.0757C8.68744 12.7773 8.81994 11.4315 9.32654 10.2085C9.83313 8.98547 10.691 7.94019 11.7917 7.20471ZM14.775 15.1522L18.9407 12.1106L18.9318 12.1084C19.0231 12.054 19.1022 11.9811 19.164 11.8945C19.2019 11.8413 19.2328 11.7836 19.2559 11.7228C19.2704 11.6847 19.282 11.6454 19.2903 11.6052C19.3119 11.501 19.3116 11.3936 19.2894 11.2894C19.2671 11.1854 19.2234 11.0872 19.1612 11.001C19.0989 10.9147 19.0194 10.8423 18.9277 10.7885C18.8359 10.7346 18.7339 10.7006 18.6283 10.6882C18.5226 10.676 18.4156 10.6858 18.3139 10.7172C18.2123 10.7485 18.1182 10.8007 18.0378 10.8702L14.5024 13.4515L13.7045 12.3162C13.6466 12.2338 13.5729 12.1635 13.4879 12.1095C13.4027 12.0554 13.3078 12.0188 13.2086 12.0015C13.1093 11.9841 13.0075 11.9865 12.9091 12.0085C12.8454 12.0228 12.7839 12.045 12.7261 12.0747C12.6946 12.0908 12.6642 12.1093 12.6352 12.1296C12.5527 12.1876 12.4825 12.2612 12.4285 12.3463C12.3744 12.4314 12.3378 12.5264 12.3204 12.6256C12.3132 12.6672 12.3094 12.7092 12.3091 12.7512C12.3086 12.8096 12.3148 12.8678 12.3275 12.925C12.3495 13.0234 12.3906 13.1165 12.4486 13.199L13.6956 14.9734C13.7541 15.0568 13.8287 15.1277 13.9149 15.1819C13.9672 15.2147 14.0231 15.2411 14.0815 15.2605C14.1194 15.2731 14.1583 15.2827 14.1978 15.2893C14.2577 15.2992 14.3185 15.302 14.3788 15.2976C14.4196 15.2946 14.4602 15.2883 14.5002 15.2788C14.5993 15.2552 14.6927 15.2123 14.775 15.1522Z" fill="#1971BD"/>
</g>
<defs>
<clipPath id="clip0">
<rect width="32" height="32" fill="white"/>
</clipPath>
</defs>
</svg>
