<svg xmlns="http://www.w3.org/2000/svg" width="14" height="14" viewBox="0 0 14 14">
  <g id="Certificates" transform="translate(22551 -15931)">
    <rect id="Rectangle_1801" data-name="Rectangle 1801" width="14" height="14" transform="translate(-22551 15931)" fill="none"/>
    <g id="Group_2024" data-name="Group 2024" transform="translate(-22624.086 15294.11)">
      <g id="Group_2017" data-name="Group 2017">
        <g id="Group_2016" data-name="Group 2016">
          <path id="Path_2732" data-name="Path 2732" d="M79.2,647.826a1.737,1.737,0,0,1-1.97.295,1.788,1.788,0,0,1-.607-.47l-.911,2.016a.174.174,0,0,0,.206.241l.664-.184a.846.846,0,0,1,.989.447l.3.62a.175.175,0,0,0,.317,0l1.45-3.207A1.07,1.07,0,0,0,79.2,647.826Z" fill="#0071bd"/>
        </g>
      </g>
      <g id="Group_2019" data-name="Group 2019">
        <g id="Group_2018" data-name="Group 2018">
          <path id="Path_2733" data-name="Path 2733" d="M84.274,649.667l-.912-2.016a1.784,1.784,0,0,1-.606.47,1.738,1.738,0,0,1-1.971-.295,1.07,1.07,0,0,0-.438-.246l1.45,3.207a.175.175,0,0,0,.317,0l.3-.62a.846.846,0,0,1,.989-.447l.664.184a.175.175,0,0,0,.207-.241Z" fill="#0071bd"/>
        </g>
      </g>
      <g id="Group_2021" data-name="Group 2021">
        <g id="Group_2020" data-name="Group 2020">
          <path id="Path_2734" data-name="Path 2734" d="M84.99,642.572a1.779,1.779,0,0,1-.535-2.343,1.1,1.1,0,0,0-1.276-1.6,1.779,1.779,0,0,1-2.165-1.043,1.1,1.1,0,0,0-2.046,0,1.78,1.78,0,0,1-2.166,1.043,1.1,1.1,0,0,0-1.276,1.6,1.778,1.778,0,0,1-.534,2.343,1.1,1.1,0,0,0,.455,1.995,1.78,1.78,0,0,1,1.5,1.879,1.1,1.1,0,0,0,1.843.887,1.779,1.779,0,0,1,2.4,0,1.1,1.1,0,0,0,1.844-.887,1.778,1.778,0,0,1,1.5-1.879,1.1,1.1,0,0,0,.456-1.995Zm-5,3.5a3.6,3.6,0,1,1,3.6-3.6A3.6,3.6,0,0,1,79.991,646.076Z" fill="#0071bd"/>
        </g>
      </g>
      <g id="Group_2023" data-name="Group 2023">
        <g id="Group_2022" data-name="Group 2022">
          <path id="Path_2735" data-name="Path 2735" d="M79.991,639.549a2.928,2.928,0,1,0,2.928,2.928A2.931,2.931,0,0,0,79.991,639.549Zm1.5,2.644-1.822,1.331a.337.337,0,0,1-.2.064.331.331,0,0,1-.275-.142l-.545-.777a.335.335,0,0,1,.549-.385l.349.5,1.546-1.129a.336.336,0,1,1,.4.542Z" fill="#0071bd"/>
        </g>
      </g>
    </g>
  </g>
</svg>
