<svg width="32" height="32" viewBox="0 0 32 32" fill="none" xmlns="http://www.w3.org/2000/svg">
<g clip-path="url(#clip0)">
<path d="M28.2363 20.3932H20.9773C20.8791 20.3931 20.7846 20.4306 20.7133 20.4982C20.642 20.5657 20.5993 20.6581 20.5942 20.7561V28.0353C20.5942 28.1315 20.6324 28.2239 20.7005 28.2919C20.7685 28.36 20.8609 28.3982 20.9571 28.3982H25.0101C25.1063 28.3982 25.1986 28.36 25.2667 28.2919C25.3348 28.2239 25.373 28.1315 25.373 28.0353C25.373 27.939 25.3348 27.8467 25.2667 27.7786C25.1986 27.7106 25.1063 27.6723 25.0101 27.6723H21.2596V24.5066H22.9533V25.8374C22.9533 25.9337 22.9916 26.026 23.0597 26.0941C23.1277 26.1621 23.22 26.2004 23.3163 26.2004C23.4126 26.2004 23.5049 26.1621 23.5729 26.0941C23.641 26.026 23.6792 25.9337 23.6792 25.8374V22.4499C23.6792 22.3536 23.641 22.2613 23.5729 22.1933C23.5049 22.1252 23.4126 22.087 23.3163 22.087C23.22 22.087 23.1277 22.1252 23.0597 22.1933C22.9916 22.2613 22.9533 22.3536 22.9533 22.4499V23.7807H21.2596V21.1191H24.8891V22.9338C24.8891 23.0301 24.9273 23.1224 24.9954 23.1905C25.0634 23.2585 25.1558 23.2968 25.252 23.2968H26.9458C26.9935 23.2995 27.0412 23.2928 27.0863 23.277C27.1314 23.2613 27.1729 23.2368 27.2085 23.2049C27.2441 23.1731 27.273 23.1345 27.2937 23.0915C27.3144 23.0484 27.3263 23.0017 27.3289 22.954C27.3346 22.9057 27.33 22.8568 27.3154 22.8104C27.3007 22.764 27.2764 22.7213 27.244 22.6851C27.2115 22.6489 27.1718 22.6199 27.1273 22.6002C27.0829 22.5806 27.0347 22.5705 26.9861 22.5709H25.615V21.1191H27.7927V25.4745H25.252C25.1558 25.4745 25.0634 25.5127 24.9954 25.5808C24.9273 25.6488 24.8891 25.7412 24.8891 25.8374C24.8891 25.9337 24.9273 26.026 24.9954 26.0941C25.0634 26.1621 25.1558 26.2004 25.252 26.2004H27.7927V27.6522H27.1878C27.0915 27.6522 26.9992 27.6904 26.9311 27.7585C26.863 27.8265 26.8248 27.9189 26.8248 28.0151C26.8248 28.1114 26.863 28.2037 26.9311 28.2718C26.9992 28.3398 27.0915 28.3781 27.1878 28.3781H28.2363C28.3325 28.3781 28.4248 28.3398 28.4929 28.2718C28.561 28.2037 28.5992 28.1114 28.5992 28.0151V20.7561C28.5992 20.6599 28.561 20.5676 28.4929 20.4995C28.4248 20.4314 28.3325 20.3932 28.2363 20.3932Z" fill="#1971BD" stroke="#1971BD" stroke-width="0.25" stroke-miterlimit="10"/>
<path d="M30.9382 16.4814C30.3788 15.4994 29.61 14.6525 28.6866 14.0008C27.7631 13.3492 26.7076 12.9088 25.5948 12.7108L24.2035 12.5696H23.5986C23.6349 10.743 23.0591 8.95677 21.9629 7.4952C20.8667 6.03362 19.3131 4.98073 17.5494 4.5041C16.6982 4.20836 15.8083 4.03854 14.908 4C13.5247 4.05747 12.1769 4.45564 10.9845 5.15915C9.79202 5.86267 8.79173 6.84976 8.07245 8.03277C7.34363 7.65083 6.53595 7.44374 5.71328 7.42785C5.01224 7.42605 4.31919 7.57659 3.68207 7.86904C3.04495 8.16149 2.47897 8.58887 2.0233 9.12161C1.29368 9.98184 0.883212 11.0675 0.861171 12.1952C0.83913 13.323 1.20687 14.4238 1.90231 15.3119C0.74455 16.6582 0.0765103 18.3568 0.00691356 20.1311C-0.0386527 21.002 0.141612 21.8699 0.530225 22.6507C0.918838 23.4314 1.50261 24.0985 2.22494 24.5873C3.96225 25.3159 5.86107 25.5733 7.72966 25.3333C8.3749 25.3333 8.99998 25.3333 9.74604 25.3333C13.0126 25.1317 16.2993 25.3333 19.586 25.3333V20.1311C19.5771 19.9548 19.631 19.7811 19.738 19.6408C19.8451 19.5006 19.9984 19.4028 20.1707 19.3648H28.8009C29.0041 19.3648 29.199 19.4456 29.3427 19.5893C29.4864 19.733 29.5671 19.9278 29.5671 20.1311V24.4058C30.4274 24.01 31.1353 23.3446 31.5835 22.5104C31.9661 21.5271 32.1073 20.4664 31.995 19.4173C31.8827 18.3682 31.5203 17.3614 30.9382 16.4814ZM18.7391 16.3604C18.4563 16.9743 18.0003 17.4922 17.4272 17.8505C16.854 18.2087 16.1886 18.3916 15.5129 18.3768C14.6237 18.3947 13.7601 18.0781 13.0932 17.4896L12.8513 17.2476L12.7101 17.1267H12.5085L11.9237 17.4493V14.7272L13.3957 15.4531L14.4845 15.9773L13.6982 16.5217C13.9055 16.7999 14.1769 17.024 14.4893 17.1749C14.8017 17.3258 15.1459 17.3992 15.4927 17.3888C15.8731 17.3961 16.2505 17.3205 16.5987 17.1673C16.9468 17.0141 17.2575 16.7869 17.5091 16.5016L18.3762 15.5337H18.598C18.8399 15.7152 18.9206 16.0983 18.7391 16.3604ZM18.9206 14.344L16.3598 13.1141L16.9042 12.7108L17.1663 12.5293C16.9535 12.2663 16.6824 12.0564 16.3744 11.9164C16.0664 11.7764 15.73 11.7101 15.3919 11.7227C14.9659 11.7151 14.5444 11.8122 14.1647 12.0056C13.785 12.199 13.4586 12.4827 13.2142 12.8318V12.9527C13.0932 13.1745 12.9723 13.4165 12.7303 13.4165C12.6373 13.4367 12.541 13.4367 12.448 13.4165C12.3711 13.3967 12.2999 13.3589 12.2403 13.3064C12.1808 13.2538 12.1345 13.1879 12.1052 13.1141C12.092 12.8878 12.1639 12.6648 12.3069 12.489L12.69 11.9647C13.3182 11.2575 14.2001 10.8269 15.1441 10.7665C16.0881 10.7061 17.0177 11.0208 17.7309 11.6421L18.0132 11.9042L18.1544 11.9445H18.2955L18.9609 11.6018L18.9206 14.344Z" fill="#1971BD"/>
</g>
<defs>
<clipPath id="clip0">
<rect width="32" height="32" fill="white"/>
</clipPath>
</defs>
</svg>
