<svg width="32" height="32" viewBox="0 0 32 32" fill="none" xmlns="http://www.w3.org/2000/svg">
<g clip-path="url(#clip0)">
<path d="M25.8595 17.6867C24.4561 17.1157 22.8976 17.0517 21.4522 17.5058C20.0068 17.9598 18.7649 18.9036 17.9402 20.1745C17.6126 20.6905 17.351 21.2456 17.1615 21.8267C16.7898 23.0388 16.7789 24.3329 17.13 25.5512C17.4811 26.7694 18.1791 27.8592 19.1389 28.6876C20.0987 29.516 21.2788 30.0472 22.5353 30.2164C23.7918 30.3857 25.0704 30.1857 26.2151 29.6408C27.3599 29.0959 28.3214 28.2297 28.9824 27.1477C29.6433 26.0658 29.9752 24.8149 29.9375 23.5477C29.8998 22.2804 29.4941 21.0515 28.77 20.0107C28.0459 18.97 27.0346 18.1625 25.8595 17.6867ZM23.4856 28.7015C22.8306 28.7115 22.18 28.5921 21.5713 28.3501C20.9625 28.1081 20.4075 27.7483 19.9382 27.2913C19.4688 26.8343 19.0943 26.2891 18.8362 25.6871C18.5781 25.085 18.4414 24.4378 18.4339 23.7828C18.4419 23.1298 18.5774 22.4847 18.8327 21.8837C19.1011 21.2798 19.4813 20.7321 19.9532 20.2694C20.5344 19.6992 21.2467 19.2803 22.0275 19.0494C22.8084 18.8186 23.6339 18.783 24.4318 18.9456C25.2296 19.1082 25.9753 19.4642 26.6035 19.9822C27.2318 20.5002 27.7232 21.1645 28.0349 21.9167C28.3465 22.669 28.4687 23.4862 28.3909 24.2967C28.313 25.1073 28.0374 25.8863 27.5883 26.5655C27.1392 27.2446 26.5303 27.8032 25.815 28.1922C25.0996 28.5812 24.2998 28.7887 23.4856 28.7964V28.7015Z" fill="#1971BD"/>
<path d="M26.866 23.384H27.6066C27.6156 23.2575 27.6156 23.1306 27.6066 23.0042C27.4756 22.249 27.1256 21.5491 26.6001 20.9911L26.0873 21.4659L25.5746 20.9911L26.0873 20.4594C25.5987 20.046 25.0197 19.7532 24.3971 19.6048L23.8084 19.4908C23.8084 19.6238 23.8084 19.7377 23.8084 19.8327V22.1875C23.8084 22.4534 23.8084 22.6623 24.1123 22.7763C24.1653 22.7994 24.2129 22.8333 24.2521 22.8758C24.2914 22.9183 24.3213 22.9685 24.3402 23.0232C24.4541 23.308 24.682 23.308 24.9289 23.308H26.0684V24.0297H24.701C24.6311 24.0196 24.5598 24.0327 24.4981 24.067C24.4363 24.1013 24.3875 24.1549 24.3592 24.2196C24.2443 24.4305 24.0625 24.5972 23.8424 24.6935C23.6224 24.7898 23.3766 24.8101 23.1437 24.7513C22.9295 24.7051 22.7332 24.5982 22.5783 24.4432C22.4233 24.2883 22.3163 24.092 22.2701 23.8778C22.2163 23.6428 22.241 23.3967 22.3405 23.1772C22.44 22.9576 22.6087 22.7768 22.8209 22.6623C22.8856 22.634 22.9392 22.5852 22.9735 22.5234C23.0078 22.4617 23.0209 22.3904 23.0108 22.3205V19.7377C23.0108 19.7377 23.0108 19.6048 23.0108 19.5478C22.3384 19.6097 21.6889 19.824 21.1117 20.1745L20.6749 20.4973L21.1497 21.0101L20.5799 21.6368L20.2001 20.9911C20.0076 21.2291 19.8361 21.4833 19.6873 21.7508C19.4357 22.2367 19.2749 22.7644 19.2126 23.308H19.9532V24.0297H19.2126C19.293 24.871 19.6312 25.6669 20.1811 26.3086L20.6939 25.8148L21.2256 26.3276L20.7319 26.8594C21.0456 27.1355 21.4056 27.3541 21.7954 27.5051C22.1809 27.6729 22.5916 27.7756 23.0108 27.8089C23.0108 27.562 23.0108 27.3151 23.0108 27.0873H23.7514V27.8279C24.6022 27.7399 25.4081 27.403 26.0684 26.8594L25.5746 26.3466L26.1443 25.7389L26.5811 26.3466C27.1155 25.7173 27.4524 24.9444 27.5497 24.1246H26.809L26.866 23.384Z" fill="#1971BD"/>
<path d="M23.3716 24.1056C23.4668 24.117 23.5627 24.092 23.6401 24.0357C23.7176 23.9793 23.7709 23.8958 23.7894 23.8018C23.7948 23.7091 23.7643 23.6179 23.7041 23.5472C23.644 23.4764 23.5589 23.4316 23.4666 23.422C23.4202 23.4167 23.3732 23.421 23.3285 23.4347C23.2838 23.4483 23.2424 23.4709 23.2068 23.5012C23.1712 23.5314 23.1422 23.5687 23.1215 23.6106C23.1009 23.6525 23.0891 23.6982 23.0868 23.7448C23.0787 23.7887 23.0797 23.8338 23.0899 23.8772C23.1001 23.9206 23.1192 23.9615 23.146 23.9971C23.1727 24.0328 23.2066 24.0626 23.2454 24.0845C23.2843 24.1065 23.3272 24.1201 23.3716 24.1246V24.1056Z" fill="#1971BD"/>
<path d="M16.3639 19.092C17.1335 17.9221 18.1823 16.9622 19.4157 16.2991C20.6491 15.636 22.0282 15.2905 23.4286 15.2938C24.5185 15.2932 25.5972 15.5128 26.6001 15.9395C27.6919 16.3826 28.6776 17.0516 29.4926 17.9026C30.3076 18.7536 30.9334 19.7673 31.3289 20.8772C31.4176 20.7614 31.5 20.641 31.5758 20.5163C31.9671 19.5359 32.1179 18.4759 32.0155 17.4252C31.913 16.3745 31.5604 15.3636 30.987 14.4772C30.4258 13.4914 29.6556 12.6406 28.7303 11.9844C27.8051 11.3282 26.7474 10.8826 25.6316 10.679C25.1853 10.6065 24.735 10.5621 24.2832 10.546H23.6755C23.7234 8.6976 23.1455 6.88718 22.0356 5.40836C20.9256 3.92954 19.3486 2.86904 17.5603 2.39884C16.6993 2.13242 15.8029 1.99796 14.9016 2.00002C13.5131 2.03816 12.1556 2.4187 10.9496 3.10782C9.74365 3.79695 8.72659 4.77332 7.98883 5.95017C7.27788 5.60649 6.49953 5.42488 5.70989 5.41842C4.78653 5.42127 3.88276 5.68499 3.10276 6.17917C2.32276 6.67335 1.69828 7.37788 1.30129 8.21155C0.904302 9.04523 0.750968 9.97411 0.858962 10.8911C0.966955 11.8082 1.33188 12.676 1.91168 13.3947C0.791691 14.6917 0.124983 16.3185 0.0125661 18.0285C-0.0497974 18.9144 0.120723 19.8012 0.507187 20.6008C0.89365 21.4003 1.4826 22.0849 2.21553 22.5864C3.94836 23.3106 5.83957 23.5723 7.70396 23.346H9.60307C11.3882 23.2321 13.1924 23.2511 14.9775 23.346C15.0208 21.8271 15.495 20.3517 16.3449 19.092H16.3639ZM12.2238 10.489C12.3333 10.3061 12.4605 10.1343 12.6037 9.97628C12.9084 9.61045 13.2836 9.30964 13.707 9.09173C14.1303 8.87382 14.5932 8.74326 15.068 8.70783C15.5428 8.67239 16.0199 8.7328 16.4709 8.88546C16.9219 9.03812 17.3376 9.27991 17.6933 9.59646L17.9781 9.86234L18.1301 9.99528H18.263L19.0037 9.59646V12.4451L16.3639 11.1158L16.9146 10.7169L17.1046 10.546C16.8963 10.278 16.6279 10.0628 16.3211 9.91764C16.0143 9.77249 15.6777 9.7015 15.3384 9.71041C14.937 9.73144 14.5456 9.84319 14.1937 10.0373C13.8417 10.2313 13.5383 10.5027 13.3063 10.8309C13.3126 10.875 13.3126 10.9197 13.3063 10.9638C13.1924 11.1917 13.0594 11.4196 12.8126 11.4196C12.7191 11.4437 12.6211 11.4437 12.5277 11.4196C12.3966 11.3595 12.2943 11.2504 12.2428 11.1158C12.1642 10.9153 12.1575 10.6939 12.2238 10.489ZM12.8505 15.2938L12.6986 15.1609L12.5087 15.2938L11.92 15.6166V12.73L13.4013 13.3947L14.4648 13.9264L13.7051 14.4772C13.9112 14.7536 14.1813 14.9759 14.4923 15.1248C14.8033 15.2736 15.1458 15.3447 15.4903 15.3318C15.8497 15.3231 16.2035 15.2412 16.53 15.091C16.8566 14.9408 17.149 14.7254 17.3894 14.4582C17.527 14.2627 17.6538 14.0598 17.7692 13.8505C17.9022 13.5846 18.0541 13.4706 18.244 13.4706H18.4719C18.7758 13.6226 18.8517 13.8884 18.6808 14.2683C18.3928 14.8784 17.9352 15.3927 17.3626 15.7496C16.7901 16.1066 16.1269 16.2912 15.4523 16.2813C14.5922 16.3008 13.7523 16.0186 13.0784 15.4837L12.8505 15.2938Z" fill="#1971BD"/>
</g>
<defs>
<clipPath id="clip0">
<rect width="32" height="32" fill="white"/>
</clipPath>
</defs>
</svg>
