<svg width="32" height="32" viewBox="0 0 32 32" fill="none" xmlns="http://www.w3.org/2000/svg">
<path d="M18.444 28.6991C18.3632 28.6071 18.3186 28.4888 18.3186 28.3663C18.3186 28.2438 18.3632 28.1255 18.444 28.0335C18.5696 27.904 18.6719 27.7538 18.7466 27.5897L16.5277 25.3707C16.371 25.448 16.228 25.5502 16.1041 25.6733C16.0608 25.7179 16.0091 25.7533 15.9519 25.7774C15.8947 25.8016 15.8333 25.8141 15.7712 25.8141C15.7091 25.8141 15.6477 25.8016 15.5905 25.7774C15.5334 25.7533 15.4816 25.7179 15.4384 25.6733C15.3604 25.5879 15.3172 25.4763 15.3172 25.3607C15.3172 25.245 15.3604 25.1335 15.4384 25.048C15.9017 24.6811 16.4399 24.4204 17.0151 24.2845C17.5902 24.1486 18.1882 24.1406 18.7668 24.2613C18.3835 21.1145 19.9771 19.7831 22.8012 20.2269C22.6805 19.6483 22.6884 19.0504 22.8244 18.4752C22.9603 17.9001 23.221 17.3618 23.5879 16.8985C23.6831 16.8162 23.8049 16.7709 23.9308 16.7709C24.0567 16.7709 24.1784 16.8162 24.2737 16.8985C24.3602 16.9918 24.4083 17.1142 24.4083 17.2414C24.4083 17.3686 24.3602 17.4911 24.2737 17.5844C24.1541 17.7144 24.0584 17.8647 23.9913 18.0281L26.2304 20.0857C26.3871 20.0084 26.5301 19.9062 26.654 19.7831C26.6973 19.7386 26.749 19.7032 26.8062 19.679C26.8633 19.6548 26.9248 19.6424 26.9869 19.6424C27.0489 19.6424 27.1104 19.6548 27.1675 19.679C27.2247 19.7032 27.2764 19.7386 27.3197 19.7831C27.3636 19.8246 27.3987 19.8746 27.4226 19.9301C27.4465 19.9856 27.4589 20.0454 27.4589 20.1059C27.4589 20.1663 27.4465 20.2261 27.4226 20.2816C27.3987 20.3371 27.3636 20.3871 27.3197 20.4286C26.8587 20.7765 26.3284 21.0214 25.7646 21.1466C25.2009 21.2719 24.6168 21.2747 24.0518 21.1548C24.4351 24.2815 22.8415 25.6128 20.0174 25.1892C20.1381 25.7677 20.1302 26.3657 19.9942 26.9409C19.8583 27.516 19.5976 28.0543 19.2307 28.5176C19.1408 28.6027 19.0217 28.6501 18.8979 28.6501C18.7741 28.6501 18.655 28.6027 18.565 28.5176L18.444 28.6991ZM17.6371 25.1892L19.0492 26.5811C19.0894 26.1382 19.0894 25.6926 19.0492 25.2497C18.7136 25.2197 18.3761 25.2197 18.0406 25.2497H17.6371V25.1892ZM19.7955 24.4428C20.2311 24.4936 20.6711 24.4936 21.1067 24.4428L19.7148 23.0308C19.6899 23.4829 19.717 23.9364 19.7955 24.3823V24.4428ZM19.9771 21.9819L22.196 24.2008C22.5206 24.0584 22.7799 23.7992 22.9222 23.4746L20.7033 21.2557C20.3719 21.4053 20.1065 21.6706 19.9569 22.002L19.9771 21.9819ZM21.7926 20.9934L23.1844 22.3853C23.2246 21.9424 23.2246 21.4968 23.1844 21.0539C22.8485 21.034 22.5117 21.034 22.1758 21.0539H21.7926V20.9934ZM23.8098 20.2672C24.2521 20.3174 24.6987 20.3174 25.1411 20.2672L23.7291 18.8552C23.6789 19.2976 23.6789 19.7442 23.7291 20.1865L23.8098 20.2672ZM2.24589 23.5956C1.51813 23.1105 0.929049 22.4445 0.53649 21.6629C0.143931 20.8813 -0.0386061 20.011 0.006802 19.1376C0.0764269 17.3626 0.744737 15.6634 1.90297 14.3165C1.21594 13.4282 0.853347 12.3316 0.875363 11.2088C0.897378 10.0861 1.30268 9.00457 2.024 8.14386C2.47706 7.60617 3.04224 7.17408 3.67992 6.87788C4.31761 6.58169 5.01236 6.42856 5.71548 6.42924C6.53878 6.44289 7.34731 6.65021 8.0756 7.0344C8.8005 5.8557 9.80244 4.87198 10.9943 4.16885C12.1861 3.46571 13.5316 3.06446 14.9139 3C15.8165 3.00253 16.7138 3.13848 17.5766 3.40344C19.3375 3.88654 20.8877 4.94148 21.9832 6.40222C23.0788 7.86296 23.6575 9.64655 23.6282 11.4722H24.2334C24.6772 11.4722 25.1209 11.5126 25.5647 11.5933C26.6806 11.7912 27.7394 12.2316 28.6666 12.8834C29.5937 13.5352 30.3665 14.3824 30.9305 15.3654C31.5064 16.2529 31.8618 17.2651 31.9671 18.3178C32.0723 19.3705 31.9244 20.4331 31.5356 21.417C31.0804 22.2414 30.3736 22.8987 29.5184 23.293C28.0055 23.5351 26.4926 23.7368 24.9797 23.878C25.1112 23.2062 25.0695 22.5121 24.8587 21.8608C25.0195 21.8414 25.182 21.8414 25.3428 21.8608C26.1169 21.7807 26.8729 21.5764 27.5819 21.2557C27.8028 21.1508 27.9961 20.996 28.1467 20.8034C28.2972 20.6108 28.4009 20.3858 28.4493 20.1462C28.4389 19.7689 28.2878 19.4092 28.0257 19.1376C27.8905 18.9958 27.7277 18.8833 27.5472 18.807C27.3668 18.7306 27.1727 18.6921 26.9768 18.6938C26.8208 18.7101 26.6697 18.7582 26.533 18.835L25.1613 17.5037C25.3293 17.3079 25.4159 17.0553 25.4034 16.7976C25.3745 16.567 25.2943 16.3458 25.1686 16.1503C25.043 15.9548 24.875 15.79 24.6772 15.668C24.3473 15.5071 23.9753 15.4536 23.6134 15.5151C23.2516 15.5766 22.9181 15.75 22.66 16.0109C21.9198 16.8798 21.5377 17.9975 21.5908 19.1376C20.5122 19.008 19.4231 19.2731 18.5247 19.884C17.8704 20.8571 17.513 21.9995 17.4959 23.172C16.8504 22.8896 14.7727 23.6965 13.6632 24.1604C13.3973 24.2816 13.1082 24.3435 12.816 24.342C11.646 24.342 10.5366 24.342 9.66919 24.342H7.65199C5.81584 24.5542 3.95586 24.2974 2.24589 23.5956ZM18.7668 15.3856C18.9281 15.0023 18.7668 14.7199 18.565 14.5787H18.323L17.4556 15.5672C17.2012 15.8479 16.8894 16.0706 16.5413 16.2203C16.1933 16.37 15.8171 16.443 15.4384 16.4346C15.0948 16.4566 14.7513 16.3903 14.4406 16.242C14.1298 16.0937 13.8622 15.8683 13.6632 15.5873L14.4298 15.0225L13.3607 14.498L11.8679 13.7718V16.5959L12.4731 16.2732H12.6748L12.7959 16.3942L13.0379 16.6363C13.7071 17.2216 14.5696 17.5379 15.4586 17.5238C16.1617 17.5448 16.8547 17.3516 17.4455 16.9697C18.0363 16.5878 18.4971 16.0354 18.7668 15.3856ZM17.1732 11.5529L16.9311 11.7345L16.3865 12.1379L18.9483 13.3684V10.5242L18.2826 10.8671L18.1616 10.9478L18.0204 10.8066L17.738 10.5443C17.3858 10.234 16.976 9.99624 16.5318 9.84452C16.0877 9.6928 15.618 9.63013 15.1496 9.66011C14.6812 9.69009 14.2233 9.81212 13.8021 10.0192C13.3809 10.2263 13.0047 10.5144 12.695 10.8671C12.556 11.0334 12.428 11.2086 12.3117 11.3916C12.1766 11.5716 12.1056 11.7918 12.11 12.0169C12.1647 12.1599 12.2734 12.2758 12.4126 12.3396H12.6748C12.9169 12.3396 13.0581 12.0976 13.1791 11.8757V11.7546C13.4231 11.4082 13.7462 11.125 14.1216 10.9285C14.497 10.732 14.9138 10.628 15.3375 10.625C15.6629 10.6327 15.9827 10.7106 16.2751 10.8533C16.5676 10.9961 16.8258 11.2003 17.032 11.4521L17.1732 11.5529Z" fill="#1971BD"/>
</svg>
