<svg width="32" height="32" viewBox="0 0 32 32" fill="none" xmlns="http://www.w3.org/2000/svg">
<path d="M10.4709 30.1604H10.0057C9.01486 30.1604 9.01486 30.1604 8.87331 29.1493C8.85016 28.9574 8.76069 28.7797 8.62038 28.6467C8.48007 28.5138 8.29772 28.4341 8.10486 28.4213C7.92381 28.4389 7.75004 28.5015 7.59931 28.6033C7.19486 28.9066 7.01286 29.0482 6.83086 29.0482C6.64886 29.0482 6.44664 28.8662 6.08264 28.5224L5.94108 28.3809C5.29397 27.7338 5.29397 27.7338 5.79953 27.0462L5.96131 26.844C6.06597 26.6524 6.09284 26.4279 6.03636 26.217C5.97988 26.0062 5.84438 25.8251 5.65797 25.7115H5.45575H5.29397C4.32331 25.57 4.32331 25.57 4.34353 24.66V24.4375C4.34353 23.4467 4.34353 23.4467 5.3142 23.3051C5.53285 23.2538 5.72933 23.1339 5.87489 22.9629C6.02045 22.7918 6.10742 22.5787 6.12308 22.3547V22.2333C6.08616 22.1653 6.03834 22.1038 5.98153 22.0513V21.8895C5.47597 21.2222 5.47597 21.2222 5.98153 20.6155L6.08264 20.3729L6.54775 19.9078C6.58514 19.851 6.63624 19.8045 6.69632 19.7727C6.75641 19.7409 6.82355 19.7248 6.89153 19.7258C7.01879 19.7329 7.13991 19.7828 7.23531 19.8673H7.33642L7.51842 20.0089C7.57976 20.1122 7.66508 20.1992 7.76716 20.2625C7.86924 20.3259 7.98507 20.3637 8.10486 20.3729C8.26785 20.3739 8.42824 20.332 8.56997 20.2515C8.67759 20.2041 8.77024 20.1281 8.83793 20.0319C8.90563 19.9357 8.94583 19.8229 8.95419 19.7055V19.5235C8.95419 18.7147 8.95419 18.654 9.76308 18.654H10.4911C11.1989 18.654 11.2191 18.654 11.3404 19.7258C11.3817 19.9094 11.4843 20.0736 11.6314 20.1912C11.7784 20.3088 11.961 20.3729 12.1493 20.3729C12.3091 20.3758 12.4655 20.3261 12.5942 20.2313L12.7964 20.0695C13.0795 19.8471 13.2413 19.7258 13.4031 19.7258C13.5649 19.7258 13.7469 19.9078 14.1311 20.292H14.1715C14.8995 21.0402 14.8995 21.0402 14.4142 21.6671L14.1715 21.9704C14.0643 22.1542 14.0318 22.3721 14.0807 22.5791C14.1297 22.7861 14.2563 22.9664 14.4344 23.0827L14.6973 23.1838C15.7691 23.3253 15.7691 23.3253 15.7893 24.4375C15.8095 25.5498 15.7893 25.4487 14.7782 25.6104C14.6359 25.6232 14.4999 25.6753 14.3856 25.7611C14.2713 25.8468 14.1832 25.9627 14.1311 26.0958C14.0737 26.2319 14.0546 26.3811 14.076 26.5273C14.0974 26.6734 14.1584 26.8109 14.2524 26.9249C14.8389 27.7135 14.8389 27.7135 14.1513 28.4213H14.1715C13.7469 28.846 13.5649 29.0482 13.3626 29.0482C13.1604 29.0482 13.0593 28.9269 12.7964 28.7246L12.5133 28.5224C12.403 28.4592 12.276 28.431 12.1493 28.4415C11.9656 28.4357 11.7854 28.4926 11.6384 28.6029C11.4914 28.7132 11.3863 28.8702 11.3404 29.0482V29.1493C11.1786 30.0795 11.1584 30.1604 10.4709 30.1604ZM10.1271 21.5458C9.3655 21.5458 8.63511 21.8483 8.09659 22.3868C7.55807 22.9253 7.25553 23.6557 7.25553 24.4173C7.25553 25.1789 7.55807 25.9093 8.09659 26.4478C8.63511 26.9863 9.3655 27.2889 10.1271 27.2889C10.8833 27.2889 11.6086 26.9885 12.1433 26.4537C12.678 25.919 12.9784 25.1938 12.9784 24.4375C12.9784 23.6813 12.678 22.9561 12.1433 22.4213C11.6086 21.8866 10.8833 21.5862 10.1271 21.5862V21.5458ZM24.95 26.2373H24.2826C23.7164 26.2373 23.6153 26.116 23.5546 25.57C23.5546 25.57 23.5546 25.57 23.5546 25.4284C23.5546 25.2869 23.3726 25.024 23.1704 25.024C23.0677 25.0269 22.9686 25.0623 22.8873 25.1251C22.7001 25.2661 22.4871 25.3691 22.2604 25.4284C22.0784 25.4284 21.9369 25.2869 21.6537 24.9633L21.3706 24.66C21.0471 24.296 21.0471 24.1747 21.3706 23.7904C21.4763 23.6947 21.5474 23.5667 21.5729 23.4264C21.5729 23.1635 21.4515 23.022 21.0875 22.9411C20.7235 22.8602 20.4202 22.7389 20.4404 22.1322C20.4298 21.9976 20.4298 21.8624 20.4404 21.7278C20.4404 21.1009 20.5617 20.9998 21.1886 20.9593C21.4448 20.9593 21.6066 20.8784 21.674 20.7167C21.7055 20.6265 21.7108 20.5293 21.6893 20.4362C21.6678 20.3432 21.6204 20.2581 21.5526 20.1909C21.2089 19.6853 21.2089 19.5438 21.674 19.1191L21.9571 18.8764C22.1795 18.654 22.3615 18.5327 22.5031 18.5327C22.6446 18.5327 22.8266 18.654 23.0693 18.836C23.173 18.953 23.3179 19.0254 23.4737 19.0382C23.6557 19.0382 23.7973 18.8562 23.858 18.5529C23.9186 18.2495 24.04 17.8653 24.4646 17.8653H25.1522C25.7184 17.8653 25.7993 17.9867 25.86 18.5529C25.9206 19.1191 26.0015 19.1191 26.224 19.1191C26.394 19.1077 26.5564 19.0441 26.6891 18.9371C26.8295 18.8232 26.9965 18.7467 27.1744 18.7147C27.3362 18.7147 27.4777 18.836 27.68 19.0787L27.8013 19.2L27.9024 19.3011C28.408 19.8673 28.408 19.928 27.9024 20.4942C27.8583 20.5246 27.8207 20.5633 27.7918 20.6083C27.7628 20.6533 27.743 20.7035 27.7336 20.7562C27.7242 20.8089 27.7254 20.8629 27.737 20.9151C27.7486 20.9673 27.7705 21.0167 27.8013 21.0604C27.8555 21.1454 27.9381 21.2083 28.0344 21.238C28.1308 21.2676 28.2345 21.262 28.3271 21.2222C29.0348 21.3638 29.0753 21.4244 29.0551 22.1322C29.0551 22.2738 29.0551 22.3951 29.0551 22.5367C29.0551 23.0624 28.9337 23.1635 28.408 23.2242C27.8822 23.2849 27.862 23.3455 27.8013 23.4871C27.7406 23.6287 27.8013 23.8107 28.0035 24.0938C28.2057 24.3769 28.2664 24.66 28.0035 25.0038C27.8444 25.1561 27.6755 25.2979 27.498 25.4284C27.4318 25.4872 27.3567 25.535 27.2755 25.57H27.1137L26.9317 25.4487L26.3048 25.2667C26.2086 25.1834 26.088 25.1337 25.9611 25.1251C25.7791 25.1251 25.6375 25.2869 25.5769 25.5498C25.4555 26.1767 25.4151 26.2778 24.9297 26.2778L24.95 26.2373ZM24.7477 20.4133C24.3383 20.4186 23.9474 20.585 23.6597 20.8765C23.3721 21.1679 23.2108 21.5609 23.2109 21.9704C23.2108 22.3746 23.37 22.7624 23.6538 23.0501C23.9377 23.3377 24.3234 23.502 24.7275 23.5073C24.9455 23.5323 25.1663 23.5109 25.3755 23.4445C25.5847 23.3782 25.7774 23.2684 25.9412 23.1223C26.1049 22.9762 26.236 22.7972 26.3257 22.597C26.4154 22.3967 26.4618 22.1798 26.4618 21.9603C26.4618 21.7409 26.4154 21.5239 26.3257 21.3237C26.236 21.1234 26.1049 20.9444 25.9412 20.7983C25.7774 20.6523 25.5847 20.5424 25.3755 20.4761C25.1663 20.4097 24.9455 20.3884 24.7275 20.4133H24.7477ZM10.1271 25.8329C9.9484 25.8356 9.77099 25.8024 9.60538 25.7353C9.43976 25.6682 9.28931 25.5685 9.16295 25.4421C9.03659 25.3158 8.93689 25.1653 8.86977 24.9997C8.80265 24.8341 8.76947 24.6567 8.77219 24.478C8.77116 24.208 8.85079 23.9439 9.00086 23.7196C9.15093 23.4952 9.36461 23.3207 9.61449 23.2186C9.86437 23.1165 10.1391 23.0913 10.4033 23.1464C10.6676 23.2014 10.9094 23.3341 11.0977 23.5275C11.357 23.7922 11.5022 24.1479 11.5022 24.5184C11.5022 24.6954 11.467 24.8706 11.3987 25.0339C11.3304 25.1972 11.2302 25.3452 11.1042 25.4694C10.9781 25.5936 10.8285 25.6915 10.6643 25.7574C10.5 25.8232 10.3243 25.8558 10.1473 25.8531L10.1271 25.8329ZM17.2655 22.476C16.5861 22.4831 15.9079 22.4153 15.2433 22.2738C15.2433 22.1727 15.3444 22.0918 15.3849 22.0109C15.5901 21.7332 15.6851 21.3893 15.6515 21.0457C15.6178 20.702 15.458 20.3831 15.2029 20.1504L14.4546 19.2C14.3208 19.0444 14.1569 18.9176 13.9727 18.8272C13.7884 18.7368 13.5878 18.6848 13.3829 18.6742C13.0082 18.7319 12.6652 18.9177 12.4122 19.2H12.1493C12.144 18.8066 11.984 18.4312 11.7039 18.1549C11.4239 17.8786 11.0463 17.7237 10.6529 17.7238H9.54064C9.35458 17.7042 9.16649 17.7218 8.98724 17.7753C8.808 17.8289 8.64116 17.9175 8.49636 18.036C8.35157 18.1545 8.23169 18.3005 8.14367 18.4655C8.05564 18.6306 8.00121 18.8115 7.98353 18.9978C7.99052 19.0515 7.99052 19.1058 7.98353 19.1595V19.2L7.78131 19.0584C7.53378 18.8819 7.23597 18.7897 6.93197 18.7955C6.75139 18.7949 6.57249 18.8303 6.4058 18.8998C6.23911 18.9692 6.08798 19.0713 5.96131 19.2C5.65797 19.4831 5.33442 19.8067 5.05131 20.11C4.90572 20.2307 4.78578 20.3793 4.69858 20.5471C4.61138 20.7149 4.55868 20.8985 4.5436 21.087C4.52852 21.2755 4.55136 21.4651 4.61078 21.6446C4.67019 21.8241 4.76498 21.9899 4.88953 22.1322L5.03109 22.3344H4.28286H3.93909C2.75537 22.0744 1.70585 21.3945 0.984645 20.4205C0.263439 19.4465 -0.0806633 18.2443 0.0159776 17.0362C0.109792 15.302 0.770533 13.6466 1.89664 12.3244C1.34168 11.602 0.998475 10.7394 0.90537 9.83318C0.812265 8.92693 0.972923 8.01263 1.3694 7.19241C1.76588 6.37218 2.38256 5.67832 3.15058 5.18832C3.91861 4.69831 4.80772 4.43146 5.71864 4.41755C6.54859 4.46086 7.36079 4.67424 8.10486 5.04444C8.8238 3.86472 9.82093 2.8792 11.009 2.17412C12.197 1.46904 13.5398 1.06591 14.9197 1C15.8246 1.00254 16.7241 1.13882 17.5891 1.40444C19.3561 1.88561 20.9122 2.94237 22.011 4.40746C23.1098 5.87255 23.6886 7.66226 23.6557 9.49333H24.2826C24.7073 9.49333 25.1724 9.49333 25.5971 9.63488C27.4673 9.96817 29.1504 10.9754 30.328 12.466C31.5056 13.9567 32.0959 15.8272 31.9873 17.7238C31.9313 18.4317 31.7214 19.1188 31.3721 19.7371C31.0228 20.3554 30.5426 20.8898 29.9651 21.3031L29.7628 21.0604C29.5808 20.8178 29.3786 20.5953 29.2168 20.3527C29.1767 20.2416 29.1767 20.1199 29.2168 20.0089C29.2674 19.7877 29.2625 19.5576 29.2025 19.3388C29.1425 19.12 29.0293 18.9195 28.8731 18.7551L28.3271 18.0675C28.1908 17.9208 28.0246 17.8052 27.8396 17.7284C27.6547 17.6516 27.4554 17.6156 27.2553 17.6227H27.0935C26.9722 17.6227 26.8104 17.6227 26.77 17.5013C26.6022 17.2318 26.3605 17.0161 26.0737 16.8799C25.787 16.7437 25.4671 16.6927 25.1522 16.7329C24.7619 16.727 24.3731 16.7816 23.9995 16.8947C23.8089 16.9634 23.6362 17.0739 23.494 17.2182L23.2109 17.4407C23.043 17.4195 22.8732 17.4195 22.7053 17.4407C22.3838 17.4903 22.076 17.6057 21.8011 17.7797C21.5263 17.9537 21.2902 18.1825 21.1077 18.4518L20.8449 18.7349C20.6946 18.8795 20.6013 19.0732 20.582 19.2809C20.6034 19.5101 20.5643 19.741 20.4685 19.9504C20.3727 20.1598 20.2235 20.3404 20.036 20.474C19.8506 20.704 19.7442 20.9877 19.7326 21.2829C19.7128 21.5656 19.7128 21.8494 19.7326 22.1322V22.5367H17.2251L17.2655 22.476ZM12.2504 14.5893L12.4122 14.7511L12.7155 15.014C13.4975 15.7012 14.5056 16.0757 15.5466 16.0655C16.3417 16.0837 17.1246 15.867 17.7972 15.4426C18.4698 15.0181 19.0023 14.4048 19.3282 13.6793C19.5304 13.2344 19.4495 12.9311 19.0855 12.7491C18.9989 12.7305 18.9093 12.7305 18.8226 12.7491C18.6002 12.7491 18.4182 12.8907 18.2564 13.194C18.1323 13.4427 17.9759 13.6738 17.7913 13.8815C17.5087 14.2111 17.1581 14.4757 16.7637 14.6572C16.3693 14.8387 15.9404 14.9328 15.5062 14.9331C15.1143 14.93 14.7283 14.8373 14.3778 14.662C14.0273 14.4868 13.7216 14.2336 13.484 13.922L14.3131 13.1333L13.0391 12.5064L11.3202 11.6571V15.1555L11.7044 14.9533L12.21 14.6904L12.2504 14.5893ZM15.4051 8.21933C15.7934 8.21909 16.1767 8.3062 16.5268 8.47423C16.8769 8.64226 17.1846 8.88688 17.4273 9.18999L16.4971 9.85733L19.5102 11.3335V7.97666L18.7417 8.40133H18.58L18.4182 8.25977L18.216 8.01711C17.7995 7.62959 17.3084 7.33104 16.7726 7.13968C16.2369 6.94832 15.6677 6.86817 15.1 6.90413C14.5322 6.94008 13.9778 7.09139 13.4704 7.34881C12.9631 7.60623 12.5136 7.96436 12.1493 8.40133C11.9958 8.61532 11.8669 8.84597 11.7651 9.08888C11.5995 9.30146 11.5201 9.5686 11.5426 9.8371C11.604 9.99289 11.7187 10.1219 11.8662 10.2011C11.9798 10.222 12.0963 10.222 12.21 10.2011C12.4931 10.2011 12.6346 9.93822 12.7762 9.67533L12.8773 9.51355C13.1659 9.11288 13.5456 8.78657 13.9851 8.56154C14.4246 8.33651 14.9113 8.21921 15.4051 8.21933Z" fill="#1971BD"/>
</svg>
