<svg width="32" height="32" viewBox="0 0 32 32" fill="none" xmlns="http://www.w3.org/2000/svg">
<g clip-path="url(#clip0)">
<path d="M27.5314 4.93303L29.9123 2.19493C30.5314 5.29017 31.1028 8.21874 31.7218 11.2902L22.5314 10.9092L24.6742 8.31398C23.5248 6.92991 22.0598 5.84203 20.4025 5.14183C18.7452 4.44162 16.9441 4.14955 15.1504 4.29017C12.3616 4.45029 9.72273 5.60575 7.71357 7.54653C5.70441 9.48731 4.45831 12.0846 4.20176 14.8662C3.94522 17.6479 4.69526 20.4292 6.31556 22.7047C7.93585 24.9803 10.3188 26.5989 13.0314 27.2664C15.4518 27.88 18.0061 27.6891 20.3085 26.7226C22.6108 25.7562 24.5361 24.0666 25.7933 21.9092C25.9184 21.6087 26.1423 21.3599 26.4281 21.204C26.7139 21.0481 27.0443 20.9945 27.3647 21.0521L30.6504 21.3616C30.2457 24.6235 25.698 30.2664 19.3409 31.6473C16.614 32.2295 13.7823 32.089 11.1265 31.2397C8.47067 30.3904 6.08289 28.8618 4.19983 26.8054C2.31677 24.7489 1.00381 22.2361 0.391087 19.5159C-0.221638 16.7958 -0.112855 13.9627 0.706653 11.2975C1.52616 8.63232 3.02794 6.22757 5.06314 4.32159C7.09835 2.41562 9.59631 1.0746 12.3095 0.431446C15.0226 -0.211708 17.8567 -0.134664 20.5309 0.654942C23.2051 1.44455 25.6265 2.9193 27.5552 4.93303H27.5314Z" fill="#1971BD"/>
<path d="M18.9837 8.67112C17.2534 7.98012 15.3354 7.91862 13.5643 8.49737C11.7933 9.07611 10.2817 10.2584 9.29325 11.8378C8.89062 12.4605 8.57049 13.1327 8.34087 13.8378C7.7094 15.8616 7.90777 18.0535 8.89234 19.9311C9.8769 21.8086 11.567 23.2182 13.5909 23.8497C15.6147 24.4812 17.8065 24.2828 19.6841 23.2982C21.5617 22.3137 22.9713 20.6235 23.6028 18.5997C23.8485 17.8303 23.969 17.0264 23.9599 16.2187C23.9817 14.607 23.519 13.0259 22.6318 11.6802C21.7446 10.3344 20.4737 9.28616 18.9837 8.67112ZM16.0552 22.1473C14.4427 22.16 12.8909 21.5332 11.7395 20.4042C10.5882 19.2752 9.93115 17.7359 9.9123 16.1235C9.88839 15.304 10.0512 14.4898 10.3885 13.7426C10.7332 13.0125 11.2281 12.3635 11.8409 11.8378C12.5442 11.1168 13.4158 10.5821 14.3773 10.2819C15.3387 9.98165 16.3597 9.92533 17.3483 10.118C18.337 10.3107 19.2621 10.7462 20.0405 11.3855C20.8188 12.0248 21.4259 12.8477 21.807 13.78C22.1881 14.7123 22.3313 15.7248 22.2236 16.7263C22.116 17.7277 21.7609 18.6866 21.1903 19.5167C20.6197 20.3467 19.8516 21.0217 18.9552 21.481C18.0587 21.9402 17.0621 22.1692 16.0552 22.1473Z" fill="#1971BD"/>
<path d="M20.198 15.6235H21.1028C21.114 15.4649 21.114 15.3058 21.1028 15.1473C20.9676 14.2668 20.5881 13.4419 20.0076 12.7663L19.3885 13.3616L18.7218 12.7187L19.3409 12.0758C18.7449 11.5697 18.0335 11.2181 17.2695 11.052C17.0365 10.9816 16.7973 10.9337 16.5552 10.9092C16.5552 11.0758 16.5552 11.1949 16.5552 11.3139V14.2187C16.5552 14.552 16.5552 14.7901 16.9123 14.933C17.0485 14.9968 17.158 15.1063 17.2218 15.2425C17.3647 15.5997 17.6266 15.5997 17.9361 15.5997H19.3171V16.5997C18.8171 16.5997 18.2933 16.5997 17.7933 16.5997C17.7074 16.5992 17.6229 16.6209 17.5478 16.6626C17.4727 16.7043 17.4097 16.7646 17.3647 16.8377C17.2291 17.0983 17.0098 17.3058 16.742 17.4267C16.4743 17.5476 16.1737 17.575 15.8885 17.5044C15.6249 17.4497 15.3831 17.3191 15.1927 17.1288C15.0024 16.9384 14.8718 16.6966 14.8171 16.433C14.7507 16.1479 14.7801 15.8488 14.9006 15.5821C15.021 15.3153 15.226 15.0955 15.4837 14.9568C15.5648 14.9212 15.6321 14.8601 15.6751 14.7827C15.7181 14.7053 15.7345 14.6159 15.7218 14.5282V11.1949C15.7352 11.1161 15.7352 11.0356 15.7218 10.9568C14.8319 11.0209 13.9761 11.3254 13.2456 11.8378L12.698 12.2425L13.2933 12.8616L12.579 13.6235L12.0552 12.8616C11.8131 13.1457 11.6054 13.4574 11.4361 13.7901C11.1207 14.3824 10.9188 15.0284 10.8409 15.6949H11.7456V16.5997H10.8409C10.9547 17.6252 11.3688 18.5943 12.0314 19.3854L12.6504 18.7901L13.3171 19.4092L12.698 20.052C13.0874 20.3855 13.5301 20.6511 14.0075 20.8377C14.4782 21.0367 14.9756 21.1651 15.4837 21.2187C15.4837 20.9092 15.4837 20.6235 15.4837 20.3377H16.4123V21.2187C17.4447 21.1206 18.4236 20.7141 19.2218 20.052L18.6266 19.433L19.3171 18.6711L19.8409 19.433C20.5285 18.6366 20.9527 17.6468 21.0552 16.5997H20.1742L20.198 15.6235Z" fill="#1971BD"/>
<path d="M15.9123 16.5996C15.9689 16.6136 16.028 16.6151 16.0853 16.6042C16.1426 16.5932 16.1969 16.5699 16.2444 16.536C16.2918 16.5021 16.3314 16.4583 16.3604 16.4076C16.3894 16.357 16.4071 16.3006 16.4123 16.2425C16.4189 16.1862 16.4142 16.1291 16.3986 16.0745C16.383 16.02 16.3567 15.9691 16.3213 15.9248C16.2858 15.8805 16.242 15.8437 16.1922 15.8165C16.1424 15.7893 16.0877 15.7722 16.0313 15.7663C15.9743 15.7595 15.9165 15.765 15.8618 15.7823C15.807 15.7996 15.7566 15.8283 15.7138 15.8666C15.671 15.9049 15.6369 15.9518 15.6136 16.0043C15.5903 16.0568 15.5785 16.1137 15.5789 16.1711C15.5645 16.2778 15.5908 16.3861 15.6525 16.4743C15.7143 16.5625 15.807 16.6243 15.9123 16.6473V16.5996Z" fill="#1971BD"/>
</g>
<defs>
<clipPath id="clip0">
<rect width="32" height="32" fill="white"/>
</clipPath>
</defs>
</svg>
