<svg xmlns="http://www.w3.org/2000/svg" width="16.849" height="14.875" viewBox="0 0 16.849 14.875">
  <g id="backupsessions" transform="translate(-1690.999 -665.994)">
    <g id="Group_9330" data-name="Group 9330">
      <path id="Path_20633" data-name="Path 20633" d="M1704.606,674.253a3.417,3.417,0,0,0-4.164,1.31,3.474,3.474,0,0,0-.409.864,3.436,3.436,0,1,0,4.573-2.174Zm-1.25,5.8a2.623,2.623,0,0,1-2.655-2.608,2.55,2.55,0,0,1,.209-1.03,2.665,2.665,0,0,1,.586-.85,2.61,2.61,0,0,1,1.8-.744,2.614,2.614,0,0,1,.06,5.228Z" fill="#0071bd"/>
      <path id="Path_20634" data-name="Path 20634" d="M1705.138,677.249l.387-.018c-.009-.068-.021-.134-.034-.2a2.122,2.122,0,0,0-.473-1l-.269.255-.286-.268.266-.279a2.148,2.148,0,0,0-.893-.448,2.884,2.884,0,0,0-.308-.055c0,.066-.008.121-.009.175v1.242c0,.136.008.247.156.308a.25.25,0,0,1,.126.128c.06.153.176.156.31.152.2-.006.4,0,.6,0v.383a.145.145,0,0,1-.041.015c-.22,0-.439.006-.659,0a.181.181,0,0,0-.181.1.579.579,0,0,1-.642.283.591.591,0,0,1-.459-.462.578.578,0,0,1,.286-.639.176.176,0,0,0,.1-.183v-1.409a.491.491,0,0,0-.016-.1,2.292,2.292,0,0,0-.957.332,2.355,2.355,0,0,0-.238.172l.258.271-.306.327-.227-.329a2.525,2.525,0,0,0-.27.4,2.292,2.292,0,0,0-.25.819l.386.02v.383l-.386.017a2.212,2.212,0,0,0,.506,1.2l.27-.255.285.267-.266.278a2.129,2.129,0,0,0,.564.343,2.374,2.374,0,0,0,.637.161c.006-.135.012-.259.017-.38h.391v.384a2.253,2.253,0,0,0,1.212-.506l-.258-.271.3-.323.232.323a2.262,2.262,0,0,0,.512-1.173.453.453,0,0,1,.007-.049l-.386-.019Z" fill="#0071bd"/>
      <path id="Path_20635" data-name="Path 20635" d="M1703.3,677.63a.191.191,0,0,0,.215-.162v-.024a.189.189,0,0,0-.171-.206h-.015a.186.186,0,0,0-.2.173v.008a.179.179,0,0,0,.146.208Z" fill="#0071bd"/>
    </g>
    <path id="Path_21028" data-name="Path 21028" d="M1700.86,672.505c.092-.2.056-.34-.106-.418a.275.275,0,0,0-.122-.032c-.1,0-.179.065-.251.2a1.845,1.845,0,0,1-.2.319,1.357,1.357,0,0,1-1.031.464,1.113,1.113,0,0,1-.94-.452l.408-.289-.569-.28-.776-.382v1.488l.313-.168.106-.057-.006,0,.076.071c.045.044.086.082.127.119a1.925,1.925,0,0,0,1.276.476A1.84,1.84,0,0,0,1700.86,672.505Z" fill="none"/>
    <path id="Path_21029" data-name="Path 21029" d="M1697.621,671c.126,0,.2-.121.26-.238.014-.025.028-.049.042-.071l.012-.021.017-.029a1.391,1.391,0,0,1,1.143-.588v0a1.15,1.15,0,0,1,.932.434l-.13.094-.287.213,1.346.657v-1.5l-.345.187-.075.04-.072-.069c-.052-.05-.1-.1-.151-.142a1.881,1.881,0,0,0-2.654.173h0a1.807,1.807,0,0,0-.2.275l-.029.049a.469.469,0,0,0-.106.333.275.275,0,0,0,.15.162A.31.31,0,0,0,1697.621,671Z" fill="none"/>
    <path id="Path_21030" data-name="Path 21030" d="M1699.606,675.019a4.442,4.442,0,0,1,3.719-2.019,4.383,4.383,0,0,1,1.657.328,4.448,4.448,0,0,1,2.491,2.6,2.074,2.074,0,0,0,.126-.189,3.459,3.459,0,0,0-.315-3.18,4.075,4.075,0,0,0-2.819-1.978,6.98,6.98,0,0,0-.706-.072c-.106-.008-.213-.015-.319-.025a4.314,4.314,0,0,0-3.2-4.279,4.889,4.889,0,0,0-1.4-.213,4.455,4.455,0,0,0-3.643,2.077,2.865,2.865,0,0,0-1.2-.276,2.552,2.552,0,0,0-1.929.9,2.582,2.582,0,0,0-.077,3.255,4.191,4.191,0,0,0-.986,2.479,2.682,2.682,0,0,0,1.162,2.4,5.689,5.689,0,0,0,2.894.4c.338-.009.667-.006,1.007-.026.944-.055,1.888-.048,2.833-.026a4.193,4.193,0,0,1,.7-2.158Zm-2.177-4.555.029-.049a1.807,1.807,0,0,1,.2-.275h0a1.881,1.881,0,0,1,2.654-.173c.051.042.1.092.151.142l.072.069.075-.04.345-.187v1.5l-1.346-.657.287-.213.13-.094a1.15,1.15,0,0,0-.932-.434v0a1.391,1.391,0,0,0-1.143.588l-.017.029-.012.021c-.014.022-.028.046-.042.071-.065.117-.134.238-.26.238a.31.31,0,0,1-.148-.044.275.275,0,0,1-.15-.162A.469.469,0,0,1,1697.429,670.464Zm.328,2.509-.076-.071.006,0-.106.057-.313.168v-1.488l.776.382.569.28-.408.289a1.113,1.113,0,0,0,.94.452,1.357,1.357,0,0,0,1.031-.464,1.845,1.845,0,0,0,.2-.319c.072-.135.151-.2.251-.2a.275.275,0,0,1,.122.032c.162.078.2.218.106.418a1.84,1.84,0,0,1-1.7,1.063,1.925,1.925,0,0,1-1.276-.476C1697.843,673.055,1697.8,673.017,1697.757,672.973Z" fill="#0071bd"/>
  </g>
</svg>
