<svg xmlns="http://www.w3.org/2000/svg" width="16.9" height="13.813" viewBox="0 0 16.9 13.813">
  <path id="backupblueprints" d="M9.139,12.736a.231.231,0,0,1,.018-.328.807.807,0,0,0,.15-.217l-1.1-1.1a.784.784,0,0,0-.217.149.233.233,0,0,1-.329-.329,2.006,2.006,0,0,1,1.652-.391c-.185-1.558.6-2.216,2.045-2.045a2,2,0,0,1,.391-1.654.234.234,0,1,1,.33.331.763.763,0,0,0-.147.22l1.1,1.1a.768.768,0,0,0,.217-.15.233.233,0,0,1,.329.33,2.011,2.011,0,0,1-1.659.385c.184,1.557-.6,2.216-2.045,2.045a2,2,0,0,1-.391,1.653l-.018.02a.235.235,0,0,1-.328-.02Zm-.4-1.77.694.694A2.868,2.868,0,0,0,9.4,11a2.94,2.94,0,0,0-.495-.041C8.849,10.961,8.795,10.963,8.74,10.966ZM9.8,10.6a2.918,2.918,0,0,0,.657.036l-.694-.694A2.874,2.874,0,0,0,9.8,10.6Zm.093-1.188,1.1,1.1a.728.728,0,0,0,.366-.367l-1.1-1.1A.732.732,0,0,0,9.888,9.416Zm.9-.495.689.694a2.921,2.921,0,0,0-.031-.657,2.955,2.955,0,0,0-.495-.041C10.9,8.916,10.844,8.917,10.789,8.921Zm1.053-.36A2.923,2.923,0,0,0,12.5,8.6L11.805,7.9A2.986,2.986,0,0,0,11.842,8.561ZM1.1,10.208a2.524,2.524,0,0,1-1.1-2.261A3.939,3.939,0,0,1,.934,5.615a2.436,2.436,0,0,1,.074-3.069A2.4,2.4,0,0,1,2.825,1.7a2.692,2.692,0,0,1,1.13.26A4.2,4.2,0,0,1,7.387,0,4.681,4.681,0,0,1,8.706.2a4.068,4.068,0,0,1,3.016,4.031c.1.01.2.016.3.024.223.012.446.035.665.068a3.855,3.855,0,0,1,2.656,1.863,3.27,3.27,0,0,1,.3,3,2.166,2.166,0,0,1-.952.934c-.745.124-1.5.217-2.248.293a2.14,2.14,0,0,0-.057-.985,1.379,1.379,0,0,1,.238.017,3.722,3.722,0,0,0,1.107-.293.8.8,0,0,0,.433-.548.777.777,0,0,0-.276-.653.708.708,0,0,0-.526-.222.85.85,0,0,0-.216.067l-.681-.658a.473.473,0,0,0,.117-.344.755.755,0,0,0-.354-.564.885.885,0,0,0-1.015.166,2.26,2.26,0,0,0-.519,1.551,2.243,2.243,0,0,0-1.517.371,3.012,3.012,0,0,0-.509,1.632c-.321-.144-1.355.259-1.9.492a1.073,1.073,0,0,1-.425.086c-.574,0-1.127.01-1.562.038-.321.017-.632.015-.949.023A5.342,5.342,0,0,1,1.1,10.208ZM9.29,6.135c.086-.189.052-.322-.1-.391a.272.272,0,0,0-.114-.029l-.43.49a1.284,1.284,0,0,1-.97.437,1.048,1.048,0,0,1-.886-.427l.384-.272L6.64,5.679l-.731-.36v1.4L6.2,6.561l.1-.052h0l.069.066c.042.041.08.079.12.113a1.823,1.823,0,0,0,1.2.447A1.733,1.733,0,0,0,9.29,6.135Zm-.784-1.9-.122.09-.271.2,1.268.619,0-1.415L9.053,3.9l-.071.039-.068-.066c-.049-.048-.094-.094-.142-.135a1.772,1.772,0,0,0-2.5.165,1.882,1.882,0,0,0-.188.259l-.026.046a.446.446,0,0,0-.1.314.258.258,0,0,0,.142.154.3.3,0,0,0,.139.041c.12,0,.184-.115.245-.225l.04-.066.013-.022.016-.026a1.306,1.306,0,0,1,1.076-.554h.037A1.073,1.073,0,0,1,8.506,4.234Z" transform="translate(0.502 0.5)" fill="#0071bd" stroke="rgba(0,0,0,0)" stroke-width="1"/>
</svg>
