<svg xmlns="http://www.w3.org/2000/svg" width="15.873" height="12.225" viewBox="0 0 15.873 12.225">
  <g id="backupbatches" transform="translate(-6146.018 -2678.855)">
    <path id="blueprint" d="M6160.606,2687.485H6157a.18.18,0,0,0-.181.18h0v3.608a.179.179,0,0,0,.18.18h2.045a.18.18,0,1,0,0-.361h-1.864v-1.563h.842v.661a.18.18,0,0,0,.361,0v-1.684a.18.18,0,0,0-.361,0v.662h-.842v-1.324h1.8v.9a.181.181,0,0,0,.181.18h.841a.181.181,0,1,0,0-.361h-.662v-.722h1.083v2.165h-1.263a.18.18,0,0,0,0,.361h1.263v.722h-.3a.18.18,0,1,0,0,.361h.48a.181.181,0,0,0,.18-.181v-3.608A.181.181,0,0,0,6160.606,2687.485Z" transform="translate(-0.626 -0.5)" fill="#0071bd" stroke="#0071bd" stroke-miterlimit="10" stroke-width="0.25"/>
    <path id="Path_21048" data-name="Path 21048" d="M6161.36,2685.042a3.845,3.845,0,0,0-2.656-1.864,6.527,6.527,0,0,0-.665-.068c-.1-.008-.2-.014-.3-.024a4.065,4.065,0,0,0-3.015-4.031,4.631,4.631,0,0,0-1.319-.2,4.2,4.2,0,0,0-3.432,1.957,2.7,2.7,0,0,0-1.13-.26,2.407,2.407,0,0,0-1.817.848,2.434,2.434,0,0,0-.073,3.068,3.947,3.947,0,0,0-.929,2.335,2.526,2.526,0,0,0,1.095,2.26,5.362,5.362,0,0,0,2.727.377c.318-.008.628-.006.949-.025,1.626-.1,3.252-.008,4.878.034v-2.595a.379.379,0,0,1,.379-.379h4.275a.379.379,0,0,1,.379.379v2.119a2.162,2.162,0,0,0,.951-.934A3.265,3.265,0,0,0,6161.36,2685.042Zm-6.052-.053a1.732,1.732,0,0,1-1.6,1,1.815,1.815,0,0,1-1.2-.448c-.039-.034-.077-.071-.12-.112l-.071-.067.005,0-.1.053-.295.158v-1.4l.731.36.536.264-.384.272a1.045,1.045,0,0,0,.885.426,1.276,1.276,0,0,0,.971-.436l.43-.489a.274.274,0,0,1,.115.029C6155.36,2684.668,6155.395,2684.8,6155.308,2684.989Zm.091-.993-1.269-.619.271-.2.123-.089a1.08,1.08,0,0,0-.878-.408v0a1.313,1.313,0,0,0-1.076.555l-.016.027-.012.02-.04.066c-.061.111-.126.225-.245.225a.3.3,0,0,1-.139-.041.259.259,0,0,1-.142-.154.443.443,0,0,1,.1-.314l.027-.046a1.833,1.833,0,0,1,.188-.259h0a1.773,1.773,0,0,1,2.5-.164c.048.041.093.087.142.134l.068.066.071-.038.325-.176Z" fill="#0071bd"/>
  </g>
</svg>
