<svg xmlns="http://www.w3.org/2000/svg" width="16.829" height="15.418" viewBox="0 0 16.829 15.418">
  <path id="backupconfigurations" d="M5.162,14.419H4.93c-.487,0-.487,0-.553-.5a.392.392,0,0,0-.39-.354.422.422,0,0,0-.252.086c-.2.146-.295.219-.385.219s-.186-.088-.362-.264L2.982,13.6l-.069-.069c-.323-.321-.323-.321-.064-.661l.077-.1a.408.408,0,0,0-.248-.593l-.074-.01c-.475-.063-.475-.063-.472-.516,0-.033,0-.068,0-.106,0-.492,0-.492.481-.567a.524.524,0,0,0,.4-.466L3,10.492a.553.553,0,0,0-.036-.066c-.022-.031-.045-.061-.068-.09l-.054-.071c-.248-.336-.248-.336.051-.632l.058-.057c.076-.075.155-.151.229-.229a.243.243,0,0,1,.175-.088.271.271,0,0,1,.167.069c.017.013.035.026.052.038a.566.566,0,0,1,.092.074.387.387,0,0,0,.286.144.5.5,0,0,0,.232-.068.314.314,0,0,0,.194-.267L4.39,9.16c.054-.4.058-.431.4-.431h.368c.35,0,.353.03.417.528a.4.4,0,0,0,.4.324.352.352,0,0,0,.215-.07l.1-.08c.142-.111.221-.172.3-.172s.177.087.368.278l.015.015.019.019c.365.365.365.365.123.682l-.088.116a.4.4,0,0,0,.255.6c.537.074.537.074.538.62,0,.5,0,.5-.494.578A.407.407,0,0,0,7,12.41a.418.418,0,0,0,.064.413c.287.391.287.391-.049.733L7,13.563l-.015.015c-.208.212-.3.309-.4.309-.074,0-.149-.057-.284-.16l-.133-.1a.322.322,0,0,0-.193-.059.4.4,0,0,0-.4.3l-.007.053C5.51,14.381,5.505,14.419,5.162,14.419Zm-.189-4.257a1.41,1.41,0,0,0,0,2.82h.007a1.41,1.41,0,0,0,.009-2.82Zm7.328,2.32-.129,0-.088,0-.094,0c-.276-.013-.326-.06-.356-.33l0-.035c0-.022-.006-.044-.009-.066-.021-.122-.092-.2-.189-.2a.272.272,0,0,0-.145.048.687.687,0,0,1-.307.149c-.087,0-.158-.073-.3-.225-.046-.05-.092-.1-.136-.15-.159-.182-.16-.244-.008-.437l.027-.034a.365.365,0,0,0,.1-.184c.008-.131-.067-.2-.244-.237-.3-.054-.332-.1-.321-.4,0-.07.005-.137.01-.2.022-.314.064-.357.374-.382.126-.01.21-.051.241-.117a.269.269,0,0,0-.06-.259c-.177-.257-.169-.326.058-.531l.135-.123c.118-.108.2-.166.276-.166s.155.053.274.15a.336.336,0,0,0,.2.093c.094,0,.16-.083.193-.24.056-.27.091-.333.305-.333.035,0,.076,0,.133.005l.2.012c.281.016.323.057.35.337.02.2.077.288.181.288a.446.446,0,0,0,.228-.093.491.491,0,0,1,.243-.109c.08,0,.148.059.254.175l.053.062L13.8,9c.252.281.253.309.02.594a.2.2,0,0,0,.13.363c.359.07.379.1.362.452,0,.068-.005.135-.01.2-.014.264-.06.312-.322.346-.171.021-.261.06-.291.124s0,.158.092.3c.14.216.133.279-.051.451l-.03.028c-.077.073-.157.148-.241.216a.614.614,0,0,1-.119.067l-.075.037-.086-.059c-.067-.045-.13-.088-.191-.136a.293.293,0,0,0-.172-.07c-.093,0-.163.075-.19.205C12.562,12.425,12.542,12.482,12.3,12.482ZM12.208,9.6a.767.767,0,0,0-.762.767.755.755,0,0,0,.752.766h.01A.766.766,0,0,0,12.224,9.6ZM4.974,12.284h0A.672.672,0,0,1,4.3,11.6a.686.686,0,0,1,.672-.67.667.667,0,0,1,.478.2.678.678,0,0,1,.2.488A.666.666,0,0,1,4.974,12.284Zm3.534-1.666a4.066,4.066,0,0,1-.974-.1l.018-.032c.027-.047.05-.088.074-.126a.687.687,0,0,0-.094-.923c-.116-.118-.244-.246-.4-.4A.767.767,0,0,0,6.6,8.78a.814.814,0,0,0-.48.184.407.407,0,0,1-.043.027L6.052,9l-.015-.012c-.009-.007-.017-.013-.017-.019a.731.731,0,0,0-.781-.727c-.035,0-.071,0-.107,0s-.1.006-.155.006l-.13,0H4.7a.7.7,0,0,0-.763.629c-.005.026-.011.052-.019.085l-.01.044-.039-.025c-.041-.027-.075-.049-.107-.071a.736.736,0,0,0-.414-.134.691.691,0,0,0-.479.2c-.157.149-.311.306-.459.458a.687.687,0,0,0-.073.954c.017.024.033.049.063.1l.034.053H2.4c-.051,0-.1,0-.148,0s-.1.005-.152.005a.781.781,0,0,1-.169-.016A2.494,2.494,0,0,1,0,7.932,3.942,3.942,0,0,1,.928,5.6,2.428,2.428,0,0,1,1,2.538a2.4,2.4,0,0,1,1.815-.844,2.682,2.682,0,0,1,1.125.259A4.191,4.191,0,0,1,7.366,0,4.615,4.615,0,0,1,8.684.2a4.057,4.057,0,0,1,3.006,4.02c.1.01.21.017.313.024.215.015.437.03.651.067a3.851,3.851,0,0,1,3.164,4,2.4,2.4,0,0,1-.972,1.766l-.1-.12c-.092-.112-.187-.228-.273-.347a.237.237,0,0,1-.018-.166.713.713,0,0,0-.168-.624c-.114-.131-.228-.257-.339-.376a.7.7,0,0,0-.535-.223l-.071,0H13.33c-.059,0-.133-.021-.152-.056a.815.815,0,0,0-.8-.382h-.039a2.029,2.029,0,0,0-.572.073.768.768,0,0,0-.254.166c-.044.037-.089.075-.14.112a.76.76,0,0,0-.247-.044,1.166,1.166,0,0,0-.789.5c-.046.049-.091.1-.136.143a.416.416,0,0,0-.122.271.674.674,0,0,1-.27.59.693.693,0,0,0-.159.4,3.019,3.019,0,0,0-.032.417c0,.065,0,.131-.008.2-.1-.006-.208-.009-.338-.009s-.254,0-.384.006S8.636,10.618,8.509,10.618Zm-2.461-3.9h0l.082.078c.049.047.1.091.142.132a2.125,2.125,0,0,0,1.4.526A2.028,2.028,0,0,0,9.544,6.274c.1-.224.06-.375-.118-.462a.313.313,0,0,0-.135-.035c-.107,0-.2.072-.277.219a2.1,2.1,0,0,1-.226.347,1.492,1.492,0,0,1-1.136.512,1.24,1.24,0,0,1-1.036-.5l.45-.319L6.439,5.73l-.856-.42V6.962l.19-.1.017-.009.257-.137ZM7.607,3.572h0a1.268,1.268,0,0,1,1.029.478l-.459.333,1.484.725V3.453l-.377.205L9.2,3.705l-.073-.071c-.059-.058-.115-.112-.172-.163A2.075,2.075,0,0,0,5.8,3.966l-.032.055a.515.515,0,0,0-.115.366.3.3,0,0,0,.165.178.341.341,0,0,0,.163.049c.14,0,.215-.134.288-.264.015-.027.03-.053.045-.078l.014-.023.019-.032A1.533,1.533,0,0,1,7.607,3.572Z" transform="translate(0.503 0.5)" fill="#0071bd" stroke="rgba(0,0,0,0)" stroke-width="1"/>
</svg>
