<svg width="32" height="32" viewBox="0 0 32 32" fill="none" xmlns="http://www.w3.org/2000/svg">
<path d="M18 15.34V16H14V15.34C14 14.8096 14.2107 14.3009 14.5858 13.9258C14.9609 13.5507 15.4696 13.34 16 13.34C16.5304 13.34 17.0391 13.5507 17.4142 13.9258C17.7893 14.3009 18 14.8096 18 15.34Z" fill="#F2F2F2"/>
<path d="M28 16H22V15.34C22 13.7487 21.3679 12.2226 20.2426 11.0974C19.1174 9.97215 17.5913 9.34 16 9.34C14.4087 9.34 12.8826 9.97215 11.7574 11.0974C10.6321 12.2226 10 13.7487 10 15.34V16H4V14.66H2.66V16H0.660004V13.34C0.660004 13.1597 0.731646 12.9867 0.859171 12.8592C0.986696 12.7316 1.15966 12.66 1.34 12.66H4.48C4.7229 11.803 5.06523 10.9774 5.5 10.2L3.26 8C3.19772 7.9386 3.14826 7.86543 3.1145 7.78474C3.08074 7.70406 3.06336 7.61747 3.06336 7.53C3.06336 7.44254 3.08074 7.35595 3.1145 7.27526C3.14826 7.19458 3.19772 7.12141 3.26 7.06L7.04 3.26C7.10141 3.19772 7.17458 3.14826 7.25526 3.1145C7.33595 3.08074 7.42254 3.06336 7.51 3.06336C7.59747 3.06336 7.68406 3.08074 7.76474 3.1145C7.84543 3.14826 7.9186 3.19772 7.98 3.26L10.2 5.48C10.982 5.05985 11.8067 4.72461 12.66 4.48V1.34C12.66 1.15966 12.7316 0.986696 12.8592 0.859171C12.9867 0.731646 13.1597 0.660004 13.34 0.660004H18.66C18.8404 0.660004 19.0133 0.731646 19.1408 0.859171C19.2684 0.986696 19.34 1.15966 19.34 1.34V4.48C20.197 4.7229 21.0226 5.06523 21.8 5.5L24 3.28C24.0614 3.21772 24.1346 3.16826 24.2153 3.1345C24.296 3.10075 24.3825 3.08336 24.47 3.08336C24.5575 3.08336 24.6441 3.10075 24.7247 3.1345C24.8054 3.16826 24.8786 3.21772 24.94 3.28L28.7 7.04C28.7623 7.10141 28.8117 7.17458 28.8455 7.25526C28.8793 7.33595 28.8966 7.42254 28.8966 7.51C28.8966 7.59747 28.8793 7.68406 28.8455 7.76474C28.8117 7.84543 28.7623 7.9186 28.7 7.98L26.5 10.2C26.9348 10.9774 27.2771 11.803 27.52 12.66H30.66C30.8404 12.66 31.0133 12.7316 31.1408 12.8592C31.2684 12.9867 31.34 13.1597 31.34 13.34V16H29.34V14.66H28V16ZM24 6.66V8H25.34V6.66H24ZM6.66 6.66V8H8V6.66H6.66ZM15.34 2.66V4H16.66V2.66H15.34Z" fill="#1971BD"/>
<path d="M30.66 31.34H24C23.8231 31.3348 23.6553 31.2609 23.532 31.1339C23.4088 31.0069 23.3399 30.8369 23.34 30.66V26.66C23.34 26.485 23.4095 26.3171 23.5333 26.1933C23.6571 26.0695 23.825 26 24 26H30.66C30.8369 25.9999 31.0069 26.0688 31.1339 26.192C31.2609 26.3153 31.3348 26.4831 31.34 26.66V30.66C31.34 30.8403 31.2684 31.0133 31.1408 31.1408C31.0133 31.2684 30.8404 31.34 30.66 31.34ZM28 28V29.34H29.34V28H28ZM25.34 28V29.34H26.66V28H25.34ZM19.34 31.34H12.66C12.4831 31.3348 12.3153 31.2609 12.192 31.1339C12.0688 31.0069 11.9999 30.8369 12 30.66V26.66C12 26.5733 12.0171 26.4875 12.0502 26.4074C12.0834 26.3274 12.132 26.2546 12.1933 26.1933C12.2546 26.132 12.3274 26.0834 12.4074 26.0502C12.4875 26.0171 12.5733 26 12.66 26H19.34C19.4267 26 19.5125 26.0171 19.5926 26.0502C19.6726 26.0834 19.7454 26.132 19.8067 26.1933C19.868 26.2546 19.9166 26.3274 19.9498 26.4074C19.9829 26.4875 20 26.5733 20 26.66V30.66C20.0001 30.8369 19.9312 31.0069 19.808 31.1339C19.6847 31.2609 19.5169 31.3348 19.34 31.34ZM16.66 28V29.34H18V28H16.66ZM14 28V29.34H15.34V28H14ZM8 31.34H1.34C1.15966 31.34 0.986696 31.2684 0.859171 31.1408C0.731646 31.0133 0.660004 30.8403 0.660004 30.66V26.66C0.660004 26.485 0.729539 26.3171 0.853313 26.1933C0.977087 26.0695 1.14496 26 1.32 26H8C8.17505 26 8.34292 26.0695 8.46669 26.1933C8.59047 26.3171 8.66 26.485 8.66 26.66V30.66C8.66008 30.8369 8.59119 31.0069 8.46796 31.1339C8.34473 31.2609 8.17686 31.3348 8 31.34ZM5.34 28V29.34H6.66V28H5.34ZM2.66 28V29.34H4V28H2.66Z" fill="#1971BD"/>
<path d="M30.66 12H28C27.8081 11.4301 27.5741 10.8752 27.3 10.34L29.18 8.46C29.3046 8.33719 29.4035 8.19085 29.471 8.02948C29.5385 7.86811 29.5733 7.69493 29.5733 7.52C29.5733 7.34507 29.5385 7.17189 29.471 7.01052C29.4035 6.84915 29.3046 6.70281 29.18 6.58L25.42 2.8C25.1669 2.55795 24.8302 2.42285 24.48 2.42285C24.1298 2.42285 23.7931 2.55795 23.54 2.8L21.66 4.68C21.1242 4.41271 20.5693 4.18542 20 4V1.34C20 0.98461 19.8588 0.643776 19.6075 0.392477C19.3562 0.141178 19.0154 0 18.66 0L13.34 0C12.9846 0 12.6438 0.141178 12.3925 0.392477C12.1412 0.643776 12 0.98461 12 1.34V4C11.4301 4.1919 10.8752 4.42588 10.34 4.7L8.46 2.8C8.20691 2.55795 7.8702 2.42285 7.52 2.42285C7.1698 2.42285 6.83309 2.55795 6.58 2.8L2.8 6.58C2.67543 6.70281 2.57651 6.84915 2.509 7.01052C2.44148 7.17189 2.40671 7.34507 2.40671 7.52C2.40671 7.69493 2.44148 7.86811 2.509 8.02948C2.57651 8.19085 2.67543 8.33719 2.8 8.46L4.68 10.34C4.41271 10.8758 4.18542 11.4307 4 12H1.34C0.98461 12 0.643776 12.1412 0.392477 12.3925C0.141178 12.6438 0 12.9846 0 13.34L0 16H1.34V13.34H4.48C4.62452 13.3411 4.7654 13.2947 4.88101 13.208C4.99663 13.1213 5.08059 12.999 5.12 12.86C5.33106 12.0515 5.626 11.2672 6 10.52C6.08455 10.4038 6.13009 10.2637 6.13009 10.12C6.13009 9.97627 6.08455 9.83623 6 9.72L3.74 7.52L7.52 3.74L9.74 6C9.84113 6.10593 9.97463 6.17521 10.1195 6.19693C10.2643 6.21866 10.4122 6.19159 10.54 6.12C11.2753 5.71496 12.0535 5.39298 12.86 5.16C12.999 5.12059 13.1213 5.03663 13.208 4.92101C13.2947 4.8054 13.3411 4.66452 13.34 4.52V1.34H18.66V4.48C18.6589 4.62452 18.7053 4.7654 18.792 4.88101C18.8787 4.99663 19.001 5.08059 19.14 5.12C19.9485 5.33106 20.7328 5.626 21.48 6C21.6086 6.0683 21.7558 6.0935 21.8998 6.0719C22.0438 6.0503 22.1771 5.98303 22.28 5.88L24.5 3.66L28.26 7.44L26 9.74C25.9124 9.85495 25.865 9.99548 25.865 10.14C25.865 10.2845 25.9124 10.425 26 10.54C26.4035 11.2737 26.719 12.0524 26.94 12.86C26.9849 12.9958 27.0703 13.1146 27.1847 13.2004C27.2991 13.2863 27.4371 13.335 27.58 13.34H30.74V16H32V13.34C32 12.9846 31.8588 12.6438 31.6075 12.3925C31.3562 12.1412 31.0154 12 30.66 12Z" fill="#1971BD"/>
<path d="M9.34 15.34V16H10.66V15.34C10.66 13.9238 11.2226 12.5655 12.224 11.5641C13.2255 10.5626 14.5837 10 16 10C17.4163 10 18.7745 10.5626 19.7759 11.5641C20.7774 12.5655 21.34 13.9238 21.34 15.34V16H22.66V15.34C22.66 13.5737 21.9583 11.8797 20.7093 10.6307C19.4603 9.3817 17.7663 8.68002 16 8.68002C14.2337 8.68002 12.5397 9.3817 11.2907 10.6307C10.0417 11.8797 9.34 13.5737 9.34 15.34Z" fill="#1971BD"/>
<path d="M8 25.34H1.34C0.988048 25.34 0.65021 25.4784 0.399478 25.7254C0.148747 25.9724 0.00525301 26.3081 0 26.66L0 30.66C0 31.0154 0.141178 31.3562 0.392477 31.6075C0.643776 31.8588 0.98461 32 1.34 32H8C8.35539 32 8.69622 31.8588 8.94752 31.6075C9.19882 31.3562 9.34 31.0154 9.34 30.66V26.66C9.33475 26.3081 9.19125 25.9724 8.94052 25.7254C8.68979 25.4784 8.35195 25.34 8 25.34ZM8 30.66H1.34V26.66H8V30.66Z" fill="#1971BD"/>
<path d="M30.66 25.34H24C23.6481 25.34 23.3102 25.4784 23.0595 25.7254C22.8088 25.9724 22.6653 26.3081 22.66 26.66V30.66C22.66 31.0154 22.8012 31.3562 23.0525 31.6075C23.3038 31.8588 23.6446 32 24 32H30.66C31.0154 32 31.3562 31.8588 31.6075 31.6075C31.8588 31.3562 32 31.0154 32 30.66V26.66C31.9947 26.3081 31.8513 25.9724 31.6005 25.7254C31.3498 25.4784 31.012 25.34 30.66 25.34ZM30.66 30.66H24V26.66H30.66V30.66Z" fill="#1971BD"/>
<path d="M19.34 25.34H12.66C12.4867 25.34 12.315 25.3741 12.1549 25.4405C11.9947 25.5068 11.8492 25.604 11.7266 25.7266C11.604 25.8492 11.5068 25.9947 11.4405 26.1549C11.3741 26.315 11.34 26.4867 11.34 26.66V30.66C11.3373 30.835 11.3695 31.0088 11.4347 31.1713C11.4998 31.3337 11.5966 31.4816 11.7195 31.6063C11.8423 31.731 11.9887 31.8301 12.1502 31.8976C12.3117 31.9652 12.485 32 12.66 32H19.34C19.6919 31.9947 20.0276 31.8512 20.2746 31.6005C20.5216 31.3498 20.66 31.0119 20.66 30.66V26.66C20.6548 26.3115 20.5141 25.9788 20.2677 25.7323C20.0212 25.4859 19.6885 25.3452 19.34 25.34ZM19.34 30.66H12.66V26.66H19.34V30.66Z" fill="#1971BD"/>
<path d="M4 20.66V24H5.34V21.34H15.34V24H16.66V21.34H26.66V24H28V20.66C28 20.485 27.9305 20.3171 27.8067 20.1933C27.6829 20.0695 27.515 20 27.34 20H16.66V15.34H15.34V20H4.66C4.48496 20 4.31708 20.0695 4.19331 20.1933C4.06954 20.3171 4 20.485 4 20.66Z" fill="#1971BD"/>
<path d="M19.34 16V15.34C19.34 14.4542 18.9881 13.6046 18.3617 12.9783C17.7354 12.3519 16.8858 12 16 12C15.1142 12 14.2646 12.3519 13.6383 12.9783C13.0119 13.6046 12.66 14.4542 12.66 15.34V16H14V15.34C14 14.8096 14.2107 14.3009 14.5858 13.9258C14.9609 13.5507 15.4696 13.34 16 13.34C16.5304 13.34 17.0391 13.5507 17.4142 13.9258C17.7893 14.3009 18 14.8096 18 15.34V16H19.34Z" fill="#1971BD"/>
</svg>
