<svg id="functions" xmlns="http://www.w3.org/2000/svg" width="16" height="16" viewBox="0 0 16 16">
  <path id="Path_21056" data-name="Path 21056" d="M226,214.333v.333h-2v-.333a1,1,0,0,1,2,0Z" transform="translate(-217 -206.666)" fill="#f2f2f2"/>
  <path id="Subtraction_3" data-name="Subtraction 3" d="M13.667,7.668h-3V7.333a3,3,0,0,0-6,0v.334h-3V7H1v.667H0V6.333A.333.333,0,0,1,.333,6H1.907a5.9,5.9,0,0,1,.506-1.23L1.3,3.66a.338.338,0,0,1,0-.473L3.187,1.3a.337.337,0,0,1,.473,0l1.11,1.11A5.911,5.911,0,0,1,6,1.906V.333A.333.333,0,0,1,6.333,0H9a.333.333,0,0,1,.333.333V1.907a5.9,5.9,0,0,1,1.23.506l1.11-1.11a.337.337,0,0,1,.473,0L14.03,3.187a.338.338,0,0,1,0,.473L12.92,4.77A5.911,5.911,0,0,1,13.427,6H15a.333.333,0,0,1,.333.333V7.666h-1V7h-.667v.667ZM11.667,3v.667h.667V3ZM3,3v.667h.667V3ZM7.333,1v.667H8V1Z" transform="translate(0.333 0.333)" fill="#0071bd"/>
  <path id="Subtraction_6" data-name="Subtraction 6" d="M15,2.667H11.667a.333.333,0,0,1-.333-.333v-2A.333.333,0,0,1,11.667,0H15a.333.333,0,0,1,.333.333v2A.333.333,0,0,1,15,2.667ZM13.667,1v.667h.667V1ZM12.334,1v.667H13V1Zm-3,1.667H6a.334.334,0,0,1-.334-.333v-2A.334.334,0,0,1,6,0H9.333a.334.334,0,0,1,.334.333v2A.334.334,0,0,1,9.333,2.667ZM8,1v.667h.667V1ZM6.666,1v.667h.667V1Zm-3,1.667H.333A.333.333,0,0,1,0,2.334v-2A.333.333,0,0,1,.333,0H3.667A.333.333,0,0,1,4,.333v2A.333.333,0,0,1,3.667,2.667ZM2.334,1v.667H3V1ZM1,1v.667h.667V1Z" transform="translate(0.333 13)" fill="#0071bd"/>
  <g id="Group_9327" data-name="Group 9327">
    <path id="Path_21062" data-name="Path 21062" d="M15.333,6H14.006a6.278,6.278,0,0,0-.343-.833L14.6,4.23a.667.667,0,0,0,0-.943h0L12.714,1.4a.683.683,0,0,0-.943,0l-.938.937A6.28,6.28,0,0,0,10,1.994V.667A.667.667,0,0,0,9.333,0H6.667A.667.667,0,0,0,6,.667V1.994a6.278,6.278,0,0,0-.833.343L4.229,1.4a.682.682,0,0,0-.943,0L1.4,3.286a.667.667,0,0,0,0,.943l.937.938A6.28,6.28,0,0,0,1.994,6H.667A.667.667,0,0,0,0,6.667V8H.667V6.667H2.24a.333.333,0,0,0,.32-.241,5.647,5.647,0,0,1,.478-1.161.333.333,0,0,0-.056-.4L1.872,3.757,3.757,1.872l1.109,1.11a.333.333,0,0,0,.4.056A5.655,5.655,0,0,1,6.426,2.56a.333.333,0,0,0,.241-.32V.667H9.333V2.24a.333.333,0,0,0,.241.32,5.656,5.656,0,0,1,1.161.478.333.333,0,0,0,.4-.056l1.111-1.11,1.886,1.886-1.11,1.109a.333.333,0,0,0-.056.4,5.647,5.647,0,0,1,.478,1.161.333.333,0,0,0,.32.241h1.573V8H16V6.667A.667.667,0,0,0,15.333,6Z" fill="#0071bd"/>
    <path id="Path_21063" data-name="Path 21063" d="M149.333,142v.333H150V142a2.667,2.667,0,0,1,5.333,0v.333H156V142a3.333,3.333,0,1,0-6.667,0Z" transform="translate(-144.666 -134.333)" fill="#0071bd"/>
    <path id="Path_21069" data-name="Path 21069" d="M4,405.333H.667A.667.667,0,0,0,0,406v2a.667.667,0,0,0,.667.667H4A.667.667,0,0,0,4.667,408v-2A.667.667,0,0,0,4,405.333ZM4,408H.667v-2H4Z" transform="translate(0 -392.666)" fill="#0071bd"/>
    <path id="Path_21070" data-name="Path 21070" d="M366.667,405.333h-3.333a.667.667,0,0,0-.667.667v2a.667.667,0,0,0,.667.667h3.333a.667.667,0,0,0,.667-.667v-2A.667.667,0,0,0,366.667,405.333Zm0,2.667h-3.333v-2h3.333Z" transform="translate(-351.334 -392.666)" fill="#0071bd"/>
    <path id="Path_21071" data-name="Path 21071" d="M185.334,405.333H182a.667.667,0,0,0-.667.667v2a.667.667,0,0,0,.667.667h3.333A.667.667,0,0,0,186,408v-2A.667.667,0,0,0,185.334,405.333Zm0,2.667H182v-2h3.333v2Z" transform="translate(-175.667 -392.666)" fill="#0071bd"/>
    <path id="Path_21072" data-name="Path 21072" d="M64,248v1.667h.667v-1.333h5v1.333h.667v-1.333h5v1.333H76V248a.333.333,0,0,0-.333-.333H70.333v-2.333h-.667v2.333H64.333A.333.333,0,0,0,64,248Z" transform="translate(-62 -237.666)" fill="#0071bd"/>
    <path id="Path_21079" data-name="Path 21079" d="M206,194v-.333a1.667,1.667,0,0,0-3.333,0V194h.667v-.333a1,1,0,0,1,2,0V194Z" transform="translate(-196.334 -186)" fill="#0071bd"/>
  </g>
</svg>
