<svg xmlns="http://www.w3.org/2000/svg" width="14.107" height="14" viewBox="0 0 14.107 14">
  <g id="Recoveries" transform="translate(22551.053 -16155)">
    <rect id="Rectangle_1808" data-name="Rectangle 1808" width="14" height="14" transform="translate(-22551 16155)" fill="none"/>
    <g id="Group_2042" data-name="Group 2042" transform="translate(-22623.99 15294.235)">
      <path id="Path_2764" data-name="Path 2764" d="M82.741,870.765a.249.249,0,0,0-.25.25,2.25,2.25,0,1,1-2.25-2.25,2.165,2.165,0,0,1,1.827,1H80.491a.25.25,0,0,0,0,.5h2a.24.24,0,0,0,.052-.01.349.349,0,0,0,.046-.01h0c.008,0,.014-.011.022-.015a.285.285,0,0,0,.056-.04.242.242,0,0,0,.026-.039.365.365,0,0,0,.027-.041.294.294,0,0,0,.013-.067.261.261,0,0,0,.006-.027v0h0v-2a.25.25,0,0,0-.5,0v1.15a2.652,2.652,0,0,0-2-.9,2.75,2.75,0,1,0,2.75,2.75A.249.249,0,0,0,82.741,870.765Z" fill="#0071bd" stroke="#0071bd" stroke-linecap="square" stroke-miterlimit="10" stroke-width="0.108"/>
      <path id="Path_2765" data-name="Path 2765" d="M84.949,865.761a4.552,4.552,0,0,0-1.171,0,.239.239,0,0,1-.038,0,.25.25,0,0,1-.037-.5,4.792,4.792,0,0,1,1.021-.031,3.774,3.774,0,0,0-3.712-3.471,3.957,3.957,0,0,0-3.071,1.532,2.246,2.246,0,0,1,.8,1.718.25.25,0,0,1-.5,0,1.749,1.749,0,0,0-.8-1.469,1.5,1.5,0,0,0-.175-.1l-.053-.026a1.743,1.743,0,0,0-.208-.08l-.027-.007a1.88,1.88,0,0,0-.2-.044l-.058-.009a1.743,1.743,0,0,0-1.979,1.734c0,.02,0,.04,0,.061l0,.052,0,.04c0,.033,0,.065,0,.1v.157l-.142.068a2.972,2.972,0,0,0-1.608,2.563,2.715,2.715,0,0,0,2.711,2.712H77a3.252,3.252,0,0,1,3.238-3,3.17,3.17,0,0,1,1.5.374v-.124a.75.75,0,0,1,1.5,0v2l0,.023c0,.022,0,.043-.006.064a.771.771,0,0,1-.017.1.557.557,0,0,1-.018.058.7.7,0,0,1-.04.094.272.272,0,0,1-.013.03.748.748,0,0,1,.3.383h1.042a2.51,2.51,0,0,0,2.507-2.507A2.564,2.564,0,0,0,84.949,865.761Z" fill="#0071bd" stroke="#0071bd" stroke-linecap="square" stroke-miterlimit="10" stroke-width="0.108"/>
    </g>
  </g>
</svg>
