<svg xmlns="http://www.w3.org/2000/svg" width="16.849" height="15.676" viewBox="0 0 16.849 15.676">
  <path id="recoveries" d="M6177.223,2712.461c-.493.013-.965,0-1.372,0-2.18,0-4.361-.186-6.541-.058-.34.02-.669.017-1.007.026a5.684,5.684,0,0,1-2.894-.4,2.681,2.681,0,0,1-1.162-2.4,4.185,4.185,0,0,1,.986-2.479,2.582,2.582,0,0,1,.077-3.255,2.554,2.554,0,0,1,1.929-.9,2.864,2.864,0,0,1,1.2.276,4.455,4.455,0,0,1,3.643-2.077,4.922,4.922,0,0,1,1.4.213,4.318,4.318,0,0,1,3.2,4.279c.106.01.213.017.319.025a7,7,0,0,1,.706.072,4.081,4.081,0,0,1,2.819,1.978,3.46,3.46,0,0,1,.315,3.18C6180.2,2712.193,6178.632,2712.424,6177.223,2712.461Zm-2.729,2.38a2.77,2.77,0,0,1-2.1.947,2.267,2.267,0,0,1-1.917-.922l.832-.589-1.16-.572-1.582-.779v3.035l.638-.343.216-.116-.013.008h0l.155.145c.092.09.176.167.259.243a3.938,3.938,0,0,0,2.6.971,3.751,3.751,0,0,0,3.467-2.168c.188-.408.114-.694-.216-.853a.584.584,0,0,0-.249-.065m-3.134-5.153a2.342,2.342,0,0,1,1.9.885l-.265.191-.585.435,2.745,1.34v-3.059l-.7.381-.153.082-.146-.141c-.107-.1-.2-.2-.308-.29a3.835,3.835,0,0,0-5.413.354h0a3.768,3.768,0,0,0-.407.561l-.06.1a.961.961,0,0,0-.216.679.563.563,0,0,0,.306.33.636.636,0,0,0,.3.09c.257,0,.4-.247.53-.485.029-.051.057-.1.086-.145l.024-.043.035-.059a2.839,2.839,0,0,1,2.331-1.2Z" transform="translate(-6164.241 -2701.194)" fill="#0071bd"/>
</svg>
