<svg width="32" height="32" viewBox="0 0 32 32" fill="none" xmlns="http://www.w3.org/2000/svg">
<path d="M24.6939 22.3986H22.0546C17.9154 22.3986 13.7762 22.0378 9.63703 22.2846C8.99147 22.2846 8.36489 22.2846 7.73831 22.2846C5.8742 22.5291 3.97865 22.2668 2.25102 21.5251C1.51291 21.0357 0.917049 20.3602 0.52365 19.5667C0.130252 18.7732 -0.0467466 17.89 0.0105378 17.0062C0.126976 15.3032 0.793296 13.684 1.90925 12.3923C1.32958 11.6738 0.964729 10.8062 0.856758 9.88931C0.748787 8.97246 0.902089 8.04377 1.299 7.21027C1.6959 6.37676 2.32026 5.67238 3.10009 5.1783C3.87993 4.68423 4.78351 4.42057 5.70669 4.41771C6.49615 4.42417 7.27435 4.60575 7.98515 4.94935C8.72276 3.77275 9.73961 2.79658 10.9453 2.1076C12.1511 1.41861 13.5083 1.03815 14.8965 1.00002C15.7976 0.997962 16.6938 1.1324 17.5547 1.39875C19.3323 1.87532 20.898 2.93584 22 4.40978C23.102 5.88373 23.6763 7.68546 23.6306 9.52526H24.2382C24.6899 9.54132 25.1401 9.58571 25.5863 9.65817C26.7019 9.86179 27.7594 10.3073 28.6844 10.9633C29.6094 11.6194 30.3796 12.4701 30.9406 13.4556C31.5139 14.3419 31.8664 15.3525 31.9688 16.403C32.0712 17.4535 31.9205 18.5133 31.5292 19.4935C30.39 21.8859 27.3331 22.3226 24.6939 22.3986ZM19.5104 26.9175C19.0141 27.4853 18.4006 27.9388 17.7123 28.2469C17.024 28.555 16.2771 28.7104 15.5231 28.7023C14.8213 28.7332 14.1229 28.5899 13.49 28.2851C12.8572 27.9803 12.3097 27.5235 11.8965 26.9555L13.4724 25.8352L11.2699 24.753L8.26995 23.272V28.9681L9.50412 28.3795L9.92184 28.1707L10.2066 28.4365L10.7003 28.8922C12.0541 30.1143 13.8131 30.7909 15.637 30.7909C17.0137 30.8155 18.3682 30.4414 19.5372 29.7137C20.7062 28.986 21.6398 27.9358 22.2255 26.6897C22.5863 25.9112 22.4344 25.3606 21.8078 25.0568C21.6611 24.9811 21.4982 24.942 21.3331 24.9428L19.5104 26.9175ZM15.2952 15.1265C15.9858 15.0996 16.673 15.2371 17.3002 15.5276C17.9273 15.818 18.4766 16.2532 18.9028 16.7973L18.3901 17.1581L17.2889 18.0885L22.4913 20.6328V14.7277L21.1622 15.4493L20.8964 15.6012L20.6116 15.3353L20.042 14.7847C19.3227 14.1525 18.4859 13.6682 17.5794 13.3594C16.6729 13.0507 15.7145 12.9235 14.7588 12.9852C13.8032 13.047 12.869 13.2963 12.0098 13.7191C11.1505 14.1419 10.383 14.7298 9.75095 15.4493C9.46858 15.7819 9.21453 16.1375 8.99147 16.5125L8.87754 16.7024C8.71731 16.8935 8.59627 17.1142 8.52134 17.352C8.44641 17.5898 8.41905 17.8401 8.44084 18.0885C8.48658 18.2299 8.56309 18.3594 8.66486 18.4678C8.76664 18.5761 8.89114 18.6606 9.02944 18.715C9.19776 18.8281 9.39631 18.8877 9.59906 18.8859C10.0737 18.8859 10.3585 18.4302 10.6054 17.9745L10.7573 17.6897V17.5758C11.2619 16.8732 11.926 16.3003 12.6951 15.9042C13.4642 15.5081 14.3162 15.3001 15.1813 15.2974L15.2952 15.1265Z" fill="#1971BD"/>
</svg>
