<svg xmlns="http://www.w3.org/2000/svg" width="14.053" height="14" viewBox="0 0 14.053 14">
  <g id="Repository" transform="translate(22551 -16179)">
    <rect id="Rectangle_1809" data-name="Rectangle 1809" width="14" height="14" transform="translate(-22551 16179)" fill="none"/>
    <g id="Group_2043" data-name="Group 2043" transform="translate(-22623.906 15294.894)">
      <path id="Path_2766" data-name="Path 2766" d="M75.758,888.947h9.736c0-.106,0-.193,0-.278a1.056,1.056,0,0,0-1.129-1.14c-1.75.021-3.5.006-5.254.01a.382.382,0,0,1-.3-.124q-.6-.611-1.213-1.211a.353.353,0,0,0-.224-.092c-1.115-.006-2.23,0-3.346,0a1.109,1.109,0,0,0-.243.023,1.014,1.014,0,0,0-.8,1.067q0,4.112,0,8.224v.219a.129.129,0,0,0,.05-.083q.663-2.758,1.326-5.516A1.372,1.372,0,0,1,75.758,888.947Z" transform="translate(0)" fill="#0071bd" stroke="#0071bd" stroke-linecap="square" stroke-miterlimit="10" stroke-width="0.108"/>
      <path id="Path_2767" data-name="Path 2767" d="M86.425,889.391H75.741a.948.948,0,0,0-.963.762l-.811,3.391q-.273,1.142-.544,2.283c-.072.3.064.474.374.482H84.807a.6.6,0,0,0,.665-.5q.7-2.924,1.4-5.847C86.975,889.552,86.846,889.391,86.425,889.391Zm-3.354,4.291a1.493,1.493,0,0,1-1.4,1.019l-1.456-.012-.9-.007-1.59-.013a.873.873,0,0,1-.92-1.12,1.723,1.723,0,0,1,1-1.045l.071-.027.018-.065c0-.013.008-.027.012-.04l0-.016,0-.022,0-.025a1.042,1.042,0,0,1,.978-.711.841.841,0,0,1,.1.007l.025,0a.813.813,0,0,1,.084.019l.011,0a.577.577,0,0,1,.084.034l.021.011a.583.583,0,0,1,.069.041.541.541,0,0,1,.2.6.08.08,0,0,0,.084.1.147.147,0,0,0,.14-.1.7.7,0,0,0-.171-.707A2.406,2.406,0,0,1,81.1,891a1.21,1.21,0,0,1,1.287,1.435,2.474,2.474,0,0,0-.462.009.145.145,0,0,0-.125.116.08.08,0,0,0,.087.087H81.9a2.227,2.227,0,0,1,.527,0A.8.8,0,0,1,83.071,893.682Z" transform="translate(-0.003 -0.02)" fill="#0071bd" stroke="#0071bd" stroke-linecap="square" stroke-miterlimit="10" stroke-width="0.108"/>
    </g>
  </g>
</svg>
