<svg xmlns="http://www.w3.org/2000/svg" width="13.361" height="13.404" viewBox="0 0 13.361 13.404">
  <g id="restoresessions" transform="translate(-297.578 -383.679)">
    <path id="Path_21083" data-name="Path 21083" d="M6256.3,2740.26c.315-.356.631-.712,1.017-1.149.259,1.3.5,2.525.761,3.821l-3.884-.158.9-1.094a4.73,4.73,0,0,0-3.964-1.694,4.906,4.906,0,0,0-.895,9.656,4.837,4.837,0,0,0,5.357-2.252.606.606,0,0,1,.665-.357c.446.04.9.059,1.344.087-.166,1.374-2.072,3.738-4.745,4.319a6.717,6.717,0,1,1,3.447-11.18Z" transform="translate(-5947.143 -2354.509)" fill="#0071bd"/>
    <g id="Group_9331" data-name="Group 9331" transform="translate(300.95 387.075)">
      <path id="Path_20633" data-name="Path 20633" d="M1704.488,674.247a3.332,3.332,0,0,0-4.059,1.277,3.39,3.39,0,0,0-.4.842,3.349,3.349,0,1,0,6.551.987A3.368,3.368,0,0,0,1704.488,674.247Zm-1.219,5.655a2.558,2.558,0,0,1-2.588-2.542,2.49,2.49,0,0,1,.2-1,2.6,2.6,0,0,1,.571-.829,2.544,2.544,0,0,1,1.755-.725,2.548,2.548,0,0,1,.059,5.1Z" transform="translate(-1699.881 -673.999)" fill="#0071bd"/>
      <path id="Path_20634" data-name="Path 20634" d="M1705.037,677.2l.377-.018c-.009-.066-.021-.131-.033-.195a2.069,2.069,0,0,0-.461-.975l-.262.249-.279-.261.259-.272a2.091,2.091,0,0,0-.87-.437,2.769,2.769,0,0,0-.3-.054c0,.064-.008.118-.009.171v1.211c0,.132.008.241.152.3a.244.244,0,0,1,.123.125c.059.149.172.152.3.148.195-.006.39,0,.585,0v.373a.148.148,0,0,1-.04.015c-.215,0-.428.006-.643,0a.176.176,0,0,0-.177.1.564.564,0,0,1-.626.276.576.576,0,0,1-.447-.45.563.563,0,0,1,.279-.623.171.171,0,0,0,.1-.178v-1.374a.466.466,0,0,0-.015-.1,2.233,2.233,0,0,0-.933.324,2.32,2.32,0,0,0-.232.168l.252.264-.3.319-.221-.321a2.437,2.437,0,0,0-.263.39,2.226,2.226,0,0,0-.244.8l.376.019v.373l-.376.016a2.156,2.156,0,0,0,.493,1.17l.263-.249.278.26-.26.271a2.08,2.08,0,0,0,.55.334,2.312,2.312,0,0,0,.621.157c.006-.132.012-.253.017-.37h.381v.374a2.2,2.2,0,0,0,1.181-.493l-.251-.264.292-.315.226.315a2.207,2.207,0,0,0,.5-1.143.43.43,0,0,1,.007-.048l-.376-.018Z" transform="translate(-1699.913 -674.03)" fill="#0071bd"/>
      <path id="Path_20635" data-name="Path 20635" d="M1703.291,677.62a.186.186,0,0,0,.209-.158v-.024a.185.185,0,0,0-.167-.2h-.015a.182.182,0,0,0-.194.169v.008a.175.175,0,0,0,.142.2Z" transform="translate(-1699.963 -674.081)" fill="#0071bd"/>
    </g>
  </g>
</svg>
