<svg width="32" height="32" viewBox="0 0 32 32" fill="none" xmlns="http://www.w3.org/2000/svg">
<g clip-path="url(#clip0)">
<path d="M22.112 22.411C21.9634 22.4166 21.8225 22.4782 21.7173 22.5833C21.6122 22.6884 21.5507 22.8294 21.545 22.978C21.545 23.9872 21.2458 24.9738 20.6851 25.8129C20.1244 26.6521 19.3274 27.3061 18.395 27.6923C17.4626 28.0786 16.4366 28.1796 15.4468 27.9827C14.4569 27.7858 13.5477 27.2998 12.8341 26.5862C12.1204 25.8726 11.6345 24.9633 11.4376 23.9735C11.2407 22.9837 11.3417 21.9577 11.7279 21.0253C12.1142 20.0929 12.7682 19.2959 13.6073 18.7352C14.4465 18.1745 15.433 17.8752 16.4423 17.8752C17.2685 17.8764 18.0812 18.0846 18.8062 18.4807C19.5312 18.8769 20.1453 19.4484 20.5925 20.1431H17.0093C16.8607 20.1487 16.7197 20.2103 16.6146 20.3154C16.5094 20.4206 16.4479 20.5615 16.4423 20.7101C16.4423 20.8605 16.502 21.0047 16.6083 21.111C16.7147 21.2173 16.8589 21.2771 17.0093 21.2771H21.8399H21.9533C21.9631 21.2246 21.9631 21.1708 21.9533 21.1183V16.5825C21.9533 16.4322 21.8935 16.288 21.7872 16.1816C21.6809 16.0753 21.5367 16.0156 21.3863 16.0156C21.2377 16.0212 21.0967 16.0827 20.9916 16.1878C20.8865 16.293 20.8249 16.434 20.8193 16.5825V18.7824C20.2518 18.1393 19.5537 17.6246 18.7716 17.2726C17.9894 16.9207 17.1412 16.7395 16.2835 16.7413C15.0573 16.7725 13.8674 17.1647 12.8629 17.8687C11.8584 18.5727 11.0838 19.5573 10.636 20.6993C10.1882 21.8413 10.0871 23.09 10.3454 24.2891C10.6037 25.4883 11.2098 26.5847 12.088 27.4411C12.9662 28.2975 14.0775 28.8759 15.2828 29.104C16.488 29.332 17.7338 29.1996 18.8642 28.7232C19.9946 28.2469 20.9594 27.4478 21.6379 26.4259C22.3165 25.404 22.6786 24.2047 22.679 22.978C22.679 22.8276 22.6193 22.6834 22.5129 22.5771C22.4066 22.4708 22.2624 22.411 22.112 22.411Z" fill="#1971BD" stroke="#1971BD" stroke-width="0.11" stroke-miterlimit="10" stroke-linecap="square"/>
<path d="M27.1013 11.0716C26.2198 10.969 25.3294 10.969 24.4479 11.0716C24.3146 11.0726 24.1855 11.0247 24.0852 10.9369C23.9849 10.8491 23.9203 10.7276 23.9036 10.5953C23.8908 10.5221 23.8931 10.4469 23.9104 10.3746C23.9277 10.3023 23.9597 10.2342 24.0043 10.1747C24.0489 10.1152 24.1053 10.0655 24.1699 10.0286C24.2345 9.99174 24.3059 9.96849 24.3799 9.96031C25.1335 9.87643 25.8941 9.87643 26.6478 9.96031C26.4945 7.81776 25.5425 5.81081 23.9802 4.33667C22.4179 2.86253 20.359 2.02862 18.2112 2C16.8603 2.02522 15.5321 2.35188 14.3236 2.95613C13.1151 3.56038 12.0568 4.42696 11.2261 5.49256C11.7937 5.96694 12.2504 6.56008 12.5639 7.23014C12.8774 7.90021 13.04 8.63089 13.0404 9.37066C13.0404 9.52103 12.9807 9.66524 12.8743 9.77157C12.768 9.8779 12.6238 9.93763 12.4734 9.93763C12.3231 9.93763 12.1788 9.8779 12.0725 9.77157C11.9662 9.66524 11.9064 9.52103 11.9064 9.37066C11.9025 8.70843 11.7348 8.05746 11.4182 7.47578C11.1016 6.89409 10.6461 6.39977 10.0921 6.03685L9.70659 5.83274H9.57052C9.41908 5.75456 9.25932 5.6937 9.09426 5.65131H8.95819H8.50461H8.45925H7.93763C6.92845 5.6547 5.958 6.04023 5.22163 6.73032C4.48526 7.42041 4.03762 8.36382 3.96882 9.37066C3.96882 9.37066 3.96882 9.37066 3.96882 9.50673V9.73352C3.96882 9.73352 3.96882 9.8696 3.96882 9.93763V10.3005L3.65131 10.4592C2.58307 11.0169 1.68211 11.8483 1.04057 12.8684C0.39903 13.8885 0.0399326 15.0607 1.42452e-10 16.2651C-5.5078e-06 17.0741 0.159714 17.8751 0.469996 18.6223C0.780279 19.3694 1.23502 20.048 1.80813 20.619C2.38124 21.19 3.06145 21.6422 3.80974 21.9497C4.55802 22.2573 5.35966 22.414 6.16867 22.4111H9.11694C9.26454 20.5658 10.099 18.8431 11.4553 17.5834C12.8116 16.3236 14.5912 15.6185 16.4422 15.6074C17.6298 15.6102 18.7984 15.9062 19.8441 16.4692V16.1743C19.8441 15.7232 20.0233 15.2906 20.3423 14.9716C20.6613 14.6526 21.0939 14.4734 21.545 14.4734C21.9961 14.4734 22.4287 14.6526 22.7477 14.9716C23.0667 15.2906 23.2459 15.7232 23.2459 16.1743V20.9142C23.2459 20.9142 23.2459 21.073 23.2459 21.141V21.2771C23.2545 21.3449 23.2545 21.4135 23.2459 21.4812C23.5563 21.6913 23.794 21.9924 23.9263 22.343H26.1942C27.6979 22.343 29.14 21.7457 30.2033 20.6824C31.2666 19.6191 31.8639 18.177 31.8639 16.6733C31.8429 15.3321 31.3563 14.04 30.4875 13.0181C29.6186 11.9962 28.4216 11.3081 27.1013 11.0716Z" fill="#1971BD" stroke="#1971BD" stroke-width="0.11" stroke-miterlimit="10" stroke-linecap="square"/>
</g>
<defs>
<clipPath id="clip0">
<rect width="32" height="32" fill="white"/>
</clipPath>
</defs>
</svg>
