<svg width="32" height="32" viewBox="0 0 32 32" fill="none" xmlns="http://www.w3.org/2000/svg">
<g clip-path="url(#clip0)">
<path d="M6.33871 10.4764H28.5603V9.84411C28.5871 9.49818 28.539 9.15055 28.4194 8.82485C28.2998 8.49916 28.1115 8.20303 27.8672 7.95663C27.6229 7.71022 27.3285 7.51931 27.0038 7.39687C26.6792 7.27443 26.332 7.22334 25.9859 7.24707C21.9887 7.24707 17.9915 7.24707 13.9943 7.24707C13.8667 7.25164 13.7396 7.22766 13.6224 7.17687C13.5052 7.12608 13.4008 7.04977 13.3168 6.95349C12.3909 6.14051 11.4876 5.12428 10.5391 4.22096C10.4013 4.09891 10.2262 4.02726 10.0423 4.01771H2.40928C2.22183 3.9941 2.03216 3.9941 1.84471 4.01771C1.28163 4.12261 0.779452 4.43754 0.439832 4.89876C0.100212 5.35997 -0.0514702 5.933 0.0154937 6.50183V25.7651C0.0477272 25.7466 0.0748974 25.7204 0.0945943 25.6889C0.114291 25.6574 0.125906 25.6215 0.128408 25.5844C1.15217 21.384 2.16087 17.161 3.15452 12.9154C3.32128 12.2033 3.72974 11.571 4.31035 11.1263C4.89095 10.6816 5.60777 10.4519 6.33871 10.4764Z" fill="#1971BD" stroke="#1971BD" stroke-width="0.11" stroke-miterlimit="10" stroke-linecap="square"/>
<path d="M15.1461 22.6711C14.9228 22.6749 14.7084 22.7592 14.5424 22.9086C14.3764 23.058 14.27 23.2624 14.2428 23.4841C14.2225 23.5866 14.2255 23.6924 14.2515 23.7937C14.2775 23.895 14.3258 23.9892 14.3929 24.0693C14.4601 24.1494 14.5443 24.2135 14.6395 24.2568C14.7346 24.3002 14.8383 24.3216 14.9428 24.3196C15.1634 24.3071 15.3732 24.2197 15.5374 24.0719C15.7016 23.9241 15.8105 23.7247 15.8461 23.5067C15.8587 23.4052 15.8502 23.3022 15.8212 23.2041C15.7923 23.1061 15.7434 23.015 15.6778 22.9367C15.6121 22.8583 15.531 22.7943 15.4395 22.7486C15.3481 22.7029 15.2482 22.6765 15.1461 22.6711Z" fill="#1971BD" stroke="#1971BD" stroke-width="0.11" stroke-miterlimit="10" stroke-linecap="square"/>
<path d="M15.4401 18.5046C15.9144 17.975 15.9148 17.2017 15.441 16.7773C14.9672 16.3529 14.1986 16.4382 13.7243 16.9677C13.25 17.4973 13.2496 18.2706 13.7234 18.695C14.1972 19.1194 14.9658 19.0341 15.4401 18.5046Z" fill="#1971BD" stroke="#1971BD" stroke-width="0.11" stroke-miterlimit="10" stroke-linecap="square"/>
<path d="M19.5271 19.6903C19.253 19.7169 18.9974 19.8409 18.8068 20.0397C18.6163 20.2386 18.5033 20.4992 18.4883 20.7743C18.4844 20.8998 18.5075 21.0248 18.5558 21.1407C18.6042 21.2566 18.6768 21.3608 18.7688 21.4464C18.8607 21.532 18.97 21.5968 19.0891 21.6367C19.2082 21.6766 19.3345 21.6905 19.4594 21.6776C19.7313 21.6504 19.9841 21.5256 20.1709 21.3263C20.3578 21.127 20.466 20.8667 20.4756 20.5936C20.4829 20.4692 20.463 20.3446 20.4172 20.2286C20.3715 20.1127 20.301 20.0081 20.2108 19.9221C20.1205 19.8361 20.0126 19.7708 19.8945 19.7308C19.7765 19.6908 19.6511 19.677 19.5271 19.6903Z" fill="#1971BD" stroke="#1971BD" stroke-width="0.11" stroke-miterlimit="10" stroke-linecap="square"/>
<path d="M30.6832 11.4475H6.29367C5.77474 11.4336 5.26687 11.599 4.85555 11.9157C4.44424 12.2324 4.15459 12.6812 4.03538 13.1864C3.47081 15.7834 2.86107 18.3579 2.161 20.9324C1.82225 22.6712 1.41576 24.4101 1.00927 26.149C0.851189 26.8265 1.14477 27.233 1.86742 27.2556H27.0022C27.3567 27.2954 27.7131 27.1983 27.9985 26.9843C28.2839 26.7702 28.4768 26.4553 28.5379 26.1038C29.6068 21.5873 30.6757 17.1384 31.7446 12.7573C31.9253 11.8314 31.6317 11.4475 30.6832 11.4475ZM12.1201 20.4807L11.6684 19.9387C11.6206 19.8818 11.5944 19.8098 11.5944 19.7355C11.5944 19.6611 11.6206 19.5892 11.6684 19.5322L12.0072 19.1483C11.9263 18.9517 11.8658 18.7474 11.8265 18.5386H11.3522C11.3145 18.5266 11.2799 18.5065 11.2508 18.4797C11.2217 18.4529 11.1988 18.4201 11.1837 18.3835C11.1686 18.3469 11.1618 18.3074 11.1636 18.2679C11.1654 18.2284 11.1758 18.1897 11.1942 18.1547V17.432C11.2072 17.3529 11.2448 17.2798 11.3015 17.2231C11.3582 17.1664 11.4312 17.1289 11.5103 17.1158H11.962C12.0521 16.8865 12.1656 16.667 12.3007 16.4609L12.0523 16.0996C12.0028 16.0391 11.9757 15.9633 11.9757 15.8851C11.9757 15.8069 12.0028 15.7311 12.0523 15.6705L12.7298 15.1737C12.7845 15.1213 12.8573 15.092 12.9331 15.092C13.0088 15.092 13.0816 15.1213 13.1363 15.1737L13.4525 15.3318C13.6807 15.2053 13.9233 15.1067 14.1751 15.0382L14.288 14.6091C14.303 14.5352 14.3423 14.4684 14.3996 14.4193C14.4568 14.3702 14.5288 14.3417 14.6042 14.3381H15.3494C15.3916 14.3232 15.4367 14.3188 15.481 14.3256C15.5252 14.3323 15.567 14.3498 15.6028 14.3767C15.6386 14.4035 15.6672 14.4388 15.686 14.4793C15.7048 14.5199 15.7133 14.5645 15.7108 14.6091V15.0382C15.9369 15.0989 16.1508 15.1982 16.3431 15.3318L16.5915 15.1737C16.6484 15.1259 16.7204 15.0997 16.7947 15.0997C16.8691 15.0997 16.941 15.1259 16.998 15.1737L17.4496 15.6931C17.5036 15.7515 17.5336 15.8281 17.5336 15.9076C17.5336 15.9872 17.5036 16.0638 17.4496 16.1222L17.1561 16.4609C17.249 16.6689 17.3099 16.8897 17.3367 17.1158H17.7658C17.834 17.132 17.8932 17.174 17.9311 17.233C17.969 17.2919 17.9826 17.3632 17.969 17.432V18.1772C17.9587 18.2553 17.9214 18.3273 17.8637 18.3809C17.806 18.4344 17.7315 18.4662 17.6529 18.4708H17.2238C17.1348 18.705 17.0131 18.9255 16.8625 19.1257L17.1109 19.487C17.1633 19.5417 17.1926 19.6145 17.1926 19.6903C17.1926 19.766 17.1633 19.8389 17.1109 19.8935L16.5463 20.4355C16.4858 20.4851 16.41 20.5121 16.3318 20.5121C16.2536 20.5121 16.1778 20.4851 16.1172 20.4355L15.7108 20.1871C15.4871 20.3006 15.2525 20.3914 15.0107 20.4581V20.9324C14.9912 21.0081 14.9476 21.0755 14.8865 21.1243C14.8254 21.1732 14.7501 21.2009 14.6719 21.2033H13.7912C13.7504 21.2139 13.7078 21.2148 13.6666 21.206C13.6255 21.1972 13.5869 21.1789 13.554 21.1526C13.5212 21.1263 13.4949 21.0927 13.4772 21.0545C13.4596 21.0162 13.4511 20.9744 13.4525 20.9324V20.4355C13.2469 20.3684 13.0498 20.2774 12.8653 20.1645L12.4588 20.4807C12.406 20.5095 12.3461 20.5227 12.2862 20.5187C12.2262 20.5147 12.1685 20.4937 12.1201 20.4581V20.4807ZM17.2916 23.3713V23.6875C17.287 23.7661 17.2552 23.8406 17.2016 23.8983C17.148 23.956 17.076 23.9933 16.998 24.0036H16.7496C16.6892 24.1585 16.6054 24.3032 16.5012 24.4327L16.6141 24.6134C16.6665 24.668 16.6958 24.7409 16.6958 24.8166C16.6958 24.8924 16.6665 24.9652 16.6141 25.0199L16.3657 25.2457C16.3087 25.2935 16.2367 25.3197 16.1624 25.3197C16.0881 25.3197 16.0161 25.2935 15.9592 25.2457L15.7108 25.1328C15.5704 25.2159 15.4181 25.2769 15.2591 25.3134V25.5393C15.2396 25.615 15.196 25.6824 15.1349 25.7313C15.0738 25.7801 14.9985 25.8078 14.9204 25.8103H14.5816C14.5097 25.8103 14.4408 25.7817 14.39 25.7309C14.3392 25.6801 14.3106 25.6111 14.3106 25.5393V25.2909L13.9267 25.1102L13.7235 25.2457C13.6688 25.2981 13.596 25.3274 13.5202 25.3274C13.4445 25.3274 13.3716 25.2981 13.317 25.2457L13.1363 25.0199C13.0885 24.9629 13.0623 24.891 13.0623 24.8166C13.0623 24.7423 13.0885 24.6703 13.1363 24.6134L13.4525 24.4101C13.3873 24.2821 13.3417 24.1451 13.317 24.0036H13.0008C12.963 24.001 12.9262 23.9905 12.8927 23.9728C12.8592 23.955 12.8298 23.9305 12.8064 23.9007C12.783 23.8709 12.7661 23.8365 12.7568 23.7998C12.7475 23.7631 12.746 23.7248 12.7524 23.6875V23.3713C12.7655 23.2922 12.803 23.2192 12.8597 23.1624C12.9164 23.1057 12.9894 23.0682 13.0686 23.0551H13.2718C13.3163 22.8915 13.3768 22.7326 13.4525 22.5809V22.4002C13.4011 22.3362 13.3732 22.2565 13.3732 22.1744C13.3732 22.0923 13.4011 22.0127 13.4525 21.9486L13.7009 21.7228C13.7578 21.675 13.8298 21.6488 13.9041 21.6488C13.9785 21.6488 14.0504 21.675 14.1074 21.7228L14.3106 21.9486C14.4543 21.8558 14.6159 21.7942 14.7849 21.7679V21.5647C14.8044 21.4889 14.8479 21.4215 14.909 21.3727C14.9701 21.3238 15.0454 21.2961 15.1236 21.2937H15.4172C15.4824 21.2862 15.5482 21.3027 15.6022 21.3401C15.6562 21.3775 15.6948 21.4332 15.7108 21.4969V21.7002C15.8746 21.7561 16.0274 21.8402 16.1624 21.9486L16.3205 21.8357C16.3752 21.7832 16.448 21.7539 16.5237 21.7539C16.5995 21.7539 16.6723 21.7832 16.727 21.8357L16.9076 22.0615C16.9601 22.1162 16.9894 22.189 16.9894 22.2647C16.9894 22.3405 16.9601 22.4133 16.9076 22.468L16.7721 22.6261C16.7925 22.7684 16.7925 22.9128 16.7721 23.0551H16.9754C17.0189 23.0225 17.0727 23.0067 17.1269 23.0105C17.1811 23.0144 17.2321 23.0377 17.2706 23.0761C17.309 23.1146 17.3323 23.1656 17.3362 23.2198C17.34 23.274 17.3242 23.3278 17.2916 23.3713ZM22.2598 20.7065C22.2482 20.7826 22.214 20.8534 22.1616 20.9097C22.1093 20.9661 22.0412 21.0055 21.9662 21.0227H21.6501C21.5945 21.2182 21.5188 21.4074 21.4242 21.5873L21.6049 21.8131C21.6589 21.8715 21.6888 21.9481 21.6888 22.0276C21.6888 22.1071 21.6589 22.1837 21.6049 22.2422L21.2436 22.6261C21.1802 22.6688 21.1055 22.6916 21.029 22.6916C20.9526 22.6916 20.8779 22.6688 20.8145 22.6261L20.5661 22.4228L20.0241 22.6938V23.0326C20.0137 23.1106 19.9765 23.1826 19.9188 23.2362C19.8611 23.2898 19.7865 23.3216 19.7079 23.3261H19.1885C19.1529 23.3292 19.117 23.3252 19.083 23.3144C19.0489 23.3036 19.0173 23.2861 18.99 23.263C18.9627 23.2399 18.9403 23.2117 18.924 23.1799C18.9077 23.1481 18.8978 23.1134 18.8949 23.0777V22.9196C18.7216 22.8832 18.5544 22.8224 18.3981 22.739L17.969 22.9874C17.9144 23.0398 17.8416 23.0691 17.7658 23.0691C17.69 23.0691 17.6172 23.0398 17.5626 22.9874L17.2012 22.6712C17.1473 22.6128 17.1173 22.5362 17.1173 22.4567C17.1173 22.3772 17.1473 22.3006 17.2012 22.2422L17.4948 21.9486C17.4004 21.8033 17.3317 21.6429 17.2916 21.4743H16.9528C16.9152 21.4745 16.8781 21.4668 16.8436 21.4518C16.8092 21.4368 16.7782 21.4148 16.7527 21.3872C16.7273 21.3596 16.7078 21.3269 16.6956 21.2914C16.6834 21.2559 16.6787 21.2182 16.6818 21.1808V20.6839C16.6842 20.6058 16.712 20.5305 16.7608 20.4694C16.8097 20.4083 16.8771 20.3647 16.9528 20.3452H17.2916C17.3258 20.1114 17.4106 19.888 17.54 19.6903L17.3367 19.4419C17.2889 19.3849 17.2627 19.313 17.2627 19.2386C17.2627 19.1643 17.2889 19.0923 17.3367 19.0354L17.698 18.6289C17.755 18.5811 17.827 18.5549 17.9013 18.5549C17.9756 18.5549 18.0476 18.5811 18.1045 18.6289L18.3304 18.787L18.9175 18.4934V18.1998C18.9279 18.1218 18.9651 18.0498 19.0228 17.9962C19.0805 17.9426 19.1551 17.9108 19.2337 17.9062H19.7305C19.7439 17.8736 19.7635 17.8439 19.7883 17.8189C19.8131 17.7939 19.8426 17.774 19.8751 17.7603C19.9076 17.7467 19.9425 17.7396 19.9777 17.7395C20.013 17.7393 20.0479 17.7461 20.0805 17.7594C20.1132 17.7728 20.1428 17.7924 20.1679 17.8172C20.1929 17.8421 20.2128 17.8716 20.2264 17.9041C20.2401 17.9366 20.2472 17.9714 20.2473 18.0067C20.2475 18.0419 20.2407 18.0769 20.2273 18.1095V18.4031C20.4226 18.4382 20.6125 18.499 20.7919 18.5837L21.0177 18.3805C21.0747 18.3327 21.1466 18.3065 21.221 18.3065C21.2953 18.3065 21.3673 18.3327 21.4242 18.3805L21.763 18.7192C21.8108 18.7762 21.837 18.8481 21.837 18.9225C21.837 18.9968 21.8108 19.0688 21.763 19.1257L21.5597 19.3741C21.6505 19.5373 21.7189 19.7121 21.763 19.8935H22.0566C22.0941 19.8934 22.1313 19.9011 22.1658 19.9161C22.2002 19.9311 22.2311 19.9531 22.2566 19.9807C22.2821 20.0083 22.3016 20.0409 22.3138 20.0765C22.326 20.112 22.3307 20.1497 22.3275 20.1871L22.2598 20.7065Z" fill="#1971BD" stroke="#1971BD" stroke-width="0.11" stroke-miterlimit="10" stroke-linecap="square"/>
</g>
<defs>
<clipPath id="clip0">
<rect width="32" height="32" fill="white"/>
</clipPath>
</defs>
</svg>
