<svg xmlns="http://www.w3.org/2000/svg" width="14.17" height="14" viewBox="0 0 14.17 14">
  <g id="Restics" transform="translate(22551.055 -16128)">
    <rect id="Rectangle_1807" data-name="Rectangle 1807" width="14" height="14" transform="translate(-22551 16128)" fill="none"/>
    <g id="Group_2045" data-name="Group 2045" transform="translate(-22623.959 15293.649)">
      <path id="Path_2768" data-name="Path 2768" d="M75.756,839.221q4.791,0,9.581,0H85.6c0-.108,0-.2,0-.282a1.066,1.066,0,0,0-1.141-1.152c-1.769.021-3.539.006-5.309.01a.389.389,0,0,1-.3-.126q-.606-.618-1.225-1.223a.361.361,0,0,0-.227-.094c-1.127-.005-2.253,0-3.38,0a1.174,1.174,0,0,0-.245.023,1.024,1.024,0,0,0-.806,1.078q0,4.156,0,8.311v.222a.136.136,0,0,0,.051-.084q.67-2.787,1.34-5.575A1.386,1.386,0,0,1,75.756,839.221Z" fill="#0071bd" stroke="#0071bd" stroke-linecap="square" stroke-miterlimit="10" stroke-width="0.108"/>
      <g id="Group_2044" data-name="Group 2044">
        <path id="Path_2769" data-name="Path 2769" d="M79.652,844.621a.413.413,0,0,0-.4.358.316.316,0,0,0,.311.367.41.41,0,0,0,.4-.358A.315.315,0,0,0,79.652,844.621Z" fill="#0071bd" stroke="#0071bd" stroke-linecap="square" stroke-miterlimit="10" stroke-width="0.108"/>
        <ellipse id="Ellipse_185" data-name="Ellipse 185" cx="0.57" cy="0.509" rx="0.57" ry="0.509" transform="matrix(0.667, -0.745, 0.745, 0.667, 78.644, 842.517)" fill="#0071bd" stroke="#0071bd" stroke-linecap="square" stroke-miterlimit="10" stroke-width="0.108"/>
        <path id="Path_2770" data-name="Path 2770" d="M81.591,843.283a.507.507,0,0,0-.452.481.387.387,0,0,0,.427.407.506.506,0,0,0,.452-.481A.386.386,0,0,0,81.591,843.283Z" fill="#0071bd" stroke="#0071bd" stroke-linecap="square" stroke-miterlimit="10" stroke-width="0.108"/>
        <path id="Path_2771" data-name="Path 2771" d="M86.533,839.649h-10.8a.959.959,0,0,0-.974.77l-.819,3.428q-.276,1.154-.55,2.308c-.072.3.065.478.378.486.055,0,.11,0,.165,0H84.9a.611.611,0,0,0,.672-.505q.711-2.953,1.419-5.909C87.09,839.812,86.959,839.649,86.533,839.649Zm-8.216,3.982-.2-.233a.142.142,0,0,1,.01-.185l.152-.17a1.138,1.138,0,0,1-.08-.266l-.208-.025a.121.121,0,0,1-.1-.138l.036-.329a.159.159,0,0,1,.137-.138l.2-.023a1.361,1.361,0,0,1,.145-.291l-.107-.16a.145.145,0,0,1,.031-.185l.254-.233a.138.138,0,0,1,.183-.01l.136.12a1.317,1.317,0,0,1,.319-.131l.042-.189a.159.159,0,0,1,.15-.123h.323a.12.12,0,0,1,.122.124v.189a1.033,1.033,0,0,1,.283.127l.156-.116a.131.131,0,0,1,.18.011l.2.232a.141.141,0,0,1-.01.185l-.133.15a1.121,1.121,0,0,1,.082.288l.188.023a.121.121,0,0,1,.1.138l-.036.329a.159.159,0,0,1-.137.139l-.195.022a1.364,1.364,0,0,1-.151.291l.107.162a.145.145,0,0,1-.031.185l-.254.232a.137.137,0,0,1-.183.011l-.147-.13a1.371,1.371,0,0,1-.3.119l-.047.21a.159.159,0,0,1-.15.124h-.323a.12.12,0,0,1-.122-.123v-.218a1.094,1.094,0,0,1-.258-.117l-.181.134A.132.132,0,0,1,78.317,843.631Zm2.29,1.3-.017.139a.156.156,0,0,1-.136.135l-.091.01a.925.925,0,0,1-.1.193l.05.076a.144.144,0,0,1-.033.183l-.109.1a.134.134,0,0,1-.18.008l-.069-.062a.9.9,0,0,1-.2.077l-.023.1a.156.156,0,0,1-.149.12l-.137,0a.118.118,0,0,1-.119-.123v-.106a.7.7,0,0,1-.171-.08l-.088.063a.131.131,0,0,1-.178-.013l-.085-.1a.14.14,0,0,1,.013-.183l.074-.081a.715.715,0,0,1-.052-.178l-.1-.014a.119.119,0,0,1-.1-.138l.017-.139a.159.159,0,0,1,.137-.136l.1-.01a.951.951,0,0,1,.1-.193L78.9,844.5a.145.145,0,0,1,.032-.183l.11-.1a.134.134,0,0,1,.18-.008l.062.056a.884.884,0,0,1,.213-.084l.02-.086a.156.156,0,0,1,.149-.12H79.8a.119.119,0,0,1,.119.124v.087a.677.677,0,0,1,.187.087l.071-.051a.13.13,0,0,1,.178.012l.085.1a.141.141,0,0,1-.012.183l-.063.069a.728.728,0,0,1,.053.192l.086.012A.12.12,0,0,1,80.607,844.931Zm2.193-1.189a.158.158,0,0,1-.124.146l-.139.028a1.086,1.086,0,0,1-.105.246l.087.107a.14.14,0,0,1-.015.183l-.163.173a.138.138,0,0,1-.181.026l-.114-.083a1.105,1.105,0,0,1-.242.118l-.021.152a.158.158,0,0,1-.139.133l-.224.019a.119.119,0,0,1-.132-.11l-.014-.156a.845.845,0,0,1-.22-.076l-.123.106a.135.135,0,0,1-.181,0l-.154-.146a.138.138,0,0,1,0-.182l.1-.13a.914.914,0,0,1-.084-.21l-.151-.005a.119.119,0,0,1-.117-.126l.006-.227a.159.159,0,0,1,.125-.146l.144-.029a1.155,1.155,0,0,1,.1-.245l-.086-.107a.14.14,0,0,1,.015-.183l.164-.175a.137.137,0,0,1,.18-.025l.1.076a1.117,1.117,0,0,1,.253-.129l.02-.134a.157.157,0,0,1,.138-.133l.225-.019a.119.119,0,0,1,.131.11l.012.133a.836.836,0,0,1,.242.083l.1-.09a.134.134,0,0,1,.18,0l.154.147a.136.136,0,0,1,0,.182l-.087.113a.908.908,0,0,1,.088.227l.135.005a.118.118,0,0,1,.116.126Z" fill="#0071bd" stroke="#0071bd" stroke-linecap="square" stroke-miterlimit="10" stroke-width="0.108"/>
      </g>
    </g>
  </g>
</svg>
