<svg width="32" height="32" viewBox="0 0 32 32" fill="none" xmlns="http://www.w3.org/2000/svg">
<path d="M7.33715 14.3257H22.0114C22.0974 14.3319 22.1836 14.3207 22.2651 14.2928C22.3466 14.2648 22.4216 14.2207 22.4856 14.1631C22.5497 14.1055 22.6014 14.0355 22.6378 13.9574C22.6741 13.8793 22.6943 13.7947 22.6972 13.7086C22.7034 13.6215 22.6923 13.534 22.6646 13.4512C22.6369 13.3684 22.5932 13.2919 22.5358 13.226C22.4785 13.1602 22.4087 13.1063 22.3305 13.0675C22.2522 13.0288 22.1671 13.0058 22.08 13H7.33715C7.16135 13.0171 6.99827 13.0992 6.87988 13.2303C6.76149 13.3614 6.69632 13.5319 6.69715 13.7086C6.7084 13.8725 6.78009 14.0263 6.89834 14.1404C7.01659 14.2544 7.17297 14.3204 7.33715 14.3257Z" fill="#1971BD"/>
<path d="M15.3372 21H7.33718C7.16844 20.9867 7.00104 21.0386 6.86929 21.1448C6.73755 21.2511 6.65143 21.4037 6.6286 21.5714C6.62239 21.6585 6.63344 21.7459 6.66113 21.8287C6.68881 21.9115 6.73259 21.9881 6.78993 22.0539C6.84728 22.1198 6.91706 22.1736 6.99529 22.2124C7.07351 22.2512 7.15863 22.2742 7.24575 22.28H15.3372C15.4982 22.2815 15.6543 22.2243 15.7763 22.1192C15.8983 22.014 15.9778 21.868 16 21.7085C16.0064 21.5304 15.9431 21.3568 15.8236 21.2245C15.7042 21.0923 15.5379 21.0117 15.36 21H15.3372Z" fill="#1971BD"/>
<path d="M29.44 9H29.3257V3.67429C29.3287 3.32418 29.2624 2.97694 29.1305 2.65261C28.9986 2.32828 28.8038 2.03328 28.5573 1.78465C28.3107 1.53602 28.0174 1.33867 27.6943 1.20399C27.3711 1.06932 27.0244 0.999987 26.6743 1L2.67429 1C1.96502 1 1.28481 1.28175 0.78328 1.78328C0.281754 2.28481 1.83069e-09 2.96502 1.83069e-09 3.67429L1.83069e-09 27.6743C-1.30083e-05 28.0244 0.0693182 28.3711 0.203992 28.6943C0.338666 29.0174 0.536015 29.3107 0.784649 29.5573C1.03328 29.8038 1.32828 29.9986 1.65261 30.1305C1.97694 30.2624 2.32418 30.3287 2.67429 30.3257H26.6743C27.3775 30.3257 28.0519 30.0464 28.5491 29.5491C29.0464 29.0519 29.3257 28.3775 29.3257 27.6743V15.2857L31.2457 13.3657C31.6019 13.0077 31.8443 12.5524 31.9424 12.057C32.0404 11.5616 31.9897 11.0482 31.7967 10.5815C31.6037 10.1148 31.2769 9.71569 30.8576 9.43427C30.4382 9.15286 29.945 9.00176 29.44 9ZM8.66286 3.67429C8.79396 3.67429 8.92212 3.71316 9.03112 3.786C9.14013 3.85883 9.22509 3.96236 9.27526 4.08348C9.32543 4.2046 9.33855 4.33788 9.31298 4.46646C9.2874 4.59504 9.22427 4.71315 9.13157 4.80585C9.03887 4.89856 8.92076 4.96169 8.79217 4.98726C8.66359 5.01284 8.53031 4.99971 8.40919 4.94954C8.28807 4.89937 8.18455 4.81441 8.11171 4.70541C8.03888 4.5964 8 4.46824 8 4.33714C8 4.16134 8.06984 3.99274 8.19415 3.86843C8.31846 3.74412 8.48706 3.67429 8.66286 3.67429ZM6.01143 3.67429C6.14146 3.67877 6.2673 3.72143 6.37326 3.79694C6.47922 3.87245 6.56061 3.97747 6.60729 4.09892C6.65398 4.22036 6.66389 4.35286 6.63579 4.4799C6.60769 4.60694 6.54282 4.72291 6.44927 4.81333C6.35572 4.90376 6.23763 4.96466 6.10971 4.98844C5.98179 5.01222 5.8497 4.99783 5.72991 4.94705C5.61011 4.89628 5.50791 4.81138 5.43603 4.70292C5.36416 4.59446 5.32579 4.46725 5.32571 4.33714C5.32566 4.24814 5.34353 4.16003 5.37827 4.07809C5.413 3.99614 5.46388 3.92202 5.52787 3.86016C5.59186 3.7983 5.66766 3.74996 5.75074 3.71803C5.83382 3.68609 5.92248 3.67122 6.01143 3.67429ZM3.33714 3.67429C3.46824 3.67429 3.5964 3.71316 3.70541 3.786C3.81441 3.85883 3.89937 3.96236 3.94954 4.08348C3.99971 4.2046 4.01284 4.33788 3.98726 4.46646C3.96169 4.59504 3.89856 4.71315 3.80585 4.80585C3.71315 4.89856 3.59504 4.96169 3.46646 4.98726C3.33788 5.01284 3.2046 4.99971 3.08348 4.94954C2.96236 4.89937 2.85883 4.81441 2.786 4.70541C2.71316 4.5964 2.67429 4.46824 2.67429 4.33714C2.67429 4.16134 2.74412 3.99274 2.86843 3.86843C2.99274 3.74412 3.16134 3.67429 3.33714 3.67429ZM26.6743 27.6743H2.67429V7.67429H26.6743V10.7143L20.3886 17H7.33714C7.25005 16.9938 7.16259 17.0048 7.07978 17.0325C6.99698 17.0602 6.92045 17.104 6.85461 17.1613C6.78877 17.2187 6.73491 17.2885 6.69612 17.3667C6.65733 17.4449 6.63437 17.53 6.62857 17.6171C6.62236 17.7042 6.63341 17.7917 6.6611 17.8745C6.68878 17.9573 6.73255 18.0338 6.7899 18.0997C6.84724 18.1655 6.91703 18.2194 6.99526 18.2582C7.07348 18.297 7.15859 18.3199 7.24571 18.3257H19.3143L18.6743 21.5714C18.6403 21.747 18.6762 21.9289 18.7744 22.0783C18.8727 22.2278 19.0254 22.333 19.2 22.3714H19.4743L22.8571 21.5714C22.9475 21.5912 23.0411 21.5912 23.1314 21.5714L26.6743 18.0514V27.6743ZM28.3886 14.3257L26.6743 12.6114L27.6114 11.6743L29.3257 13.3886L28.3886 14.3257Z" fill="#1971BD"/>
</svg>
