<svg xmlns="http://www.w3.org/2000/svg" width="14" height="12.833" viewBox="0 0 14 12.833">
  <g id="tasks" transform="translate(0 -21.333)">
    <g id="Group_9329" data-name="Group 9329" transform="translate(0 21.333)">
      <g id="Group_9328" data-name="Group 9328">
        <path id="Path_21080" data-name="Path 21080" d="M106.958,213.916h6.417a.292.292,0,1,0,0-.583h-6.417a.292.292,0,0,0,0,.583Z" transform="translate(-103.749 -208.083)" fill="#0071bd"/>
        <path id="Path_21081" data-name="Path 21081" d="M110.458,341.333h-3.5a.292.292,0,1,0,0,.583h3.5a.292.292,0,1,0,0-.583Z" transform="translate(-103.749 -332.583)" fill="#0071bd"/>
        <path id="Path_21082" data-name="Path 21082" d="M12.883,24.833c-.017,0-.033,0-.05.005V22.5a1.168,1.168,0,0,0-1.167-1.167H1.167A1.168,1.168,0,0,0,0,22.5V33a1.168,1.168,0,0,0,1.167,1.167h10.5A1.168,1.168,0,0,0,12.833,33V27.579l.84-.84h0a1.116,1.116,0,0,0-.79-1.906ZM3.792,22.5a.292.292,0,1,1-.292.292A.292.292,0,0,1,3.792,22.5Zm-1.167,0a.292.292,0,1,1-.292.292A.292.292,0,0,1,2.625,22.5Zm-1.167,0a.292.292,0,1,1-.292.292A.292.292,0,0,1,1.458,22.5ZM11.667,33H1.167V24.25h10.5v1.337L8.92,28.333H3.208a.292.292,0,1,0,0,.583H8.452l-.28,1.4a.292.292,0,0,0,.286.349.3.3,0,0,0,.057-.006l1.458-.292a.29.29,0,0,0,.149-.08l1.544-1.544Zm.754-5.833-.754-.754L12.079,26l.754.754Z" transform="translate(0 -21.333)" fill="#0071bd"/>
      </g>
    </g>
  </g>
</svg>
