<svg width="32" height="32" viewBox="0 0 32 32" fill="none" xmlns="http://www.w3.org/2000/svg">
<path d="M15.0629 25.4572H8.20572C7.72572 25.4572 7.52 25.4572 7.54286 24.8172C7.54286 22.0972 7.54286 19.3772 7.54286 16.6572C7.54286 14.4142 8.43388 12.2631 10.0199 10.6771C11.6059 9.09109 13.757 8.20007 16 8.20007C18.243 8.20007 20.3941 9.09109 21.9801 10.6771C23.5661 12.2631 24.4571 14.4142 24.4571 16.6572C24.4571 19.3772 24.4571 22.0972 24.4571 24.8172C24.4571 25.1829 24.4571 25.4572 23.9314 25.4572H17.3029H16.96V19.8801C16.96 19.7201 17.1886 19.5372 17.3714 19.4458C17.9292 19.1309 18.3639 18.6364 18.6047 18.0429C18.8454 17.4493 18.878 16.7917 18.6971 16.1772C18.5258 15.5947 18.1704 15.0833 17.6843 14.7196C17.1981 14.3558 16.6072 14.1592 16 14.1592C15.3928 14.1592 14.8019 14.3558 14.3157 14.7196C13.8296 15.0833 13.4742 15.5947 13.3029 16.1772C13.1262 16.7918 13.1608 17.4479 13.4011 18.0405C13.6415 18.6331 14.0737 19.1279 14.6286 19.4458C14.7886 19.4458 15.0171 19.7201 15.04 19.8801C15.0629 21.6858 15.0629 23.5372 15.0629 25.4572Z" fill="#1971BD"/>
<path d="M30.08 31.0343H1.94283V29.2058H5.62283V27.3772H26.3543V29.1829H30.08V31.0343Z" fill="#1971BD"/>
<path d="M16.8914 1V6.55429H15.1086V1H16.8914Z" fill="#1971BD"/>
<path d="M5.6 17.8686H0V16.0629H5.6V17.8686Z" fill="#1971BD"/>
<path d="M26.3771 17.8457V16.0629H32V17.8457H26.3771Z" fill="#1971BD"/>
<path d="M11.6343 7.51423L10.0115 8.47423L7.20003 3.60566L8.80003 2.6228L11.6343 7.51423Z" fill="#1971BD"/>
<path d="M20.3657 7.51423L23.1771 2.6228L24.8 3.5828L21.9657 8.47423L20.3657 7.51423Z" fill="#1971BD"/>
<path d="M25.44 12.6114L24.48 10.9657L29.3715 8.17712L30.3315 9.77712L25.44 12.6114Z" fill="#1971BD"/>
<path d="M7.51999 10.9657L6.55999 12.5886L1.69142 9.77715L2.60571 8.1543L7.51999 10.9657Z" fill="#1971BD"/>
<path d="M16.9143 17C16.9144 17.118 16.8905 17.2348 16.844 17.3433C16.7976 17.4517 16.7295 17.5496 16.6439 17.6309C16.5583 17.7122 16.4571 17.7752 16.3464 17.816C16.2357 17.8569 16.1178 17.8748 16 17.8685C15.7652 17.8688 15.5393 17.7788 15.3691 17.6171C15.1989 17.4554 15.0974 17.2345 15.0857 17C15.0857 16.7575 15.182 16.5249 15.3535 16.3535C15.5249 16.182 15.7575 16.0857 16 16.0857C16.2446 16.0856 16.4796 16.1812 16.6547 16.352C16.8298 16.5229 16.9311 16.7554 16.9371 17H16.9143Z" fill="#1971BD"/>
</svg>
