<svg width="32" height="32" viewBox="0 0 32 32" fill="none" xmlns="http://www.w3.org/2000/svg">
<path d="M30.0571 2H1.94286C1.42758 2 0.933406 2.20469 0.56905 2.56905C0.204693 2.93341 0 3.42758 0 3.94286L0 24.1486C0 24.6638 0.204693 25.158 0.56905 25.5224C0.933406 25.8867 1.42758 26.0914 1.94286 26.0914H30.0571C30.3123 26.0914 30.5649 26.0412 30.8006 25.9435C31.0364 25.8459 31.2505 25.7028 31.431 25.5224C31.6114 25.342 31.7545 25.1278 31.8521 24.8921C31.9497 24.6564 32 24.4037 32 24.1486V3.94286C32 3.68772 31.9497 3.43508 31.8521 3.19936C31.7545 2.96364 31.6114 2.74946 31.431 2.56905C31.2505 2.38864 31.0364 2.24553 30.8006 2.14789C30.5649 2.05025 30.3123 2 30.0571 2V2ZM29.5771 22.7314H2.44571V4.74286H29.5543L29.5771 22.7314Z" fill="#1971BD"/>
<path d="M12.4114 27.1428L8.73144 30.7542H23.36L19.68 27.1428H12.4114Z" fill="#1971BD"/>
<path d="M21.8057 14.4344V17.383C21.8295 17.5629 21.793 17.7457 21.7021 17.9028C21.6111 18.0599 21.4708 18.1825 21.3029 18.2515C19.8172 19.0287 18.3772 19.8744 16.8686 20.5372C16.7217 20.6049 16.5618 20.64 16.4 20.64C16.2383 20.64 16.0784 20.6049 15.9315 20.5372C14.4457 19.783 12.9829 18.9372 11.4972 18.2515C11.325 18.1864 11.1797 18.0654 11.0844 17.908C10.9891 17.7505 10.9493 17.5657 10.9715 17.383C10.9715 15.4172 10.9715 13.4287 10.9715 11.4401C10.9457 11.2686 10.9764 11.0934 11.0588 10.9409C11.1413 10.7884 11.271 10.6668 11.4286 10.5944C12.8915 9.88581 14.3315 9.13152 15.8172 8.44581C15.9761 8.3779 16.1472 8.3429 16.32 8.3429C16.4929 8.3429 16.6639 8.3779 16.8229 8.44581C18.3086 9.13152 19.7486 9.90867 21.2115 10.7315C21.3739 10.7876 21.5122 10.8975 21.6037 11.043C21.6951 11.1885 21.7342 11.3608 21.7143 11.5315L21.8057 14.4344ZM16 19.8287V14.3658C16.0018 14.2913 15.9862 14.2174 15.9545 14.1499C15.9227 14.0825 15.8757 14.0234 15.8172 13.9772L14.0572 13.0172V14.0915L13.7143 14.2058C13.4857 13.9315 13.0743 13.6801 13.0286 13.383C12.8915 12.3315 12.8 12.1715 11.7029 11.8744V17.223C11.7201 17.3118 11.7554 17.3962 11.8065 17.4708C11.8576 17.5455 11.9235 17.609 12 17.6572C13.2572 18.3887 14.5372 19.0515 15.9543 19.943L16 19.8287ZM20.5715 11.143C20.5304 11.0786 20.4758 11.024 20.4115 10.983C18.8343 10.1144 18.8343 10.1144 17.2572 10.983L14.5372 12.3772C15.1543 12.7201 15.68 13.0172 16.2057 13.2687C16.2891 13.3032 16.3784 13.321 16.4686 13.321C16.5588 13.321 16.6481 13.3032 16.7315 13.2687L20.5715 11.143ZM17.7143 19.3258L20.5715 17.7258C20.6447 17.6644 20.7032 17.5873 20.7428 17.5003C20.7823 17.4133 20.8019 17.3185 20.8 17.223C20.8 16.4687 20.8 15.6915 20.8 14.9372C20.8 14.183 20.6172 14.3887 20.2286 14.5715C19.84 14.7544 18.7886 15.303 18.08 15.7144C17.9757 15.7646 17.8843 15.8381 17.813 15.9292C17.7416 16.0204 17.6922 16.1268 17.6686 16.2401C17.6686 17.2001 17.6686 18.1601 17.6686 19.3258H17.7143ZM17.5543 9.68009C17.3211 9.39451 16.9873 9.20924 16.6216 9.16246C16.2559 9.11568 15.8862 9.21096 15.5886 9.42867C15.04 9.74867 14.4915 10.023 13.92 10.2972L12.3429 11.143V11.3487C12.8 11.4858 13.3257 11.8287 13.6686 11.6915C14.9943 11.143 16.2286 10.3658 17.5543 9.68009Z" fill="#1971BD"/>
<path d="M18.9943 16.6516H18.88C18.9178 16.4336 18.9952 16.2244 19.1086 16.0344C19.4743 15.4173 20.0457 15.5087 20.2057 16.1944L20.3429 16.0344L20.1829 16.583L19.8857 16.423H20.0457C20.0457 16.0802 19.7486 15.8516 19.5429 15.8973C19.3372 15.943 19.0857 16.0573 18.9943 16.6516Z" fill="#1971BD"/>
<path d="M18.8571 16.8345L19.1543 16.9945L19.0171 17.1088C19.0171 17.4516 19.2686 17.6802 19.4971 17.6345C19.7257 17.5888 20 17.3145 20.0914 16.743H20.2057C20.157 17.0223 20.0478 17.2876 19.8857 17.5202C19.6571 17.7716 19.4286 17.8402 19.2 17.703C19.1179 17.6397 19.0493 17.5605 18.9983 17.4702C18.9472 17.3799 18.9148 17.2804 18.9029 17.1773L18.72 17.3145L18.8571 16.8345Z" fill="#1971BD"/>
</svg>
