<svg width="32" height="32" viewBox="0 0 32 32" fill="none" xmlns="http://www.w3.org/2000/svg">
<path d="M20.0457 18.0001L23.84 17.3144C23.5144 18.3504 22.9418 19.2918 22.1714 20.0572C22.0084 20.113 21.8316 20.113 21.6686 20.0572H11.2457C10.9991 20.037 10.7698 19.9224 10.6057 19.7372C9.95019 19.0702 9.4506 18.2661 9.14285 17.383L12.64 18.0001C12.64 17.863 12.64 17.7258 12.4571 17.5658C12.0138 16.8999 11.7349 16.1382 11.6435 15.3434C11.5521 14.5487 11.6508 13.7436 11.9314 12.9944C12.2286 12.0572 12.5486 11.143 12.8229 10.183C12.8567 9.77222 12.8567 9.3594 12.8229 8.94867C13.2934 9.29681 13.6125 9.81223 13.7143 10.3887C13.7143 10.9144 13.8971 11.4858 14.0114 12.1487C14.1533 11.9829 14.2832 11.8072 14.4 11.623C14.8358 10.6364 15.0616 9.57002 15.0629 8.49152C15.1002 7.79085 15.356 7.11945 15.7943 6.57152C15.8937 6.389 16.0346 6.2324 16.2057 6.11438C16.2032 7.23241 16.5033 8.33027 17.0743 9.29152C17.4469 10.4567 17.6846 11.6608 17.7829 12.8801C17.8084 13.0014 17.8548 13.1174 17.92 13.223C17.9876 11.4394 18.4647 9.69542 19.3143 8.12581C19.2055 9.34243 19.4942 10.5615 20.1371 11.6001C20.7474 12.5135 21.0731 13.5873 21.0731 14.6858C21.0731 15.7843 20.7474 16.8581 20.1371 17.7715C20.1 17.8449 20.0694 17.9214 20.0457 18.0001Z" fill="#1971BD"/>
<path d="M16.48 21.4288H21.6C21.9657 21.4288 22.1029 21.5431 22.1029 21.9317C22.1029 23.3717 22.1029 23.3717 20.7314 23.3717H11.4286C10.9257 23.3717 10.7429 23.2345 10.7429 22.7088C10.7429 21.1774 10.5829 21.4517 12.0229 21.4288H16.48Z" fill="#1971BD"/>
<path d="M16.48 24.4458H19.2229C19.84 24.4458 19.9315 24.5829 19.68 25.1544C19.453 25.7126 19.073 26.1954 18.5838 26.5472C18.0945 26.899 17.5158 27.1055 16.9143 27.1429C16.1827 27.251 15.4357 27.1259 14.7792 26.7853C14.1227 26.4448 13.5902 25.9061 13.2572 25.2458C12.9829 24.5601 13.0515 24.4687 13.8057 24.4687L16.48 24.4458Z" fill="#1971BD"/>
<path d="M31.4286 2.57141H0.571426V31.1428H31.4286V2.57141Z" stroke="#1971BD" stroke-width="0.5" stroke-linecap="round" stroke-linejoin="round" stroke-dasharray="0.61 1"/>
</svg>
