<svg width="32" height="32" viewBox="0 0 32 32" fill="none" xmlns="http://www.w3.org/2000/svg">
<g clip-path="url(#clip0)">
<path fill-rule="evenodd" clip-rule="evenodd" d="M21.5139 18.2726L27.2698 17.1306C26.7809 18.6978 25.9095 20.1185 24.7345 21.2648C24.5209 21.412 24.2612 21.4769 24.0035 21.4475H8.19775C7.84436 21.4061 7.5188 21.2352 7.28406 20.9679C6.23987 19.8887 5.45825 18.5835 5 17.1534L10.3219 18.2726C10.2341 18.047 10.135 17.8259 10.025 17.6103C9.33105 16.5815 8.89783 15.3994 8.76245 14.1658C8.6272 12.9323 8.79395 11.6844 9.24841 10.5296C9.40918 10.0049 9.57935 9.48346 9.74963 8.96161C10.0391 8.07483 10.3287 7.18713 10.5731 6.28125C10.6884 5.66339 10.7495 5.03674 10.7559 4.40826C11.1234 4.67395 11.4298 5.01526 11.6544 5.40924C11.8789 5.80322 12.0165 6.24072 12.0579 6.69238C12.1771 7.22913 12.2672 7.77563 12.3662 8.37634C12.4188 8.69586 12.474 9.0307 12.5375 9.38757C12.7526 9.13153 12.9437 8.85632 13.1085 8.56531C13.7886 7.03369 14.1388 5.37604 14.1364 3.7002C14.1198 2.62823 14.4481 1.57935 15.0728 0.708069C15.2222 0.421387 15.4423 0.177612 15.7124 0C15.6947 1.68848 16.1454 3.34875 17.0143 4.79657C17.5808 6.57001 17.9486 8.40088 18.1106 10.2556C18.13 10.4354 18.1927 10.6077 18.2933 10.7581C18.4009 8.05591 19.1276 5.41461 20.4176 3.03784C20.2314 4.90222 20.6736 6.77539 21.6738 8.35974C22.595 9.74335 23.0865 11.3685 23.0865 13.0307C23.0865 14.6929 22.595 16.3181 21.6738 17.7017C21.6023 17.8864 21.5487 18.0776 21.5139 18.2726ZM16.1235 23.2977H23.8666C24.4604 23.2977 24.6432 23.4804 24.6432 24.0743C24.6432 25.2522 24.6432 25.8226 24.3582 26.0989C24.0905 26.3583 23.5713 26.3583 22.5646 26.3583H8.58606C7.83228 26.3583 7.55823 26.1756 7.58105 25.399C7.58105 25.1408 7.57751 24.9161 7.57446 24.7207C7.56409 24.0501 7.55896 23.724 7.71936 23.5676C7.87122 23.4196 8.17139 23.4236 8.75549 23.4316C8.96497 23.4344 9.21094 23.4377 9.49963 23.4347L16.1235 23.2977ZM20.2804 27.8658H16.1234L12.0577 27.8887C10.9156 27.8887 10.8472 28.0258 11.2583 29.0764C11.7595 30.0781 12.5627 30.8971 13.5546 31.4176C14.5464 31.9381 15.6766 32.1339 16.7858 31.9772C17.6959 31.9103 18.5701 31.5934 19.3116 31.0614C20.0531 30.5294 20.6334 29.803 20.9885 28.9622C21.3539 28.0714 21.2169 27.8658 20.2804 27.8658Z" fill="#1971BD"/>
</g>
<defs>
<clipPath id="clip0">
<rect width="32" height="32" fill="white"/>
</clipPath>
</defs>
</svg>
