<svg width="32" height="32" viewBox="0 0 32 32" fill="none" xmlns="http://www.w3.org/2000/svg">
<path d="M31.933 24.8296C31.9191 24.8094 31.9011 24.7924 31.88 24.7797C31.859 24.7671 31.8355 24.7592 31.8111 24.7565H0.136087C0.111403 24.758 0.0874493 24.7654 0.0662426 24.7782C0.0450359 24.7909 0.027197 24.8085 0.0142282 24.8296C-0.00474274 24.8765 -0.00474274 24.9289 0.0142282 24.9758C0.165492 25.9657 0.677079 26.8648 1.45077 27.5006C2.22446 28.1363 3.20572 28.4639 4.20616 28.4203H27.7817C28.7821 28.4639 29.7634 28.1363 30.5371 27.5006C31.3108 26.8648 31.8223 25.9657 31.9736 24.9758C31.977 24.95 31.9751 24.9237 31.9681 24.8986C31.9611 24.8735 31.9492 24.85 31.933 24.8296ZM18.358 27.2261H13.5892V25.9344H18.358V27.2261Z" fill="#1971BD"/>
<path d="M3.42628 23.4323H28.521C28.6159 23.4292 28.7094 23.4074 28.7959 23.3681C28.8824 23.3288 28.9603 23.2729 29.0252 23.2035C29.0901 23.134 29.1407 23.0525 29.174 22.9636C29.2074 22.8746 29.2229 22.7799 29.2196 22.6849V4.76365C29.2251 4.66735 29.2112 4.57094 29.1789 4.48008C29.1465 4.38923 29.0963 4.30576 29.0312 4.2346C28.9661 4.16344 28.8874 4.10603 28.7998 4.06574C28.7122 4.02545 28.6174 4.0031 28.521 4H3.42628C3.23877 4.01658 3.06512 4.10564 2.94224 4.24824C2.81936 4.39084 2.75694 4.57574 2.76824 4.76365V22.6849C2.76126 22.8701 2.82564 23.0509 2.94809 23.19C3.07054 23.3291 3.24171 23.4158 3.42628 23.4323ZM5.05106 6.67276H26.8799V20.7596H5.0673V6.67276H5.05106Z" fill="#1971BD"/>
<path d="M17.9629 14.5235L20.0345 14.1417C19.8623 14.7088 19.5493 15.223 19.1247 15.6365C19.0459 15.6894 18.9508 15.7124 18.8566 15.7014H13.1698C13.1019 15.6982 13.0353 15.6814 12.9739 15.6521C12.9126 15.6228 12.8576 15.5816 12.8124 15.5308C12.4421 15.1399 12.1644 14.6707 12 14.1579L13.9172 14.5397C13.8903 14.4603 13.8549 14.3841 13.8116 14.3123C13.5632 13.9395 13.4077 13.5126 13.3582 13.0673C13.3087 12.6221 13.3667 12.1715 13.5273 11.7532C13.6898 11.2414 13.8685 10.7378 14.0147 10.2178C14.0565 9.99271 14.0782 9.76436 14.0797 9.53542C14.2068 9.63281 14.3126 9.75508 14.3909 9.89475C14.4691 10.0344 14.518 10.1886 14.5347 10.3478C14.5996 10.6403 14.6403 10.9408 14.7053 11.3145C14.7884 11.2191 14.8619 11.1157 14.9246 11.0058C15.1627 10.4684 15.2872 9.88761 15.2902 9.29982C15.2903 8.92691 15.4005 8.56233 15.607 8.25184C15.6666 8.152 15.747 8.06612 15.8426 8C15.8362 8.6108 15.9963 9.21181 16.3057 9.73851C16.5152 10.3759 16.6488 11.0358 16.7037 11.7045C16.713 11.7704 16.7351 11.8339 16.7687 11.8913C16.8006 10.9015 17.065 9.93301 17.5405 9.06423C17.4762 9.73602 17.6362 10.4102 17.9954 10.9815C18.329 11.4819 18.507 12.0698 18.507 12.6712C18.507 13.2726 18.329 13.8606 17.9954 14.361C17.9799 14.4141 17.9691 14.4685 17.9629 14.5235Z" fill="#1971BD"/>
<path d="M16.5057 16.1858H19.3003C19.5116 16.1858 19.5847 16.2427 19.5847 16.462C19.5847 17.2744 19.5847 17.2744 18.8291 17.2744H13.7842C13.5161 17.2744 13.4105 17.2094 13.4186 16.9251C13.4186 16.1127 13.3211 16.2264 14.101 16.2183L16.5057 16.1858Z" fill="#1971BD"/>
<path d="M16.5057 17.8107H18.0005C18.3417 17.8107 18.3905 17.8919 18.2605 18.2087C18.132 18.5117 17.922 18.7731 17.6538 18.9639C17.3856 19.1546 17.0697 19.2673 16.7413 19.2892C16.3406 19.3445 15.9325 19.2732 15.5742 19.0854C15.2159 18.8975 14.9253 18.6024 14.7429 18.2412C14.5966 17.8757 14.5966 17.8107 15.0353 17.8107H16.5057Z" fill="#1971BD"/>
</svg>
