<svg xmlns="http://www.w3.org/2000/svg" width="14" height="14" viewBox="0 0 14 14">
  <g id="Prometheuses" transform="translate(22551 -16228)">
    <rect id="Rectangle_1810" data-name="Rectangle 1810" width="14" height="14" transform="translate(-22551 16228)" fill="none"/>
    <g id="Group_2035" data-name="Group 2035" transform="translate(-22624.115 15294.161)">
      <path id="Path_2743" data-name="Path 2743" d="M82.342,941.795l2.515-.464a4.31,4.31,0,0,1-1.1,1.815.5.5,0,0,1-.325.077c-2.3.005-4.607.008-6.91-.005a.661.661,0,0,1-.437-.2,4.352,4.352,0,0,1-.965-1.672l2.324.461a1.948,1.948,0,0,0-.124-.287,3.349,3.349,0,0,1-.344-3.1c.194-.62.409-1.234.584-1.859a4.909,4.909,0,0,0,.08-.821,1.431,1.431,0,0,1,.567.963c.081.36.13.726.208,1.178a2.712,2.712,0,0,0,.252-.359,5.161,5.161,0,0,0,.447-2.065,2.222,2.222,0,0,1,.416-1.306.887.887,0,0,1,.279-.308,4.065,4.065,0,0,0,.569,2.1,10.613,10.613,0,0,1,.478,2.383.508.508,0,0,0,.086.224,7.633,7.633,0,0,1,.929-3.385,3.7,3.7,0,0,0,.544,2.332,3.7,3.7,0,0,1,.012,4.088A1.2,1.2,0,0,0,82.342,941.795Z" transform="translate(0 0)" fill="#0071bd"/>
      <path id="Path_2744" data-name="Path 2744" d="M79.985,944.036c1.129,0,2.257.007,3.386,0,.257,0,.341.076.344.338.01.949.019.95-.918.949-2.036,0-4.073-.009-6.109,0-.327,0-.455-.083-.443-.428.034-1.027-.118-.845.842-.856S79.02,944.036,79.985,944.036Z" transform="translate(-0.001 -0.008)" fill="#0071bd"/>
      <path id="Path_2745" data-name="Path 2745" d="M79.987,946.04c.6,0,1.209,0,1.815,0,.41,0,.473.091.313.479a2.166,2.166,0,0,1-1.839,1.3,2.33,2.33,0,0,1-2.424-1.268c-.179-.458-.141-.515.356-.516C78.8,946.039,79.394,946.04,79.987,946.04Z" transform="translate(-0.002 -0.01)" fill="#0071bd"/>
    </g>
  </g>
</svg>
