<svg width="32" height="32" viewBox="0 0 32 32" fill="none" xmlns="http://www.w3.org/2000/svg">
<g clip-path="url(#clip0)">
<path d="M16.0155 23.4455H1.7526C1.51771 23.4805 1.27892 23.4805 1.04403 23.4455C0.886079 23.4289 0.733179 23.3802 0.594715 23.3024C0.456252 23.2246 0.335146 23.1193 0.238829 22.9931C0.142512 22.8668 0.0730159 22.7221 0.0346053 22.568C-0.00380532 22.4139 -0.0103201 22.2536 0.0154606 22.0969V5.45689C-0.0044029 5.27072 0.0160922 5.08245 0.0755499 4.90492C0.135008 4.72738 0.232031 4.56475 0.360011 4.42809C0.487992 4.29143 0.643922 4.18396 0.817182 4.11301C0.990442 4.04205 1.17696 4.00926 1.36403 4.01689H30.3697C30.5825 3.99437 30.797 3.99437 31.0098 4.01689C31.1634 4.03651 31.3117 4.08657 31.4458 4.16414C31.5799 4.24171 31.6972 4.34524 31.7908 4.46868C31.8845 4.59211 31.9526 4.73297 31.9911 4.88302C32.0297 5.03308 32.038 5.18932 32.0155 5.3426V22.1197C32.0476 22.4196 31.9599 22.72 31.7715 22.9555C31.5832 23.1909 31.3093 23.3424 31.0098 23.3769C30.7672 23.4119 30.5209 23.4119 30.2783 23.3769L16.0155 23.4455ZM31.2612 21.7312V4.93117H0.815461V21.7312H31.2612ZM16.0155 23.1255C16.1549 23.1255 16.2886 23.0701 16.3872 22.9715C16.4858 22.8729 16.5412 22.7392 16.5412 22.5997C16.5412 22.4603 16.4858 22.3266 16.3872 22.228C16.2886 22.1294 16.1549 22.074 16.0155 22.074C15.876 22.074 15.7423 22.1294 15.6437 22.228C15.5451 22.3266 15.4897 22.4603 15.4897 22.5997C15.4897 22.7392 15.5451 22.8729 15.6437 22.9715C15.7423 23.0701 15.876 23.1255 16.0155 23.1255Z" fill="#1971BD"/>
<path d="M12.9983 25.7083V24.3597H19.0097V25.7083H23.444C23.7736 25.7021 24.0924 25.8256 24.3318 26.0522C24.5713 26.2788 24.7121 26.5903 24.724 26.9197C24.724 27.1712 24.724 27.3083 24.3583 27.3083H7.69546C7.37546 27.3083 7.30688 27.1483 7.30688 26.8969C7.31271 26.7327 7.35123 26.5714 7.4202 26.4224C7.48917 26.2733 7.58719 26.1395 7.70853 26.0288C7.82987 25.9181 7.97208 25.8327 8.12683 25.7777C8.28158 25.7227 8.44576 25.6991 8.60974 25.7083H12.9983Z" fill="#1971BD"/>
<g clip-path="url(#clip1)">
<path d="M14.18 16.46L13.06 17.59L13.62 18.02L10.62 21.02L9 19.35L11.94 16.42L12.47 16.92L13.47 15.8C12.9274 15.1405 12.5521 14.3596 12.3763 13.5239C12.2004 12.6881 12.2292 11.8223 12.46 11C12.7909 9.70589 13.6027 8.58658 14.73 7.87002C15.5637 7.3302 16.5309 7.03262 17.5238 7.01049C18.5168 6.98835 19.4963 7.24252 20.3532 7.74465C21.2101 8.24678 21.9106 8.97711 22.3766 9.85416C22.8426 10.7312 23.0558 11.7205 22.9923 12.7116C22.9289 13.7028 22.5913 14.6568 22.0172 15.4673C21.4432 16.2777 20.6552 16.9128 19.7413 17.3015C18.8274 17.6902 17.8234 17.8174 16.8414 17.6688C15.8594 17.5202 14.938 17.1017 14.18 16.46ZM17.65 16.9C18.5496 16.902 19.4295 16.6366 20.1781 16.1376C20.9267 15.6386 21.5101 14.9285 21.8543 14.0973C22.1986 13.2662 22.2882 12.3515 22.1117 11.4694C21.9352 10.5872 21.5006 9.77739 20.8631 9.14267C20.2255 8.50794 19.4138 8.07694 18.5309 7.90435C17.6479 7.73177 16.7337 7.82538 15.904 8.17331C15.0744 8.52125 14.3669 9.10781 13.8712 9.85856C13.3755 10.6093 13.1141 11.4904 13.12 12.39C13.1305 13.5864 13.6118 14.7304 14.4596 15.5745C15.3075 16.4186 16.4536 16.8948 17.65 16.9ZM12.4 18.16L11.91 17.63L10.19 19.32L10.68 19.87L12.4 18.16Z" fill="#1971BD"/>
<path d="M13.9399 12.35C13.94 11.6134 14.1586 10.8934 14.5683 10.2812C14.9779 9.66905 15.5601 9.19227 16.241 8.91131C16.9219 8.63035 17.6709 8.55786 18.3931 8.70302C19.1152 8.84819 19.778 9.20448 20.2975 9.72673C20.8169 10.249 21.1696 10.9137 21.3109 11.6366C21.4522 12.3595 21.3756 13.1081 21.091 13.7875C20.8064 14.4669 20.3265 15.0465 19.7121 15.4528C19.0977 15.8592 18.3765 16.074 17.6399 16.07C16.6568 16.0647 15.7157 15.6705 15.0224 14.9734C14.3291 14.2763 13.9399 13.3332 13.9399 12.35ZM18.0599 13.6C18.7199 13.6 19.3599 13.6 19.9999 13.6C20.0805 13.612 20.1626 13.5928 20.2295 13.5463C20.2963 13.4999 20.343 13.4297 20.3599 13.35C20.5971 12.7044 20.5971 11.9956 20.3599 11.35C20.3351 11.2771 20.2854 11.2152 20.2197 11.175C20.1539 11.1348 20.0762 11.1189 19.9999 11.13H17.2399V10.3H19.5499C19.2436 9.96733 18.8545 9.72174 18.4224 9.58824C17.9903 9.45475 17.5306 9.43811 17.0899 9.54001C16.6549 9.62889 16.2471 9.81922 15.8995 10.0955C15.552 10.3718 15.2746 10.7263 15.0899 11.13C15.2298 11.1401 15.3701 11.1401 15.5099 11.13C15.7346 11.0764 15.9705 11.0949 16.1841 11.1828C16.3977 11.2708 16.5782 11.4237 16.6999 11.62C16.781 11.7551 16.9002 11.8632 17.0426 11.9308C17.1849 11.9984 17.344 12.0225 17.4999 12C17.6665 11.9911 17.8334 11.9911 17.9999 12V12.82C17.8503 12.8048 17.6996 12.8048 17.5499 12.82C17.2551 12.8807 16.9488 12.85 16.6719 12.7321C16.3949 12.6142 16.1605 12.4146 15.9999 12.16C15.9315 12.0767 15.8359 12.02 15.7299 12C15.4299 12 15.1299 12 14.8299 12C14.7318 12.6329 14.8529 13.2802 15.1729 13.8349C15.493 14.3896 15.9929 14.8183 16.5899 15.05C17.6499 15.46 19.1999 15.14 19.5899 14.41H18.0599V13.6Z" fill="#1971BD"/>
</g>
</g>
<defs>
<clipPath id="clip0">
<rect width="32" height="32" fill="white"/>
</clipPath>
<clipPath id="clip1">
<rect width="14" height="14" fill="white" transform="translate(9 7)"/>
</clipPath>
</defs>
</svg>
