<svg xmlns="http://www.w3.org/2000/svg" width="14" height="14" viewBox="0 0 14 14">
  <g id="Service_Monitors" data-name="Service Monitors" transform="translate(22551 -16250)">
    <rect id="Rectangle_1811" data-name="Rectangle 1811" width="14" height="14" transform="translate(-22551 16250)" fill="none"/>
    <g id="Group_2037" data-name="Group 2037" transform="translate(-22623.99 15292.709)">
      <path id="Path_2746" data-name="Path 2746" d="M79.975,967.794H73.747a1.479,1.479,0,0,1-.305-.026.518.518,0,0,1-.451-.564v-7.277a.564.564,0,0,1,.586-.632c.046,0,.093,0,.14,0H86.27a1.29,1.29,0,0,1,.278.027.513.513,0,0,1,.442.555q0,3.666,0,7.333a.515.515,0,0,1-.441.557,1.557,1.557,0,0,1-.32.028Zm6.661-.757v-7.349H73.344v7.349Zm-6.644.619a.233.233,0,0,0,0-.465.235.235,0,0,0-.229.234A.232.232,0,0,0,79.992,967.656Z" fill="#0071bd"/>
      <path id="Path_2747" data-name="Path 2747" d="M78.67,968.777v-.584H81.3v.584h.163c.592,0,1.185,0,1.777,0a.546.546,0,0,1,.557.53c0,.112-.037.17-.163.17q-3.645,0-7.29,0c-.135,0-.171-.063-.167-.18a.55.55,0,0,1,.567-.521c.583,0,1.166,0,1.75,0Z" fill="#0071bd"/>
      <g id="Group_2036" data-name="Group 2036">
        <path id="Path_2748" data-name="Path 2748" d="M80.269,963.063a.56.56,0,0,1,.533-.048c.019.008.06-.013.077-.033q.477-.531.95-1.065c.152-.17.3-.341.456-.51a.084.084,0,0,0,.018-.1.538.538,0,1,1,.591.317.712.712,0,0,1-.247-.013.1.1,0,0,0-.1.031q-.715.807-1.431,1.614a.11.11,0,0,0-.021.091.545.545,0,0,1-.185.592.537.537,0,0,1-.607.035.543.543,0,0,1-.252-.567.123.123,0,0,0-.028-.09q-.715-.75-1.434-1.5a.087.087,0,0,0-.109-.03.523.523,0,0,1-.171.026.086.086,0,0,0-.091.059q-.31.651-.624,1.3a.085.085,0,0,0,.012.107.53.53,0,0,1,.048.61.538.538,0,0,1-.994-.172.536.536,0,0,1,.523-.637.1.1,0,0,0,.1-.064q.308-.648.62-1.294a.091.091,0,0,0-.013-.113.532.532,0,0,1,.019-.69.539.539,0,0,1,.906.549c-.014.037-.024.063.011.1q.709.735,1.416,1.473C80.248,963.044,80.255,963.051,80.269,963.063Zm-1.768-1.79a.19.19,0,1,0-.38,0,.19.19,0,0,0,.38,0Zm2.078,2.044a.193.193,0,0,0-.193.192.191.191,0,1,0,.193-.192Zm-3.4.487a.192.192,0,0,0,.192-.193.194.194,0,0,0-.19-.188.191.191,0,0,0,0,.381Zm5.8-2.713a.191.191,0,0,0-.187-.19.19.19,0,1,0,0,.38A.189.189,0,0,0,82.987,961.091Z" fill="#0071bd"/>
        <path id="Path_2749" data-name="Path 2749" d="M82.971,964.153v1.776a.786.786,0,0,1,0,.084.172.172,0,0,1-.339.027.386.386,0,0,1-.007-.09v-3.613a.382.382,0,0,1,.006-.083.172.172,0,0,1,.34.024c0,.03,0,.061,0,.091Z" fill="#0071bd"/>
        <path id="Path_2750" data-name="Path 2750" d="M78.53,964.3c0,.551,0,1.1,0,1.654a.286.286,0,0,1-.053.159.144.144,0,0,1-.172.044.167.167,0,0,1-.119-.144.467.467,0,0,1,0-.075v-3.295c0-.022,0-.045,0-.068a.174.174,0,0,1,.345-.006.483.483,0,0,1,0,.076Z" fill="#0071bd"/>
        <path id="Path_2751" data-name="Path 2751" d="M81.86,964.761c0,.4,0,.809,0,1.214a.174.174,0,0,1-.346.044.643.643,0,0,1,0-.076V963.56c0-.015,0-.03,0-.045a.175.175,0,0,1,.175-.181.172.172,0,0,1,.172.182c0,.215,0,.43,0,.645Z" fill="#0071bd"/>
        <path id="Path_2752" data-name="Path 2752" d="M79.641,964.836c0,.38,0,.759,0,1.139a.176.176,0,0,1-.174.2.174.174,0,0,1-.173-.175c0-.078,0-.157,0-.235,0-.688,0-1.376,0-2.064a.29.29,0,0,1,.047-.153.15.15,0,0,1,.185-.047.166.166,0,0,1,.114.163c0,.19,0,.38,0,.569Z" fill="#0071bd"/>
        <path id="Path_2753" data-name="Path 2753" d="M80.75,965.292c0,.225,0,.45,0,.675,0,.125-.068.2-.174.2s-.174-.08-.174-.205V964.6a.18.18,0,0,1,.175-.2c.1,0,.173.08.173.205C80.751,964.832,80.75,965.062,80.75,965.292Z" fill="#0071bd"/>
        <path id="Path_2754" data-name="Path 2754" d="M77.072,965.282V964.6c0-.125.07-.2.175-.2s.173.081.173.206c0,.455,0,.91,0,1.365a.179.179,0,0,1-.176.2c-.105,0-.171-.079-.172-.206Z" fill="#0071bd"/>
      </g>
    </g>
  </g>
</svg>
