<svg width="32" height="32" viewBox="0 0 32 32" fill="none" xmlns="http://www.w3.org/2000/svg">
<g clip-path="url(#clip0)">
<path fill-rule="evenodd" clip-rule="evenodd" d="M12.3786 -0.949072L-0.0695801 2.6602L12.3786 6.27176L16.0772 5.19837C17.7674 3.63097 20.0184 2.6602 22.4832 2.6602C23.0817 2.6602 23.6654 2.72347 24.2341 2.83185L24.8269 2.6602L12.3786 -0.949072Z" fill="#1971BD"/>
<path fill-rule="evenodd" clip-rule="evenodd" d="M-0.0695801 4.04263V17.2873L10.2913 23.0251V18.9581C10.2913 17.7265 10.7931 16.7134 11.557 15.8935L11.5863 7.51L-0.0695801 4.04263Z" fill="#1971BD"/>
<path fill-rule="evenodd" clip-rule="evenodd" d="M14.4844 7.11858L13.1707 7.50995L13.1824 10.4784C13.3983 9.26408 13.8479 8.12931 14.4845 7.11858H14.4844ZM22.4834 10.6249C21.6179 10.6249 20.9911 11.2516 20.9911 12.1171V13.607H23.9733V12.1171C23.9733 11.2516 23.3488 10.6249 22.4834 10.6249Z" fill="#1971BD"/>
<path d="M22.491 4.64612C18.7157 4.64612 15.6495 7.71237 15.6495 11.4877V15.5926C14.1448 15.5926 12.9128 16.8246 12.9128 18.3292V29.2758C12.9128 30.7804 14.1448 32 15.6495 32H29.3326C30.8373 32 32.0692 30.7804 32.0692 29.2758V18.3292C32.0692 16.8246 30.8373 15.5926 29.3326 15.5926V11.4877C29.3326 7.71237 26.2663 4.64612 22.491 4.64612ZM22.491 7.38274C24.7617 7.38274 26.596 9.21701 26.596 11.4877V15.5926H18.3861V11.4877C18.3861 9.21701 20.2203 7.38274 22.491 7.38274Z" fill="#1971BD"/>
</g>
<defs>
<clipPath id="clip0">
<rect width="32" height="32" fill="white"/>
</clipPath>
</defs>
</svg>
