<svg width="32" height="32" viewBox="0 0 32 32" fill="none" xmlns="http://www.w3.org/2000/svg">
<g clip-path="url(#clip0)">
<path fill-rule="evenodd" clip-rule="evenodd" d="M-0.000488281 21.4425H8.58051V27.4664H-0.000488281V21.4425Z" fill="#1971BD"/>
<path fill-rule="evenodd" clip-rule="evenodd" d="M11.709 21.4425H20.29V27.4664H11.709V21.4425Z" fill="#1971BD"/>
<path fill-rule="evenodd" clip-rule="evenodd" d="M23.4189 21.4425H31.9999V27.4664H23.4189V21.4425Z" fill="#1971BD"/>
<path fill-rule="evenodd" clip-rule="evenodd" d="M9.20166 3.5845H22.7985V9.60843H9.20166V3.5845Z" fill="#1971BD"/>
<path d="M12.2318 12.3546L10.8726 10.9945L4.80145 17.0621L6.16071 18.4222L12.2318 12.3546Z" fill="#1971BD"/>
<path d="M3.71562 19.539L4.48389 16.6242L5.25217 13.7093L7.39234 15.8321L9.53251 17.9548L6.62406 18.7469L3.71562 19.539Z" fill="#1971BD"/>
<path d="M18.4757 12.3545L19.835 10.9945L25.9061 17.0621L24.5468 18.4222L18.4757 12.3545Z" fill="#1971BD"/>
<path d="M26.9919 19.5389L26.2236 16.6241L25.4554 13.7093L23.3152 15.832L21.175 17.9548L24.0835 18.7469L26.9919 19.5389Z" fill="#1971BD"/>
<path d="M14.7896 11.5079L16.7124 11.5171L16.6591 18.1514L14.7363 18.1422L14.7896 11.5079Z" fill="#1971BD"/>
<path d="M15.6586 20.6642L17.1933 18.0698L18.728 15.4754L15.7138 15.4435L12.6996 15.4116L14.1791 18.0379L15.6586 20.6642Z" fill="#1971BD"/>
</g>
<defs>
<clipPath id="clip0">
<rect width="32" height="32" fill="white"/>
</clipPath>
</defs>
</svg>
