<?xml version="1.0" encoding="utf-8"?>
<!-- Generator: Adobe Illustrator 23.0.1, SVG Export Plug-In . SVG Version: 6.00 Build 0)  -->
<svg version="1.1"
	 id="svg13826" inkscape:version="0.91 r13725" sodipodi:docname="ep.svg" xmlns:cc="http://creativecommons.org/ns#" xmlns:dc="http://purl.org/dc/elements/1.1/" xmlns:inkscape="http://www.inkscape.org/namespaces/inkscape" xmlns:rdf="http://www.w3.org/1999/02/22-rdf-syntax-ns#" xmlns:sodipodi="http://sodipodi.sourceforge.net/DTD/sodipodi-0.dtd" xmlns:svg="http://www.w3.org/2000/svg"
	 xmlns="http://www.w3.org/2000/svg" xmlns:xlink="http://www.w3.org/1999/xlink" x="0px" y="0px" viewBox="0 0 50 50"
	 style="enable-background:new 0 0 50 50;" xml:space="preserve">
<style type="text/css">
	.st0{fill-rule:evenodd;clip-rule:evenodd;fill:#1971BD;}
	.st1{fill:#1971BD;}
</style>
<sodipodi:namedview  bordercolor="#666666" borderopacity="1.0" fit-margin-bottom="0" fit-margin-left="0" fit-margin-right="0" fit-margin-top="0" id="base" inkscape:current-layer="layer1" inkscape:cx="-2.090004" inkscape:cy="33.752239" inkscape:document-units="mm" inkscape:pageopacity="0.0" inkscape:pageshadow="2" inkscape:window-height="775" inkscape:window-maximized="1" inkscape:window-width="1440" inkscape:window-x="0" inkscape:window-y="1" inkscape:zoom="8" pagecolor="#ffffff" showgrid="false">
	</sodipodi:namedview>
<g id="layer1" transform="translate(-0.99262638,-1.174181)" inkscape:groupmode="layer" inkscape:label="Calque 1">
	<g id="g3350" transform="translate(0.09238746,0.63369956)">
		<path id="path1991" inkscape:connector-curvature="0" class="st0" d="M0.9,34.7h13.4v9.4H0.9L0.9,34.7z"/>
		<path id="path1993" inkscape:connector-curvature="0" class="st0" d="M19.2,34.7h13.4v9.4H19.2L19.2,34.7z"/>
		<path id="path2002" inkscape:connector-curvature="0" class="st0" d="M37.5,34.7h13.4v9.4H37.5V34.7z"/>
		<path id="path2005" inkscape:connector-curvature="0" class="st0" d="M15.3,6.8h21.2v9.4H15.3L15.3,6.8z"/>
		<g id="g2062" transform="matrix(0.70690292,0.70731059,-0.70731059,0.70690292,105.19939,231.56521)">
			
				<rect id="rect2056" x="-217.7" y="-83.7" transform="matrix(2.750210e-06 1 -1 2.750210e-06 -293.2317 128.7661)" class="st1" width="13.4" height="3"/>
			
				<path id="path2058" inkscape:flatsided="false" inkscape:randomized="0" inkscape:rounded="0" inkscape:transform-center-x="-0.12952442" inkscape:transform-center-y="0.2874645" sodipodi:arg1="1.1997554" sodipodi:arg2="2.246953" sodipodi:cx="-225.24307" sodipodi:cy="-91.970558" sodipodi:r1="2.2534723" sodipodi:r2="1.1267362" sodipodi:sides="3" sodipodi:type="star" class="st1" d="
				M-211-71.6l-2.4-4.1l-2.4-4.1l4.7,0l4.7,0l-2.3,4.1L-211-71.6z"/>
		</g>
		<g id="g2068" transform="matrix(-0.70690292,0.70731059,0.70731059,0.70690292,-85.801537,231.5652)">
			<rect id="rect2064" x="-234" y="-54" class="st1" width="3" height="-13.4"/>
			
				<path id="path2066" inkscape:flatsided="false" inkscape:randomized="0" inkscape:rounded="0" inkscape:transform-center-x="-0.12952442" inkscape:transform-center-y="0.2874645" sodipodi:arg1="1.1997554" sodipodi:arg2="2.246953" sodipodi:cx="-225.24307" sodipodi:cy="-91.970558" sodipodi:r1="2.2534723" sodipodi:r2="1.1267362" sodipodi:sides="3" sodipodi:type="star" class="st1" d="
				M-232.4-50.1l-2.4-4.1l-2.4-4.1l4.7,0l4.7,0l-2.3,4.1L-232.4-50.1z"/>
		</g>
		<polygon id="rect2070" class="st1" points="27,19.2 24,19.2 23.9,29.6 26.9,29.6 		"/>
		
			<path id="path2073" inkscape:flatsided="false" inkscape:randomized="0" inkscape:rounded="0" inkscape:transform-center-x="-0.12952442" inkscape:transform-center-y="0.2874645" sodipodi:arg1="1.1997554" sodipodi:arg2="2.246953" sodipodi:cx="-225.24307" sodipodi:cy="-91.970558" sodipodi:r1="2.2534723" sodipodi:r2="1.1267362" sodipodi:sides="3" sodipodi:type="star" class="st1" d="
			M25.4,33.5l2.4-4.1l2.4-4.1l-4.7,0l-4.7,0l2.3,4.1L25.4,33.5z"/>
	</g>
</g>
</svg>
