<svg width="32" height="32" viewBox="0 0 32 32" fill="none" xmlns="http://www.w3.org/2000/svg">
<path d="M3.63796 1.0509C2.11135 1.0509 0.882568 2.27968 0.882568 3.80629V27.2437C0.882568 28.7703 2.11135 30 3.63796 30H28.3623C29.8889 30 31.1177 28.7703 31.1177 27.2437V3.80629C31.1177 2.27968 29.8889 1.0509 28.3623 1.0509H3.63796ZM11.9708 8.47358C13.6429 8.47358 14.9826 9.82347 14.9826 11.4956C14.9826 13.1678 13.6429 14.5176 11.9708 14.5176C10.2986 14.5176 8.94873 13.1678 8.94873 11.4956C8.94873 9.82347 10.2986 8.47358 11.9708 8.47358ZM20.0295 8.47358C21.7017 8.47358 23.0414 9.82347 23.0414 11.4956C23.0414 13.1678 21.7017 14.5176 20.0295 14.5176C18.3574 14.5176 17.0075 13.1678 17.0075 11.4956C17.0075 9.82347 18.3574 8.47358 20.0295 8.47358ZM11.9708 16.5323C14.3178 16.5323 19.0222 17.711 19.0222 20.058V22.5764H4.91935V20.058C4.91935 17.711 9.62371 16.5323 11.9708 16.5323ZM20.0295 16.5323C22.3766 16.5323 27.0809 17.711 27.0809 20.058V22.5764H21.0369V20.058C21.0369 18.5672 20.2212 17.4285 19.0527 16.5823C19.4053 16.5521 19.7374 16.5323 20.0295 16.5323V16.5323Z" fill="#1971BD"/>
</svg>
