<?xml version="1.0" encoding="utf-8"?>
<!-- Generator: Adobe Illustrator 23.0.1, SVG Export Plug-In . SVG Version: 6.00 Build 0)  -->
<svg version="1.1"
	 id="svg11531" inkscape:version="0.91 r13725" sodipodi:docname="master.svg" xmlns:cc="http://creativecommons.org/ns#" xmlns:dc="http://purl.org/dc/elements/1.1/" xmlns:inkscape="http://www.inkscape.org/namespaces/inkscape" xmlns:rdf="http://www.w3.org/1999/02/22-rdf-syntax-ns#" xmlns:sodipodi="http://sodipodi.sourceforge.net/DTD/sodipodi-0.dtd" xmlns:svg="http://www.w3.org/2000/svg"
	 xmlns="http://www.w3.org/2000/svg" xmlns:xlink="http://www.w3.org/1999/xlink" x="0px" y="0px" viewBox="0 0 50 50"
	 style="enable-background:new 0 0 50 50;" xml:space="preserve">
<style type="text/css">
	.st0{fill:#0071BD;}
</style>
<sodipodi:namedview  bordercolor="#666666" borderopacity="1.0" fit-margin-bottom="0" fit-margin-left="0" fit-margin-right="0" fit-margin-top="0" id="base" inkscape:current-layer="layer1" inkscape:cx="16.968621" inkscape:cy="33.509081" inkscape:document-units="mm" inkscape:pageopacity="0.0" inkscape:pageshadow="2" inkscape:window-height="771" inkscape:window-maximized="0" inkscape:window-width="1440" inkscape:window-x="55" inkscape:window-y="0" inkscape:zoom="8" pagecolor="#ffffff" showgrid="false">
	</sodipodi:namedview>
<g id="layer1" transform="translate(-0.99262638,-1.174181)" inkscape:groupmode="layer" inkscape:label="Calque 1">
	
		<path id="path1984" inkscape:connector-curvature="0" sodipodi:nodetypes="cccccccccccccscccccsccccccccccccccscscccccccccccccccccccccscccccccccccccc" class="st0" d="
		M25.9,1.6c-0.7,0-19.9,9.4-20.2,9.9c-0.6,1.2-5,21.4-4.7,21.8c0.1,0.3,3.3,4.3,7,8.9l6.7,8.4l11.1,0l11.1,0l7-8.8L51,33l-2.5-10.8
		c-1.4-5.9-2.6-10.9-2.7-11C45.5,10.9,26.3,1.7,25.9,1.6L25.9,1.6z M27.1,11.5c0.9,0,1,1.5,3,1.6c2.6,0.2,2.3-2.2,4.3-0.5
		c2,1.7-0.4,1.8,0.2,4.3c0.6,2.5,2.8,1.5,1.8,3.9c-1,2.4-1.9,0.1-4.1,1.5c-2.2,1.4-0.6,3.2-3.2,3c-2.6-0.2-0.7-1.7-2.7-3.4
		c-2-1.7-3.2,0.4-3.8-2.1c-0.6-2.5,1.4-1.2,2.4-3.6c1-2.4-1.4-2.9,0.8-4.3c0.3-0.2,0.5-0.3,0.7-0.4C26.8,11.5,26.9,11.5,27.1,11.5
		L27.1,11.5z M29.7,14.4c-0.4,0-0.8,0.1-1.1,0.2c-2,0.6-3.1,2.7-2.5,4.7c0.6,2,2.7,3.1,4.7,2.5c2-0.6,3.1-2.7,2.5-4.7
		C32.8,15.5,31.3,14.4,29.7,14.4z M14.8,20.9c0.2,0,0.4,0,0.7,0.1c2.4,0.7,0,2,1.7,3.8c1.7,1.8,3.1-0.5,3.7,1.9s-1.7,1-2.5,3.4
		c-0.7,2.4,2,2.5,0.2,4.2c-1.8,1.7-1.7-1-4.1-0.5c-2.4,0.6-1.1,3-3.5,2.2c-2.4-0.7,0-2-1.7-3.8c-1.7-1.8-3.1,0.5-3.7-1.9
		c-0.6-2.4,1.7-1,2.5-3.4c0.7-2.4-2-2.5-0.2-4.2c1.8-1.7,1.7,1,4.1,0.5C14.1,22.8,13.4,20.9,14.8,20.9L14.8,20.9z M32.5,23.5
		c0.2,0,0.5,0.1,0.8,0.2c2.8,1.1-0.9,2.7,1.3,4.8c2.1,2,3.6-1.7,4.8,1c1.2,2.7-2.5,1.3-2.5,4.3c0.1,3,3.7,1.4,2.7,4.1
		c-1.1,2.8-2.7-0.9-4.8,1.3c-2,2.1,1.7,3.6-1.1,4.8c-2.7,1.2-1.3-2.5-4.3-2.5c-3,0.1-1.4,3.7-4.2,2.7c-2.8-1.1,0.9-2.7-1.3-4.8
		c-2.1-2-3.6,1.7-4.8-1c-1.2-2.7,2.5-1.3,2.5-4.3c-0.1-3-3.7-1.4-2.7-4.2c1.1-2.8,2.7,0.9,4.8-1.3c2-2.1-1.7-3.6,1-4.8
		c2.7-1.2,1.3,2.5,4.3,2.5C31.8,26.3,31,23.5,32.5,23.5L32.5,23.5z M13.2,24.8c-2.1,0-3.8,1.7-3.8,3.8c0,2.1,1.7,3.8,3.8,3.8
		c2.1,0,3.8-1.7,3.8-3.8C17,26.5,15.3,24.8,13.2,24.8z M29.4,28.4c-3.1,0-5.6,2.5-5.6,5.6c0,3.1,2.5,5.6,5.6,5.6
		c3.1,0,5.6-2.5,5.6-5.6C35,30.9,32.5,28.4,29.4,28.4z"/>
</g>
</svg>
