<svg width="32" height="32" viewBox="0 0 32 32" fill="none" xmlns="http://www.w3.org/2000/svg">
<path d="M15.9455 0.82119C15.5316 0.808024 3.99147 6.48202 3.84058 6.773C3.47801 7.47222 0.851684 19.585 1.00605 19.8461C1.09582 19.9976 2.98744 22.395 5.20881 25.1731L9.24772 30.224L15.8939 30.2268L22.5415 30.2296L26.7701 24.9462L31 19.6643L29.5195 13.1755C28.705 9.60653 27.9765 6.62677 27.9021 6.55499C27.6942 6.35487 16.1699 0.82856 15.9455 0.821315V0.82119ZM16.5324 3.65704L19.2521 4.44571L16.5324 5.23438L13.8128 4.44571L16.5324 3.65704ZM13.8128 4.74775L16.3595 5.50545L16.3475 9.04607L13.8137 7.6417L13.8128 4.74775ZM19.2521 4.74775V7.6417L16.7184 9.04607L16.7064 5.50545L19.2521 4.74775ZM12.6769 9.57917L15.3966 10.3678L12.6769 11.1565L9.9572 10.3678L12.6769 9.57917ZM19.2857 9.57917L22.0054 10.3678L19.2857 11.1565L16.566 10.3678L19.2857 9.57917ZM9.9572 10.6699L12.5039 11.4263L12.4919 14.9669L9.9581 13.5638L9.9572 10.6699ZM15.3966 10.6699V13.5638L12.8628 14.9669L12.8508 11.4263L15.3966 10.6699ZM16.566 10.6699L19.1127 11.4263L19.1008 14.9669L16.5669 13.5638L16.566 10.6699ZM22.0054 10.6699V13.5638L19.4716 14.9669L19.4596 11.4263L22.0054 10.6699ZM11.6834 15.2031C12.4932 15.2318 11.8662 16.0466 12.7857 16.4836C13.7664 16.9497 13.9689 15.7794 14.5851 16.6733C15.2014 17.5673 14.0363 17.3413 14.123 18.4236C14.2098 19.5059 15.3248 19.0964 14.8587 20.0771C14.3927 21.0578 14.005 19.9346 13.111 20.5508C12.2171 21.1671 13.129 21.9279 12.0474 22.0146C10.965 22.1013 11.7437 21.2054 10.7631 20.7393C9.78237 20.2732 9.58001 21.4422 8.96374 20.5482C8.34747 19.6543 9.51379 19.8815 9.42708 18.7992C9.3403 17.7169 8.22527 18.1264 8.69139 17.1457C9.15742 16.165 9.5438 17.2883 10.4378 16.672C11.3318 16.0557 10.4198 15.295 11.5027 15.2083C11.57 15.2029 11.6296 15.2014 11.6835 15.2029L11.6834 15.2031ZM18.673 16.2887C20.1193 16.3293 18.7167 17.6867 20.0373 18.2778C21.3582 18.8689 21.4351 16.919 22.4292 17.9706C23.4232 19.0221 21.4718 18.9898 21.9878 20.3417C22.5037 21.6936 23.9376 20.3693 23.8968 21.8158C23.8558 23.2623 22.4988 21.8594 21.9077 23.1802C21.3166 24.501 23.2665 24.578 22.2149 25.572C21.1634 26.566 21.1969 24.6146 19.845 25.1306C18.4931 25.6465 19.8181 27.0803 18.3709 27.0396C16.9245 26.999 18.3272 25.6416 17.0066 25.0505C15.6858 24.4594 15.6075 26.4093 14.6135 25.3577C13.6195 24.3062 15.5709 24.3398 15.055 22.9878C14.539 21.6359 13.1052 22.9603 13.1459 21.5138C13.1868 20.0673 14.5438 21.4689 15.135 20.1481C15.726 18.8273 13.7762 18.7503 14.8277 17.7563C15.8793 16.7623 15.847 18.7137 17.1989 18.1977C18.5509 17.6818 17.2258 16.248 18.673 16.2887ZM11.7466 17.0476C10.868 17.0479 10.156 17.7605 10.1565 18.6392C10.1567 19.5173 10.8685 20.2292 11.7466 20.2294C12.6253 20.2299 13.338 19.5179 13.3382 18.6392C13.3387 17.76 12.6258 17.0472 11.7466 17.0476ZM18.522 18.4856C16.766 18.485 15.3422 19.9087 15.3428 21.6648C15.3429 23.4204 16.7665 24.8433 18.522 24.8427C20.2771 24.8425 21.6998 23.4198 21.6999 21.6648C21.7005 19.9093 20.2776 18.4858 18.522 18.4856Z" fill="#1971BD"/>
</svg>
