<svg width="32" height="32" viewBox="0 0 32 32" fill="none" xmlns="http://www.w3.org/2000/svg">
<path fill-rule="evenodd" clip-rule="evenodd" d="M1.00024 10.5962C1.00024 12.6088 7.71589 14.2403 16.0001 14.2403C24.2843 14.2403 31 12.6088 31 10.5962V20.4544C31 22.467 24.2843 24.0986 16.0001 24.0986C7.71589 24.0986 1.00024 22.467 1.00024 20.4544V10.5962Z" fill="#1971BD"/>
<path fill-rule="evenodd" clip-rule="evenodd" d="M1.00024 10.5962C1.00024 8.58362 7.71589 6.95207 16.0001 6.95207C24.2843 6.95207 31 8.58362 31 10.5962C31 12.6088 24.2843 14.2404 16.0001 14.2404C7.71589 14.2404 1.00024 12.6088 1.00024 10.5962Z" fill="#1971BD"/>
<path d="M31 10.5962C31 12.6089 24.2843 14.2404 16.0001 14.2404C7.71593 14.2404 1.00024 12.6089 1.00024 10.5962C1.00024 8.58362 7.71593 6.95207 16.0001 6.95207C24.2843 6.95207 31 8.58362 31 10.5962ZM31 10.5962V20.4545C31 22.4671 24.2843 24.0987 16.0001 24.0987C7.71593 24.0987 1.00024 22.4671 1.00024 20.4545V10.5962" stroke="white" stroke-width="0.264583" stroke-miterlimit="10" stroke-linejoin="round"/>
</svg>
