<?xml version="1.0" encoding="utf-8"?>
<!-- Generator: Adobe Illustrator 23.0.1, SVG Export Plug-In . SVG Version: 6.00 Build 0)  -->
<svg version="1.1"
	 id="svg13826" inkscape:version="0.91 r13725" sodipodi:docname="pv.svg" xmlns:cc="http://creativecommons.org/ns#" xmlns:dc="http://purl.org/dc/elements/1.1/" xmlns:inkscape="http://www.inkscape.org/namespaces/inkscape" xmlns:rdf="http://www.w3.org/1999/02/22-rdf-syntax-ns#" xmlns:sodipodi="http://sodipodi.sourceforge.net/DTD/sodipodi-0.dtd" xmlns:svg="http://www.w3.org/2000/svg"
	 xmlns="http://www.w3.org/2000/svg" xmlns:xlink="http://www.w3.org/1999/xlink" x="0px" y="0px" viewBox="0 0 50 50"
	 style="enable-background:new 0 0 50 50;" xml:space="preserve">
<style type="text/css">
	.st0{fill-rule:evenodd;clip-rule:evenodd;fill:#0071BD;}
	.st1{fill:none;stroke:#FFFFFF;stroke-linejoin:round;stroke-miterlimit:10;}
</style>
<sodipodi:namedview  bordercolor="#666666" borderopacity="1.0" fit-margin-bottom="0" fit-margin-left="0" fit-margin-right="0" fit-margin-top="0" id="base" inkscape:current-layer="layer1" inkscape:cx="-12.090004" inkscape:cy="28.752239" inkscape:document-units="mm" inkscape:pageopacity="0.0" inkscape:pageshadow="2" inkscape:window-height="775" inkscape:window-maximized="1" inkscape:window-width="1440" inkscape:window-x="0" inkscape:window-y="1" inkscape:zoom="8" pagecolor="#ffffff" showgrid="false">
	</sodipodi:namedview>
<g id="layer1" transform="translate(-0.99262638,-1.174181)" inkscape:groupmode="layer" inkscape:label="Calque 1">
	<g id="g3341" transform="translate(-0.18983289,0.49258906)">
		<path id="path1114" inkscape:connector-curvature="0" class="st0" d="M1.7,17.6L1.7,17.6c0,3.3,11,5.9,24.5,5.9
			c13.5,0,24.5-2.7,24.5-5.9v16.1c0,3.3-11,5.9-24.5,5.9c-13.5,0-24.5-2.7-24.5-5.9L1.7,17.6z"/>
		<path id="path1116" inkscape:connector-curvature="0" class="st0" d="M1.7,17.6L1.7,17.6c0-3.3,11-5.9,24.5-5.9
			c13.5,0,24.5,2.7,24.5,5.9l0,0c0,3.3-11,5.9-24.5,5.9C12.7,23.6,1.7,20.9,1.7,17.6z"/>
		<path id="path1120" inkscape:connector-curvature="0" class="st1" d="M50.7,17.6L50.7,17.6c0,3.3-11,5.9-24.5,5.9
			c-13.5,0-24.5-2.7-24.5-5.9l0,0c0-3.3,11-5.9,24.5-5.9C39.7,11.7,50.7,14.3,50.7,17.6v16.1c0,3.3-11,5.9-24.5,5.9
			c-13.5,0-24.5-2.7-24.5-5.9V17.6"/>
	</g>
</g>
</svg>
