<svg width="32" height="32" viewBox="0 0 32 32" fill="none" xmlns="http://www.w3.org/2000/svg">
<g clip-path="url(#clip0)">
<path fill-rule="evenodd" clip-rule="evenodd" d="M0 10.8472C0 12.9745 7.08345 14.6945 15.8416 14.6945C24.5997 14.6945 31.6832 12.9745 31.6832 10.8472V21.2574C31.6832 23.3847 24.5997 25.1047 15.8416 25.1047C7.08345 25.1047 0 23.3847 0 21.2574V10.8472Z" fill="#1971BD"/>
<path fill-rule="evenodd" clip-rule="evenodd" d="M0 10.8472C0 8.71994 7.08345 7 15.8416 7C24.5997 7 31.6832 8.71994 31.6832 10.8472C31.6832 12.9745 24.5997 14.6945 15.8416 14.6945C7.08345 14.6945 0 12.9745 0 10.8472Z" fill="#1971BD"/>
<path d="M31.6832 10.8472C31.6832 12.9745 24.5997 14.6945 15.8416 14.6945C7.08345 14.6945 0 12.9745 0 10.8472C0 8.71994 7.08345 7 15.8416 7C24.5997 7 31.6832 8.71994 31.6832 10.8472V21.2574C31.6832 23.3847 24.5997 25.1047 15.8416 25.1047C7.08345 25.1047 0 23.3847 0 21.2574V10.8472" stroke="white" stroke-width="0.14" stroke-linejoin="round"/>
</g>
<defs>
<clipPath id="clip0">
<rect width="32" height="32" fill="white"/>
</clipPath>
</defs>
</svg>
