<?xml version="1.0" encoding="utf-8"?>
<!-- Generator: Adobe Illustrator 23.0.1, SVG Export Plug-In . SVG Version: 6.00 Build 0)  -->
<svg version="1.1"
	 id="svg13826" inkscape:version="0.91 r13725" sodipodi:docname="quota.svg" xmlns:cc="http://creativecommons.org/ns#" xmlns:dc="http://purl.org/dc/elements/1.1/" xmlns:inkscape="http://www.inkscape.org/namespaces/inkscape" xmlns:rdf="http://www.w3.org/1999/02/22-rdf-syntax-ns#" xmlns:sodipodi="http://sodipodi.sourceforge.net/DTD/sodipodi-0.dtd" xmlns:svg="http://www.w3.org/2000/svg"
	 xmlns="http://www.w3.org/2000/svg" xmlns:xlink="http://www.w3.org/1999/xlink" x="0px" y="0px" viewBox="0 0 50 50"
	 style="enable-background:new 0 0 50 50;" xml:space="preserve">
<style type="text/css">
	.st0{fill:#0071BD;}
</style>
<sodipodi:namedview  bordercolor="#666666" borderopacity="1.0" fit-margin-bottom="0" fit-margin-left="0" fit-margin-right="0" fit-margin-top="0" id="base" inkscape:current-layer="layer1" inkscape:cx="-2.090004" inkscape:cy="23.752239" inkscape:document-units="mm" inkscape:pageopacity="0.0" inkscape:pageshadow="2" inkscape:window-height="775" inkscape:window-maximized="1" inkscape:window-width="1440" inkscape:window-x="0" inkscape:window-y="1" inkscape:zoom="8" pagecolor="#ffffff" showgrid="false">
	</sodipodi:namedview>
<g id="layer1" transform="translate(-0.99262638,-1.174181)" inkscape:groupmode="layer" inkscape:label="Calque 1">
	<g id="g3340" transform="translate(0.19821438,1.0923103)">
		
			<path id="path6933" inkscape:connector-curvature="0" sodipodi:nodetypes="cccsscccccsccccccsscssccccssscscccccccscccccsccccccccccccccsccccccscccsccccccsccccccccccsccccccccccccccccccc" class="st0" d="
			M16.2,0.1c0,0-1.4,0.5-3,1.1c-1.6,0.6-3,1.2-3.1,1.2c-0.1,0-0.1,0.1-0.1,0.1c0,0,0.3,0.9,0.7,1.9c0.4,1,0.7,1.9,0.7,2
			c0,0.1-0.4,0.2-1.1,0.5C9.7,7.2,9.2,7.4,9.2,7.4c0,0.1,7.4,3.4,7.5,3.4c0.1,0,0.4-0.8,1.8-3.7c0.9-2,1.7-3.8,1.7-3.8
			c0,0,0-0.1,0-0.1C19.2,3.5,17.9,4,17.8,4c0,0-0.4-0.9-0.8-2C16.6,0.8,16.3,0.1,16.2,0.1L16.2,0.1z M25.8,9.9
			C16,9.9,7.3,16.2,4.2,25.6C3.1,29,2.8,32.8,3.4,36.5c0.8,5.1,3.4,9.8,7.4,13.3c0.2,0.2,0.4,0.4,0.4,0.4c0,0,1.1-1,2.3-2.3
			c1.3-1.3,2.3-2.4,2.4-2.4c0.1-0.4-0.2-1-0.7-1.6c-0.6-0.6-1.2-0.8-1.6-0.7c-0.1,0-0.6,0.4-1.2,1.1c-0.6,0.6-1.1,1.1-1.2,1.1
			c-0.1,0-0.7-0.7-1.3-1.5c-1.4-1.9-2.3-4.1-2.9-6.5c-0.2-0.8-0.4-2.2-0.4-2.3c0,0,0.4-0.1,1.7-0.1c1.8,0,1.9,0,2.1-0.3
			c0.2-0.3,0.3-0.7,0.4-1.3c0-0.6-0.1-1.1-0.3-1.4c-0.2-0.4-0.2-0.4-2.1-0.4c-0.9,0-1.7,0-1.8,0c-0.1,0-0.1-0.2,0-0.9
			c0.3-3,1.4-6.1,3.1-8.5c0.4-0.6,1.1-1.5,1.1-1.5c0,0,0.7,0.6,1.4,1.3l1.3,1.3l0.3,0c0.8-0.1,1.8-1,2-1.9c0-0.1,0.1-0.3,0-0.4
			c0-0.1-0.4-0.5-1.4-1.5c-1.2-1.2-1.3-1.4-1.3-1.4c0.2-0.3,1.6-1.3,2.6-1.9c2.3-1.4,5.4-2.5,7.8-2.6l0.4,0l0,2l0,2l0.2,0.2
			c0.6,0.6,2.3,0.6,2.9,0l0.2-0.2l0-2l0-2l0.4,0c0.5,0,1.7,0.2,2.6,0.5c2.7,0.7,5.2,1.9,7.3,3.6c0.3,0.2,0.5,0.4,0.5,0.5
			c0,0-0.6,0.7-1.3,1.4l-1.3,1.3l0,0.3c0,0.9,1.2,2.1,2.1,2.1l0.3,0l1.3-1.3c0.7-0.7,1.3-1.3,1.4-1.3c0,0,0.2,0.3,0.5,0.6
			c1.8,2.4,3,5.3,3.5,8.2c0.2,1,0.3,2,0.2,2.1c0,0.1-0.4,0.1-1.8,0.1h-1.7l-0.2,0.1c-0.3,0.3-0.6,1.2-0.5,1.8c0.1,0.5,0.2,1,0.4,1.2
			l0.2,0.2l1.8,0c1.7,0,1.8,0,1.8,0.1c0,0.2-0.2,1.2-0.3,2c-0.5,2.4-1.6,4.9-3.1,6.9c-0.6,0.8-1.1,1.4-1.2,1.4c0,0-0.6-0.5-1.2-1.1
			C38,43,38,42.9,37.5,43.1c-0.8,0.2-1.7,1.3-1.8,2l0,0.3l2,2.1c2.6,2.6,2.6,2.7,2.8,2.6c0.2-0.1,1.5-1.3,2-1.9
			c1.5-1.7,2.7-3.4,3.7-5.3c2.4-4.9,3-10.4,1.7-15.8c-1.1-4.4-3.6-8.4-7-11.4C36.6,11.9,31.3,9.9,25.8,9.9L25.8,9.9z M21.5,19.3
			c-0.9,0-1.9,0.5-2.2,1.1c-0.1,0.2-0.1,0.3-0.1,0.4c0,0.1,1,2.5,2.1,5.3l2,5.2l-0.2,0.4c-0.6,1.2-0.4,2.5,0.6,3.4
			c0.8,0.8,2,1.1,3.1,0.7c0.2-0.1,0.5-0.2,0.7-0.4c1.4-1,1.7-3,0.6-4.3c-0.4-0.4-0.8-0.7-1.5-1c-0.1,0-0.4-0.6-2.2-5.3
			c-1.1-2.9-2.1-5.3-2.1-5.3C22.2,19.4,22,19.3,21.5,19.3z"/>
		<path id="path3344" inkscape:connector-curvature="0" class="st0" d="M10.5,49.4c-0.9-0.8-2.7-2.8-3.6-4.2
			c-1.5-2.3-2.8-5.5-3.4-8.5c-0.4-2.1-0.4-6.4,0.1-8.5c1.8-8.7,8.2-15.3,16.6-17.5c6.3-1.6,12.8-0.5,18.3,3.2
			c1.7,1.1,4.5,3.9,5.7,5.5c4.3,6.1,5.4,13.5,3.1,20.5c-1.1,3.2-2.8,6-5.2,8.5L40.5,50l-2.3-2.3c-1.4-1.4-2.3-2.4-2.3-2.6
			c0-0.7,1.2-2,2-2c0.2,0,0.8,0.5,1.4,1.1c1.3,1.3,1.2,1.3,2.5-0.5c1.7-2.4,2.8-5.3,3.3-8.2l0.1-0.7h-1.8h-1.8l-0.3-0.5
			c-0.3-0.6-0.3-2.2,0.1-2.6c0.2-0.2,0.6-0.2,2-0.2h1.8v-0.6c0-1.6-0.9-4.8-1.9-6.9c-0.5-1.1-2.1-3.5-2.3-3.5
			c-0.1,0-0.7,0.6-1.5,1.4c-1.2,1.2-1.4,1.3-1.8,1.3C37,22.9,36,22,35.9,21.4c-0.1-0.5,0-0.6,1.2-1.9c1.5-1.6,1.6-1.5-0.3-2.8
			c-2.4-1.6-5.8-3-8.3-3.2l-1-0.1l-0.1,2c-0.1,1.5-0.2,2.1-0.3,2.2c-0.3,0.3-1.7,0.4-2.3,0.1l-0.6-0.2v-2.1v-2.1l-0.6,0
			c-1.5,0-5.2,1.2-7.1,2.2c-1.2,0.7-3.3,2.2-3.3,2.4c0,0.1,0.6,0.8,1.3,1.5c1.2,1.2,1.3,1.4,1.2,1.8c-0.1,0.6-1.2,1.6-1.7,1.7
			c-0.4,0.1-0.6,0-1.8-1.3c-0.8-0.8-1.4-1.3-1.5-1.3c-0.3,0.2-1.6,2.3-2.2,3.4c-1,2-2.3,6.6-2,7.3c0.1,0.2,0.5,0.2,1.8,0.2
			c1.9,0,2.1,0.1,2.3,1c0.1,0.3,0.1,0.8,0,1.2c-0.2,1-0.5,1.2-2.4,1.2c-1.9,0-1.8-0.1-1.4,1.9c0.6,2.9,2,5.8,4,8.3l0.3,0.4l1.3-1.1
			c0.7-0.7,1.4-1.1,1.6-1.1c0.4,0,1.5,1,1.7,1.6c0.2,0.4,0.2,0.5-0.6,1.4c-0.4,0.5-1.5,1.6-2.3,2.4L11.2,50L10.5,49.4L10.5,49.4z"/>
	</g>
</g>
</svg>
