<svg width="32" height="32" viewBox="0 0 32 32" fill="none" xmlns="http://www.w3.org/2000/svg">
<path d="M29.147 5.26819H3.5835V26.8602H5.86595V8.60057C5.86583 8.45311 5.92281 8.31133 6.02493 8.20495C6.12705 8.09857 6.26639 8.03586 6.41374 8.02996H29.2383L29.147 5.26819Z" fill="#1971BD"/>
<path d="M25.5863 1H0V22.592H2.28245V4.33238C2.28835 4.18504 2.35106 4.0457 2.45744 3.94357C2.56382 3.84145 2.7056 3.78448 2.85307 3.78459H25.6776L25.5863 1Z" fill="#1971BD"/>
<path d="M29.6719 9.23966H6.84741V30.2611H31.9544V9.23966H29.6719Z" fill="#1971BD"/>
<path fill-rule="evenodd" clip-rule="evenodd" d="M26.7046 19.2596C26.7046 19.0542 26.4307 18.9173 26.2253 18.9173C25.9046 18.9237 25.5897 18.8306 25.324 18.6508C25.0583 18.4709 24.8549 18.2132 24.7417 17.913C24.637 17.6257 24.6158 17.3146 24.6804 17.0157C24.745 16.7169 24.8929 16.4424 25.1069 16.224C25.1794 16.1512 25.2201 16.0528 25.2201 15.9501C25.2201 15.8474 25.1794 15.7489 25.1069 15.6762C24.7678 15.2497 24.3853 14.8596 23.9657 14.5121C23.893 14.4397 23.7945 14.399 23.6918 14.399C23.5891 14.399 23.4906 14.4397 23.4179 14.5121C23.1915 14.751 22.8995 14.9176 22.5786 14.9907C22.2577 15.0638 21.9223 15.0402 21.6148 14.923C21.3076 14.7953 21.0479 14.5749 20.872 14.2926C20.696 14.0103 20.6126 13.6801 20.6333 13.3481C20.6346 13.244 20.5984 13.1429 20.5314 13.0633C20.4643 12.9837 20.3709 12.9308 20.2681 12.9144C19.7301 12.8459 19.1856 12.8459 18.6476 12.9144C18.5915 12.9172 18.5366 12.9314 18.4862 12.9562C18.4359 12.981 18.3911 13.0159 18.3548 13.0587C18.3184 13.1015 18.2912 13.1512 18.2748 13.2049C18.2584 13.2586 18.2533 13.3151 18.2596 13.3709C18.2737 13.7018 18.1846 14.0289 18.0047 14.3069C17.8248 14.585 17.5629 14.8003 17.2553 14.923C16.9516 15.0415 16.6193 15.0657 16.3017 14.9924C15.9841 14.9191 15.696 14.7517 15.475 14.5121C15.4022 14.4397 15.3037 14.399 15.2011 14.399C15.0984 14.399 14.9999 14.4397 14.9272 14.5121C14.493 14.8588 14.0953 15.2488 13.7403 15.6762C13.6729 15.7515 13.6357 15.849 13.6357 15.9501C13.6357 16.0511 13.6729 16.1486 13.7403 16.224C13.9873 16.4448 14.1595 16.737 14.2331 17.0601C14.3067 17.3831 14.2781 17.7211 14.1511 18.0271C14.0131 18.3266 13.7904 18.5791 13.5106 18.7535C13.2307 18.9279 12.9059 19.0166 12.5762 19.0086C12.5141 19.0259 12.4569 19.0577 12.4093 19.1014C12.3617 19.145 12.3251 19.1992 12.3024 19.2596C12.2339 19.8053 12.2339 20.3574 12.3024 20.903C12.3237 21.0077 12.3811 21.1015 12.4645 21.1683C12.5479 21.235 12.6521 21.2703 12.7588 21.2682C13.0801 21.2585 13.3966 21.3474 13.6659 21.5228C13.9351 21.6983 14.1443 21.9519 14.2653 22.2496C14.3889 22.5562 14.4157 22.8933 14.3423 23.2156C14.2689 23.5379 14.0986 23.83 13.8544 24.0528C13.7819 24.1255 13.7412 24.224 13.7412 24.3267C13.7412 24.4294 13.7819 24.5278 13.8544 24.6006C14.1999 25.0144 14.5818 25.3964 14.9956 25.7418C15.0684 25.8143 15.1669 25.855 15.2695 25.855C15.3722 25.855 15.4707 25.8143 15.5434 25.7418C15.776 25.5048 16.0732 25.3416 16.3979 25.2726C16.7227 25.2036 17.0606 25.2318 17.3694 25.3538C17.6746 25.4842 17.9323 25.7052 18.1079 25.9868C18.2834 26.2685 18.3682 26.5973 18.3509 26.9287C18.3443 27.028 18.3762 27.126 18.44 27.2025C18.5037 27.279 18.5944 27.328 18.6932 27.3395C18.9743 27.3622 19.2567 27.3622 19.5377 27.3395C19.8036 27.3616 20.0708 27.3616 20.3366 27.3395C20.406 27.3031 20.4628 27.2466 20.4995 27.1774C20.5361 27.1081 20.551 27.0294 20.542 26.9515C20.5344 26.6219 20.6261 26.2977 20.8052 26.0209C20.9843 25.7441 21.2425 25.5275 21.5463 25.3994C21.8515 25.2928 22.1808 25.2748 22.4958 25.3475C22.8109 25.4202 23.099 25.5806 23.3266 25.8103C23.3993 25.8827 23.4978 25.9234 23.6005 25.9234C23.7032 25.9234 23.8017 25.8827 23.8744 25.8103C24.3081 25.4715 24.7058 25.0891 25.0613 24.669C25.1303 24.59 25.1683 24.4887 25.1683 24.3837C25.1683 24.2788 25.1303 24.1775 25.0613 24.0984C24.8211 23.882 24.6522 23.5977 24.577 23.2833C24.5018 22.9688 24.5237 22.6389 24.6399 22.3372C24.7562 22.0355 24.9612 21.7761 25.228 21.5934C25.4948 21.4107 25.8107 21.3132 26.134 21.3138C26.2359 21.3209 26.3368 21.2897 26.417 21.2264C26.4972 21.1631 26.5509 21.0722 26.5677 20.9715C26.6616 20.4057 26.7074 19.8331 26.7046 19.2596ZM19.5149 22.592C19.1972 22.592 18.8826 22.5294 18.589 22.4078C18.2955 22.2863 18.0288 22.108 17.8041 21.8834C17.5795 21.6587 17.4013 21.392 17.2797 21.0985C17.1581 20.8049 17.0955 20.4903 17.0955 20.1726C17.0955 19.8549 17.1581 19.5403 17.2797 19.2467C17.4013 18.9532 17.5795 18.6865 17.8041 18.4618C18.0288 18.2372 18.2955 18.059 18.589 17.9374C18.8826 17.8158 19.1972 17.7532 19.5149 17.7532C20.1566 17.7532 20.772 18.0081 21.2257 18.4618C21.6794 18.9156 21.9343 19.5309 21.9343 20.1726C21.9343 20.8143 21.6794 21.4297 21.2257 21.8834C20.772 22.3371 20.1566 22.592 19.5149 22.592Z" fill="white"/>
</svg>
