<svg width="32" height="32" viewBox="0 0 32 32" fill="none" xmlns="http://www.w3.org/2000/svg">
<path d="M10.0793 0.0509466C10.0552 0.0509466 9.20989 0.3676 8.20071 0.754448C7.19152 1.14128 6.32638 1.47172 6.27827 1.48896C6.23016 1.50633 6.19064 1.5385 6.19064 1.5603C6.19064 1.58208 6.39201 2.12488 6.63814 2.76644C6.88428 3.408 7.0814 3.95564 7.0758 3.98391C7.06894 4.01867 6.84675 4.11909 6.39003 4.29356C6.01836 4.43553 5.71841 4.56605 5.72394 4.58353C5.73869 4.6302 10.2991 6.66614 10.3708 6.65808C10.4189 6.65257 10.6459 6.17089 11.4602 4.34575C12.026 3.07778 12.4887 2.02114 12.4887 1.99747C12.4887 1.97376 12.4766 1.95918 12.4621 1.965C11.9056 2.18845 11.1131 2.47221 11.0807 2.45976C11.0568 2.45011 10.8314 1.90505 10.58 1.24722C10.2846 0.474422 10.1076 0.0509243 10.0793 0.0509243L10.0793 0.0509466ZM16.0066 6.15845C9.91958 6.15845 4.54815 10.041 2.62933 15.8277C1.92691 17.9461 1.74793 20.3254 2.12226 22.5708C2.64757 25.7219 4.25738 28.6163 6.68393 30.7735C6.82382 30.8979 6.94533 31 6.9542 31C6.96305 31 7.61024 30.3591 8.39221 29.5763C9.19005 28.7775 9.82888 28.1127 9.84795 28.0615C9.93158 27.8365 9.74528 27.4283 9.40389 27.0877C9.05173 26.7363 8.67548 26.5625 8.43701 26.6412C8.37404 26.6618 8.09303 26.9183 7.67001 27.3417C7.30289 27.7091 6.97859 28.0098 6.94928 28.0098C6.88731 28.0098 6.53481 27.5791 6.16849 27.0557C5.32886 25.856 4.71772 24.4982 4.36075 23.0385C4.24423 22.562 4.09127 21.66 4.11559 21.5926C4.12664 21.5619 4.36198 21.5527 5.14548 21.5527C6.24663 21.5527 6.30864 21.545 6.43876 21.3794C6.57371 21.2079 6.64425 20.9539 6.6603 20.5824C6.67739 20.1866 6.62625 19.9171 6.49045 19.6854C6.35437 19.4532 6.35838 19.4536 5.18241 19.4531C4.60861 19.4528 4.11864 19.4396 4.09343 19.4235C4.05366 19.3985 4.05492 19.3287 4.10228 18.8943C4.30449 17.0415 4.9893 15.1466 6.00995 13.6168C6.24619 13.2628 6.67131 12.7105 6.70754 12.7105C6.72734 12.7105 7.1194 13.0846 7.57892 13.542L8.41435 14.3735L8.58617 14.3559C9.07002 14.3059 9.70376 13.7259 9.83858 13.2093C9.86224 13.1187 9.87256 13.0018 9.86171 12.9493C9.8473 12.8795 9.62004 12.6304 9.01299 12.0204C8.26121 11.2649 8.18832 11.182 8.22924 11.1323C8.37269 10.9578 9.24932 10.3187 9.8243 9.96944C11.2556 9.10012 13.1929 8.44569 14.6715 8.33204L14.9349 8.31192L14.9442 9.54366L14.9536 10.7749L15.0856 10.898C15.4648 11.2517 16.4966 11.2631 16.8957 10.9181L17.0213 10.8093L17.037 9.57314L17.0533 8.33697L17.3078 8.34163C17.6203 8.34824 18.371 8.47629 18.9457 8.62175C20.5961 9.03946 22.1509 9.81486 23.4763 10.8809C23.6435 11.0153 23.7806 11.1493 23.7806 11.1783C23.7806 11.2073 23.4118 11.5999 22.9614 12.0506L22.1422 12.8698L22.1442 13.0525C22.1497 13.5996 22.8936 14.3443 23.437 14.3472L23.6206 14.3491L24.4403 13.5299C24.8911 13.0794 25.2754 12.7107 25.2944 12.7107C25.3135 12.7107 25.4463 12.8677 25.5898 13.0598C26.6935 14.5363 27.4711 16.3275 27.7855 18.1182C27.8937 18.7348 27.955 19.3582 27.9125 19.4095C27.8823 19.4458 27.6818 19.4538 26.8009 19.4538H25.7257L25.6326 19.5321C25.4282 19.7041 25.2789 20.2471 25.323 20.659C25.3587 20.9929 25.4547 21.2571 25.5937 21.4063L25.7158 21.5372L26.7999 21.5466C27.874 21.5557 27.8834 21.5563 27.8834 21.6219C27.8834 21.7691 27.7785 22.3931 27.6757 22.8576C27.3435 24.358 26.664 25.8898 25.7847 27.1195C25.4123 27.6404 25.108 28.01 25.0522 28.01C25.0257 28.01 24.7041 27.7093 24.3369 27.3415C23.5838 26.5872 23.5562 26.5695 23.2666 26.6537C22.7495 26.8041 22.1842 27.428 22.1353 27.9022L22.1177 28.0711L23.3745 29.3526C24.9819 30.9915 25.0032 31.0117 25.0779 30.9717C25.1977 30.9076 25.9865 30.1571 26.3288 29.7818C27.2811 28.7376 27.9921 27.7057 28.6008 26.4834C30.1009 23.471 30.4646 20.0249 29.6302 16.7285C28.946 14.0259 27.4025 11.5164 25.2753 9.6482C22.711 7.39627 19.4234 6.15877 16.0067 6.15877L16.0066 6.15845ZM13.3477 11.9671C12.7887 11.971 12.1596 12.2919 11.9786 12.6657C11.9171 12.7928 11.9126 12.8271 11.9442 12.9325C11.9641 12.999 12.5386 14.489 13.2212 16.2437L14.4623 19.4338L14.3496 19.6628C13.9881 20.3943 14.1224 21.2177 14.6976 21.7929C15.2043 22.2996 15.9311 22.471 16.5954 22.24C16.7238 22.1953 16.9264 22.0919 17.0454 22.0106C17.9307 21.4056 18.1082 20.1558 17.4269 19.3241C17.2022 19.0496 16.9622 18.8887 16.495 18.6988C16.4231 18.6696 16.2766 18.3113 15.1628 15.4418C14.4745 13.6684 13.8916 12.1858 13.8676 12.1468C13.7865 12.0152 13.6416 11.9651 13.3477 11.9671L13.3477 11.9671Z" fill="#1971BD"/>
<path d="M6.51838 30.5677C5.97144 30.1019 4.87235 28.8123 4.31559 27.9831C3.35845 26.5576 2.56069 24.5871 2.19526 22.7458C1.93571 21.438 1.95873 18.8038 2.24128 17.4796C3.38432 12.1227 7.29563 7.99921 12.506 6.65795C16.4055 5.65415 20.4545 6.35267 23.8624 8.61708C24.8969 9.30453 26.6751 11.0258 27.3606 12.0034C30.0225 15.7994 30.7187 20.3872 29.285 24.686C28.6215 26.6756 27.5763 28.3809 26.0478 29.9679L25.075 30.9778L23.6339 29.5391C22.7907 28.6973 22.1928 28.024 22.1928 27.9162C22.1928 27.4591 22.9586 26.6879 23.4126 26.6879C23.5092 26.6879 23.91 26.9999 24.3033 27.3813C25.1376 28.1902 25.0695 28.2049 25.8712 27.0417C26.898 25.5519 27.6053 23.7617 27.8841 21.947L27.9476 21.5337H26.8232H25.6988L25.5399 21.2264C25.354 20.867 25.3848 19.8926 25.5898 19.6456C25.6927 19.5215 25.9331 19.4915 26.8241 19.4915H27.9305V19.1133C27.9305 18.131 27.3696 16.1298 26.7417 14.8722C26.4112 14.2101 25.4231 12.6841 25.3249 12.6841C25.2892 12.6841 24.8805 13.0619 24.4166 13.5237C23.6743 14.2625 23.5426 14.3555 23.3182 14.2992C22.9251 14.2005 22.3039 13.5874 22.2396 13.2345C22.1884 12.9534 22.2537 12.8529 23.0082 12.0523C23.9625 11.0396 23.9753 11.1517 22.8134 10.3485C21.3564 9.34129 19.2013 8.50319 17.6618 8.3451L17.0694 8.28426L17.0106 9.52733C16.9679 10.4328 16.9128 10.8095 16.8081 10.9142C16.5923 11.13 15.7862 11.1763 15.3584 10.9976L14.9965 10.8464V9.57717V8.30798L14.6318 8.31008C13.6826 8.31552 11.4186 9.02526 10.2375 9.68756C9.4987 10.1019 8.18911 11.0409 8.18911 11.1563C8.18911 11.2081 8.56337 11.6329 9.02079 12.1004C9.76969 12.8657 9.84572 12.9771 9.7847 13.2203C9.69697 13.5698 9.07268 14.1925 8.72166 14.2806C8.47323 14.343 8.37003 14.2716 7.59948 13.5046C7.10725 13.0147 6.7051 12.6883 6.64183 12.7274C6.47048 12.8333 5.62253 14.1281 5.27998 14.8069C4.65542 16.0446 3.87701 18.9141 4.04621 19.355C4.08675 19.4607 4.33934 19.4915 5.16442 19.4915C6.33869 19.4915 6.46819 19.5454 6.58627 20.083C6.62271 20.2489 6.62371 20.5769 6.58844 20.8118C6.49398 21.4418 6.30489 21.5337 5.10412 21.5337C3.94332 21.5337 3.99121 21.468 4.2514 22.7049C4.63134 24.5111 5.4962 26.316 6.71646 27.8495L6.90566 28.0873L7.68181 27.3876C8.12864 26.9848 8.54522 26.6879 8.66361 26.6879C8.92647 26.6879 9.58886 27.2833 9.74478 27.6597C9.85904 27.9356 9.84215 27.9743 9.37412 28.5096C9.10441 28.8181 8.45393 29.4946 7.92861 30.0129L6.97348 30.9553L6.51836 30.5677L6.51838 30.5677Z" fill="#1971BD"/>
</svg>
