<?xml version="1.0" encoding="utf-8"?>
<!-- Generator: Adobe Illustrator 23.0.1, SVG Export Plug-In . SVG Version: 6.00 Build 0)  -->
<svg version="1.1"
	 id="svg13826" inkscape:version="0.91 r13725" sodipodi:docname="sa.svg" xmlns:cc="http://creativecommons.org/ns#" xmlns:dc="http://purl.org/dc/elements/1.1/" xmlns:inkscape="http://www.inkscape.org/namespaces/inkscape" xmlns:rdf="http://www.w3.org/1999/02/22-rdf-syntax-ns#" xmlns:sodipodi="http://sodipodi.sourceforge.net/DTD/sodipodi-0.dtd" xmlns:svg="http://www.w3.org/2000/svg"
	 xmlns="http://www.w3.org/2000/svg" xmlns:xlink="http://www.w3.org/1999/xlink" x="0px" y="0px" viewBox="0 0 50 50"
	 style="enable-background:new 0 0 50 50;" xml:space="preserve">
<style type="text/css">
	.st0{fill:#0071BD;}
</style>
<sodipodi:namedview  bordercolor="#666666" borderopacity="1.0" fit-margin-bottom="0" fit-margin-left="0" fit-margin-right="0" fit-margin-top="0" id="base" inkscape:current-layer="layer1" inkscape:cx="-2.090004" inkscape:cy="33.752239" inkscape:document-units="mm" inkscape:pageopacity="0.0" inkscape:pageshadow="2" inkscape:window-height="775" inkscape:window-maximized="1" inkscape:window-width="1440" inkscape:window-x="0" inkscape:window-y="1" inkscape:zoom="8" pagecolor="#ffffff" showgrid="false">
	</sodipodi:namedview>
<g id="layer1" transform="translate(-0.99262638,-1.174181)" inkscape:groupmode="layer" inkscape:label="Calque 1">
	<path id="path7707" pointer-events="none" inkscape:connector-curvature="0" class="st0" d="M26,1.2L5.5,10.3v13.6
		c0,12.6,8.7,24.4,20.5,27.3c11.7-2.9,20.4-14.7,20.4-27.3V10.3L26,1.2z M26,10.8c2.6,0,5,1.6,6,4c1,2.4,0.5,5.3-1.4,7.1
		c-1.9,1.9-4.7,2.4-7.1,1.4c-2.4-1-4-3.4-4-6C19.5,13.7,22.4,10.8,26,10.8z M38.3,37.9c0,0.2,0,0.3-0.1,0.5
		c-0.1,0.2-0.3,0.5-0.5,0.7c-2.9,4-7,6.9-11.7,8.4c-4.7-1.5-8.8-4.4-11.7-8.4c-0.2-0.2-0.3-0.4-0.5-0.7c-0.1-0.1-0.1-0.3-0.1-0.5
		v-3.6c0-5,8.2-7.5,12.3-7.5c4.1,0,12.3,2.5,12.3,7.5L38.3,37.9z"/>
</g>
</svg>
