<svg width="32" height="32" viewBox="0 0 32 32" fill="none" xmlns="http://www.w3.org/2000/svg">
<g clip-path="url(#clip0)">
<path d="M17.769 11.4642H31.9997" stroke="#1971BD" stroke-width="0.79375" stroke-miterlimit="10" stroke-linejoin="round"/>
<path d="M9.64697 3.34154H32.0002" stroke="#1971BD" stroke-width="0.794" stroke-miterlimit="10" stroke-linejoin="round"/>
<path d="M-0.000244141 3.34154H5.59609" stroke="#1971BD" stroke-width="0.79375" stroke-miterlimit="10" stroke-linejoin="round"/>
<path fill-rule="evenodd" clip-rule="evenodd" d="M7.42383 12.7725C7.42383 8.29534 11.3039 4.66586 16.0901 4.66586C20.8764 4.66586 24.7564 8.29534 24.7564 12.7725H20.7031C20.7031 10.5339 18.6378 8.71919 16.0901 8.71919C13.5424 8.71919 11.4772 10.5339 11.4772 12.7725H7.42383Z" fill="#1971BD" stroke="white" stroke-width="0.264583" stroke-miterlimit="10" stroke-linecap="square"/>
<path d="M17.769 19.5869H31.9997" stroke="#1971BD" stroke-width="0.79375" stroke-miterlimit="10" stroke-linejoin="round"/>
<path d="M9.64697 27.7095H32.0002" stroke="#1971BD" stroke-width="0.79375" stroke-miterlimit="10" stroke-linejoin="round"/>
<path d="M-0.000244141 27.7095H5.59609" stroke="#1971BD" stroke-width="0.79375" stroke-miterlimit="10" stroke-linejoin="round"/>
<path fill-rule="evenodd" clip-rule="evenodd" d="M5.28955 12.5305H26.8433V26.5692H5.28955V12.5305Z" fill="#1971BD" stroke="white" stroke-width="0.264583" stroke-miterlimit="10" stroke-linecap="square"/>
<path d="M16.0669 21.6802C17.2435 21.6802 18.1973 20.7264 18.1973 19.5498C18.1973 18.3733 17.2435 17.4195 16.0669 17.4195C14.8903 17.4195 13.9365 18.3733 13.9365 19.5498C13.9365 20.7264 14.8903 21.6802 16.0669 21.6802Z" fill="white"/>
</g>
<defs>
<clipPath id="clip0">
<rect width="32" height="32" fill="white"/>
</clipPath>
</defs>
</svg>
