<svg width="32" height="32" viewBox="0 0 32 32" fill="none" xmlns="http://www.w3.org/2000/svg">
<path d="M16.0028 0.856232L4.00049 6.19004V14.1932C4.00049 21.5914 9.12307 28.5143 16.0028 30.1946C22.8825 28.5143 28.0002 21.5914 28.0002 14.1932V6.19004L16.0028 0.856232ZM16.0028 6.50691C17.5535 6.50691 18.9553 7.44309 19.5458 8.87856C20.1411 10.314 19.8147 11.9655 18.7153 13.065C17.6159 14.1596 15.9644 14.4908 14.5289 13.8955C13.0982 13.3002 12.162 11.9031 12.162 10.3476C12.162 8.22564 13.8808 6.50691 16.0028 6.50691ZM23.1993 22.3883C23.1993 22.4843 23.1705 22.5756 23.1177 22.6572C23.0313 22.7867 22.9449 22.9212 22.8488 23.046C21.1541 25.3793 18.7537 27.1028 16.0027 27.9574C13.247 27.1028 10.8465 25.3793 9.15183 23.046C9.05585 22.9212 8.9694 22.7868 8.88298 22.6572C8.83018 22.5755 8.80131 22.4844 8.80131 22.3883V20.2567C8.80131 17.3138 13.6022 15.8303 16.0027 15.8303C18.4031 15.8303 23.1993 17.3138 23.1993 20.2567L23.1993 22.3883Z" fill="#1971BD"/>
</svg>
