<?xml version="1.0" encoding="utf-8"?>
<!-- Generator: Adobe Illustrator 23.0.1, SVG Export Plug-In . SVG Version: 6.00 Build 0)  -->
<svg version="1.1"
	 id="svg13826" inkscape:version="0.91 r13725" sodipodi:docname="vol.svg" xmlns:cc="http://creativecommons.org/ns#" xmlns:dc="http://purl.org/dc/elements/1.1/" xmlns:inkscape="http://www.inkscape.org/namespaces/inkscape" xmlns:rdf="http://www.w3.org/1999/02/22-rdf-syntax-ns#" xmlns:sodipodi="http://sodipodi.sourceforge.net/DTD/sodipodi-0.dtd" xmlns:svg="http://www.w3.org/2000/svg"
	 xmlns="http://www.w3.org/2000/svg" xmlns:xlink="http://www.w3.org/1999/xlink" x="0px" y="0px" viewBox="0 0 50 50"
	 style="enable-background:new 0 0 50 50;" xml:space="preserve">
<style type="text/css">
	.st0{fill-rule:evenodd;clip-rule:evenodd;fill:#0071BD;}
	.st1{fill:none;stroke:#FFFFFF;stroke-width:0.4989;stroke-linejoin:round;stroke-miterlimit:10;}
</style>
<sodipodi:namedview  bordercolor="#666666" borderopacity="1.0" fit-margin-bottom="0" fit-margin-left="0" fit-margin-right="0" fit-margin-top="0" id="base" inkscape:current-layer="layer1" inkscape:cx="-2.090004" inkscape:cy="33.752239" inkscape:document-units="mm" inkscape:pageopacity="0.0" inkscape:pageshadow="2" inkscape:window-height="775" inkscape:window-maximized="1" inkscape:window-width="1440" inkscape:window-x="0" inkscape:window-y="1" inkscape:zoom="8" pagecolor="#ffffff" showgrid="false">
	</sodipodi:namedview>
<g id="layer1" transform="translate(-0.99262638,-1.174181)" inkscape:groupmode="layer" inkscape:label="Calque 1">
	<g id="g3341" transform="translate(-0.18983289,0.21036696)">
		<path id="path1142" inkscape:connector-curvature="0" class="st0" d="M1.4,17.9L1.4,17.9c0,3.3,11.1,6,24.7,6s24.7-2.7,24.7-6
			v16.3c0,3.3-11.1,6-24.7,6s-24.7-2.7-24.7-6L1.4,17.9z"/>
		<path id="path1144" inkscape:connector-curvature="0" class="st0" d="M1.4,17.9L1.4,17.9c0-3.3,11.1-6,24.7-6s24.7,2.7,24.7,6l0,0
			c0,3.3-11.1,6-24.7,6S1.4,21.2,1.4,17.9z"/>
		<path id="path1148" inkscape:connector-curvature="0" class="st1" d="M50.9,17.9L50.9,17.9c0,3.3-11.1,6-24.7,6s-24.7-2.7-24.7-6
			l0,0c0-3.3,11.1-6,24.7-6S50.9,14.6,50.9,17.9v16.3c0,3.3-11.1,6-24.7,6s-24.7-2.7-24.7-6V17.9"/>
	</g>
</g>
</svg>
