<svg xmlns="http://www.w3.org/2000/svg" width="15.618" height="15.618" viewBox="0 0 15.618 15.618">
  <g id="vaultpolicies" transform="translate(-587.778 -567.086)">
    <path id="Subtraction_18" data-name="Subtraction 18" d="M6.976,14v0L0,0H14L10.935,6.11c-.142.021-.287.056-.427.09-.1.023-.191.046-.286.065v.01l-.169,0s-.338-.008-.706-.008c-.291,0-.5,0-.65.014A1.08,1.08,0,0,0,7.673,7.4V12.61L6.977,14ZM6.594,6.462v.812h.821V6.462ZM5.377,5.245v.821h.813V5.245Zm2.438,0v.806l.812.005V5.245Zm-1.22,0v.812h.821V5.245ZM5.377,4.028v.821h.813V4.028Zm1.218,0v.812h.821V4.028Zm1.22-.005-.009.812h.821V4.022ZM5.377,2.811v.821h.813V2.811H5.377Zm2.429,0v.806h.812V2.811H7.806Zm-1.211,0v.806h.821V2.811H6.594Z" transform="translate(588.586 567.586)" fill="#0071bd" stroke="rgba(0,0,0,0)" stroke-width="1"/>
    <g id="Group_9366" data-name="Group 9366" transform="translate(-3878.772 -2503.12)">
      <path id="Subtraction_17" data-name="Subtraction 17" d="M2.624,7.005.913,7A.886.886,0,0,1,0,6.093V.919A.868.868,0,0,1,.824.012C.943,0,1.116,0,1.339,0c.292,0,.573.007.576.007L3.534.036s.313-.015.644-.015a5.15,5.15,0,0,1,.594.026.816.816,0,0,1,.675.848c.007,2.085.006,3.694,0,5.218A.874.874,0,0,1,4.536,7C3.914,7,3.271,7.005,2.624,7.005ZM.925,4.85v.3h3.6v-.3ZM.938,3.338c-.032.169-.047.252-.013.293s.1.04.25.04H4.271c.053,0,.107,0,.164-.007l.105-.006c0-.064-.005-.12-.008-.174l-.006-.145H.938Zm.24-1.488c-.141,0-.212,0-.245.037s-.025.119-.006.28h3.6V1.851H1.178Z" transform="translate(4475.615 3077.701)" fill="#0071bd" stroke="rgba(0,0,0,0)" stroke-width="1"/>
      <path id="Path_21120" data-name="Path 21120" d="M4523.911,3077.73v.6h-1.333v-.627a4.307,4.307,0,0,1,.755-.141A2.1,2.1,0,0,1,4523.911,3077.73Z" transform="translate(-44.912 0)" fill="#0071bd"/>
    </g>
  </g>
</svg>
