<svg width="32" height="32" viewBox="0 0 32 32" fill="none" xmlns="http://www.w3.org/2000/svg">
<g clip-path="url(#clip0)">
<path d="M16 32L0 0H32L25.0057 13.9657C24.6629 13.9657 24.3429 14.1029 24.0229 14.1714L23.36 14.3314H19.8857C19.2492 14.3839 18.6571 14.6787 18.2318 15.1551C17.8064 15.6315 17.5803 16.2531 17.6 16.8914V28.8L16 32ZM15.0629 14.7657V16.6171H16.9371V14.7657H15.0629ZM12.2971 11.9771V13.8743H14.1486V11.9771H12.2971ZM17.8514 11.9771V13.8286H19.7257V11.9771H17.8514ZM15.0629 11.9771V13.8514H16.96V11.9771H15.0629ZM12.2971 9.14286V11.0171H14.1486V9.14286H12.2971ZM15.0629 9.14286V10.9943H16.96V9.14286H15.0629ZM17.8514 9.14286V10.9943H19.7257V9.14286H17.8514ZM12.2971 6.42286V8.29714H14.1486V6.42286H12.2971ZM17.8514 6.42286V8.27429H19.7029V6.42286H17.8514ZM15.0629 6.42286V8.27429H16.96V6.42286H15.0629Z" fill="#1971BD"/>
<path d="M25.1429 32H20.96C20.6939 32.0092 20.4287 31.9654 20.1797 31.8713C19.9307 31.7771 19.7028 31.6345 19.5094 31.4517C19.3159 31.2688 19.1606 31.0494 19.0526 30.8061C18.9446 30.5628 18.8859 30.3005 18.88 30.0343V18.08C18.8646 17.82 18.901 17.5594 18.9872 17.3136C19.0734 17.0677 19.2076 16.8414 19.382 16.6479C19.5564 16.4544 19.7675 16.2974 20.0031 16.1862C20.2387 16.075 20.494 16.0117 20.7543 16H23.5657H24.0686C24.4632 15.8853 24.8696 15.8163 25.28 15.7943C25.5896 15.8093 25.8929 15.887 26.1714 16.0229L26.6057 16.1829H28.4114C28.8408 16.0907 29.2762 16.0296 29.7143 16C30.1662 16.0777 30.5739 16.3183 30.8603 16.6764C31.1467 17.0344 31.292 17.485 31.2686 17.9429C31.2686 22.5143 31.2686 26.3086 31.2686 29.8743C31.2747 30.4039 31.0718 30.9145 30.7037 31.2954C30.3357 31.6763 29.8323 31.8966 29.3029 31.9086H25.1429V32ZM23.8629 24.96L22.6286 25.6C22.5847 25.6185 22.5455 25.6466 22.5139 25.6822C22.4823 25.7178 22.459 25.76 22.4457 25.8057L21.6457 27.5886C21.6228 27.6381 21.61 27.6916 21.6079 27.7461C21.6059 27.8005 21.6147 27.8549 21.6338 27.9059C21.653 27.9569 21.6821 28.0037 21.7194 28.0434C21.7568 28.0831 21.8016 28.115 21.8514 28.1372H28.2743C28.3834 28.1372 28.488 28.0938 28.5652 28.0167C28.6424 27.9395 28.6857 27.8349 28.6857 27.7257C28.6932 27.6727 28.6932 27.6188 28.6857 27.5657L27.8857 25.7829C27.8725 25.7371 27.8492 25.6949 27.8175 25.6594C27.7859 25.6238 27.7467 25.5957 27.7029 25.5772L26.4686 24.9372C26.1338 25.1722 25.7347 25.2984 25.3257 25.2984C24.9167 25.2984 24.5176 25.1722 24.1829 24.9372L23.8629 24.96ZM25.1429 21.1657C24.0914 21.1657 23.5429 21.7829 23.5429 23.0172C23.5173 23.473 23.6699 23.921 23.9685 24.2664C24.267 24.6119 24.6881 24.8278 25.1429 24.8686C25.5999 24.8335 26.0245 24.6192 26.3242 24.2724C26.6239 23.9256 26.7744 23.4744 26.7429 23.0172C26.6514 21.7829 26.1029 21.1657 25.1429 21.1657Z" fill="#1971BD"/>
</g>
<defs>
<clipPath id="clip0">
<rect width="32" height="32" fill="white"/>
</clipPath>
</defs>
</svg>
