<svg xmlns="http://www.w3.org/2000/svg" width="15.618" height="15.618" viewBox="0 0 15.618 15.618">
  <g id="vaultpolicybindings" transform="translate(-562.778 -567.086)">
    <path id="Subtraction_20" data-name="Subtraction 20" d="M6.976,14v0L0,0H14L10.935,6.11c-.142.021-.287.056-.427.09-.1.023-.191.046-.286.065v.01l-.169,0s-.338-.008-.706-.008c-.291,0-.5,0-.65.014A1.08,1.08,0,0,0,7.673,7.4V12.61L6.977,14ZM6.594,6.462v.812h.821V6.462ZM5.377,5.245v.821h.813V5.245Zm2.438,0v.806l.812.005V5.245Zm-1.22,0v.812h.821V5.245ZM5.377,4.028v.821h.813V4.028Zm1.218,0v.812h.821V4.028Zm1.22-.005-.009.812h.821V4.022ZM5.377,2.811v.821h.813V2.811H5.377Zm2.429,0v.806h.812V2.811H7.806Zm-1.211,0v.806h.821V2.811H6.594Z" transform="translate(563.586 567.586)" fill="#0071bd" stroke="rgba(0,0,0,0)" stroke-width="1"/>
    <path id="Subtraction_21" data-name="Subtraction 21" d="M2.724,7.144l-1.811,0A.886.886,0,0,1,0,6.231V1.058A.87.87,0,0,1,.824.15c.118-.008.292-.011.515-.011.3,0,.573.007.576.007l.136,0V.141c.074-.015.15-.034.223-.052A2.461,2.461,0,0,1,2.805,0,1.1,1.1,0,0,1,3.19.1c.062.024.127.049.194.07l.15.006c.013,0,.317-.015.641-.015a5.032,5.032,0,0,1,.6.027.815.815,0,0,1,.676.848c.007,2,.007,3.66,0,5.218a.876.876,0,0,1-.911.889ZM2.162,4.06a.035.035,0,0,0-.016,0L1.6,4.347a.175.175,0,0,0-.079.084l-.349.787a.175.175,0,0,0,.159.247H4.075a.176.176,0,0,0,.16-.247l-.35-.787a.174.174,0,0,0-.078-.084l-.543-.283a.039.039,0,0,0-.017,0,.034.034,0,0,0-.021.007.857.857,0,0,1-1.044,0A.034.034,0,0,0,2.162,4.06ZM2.7,2.4c-.46,0-.693.273-.693.811a.76.76,0,0,0,.693.812A.76.76,0,0,0,3.4,3.213C3.4,2.675,3.164,2.4,2.7,2.4Z" transform="translate(571.843 574.442)" fill="#0071bd"/>
  </g>
</svg>
