<svg width="32" height="32" viewBox="0 0 32 32" fill="none" xmlns="http://www.w3.org/2000/svg">
<g clip-path="url(#clip0)">
<path d="M16 32L0 0H32L25.0057 13.9657C24.6629 13.9657 24.3429 14.1029 24.0229 14.1714L23.36 14.3314H19.8857C19.2492 14.3839 18.6571 14.6787 18.2318 15.1551C17.8064 15.6315 17.5803 16.2531 17.6 16.8914V28.8L16 32ZM15.0629 14.7657V16.6171H16.9371V14.7657H15.0629ZM12.2971 11.9771V13.8743H14.1486V11.9771H12.2971ZM17.8514 11.9771V13.8286H19.7257V11.9771H17.8514ZM15.0629 11.9771V13.8514H16.96V11.9771H15.0629ZM12.2971 9.14286V11.0171H14.1486V9.14286H12.2971ZM15.0629 9.14286V10.9943H16.96V9.14286H15.0629ZM17.8514 9.14286V10.9943H19.7257V9.14286H17.8514ZM12.2971 6.42286V8.29714H14.1486V6.42286H12.2971ZM17.8514 6.42286V8.27429H19.7029V6.42286H17.8514ZM15.0629 6.42286V8.27429H16.96V6.42286H15.0629Z" fill="#1971BD"/>
<path d="M24.8686 31.9999H20.96C20.6951 32.0122 20.4304 31.9713 20.1815 31.8798C19.9326 31.7882 19.7045 31.6477 19.5107 31.4667C19.3169 31.2857 19.1612 31.0677 19.0529 30.8256C18.9446 30.5835 18.8858 30.3222 18.88 30.0571V18.0799C18.8646 17.8199 18.901 17.5593 18.9872 17.3135C19.0734 17.0676 19.2076 16.8413 19.382 16.6478C19.5564 16.4543 19.7675 16.2973 20.0031 16.1861C20.2387 16.0749 20.494 16.0116 20.7543 15.9999C21.15 15.9716 21.5472 15.9716 21.9429 15.9999H23.2457H26.9486H28.4343C28.8604 15.9694 29.2882 15.9694 29.7143 15.9999C30.1642 16.0779 30.5694 16.3194 30.8521 16.678C31.1348 17.0367 31.275 17.4871 31.2457 17.9428C31.2457 22.6971 31.2457 26.3771 31.2457 29.8742C31.2518 30.1373 31.2056 30.3989 31.1098 30.644C31.014 30.889 30.8705 31.1127 30.6877 31.3019C30.5049 31.4911 30.2863 31.6422 30.0446 31.7463C29.803 31.8504 29.5431 31.9056 29.28 31.9085H24.7086L24.8686 31.9999ZM20.9829 27.0628V27.7485H29.2114V27.0628H20.9829ZM20.9829 23.6114C20.9829 23.9999 20.9829 24.1828 20.9829 24.2971C20.9829 24.4114 21.2114 24.2971 21.5543 24.2971H29.2571C29.2571 24.1599 29.2571 24.0228 29.2571 23.9085V23.5657L20.9829 23.6114ZM21.5314 20.2057C21.1886 20.2057 21.0286 20.2057 20.96 20.2057C20.8914 20.2057 20.96 20.4799 20.96 20.8457H29.1886V20.2285H21.5771L21.5314 20.2057Z" fill="#1971BD"/>
<path d="M26.6057 15.9999V17.3714H23.5657V15.9999C24.1256 15.8389 24.6997 15.7317 25.28 15.6799C25.7359 15.7169 26.1832 15.8248 26.6057 15.9999Z" fill="#1971BD"/>
</g>
<defs>
<clipPath id="clip0">
<rect width="32" height="32" fill="white"/>
</clipPath>
</defs>
</svg>
