<?xml version="1.0" encoding="utf-8"?>
<!-- Generator: Adobe Illustrator 23.0.1, SVG Export Plug-In . SVG Version: 6.00 Build 0)  -->
<svg version="1.1"
	 id="svg13826" inkscape:version="0.91 r13725" sodipodi:docname="netpol.svg" xmlns:cc="http://creativecommons.org/ns#" xmlns:dc="http://purl.org/dc/elements/1.1/" xmlns:inkscape="http://www.inkscape.org/namespaces/inkscape" xmlns:rdf="http://www.w3.org/1999/02/22-rdf-syntax-ns#" xmlns:sodipodi="http://sodipodi.sourceforge.net/DTD/sodipodi-0.dtd" xmlns:svg="http://www.w3.org/2000/svg"
	 xmlns="http://www.w3.org/2000/svg" xmlns:xlink="http://www.w3.org/1999/xlink" x="0px" y="0px" viewBox="0 0 50 50"
	 style="enable-background:new 0 0 50 50;" xml:space="preserve">
<style type="text/css">
	.st0{fill:#0071BD;}
</style>
<sodipodi:namedview  bordercolor="#666666" borderopacity="1.0" fit-margin-bottom="0" fit-margin-left="0" fit-margin-right="0" fit-margin-top="0" id="base" inkscape:current-layer="layer1" inkscape:cx="-2.090004" inkscape:cy="23.752239" inkscape:document-units="mm" inkscape:pageopacity="0.0" inkscape:pageshadow="2" inkscape:window-height="775" inkscape:window-maximized="1" inkscape:window-width="1440" inkscape:window-x="0" inkscape:window-y="1" inkscape:zoom="8" pagecolor="#ffffff" showgrid="false">
	</sodipodi:namedview>
<g id="layer1" transform="translate(-0.99262638,-1.174181)" inkscape:groupmode="layer" inkscape:label="Calque 1">
	
		<path id="path7594" inkscape:connector-curvature="0" sodipodi:nodetypes="ssscscsscsccccccccccccccccsscsssssscssssccss" class="st0" d="
		M23.2,1.9C11,1.9,1,11.9,1,24.1s10,22.2,22.2,22.2c2.8,0,5.4-0.5,7.8-1.4v-5.2c0-1.8,1.5-4.8,3.2-4.8v-4.9c0-2.4,3.6-6.6,8.1-6.6
		c1.1,0,2.1,0.2,3.1,0.6C45.4,11.9,35.5,1.9,23.2,1.9L23.2,1.9z M27.7,9.7l7.8,7.8h-5.6v8.9h-4.4v-8.9h-5.6L27.7,9.7z M16.6,21.9H21
		v8.9h5.6l-7.8,7.8L11,30.8h5.6L16.6,21.9z M42.9,27.4c-3.2,0-5.8,2.6-5.8,5.8v3.4c-1.3,0-2.3,1-2.3,2.3v9.2c0,1.3,1,2.3,2.3,2.3
		h11.5c1.3,0,2.3-1,2.3-2.3v-9.2c0-1.3-1-2.3-2.3-2.3v-3.4C48.7,30,46.1,27.4,42.9,27.4z M42.9,29.7c1.9,0,3.4,1.5,3.4,3.5v3.4h-6.9
		v-3.4C39.5,31.3,41,29.7,42.9,29.7z"/>
</g>
</svg>
