<svg width="32" height="32" viewBox="0 0 32 32" fill="none" xmlns="http://www.w3.org/2000/svg">
<g clip-path="url(#clip0)">
<path d="M14.231 -0.00193208C6.37562 -0.00193208 0.000244141 6.37345 0.000244141 14.2288C0.000244141 22.0842 6.37562 28.4596 14.231 28.4596C15.9926 28.4596 17.6737 28.1256 19.2312 27.5396V24.1876C19.2312 23.047 20.1641 21.1294 21.3047 21.1294V18.0192C21.3047 16.4597 23.6293 13.8202 26.4911 13.8202C27.1902 13.8202 27.853 13.961 28.4617 14.2121C28.4526 6.36449 22.0808 -0.00195312 14.231 -0.00195312V-0.00193208ZM17.0771 4.97883L22.0579 9.95959H18.5002V15.6519H15.6541V9.95959H12.0964L17.0771 4.97883ZM9.96178 12.8057H12.8079V18.498H16.3656L11.3849 23.4788L6.4041 18.498H9.96179L9.96178 12.8057ZM26.8497 16.3356C24.8186 16.3356 23.1697 17.9845 23.1697 20.0156V22.2225C22.3602 22.2225 21.6994 22.8833 21.6994 23.6928V29.5825C21.6994 30.392 22.3602 31.0528 23.1697 31.0528H30.5297C31.3391 31.0528 32 30.392 32 29.5825V23.6928C32 22.8833 31.3391 22.2225 30.5297 22.2225V20.0156C30.5297 17.9845 28.8808 16.3356 26.8497 16.3356ZM26.8497 17.806C28.0713 17.806 29.0566 18.794 29.0566 20.0156V22.2225H24.6428V20.0156C24.6428 18.794 25.6281 17.806 26.8497 17.806Z" fill="#1971BD"/>
</g>
<defs>
<clipPath id="clip0">
<rect width="32" height="32" fill="white"/>
</clipPath>
</defs>
</svg>
