<svg width="32" height="32" viewBox="0 0 32 32" fill="none" xmlns="http://www.w3.org/2000/svg">
<path d="M9.88429 27.8075C10.0496 27.9418 10.2247 28.0636 10.4081 28.1719C10.8007 28.2974 11.2226 28.2974 11.6152 28.1719C12.3181 28.0724 12.9717 27.7536 13.4827 27.2609C13.4827 27.2609 13.4827 27.2609 13.4827 27.2609H13.05C12.6481 27.4062 12.2247 27.4832 11.7974 27.4886C11.4502 27.4981 11.1071 27.4117 10.8057 27.2389C10.5044 27.0661 10.2565 26.8137 10.0893 26.5093L9.92984 26.236L9.77041 26.4637C9.15255 27.3521 8.38133 28.1234 7.49293 28.7412L6.80968 28.8779C6.78097 28.902 6.74468 28.9152 6.7072 28.9152C6.66971 28.9152 6.63342 28.902 6.60471 28.8779C6.01229 28.4615 5.44919 28.0049 4.91937 27.5114C4.15666 26.8209 3.46259 26.0582 2.84686 25.2339C2.41674 24.6233 2.02868 23.9841 1.68534 23.3208C1.29133 22.5085 0.971196 21.6624 0.728796 20.7928C0.576963 20.2462 0.440314 19.6996 0.318848 19.153C0.136744 18.4064 0.0299276 17.6434 0 16.8755C0 16.2834 0 15.6685 0 15.0535C0.0153647 14.6418 0.0533803 14.2312 0.113874 13.8237C0.138878 13.5173 0.184531 13.2129 0.250523 12.9127C0.250523 12.48 0.432722 12.0473 0.546597 11.6145C0.660471 11.1818 0.865445 10.5441 1.07042 10.0203C1.61627 8.57374 2.38469 7.22132 3.3479 6.01191C4.42348 4.66301 5.70742 3.49439 7.15131 2.55014C8.15855 1.90791 9.22652 1.3663 10.3398 0.93312C10.3779 0.911132 10.4211 0.899556 10.465 0.899556C10.509 0.899556 10.5522 0.911132 10.5903 0.93312C11.2902 1.45072 11.8984 2.08198 12.3895 2.80066C12.4454 2.86149 12.4915 2.93064 12.5262 3.00563C11.7286 3.27414 10.9644 3.6333 10.2487 4.07605L10.7042 3.9394C11.1597 3.82553 11.5924 3.68888 12.0479 3.62055C12.5761 3.54589 13.1087 3.50784 13.6421 3.50668C14.029 3.48402 14.4168 3.48402 14.8037 3.50668C15.24 3.54837 15.6689 3.64793 16.079 3.80275C16.8118 4.05507 17.4914 4.44119 18.0832 4.9415L19.3131 6.08024L19.4725 6.23966C19.6206 5.71857 19.6206 5.16651 19.4725 4.64542L19.928 4.89595C20.4268 5.24718 20.8717 5.66914 21.2489 6.14856C21.8843 6.9139 22.4341 7.74632 22.8887 8.63102L23.162 9.29149C23.3991 8.96791 23.5628 8.59646 23.6414 8.20308C23.7201 7.80971 23.712 7.4039 23.6175 7.01401H23.7997C24.2466 7.37636 24.605 7.83594 24.8474 8.35772C25.0232 8.7177 25.146 9.10127 25.2118 9.49647C25.3144 10.0229 25.3144 10.5642 25.2118 11.0907L25.0296 11.9562C24.8206 11.3966 24.5119 10.8797 24.1186 10.4302L23.777 10.1114V10.2253C24.053 10.8596 24.2518 11.5249 24.3691 12.2067C24.5013 12.9592 24.5774 13.7204 24.5968 14.4842C24.6163 15.3133 24.5782 16.1428 24.483 16.9666C24.483 17.4525 24.4146 17.9308 24.278 18.4014C24.1361 19.1838 23.9069 19.9477 23.5948 20.6789C23.4581 20.975 23.2987 21.2483 23.162 21.5216L23.4353 22.0454C23.5499 22.3774 23.5499 22.7383 23.4353 23.0703C23.3407 23.4932 23.1274 23.8803 22.8204 24.1863C22.6755 24.355 22.4978 24.4924 22.2982 24.5903C22.0985 24.6882 21.881 24.7444 21.6589 24.7556C21.3751 24.7274 21.1059 24.6165 20.8845 24.4368C20.2735 23.996 19.5863 23.6717 18.8576 23.4802C18.4891 23.3677 18.1035 23.3214 17.7188 23.3436V23.3436L18.1288 23.503C18.7428 23.7531 19.3367 24.0501 19.9052 24.3912C20.0875 24.5042 20.2184 24.684 20.2696 24.8923C20.2831 24.9506 20.285 25.011 20.2751 25.0701C20.2653 25.1291 20.2438 25.1856 20.2121 25.2364C20.1804 25.2872 20.139 25.3312 20.0902 25.3659C20.0415 25.4007 19.9863 25.4254 19.928 25.4389C19.6517 25.4902 19.3662 25.4331 19.1309 25.2794L18.4476 24.824L18.7209 25.1883C19.0999 25.6607 19.3649 26.214 19.4953 26.8054C19.6122 27.2254 19.5937 27.6716 19.4424 28.0804C19.2912 28.4893 19.0148 28.8401 18.6526 29.0828H18.4932L18.6071 28.8323C18.7057 28.5471 18.7054 28.2369 18.6062 27.9518C18.5071 27.6667 18.3148 27.4233 18.0605 27.2609L17.6505 26.9648C17.9759 27.4553 18.1282 28.0404 18.0832 28.6274C17.9947 29.2013 17.7593 29.7426 17.4 30.1988H17.6505C18.3232 30.0839 18.9614 29.8192 19.5181 29.4245C20.0057 29.0732 20.3464 28.5541 20.4746 27.9669C20.5544 27.5838 20.5544 27.1884 20.4746 26.8054V26.8054C20.4746 26.8054 20.4746 26.6232 20.4746 26.5548C20.4746 26.4865 20.6112 26.5548 20.6796 26.441C20.8391 26.3742 20.9791 26.2682 21.0866 26.1329C21.1941 25.9975 21.2656 25.8371 21.2945 25.6666C21.2945 25.6666 21.2945 25.6666 21.4311 25.6666H21.955C22.4212 25.6877 22.8837 25.5744 23.2875 25.3402C23.6912 25.106 24.0192 24.7608 24.2324 24.3457C24.4914 23.9195 24.6328 23.4323 24.6424 22.9336C24.6698 22.5396 24.6155 22.1442 24.483 21.7721C24.4723 21.7272 24.4723 21.6804 24.483 21.6355C24.8655 20.9686 25.1421 20.2464 25.3029 19.4946C25.4167 19.0619 25.4851 18.6064 25.5762 18.1737C25.7427 17.1502 25.7962 16.1115 25.7356 15.0763C25.7063 14.6334 25.6531 14.1925 25.5762 13.7554C25.5641 13.7305 25.5578 13.7033 25.5578 13.6757C25.5578 13.648 25.5641 13.6208 25.5762 13.5959C25.8315 13.1249 26.0376 12.6289 26.1911 12.1156C26.3952 11.4294 26.4648 10.7101 26.3961 9.99751C26.2869 8.74335 25.6899 7.5821 24.7335 6.76348C24.2352 6.34447 23.6742 6.00631 23.0709 5.76139C23.1957 6.2238 23.1957 6.71102 23.0709 7.17343C22.5814 6.15735 21.901 5.24495 21.0667 4.486C20.3077 3.73662 19.3999 3.15473 18.4021 2.77788C18.6525 3.1363 18.7657 3.5728 18.7209 4.00773L18.1971 3.73443C17.5176 3.24724 16.7406 2.91313 15.9196 2.75511C15.3004 2.66412 14.6713 2.66412 14.0521 2.75511C13.9627 2.76423 13.8728 2.74195 13.798 2.69208C13.7232 2.64222 13.6681 2.56787 13.6421 2.48181C13.2912 1.99011 12.8947 1.53258 12.4578 1.11532L11.9568 0.591497C14.2679 -0.0688163 16.7016 -0.178022 19.0626 0.272649C21.118 0.672617 23.0713 1.48406 24.8052 2.65821C26.539 3.83236 28.0175 5.34497 29.1518 7.10511C31.1768 10.0888 32.1303 13.6709 31.8569 17.2665C31.5834 20.8621 30.0991 24.2588 27.6462 26.902C25.1933 29.5452 21.9168 31.2788 18.3516 31.8196C14.7864 32.3605 11.1432 31.6767 8.01675 29.88C8.74001 29.287 9.36962 28.5883 9.88429 27.8075V27.8075ZM15.4186 4.1216C14.5936 4.35201 13.8204 4.73858 13.1411 5.26034C12.2131 5.94316 11.5783 6.95228 11.3647 8.08443C11.194 8.75702 11.194 9.46157 11.3647 10.1342C11.5888 10.8794 12.0238 11.5438 12.6173 12.0473C13.2544 12.6207 14.0467 12.993 14.8948 13.1177C15.3332 13.1747 15.7772 13.1747 16.2157 13.1177C16.676 13.0876 17.1291 12.9878 17.5594 12.8216C17.9778 12.6833 18.3562 12.4452 18.6618 12.1277C18.9674 11.8102 19.1909 11.423 19.3131 10.9996C19.4836 10.5287 19.4836 10.0129 19.3131 9.54202C19.1919 9.28559 18.9973 9.07085 18.7541 8.92492C18.5109 8.77899 18.2299 8.70842 17.9466 8.72212C17.6158 8.75889 17.297 8.86773 17.0128 9.04097L16.4434 9.35982H17.2633C17.6099 9.3563 17.9445 9.48686 18.1971 9.72422C18.3884 9.9369 18.5189 10.1971 18.575 10.4776C18.6311 10.7581 18.6107 11.0486 18.516 11.3185C18.4196 11.7315 18.1769 12.0956 17.8327 12.3433C17.4081 12.6528 16.9002 12.8273 16.3751 12.8444C15.8014 12.9091 15.2216 12.7979 14.7126 12.5255C14.1158 12.2133 13.6187 11.7398 13.2777 11.159C12.9169 10.577 12.684 9.92488 12.5945 9.24594C12.4925 8.65819 12.4925 8.05726 12.5945 7.4695C12.801 6.59687 13.2605 5.8046 13.9154 5.19202L14.5759 4.64542C14.2154 5.0967 13.9474 5.6146 13.7872 6.16951C13.627 6.72443 13.5777 7.30548 13.6421 7.87945C13.6072 8.27569 13.6697 8.67447 13.8243 9.04097C13.9913 9.32755 14.2261 9.56878 14.508 9.7435C14.7899 9.91821 15.1104 10.0211 15.4414 10.0431C15.8714 10.1112 16.3095 10.1112 16.7395 10.0431H16.5345C16.11 10.0089 15.7035 9.85627 15.3613 9.60264C15.0191 9.34901 14.7549 9.00451 14.5987 8.60825C14.3424 8.02938 14.2556 7.38972 14.3482 6.76348C14.3834 5.95619 14.6266 5.17169 15.0542 4.486C15.0542 4.32657 15.3047 4.16715 15.4186 3.98495V4.1216ZM13.6421 25.9399C13.932 25.9996 14.2045 26.1242 14.4393 26.3043C14.6387 26.43 14.8022 26.6051 14.9139 26.8126C15.0257 27.0201 15.0818 27.253 15.077 27.4886C15.0455 27.8982 14.9039 28.2917 14.667 28.6274C14.3149 29.1085 13.8743 29.5182 13.3688 29.8344V29.8344L14.5304 29.9938C15.1062 30.046 15.6866 29.9841 16.2385 29.8116C16.7446 29.6531 17.1796 29.3228 17.4683 28.8779L17.6733 28.4224C17.4192 28.77 17.0717 29.0385 16.6712 29.1967C16.4656 29.2637 16.2485 29.2881 16.0332 29.2685C15.8178 29.249 15.6087 29.1858 15.4186 29.0828L15.9196 28.8096C16.1419 28.5684 16.2984 28.2742 16.3742 27.9551C16.4499 27.6361 16.4424 27.3029 16.3523 26.9876C16.2866 26.7773 16.1749 26.5844 16.0251 26.4229C15.8754 26.2613 15.6915 26.1353 15.4869 26.0538C14.8982 25.8275 14.2542 25.7878 13.6421 25.9399V25.9399ZM5.37487 17.6954C5.10157 17.9687 4.78272 18.242 4.50942 18.5609C4.01579 19.0741 3.6901 19.7255 3.57565 20.4284C3.51885 20.8059 3.51885 21.1897 3.57565 21.5671C3.67021 22.0427 3.86424 22.4928 4.14502 22.8881C4.3696 23.2327 4.66404 23.5263 5.00928 23.75C5.35453 23.9736 5.74288 24.1222 6.14921 24.1863C6.30684 24.2201 6.46986 24.2201 6.62748 24.1863C6.07674 23.8825 5.61986 23.4335 5.30654 22.8881C4.98084 22.3072 4.78649 21.6619 4.73717 20.9978C4.63445 20.3489 4.63445 19.688 4.73717 19.0391C4.82935 18.5562 5.00672 18.0935 5.26099 17.6726L5.37487 17.6954ZM10.8636 15.6001H10.7042C10.2957 15.4005 9.94934 15.0934 9.70209 14.7119C9.56416 14.5201 9.47193 14.2994 9.43246 14.0665C9.39298 13.8336 9.40731 13.5947 9.47434 13.3682C9.49171 13.267 9.53724 13.1727 9.60572 13.0962C9.67419 13.0196 9.76284 12.9639 9.86151 12.9355C9.95122 12.8959 10.0482 12.8755 10.1462 12.8755C10.2442 12.8755 10.3412 12.8959 10.4309 12.9355L10.8636 13.2315C11.1983 13.5143 11.5867 13.7266 12.0054 13.8558C12.4242 13.9849 12.8647 14.0282 13.3005 13.9831H13.9154C13.2562 13.9153 12.6232 13.6887 12.0707 13.3226L10.9319 12.48C10.728 12.2936 10.4857 12.1542 10.222 12.0715C9.9584 11.9889 9.67986 11.9651 9.40602 12.0017C9.14817 12.0255 8.90663 12.1382 8.72277 12.3205C8.47826 12.5815 8.33316 12.9201 8.31282 13.2771C8.27914 13.5825 8.32425 13.8915 8.44386 14.1746C8.56346 14.4576 8.75357 14.7054 8.99607 14.8941C9.40455 15.2327 9.88909 15.4672 10.4081 15.5774H10.8636V15.6001ZM11.433 24.7101C11.1204 24.8118 10.7829 24.8065 10.4736 24.6952C10.1643 24.5838 9.90091 24.3727 9.72486 24.0952C9.49728 23.7563 9.41267 23.3413 9.48944 22.9404C9.5662 22.5395 9.79814 22.1851 10.1348 21.9543V21.9543H9.83874C9.51413 22.0445 9.22187 22.2252 8.99605 22.4752C8.77023 22.7252 8.62016 23.0343 8.56335 23.3664C8.51196 23.6156 8.52471 23.8739 8.6004 24.1168C8.67608 24.3598 8.81223 24.5796 8.99607 24.7556C9.20563 24.9557 9.45838 25.105 9.73481 25.1919C10.0112 25.2788 10.3039 25.3009 10.5903 25.2567C10.7497 25.2567 10.7497 25.2567 10.7497 25.2567C10.7269 25.3771 10.7269 25.5007 10.7497 25.6211C10.8061 25.8498 10.9378 26.0529 11.1238 26.1975C11.3098 26.3422 11.539 26.4199 11.7746 26.4182C12.1045 26.42 12.4309 26.35 12.7311 26.2132H12.9589C12.6066 26.2118 12.261 26.1175 11.9568 25.9399C11.7667 25.8253 11.618 25.6532 11.532 25.4485C11.446 25.2439 11.4273 25.0172 11.4785 24.8012C11.4674 24.741 11.4674 24.6792 11.4785 24.619L11.433 24.7101ZM19.7686 15.6001C19.6727 15.7197 19.5443 15.8091 19.3989 15.8575C19.2535 15.906 19.0972 15.9115 18.9487 15.8734L18.1971 15.4179C17.7146 15.2253 17.1765 15.2253 16.694 15.4179C16.4712 15.4807 16.2677 15.5981 16.1018 15.7596H16.5345C16.8411 15.769 17.1461 15.8072 17.4455 15.8734C17.5255 15.8992 17.5942 15.9518 17.6398 16.0223C17.6855 16.0929 17.7054 16.1771 17.6961 16.2606C17.6758 16.4813 17.741 16.7014 17.8783 16.8755C17.9898 16.9892 18.1293 17.0717 18.2827 17.1146C18.4361 17.1576 18.5981 17.1596 18.7525 17.1204C18.9069 17.0812 19.0483 17.0023 19.1627 16.8913C19.277 16.7804 19.3603 16.6415 19.4042 16.4883H19.6319C19.675 16.6064 19.7446 16.713 19.8355 16.7999C19.9263 16.8868 20.0359 16.9516 20.1557 16.9894C20.5509 17.1416 20.9644 17.2411 21.3856 17.2855H22.0005L20.9301 16.8527C20.6605 16.7562 20.415 16.6024 20.2105 16.4019C20.0061 16.2014 19.8475 15.9589 19.7458 15.6912L19.7686 15.6001ZM22.7521 23.6624L22.1144 23.1386C21.9679 22.9571 21.7906 22.8029 21.5906 22.6831C21.5228 22.6368 21.4413 22.6148 21.3594 22.6206C21.2775 22.6263 21.2 22.6596 21.1394 22.7149C21.0787 22.7703 21.0386 22.8445 21.0254 22.9255C21.0122 23.0066 21.0268 23.0897 21.0667 23.1614L21.3173 23.503C21.3795 23.5748 21.4565 23.6323 21.5429 23.6716C21.6294 23.7109 21.7233 23.7311 21.8183 23.7308H22.7521V23.6624ZM22.0916 22.1593C21.9919 21.9292 21.8308 21.731 21.6259 21.5864C21.421 21.4418 21.1803 21.3563 20.9301 21.3394C20.794 21.3295 20.6575 21.351 20.5311 21.4024C20.4047 21.4537 20.2919 21.5335 20.2013 21.6355C20.1026 21.7761 20.0369 21.9373 20.0093 22.1069C19.9817 22.2765 19.9928 22.4501 20.0419 22.6148C20.0419 22.7514 20.0419 22.8653 20.0419 23.002C20.0507 22.8807 20.0507 22.7589 20.0419 22.6376C20.0419 22.5237 20.0419 22.4098 20.0419 22.2959C20.108 22.1218 20.2331 21.9763 20.3954 21.8848C20.5576 21.7933 20.7468 21.7615 20.9301 21.7949C21.2328 21.8579 21.5195 21.9819 21.7728 22.1593H22.0916Z" fill="#1971BD"/>
</svg>
