<svg width="32" height="32" viewBox="0 0 32 32" fill="none" xmlns="http://www.w3.org/2000/svg">
<g clip-path="url(#clip0)">
<path d="M21.0538 16.3598C21.2824 17.5027 21.9678 18.6455 23.1107 19.5598C22.8821 19.5598 22.6538 19.7884 22.1966 19.7884C21.2824 20.017 20.3685 20.017 19.2257 20.017C17.8542 20.017 16.4824 19.7884 15.3395 19.1027C13.9681 18.417 13.0542 17.2741 12.3685 16.1312C11.6828 14.9884 11.2254 13.617 10.9969 12.2455C10.9969 11.7884 10.7681 11.5598 10.7681 11.1027C10.7681 11.1027 10.7681 11.1027 10.7681 10.8741C10.7681 11.1027 10.7683 11.3312 10.9969 11.5598C11.2254 12.7027 11.4536 13.8455 11.6821 14.9884C11.9107 15.9027 12.3681 16.817 13.0538 17.5027C13.7395 18.417 14.1969 19.5598 14.4254 20.7027C14.4254 21.1598 14.6542 21.617 14.6542 21.8455C14.4257 21.8455 13.9687 21.617 13.7402 21.617C12.8259 21.3884 11.9112 21.1598 10.9969 20.7027C10.5397 20.4741 10.3112 20.4741 9.85401 20.2455C9.85401 20.2455 9.62521 20.2455 9.62521 20.017C9.62521 19.3312 9.39642 18.417 9.39642 17.7312C9.16785 16.3598 9.16874 14.7598 9.16874 13.3884C9.16874 12.7027 9.16785 12.017 9.39642 11.3312V11.5598C9.16785 12.2455 9.16874 13.1598 9.16874 13.8455C9.16874 14.9884 8.94017 15.9027 9.16874 17.0455C9.16874 17.9598 9.16785 18.8741 9.39642 19.7884C9.39642 19.7884 9.39642 19.7884 9.39642 20.017C9.16785 19.7884 8.93972 19.7884 8.71115 19.5598C8.02544 19.3312 7.34017 18.8741 6.88303 18.6455C6.88303 18.6455 6.65423 18.6455 6.65423 18.417C6.65423 17.5027 6.42566 16.3598 6.65423 15.4455C6.65423 14.3027 6.88213 13.3884 7.1107 12.2455V12.017C7.1107 11.7884 7.1107 12.017 7.1107 12.017C6.42499 14.0741 6.19664 16.1312 6.19664 18.1884L5.96785 17.9598C5.28213 17.5027 4.59664 17.0455 3.91093 16.3598L3.68213 16.1312C3.68213 14.7598 3.68258 13.3884 4.13972 12.017C3.91115 12.2455 3.9107 12.4741 3.68213 12.9312C3.68213 13.1598 3.45445 13.617 3.45445 13.8455C3.45445 14.0741 3.22566 14.5312 3.22566 14.7598C3.22566 14.9884 3.22544 15.4455 2.99686 15.6741C2.76829 15.4455 2.53928 15.217 2.53928 14.7598C2.08213 13.8455 1.85378 12.9312 1.62521 12.017C1.39664 9.95981 1.85378 7.6741 2.76807 5.84552C3.45378 4.4741 4.59642 3.33124 5.96785 2.41695C7.33928 1.50267 8.71137 1.04553 10.0828 0.588383C10.7685 0.359812 11.6828 0.359815 12.3685 0.359815C13.2828 0.359815 14.1964 0.588389 15.1107 0.81696H15.3395C14.6538 0.359817 13.9681 0.131242 13.0538 -0.0973293C13.2824 -0.0973293 13.2828 -0.0973293 13.5114 -0.0973293C14.4257 -0.0973293 15.1116 -0.325897 16.0259 -0.325897C16.9402 -0.325897 17.8536 -0.325897 18.5393 -0.325897C19.4536 -0.325897 20.3683 -0.0973328 21.2826 0.131239C22.8826 0.35981 24.2536 1.04553 25.3964 2.18839C26.5393 3.10267 27.4538 4.4741 27.9109 5.84552C28.1395 6.75981 28.1395 7.6741 27.9109 8.35982C27.6824 8.81696 27.6821 9.2741 27.6821 9.73124C27.6821 9.95981 27.6824 10.1884 27.9109 10.417C27.2252 10.1884 26.3109 10.1884 25.6252 10.6455C24.7109 11.1027 24.0252 11.5598 23.3395 12.2455C23.5681 12.017 23.7973 11.7884 24.0259 11.7884C24.7116 11.3312 25.6259 11.1027 26.3116 10.8741C26.9973 10.6455 27.6828 10.8741 28.3685 11.3312C28.3685 11.3312 28.3687 11.3312 28.5973 11.5598C28.8259 11.7884 28.8252 12.017 29.0538 12.2455C27.9109 12.017 26.9971 12.2455 26.0828 12.9312C25.8542 13.1598 25.3973 13.3884 25.1687 13.617H25.3964C26.0821 13.1598 26.9966 12.9312 27.9109 12.7027C28.3681 12.7027 29.0542 12.7027 29.5114 12.7027C29.5114 12.7027 29.7402 12.7027 29.7402 12.9312C29.9687 13.1598 30.1966 13.617 30.1966 13.8455C30.1966 13.8455 30.1966 13.8455 30.1966 14.0741C28.8252 14.0741 27.6824 14.5312 26.7681 15.217C27.4538 14.7598 28.1395 14.5312 29.0538 14.5312C29.5109 14.5312 29.9683 14.5312 30.4254 14.5312C30.654 14.9884 30.8821 15.6741 31.1107 16.1312C30.1964 16.1312 29.054 16.3598 28.1397 17.0455C28.8254 16.817 29.7397 16.5884 30.4254 16.5884C30.8826 16.5884 30.8821 16.5884 31.1107 17.0455C31.1107 17.5027 31.3395 17.7312 31.3395 18.1884C30.4252 18.1884 29.7393 18.417 28.825 19.1027C29.0536 19.1027 29.054 19.1027 29.2826 18.8741C29.9683 18.6455 30.425 18.6455 31.1107 18.6455H31.3395C31.3395 19.1027 31.3397 19.7884 31.5683 20.2455C31.1112 20.2455 30.425 20.2455 29.9678 20.4741C29.7393 20.4741 29.5112 20.7027 29.2826 20.7027C29.5112 20.7027 29.5116 20.7027 29.7402 20.7027C30.1973 20.7027 30.8824 20.7027 31.3395 20.7027C31.3395 21.1598 31.3395 21.617 31.3395 22.0741C30.6538 22.0741 30.1971 22.0741 29.5114 22.0741C30.1971 22.0741 30.6536 22.0741 31.1107 22.3027C31.1107 22.7598 30.883 23.4455 30.883 23.9027H29.5114L30.883 24.1312C30.6545 24.5884 30.6542 25.0455 30.6542 25.7312H29.9678L30.6542 25.9598C30.4257 26.417 30.4252 26.6455 30.1966 27.1027C30.1966 27.3312 30.1964 27.3312 29.9678 27.3312C29.7393 27.3312 29.9687 27.3312 29.7402 27.3312C29.5116 27.3312 29.5112 27.3312 29.2826 27.3312L29.7402 27.5598C29.7402 27.7884 29.5114 28.017 29.5114 28.017C28.8257 29.1598 27.6821 30.0741 26.5393 30.7598C25.8536 31.217 24.9402 31.4455 24.0259 31.217C22.883 31.217 21.7393 30.5312 20.825 29.8455C20.3678 29.3884 20.1397 28.7027 20.1397 28.2455C20.1397 26.8741 20.1393 25.5027 20.825 24.3598C21.0536 23.9027 21.2826 23.4455 21.2826 22.7598C21.2826 22.5312 21.2826 22.0741 21.2826 21.8455C21.2826 21.3884 21.283 21.3884 21.7402 21.3884C22.1973 21.3884 22.6545 21.3884 22.883 21.617C23.3402 21.617 23.7964 21.617 24.2536 21.3884H24.4824C24.7109 21.3884 24.7112 21.3884 24.7112 21.617C24.7112 21.8455 24.7112 21.8455 24.7112 22.0741C24.4826 22.5312 24.2545 22.9884 24.0259 23.4455C23.5687 24.1312 23.3393 25.0455 23.1107 25.7312C22.8821 26.1884 23.1107 26.8741 23.1107 27.3312C23.1107 27.5598 23.3397 27.7884 23.5683 28.017V28.2455C23.3397 28.4741 23.1114 28.7027 22.6542 28.9312C22.6542 28.9312 22.4254 28.9312 22.4254 29.1598H22.6542C23.3399 28.9312 24.0252 28.4741 24.4824 27.7884C24.9395 27.1027 25.1678 26.417 25.3964 25.5027C25.625 24.5884 25.6252 23.9027 25.6252 22.9884C25.6252 22.0741 25.3971 21.1598 24.9399 20.2455C24.7114 19.7884 24.2542 19.3312 23.7971 19.1027C22.8828 18.6455 22.1971 17.9598 21.5114 17.0455C21.2828 17.0455 21.0538 16.817 21.0538 16.3598ZM14.4254 8.13124C14.654 8.35981 14.8821 8.58839 15.1107 8.81696C15.3393 9.04553 15.7973 9.04553 16.0259 8.81696C16.0259 8.81696 16.0259 8.81696 16.0259 8.58838C16.0259 8.35981 15.7971 8.13124 15.7971 8.13124C15.3399 8.13124 14.8826 7.90267 14.4254 8.13124Z" fill="#1971BD"/>
</g>
<defs>
<clipPath id="clip0">
<rect width="32" height="32" fill="white"/>
</clipPath>
</defs>
</svg>
