<svg xmlns="http://www.w3.org/2000/svg" viewBox="0 0 24 24" width="1.2em" height="1.2em"><path fill="currentColor" d="m5.75 18l-.4-.35q-1.3-1.15-1.825-2.625T3 12.05Q3 9.7 4.187 7.787T7.4 4.85q.35-.2.75-.025t.525.575q.125.375-.013.75t-.487.575q-1.45.8-2.313 2.213T5 12.05q0 1.125.425 2.188T6.75 16.2l.25.25V15q0-.425.288-.713T8 14q.425 0 .713.288T9 15v4q0 .425-.288.713T8 20H4q-.425 0-.713-.288T3 19q0-.425.288-.713T4 18h1.75ZM17 7.55V9q0 .425-.288.713T16 10q-.425 0-.713-.288T15 9V5q0-.425.288-.713T16 4h4q.425 0 .713.288T21 5q0 .425-.288.713T20 6h-1.75l.4.35q1.025 1.05 1.575 2.225t.7 2.425H18.9q-.125-.875-.537-1.675T17.25 7.8L17 7.55ZM17.4 23q-.2 0-.313-.113t-.162-.287l-.225-1.1q-.3-.125-.563-.263T15.6 20.9l-1.075.325q-.175.05-.325-.013T13.95 21l-.6-1q-.1-.15-.05-.325t.175-.3l.825-.725q-.05-.35-.05-.65t.05-.65l-.825-.725q-.125-.125-.175-.3t.05-.325l.6-1q.1-.15.25-.212t.325-.013l1.075.325q.275-.2.538-.337t.562-.263l.225-1.1q.05-.175.163-.288T17.4 13h1.2q.2 0 .313.113t.162.287l.225 1.1q.3.125.563.275t.537.375l1.05-.375q.175-.05.338.013t.262.212l.6 1.05q.1.15.063.325t-.163.3l-.85.725q.05.3.05.625t-.05.625l.825.725q.125.125.175.3t-.05.325l-.6 1q-.1.15-.25.213t-.325.012L20.4 20.9q-.275.2-.537.338t-.563.262l-.225 1.1q-.05.175-.163.288T18.6 23h-1.2Zm.6-3q.825 0 1.413-.588T20 18q0-.825-.588-1.413T18 16q-.825 0-1.413.588T16 18q0 .825.588 1.413T18 20Z"></path></svg>
