<svg width="19" height="17" viewBox="0 0 19 17" fill="none" xmlns="http://www.w3.org/2000/svg">
<path d="M4.275 12.2143C3.09003 12.2143 2.08145 11.8359 1.24925 11.0792C0.416417 10.3219 0 9.39628 0 8.30223C0 7.26925 0.387283 6.37353 1.16185 5.61508C1.93642 4.85663 2.8462 4.44891 3.8912 4.39191C4.10463 3.12104 4.74113 2.07119 5.8007 1.24237C6.86027 0.413541 8.09337 -0.000581021 9.5 6.11816e-07C11.0878 6.11816e-07 12.4349 0.508057 13.5413 1.52417C14.6471 2.5397 15.2 3.77654 15.2 5.23469V6.10714H15.7852C16.6947 6.1339 17.4578 6.44071 18.0747 7.02758C18.6916 7.61444 19 8.32549 19 9.16071C19 10.0163 18.6849 10.7393 18.0547 11.3296C17.4246 11.9194 16.6437 12.2143 15.712 12.2143H10.5592C10.1222 12.2143 9.75745 12.0799 9.46485 11.8112C9.17225 11.5425 9.02563 11.2069 9.025 10.8044V5.74159L7.03 7.56326L6.3574 6.96302L9.5 4.07695L12.6426 6.96302L11.97 7.56326L9.975 5.74159V10.8053C9.975 10.9391 10.0358 11.0621 10.1574 11.1743C10.279 11.2866 10.4133 11.3424 10.5602 11.3418H15.675C16.34 11.3418 16.9021 11.131 17.3612 10.7093C17.8204 10.2876 18.05 9.77143 18.05 9.16071C18.05 8.55 17.8204 8.0338 17.3612 7.61212C16.9021 7.19043 16.34 6.97959 15.675 6.97959H14.25V5.23469C14.25 4.02781 13.7867 2.9989 12.8601 2.14797C11.9336 1.29704 10.8135 0.871868 9.5 0.87245C8.18647 0.873031 7.06642 1.2985 6.13985 2.14884C5.21328 2.99919 4.75 4.02781 4.75 5.23469H4.2389C3.35667 5.23469 2.58812 5.53278 1.93325 6.12895C1.27838 6.72513 0.950633 7.4449 0.95 8.28827C0.949367 9.13163 1.27395 9.8514 1.92375 10.4476C2.57355 11.0438 3.3573 11.3418 4.275 11.3418H6.65V12.2143H4.275Z" fill="black"/>
<g clip-path="url(#clip0_1981_8929)">
<rect x="5" y="8" width="9" height="9" fill="white"/>
<path d="M7.25025 11.6914V9.40625C7.25025 9.33166 7.22062 9.26012 7.16788 9.20738C7.11513 9.15463 7.04359 9.125 6.969 9.125C6.89441 9.125 6.82287 9.15463 6.77013 9.20738C6.71738 9.26012 6.68775 9.33166 6.68775 9.40625V11.6914C6.44576 11.7534 6.23127 11.8941 6.0781 12.0914C5.92493 12.2888 5.8418 12.5315 5.8418 12.7812C5.8418 13.031 5.92493 13.2737 6.0781 13.4711C6.23127 13.6684 6.44576 13.8091 6.68775 13.8711V15.5938C6.68775 15.6683 6.71738 15.7399 6.77013 15.7926C6.82287 15.8454 6.89441 15.875 6.969 15.875C7.04359 15.875 7.11513 15.8454 7.16788 15.7926C7.22062 15.7399 7.25025 15.6683 7.25025 15.5938V13.8711C7.49224 13.8091 7.70673 13.6684 7.8599 13.4711C8.01307 13.2737 8.09621 13.031 8.09621 12.7812C8.09621 12.5315 8.01307 12.2888 7.8599 12.0914C7.70673 11.8941 7.49224 11.7534 7.25025 11.6914ZM6.969 13.3438C6.85775 13.3438 6.749 13.3108 6.65649 13.249C6.56399 13.1871 6.49189 13.0993 6.44932 12.9965C6.40675 12.8937 6.39561 12.7806 6.41731 12.6715C6.43902 12.5624 6.49259 12.4622 6.57126 12.3835C6.64992 12.3048 6.75015 12.2513 6.85926 12.2296C6.96838 12.2079 7.08148 12.219 7.18426 12.2616C7.28705 12.3041 7.3749 12.3762 7.4367 12.4687C7.49851 12.5612 7.5315 12.67 7.5315 12.7812C7.5315 12.9304 7.47224 13.0735 7.36675 13.179C7.26126 13.2845 7.11819 13.3438 6.969 13.3438ZM9.7815 10.0039V9.40625C9.7815 9.33166 9.75187 9.26012 9.69913 9.20738C9.64638 9.15463 9.57484 9.125 9.50025 9.125C9.42566 9.125 9.35412 9.15463 9.30138 9.20738C9.24863 9.26012 9.219 9.33166 9.219 9.40625V10.0039C8.97701 10.0659 8.76252 10.2066 8.60935 10.4039C8.45618 10.6013 8.37305 10.844 8.37305 11.0938C8.37305 11.3435 8.45618 11.5862 8.60935 11.7836C8.76252 11.9809 8.97701 12.1216 9.219 12.1836V15.5938C9.219 15.6683 9.24863 15.7399 9.30138 15.7926C9.35412 15.8454 9.42566 15.875 9.50025 15.875C9.57484 15.875 9.64638 15.8454 9.69913 15.7926C9.75187 15.7399 9.7815 15.6683 9.7815 15.5938V12.1836C10.0235 12.1216 10.238 11.9809 10.3912 11.7836C10.5443 11.5862 10.6275 11.3435 10.6275 11.0938C10.6275 10.844 10.5443 10.6013 10.3912 10.4039C10.238 10.2066 10.0235 10.0659 9.7815 10.0039ZM9.50025 11.6562C9.389 11.6562 9.28025 11.6233 9.18774 11.5615C9.09524 11.4996 9.02314 11.4118 8.98057 11.309C8.938 11.2062 8.92686 11.0931 8.94856 10.984C8.97027 10.8749 9.02384 10.7747 9.10251 10.696C9.18117 10.6173 9.2814 10.5638 9.39051 10.5421C9.49963 10.5204 9.61273 10.5315 9.71551 10.5741C9.8183 10.6166 9.90615 10.6887 9.96795 10.7812C10.0298 10.8737 10.0628 10.9825 10.0628 11.0938C10.0628 11.2429 10.0035 11.386 9.898 11.4915C9.79251 11.597 9.64944 11.6562 9.50025 11.6562ZM13.1565 13.9062C13.1563 13.6568 13.0733 13.4145 12.9206 13.2173C12.7679 13.0201 12.5542 12.8791 12.3128 12.8164V9.40625C12.3128 9.33166 12.2831 9.26012 12.2304 9.20738C12.1776 9.15463 12.1061 9.125 12.0315 9.125C11.9569 9.125 11.8854 9.15463 11.8326 9.20738C11.7799 9.26012 11.7503 9.33166 11.7503 9.40625V12.8164C11.5083 12.8784 11.2938 13.0191 11.1406 13.2164C10.9874 13.4138 10.9043 13.6565 10.9043 13.9062C10.9043 14.156 10.9874 14.3987 11.1406 14.5961C11.2938 14.7934 11.5083 14.9341 11.7503 14.9961V15.5938C11.7503 15.6683 11.7799 15.7399 11.8326 15.7926C11.8854 15.8454 11.9569 15.875 12.0315 15.875C12.1061 15.875 12.1776 15.8454 12.2304 15.7926C12.2831 15.7399 12.3128 15.6683 12.3128 15.5938V14.9961C12.5542 14.9334 12.7679 14.7924 12.9206 14.5952C13.0733 14.398 13.1563 14.1557 13.1565 13.9062ZM12.0315 14.4688C11.9203 14.4688 11.8115 14.4358 11.719 14.374C11.6265 14.3121 11.5544 14.2243 11.5118 14.1215C11.4692 14.0187 11.4581 13.9056 11.4798 13.7965C11.5015 13.6874 11.5551 13.5872 11.6338 13.5085C11.7124 13.4298 11.8127 13.3763 11.9218 13.3546C12.0309 13.3329 12.144 13.344 12.2468 13.3866C12.3495 13.4291 12.4374 13.5012 12.4992 13.5937C12.561 13.6862 12.594 13.795 12.594 13.9062C12.594 14.0554 12.5347 14.1985 12.4293 14.304C12.3238 14.4095 12.1807 14.4688 12.0315 14.4688Z" fill="black"/>
</g>
<defs>
<clipPath id="clip0_1981_8929">
<rect width="9" height="9" fill="white" transform="translate(5 8)"/>
</clipPath>
</defs>
</svg>
