<svg width="19" height="13" viewBox="0 0 19 13" fill="none" xmlns="http://www.w3.org/2000/svg">
<path d="M4.275 12.2143C3.09003 12.2143 2.08145 11.8359 1.24925 11.0792C0.416417 10.3219 0 9.39628 0 8.30223C0 7.26925 0.387283 6.37353 1.16185 5.61508C1.93642 4.85663 2.8462 4.44891 3.8912 4.39191C4.10463 3.12104 4.74113 2.07119 5.8007 1.24237C6.86027 0.413541 8.09337 -0.000581021 9.5 6.11816e-07C11.0878 6.11816e-07 12.4349 0.508057 13.5413 1.52417C14.6471 2.5397 15.2 3.77654 15.2 5.23469V6.10714H15.7852C16.6947 6.1339 17.4578 6.44071 18.0747 7.02758C18.6916 7.61444 19 8.32549 19 9.16071C19 10.0163 18.6849 10.7393 18.0547 11.3296C17.4246 11.9194 16.6437 12.2143 15.712 12.2143H10.5592C10.1222 12.2143 9.75745 12.0799 9.46485 11.8112C9.17225 11.5425 9.02563 11.2069 9.025 10.8044V5.74159L7.03 7.56326L6.3574 6.96302L9.5 4.07695L12.6426 6.96302L11.97 7.56326L9.975 5.74159V10.8053C9.975 10.9391 10.0358 11.0621 10.1574 11.1743C10.279 11.2866 10.4133 11.3424 10.5602 11.3418H15.675C16.34 11.3418 16.9021 11.131 17.3612 10.7093C17.8204 10.2876 18.05 9.77143 18.05 9.16071C18.05 8.55 17.8204 8.0338 17.3612 7.61212C16.9021 7.19043 16.34 6.97959 15.675 6.97959H14.25V5.23469C14.25 4.02781 13.7867 2.9989 12.8601 2.14797C11.9336 1.29704 10.8135 0.871868 9.5 0.87245C8.18647 0.873031 7.06642 1.2985 6.13985 2.14884C5.21328 2.99919 4.75 4.02781 4.75 5.23469H4.2389C3.35667 5.23469 2.58812 5.53278 1.93325 6.12895C1.27838 6.72513 0.950633 7.4449 0.95 8.28827C0.949367 9.13163 1.27395 9.8514 1.92375 10.4476C2.57355 11.0438 3.3573 11.3418 4.275 11.3418H6.65V12.2143H4.275Z" fill="black"/>
</svg>
