<svg width="18" height="18" viewBox="0 0 18 18" fill="none" xmlns="http://www.w3.org/2000/svg">
<path d="M15.6094 9C15.6094 9.11189 15.5649 9.21919 15.4858 9.29831C15.4067 9.37743 15.2994 9.42188 15.1875 9.42188H2.8125C2.70061 9.42188 2.59331 9.37743 2.51419 9.29831C2.43507 9.21919 2.39063 9.11189 2.39062 9C2.39062 8.88811 2.43507 8.78081 2.51419 8.70169C2.59331 8.62257 2.70061 8.57812 2.8125 8.57812H15.1875C15.2994 8.57812 15.4067 8.62257 15.4858 8.70169C15.5649 8.78081 15.6094 8.88811 15.6094 9ZM8.70188 7.04812C8.78098 7.12713 8.8882 7.1715 9 7.1715C9.1118 7.1715 9.21902 7.12713 9.29813 7.04812L11.5481 4.79812C11.6226 4.71815 11.6632 4.61238 11.6613 4.50308C11.6594 4.39379 11.6151 4.28951 11.5378 4.21221C11.4605 4.13492 11.3562 4.09064 11.2469 4.08871C11.1376 4.08679 11.0318 4.12735 10.9519 4.20187L9.42188 5.73117V1.125C9.42188 1.01311 9.37743 0.905806 9.29831 0.826689C9.21919 0.747572 9.11189 0.703125 9 0.703125C8.88811 0.703125 8.78081 0.747572 8.70169 0.826689C8.62257 0.905806 8.57812 1.01311 8.57812 1.125V5.73117L7.04812 4.20187C6.96815 4.12735 6.86238 4.08679 6.75308 4.08871C6.64379 4.09064 6.53951 4.13492 6.46221 4.21221C6.38492 4.28951 6.34064 4.39379 6.33871 4.50308C6.33679 4.61238 6.37736 4.71815 6.45188 4.79812L8.70188 7.04812ZM9.29813 10.9519C9.21902 10.8729 9.1118 10.8285 9 10.8285C8.8882 10.8285 8.78098 10.8729 8.70188 10.9519L6.45188 13.2019C6.37736 13.2818 6.33679 13.3876 6.33871 13.4969C6.34064 13.6062 6.38492 13.7105 6.46221 13.7878C6.53951 13.8651 6.64379 13.9094 6.75308 13.9113C6.86238 13.9132 6.96815 13.8726 7.04812 13.7981L8.57812 12.2688V16.875C8.57812 16.9869 8.62257 17.0942 8.70169 17.1733C8.78081 17.2524 8.88811 17.2969 9 17.2969C9.11189 17.2969 9.21919 17.2524 9.29831 17.1733C9.37743 17.0942 9.42188 16.9869 9.42188 16.875V12.2688L10.9519 13.7981C11.0318 13.8726 11.1376 13.9132 11.2469 13.9113C11.3562 13.9094 11.4605 13.8651 11.5378 13.7878C11.6151 13.7105 11.6594 13.6062 11.6613 13.4969C11.6632 13.3876 11.6226 13.2818 11.5481 13.2019L9.29813 10.9519Z" fill="black"/>
</svg>
