<svg width="32" height="32" viewBox="0 0 32 32" fill="none" xmlns="http://www.w3.org/2000/svg">
<path d="M15.9896 0.343404C18.2455 0.343404 20.5014 0.343404 22.7573 0.33667C23.0334 0.33667 23.2085 0.444414 23.3768 0.659902C24.6361 2.24913 25.9155 3.81815 27.1815 5.40064C28.3667 6.87539 29.5384 8.35687 30.7169 9.83162C31.0738 10.2761 31.424 10.7272 31.7943 11.1582C31.9761 11.3737 32.0367 11.5825 31.9761 11.8653C31.5586 13.6902 31.1546 15.5151 30.7506 17.3333C30.2118 19.7575 29.6664 22.1885 29.1277 24.6128C29.1209 24.6464 29.1075 24.6801 29.1007 24.707C29.0536 25.266 28.7371 25.569 28.232 25.8114C26.0165 26.8485 23.8145 27.9326 21.6125 28.9966C19.8482 29.8518 18.0906 30.707 16.333 31.569C16.1445 31.6633 16.0031 31.67 15.8078 31.5825C12.8785 30.1683 9.93574 28.7676 6.99971 27.367C5.80106 26.7946 4.59567 26.2222 3.40375 25.6296C3.28254 25.569 3.16133 25.4208 3.13439 25.2929C2.78423 23.8451 2.45426 22.3973 2.11756 20.9427C1.65965 18.9899 1.195 17.0437 0.743822 15.0909C0.501397 14.0336 0.272441 12.9697 0.0232828 11.9124C-0.0373232 11.6633 0.0232828 11.4814 0.171431 11.2929C1.73372 9.32657 3.28928 7.36697 4.84483 5.40064C6.09736 3.83835 7.35662 2.2626 8.59567 0.67337C8.77076 0.451148 8.95931 0.377074 9.22867 0.377074C11.4846 0.383808 13.7405 0.377074 15.9963 0.377074C15.9896 0.37034 15.9896 0.356872 15.9896 0.343404ZM15.9627 1.02354C15.9627 1.03701 15.9627 1.05047 15.9627 1.06394C13.7943 1.06394 11.6327 1.06394 9.46436 1.07068C9.31621 1.07068 9.11419 1.13128 9.02665 1.23229C7.78086 2.78785 6.54854 4.35014 5.31621 5.91243C3.83473 7.78448 2.35998 9.65653 0.871768 11.5151C0.730353 11.6969 0.696683 11.8586 0.743822 12.0673C1.31621 14.505 1.8886 16.9495 2.45426 19.3872C2.86503 21.1447 3.26234 22.9023 3.66638 24.6532C3.71352 24.8687 3.75392 25.0707 4.00981 25.1784C4.69668 25.4814 5.36335 25.8249 6.03675 26.1414C7.65291 26.9091 9.26907 27.6835 10.8852 28.4511C12.5283 29.239 14.1714 30.0269 15.8213 30.8013C15.9559 30.8619 16.1714 30.8619 16.3128 30.7946C17.9963 29.9932 19.6731 29.165 21.3499 28.3501C23.5452 27.2862 25.7337 26.2222 27.9357 25.1717C28.259 25.0168 28.3869 24.7878 28.4543 24.4646C28.892 22.4713 29.3297 20.4848 29.7809 18.4983C30.2724 16.3165 30.7775 14.1279 31.2556 11.9461C31.2893 11.8047 31.2556 11.5959 31.1748 11.4882C29.9761 9.9663 28.7708 8.45788 27.5586 6.94273C26.0435 5.05047 24.5149 3.15822 23.0064 1.25923C22.8583 1.07068 22.6967 1.01007 22.461 1.01007C20.2926 1.03027 18.131 1.02354 15.9627 1.02354Z" fill="#1971BD"/>
<path d="M19.269 24.0672C19.1209 24.2423 18.9997 24.3972 18.8448 24.579C18.0233 23.9123 17.2152 23.2659 16.3532 22.5723C16.3532 24.4376 16.3532 26.2288 16.3532 28.0537C16.1108 28.0537 15.902 28.0537 15.6663 28.0537C15.6663 26.2423 15.6663 24.4308 15.6663 22.5117C14.7707 23.2322 13.9559 23.8921 13.1074 24.5723C12.966 24.4039 12.8313 24.249 12.6697 24.0605C13.168 23.6497 13.6596 23.2457 14.1512 22.8484C14.5889 22.4982 15.0334 22.1548 15.4509 21.7911C15.5519 21.7036 15.6394 21.5352 15.6461 21.4005C15.6664 20.8282 15.6664 20.2558 15.6461 19.6834C15.6394 19.5689 15.5519 19.4005 15.4509 19.3534C14.7438 18.9898 14.03 18.6531 13.3094 18.3164C13.2286 18.276 13.067 18.3029 12.9929 18.3635C12.5485 18.7339 12.1175 19.1312 11.6731 19.5016C11.4913 19.6497 11.4239 19.8113 11.4307 20.047C11.4778 21.0571 11.5115 22.0672 11.5451 23.0773C11.5519 23.2995 11.6529 23.542 11.2488 23.5689C10.8717 23.5958 10.8583 23.4005 10.8515 23.1312C10.8381 22.3904 10.8179 21.6497 10.7909 20.909C10.7842 20.7406 10.764 20.579 10.7505 20.3096C9.32292 21.542 7.96265 22.7137 6.56871 23.9191C6.41383 23.7507 6.27914 23.5958 6.11079 23.414C7.5182 22.1952 8.89867 20.9965 10.3465 19.744C9.34312 19.5622 8.41382 19.3938 7.45086 19.212C7.49127 18.9898 7.53167 18.8012 7.57881 18.5453C8.07039 18.6329 8.53504 18.7204 9.00642 18.808C9.59228 18.9157 10.1714 19.0302 10.764 19.111C10.9121 19.1312 11.1142 19.0571 11.2354 18.9628C11.6125 18.6665 11.9761 18.3433 12.3263 18.0133C12.4004 17.946 12.4542 17.7979 12.434 17.7036C12.2522 16.8618 12.0367 16.0268 11.8616 15.1851C11.7943 14.8686 11.6664 14.7069 11.3229 14.6665C10.8111 14.5992 10.3128 14.4645 9.80776 14.377C9.71349 14.3635 9.59228 14.4039 9.5182 14.4645C8.72359 15.1177 7.92898 15.7776 7.1411 16.4443C6.60911 16.8955 6.73706 16.8955 6.26568 16.2894C7.06702 15.616 7.86164 14.9359 8.75052 14.1884C6.89194 13.8248 5.1209 13.4814 3.30945 13.1312C3.34985 12.9022 3.39026 12.6935 3.43066 12.4578C5.22864 12.8012 6.99968 13.1447 8.85153 13.4948C8.33302 12.5117 7.84817 11.5958 7.34985 10.6598C7.55187 10.5521 7.73369 10.451 7.94244 10.3366C8.27241 10.9494 8.59564 11.5352 8.90541 12.1278C9.14783 12.579 9.37679 13.0436 9.62595 13.4948C9.66635 13.5689 9.75389 13.6564 9.84143 13.6766C10.3869 13.7979 10.9391 13.9123 11.4913 14.0066C11.5855 14.0201 11.7404 13.9595 11.801 13.8787C12.4408 13.0908 13.0738 12.2894 13.7 11.4881C13.7472 11.4275 13.7472 11.2726 13.7068 11.1918C13.4711 10.7002 13.2354 10.2019 12.9593 9.73051C12.8785 9.59583 12.6765 9.48809 12.5148 9.44768C11.4239 9.19852 10.3263 8.9763 9.19497 8.74061C9.22864 8.52512 9.26231 8.3231 9.29598 8.06721C10.3263 8.2827 11.3364 8.49145 12.461 8.72714C11.6057 7.04364 10.7977 5.44095 9.98285 3.83825C10.0435 3.79112 10.0839 3.75745 10.131 3.73051C10.5552 3.46788 10.5754 3.48135 10.7909 3.91906C11.5182 5.36014 12.2455 6.79448 12.9727 8.23556C12.9997 8.2827 13.0334 8.3231 13.1007 8.42411C13.5519 7.42748 13.9828 6.46452 14.4273 5.48135C14.6428 5.58236 14.8313 5.66317 15.0468 5.76418C14.7034 6.53186 14.3667 7.28607 14.03 8.04028C13.9694 8.17496 13.929 8.3231 13.8482 8.43758C13.4172 9.03691 13.5451 9.59583 13.929 10.148C13.9761 10.2154 14.03 10.276 14.0435 10.35C14.1983 11.0571 14.6967 11.1245 15.3094 11.084C16.0367 11.0369 16.7707 11.0571 17.498 11.0706C17.7404 11.0773 17.8616 10.9898 17.9626 10.781C18.1647 10.3433 18.4004 9.9258 18.6024 9.48809C18.6495 9.38034 18.6765 9.21873 18.636 9.11772C18.2387 8.20189 17.8347 7.2928 17.4105 6.39718C17.1276 5.79785 17.1074 5.80459 17.7876 5.57563C18.2118 6.51166 18.6428 7.44768 19.094 8.42411C19.168 8.3231 19.2219 8.27597 19.2556 8.20863C19.9088 6.90896 20.5552 5.6093 21.2017 4.30964C21.2488 4.20863 21.3027 4.10762 21.3566 4.01334C21.6461 3.49482 21.6461 3.49482 22.1849 3.88539C21.3835 5.48809 20.5754 7.10425 19.727 8.80122C20.0233 8.74735 20.2455 8.72041 20.4677 8.67327C21.1142 8.53186 21.7606 8.38371 22.4071 8.2423C22.9997 8.11435 22.9997 8.12108 23.0199 8.80122C22.4542 8.92916 21.8751 9.05711 21.3027 9.18506C20.7438 9.30627 20.1849 9.41401 19.6327 9.56216C19.4711 9.60257 19.296 9.73725 19.2084 9.87866C18.9458 10.3366 18.7303 10.8147 18.4812 11.2793C18.3802 11.4679 18.3802 11.6228 18.5283 11.7979C19.1007 12.4915 19.6529 13.1918 20.2253 13.8787C20.2993 13.9662 20.4744 14.047 20.5822 14.0268C21.1344 13.946 21.6866 13.8315 22.232 13.7103C22.3263 13.6901 22.434 13.5824 22.4812 13.4881C22.9862 12.5521 23.4845 11.616 23.9828 10.6733C24.0367 10.579 24.1041 10.4847 24.1849 10.3702C24.3667 10.4713 24.5418 10.5588 24.764 10.68C24.2724 11.616 23.7808 12.5386 23.2623 13.5285C25.1007 13.1783 26.865 12.8416 28.663 12.4915C28.7169 12.6935 28.7707 12.8955 28.8381 13.1514C27.0199 13.5016 25.2354 13.8517 23.3701 14.2154C24.2387 14.9494 25.0401 15.6295 25.8616 16.3231C25.7135 16.5049 25.5855 16.6531 25.4307 16.8416C25.067 16.5386 24.7303 16.2558 24.3869 15.9729C23.801 15.4814 23.2219 14.9898 22.636 14.5049C22.562 14.4443 22.4542 14.377 22.3802 14.3972C21.7404 14.5117 21.1007 14.6329 20.4744 14.7878C20.3667 14.8147 20.2387 14.9561 20.2118 15.0638C20.003 15.9325 19.8078 16.808 19.6259 17.6834C19.6057 17.7776 19.6596 17.9258 19.7337 17.9931C20.1445 18.3702 20.562 18.7473 20.9997 19.0908C21.1209 19.1851 21.3364 19.2053 21.498 19.1851C22.5014 19.0167 23.5047 18.8214 24.5081 18.6396C24.6293 18.6194 24.7505 18.6127 24.8583 18.6059C24.8852 18.6463 24.9054 18.6598 24.9121 18.68C25.0131 19.2457 25.0131 19.2524 24.4408 19.3601C23.727 19.4948 23.0064 19.6228 22.2926 19.7507C22.1714 19.7709 22.0569 19.8046 21.8684 19.845C23.2758 21.0638 24.6293 22.2356 26.0165 23.4342C25.8684 23.6093 25.7404 23.7709 25.5788 23.9595C24.1849 22.7541 22.8179 21.5756 21.3903 20.3366C21.3701 20.5117 21.3566 20.6194 21.3499 20.7339C21.3229 21.5218 21.3027 22.3029 21.2758 23.0908C21.2556 23.6497 21.2084 23.6834 20.6428 23.5352C20.6428 22.7743 20.636 22.0133 20.6428 21.2524C20.6495 20.8282 20.6832 20.3972 20.6764 19.9729C20.6764 19.8383 20.5956 19.6632 20.4946 19.5756C20.0569 19.1716 19.6125 18.7878 19.1478 18.4174C19.0536 18.3433 18.8515 18.3029 18.7438 18.35C18.0098 18.6867 17.296 19.0504 16.5687 19.3938C16.4004 19.4746 16.3532 19.5756 16.3532 19.7574C16.3667 20.2962 16.3802 20.8349 16.3465 21.3736C16.333 21.6564 16.4677 21.7979 16.6562 21.9527C17.4711 22.5992 18.2791 23.2591 19.0872 23.9123C19.1344 23.9325 19.1815 23.9864 19.269 24.0672ZM16.003 11.7507C16.003 11.7574 16.003 11.7574 16.003 11.7642C15.5317 11.7642 15.0603 11.7574 14.5889 11.7709C14.4677 11.7776 14.3128 11.8315 14.2455 11.9191C13.6461 12.6598 13.0603 13.4073 12.4812 14.1548C12.4138 14.2356 12.3734 14.3837 12.4004 14.4847C12.5956 15.3803 12.7977 16.276 13.0334 17.1649C13.0738 17.3197 13.2219 17.5016 13.3633 17.5756C14.1781 17.9931 15.0064 18.3837 15.8414 18.7608C15.9492 18.8147 16.131 18.808 16.2387 18.7541C17.0468 18.377 17.8414 17.9662 18.6495 17.5891C18.865 17.4881 18.9795 17.3534 19.0266 17.1245C19.2084 16.2692 19.4172 15.4207 19.5855 14.5655C19.6192 14.4039 19.5788 14.1817 19.4778 14.0537C18.9391 13.3399 18.3734 12.6396 17.801 11.9527C17.7068 11.845 17.5249 11.7574 17.3768 11.7507C16.9189 11.7372 16.461 11.7507 16.003 11.7507Z" fill="#1971BD"/>
</svg>
