<svg width="32" height="32" viewBox="0 0 32 32" fill="none" xmlns="http://www.w3.org/2000/svg">
<path d="M22.7427 11.6508C23.0998 12.4906 23.4473 13.3015 23.8045 14.1413C23.3122 14.4405 22.8295 14.7301 22.3565 15.0197C22.1442 15.1452 22.0766 15.2997 22.009 15.5699C21.7677 16.6221 22.5013 16.9503 23.1867 17.3461C23.3894 17.462 23.6018 17.5778 23.8335 17.7033C23.486 18.5528 23.1577 19.3636 22.8199 20.2131C22.2504 20.0779 21.7001 19.9621 21.1692 19.8077C20.9086 19.7304 20.7541 19.8077 20.5418 19.9718C19.8564 20.4834 19.7599 21.0915 20.0881 21.8348C20.2039 22.1051 20.2425 22.414 20.3294 22.7422C19.4992 23.0994 18.698 23.4372 17.8389 23.804C17.5397 23.3117 17.2308 22.8194 16.9508 22.3175C16.8157 22.0858 16.6419 22.0568 16.3813 22.0182C15.4835 21.8734 15.0395 22.3271 14.7306 23.0704C14.6244 23.331 14.441 23.5627 14.2866 23.833C13.4467 23.4951 12.6262 23.1669 11.7864 22.8194C11.9216 22.2595 12.0277 21.7286 12.1725 21.2074C12.2594 20.9081 12.1629 20.744 11.9891 20.493C11.4968 19.8077 10.908 19.7787 10.2033 20.0586C9.91371 20.1745 9.59516 20.2227 9.24765 20.3193C8.89049 19.4891 8.55263 18.6879 8.18581 17.8288C8.68777 17.5295 9.17043 17.2206 9.68204 16.96C9.95233 16.8152 10.0006 16.6318 10.0199 16.3518C10.0875 15.5217 9.711 15.0197 8.95806 14.7398C8.68777 14.6432 8.4561 14.4598 8.1665 14.2861C8.49471 13.4656 8.82291 12.6547 9.17043 11.7859C9.72065 11.9114 10.2709 12.0176 10.8018 12.1721C11.1107 12.2589 11.2748 12.1528 11.5065 11.9693C12.1436 11.4867 12.2498 10.9365 11.9409 10.2318C11.8154 9.94219 11.7671 9.61399 11.6706 9.24717C12.4911 8.89966 13.3116 8.5425 14.1611 8.18533C14.47 8.69695 14.7789 9.1796 15.0588 9.68156C15.1843 9.89393 15.3387 9.93254 15.5897 9.97115C16.5164 10.1353 16.9701 9.67191 17.279 8.89966C17.3852 8.64868 17.5493 8.42666 17.7134 8.15637C18.5339 8.48458 19.3544 8.81278 20.2136 9.16029C20.0881 9.71052 19.9819 10.2607 19.8178 10.7917C19.7212 11.1006 19.8467 11.255 20.0301 11.4963C20.5128 12.1334 21.063 12.2396 21.7677 11.9307C22.0476 11.7956 22.3758 11.757 22.7427 11.6508ZM19.4413 16.0043C19.451 14.3344 18.1671 12.5871 16.0241 12.5485C14.3348 12.5196 12.7035 13.6683 12.5297 15.8402C12.3753 17.7515 14.0259 19.4312 15.9565 19.4408C17.8292 19.4601 19.422 17.9736 19.4413 16.0043Z" fill="#1971BD"/>
<path d="M27.1832 20.1841C26.8743 19.7883 27.2411 19.1801 26.5654 18.9388C25.9476 18.7168 25.8028 19.3539 25.3877 19.4215C25.0595 19.1029 24.7313 18.7747 24.3838 18.4369C24.432 18.0314 25.1174 17.8673 24.8664 17.2399C24.6251 16.6317 24.0749 16.902 23.6598 16.68C23.6598 16.236 23.6598 15.7726 23.6598 15.3093C24.0556 15.0679 24.6444 15.3865 24.8761 14.7397C25.0981 14.1219 24.461 13.9771 24.3838 13.4945C24.6927 13.1952 25.0209 12.8767 25.3491 12.5581C25.7835 12.616 25.9379 13.2918 26.575 13.0408C27.2411 12.7801 26.826 12.1623 27.1928 11.7955C27.5789 11.7955 28.023 11.7955 28.4477 11.7955C28.7759 12.1527 28.3802 12.7608 29.0173 13.0311C29.664 13.3014 29.8185 12.6354 30.1853 12.5774C30.5618 12.8863 30.9189 13.1663 31.2085 13.4076C31.0927 13.9771 30.4556 14.1605 30.7162 14.7976C30.9961 15.4541 31.585 15.0293 31.9808 15.3286C31.9808 15.7533 31.9808 16.207 31.9808 16.7186C31.7973 16.7476 31.6043 16.7476 31.4209 16.7958C31.2085 16.8538 30.9286 16.902 30.8224 17.0468C30.639 17.3074 30.5811 17.626 30.8706 17.9156C31.0154 18.0604 31.112 18.2535 31.2568 18.4658C30.9093 18.7747 30.5618 19.074 30.1853 19.4118C29.8281 19.3732 29.6833 18.6878 29.0366 18.9388C28.3801 19.1995 28.7566 19.7979 28.4477 20.1744C28.0713 20.1841 27.6176 20.1841 27.1832 20.1841ZM29.6544 15.9946C29.6544 14.9714 28.8338 14.1509 27.8299 14.1509C26.7681 14.1605 25.9476 14.9521 25.9379 15.9753C25.9379 16.931 26.8163 17.8094 27.7913 17.8191C28.8628 17.8384 29.6447 17.0661 29.6544 15.9946Z" fill="#1971BD"/>
<path d="M26.7197 21.4583C27.0769 21.6417 27.4051 21.7961 27.7236 21.9602C24.1134 29.3448 13.7749 31.9994 6.79572 25.4932C6.55439 25.8021 6.30341 26.1207 6.00416 26.5068C5.28018 24.8658 4.61412 23.3503 3.89014 21.7092C5.51186 22.4236 7.01774 23.08 8.67807 23.8136C8.29195 24.0742 7.97339 24.3059 7.64519 24.5279C12.5779 29.6634 22.4337 29.3931 26.7197 21.4583Z" fill="#1971BD"/>
<path d="M25.1657 6.47677C25.4359 6.15822 25.6773 5.86863 25.9862 5.50181C26.3626 6.35128 26.7005 7.10422 27.0287 7.86682C27.3666 8.62941 27.6948 9.39201 28.0905 10.2704C26.4688 9.55611 24.9533 8.89005 23.3702 8.19502C23.708 7.91508 24.0073 7.67375 24.2969 7.43243C19.6441 2.46108 9.72071 2.41282 5.28029 10.5214C4.94243 10.3573 4.61423 10.1932 4.27637 10.0291C7.6646 2.86651 17.9838 -0.145254 25.1657 6.47677Z" fill="#1971BD"/>
<path d="M3.52338 20.1841C3.21448 19.7883 3.5813 19.1801 2.90558 18.9388C2.28778 18.7168 2.14299 19.3539 1.7279 19.4215C1.3997 19.1029 1.07149 18.7747 0.723982 18.4369C0.772247 18.0314 1.45762 17.8673 1.20664 17.2399C0.965309 16.6221 0.424736 16.8924 0 16.68C0 16.236 0 15.7726 0 15.3093C0.395777 15.0679 0.984615 15.3865 1.21629 14.7397C1.43831 14.1219 0.801207 13.9771 0.723982 13.4945C1.03288 13.1952 1.36109 12.8767 1.68929 12.5581C2.12368 12.616 2.27813 13.2918 2.91523 13.0408C3.5813 12.7801 3.16621 12.1623 3.53303 11.7955C3.91915 11.7955 4.3632 11.7955 4.78793 11.7955C5.11614 12.1527 4.72036 12.7608 5.35747 13.0311C6.00422 13.3014 6.15867 12.6354 6.52549 12.5774C6.90196 12.8863 7.25912 13.1663 7.54872 13.4076C7.43288 13.9771 6.79578 14.1605 7.05641 14.7976C7.33635 15.4541 7.92519 15.0293 8.32096 15.3286C8.32096 15.7533 8.32096 16.207 8.32096 16.7186C8.13756 16.7476 7.94449 16.7476 7.76109 16.7958C7.54872 16.8538 7.26878 16.902 7.16259 17.0468C6.97918 17.3074 6.92127 17.626 7.21086 17.9156C7.35566 18.0604 7.45219 18.2535 7.59698 18.4658C7.24947 18.7747 6.90196 19.074 6.52549 19.4118C6.16833 19.3732 6.02353 18.6878 5.37677 18.9388C4.72036 19.1995 5.09683 19.7979 4.78793 20.1744C4.40181 20.1841 3.94811 20.1841 3.52338 20.1841ZM5.98492 15.9946C5.98492 14.9714 5.1644 14.1509 4.16048 14.1509C3.09864 14.1605 2.27813 14.9521 2.26848 15.9753C2.26848 16.931 3.14691 17.8094 4.12187 17.8191C5.19336 17.8384 5.97526 17.0661 5.98492 15.9946Z" fill="#1971BD"/>
</svg>
