<svg width="32" height="32" viewBox="0 0 32 32" fill="none" xmlns="http://www.w3.org/2000/svg">
<g clip-path="url(#clip0)">
<path d="M22.6952 4.59875C21.7661 5.6579 20.8575 6.70339 19.9283 7.7352C19.8669 7.80353 19.6619 7.78987 19.5594 7.74887C17.4552 6.88105 15.3032 6.74438 13.1581 7.49604C10.0701 8.57569 8.06156 10.7282 7.28957 13.9056C5.82757 19.9052 10.6986 25.5221 16.8745 24.9413C21.6636 24.4903 25.1546 20.4177 24.9634 15.5524C24.9497 15.1424 25.0453 14.8554 25.3186 14.5548C26.2546 13.5298 27.1632 12.4775 28.0786 11.432C28.1606 11.3363 28.2426 11.2475 28.3724 11.1108C28.4885 11.473 28.6047 11.7941 28.6935 12.1153C28.7823 12.4091 28.8438 12.7098 28.9189 13.0105C28.9804 13.2769 29.1307 13.4204 29.4177 13.4341C29.9984 13.4614 30.5791 13.5024 31.1529 13.5434C31.638 13.5776 31.8634 13.8031 31.9113 14.2951C32.0752 15.8941 32.0137 17.4794 31.7131 19.0579C31.6038 19.6182 31.3784 19.8027 30.7977 19.7958C30.2648 19.7822 29.7251 19.7822 29.1922 19.7617C28.8848 19.748 28.6935 19.8642 28.6047 20.158C28.3178 21.1488 27.8805 22.0713 27.3067 22.9323C27.0949 23.2535 27.1222 23.5063 27.3818 23.7796C27.7439 24.1554 28.0855 24.5586 28.4339 24.9481C28.7823 25.3444 28.7891 25.6588 28.4544 26.0756C27.4433 27.3397 26.2614 28.4125 24.9155 29.3145C24.492 29.5947 24.1777 29.5605 23.8224 29.1915C23.433 28.7884 23.0505 28.3852 22.6747 27.9752C22.4766 27.7566 22.2716 27.7019 22.012 27.8454C21.0624 28.3579 20.065 28.72 19.0061 28.9387C18.7396 28.9934 18.5961 29.1437 18.5825 29.4307C18.5552 30.0115 18.5142 30.5923 18.4732 31.1663C18.439 31.6515 18.2136 31.8838 17.7285 31.9317C16.123 32.1025 14.5244 32.0342 12.9394 31.7267C12.4202 31.6242 12.2221 31.385 12.2358 30.852C12.2426 30.2849 12.2563 29.7109 12.2768 29.1437C12.2904 28.8772 12.1743 28.7132 11.9215 28.638C10.8899 28.3237 9.92663 27.8796 9.02484 27.2851C8.77206 27.1142 8.54661 27.1416 8.32117 27.3534C7.91809 27.7361 7.49452 28.1051 7.07095 28.4672C6.68837 28.802 6.37411 28.802 5.97104 28.4809C4.70716 27.4696 3.62774 26.2874 2.73278 24.9413C2.43901 24.5039 2.47317 24.1964 2.86258 23.8206C3.26566 23.4311 3.66873 23.0485 4.07864 22.6726C4.30409 22.4676 4.33141 22.2558 4.19478 22.003C3.6824 21.06 3.32031 20.0555 3.1017 19.0032C3.04704 18.7367 2.88308 18.6069 2.59614 18.5932C2.01544 18.5727 1.43474 18.5249 0.860875 18.4839C0.396315 18.4497 0.164035 18.2174 0.116212 17.7527C-0.0545818 16.1196 0.0137359 14.5001 0.327997 12.8943C0.41681 12.4365 0.669586 12.2315 1.14098 12.2383C1.72168 12.2451 2.30238 12.2588 2.88308 12.2793C3.16318 12.2861 3.33398 12.1631 3.41596 11.9035C3.71655 10.8922 4.16745 9.94917 4.74815 9.06768C4.93261 8.78752 4.91895 8.55519 4.68667 8.30919C4.31092 7.91287 3.95567 7.49604 3.59358 7.08605C3.25883 6.70339 3.24516 6.38222 3.56626 5.9859C4.55686 4.69442 5.74559 3.60793 7.10511 2.70595C7.52868 2.42579 7.83611 2.46678 8.19819 2.84261C8.59444 3.25261 8.98385 3.66943 9.37326 4.08626C9.55772 4.28442 9.74901 4.31859 9.98129 4.19559C10.9514 3.67627 11.9762 3.30727 13.0487 3.08177C13.2879 3.03394 13.4108 2.88361 13.4245 2.62395C13.4518 2.02946 13.4928 1.4418 13.5338 0.854143C13.568 0.389484 13.7934 0.143487 14.2511 0.0956548C15.8703 -0.0751759 17.4757 -0.0136768 19.0744 0.300652C19.5799 0.40315 19.778 0.63548 19.7712 1.14797C19.7644 1.7083 19.7575 2.26179 19.7302 2.82211C19.7097 3.15011 19.8532 3.32777 20.1538 3.42344C21.0419 3.7036 21.9096 4.01109 22.6952 4.59875Z" fill="#1971BD"/>
<path d="M16.5898 20.5691C16.4187 20.7531 16.1834 20.8642 15.9308 20.8733C15.6782 20.8824 15.4355 20.7886 15.2516 20.6175L9.71988 15.4701C9.1469 14.9369 9.11436 14.0355 9.64741 13.4624L10.2923 12.7691C10.8254 12.196 11.7266 12.1634 12.2996 12.6966L15.7516 15.9088L26.801 4.03625C27.334 3.46315 28.2352 3.43062 28.8082 3.96378L29.5015 4.60885C30.0744 5.14202 30.107 6.04341 29.5739 6.61651L16.5898 20.5691Z" fill="#1971BD"/>
</g>
<defs>
<clipPath id="clip0">
<rect width="32" height="32" fill="white"/>
</clipPath>
</defs>
</svg>
