<svg width="32" height="32" viewBox="0 0 32 32" fill="none" xmlns="http://www.w3.org/2000/svg">
<g clip-path="url(#clip0)">
<path d="M30.0924 4.46799H28.7625V3.38074C28.7625 3.03561 28.4827 2.75574 28.1375 2.75574H23.2413C22.8961 2.75574 22.6163 3.03561 22.6163 3.38074V4.46799H19.0731V3.38074C19.0731 3.03561 18.7933 2.75574 18.4481 2.75574H13.5519C13.2067 2.75574 12.9269 3.03561 12.9269 3.38074V4.46799H9.38375V3.38074C9.38375 3.03561 9.10394 2.75574 8.75875 2.75574H3.8625C3.51731 2.75574 3.2375 3.03561 3.2375 3.38074V4.46799H1.90762C0.85575 4.46799 0 5.32374 0 6.37561V27.1115C0 28.2875 0.958187 29.2442 2.13594 29.2442H29.4543C30.858 29.2442 32 28.1022 32 26.6986V20.5234C32 20.1782 31.7202 19.8984 31.375 19.8984C31.0298 19.8984 30.75 20.1782 30.75 20.5234V26.6986C30.75 27.413 30.1688 27.9942 29.4543 27.9942H2.13594C1.64744 27.9942 1.25 27.5982 1.25 27.1115V10.2565H30.75V14.8499C30.75 15.1951 31.0298 15.4749 31.375 15.4749C31.7202 15.4749 32 15.1951 32 14.8499V6.37561C32 5.32374 31.1442 4.46799 30.0924 4.46799V4.46799ZM23.8663 4.00574H27.5125V6.22642H23.8663V4.00574ZM14.1769 4.00574H17.8231V6.22642H14.1769V4.00574ZM4.4875 4.00574H8.13369V6.22642H4.4875V4.00574ZM1.25 9.00649V6.37561C1.25 6.01299 1.545 5.71799 1.90762 5.71799H3.2375V6.85143C3.2375 7.19655 3.51731 7.47643 3.8625 7.47643H8.75869C9.10388 7.47643 9.38369 7.19655 9.38369 6.85143V5.71799H12.9269V6.85143C12.9269 7.19655 13.2067 7.47643 13.5519 7.47643H18.4481C18.7933 7.47643 19.0731 7.19655 19.0731 6.85143V5.71799H22.6162V6.85143C22.6162 7.19655 22.8961 7.47643 23.2412 7.47643H28.1375C28.4827 7.47643 28.7625 7.19655 28.7625 6.85143V5.71799H30.0924C30.455 5.71799 30.75 6.01299 30.75 6.37561V9.00649H1.25Z" fill="#1971BD"/>
<path d="M31.8943 17.3513C31.7478 17.1275 31.4595 17.024 31.2034 17.0976C30.9554 17.1689 30.7744 17.3901 30.7522 17.6471C30.7298 17.9069 30.8803 18.1598 31.1172 18.2668C31.3516 18.3728 31.6343 18.322 31.8168 18.14C32.0253 17.9319 32.0573 17.5959 31.8943 17.3513V17.3513Z" fill="#1971BD"/>
<path d="M13.4556 17.8686C13.3918 17.6725 13.2356 17.5205 13.0379 17.4622L10.3638 16.6739L8.78775 14.3743C8.67125 14.2043 8.47838 14.1027 8.27225 14.1027C8.06613 14.1027 7.87325 14.2043 7.75669 14.3743L6.18063 16.6739L3.5065 17.4622C3.30875 17.5205 3.1525 17.6725 3.08882 17.8686C3.02513 18.0647 3.06219 18.2795 3.18788 18.4429L4.88794 20.6524L4.81125 23.4392C4.80557 23.6453 4.90188 23.8409 5.06863 23.9621C5.23538 24.0832 5.45119 24.1144 5.64544 24.0453L8.27219 23.1112L10.8989 24.0453C10.967 24.0696 11.0378 24.0814 11.1083 24.0814C11.2385 24.0814 11.3674 24.0407 11.4757 23.9621C11.6424 23.8409 11.7388 23.6453 11.7331 23.4392L11.6564 20.6524L13.3564 18.4429C13.4821 18.2795 13.5193 18.0647 13.4556 17.8686V17.8686ZM10.5302 20.0663C10.4426 20.1802 10.3968 20.3209 10.4008 20.4646L10.4585 22.562L8.48163 21.859C8.34619 21.8108 8.19825 21.8108 8.06282 21.859L6.08594 22.562L6.14363 20.4646C6.14757 20.3209 6.10188 20.1802 6.01419 20.0663L4.73475 18.4034L6.74732 17.8101C6.88519 17.7695 7.00488 17.6825 7.08613 17.5639L8.27232 15.8332L9.45844 17.5639C9.53969 17.6825 9.65938 17.7694 9.79725 17.8101L11.8098 18.4034L10.5302 20.0663Z" fill="#1971BD"/>
<path d="M14.9962 12.4525C14.651 12.4525 14.3712 12.7324 14.3712 13.0775V25.1066C14.3712 25.4517 14.651 25.7316 14.9962 25.7316H27.0253C27.3705 25.7316 27.6503 25.4517 27.6503 25.1066V13.0775C27.6503 12.7324 27.3705 12.4525 27.0253 12.4525H14.9962ZM15.6212 17.7123H18.3809V20.472H15.6212V17.7123ZM19.6309 17.7123H22.3906V20.472H19.6309V17.7123ZM23.6406 17.7123H26.4003V20.472H23.6406V17.7123ZM26.4003 16.4623H23.6406V13.7025H26.4003V16.4623ZM22.3906 16.4623H19.6309V13.7025H22.3906V16.4623ZM15.6212 13.7025H18.3809V16.4622H15.6212V13.7025ZM15.6212 21.722H18.3809V24.4816H15.6212V21.722ZM19.6309 21.722H22.3906V24.4816H19.6309V21.722ZM26.4003 24.4816H23.6406V21.722H26.4003V24.4816Z" fill="#1971BD"/>
</g>
<defs>
<clipPath id="clip0">
<rect width="32" height="32" fill="white"/>
</clipPath>
</defs>
</svg>
