<svg width="32" height="32" viewBox="0 0 32 32" fill="none" xmlns="http://www.w3.org/2000/svg">
<path d="M29.879 27.8407H27.8198C27.4697 27.8347 27.1289 27.7261 26.8398 27.5285C26.5507 27.3309 26.3258 27.0528 26.193 26.7288C26.0737 26.4578 25.984 26.1747 25.9254 25.8845C25.887 25.798 25.8678 25.7043 25.8689 25.6097C25.87 25.5151 25.8915 25.4218 25.9318 25.3363C25.9722 25.2507 26.0305 25.1749 26.1028 25.1139C26.1752 25.0529 26.2597 25.0081 26.3509 24.9827C26.442 24.9573 26.5375 24.9519 26.631 24.9667C26.7244 24.9815 26.8136 25.0163 26.8924 25.0686C26.9712 25.1209 27.0378 25.1896 27.0877 25.27C27.1376 25.3504 27.1695 25.4406 27.1815 25.5344C27.2315 25.7595 27.3004 25.9799 27.3874 26.1934C27.4199 26.2767 27.4764 26.3486 27.5497 26.3999C27.6229 26.4512 27.7098 26.4797 27.7992 26.4817H29.8584C29.9461 26.4841 30.0325 26.4598 30.106 26.412C30.1796 26.3642 30.2369 26.2951 30.2703 26.214C30.5079 25.7095 30.6477 25.1644 30.6821 24.6078C30.6648 24.0312 30.5317 23.464 30.2909 22.9398C30.2567 22.8608 30.1986 22.7944 30.1247 22.75C30.0508 22.7057 29.9649 22.6857 29.879 22.6927H27.8198C27.7303 22.6794 27.639 22.6993 27.5632 22.7486C27.4873 22.7979 27.4321 22.8732 27.408 22.9604C27.3111 23.1722 27.2353 23.3929 27.1815 23.6194C27.1525 23.7665 27.0726 23.8987 26.9559 23.9928C26.8392 24.087 26.693 24.137 26.5431 24.1342H22.0541L21.5804 24.6284L22.0746 25.1432H23.9279C24.0228 25.1262 24.1202 25.1303 24.2133 25.155C24.3064 25.1798 24.393 25.2247 24.4669 25.2865C24.5408 25.3484 24.6002 25.4257 24.641 25.513C24.6818 25.6003 24.7029 25.6955 24.7029 25.7918C24.7029 25.8882 24.6818 25.9834 24.641 26.0707C24.6002 26.158 24.5408 26.2353 24.4669 26.2971C24.393 26.359 24.3064 26.4039 24.2133 26.4286C24.1202 26.4534 24.0228 26.4575 23.9279 26.4405H21.8687C21.7814 26.4425 21.6946 26.4272 21.6133 26.3954C21.532 26.3635 21.4578 26.3159 21.3951 26.2552L20.1802 25.0196C20.1204 24.9603 20.073 24.8897 20.0406 24.812C20.0082 24.7342 19.9916 24.6508 19.9916 24.5666C19.9916 24.4824 20.0082 24.399 20.0406 24.3213C20.073 24.2435 20.1204 24.1729 20.1802 24.1136L21.3127 22.9398C21.4374 22.8115 21.6075 22.7376 21.7864 22.7339H26.0695C26.1038 22.6217 26.1451 22.5116 26.193 22.4045C26.3249 22.0756 26.5523 21.7938 26.846 21.5956C27.1397 21.3973 27.4861 21.2918 27.8404 21.2925H29.8996C30.2401 21.2939 30.5733 21.3913 30.861 21.5734C31.1488 21.7555 31.3794 22.015 31.5264 22.3221C31.8368 23.0442 31.9979 23.8217 32 24.6078C31.9624 25.3186 31.7949 26.0165 31.5058 26.667C31.3704 26.9817 31.1465 27.2504 30.8614 27.4405C30.5763 27.6305 30.2422 27.7338 29.8996 27.7378L29.879 27.8407ZM16.4736 25.2667H7.26898H7.10425H6.79537C5.25467 25.1325 3.79353 24.5237 2.61335 23.5243C1.43316 22.5248 0.592044 21.1839 0.20592 19.6863V19.3156L0 18.8626V17.5241L0.20592 16.824C0.32466 16.3064 0.497198 15.8026 0.720721 15.3208C1.14001 14.4171 1.74574 13.6123 2.49812 12.9593C3.2505 12.3063 4.13251 11.8198 5.08623 11.5319C5.23335 11.5029 5.36556 11.423 5.45969 11.3063C5.55382 11.1896 5.60386 11.0434 5.60103 10.8935C5.84805 9.14317 6.6628 7.5223 7.92016 6.27982C9.17752 5.03734 10.808 4.24194 12.5611 4.01578C12.9452 3.99474 13.3302 3.99474 13.7143 4.01578C15.1751 3.98969 16.6159 4.35857 17.8845 5.08346C19.153 5.80836 20.2023 6.86236 20.9215 8.13418C20.9872 8.22375 21.0703 8.2991 21.1658 8.35572C21.2614 8.41234 21.3674 8.44906 21.4775 8.46365C23.082 8.60332 24.6132 9.19905 25.8902 10.1805C27.1672 11.162 28.1369 12.4883 28.6847 14.0029C29.2585 15.4651 29.3664 17.069 28.9936 18.5949C27.7399 18.0832 26.389 17.8538 25.0367 17.9229C23.6844 17.992 22.3639 18.3579 21.169 18.9947C19.974 19.6315 18.9338 20.5236 18.1224 21.6075C17.3109 22.6915 16.748 23.9408 16.4736 25.2667ZM28.6641 24.6078C28.6474 24.5158 28.6511 24.4213 28.6749 24.3308C28.6987 24.2404 28.7421 24.1564 28.8021 24.0846C28.862 24.0128 28.9369 23.9551 29.0216 23.9154C29.1063 23.8758 29.1986 23.8553 29.2921 23.8553C29.3856 23.8553 29.478 23.8758 29.5627 23.9154C29.6474 23.9551 29.7223 24.0128 29.7822 24.0846C29.8422 24.1564 29.8856 24.2404 29.9094 24.3308C29.9332 24.4213 29.9369 24.5158 29.9202 24.6078C29.9202 24.6907 29.9036 24.7727 29.8713 24.8491C29.839 24.9254 29.7916 24.9944 29.732 25.0521C29.6725 25.1097 29.6019 25.1548 29.5246 25.1846C29.4472 25.2144 29.3647 25.2283 29.2819 25.2256C29.2 25.2284 29.1183 25.2144 29.0421 25.1844C28.9658 25.1544 28.8966 25.109 28.8386 25.051C28.7807 24.9931 28.7353 24.9238 28.7053 24.8476C28.6752 24.7713 28.6612 24.6897 28.6641 24.6078Z" fill="#1971BD"/>
<path d="M12.3552 10.7699C12.8494 10.5845 13.0759 10.7699 13.1789 11.2023C13.3068 11.981 13.5067 12.7462 13.7761 13.488L14.2085 11.6759C14.2448 11.454 14.3142 11.2388 14.4144 11.0376C14.4578 10.9542 14.5191 10.8814 14.5938 10.8245C14.6686 10.7675 14.755 10.7278 14.8468 10.7081C14.9361 10.7278 15.0197 10.7678 15.0911 10.8249C15.1625 10.882 15.2198 10.9548 15.2587 11.0376C15.4852 11.8612 15.6705 12.7055 15.9588 13.5498C15.9588 13.2821 16.1235 13.0144 16.1853 12.7673C16.2471 12.5202 16.4736 11.7171 16.4736 11.1817C16.4736 10.6463 16.7825 10.6051 17.2973 10.7699L17.0296 11.5935C16.7825 12.4172 16.5148 13.2409 16.2883 14.0646C16.2883 14.3323 16.0412 14.5382 15.7735 14.4352C15.6771 14.4042 15.5895 14.3506 15.5179 14.279C15.4462 14.2074 15.3927 14.1198 15.3616 14.0234C15.1351 13.2615 14.9704 12.479 14.6615 11.6965C14.4968 12.4378 14.3115 13.1791 14.1261 13.9204C14.1261 14.1675 14.1261 14.4146 13.6937 14.4352C13.2613 14.4558 13.323 14.3117 13.2201 13.9616C12.8906 12.8908 12.5611 11.8406 12.3552 10.7699Z" fill="white"/>
<path d="M11.1197 12.2525C11.2638 11.3465 10.852 10.9552 9.98713 11.0994L9.14286 11.3465C8.95753 11.0376 9.14286 10.8317 9.36937 10.7493C9.74282 10.6294 10.1307 10.5602 10.5225 10.5434C10.8354 10.5141 11.1474 10.6071 11.3931 10.8029C11.6389 10.9987 11.7992 11.2821 11.8404 11.5936V11.8201C11.8404 12.5408 11.9846 13.2615 12.0052 13.9823C12.0052 14.1264 11.7786 14.2706 11.6345 14.4559L11.2021 13.9411C10.9487 14.2255 10.6026 14.4106 10.2254 14.4634C9.84822 14.5162 9.46455 14.4333 9.14286 14.2294C8.95095 14.0761 8.81757 13.8615 8.76508 13.6215C8.71259 13.3816 8.74419 13.1309 8.85457 12.9115C9.38996 12.026 10.296 12.2525 11.1197 12.2525ZM10.4813 12.6438C9.88417 12.6438 9.5547 12.8703 9.53411 13.2821C9.52257 13.3595 9.5269 13.4384 9.54682 13.5141C9.56675 13.5897 9.60186 13.6605 9.65002 13.7221C9.69818 13.7838 9.75838 13.835 9.82695 13.8726C9.89553 13.9103 9.97105 13.9336 10.0489 13.9411C10.2991 13.9585 10.5464 13.878 10.7384 13.7166C10.9305 13.5553 11.0524 13.3257 11.0785 13.0762C11.2227 12.5408 10.6873 12.8497 10.4813 12.7056V12.6438Z" fill="white"/>
<path d="M17.7297 13.7558C18.004 13.8511 18.2867 13.92 18.574 13.9617C18.8311 14.0237 19.0994 14.0237 19.3565 13.9617C19.4421 13.9184 19.5175 13.8575 19.5778 13.7829C19.6382 13.7084 19.682 13.622 19.7066 13.5293C19.6949 13.4319 19.661 13.3385 19.6074 13.2564C19.5539 13.1742 19.4821 13.1056 19.3977 13.0556L18.5328 12.6644C18.3026 12.6069 18.1 12.4701 17.9607 12.278C17.8213 12.0859 17.7542 11.8509 17.7709 11.6142C17.7706 11.393 17.846 11.1784 17.9846 11.006C18.1232 10.8337 18.3167 10.714 18.5328 10.667C18.9499 10.6155 19.3718 10.6155 19.7889 10.667C20.0978 10.667 20.2008 10.9347 20.0978 11.2435C19.7389 11.1639 19.3737 11.1156 19.0064 11.0994C18.8072 11.1803 18.6406 11.3252 18.5328 11.5112C18.3887 11.8407 18.677 12.026 18.9653 12.129L19.7889 12.4173C19.9902 12.4752 20.1672 12.5968 20.2934 12.7639C20.4197 12.931 20.4883 13.1345 20.4891 13.3439C20.4989 13.5653 20.4385 13.7841 20.3164 13.969C20.1943 14.154 20.0169 14.2955 19.8095 14.3735C19.5094 14.5063 19.1832 14.5697 18.8552 14.559C18.5272 14.5483 18.2059 14.4638 17.9151 14.3118C17.7709 14.3118 17.6885 14.0029 17.5856 13.8381L17.7297 13.7558Z" fill="white"/>
<path fill-rule="evenodd" clip-rule="evenodd" d="M21.148 16.721C19.2495 17.976 17.0196 18.6357 14.7439 18.6154C11.8679 18.639 9.08343 17.6058 6.91892 15.712C6.75419 15.5678 6.91892 15.3825 7.10425 15.4854C9.19254 16.6542 11.5175 17.3371 13.9062 17.4833C16.2948 17.6295 18.6857 17.2352 20.9009 16.3297C21.1892 16.1856 21.4363 16.515 21.148 16.721Z" fill="white"/>
<path fill-rule="evenodd" clip-rule="evenodd" d="M21.8687 15.9179C21.6422 15.6502 20.4067 15.7738 19.8095 15.9179C19.6242 15.9179 19.6036 15.7944 19.8095 15.6914C20.2249 15.4192 20.6981 15.2477 21.1914 15.1905C21.6847 15.1333 22.1846 15.192 22.6512 15.362C22.7072 15.839 22.6466 16.3225 22.4744 16.7708C22.3022 17.2192 22.0237 17.619 21.6628 17.936C21.5187 18.0595 21.3951 17.936 21.4569 17.936C21.6216 17.3388 22.0952 16.1856 21.8687 15.9179Z" fill="white"/>
</svg>
