<svg xmlns="http://www.w3.org/2000/svg" width="16.534" height="12.565" viewBox="0 0 16.534 12.565">
  <g id="awsaccesskeyrequests" transform="translate(-590.573 -172.729)">
    <path id="Union_3" data-name="Union 3" d="M14.511,11.565h-1a.857.857,0,0,1-.792-.535,2.681,2.681,0,0,1-.13-.41.318.318,0,1,1,.618-.148,2.207,2.207,0,0,0,.1.314.226.226,0,0,0,.205.141h1a.217.217,0,0,0,.2-.13,2.113,2.113,0,0,0,.186-.825,2.039,2.039,0,0,0-.188-.811.216.216,0,0,0-.2-.126h-.993a.208.208,0,0,0-.2.13,2.673,2.673,0,0,0-.105.328.318.318,0,0,1-.309.243H10.712l-.236.243.245.249h.9a.318.318,0,0,1,0,.636H10.588a.32.32,0,0,1-.227-.095L9.8,10.2a.318.318,0,0,1,0-.445l.546-.562a.317.317,0,0,1,.229-.1H12.66c.022-.064.041-.119.059-.162a.841.841,0,0,1,.8-.538h.995a.857.857,0,0,1,.782.5,2.687,2.687,0,0,1,.243,1.069,2.758,2.758,0,0,1-.239,1.081.853.853,0,0,1-.782.512ZM8.028,10.316h-4.5L3.451,10.3a.823.823,0,0,0-.153-.031A3.626,3.626,0,0,1,.1,7.606L.057,7.43C.037,7.354.019,7.282,0,7.21V6.56c.034-.112.066-.226.1-.337a4.677,4.677,0,0,1,.248-.738A3.451,3.451,0,0,1,2.47,3.651a.313.313,0,0,0,.248-.308A3.922,3.922,0,0,1,6.1.03,5.41,5.41,0,0,1,6.655,0a3.929,3.929,0,0,1,3.5,2.01.437.437,0,0,0,.278.156,4.11,4.11,0,0,1,3.5,2.694,3.72,3.72,0,0,1,.148,2.225,4.475,4.475,0,0,0-1.653-.313,4.522,4.522,0,0,0-4.4,3.544h0Zm5.889-.369a.306.306,0,1,1,.307.307A.307.307,0,0,1,13.917,9.947Z" transform="translate(591.073 173.229)" fill="#0071bd" stroke="rgba(0,0,0,0)" stroke-width="1"/>
    <g id="Group_9349" data-name="Group 9349" transform="translate(-45.593 -1.158)">
      <path id="Path_21108" data-name="Path 21108" d="M6973.483,2044.717c.242-.084.356-.021.405.211a6.345,6.345,0,0,0,.335,1.113q.105-.442.214-.884a1.159,1.159,0,0,1,.077-.312.3.3,0,0,1,.209-.151.265.265,0,0,1,.2.156c.112.4.2.806.344,1.218.036-.127.075-.254.105-.381.069-.254.149-.506.2-.763.041-.223.15-.288.4-.209-.041.135-.083.272-.125.408-.122.4-.246.8-.364,1.2-.039.13-.115.224-.249.18a.345.345,0,0,1-.2-.2c-.107-.375-.188-.757-.334-1.136-.087.362-.17.725-.26,1.086-.027.114-.027.241-.217.244s-.222-.088-.263-.228C6973.8,2045.749,6973.639,2045.235,6973.483,2044.717Z" transform="translate(-6330.87 -1867.053)" fill="#fff" stroke="rgba(0,0,0,0)" stroke-width="1"/>
      <path id="Path_21109" data-name="Path 21109" d="M6964.155,2045.243c.064-.442-.129-.63-.547-.556-.137.025-.271.073-.415.113-.086-.146-.034-.25.109-.289a2.056,2.056,0,0,1,.557-.094.577.577,0,0,1,.642.619c.025.351.071.7.084,1.051,0,.069-.11.141-.187.232l-.209-.258a.756.756,0,0,1-.963.139.51.51,0,0,1-.142-.632C6963.312,2045.1,6963.744,2045.212,6964.155,2045.243Zm-.314.188c-.288,0-.451.112-.462.318a.287.287,0,0,0,.3.316.475.475,0,0,0,.5-.423C6964.2,2045.353,6963.941,2045.5,6963.841,2045.431Z" transform="translate(-6322.087 -1866.828)" fill="#fff" stroke="rgba(0,0,0,0)" stroke-width="1"/>
      <path id="Path_21110" data-name="Path 21110" d="M6989.821,2046.04a2.818,2.818,0,0,0,.409.1.838.838,0,0,0,.371-.032.3.3,0,0,0,.174-.21.308.308,0,0,0-.152-.226,3.55,3.55,0,0,0-.442-.163.492.492,0,0,1-.367-.509.477.477,0,0,1,.423-.462,2.1,2.1,0,0,1,.605.022c.151.02.206.127.156.278a2.56,2.56,0,0,0-.532-.066.422.422,0,0,0-.307.18c-.075.156.063.25.209.3s.272.084.4.136a.462.462,0,0,1,.34.453.509.509,0,0,1-.327.494,1.044,1.044,0,0,1-.874-.021c-.073-.032-.106-.149-.157-.227Z" transform="translate(-6344.54 -1866.922)" fill="#fff" stroke="rgba(0,0,0,0)" stroke-width="1"/>
      <g id="Group_9347" data-name="Group 9347" transform="translate(639.992 179.795)">
        <path id="Path_21100" data-name="Path 21100" d="M8.611,119.754a5.616,5.616,0,0,1-3.111.925,5.715,5.715,0,0,1-3.8-1.41c-.079-.07-.008-.164.087-.109a7.726,7.726,0,0,0,6.7.405C8.629,119.5,8.749,119.654,8.611,119.754Z" transform="translate(-1.668 -118.995)" fill="#fff" stroke="rgba(0,0,0,0)" stroke-width="1" fill-rule="evenodd"/>
        <path id="Path_21101" data-name="Path 21101" d="M247.039,113.563c-.107-.134-.71-.065-.983-.032-.082.01-.095-.06-.02-.112a1.554,1.554,0,0,1,1.361-.124,1.436,1.436,0,0,1-.475,1.248c-.069.057-.135.027-.1-.047C246.919,114.249,247.147,113.695,247.039,113.563Z" transform="translate(-239.746 -113.192)" fill="#fff" stroke="rgba(0,0,0,0)" stroke-width="1" fill-rule="evenodd"/>
      </g>
    </g>
  </g>
</svg>
