<svg width="32" height="32" viewBox="0 0 32 32" fill="none" xmlns="http://www.w3.org/2000/svg">
<path d="M3.81715 18.0742C3.95976 17.4258 4.15861 16.791 4.41143 16.1771C4.7744 15.3999 5.29831 14.7086 5.94848 14.1491C6.59865 13.5895 7.36025 13.1745 8.18286 12.9314C8.2971 12.9003 8.39947 12.8359 8.47685 12.7463C8.55422 12.6567 8.60308 12.546 8.61715 12.4285C8.81488 10.9163 9.51109 9.51316 10.5957 8.44099C11.6803 7.36882 13.0913 6.68881 14.6057 6.50851C16.0187 6.29454 17.4634 6.51427 18.749 7.13866C20.0345 7.76305 21.1003 8.76274 21.8057 10.0057C21.9257 10.1582 22.0957 10.2634 22.2857 10.3028C23.6684 10.4169 24.9893 10.9255 26.0914 11.7683C27.1935 12.6111 28.0305 13.7526 28.5029 15.0571C29.0433 16.5102 29.0753 18.1035 28.5938 19.5771C28.1123 21.0508 27.1456 22.3177 25.8514 23.1714C24.7185 23.9849 23.3969 24.4962 22.0114 24.6571H21.7829H10.0571H9.64572C8.33204 24.5378 7.08588 24.0211 6.0732 23.1758C5.06052 22.3306 4.32938 21.1968 3.97715 19.9257L3.79429 19.2857L3.81715 18.0742Z" fill="#1971BD"/>
<path d="M31.4286 1.57141H0.571428V30.1428H31.4286V1.57141Z" stroke="#1971BD" stroke-width="0.5" stroke-linecap="round" stroke-linejoin="round" stroke-dasharray="0.61 1"/>
<path d="M14.3543 14.0286C14.7657 13.8914 14.9714 14.0286 15.0629 14.4172C15.2051 15.088 15.4039 15.7456 15.6571 16.3829C15.7714 15.8572 16 15.3314 16 14.7143C16.0018 14.5232 16.0488 14.3352 16.1371 14.1657C16.1734 14.0975 16.2255 14.039 16.2892 13.9952C16.3529 13.9514 16.4262 13.9237 16.5029 13.9143C16.5801 13.923 16.6533 13.9533 16.7139 14.0019C16.7746 14.0504 16.8203 14.1152 16.8457 14.1886C17.0514 14.8972 17.2114 15.6057 17.4629 16.3372C17.4629 16.1086 17.6 15.88 17.6457 15.6514C17.6914 15.4229 17.8971 14.76 17.9886 14.3029C18.08 13.8457 18.2857 13.8914 18.7429 14.0286L18.5143 14.7143C18.2857 15.4229 18.08 16.1314 17.8743 16.84C17.8743 17.0686 17.6686 17.2286 17.4171 17.16C17.3383 17.1315 17.2668 17.086 17.2075 17.0268C17.1483 16.9675 17.1028 16.896 17.0743 16.8172C16.8686 16.1314 16.7314 15.4686 16.48 14.7829C16.32 15.4457 16.1829 16.0857 16.0229 16.7257C16.0229 16.9314 16.0229 17.1372 15.6343 17.16C15.2457 17.1829 15.2457 17 15.1771 16.7714C14.9029 15.8572 14.6057 14.9429 14.3543 14.0286Z" fill="white"/>
<path d="M13.3714 15.3771C13.4857 14.5771 13.1429 14.2571 12.4114 14.3713C12.16 14.3713 11.9314 14.5085 11.68 14.5771C11.4286 14.6456 11.68 14.1428 11.8629 14.0742C12.1791 13.9655 12.5114 13.9114 12.8457 13.9142C12.9797 13.895 13.1162 13.9031 13.2469 13.9379C13.3777 13.9727 13.5001 14.0335 13.6068 14.1168C13.7135 14.2 13.8023 14.3039 13.8679 14.4223C13.9335 14.5406 13.9746 14.671 13.9886 14.8056C14.0001 14.8737 14.0001 14.9433 13.9886 15.0113C13.9886 15.6285 14.1257 16.2456 14.1486 16.8628C14.1486 16.8628 13.9429 17.1142 13.8057 17.2742L13.44 16.8171C13.2206 17.0429 12.929 17.1848 12.6159 17.2182C12.3028 17.2516 11.9879 17.1744 11.7257 16.9999C11.5725 16.8777 11.4614 16.7106 11.4081 16.522C11.3548 16.3334 11.3619 16.1328 11.4286 15.9485C11.8857 15.1028 12.6629 15.3085 13.3714 15.3771ZM12.8229 15.6971C12.2972 15.6971 12.0229 15.9028 12 16.2685C11.9937 16.3346 12.0006 16.4013 12.0202 16.4647C12.0398 16.5281 12.0718 16.587 12.1143 16.638C12.1568 16.689 12.209 16.7311 12.2678 16.7618C12.3267 16.7925 12.391 16.8113 12.4572 16.8171C12.5653 16.8265 12.6742 16.8144 12.7777 16.7815C12.8811 16.7486 12.977 16.6956 13.0599 16.6254C13.1427 16.5553 13.2109 16.4695 13.2604 16.373C13.31 16.2764 13.3399 16.171 13.3486 16.0628C13.3486 15.5599 12.9372 15.8342 12.7543 15.6971H12.8229Z" fill="white"/>
<path d="M19.0857 16.6114C19.3159 16.6937 19.5531 16.7549 19.7943 16.7943C20.0128 16.8406 20.2386 16.8406 20.4572 16.7943C20.5341 16.7606 20.6027 16.7104 20.658 16.6471C20.7133 16.5839 20.754 16.5093 20.7772 16.4286C20.7817 16.3415 20.7653 16.2546 20.7296 16.1751C20.6938 16.0956 20.6396 16.0258 20.5714 15.9714L19.7943 15.6743C19.5742 15.6351 19.3769 15.5147 19.2414 15.3369C19.1059 15.1591 19.0422 14.9369 19.0629 14.7143C19.0719 14.5104 19.1524 14.3161 19.2903 14.1656C19.4283 14.0152 19.6148 13.9181 19.8172 13.8914C20.1738 13.8458 20.5348 13.8458 20.8914 13.8914C21.1657 13.8914 21.2572 14.12 21.1657 14.3943C20.8584 14.3226 20.5442 14.2843 20.2286 14.28C20.1081 14.3008 19.9948 14.3514 19.899 14.4273C19.8032 14.5032 19.7279 14.6018 19.68 14.7143C19.5429 14.9886 19.7943 15.1486 20.0457 15.24L20.7543 15.4914C20.9315 15.5372 21.0883 15.6407 21.2001 15.7856C21.3119 15.9304 21.3722 16.1084 21.3714 16.2914C21.3739 16.4798 21.3182 16.6643 21.2118 16.8198C21.1054 16.9753 20.9536 17.0941 20.7772 17.16C20.5375 17.2722 20.2761 17.3304 20.0114 17.3304C19.7468 17.3304 19.4854 17.2722 19.2457 17.16C19.1086 17.16 19.04 16.8857 18.9486 16.7486L19.0857 16.6114Z" fill="white"/>
<path fill-rule="evenodd" clip-rule="evenodd" d="M22.0114 19.1486C20.3827 20.2391 18.4628 20.8127 16.5029 20.7943C14.0262 20.8165 11.6273 19.9301 9.76 18.3029C9.62286 18.1658 9.76 18.0058 9.92 18.0972C11.7188 19.1047 13.7215 19.6936 15.7793 19.8203C17.8371 19.9469 19.897 19.608 21.8057 18.8286C22.0343 18.7143 22.2629 18.9886 22.0114 19.1486Z" fill="white"/>
<path fill-rule="evenodd" clip-rule="evenodd" d="M22.6286 18.4628C22.4457 18.2342 21.3714 18.4628 20.8686 18.4628C20.7314 18.4628 20.7086 18.4628 20.8686 18.2571C21.226 18.0419 21.6272 17.9096 22.0426 17.87C22.458 17.8305 22.8769 17.8846 23.2686 18.0285C23.3357 18.448 23.2954 18.8777 23.1515 19.2774C23.0076 19.6771 22.7648 20.0338 22.4457 20.3142C22.3086 20.3142 22.2171 20.3142 22.2629 20.3142C22.3086 20.3142 22.8571 18.7142 22.6286 18.4628Z" fill="white"/>
</svg>
