<svg xmlns="http://www.w3.org/2000/svg" width="14" height="13" viewBox="0 0 14 13">
  <g id="awsroles" transform="translate(-667 -172)">
    <path id="Path_21102" data-name="Path 21102" d="M6936.248,2022.5a6.479,6.479,0,0,1,.266-.834,2.672,2.672,0,0,1,1.649-1.422.244.244,0,0,0,.193-.239,3.029,3.029,0,0,1,2.62-2.57,3.077,3.077,0,0,1,3.144,1.536.334.334,0,0,0,.215.121,3.187,3.187,0,0,1,2.717,2.089,2.988,2.988,0,0,1-1.161,3.547,3.624,3.624,0,0,1-1.678.65.467.467,0,0,0-.1.035h-5.134a1.271,1.271,0,0,0-.175-.038,2.829,2.829,0,0,1-2.479-2.064l-.079-.307Z" transform="translate(-6267.583 -1843.027)" fill="#0071bd" stroke="rgba(0,0,0,0)" stroke-width="1"/>
    <g id="rect8484" transform="translate(667 172)" fill="none" stroke="#0071bd" stroke-linecap="round" stroke-linejoin="round" stroke-dashoffset="2.189" stroke-width="0.5" stroke-dasharray="0.609 1">
      <rect width="14" height="13" stroke="none"/>
      <rect x="0.25" y="0.25" width="13.5" height="12.5" fill="none"/>
    </g>
    <path id="Path_21108" data-name="Path 21108" d="M6973.483,2044.709c.188-.065.276-.017.314.164a4.916,4.916,0,0,0,.26.863q.081-.343.166-.685a.906.906,0,0,1,.059-.242.234.234,0,0,1,.162-.117.2.2,0,0,1,.153.121c.087.31.155.625.267.944.028-.1.058-.2.082-.3.054-.2.115-.392.151-.592.032-.173.117-.223.308-.162-.032.105-.064.211-.1.316-.095.309-.191.618-.283.928-.03.1-.089.174-.193.14a.268.268,0,0,1-.156-.155c-.083-.291-.146-.587-.259-.881-.067.281-.132.562-.2.842-.021.089-.021.187-.168.189s-.171-.068-.2-.177C6973.728,2045.509,6973.6,2045.111,6973.483,2044.709Z" transform="translate(-6300.206 -1867.006)" fill="#fff" stroke="rgba(0,0,0,0)" stroke-width="1"/>
    <path id="Path_21109" data-name="Path 21109" d="M6963.9,2045.057c.05-.342-.1-.489-.424-.432-.106.019-.211.057-.322.088-.066-.114-.026-.194.085-.224a1.6,1.6,0,0,1,.431-.073.448.448,0,0,1,.5.48c.02.272.055.543.065.815,0,.053-.085.109-.145.18l-.162-.2a.586.586,0,0,1-.747.108.4.4,0,0,1-.11-.49C6963.249,2044.943,6963.584,2045.033,6963.9,2045.057Zm-.244.146c-.223,0-.35.087-.358.246a.222.222,0,0,0,.231.245.367.367,0,0,0,.39-.328C6963.935,2045.142,6963.737,2045.258,6963.659,2045.2Z" transform="translate(-6291.048 -1866.771)" fill="#fff" stroke="rgba(0,0,0,0)" stroke-width="1"/>
    <path id="Path_21110" data-name="Path 21110" d="M6989.806,2045.7a2.2,2.2,0,0,0,.317.079.647.647,0,0,0,.288-.025.235.235,0,0,0,.135-.163.239.239,0,0,0-.118-.175,2.754,2.754,0,0,0-.343-.126.382.382,0,0,1-.285-.395.37.37,0,0,1,.328-.358,1.631,1.631,0,0,1,.469.017c.117.016.16.1.121.215a1.983,1.983,0,0,0-.413-.051.327.327,0,0,0-.238.14c-.058.121.049.194.162.234s.211.066.313.106a.358.358,0,0,1,.263.352.394.394,0,0,1-.254.383.809.809,0,0,1-.677-.017c-.057-.025-.083-.116-.122-.176Z" transform="translate(-6314.459 -1866.869)" fill="#fff" stroke="rgba(0,0,0,0)" stroke-width="1"/>
    <path id="Path_21100" data-name="Path 21100" d="M7.052,119.617a4.355,4.355,0,0,1-2.413.717,4.432,4.432,0,0,1-2.945-1.093c-.061-.054-.006-.127.067-.085a5.991,5.991,0,0,0,5.2.314C7.066,119.422,7.159,119.539,7.052,119.617Z" transform="translate(669.577 60.328)" fill="#fff" stroke="rgba(0,0,0,0)" stroke-width="1" fill-rule="evenodd"/>
    <path id="Path_21101" data-name="Path 21101" d="M246.8,113.48c-.083-.1-.551-.05-.763-.025-.063.008-.073-.046-.016-.087a1.2,1.2,0,0,1,1.056-.1,1.114,1.114,0,0,1-.368.968c-.053.044-.1.021-.081-.037C246.71,114.012,246.886,113.582,246.8,113.48Z" transform="translate(430.098 66.164)" fill="#fff" stroke="rgba(0,0,0,0)" stroke-width="1" fill-rule="evenodd"/>
  </g>
</svg>
