<svg width="32" height="32" viewBox="0 0 32 32" fill="none" xmlns="http://www.w3.org/2000/svg">
<path d="M17.1358 25.958H6.79256L13.7174 24.745L17.643 24.0393C17.3955 24.6606 17.2036 25.3027 17.0696 25.958H17.1358ZM3.39628 23.4438H0C0 23.4438 1.52171 20.7974 3.77119 16.8277L7.52033 10.2116L11.9311 6.5286L16.3198 3V3.17643L14.1144 8.0062L13.938 8.38112L11.49 13.3873L6.81461 23.4218L3.39628 23.4438ZM19.1868 21.5913L17.1799 19.2095L13.5851 14.909C13.5851 14.909 17.2901 4.67609 17.3122 4.63198L23.4431 15.1957L25.0972 18.0848C22.7737 18.5161 20.679 19.7588 19.1868 21.5913Z" fill="#1971BD"/>
<path d="M29.8828 28.5604H27.6775C27.3253 28.5657 26.9799 28.4629 26.688 28.2657C26.3962 28.0685 26.1719 27.7864 26.0455 27.4577C25.9173 27.1905 25.8211 26.9093 25.7588 26.6196C25.7313 26.5371 25.7203 26.4499 25.7265 26.3631C25.7326 26.2764 25.7558 26.1916 25.7947 26.1138C25.8336 26.036 25.8875 25.9666 25.9532 25.9096C26.019 25.8526 26.0953 25.8091 26.1778 25.7816C26.3445 25.726 26.5265 25.7389 26.6836 25.8175C26.7614 25.8564 26.8308 25.9103 26.8878 25.976C26.9448 26.0417 26.9883 26.1181 27.0159 26.2006C27.0294 26.2361 27.0294 26.2754 27.0159 26.3109C27.0159 26.5314 27.1482 26.7519 27.2364 26.9725C27.2707 27.0559 27.3287 27.1274 27.4031 27.1784C27.4776 27.2293 27.5652 27.2574 27.6554 27.2592H29.8608C29.9467 27.2641 30.0319 27.2409 30.1035 27.1931C30.1751 27.1454 30.2292 27.0757 30.2578 26.9945C30.5007 26.4524 30.6356 25.8681 30.6547 25.2743C30.6338 24.695 30.4989 24.1254 30.2578 23.5983C30.2202 23.519 30.1608 23.452 30.0866 23.4052C30.0124 23.3583 29.9265 23.3335 29.8387 23.3336H27.7877C27.7 23.3335 27.614 23.3583 27.5399 23.4052C27.4657 23.452 27.4063 23.519 27.3687 23.5983C27.2754 23.8193 27.2016 24.048 27.1482 24.2819C27.1174 24.4277 27.0366 24.5582 26.9198 24.6508C26.8031 24.7435 26.6576 24.7924 26.5086 24.7892H22.0538L21.5686 25.2964L22.0758 25.8036H23.9504C24.1241 25.8091 24.2892 25.8806 24.4121 26.0035C24.535 26.1264 24.6065 26.2915 24.612 26.4652C24.612 26.6407 24.5423 26.809 24.4182 26.9331C24.2941 27.0571 24.1259 27.1269 23.9504 27.1269H21.745C21.658 27.1296 21.5714 27.1133 21.4914 27.079C21.4114 27.0447 21.3399 26.9933 21.2819 26.9284L20.1351 25.7375C20.0724 25.6777 20.0224 25.6059 19.9883 25.5263C19.9542 25.4467 19.9366 25.361 19.9366 25.2743C19.9366 25.1877 19.9542 25.102 19.9883 25.0224C20.0224 24.9428 20.0724 24.8709 20.1351 24.8112L21.2598 23.6644C21.3902 23.5356 21.5622 23.4575 21.745 23.4439H26.1558C26.1494 23.3337 26.1494 23.2232 26.1558 23.1131C26.2834 22.7807 26.5111 22.4961 26.8074 22.2986C27.1036 22.1011 27.4539 22.0004 27.8098 22.0104H29.8608C30.2042 22.0056 30.5415 22.1011 30.8314 22.2852C31.1213 22.4693 31.3511 22.7341 31.4928 23.0469C31.8013 23.7429 31.9735 24.4915 32 25.2523C31.9833 26.0143 31.8107 26.7649 31.4928 27.4577C31.3633 27.7764 31.14 28.0483 30.8525 28.2374C30.565 28.4264 30.2268 28.5237 29.8828 28.5162V28.5604ZM28.6699 25.2082C28.6669 25.1252 28.6807 25.0426 28.7104 24.9651C28.7401 24.8876 28.7851 24.8169 28.8428 24.7572C28.9004 24.6975 28.9695 24.65 29.0459 24.6176C29.1223 24.5852 29.2044 24.5686 29.2874 24.5686C29.4147 24.5642 29.5405 24.598 29.6485 24.6655C29.7566 24.7331 29.842 24.8314 29.8938 24.9478C29.9456 25.0642 29.9614 25.1934 29.9393 25.3189C29.9172 25.4444 29.8581 25.5604 29.7695 25.652C29.681 25.7437 29.5672 25.8068 29.4426 25.8334C29.3179 25.8599 29.1882 25.8486 29.0701 25.8009C28.9519 25.7532 28.8507 25.6713 28.7794 25.5657C28.7081 25.4601 28.67 25.3356 28.6699 25.2082Z" fill="#1971BD"/>
</svg>
