<svg xmlns="http://www.w3.org/2000/svg" width="14.509" height="11.594" viewBox="0 0 14.509 11.594">
  <g id="azureaccesskeyrequests" transform="translate(-667.315 -204.229)">
    <path id="Subtraction_9" data-name="Subtraction 9" d="M6.768,10.409H2.078l3.14-.554h.007l1.808-.32a4.476,4.476,0,0,0-.265.876ZM.543,9.265h-.6c-.584,0-.936,0-.943,0S-.315,8.072.707,6.3L2.414,3.341,4.4,1.672C5.516.737,6.39.006,6.4,0a.407.407,0,0,1-.031.08L5.346,2.27l-.079.169L4.208,4.713,2.085,9.264ZM7.7,8.429h0L6.787,7.348C5.909,6.3,5.162,5.412,5.156,5.4S6.838.759,6.849.738c.015.015,1.182,2.031,2.777,4.794l.756,1.31A4.5,4.5,0,0,0,7.7,8.428Z" transform="translate(668.315 204.229)" fill="#0071bd"/>
    <g id="Group_9351" data-name="Group 9351" transform="translate(76 31)">
      <path id="Union_2" data-name="Union 2" d="M4.685,3.648H3.74a.806.806,0,0,1-.745-.5,2.4,2.4,0,0,1-.122-.385.3.3,0,1,1,.581-.139,2.027,2.027,0,0,0,.094.3.212.212,0,0,0,.193.132h.945a.2.2,0,0,0,.188-.122,1.98,1.98,0,0,0,.175-.777,1.927,1.927,0,0,0-.176-.763.206.206,0,0,0-.191-.119H3.749a.2.2,0,0,0-.191.122,2.505,2.505,0,0,0-.1.308.3.3,0,0,1-.291.229H1.111l-.222.229.23.235h.848a.3.3,0,0,1,0,.6H.994A.3.3,0,0,1,.779,2.9L.256,2.367a.3.3,0,0,1,0-.419l.514-.529a.3.3,0,0,1,.215-.091h1.96c.02-.06.039-.112.055-.153A.793.793,0,0,1,3.748.67h.935a.806.806,0,0,1,.736.473,2.522,2.522,0,0,1,.23,1.005,2.594,2.594,0,0,1-.226,1.018.8.8,0,0,1-.736.481ZM4.126,2.126a.288.288,0,1,1,.289.288A.289.289,0,0,1,4.126,2.126Z" transform="translate(600.175 181.176)" fill="#0071bd"/>
    </g>
  </g>
</svg>
