<svg xmlns="http://www.w3.org/2000/svg" width="14" height="13" viewBox="0 0 14 13">
  <g id="azureroles" transform="translate(-667 -236)">
    <g id="layer1" transform="translate(1346.93 -75.32)">
      <g id="layer1-1" transform="translate(-677.93 313.854)">
        <path id="path21" d="M-14.774,3.849l2.366-.419.022,0L-13.6,1.978c-.669-.8-1.217-1.451-1.217-1.454s1.257-3.468,1.264-3.48S-12.7-1.484-11.482.623L-9.4,4.237l.016.028h-7.736l2.344-.414Zm-4.642-.441s.573-1,1.274-2.212l1.274-2.208,1.485-1.246c.817-.685,1.487-1.247,1.49-1.248a.261.261,0,0,1-.024.06L-15.528.012l-1.584,3.4h-1.152c-.633,0-1.152,0-1.152,0Z" transform="translate(19.415 3.507)" fill="#0071bd"/>
      </g>
    </g>
    <g id="rect8484" transform="translate(667 236)" fill="none" stroke="#0071bd" stroke-linecap="round" stroke-linejoin="round" stroke-dashoffset="2.189" stroke-width="0.5" stroke-dasharray="0.609 1">
      <rect width="14" height="13" stroke="none"/>
      <rect x="0.25" y="0.25" width="13.5" height="12.5" fill="none"/>
    </g>
  </g>
</svg>
