<svg width="32" height="32" viewBox="0 0 32 32" fill="none" xmlns="http://www.w3.org/2000/svg">
<path d="M14.5347 31.9758H7.09063C6.93693 31.9961 6.78068 31.9841 6.63191 31.9404C6.48314 31.8968 6.34515 31.8225 6.2268 31.7224C6.10844 31.6222 6.01234 31.4984 5.94467 31.3589C5.87699 31.2194 5.83924 31.0673 5.83384 30.9124C5.82404 30.7612 5.84459 30.6096 5.89426 30.4665C5.94393 30.3234 6.02172 30.1916 6.12307 30.079C6.22441 29.9664 6.34725 29.8752 6.48436 29.8108C6.62147 29.7464 6.77008 29.7101 6.92145 29.7039H13.858C13.9986 30.484 14.2256 31.246 14.5347 31.9758ZM28.7221 31.5891H26.3051C25.8797 31.5912 25.4635 31.4656 25.1102 31.2286C24.7569 30.9917 24.4828 30.6542 24.3233 30.2598C24.1852 29.9221 24.0721 29.5748 23.9849 29.2205C23.9611 29.1174 23.9578 29.0106 23.9753 28.9061C23.9928 28.8017 24.0307 28.7018 24.0868 28.612C24.1429 28.5222 24.2161 28.4444 24.3023 28.3829C24.3885 28.3215 24.486 28.2776 24.5891 28.2538C24.6923 28.23 24.7991 28.2267 24.9035 28.2442C25.0079 28.2617 25.1079 28.2996 25.1976 28.3557C25.2874 28.4118 25.3653 28.485 25.4267 28.5712C25.4882 28.6574 25.5321 28.7549 25.5559 28.858C25.5996 29.1259 25.6809 29.3863 25.7976 29.6314C25.8332 29.7376 25.9015 29.8298 25.9926 29.8949C26.0838 29.96 26.1931 29.9947 26.3051 29.994H28.7221C28.8278 29.9953 28.9317 29.9664 29.0216 29.9108C29.1115 29.8551 29.1836 29.775 29.2296 29.6798C29.5272 29.0269 29.6837 28.3186 29.6888 27.6012C29.6865 26.8962 29.5211 26.2014 29.2054 25.571C29.1649 25.4717 29.0939 25.3878 29.0027 25.3314C28.9116 25.2749 28.8048 25.2488 28.6979 25.2568H26.281C26.174 25.2488 26.0673 25.2749 25.9761 25.3314C25.8849 25.3878 25.814 25.4717 25.7734 25.571C25.7734 25.8369 25.5801 26.1269 25.5076 26.3927C25.4644 26.5653 25.3649 26.7184 25.2248 26.8279C25.0847 26.9374 24.912 26.9969 24.7341 26.997H19.1994L18.5952 27.6254L19.2236 28.2296H21.4713C21.662 28.2627 21.835 28.362 21.9596 28.5102C22.0843 28.6583 22.1526 28.8457 22.1526 29.0393C22.1526 29.2329 22.0843 29.4202 21.9596 29.5684C21.835 29.7165 21.662 29.8159 21.4713 29.8489H18.8852C18.669 29.8412 18.4629 29.7553 18.3051 29.6073L16.9275 28.1813C16.8522 28.1071 16.7925 28.0186 16.7517 27.9211C16.7109 27.8236 16.6899 27.719 16.6899 27.6133C16.6899 27.5076 16.7109 27.403 16.7517 27.3055C16.7925 27.2079 16.8522 27.1195 16.9275 27.0453L18.281 25.6435C18.4361 25.4914 18.6438 25.4049 18.861 25.4018H24.0816C24.1438 25.2702 24.1924 25.1325 24.2266 24.9909C24.3838 24.5882 24.66 24.2429 25.0184 24.0011C25.3767 23.7593 25.8003 23.6324 26.2326 23.6375H28.6495C29.0642 23.6413 29.4696 23.761 29.8198 23.9831C30.17 24.2052 30.4511 24.5208 30.6314 24.8943C31.0051 25.7493 31.2103 26.6684 31.2356 27.6012C31.2166 28.5348 31.0111 29.4551 30.6314 30.3082C30.4635 30.6878 30.1893 31.0108 29.8419 31.2381C29.4946 31.4654 29.0888 31.5873 28.6737 31.5891H28.7221ZM27.2477 27.5287C27.2278 27.4174 27.2326 27.303 27.2616 27.1937C27.2907 27.0844 27.3434 26.9828 27.416 26.8961C27.4886 26.8094 27.5793 26.7396 27.6818 26.6918C27.7842 26.6439 27.896 26.6191 28.0091 26.6191C28.1222 26.6191 28.2339 26.6439 28.3364 26.6918C28.4388 26.7396 28.5296 26.8094 28.6021 26.8961C28.6747 26.9828 28.7274 27.0844 28.7565 27.1937C28.7856 27.303 28.7903 27.4174 28.7704 27.5287C28.7903 27.64 28.7856 27.7544 28.7565 27.8637C28.7274 27.973 28.6747 28.0746 28.6021 28.1613C28.5296 28.248 28.4388 28.3178 28.3364 28.3656C28.2339 28.4135 28.1222 28.4383 28.0091 28.4383C27.896 28.4383 27.7842 28.4135 27.6818 28.3656C27.5793 28.3178 27.4886 28.248 27.416 28.1613C27.3434 28.0746 27.2907 27.973 27.2616 27.8637C27.2326 27.7544 27.2278 27.64 27.2477 27.5287ZM13.713 28.0121H2.28097C2.1139 28.0153 1.94787 27.9852 1.79259 27.9234C1.6373 27.8617 1.49589 27.7697 1.37661 27.6526C1.25733 27.5356 1.16259 27.396 1.09793 27.2419C1.03326 27.0878 0.999969 26.9224 1 26.7553V21.0755C0.999969 20.9084 1.03326 20.743 1.09793 20.5889C1.16259 20.4348 1.25733 20.2952 1.37661 20.1782C1.49589 20.0612 1.6373 19.9691 1.79259 19.9074C1.94787 19.8457 2.1139 19.8155 2.28097 19.8187H17.1934C16.0311 20.8995 15.116 22.2186 14.5106 23.6858C14.4466 23.3617 14.2662 23.0723 14.0036 22.8719C13.7409 22.6716 13.4141 22.5742 13.0846 22.5982C12.7352 22.6591 12.4244 22.8563 12.2204 23.1464C12.0165 23.4364 11.9361 23.7957 11.997 24.145C12.0579 24.4944 12.2551 24.8052 12.5451 25.0092C12.8352 25.2131 13.1945 25.2935 13.5438 25.2326C13.7965 25.1852 14.031 25.068 14.2205 24.8943C13.9586 25.8386 13.8285 26.8146 13.8338 27.7946V28.0363L13.713 28.0121ZM7.71903 23.9275C7.71903 24.1904 7.797 24.4474 7.94306 24.666C8.08913 24.8846 8.29674 25.055 8.53963 25.1556C8.78253 25.2562 9.04981 25.2825 9.30767 25.2313C9.56553 25.18 9.80239 25.0534 9.9883 24.8675C10.1742 24.6815 10.3008 24.4447 10.3521 24.1868C10.4034 23.929 10.3771 23.6617 10.2765 23.4188C10.1758 23.1759 10.0055 22.9683 9.78686 22.8222C9.56826 22.6762 9.31125 22.5982 9.04834 22.5982C8.69578 22.5982 8.35767 22.7382 8.10838 22.9875C7.85908 23.2368 7.71903 23.5749 7.71903 23.9275ZM3.53776 23.9275C3.53776 24.28 3.67782 24.6182 3.92711 24.8675C4.1764 25.1167 4.51452 25.2568 4.86707 25.2568C5.21962 25.2568 5.55774 25.1167 5.80703 24.8675C6.05632 24.6182 6.19637 24.28 6.19637 23.9275C6.19004 23.5791 6.0472 23.2472 5.79859 23.0031C5.54998 22.759 5.21548 22.6223 4.86707 22.6224C4.6925 22.6224 4.51964 22.6567 4.35837 22.7235C4.19709 22.7903 4.05055 22.8883 3.92711 23.0117C3.80367 23.1351 3.70576 23.2817 3.63895 23.443C3.57215 23.6042 3.53776 23.7771 3.53776 23.9517V23.9275ZM2.28097 18.1269C1.95343 18.1274 1.63814 18.0025 1.39989 17.7777C1.16164 17.5529 1.01854 17.2454 1 16.9184V11.1662C0.999969 10.9991 1.03326 10.8336 1.09793 10.6796C1.16259 10.5255 1.25733 10.3858 1.37661 10.2688C1.49589 10.1518 1.6373 10.0597 1.79259 9.99801C1.94787 9.93629 2.1139 9.90615 2.28097 9.90937H28.1662C28.5059 9.90937 28.8317 10.0443 29.0719 10.2846C29.3122 10.5248 29.4471 10.8506 29.4471 11.1903V16.9184C29.4437 17.1089 29.3987 17.2963 29.3152 17.4674C29.2317 17.6386 29.1117 17.7895 28.9637 17.9094C27.4859 17.2507 25.8801 16.9285 24.2625 16.9661C22.645 17.0038 21.0559 17.4002 19.6103 18.1269H2.28097ZM15.9849 14.0181C15.9849 14.281 16.0629 14.538 16.2089 14.7566C16.355 14.9753 16.5626 15.1456 16.8055 15.2462C17.0484 15.3469 17.3157 15.3732 17.5735 15.3219C17.8314 15.2706 18.0683 15.144 18.2542 14.9581C18.4401 14.7722 18.5667 14.5353 18.618 14.2775C18.6693 14.0196 18.6429 13.7523 18.5423 13.5094C18.4417 13.2665 18.2713 13.0589 18.0527 12.9129C17.8341 12.7668 17.5771 12.6888 17.3142 12.6888C16.9616 12.6888 16.6235 12.8289 16.3742 13.0782C16.1249 13.3275 15.9849 13.6656 15.9849 14.0181ZM11.8278 14.0181C11.8273 14.3585 11.9573 14.686 12.1912 14.9334C12.425 15.1807 12.7448 15.3289 13.0846 15.3474C13.3485 15.3522 13.6078 15.2784 13.8296 15.1352C14.0513 14.9921 14.2255 14.7862 14.3298 14.5438C14.4341 14.3014 14.4639 14.0334 14.4154 13.7739C14.3669 13.5145 14.2422 13.2754 14.0573 13.087C13.8724 12.8987 13.6356 12.7697 13.3771 12.7164C13.1186 12.6631 12.8501 12.688 12.6058 12.7879C12.3615 12.8877 12.1524 13.0581 12.0053 13.2772C11.8581 13.4963 11.7795 13.7542 11.7795 14.0181H11.8278ZM7.69486 14.0181C7.69486 14.3707 7.83492 14.7088 8.08421 14.9581C8.3335 15.2074 8.67161 15.3474 9.02417 15.3474C9.37672 15.3474 9.71484 15.2074 9.96413 14.9581C10.2134 14.7088 10.3535 14.3707 10.3535 14.0181C10.3535 13.6656 10.2134 13.3275 9.96413 13.0782C9.71484 12.8289 9.37672 12.6888 9.02417 12.6888C8.67161 12.6888 8.3335 12.8289 8.08421 13.0782C7.83492 13.3275 7.69486 13.6656 7.69486 14.0181ZM3.53776 14.0181C3.53776 14.3707 3.67782 14.7088 3.92711 14.9581C4.1764 15.2074 4.51452 15.3474 4.86707 15.3474C5.21962 15.3474 5.55774 15.2074 5.80703 14.9581C6.05632 14.7088 6.19637 14.3707 6.19637 14.0181C6.19637 13.6656 6.05632 13.3275 5.80703 13.0782C5.55774 12.8289 5.21962 12.6888 4.86707 12.6888C4.51452 12.6888 4.1764 12.8289 3.92711 13.0782C3.67782 13.3275 3.53776 13.6656 3.53776 14.0181ZM2.28097 8.21752C1.94538 8.21758 1.62317 8.08595 1.38363 7.85092C1.14408 7.6159 1.00633 7.29625 1 6.96073V1.2568C1.00633 0.92127 1.14408 0.601627 1.38363 0.366601C1.62317 0.131576 1.94538 -5.97192e-05 2.28097 2.03245e-08H28.1662C28.4999 0.00595418 28.8187 0.139548 29.0569 0.373311C29.2952 0.607074 29.4348 0.923239 29.4471 1.2568V6.96073C29.4472 7.12782 29.4139 7.29325 29.3492 7.44733C29.2845 7.60141 29.1898 7.74104 29.0705 7.85807C28.9512 7.9751 28.8098 8.06716 28.6545 8.12888C28.4993 8.1906 28.3332 8.22074 28.1662 8.21752H2.28097ZM7.67069 4.10876C7.67074 4.37269 7.74935 4.63064 7.89651 4.84973C8.04367 5.06883 8.25273 5.23916 8.49704 5.33902C8.74135 5.43888 9.00985 5.46376 9.26835 5.41048C9.52685 5.3572 9.76364 5.22817 9.94854 5.03984C10.1335 4.85151 10.2581 4.61239 10.3066 4.35296C10.3552 4.09353 10.3254 3.82552 10.221 3.58309C10.1167 3.34065 9.94258 3.13476 9.72082 2.99164C9.49906 2.84852 9.23972 2.77466 8.97583 2.77946C8.62748 2.78579 8.29555 2.92863 8.05146 3.17724C7.80737 3.42585 7.67064 3.76036 7.67069 4.10876ZM3.56193 4.10876C3.56198 4.37269 3.64059 4.63064 3.78775 4.84973C3.93491 5.06883 4.14397 5.23916 4.38828 5.33902C4.63259 5.43888 4.90109 5.46376 5.15959 5.41048C5.41809 5.3572 5.65487 5.22817 5.83978 5.03984C6.02469 4.85151 6.14935 4.61239 6.19788 4.35296C6.24641 4.09353 6.21661 3.82552 6.11228 3.58309C6.00795 3.34065 5.83382 3.13476 5.61206 2.99164C5.3903 2.84852 5.13096 2.77466 4.86707 2.77946C4.51452 2.77946 4.1764 2.91951 3.92711 3.1688C3.67782 3.41809 3.53776 3.75621 3.53776 4.10876H3.56193Z" fill="#1971BD"/>
</svg>
