<svg xmlns="http://www.w3.org/2000/svg" width="13.538" height="14.235" viewBox="0 0 13.538 14.235">
  <path id="databaseaccessrequests" d="M5.6,13.235H2.524a.472.472,0,1,1,0-.943h2.8a4.446,4.446,0,0,0,.277.941v0Zm5.873-.163H10.431a.892.892,0,0,1-.824-.555,2.926,2.926,0,0,1-.134-.425.33.33,0,1,1,.643-.154,2.236,2.236,0,0,0,.1.327.235.235,0,0,0,.213.147h1.043a.226.226,0,0,0,.208-.135,2.2,2.2,0,0,0,.193-.858,2.116,2.116,0,0,0-.2-.842.224.224,0,0,0-.21-.13H10.44a.215.215,0,0,0-.21.134,2.664,2.664,0,0,0-.109.34.331.331,0,0,1-.321.252H7.529l-.246.253.255.259h.936a.331.331,0,0,1,0,.661H7.4a.331.331,0,0,1-.236-.1l-.579-.589a.33.33,0,0,1,0-.462l.567-.585a.331.331,0,0,1,.238-.1H9.553c.022-.067.043-.123.06-.168a.875.875,0,0,1,.827-.559h1.032a.891.891,0,0,1,.813.522,2.81,2.81,0,0,1,.253,1.111,2.859,2.859,0,0,1-.249,1.123.887.887,0,0,1-.813.532Zm-.617-1.68a.319.319,0,1,1,.319.319A.319.319,0,0,1,10.857,11.392Zm-5.6.2H.525A.526.526,0,0,1,0,11.072V8.722A.525.525,0,0,1,.525,8.2H6.7A4.533,4.533,0,0,0,5.59,9.8a.55.55,0,1,0-.171.5,4.513,4.513,0,0,0-.163,1.2c0,.031,0,.064,0,.1h0ZM2.776,9.9a.549.549,0,1,0,.549-.549A.55.55,0,0,0,2.776,9.9Zm-1.724,0A.549.549,0,1,0,1.6,9.348.55.55,0,0,0,1.053,9.9ZM.525,7.5A.526.526,0,0,1,0,6.973V4.623A.525.525,0,0,1,.525,4.1H11.24a.525.525,0,0,1,.525.525v2.35a.527.527,0,0,1-.194.409A4.507,4.507,0,0,0,7.7,7.5ZM6.2,5.8a.549.549,0,1,0,.549-.549A.55.55,0,0,0,6.2,5.8Zm-1.716,0a.549.549,0,1,0,.549-.549A.55.55,0,0,0,4.486,5.8Zm-1.716,0a.549.549,0,1,0,.549-.549A.55.55,0,0,0,2.769,5.8Zm-1.716,0A.549.549,0,1,0,1.6,5.25.55.55,0,0,0,1.053,5.8ZM.525,3.4A.526.526,0,0,1,0,2.875V.525A.526.526,0,0,1,.525,0H11.24a.526.526,0,0,1,.525.525v2.35a.526.526,0,0,1-.525.526Zm2.23-1.7A.549.549,0,1,0,3.3,1.151.55.55,0,0,0,2.755,1.7Zm-1.7,0A.549.549,0,1,0,1.6,1.151.55.55,0,0,0,1.053,1.7Z" transform="translate(0.5 0.5)" fill="#0071bd" stroke="rgba(0,0,0,0)" stroke-width="1"/>
</svg>
