<svg xmlns="http://www.w3.org/2000/svg" width="15.898" height="11.391" viewBox="0 0 15.898 11.391">
  <path id="gcpaccesskeyrequests" d="M14.916,11.391h-.962a.822.822,0,0,1-.76-.512,2.731,2.731,0,0,1-.124-.392.3.3,0,0,1,.593-.142,2.086,2.086,0,0,0,.095.3.218.218,0,0,0,.2.135h.962a.209.209,0,0,0,.192-.125,2.026,2.026,0,0,0,.179-.791,1.967,1.967,0,0,0-.18-.777.21.21,0,0,0-.193-.122h-.952a.2.2,0,0,0-.194.124,2.454,2.454,0,0,0-.1.314.305.305,0,0,1-.3.233h-2.1l-.226.233.235.239h.863a.3.3,0,1,1,0,.609h-.991a.3.3,0,0,1-.218-.091l-.534-.543a.306.306,0,0,1,0-.427l.524-.539a.3.3,0,0,1,.219-.093h2c.021-.061.04-.113.056-.156a.808.808,0,0,1,.763-.515h.952a.821.821,0,0,1,.75.481A2.591,2.591,0,0,1,15.9,9.865a2.642,2.642,0,0,1-.23,1.036.817.817,0,0,1-.75.49ZM9.08,11.328H7.012l-.02-.02H3.93a3.968,3.968,0,0,1-2.379-.8l0-.017,0,0A3.976,3.976,0,0,1,1.783,4.03a.8.8,0,0,0-.086.029,5.5,5.5,0,0,1,8.946-2.683l0,.031.025-.025a5.486,5.486,0,0,1,1.661,2.678A3.951,3.951,0,0,1,14,6.587c-.137-.013-.28-.02-.426-.02a4.455,4.455,0,0,0-2.009.472,1.534,1.534,0,0,0-1.5-1.216V5.519a3.036,3.036,0,0,0-1.094-2.4H8.939a3.05,3.05,0,0,0-4.177.318H4.755a.058.058,0,0,0-.028.01A3.965,3.965,0,0,1,7.118,4.931L5.346,6.7A1.528,1.528,0,1,0,3.325,8.726a1.5,1.5,0,0,0,.626.137H7.007v.023l0,0H9.64a4.5,4.5,0,0,0-.566,2.187c0,.086,0,.173.007.26h0Zm5.267-1.488a.294.294,0,1,1,.293.294A.293.293,0,0,1,14.347,9.841Z" transform="translate(0)" fill="#0071bd"/>
</svg>
