<svg width="32" height="32" viewBox="0 0 32 32" fill="none" xmlns="http://www.w3.org/2000/svg">
<g clip-path="url(#clip0)">
<path d="M30.0649 27.9316H28.2335C27.906 27.9293 27.5864 27.8308 27.3144 27.6483C27.0425 27.4658 26.8302 27.2074 26.7039 26.9052C26.6051 26.6496 26.5244 26.3873 26.4624 26.1203C26.4413 26.0423 26.4361 25.9609 26.4471 25.8809C26.4581 25.8008 26.485 25.7238 26.5263 25.6544C26.5676 25.5849 26.6224 25.5245 26.6875 25.4766C26.7526 25.4287 26.8266 25.3944 26.9052 25.3757C27.0652 25.3394 27.2331 25.3676 27.3725 25.4543C27.5119 25.5409 27.6115 25.679 27.6498 25.8386C27.6916 26.0449 27.7522 26.247 27.8309 26.4423C27.8677 26.5186 27.9247 26.5833 27.9956 26.6294C28.0666 26.6755 28.1489 26.7013 28.2335 26.704H30.246C30.3256 26.7018 30.4031 26.6782 30.4704 26.6357C30.5377 26.5932 30.5923 26.5334 30.6284 26.4625C30.8504 25.9537 30.9734 25.4072 30.9907 24.8524C30.9711 24.3173 30.8481 23.791 30.6284 23.3027C30.595 23.2254 30.5382 23.1605 30.466 23.1172C30.3938 23.0739 30.3098 23.0543 30.2259 23.0612H28.2335C28.1518 23.0521 28.0694 23.0711 27.9999 23.115C27.9305 23.1588 27.878 23.225 27.8511 23.3027C27.7659 23.5044 27.6985 23.7132 27.6498 23.9266C27.615 24.0616 27.5373 24.1817 27.4285 24.2688C27.3196 24.3559 27.1854 24.4053 27.046 24.4096H22.8196L22.1957 24.8725L22.6787 25.3555H24.4096C24.5533 25.3817 24.6833 25.4574 24.777 25.5696C24.8706 25.6818 24.9219 25.8233 24.9219 25.9694C24.9219 26.1155 24.8706 26.257 24.777 26.3691C24.6833 26.4813 24.5533 26.5571 24.4096 26.5832H22.397C22.3149 26.5836 22.2335 26.5679 22.1575 26.5368C22.0816 26.5057 22.0125 26.4599 21.9542 26.4021L20.8875 25.2952C20.8303 25.2407 20.7847 25.1751 20.7536 25.1024C20.7225 25.0298 20.7064 24.9516 20.7064 24.8725C20.7064 24.7935 20.7225 24.7153 20.7536 24.6426C20.7847 24.57 20.8303 24.5044 20.8875 24.4499L21.9341 23.3631C22.0497 23.2407 22.2086 23.1685 22.3769 23.1618H26.402L26.5228 22.8599C26.6475 22.5177 26.8846 22.2279 27.1953 22.0378C27.506 21.8477 27.872 21.7686 28.2335 21.8134H30.1454C30.4628 21.8144 30.7733 21.9058 31.0406 22.0769C31.308 22.248 31.521 22.4917 31.6548 22.7794C31.9443 23.4128 32.1083 24.0963 32.1379 24.792C32.1084 25.4856 31.9515 26.1678 31.675 26.8046C31.5461 27.0977 31.3348 27.3469 31.0668 27.522C30.7988 27.6971 30.4857 27.7905 30.1655 27.7908L30.0649 27.9316ZM18.3316 27.8109H14.1454H7.96679C6.2368 27.8139 4.55378 27.2482 3.17685 26.2008C2.15128 25.4208 1.32792 24.406 0.775981 23.2417C0.224038 22.0774 -0.0403661 20.7976 0.00498957 19.5099C0.0503453 18.2222 0.404135 16.9642 1.03663 15.8416C1.66912 14.719 2.56183 13.7646 3.63975 13.0587H3.45861C4.25684 10.2491 6.13128 7.86789 8.67484 6.4322C11.2184 4.9965 14.2257 4.62226 17.0435 5.39076C18.6857 5.83366 20.2018 6.65373 21.4712 7.78573C23.0946 9.21291 24.2575 11.0902 24.8121 13.1794C26.5799 14.3586 27.8097 16.189 28.2335 18.2713C27.9454 18.2506 27.6561 18.2506 27.368 18.2713C25.9713 18.272 24.5937 18.5957 23.3429 19.2172C23.1992 18.5229 22.8205 17.8995 22.2705 17.4522C21.7205 17.0049 21.033 16.761 20.324 16.7618V16.1581C20.3613 15.2356 20.1866 14.3169 19.8133 13.4726C19.4399 12.6283 18.878 11.8808 18.1706 11.2876C16.963 10.2815 15.4108 9.78587 13.8436 9.90613C12.2765 10.0264 10.818 10.753 9.77811 11.9316C11.6155 12.3539 13.2424 13.4171 14.3668 14.9304L10.8045 18.4926C10.5744 17.9843 10.2105 17.5481 9.7517 17.2305C9.29289 16.913 8.75641 16.7261 8.19961 16.6898C7.64281 16.6535 7.0866 16.7691 6.59045 17.0244C6.09429 17.2797 5.67683 17.665 5.38268 18.1392C5.08853 18.6134 4.92874 19.1585 4.9204 19.7165C4.91206 20.2744 5.05548 20.8241 5.33532 21.3068C5.61517 21.7896 6.02093 22.1872 6.50923 22.4572C6.99754 22.7272 7.55003 22.8595 8.10767 22.8398H14.1454H19.4586C18.7027 24.1783 18.3075 25.6901 18.3114 27.2272C18.301 27.4015 18.301 27.5762 18.3114 27.7505L18.3316 27.8109ZM28.9177 24.8121C28.9137 24.692 28.9457 24.5733 29.0096 24.4714C29.0734 24.3695 29.1663 24.289 29.2762 24.2402C29.3861 24.1914 29.5081 24.1765 29.6265 24.1975C29.7449 24.2185 29.8543 24.2743 29.9408 24.3579C30.0273 24.4415 30.0868 24.549 30.1118 24.6666C30.1368 24.7843 30.126 24.9067 30.081 25.0182C30.0359 25.1297 29.9586 25.2252 29.8589 25.2925C29.7593 25.3597 29.6418 25.3957 29.5215 25.3958C29.4432 25.3985 29.3651 25.3854 29.292 25.3573C29.2188 25.3292 29.1521 25.2866 29.0957 25.2321C29.0394 25.1777 28.9946 25.1124 28.964 25.0402C28.9334 24.9681 28.9177 24.8905 28.9177 24.8121Z" fill="#1971BD"/>
</g>
<defs>
<clipPath id="clip0">
<rect width="32" height="32" fill="white"/>
</clipPath>
</defs>
</svg>
