<svg width="32" height="32" viewBox="0 0 32 32" fill="none" xmlns="http://www.w3.org/2000/svg">
<path d="M18.9486 11.6285H19.6572L21.6457 9.63996V8.79425C19.8704 7.26746 17.568 6.49628 15.2312 6.6458C12.8945 6.79532 10.7091 7.85365 9.14287 9.59425C8.22769 10.6215 7.56963 11.8514 7.22287 13.1828C7.44438 13.1025 7.68707 13.1025 7.90858 13.1828L11.84 12.4285C11.84 12.4285 12.0457 12.1085 12.16 12.1085C13.0165 11.1549 14.209 10.5699 15.4873 10.4762C16.7657 10.3824 18.0307 10.7872 19.0172 11.6057L18.9486 11.6285Z" fill="#1971BD"/>
<path d="M24.48 13.1601C24.0142 11.4791 23.0691 9.97002 21.76 8.8172L18.9714 11.6058C19.554 12.0799 20.0213 12.6801 20.3381 13.3611C20.6548 14.0421 20.8128 14.7862 20.8 15.5372V16.0401C21.4608 16.0401 22.0945 16.3025 22.5617 16.7698C23.029 17.237 23.2914 17.8707 23.2914 18.5315C23.2914 19.1923 23.029 19.826 22.5617 20.2932C22.0945 20.7604 21.4608 21.0229 20.8 21.0229H15.8172L15.3143 21.5715V24.5658L15.8172 25.0458H20.8229C22.2141 25.0572 23.5719 24.6198 24.6949 23.7985C25.8178 22.9772 26.646 21.8157 27.0566 20.4864C27.4672 19.1572 27.4383 17.7309 26.9741 16.4194C26.51 15.1078 25.6353 13.9809 24.48 13.2058V13.1601Z" fill="#1971BD"/>
<path d="M10.8343 24.9771H15.8171V21H10.8343C10.4783 21.0049 10.1261 20.9267 9.80572 20.7714L9.12 21L7.10858 22.9886L6.85715 23.6971C8.00068 24.5599 9.40219 25.011 10.8343 24.9771Z" fill="#1971BD"/>
<path d="M10.8343 12.0628C9.48329 12.0656 8.1668 12.4898 7.06836 13.2764C5.96992 14.0629 5.14427 15.1726 4.70648 16.4507C4.2687 17.7289 4.24061 19.1117 4.62613 20.4066C5.01165 21.7014 5.79157 22.8437 6.85716 23.6742L9.80573 20.7714C9.43705 20.6065 9.11398 20.3545 8.86434 20.037C8.61469 19.7196 8.44597 19.3462 8.37269 18.949C8.29942 18.5519 8.32379 18.1429 8.4437 17.7572C8.56362 17.3716 8.77549 17.0209 9.06106 16.7353C9.34663 16.4497 9.69735 16.2378 10.083 16.1179C10.4686 15.998 10.8777 15.9736 11.2748 16.0469C11.672 16.1202 12.0454 16.2889 12.3628 16.5386C12.6803 16.7882 12.9323 17.1113 13.0972 17.4799L16 14.7142C15.4014 13.9042 14.6238 13.2434 13.7277 12.7835C12.8316 12.3236 11.8414 12.0769 10.8343 12.0628Z" fill="#1971BD"/>
<path d="M31.4286 1.57141H0.571426V30.1428H31.4286V1.57141Z" stroke="#1971BD" stroke-width="0.5" stroke-linecap="round" stroke-linejoin="round" stroke-dasharray="0.61 1"/>
</svg>
