<svg xmlns="http://www.w3.org/2000/svg" width="14" height="13" viewBox="0 0 14 13">
  <g id="gcproles_" data-name="gcproles " transform="translate(-667 -335)">
    <g id="Google_Cloud_Logo" transform="translate(668.934 337.429)">
      <g id="Group_9338" data-name="Group 9338" transform="translate(-0.008 0.004)">
        <path id="Path_21089" data-name="Path 21089" d="M206.054,2.226h.306l.872-.872.043-.37A3.918,3.918,0,0,0,200.9,2.9a.472.472,0,0,1,.306-.018l1.743-.288s.088-.147.135-.138a2.175,2.175,0,0,1,2.976-.226Z" transform="translate(-199.691 -0.004)" fill="#0071bd"/>
        <path id="Path_21090" data-name="Path 21090" d="M797.9,165.408a3.924,3.924,0,0,0-1.183-1.908l-1.223,1.223a2.175,2.175,0,0,1,.8,1.725v.217a1.089,1.089,0,0,1,0,2.178h-2.178l-.217.22v1.306l.217.217H796.3a2.833,2.833,0,0,0,1.609-5.179Z" transform="translate(-789.121 -162.516)" fill="#0071bd"/>
        <path id="Path_21091" data-name="Path 21091" d="M185.41,1034.541h2.178V1032.8H185.41a1.084,1.084,0,0,1-.45-.1l-.306.1-.878.872-.076.306A2.811,2.811,0,0,0,185.41,1034.541Z" transform="translate(-182.594 -1026.483)" fill="#0071bd"/>
        <path id="Path_21092" data-name="Path 21092" d="M2.807,399.2a2.832,2.832,0,0,0-1.71,5.077l1.263-1.263A1.089,1.089,0,1,1,3.8,401.57l1.263-1.263A2.826,2.826,0,0,0,2.807,399.2Z" transform="translate(0.008 -396.793)" fill="#0071bd"/>
      </g>
    </g>
    <g id="rect8484" transform="translate(667 335)" fill="none" stroke="#0071bd" stroke-linecap="round" stroke-linejoin="round" stroke-dashoffset="2.189" stroke-width="0.5" stroke-dasharray="0.609 1">
      <rect width="14" height="13" stroke="none"/>
      <rect x="0.25" y="0.25" width="13.5" height="12.5" fill="none"/>
    </g>
  </g>
</svg>
