<svg width="32" height="32" viewBox="0 0 32 32" fill="none" xmlns="http://www.w3.org/2000/svg">
<path d="M31.4286 1.57141H0.571428V30.1428H31.4286V1.57141Z" stroke="#1971BD" stroke-width="0.5" stroke-linecap="round" stroke-linejoin="round" stroke-dasharray="0.61 1"/>
<path d="M23.6343 22.3257C22.8792 21.8369 22.2396 21.1896 21.76 20.4286C19.7209 21.1121 17.5787 21.4369 15.4286 21.3886C10.5372 21.3886 6.60573 19.9486 6.60573 18.1886V22.76C6.60573 24.52 10.5372 25.96 15.4286 25.96C19.4286 25.96 22.8114 25 23.8857 23.6743C23.8857 23.24 23.7029 22.7372 23.6343 22.4629V22.3257Z" fill="#1971BD"/>
<path d="M21.0514 14.7143C19.2206 15.2197 17.3278 15.4659 15.4286 15.4458C10.5372 15.4458 6.60573 14.0058 6.60573 12.2229V16.7029C6.60573 18.4858 10.5372 19.9258 15.4286 19.9258C17.3541 19.9853 19.2782 19.7698 21.1429 19.2858C20.6046 17.8146 20.5724 16.2059 21.0514 14.7143Z" fill="#1971BD"/>
<path d="M21.8743 12.68C21.9936 12.4193 22.1311 12.1672 22.2857 11.9257C22.857 10.9507 23.4987 10.0187 24.2057 9.13715V8.49715C24.2057 6.71429 20.2514 5.27429 15.3829 5.27429C10.5143 5.27429 6.60573 6.71429 6.60573 8.49715V10.7829C6.60573 12.5657 10.56 14.0057 15.4286 14.0057C17.5473 14.0314 19.6556 13.707 21.6686 13.0457L21.8743 12.6343V12.68ZM26.2857 13.7086C26.0354 12.9994 25.6469 12.3468 25.1429 11.7886C24.8132 11.3836 24.5367 10.938 24.32 10.4629C23.7637 11.1833 23.2668 11.9477 22.8343 12.7486C22.7141 12.9391 22.6072 13.1377 22.5143 13.3429C19.9314 18.7372 23.8857 21.16 23.8857 21.16C24.0178 21.6528 24.0945 22.1588 24.1143 22.6686H24.6857V21.1143C25.4503 20.3743 26.0704 19.4984 26.5143 18.5314C26.9433 16.942 26.8389 15.2558 26.2172 13.7314L26.2857 13.7086Z" fill="#1971BD"/>
</svg>
