<svg xmlns="http://www.w3.org/2000/svg" width="14" height="13" viewBox="0 0 14 13">
  <g id="mysqlroles" transform="translate(-667 -401)">
    <g id="rect8484" transform="translate(667 401)" fill="none" stroke="#0071bd" stroke-linecap="round" stroke-linejoin="round" stroke-dashoffset="2.189" stroke-width="0.5" stroke-dasharray="0.609 1">
      <rect width="14" height="13" stroke="none"/>
      <rect x="0.25" y="0.25" width="13.5" height="12.5" fill="none"/>
    </g>
    <g id="MySQL" transform="translate(23221.533 -15332.467)">
      <rect id="Rectangle_1797" data-name="Rectangle 1797" width="8" height="8" transform="translate(-22550.533 15736.467)" fill="none"/>
      <g id="Group_2005" data-name="Group 2005" transform="translate(-22551 15736.8)">
        <g id="Group_2004" data-name="Group 2004" transform="translate(0 0)">
          <path id="Path_2717" data-name="Path 2717" d="M77.506,446.053a.283.283,0,0,0-.313.167c-.123.243.093.516.166.653a1.936,1.936,0,0,1,.151.31c.022.07.02.136.037.209a4.94,4.94,0,0,0,.135.542,1.9,1.9,0,0,0,.107.251c.026.047.076.073.077.142a1.167,1.167,0,0,0-.112.283,1.813,1.813,0,0,0-.027,1.31c.047.105.161.33.355.268.17-.054.156-.278.223-.468.015-.043.011-.077.035-.1v.009c.039.112.077.224.116.335a2.1,2.1,0,0,0,.414.568,3.138,3.138,0,0,0,.241.258c.175.138.066.177,1.343.791.015.014.5.234.765.348a4.724,4.724,0,0,0,.7.23v-.009c-.023-.039-.026-.09-.047-.13l-.093-.126a1.827,1.827,0,0,0-.339-.427c-.1-.1-.344-.242-.376-.388l-.008-.01a1.652,1.652,0,0,0,.254-.036c.128-.022.237,0,.368-.026l.178-.034,0-.035c-.057-.078-.094-.177-.158-.249a5.33,5.33,0,0,0-.543-.537c-.107-.09-.242-.154-.357-.233-.038-.026-.109-.046-.132-.086a1.949,1.949,0,0,1-.118-.315c-.081-.225-.16-.467-.228-.7a3.742,3.742,0,0,0-.137-.46,3.794,3.794,0,0,0-1.25-1.594,1.619,1.619,0,0,0-.443-.206l-.271-.045c-.053-.03-.1-.109-.151-.149a1.285,1.285,0,0,0-.57-.3h0Zm.854.7c.059.005.091.059.136.1a.319.319,0,0,1-.145.484,1.237,1.237,0,0,0-.174-.415c-.111-.09.033-.205.155-.17a.139.139,0,0,1,.028,0Zm.672,4.391a.791.791,0,0,0-.073-.066,1.423,1.423,0,0,1-.193-.2c-.028-.034-.056-.066-.085-.1s-.076-.079-.113-.12a6.338,6.338,0,0,1-2.417.415c-1.746,0-3.16-.521-3.16-1.164v1.4c0,.643,1.414,1.164,3.16,1.164,1.7,0,3.087-.5,3.154-1.118a1.444,1.444,0,0,1-.272-.213Z" transform="translate(-72.991 -445.029)" fill="#0071bd"/>
          <path id="Path_2718" data-name="Path 2718" d="M77.395,451.076a2.029,2.029,0,0,1-.093-1.164,8.078,8.078,0,0,1-1.151.081c-1.746,0-3.16-.521-3.16-1.164v1.4c0,.643,1.414,1.164,3.16,1.164a7.938,7.938,0,0,0,1.359-.114,1.05,1.05,0,0,1-.115-.2Z" transform="translate(-72.991 -446.035)" fill="#0071bd"/>
          <path id="Path_2719" data-name="Path 2719" d="M77.34,447.305a3.427,3.427,0,0,1-.117-.447c-.011-.056-.024-.11-.037-.165s-.015-.081-.02-.12a.563.563,0,0,0-.017-.1,1.471,1.471,0,0,0-.114-.237l-.04-.071c-.011-.021-.026-.046-.043-.073a.837.837,0,0,1-.141-.8.493.493,0,0,1,.523-.278,1.562,1.562,0,0,1,.716.373.72.72,0,0,1,.086.089c.011.013.026.03.039.043l.283.05.064.024a1.635,1.635,0,0,1,.468.228c.109.086.216.175.319.269v-.477c0-.643-1.414-1.164-3.16-1.164s-3.16.521-3.16,1.164v.931c0,.642,1.414,1.164,3.16,1.164a7.953,7.953,0,0,0,1.316-.107,2.24,2.24,0,0,1-.126-.3Z" transform="translate(-72.991 -444.449)" fill="#0071bd"/>
        </g>
      </g>
    </g>
  </g>
</svg>
