<svg width="32" height="32" viewBox="0 0 32 32" fill="none" xmlns="http://www.w3.org/2000/svg">
<path d="M31.4286 1.57141H0.571426V30.1428H31.4286V1.57141Z" stroke="#1971BD" stroke-width="0.5" stroke-linecap="round" stroke-linejoin="round" stroke-dasharray="0.61 1"/>
<path d="M18.4 10.9657C18.2577 10.933 18.1085 10.9518 17.9787 11.0188C17.849 11.0857 17.7472 11.1965 17.6914 11.3314C17.3943 11.9028 17.8971 12.52 18.0571 12.84C18.1942 13.0645 18.309 13.3018 18.4 13.5485C18.4 13.7085 18.4 13.8457 18.4 14.0285C18.4774 14.4449 18.5766 14.8569 18.6971 15.2628C18.7713 15.4574 18.8552 15.6481 18.9486 15.8343C18.9486 15.8343 19.1314 15.9943 19.1314 16.1543C19.0182 16.3548 18.9335 16.5702 18.88 16.7943C18.4923 17.7547 18.4923 18.8281 18.88 19.7886C18.9943 20.04 19.2457 20.5428 19.68 20.4057C20.1143 20.2685 20.0457 19.7657 20.2057 19.3314C20.1925 19.2558 20.1925 19.1785 20.2057 19.1028L20.5714 19.9028C20.807 20.3876 21.1239 20.8282 21.5086 21.2057L22.0571 21.7771C22.4686 22.0971 22.2171 22.1885 25.1429 23.6057L26.88 24.3828C27.3977 24.6024 27.9329 24.7782 28.48 24.9085C28.48 24.9085 28.48 24.7028 28.3657 24.6114L28.16 24.3371C27.9704 23.9656 27.7236 23.6262 27.4286 23.3314C27.2 23.1028 26.6514 22.7828 26.5829 22.44C26.7727 22.4623 26.9645 22.4623 27.1543 22.44C27.4514 22.44 27.7029 22.44 28 22.44H28.4114C28.2743 22.2571 28.1829 22.0285 28.0457 21.8685C27.6632 21.4363 27.2507 21.0315 26.8114 20.6571C26.56 20.4514 26.2629 20.2914 25.9886 20.1085C25.7143 19.9257 25.7371 20.1085 25.6914 19.9257C25.5764 19.6914 25.4845 19.4464 25.4171 19.1943C25.2343 18.6914 25.0514 18.12 24.8914 17.5943C24.8134 17.2382 24.7142 16.8871 24.5943 16.5428C24.0092 14.9764 22.9954 13.6062 21.6686 12.5886C21.3275 12.3773 20.9581 12.2157 20.5714 12.1086H19.9543C19.9543 12.1086 19.7257 11.8571 19.6114 11.7657C19.2481 11.3914 18.7899 11.1227 18.2857 10.9885L18.4 10.9657ZM20.3429 12.5657C20.48 12.5657 20.5486 12.7028 20.6629 12.7943C20.7798 12.9415 20.8356 13.1282 20.8186 13.3154C20.8015 13.5027 20.713 13.6762 20.5714 13.8H20.3886C20.3211 13.4653 20.1892 13.147 20 12.8628C19.7486 12.6571 20 12.3828 20.3429 12.4743V12.5657ZM21.8743 22.6L21.7143 22.44C21.558 22.2989 21.4129 22.1461 21.28 21.9828L21.0743 21.7543L20.8229 21.5714C19.0609 22.2547 17.1806 22.581 15.2914 22.5314C11.4286 22.44 8.06857 21.2514 8.06857 19.7657V22.9657C8.06857 24.4514 11.3143 25.64 15.2914 25.64C19.2686 25.64 22.3543 24.4971 22.5143 23.08C22.2896 22.946 22.0823 22.7848 21.8971 22.6H21.8743Z" fill="#1971BD"/>
<path d="M18.1486 20.1314C17.8111 19.2898 17.7316 18.3669 17.92 17.48C17.0488 17.5985 16.1707 17.6596 15.2914 17.6628C11.4286 17.6628 8.06857 16.4743 8.06857 15.0114V18.2114C8.06857 19.6743 11.3143 20.8628 15.2914 20.8628C16.3326 20.8595 17.3719 20.7755 18.4 20.6114C18.3076 20.4639 18.2236 20.3113 18.1486 20.1543V20.1314Z" fill="#1971BD"/>
<path d="M18.0114 15.1485C17.8955 14.8143 17.8113 14.4699 17.76 14.1199C17.7496 13.9982 17.7496 13.8759 17.76 13.7542C17.7526 13.6629 17.7526 13.5712 17.76 13.4799C17.7728 13.4042 17.7728 13.327 17.76 13.2513C17.6901 13.0624 17.6061 12.879 17.5086 12.7028V12.5428V12.3828C17.3087 12.1279 17.1749 11.8276 17.1191 11.5086C17.0633 11.1896 17.0872 10.8618 17.1886 10.5542C17.2942 10.3309 17.4694 10.1479 17.6878 10.0325C17.9061 9.91715 18.156 9.87563 18.4 9.91419C19.0032 10.0559 19.5612 10.3467 20.0229 10.7599L20.2286 10.9656H20.8686H21.0057C21.3894 11.0721 21.7525 11.242 22.08 11.4685L22.5143 12.4285V11.2856C22.5143 9.7999 19.2914 8.61133 15.2914 8.61133C11.2914 8.61133 8.06857 9.7999 8.06857 11.2856V13.4113C8.06857 14.8742 11.3143 16.0628 15.2914 16.0628C16.295 16.0686 17.2971 15.9844 18.2857 15.8113C18.1688 15.5909 18.0695 15.3616 17.9886 15.1256L18.0114 15.1485Z" fill="#1971BD"/>
</svg>
