<svg xmlns="http://www.w3.org/2000/svg" width="14" height="13" viewBox="0 0 14 13">
  <g id="postgresroles" transform="translate(-667 -434)">
    <g id="rect8484" transform="translate(667 434)" fill="none" stroke="#0071bd" stroke-linecap="round" stroke-linejoin="round" stroke-dashoffset="2.189" stroke-width="0.5" stroke-dasharray="0.609 1">
      <rect width="14" height="13" stroke="none"/>
      <rect x="0.25" y="0.25" width="13.5" height="12.5" fill="none"/>
    </g>
    <g id="PostgreSql" transform="translate(23220.387 -15252.614)">
      <rect id="Rectangle_1797" data-name="Rectangle 1797" width="10" height="10" transform="translate(-22551.387 15688.614)" fill="none"/>
      <g id="Group_2001" data-name="Group 2001" transform="translate(-22550.803 15689)">
        <g id="Group_2000" data-name="Group 2000" transform="translate(0 0)">
          <path id="Path_2703" data-name="Path 2703" d="M78.42,404.193c-.058-.011-.117-.019-.174-.034a.978.978,0,0,1-.672-.591,2.709,2.709,0,0,1-.224-.958c-.012-.229-.02-.459-.03-.689,0-.011,0-.022,0-.032a1.634,1.634,0,0,1-1.534-.211l-.019.012a.82.82,0,0,1-1.043-.028,1.991,1.991,0,0,1-.471-.591,6.572,6.572,0,0,1-.524-1.282,13.668,13.668,0,0,1-.438-1.836,3.233,3.233,0,0,1,.073-1.518,1.757,1.757,0,0,1,1.44-1.274,3.255,3.255,0,0,1,1.286.034c.214.044.423.109.635.163a.09.09,0,0,0,.061,0,2.151,2.151,0,0,1,1.146-.262c.2.007.4.034.6.05a.244.244,0,0,0,.073-.005,3.71,3.71,0,0,1,1.556-.108,2.622,2.622,0,0,1,1.719.985,1.138,1.138,0,0,1,.221.6,3.459,3.459,0,0,1-.08,1.1,8.511,8.511,0,0,1-.956,2.468l-.036.065c.132-.021.252-.037.372-.059a.905.905,0,0,1,.395-.009.473.473,0,0,1,.307.686.97.97,0,0,1-.284.326,1.935,1.935,0,0,1-1.027.409c-.149.015-.3.014-.449.021l-.032,0c0,.049-.009.1-.011.145a5.588,5.588,0,0,1-.114,1.043,1.99,1.99,0,0,1-.345.8,1.357,1.357,0,0,1-.751.483c-.143.038-.291.06-.435.089a.078.078,0,0,0-.017.007Zm-.865-2.812v.071a13.8,13.8,0,0,0,.048,1.383,1.514,1.514,0,0,0,.158.584.859.859,0,0,0,.839.5,1.732,1.732,0,0,0,.742-.195.907.907,0,0,0,.434-.463,1.312,1.312,0,0,0,.1-.3c.065-.417.122-.835.18-1.253.02-.141.034-.283.05-.425.061.01.12.022.178.029a2.2,2.2,0,0,0,.6-.028,1.58,1.58,0,0,0,.839-.407.578.578,0,0,0,.133-.189.175.175,0,0,0-.139-.247.414.414,0,0,0-.131-.005c-.113.015-.225.038-.337.055a1.527,1.527,0,0,1-.537,0,1.287,1.287,0,0,1-.147-.051l.006-.02.058-.091a8.273,8.273,0,0,0,1.107-2.686,3.283,3.283,0,0,0,.081-1,.862.862,0,0,0-.162-.472,2.272,2.272,0,0,0-1.1-.771,3.211,3.211,0,0,0-1.974.024.129.129,0,0,1-.063.007,2.921,2.921,0,0,0-.571-.075,1.894,1.894,0,0,0-1.118.283.079.079,0,0,1-.06.006,4.874,4.874,0,0,0-1-.242,2.782,2.782,0,0,0-1,.034,1.468,1.468,0,0,0-1.1.944,2.708,2.708,0,0,0-.139,1.243,6.637,6.637,0,0,0,.108.662,12.023,12.023,0,0,0,.573,2.017,3.711,3.711,0,0,0,.437.848,1.2,1.2,0,0,0,.3.305.512.512,0,0,0,.621-.007,1.316,1.316,0,0,0,.2-.188c.226-.252.448-.506.671-.76a.044.044,0,0,1,.063-.013,1.042,1.042,0,0,0,.329.106l.149.018-.143.178a.4.4,0,0,1-.211.14c-.1.027-.2.046-.3.076a1.291,1.291,0,0,0-.275.1.212.212,0,0,0-.026.367.753.753,0,0,0,.171.1,1.257,1.257,0,0,0,.442.1,1.2,1.2,0,0,0,.856-.255Z" transform="translate(-73.232 -394.991)" fill="#0071bd"/>
          <path id="Path_2704" data-name="Path 2704" d="M81.779,397.718c-.122,0-.24-.008-.356,0a1.255,1.255,0,0,0-.3.06.619.619,0,0,0-.427.634,1.954,1.954,0,0,0,.152.7,6.261,6.261,0,0,0,.378.785c.066.121.129.243.19.366a2.1,2.1,0,0,0,.26.39c.018.022.034.044.052.069l-.029.011a.459.459,0,0,0-.344.447c-.039.649-.136,1.29-.229,1.932a1.694,1.694,0,0,1-.067.273.727.727,0,0,1-.506.5,2.45,2.45,0,0,1-.4.093.618.618,0,0,1-.678-.353,1.232,1.232,0,0,1-.135-.5,16.09,16.09,0,0,1-.042-1.721,1.128,1.128,0,0,0-.018-.284.481.481,0,0,0-.394-.381.717.717,0,0,0-.142,0,.6.6,0,0,1,.021-.079c.085-.218.168-.437.258-.654a2.272,2.272,0,0,0,.151-1.094c-.018-.2-.051-.4-.089-.593a.654.654,0,0,0-.759-.558,1.8,1.8,0,0,0-.682.2l-.055.027c.011-.089.02-.17.032-.252a2.893,2.893,0,0,1,.3-.961,1.529,1.529,0,0,1,.72-.7,1.687,1.687,0,0,1,.769-.138,2.5,2.5,0,0,1,2.142,1.3c.087.141.147.3.219.445A.311.311,0,0,1,81.779,397.718Z" transform="translate(-74.711 -395.313)" fill="#0071bd"/>
          <path id="Path_2705" data-name="Path 2705" d="M76.85,396.188a2.037,2.037,0,0,0-.335.441,3.118,3.118,0,0,0-.341,1.012,4.55,4.55,0,0,0-.036,1.033,5.409,5.409,0,0,1-.04.833,1.3,1.3,0,0,0,.415,1.128l.03.027c-.042.046-.085.09-.125.136-.193.221-.386.444-.581.664a.831.831,0,0,1-.148.129.253.253,0,0,1-.287,0,.787.787,0,0,1-.23-.217,3.142,3.142,0,0,1-.386-.711,10.7,10.7,0,0,1-.553-1.828c-.061-.279-.117-.56-.154-.843a2.494,2.494,0,0,1,.089-1.113,1.235,1.235,0,0,1,1-.873,2.606,2.606,0,0,1,.823-.016,4.5,4.5,0,0,1,.827.184Z" transform="translate(-73.511 -395.323)" fill="#0071bd"/>
          <path id="Path_2706" data-name="Path 2706" d="M83.372,400.461a.063.063,0,0,1-.018-.1,1.379,1.379,0,0,0,.173-.763c-.009-.189-.027-.377-.05-.565a2.7,2.7,0,0,1,.024-.692,5.385,5.385,0,0,0,.044-.546.6.6,0,0,0-.052-.227,3,3,0,0,0-1.519-1.691l-.04-.023c.116-.017.216-.036.318-.047a2.851,2.851,0,0,1,1.006.054,2.052,2.052,0,0,1,1.153.742.616.616,0,0,1,.11.333,3.027,3.027,0,0,1-.078.932,7.982,7.982,0,0,1-1.055,2.566Z" transform="translate(-76.188 -395.263)" fill="#0071bd"/>
          <path id="Path_2707" data-name="Path 2707" d="M77.581,399.827c-.007-.139-.013-.278-.021-.417a.064.064,0,0,1,.031-.065,1.551,1.551,0,0,1,.732-.266.7.7,0,0,1,.2.017.373.373,0,0,1,.283.311,3.468,3.468,0,0,1,.1.958,1.862,1.862,0,0,1-.158.652,4.808,4.808,0,0,0-.265.7c-.007.028-.026.026-.047.025a.878.878,0,0,1-.586-.261,1.073,1.073,0,0,1-.313-.924c.025-.242.04-.486.059-.728Zm.835-.616a1.088,1.088,0,0,0-.143.035.079.079,0,0,0-.046.112.256.256,0,0,0,.425.09c.065-.065.056-.135-.028-.172A1.561,1.561,0,0,0,78.416,399.211Z" transform="translate(-74.69 -396.379)" fill="#0071bd"/>
          <path id="Path_2708" data-name="Path 2708" d="M83.549,399.038c-.015.118-.024.24-.045.359a2.866,2.866,0,0,0-.01.9,2.1,2.1,0,0,1,.013.686c-.018.094-.05.186-.079.291-.014-.02-.019-.025-.022-.032-.141-.268-.284-.535-.42-.806a3,3,0,0,1-.279-.753.893.893,0,0,1-.014-.322.387.387,0,0,1,.336-.326,1.49,1.49,0,0,1,.5-.009A.116.116,0,0,1,83.549,399.038Zm-.47.363a.256.256,0,0,0,.214-.141c.028-.051.015-.09-.04-.106a.4.4,0,0,0-.341.046.067.067,0,0,0-.015.112A.234.234,0,0,0,83.079,399.4Z" transform="translate(-76.442 -396.357)" fill="#0071bd"/>
          <path id="Path_2709" data-name="Path 2709" d="M77.778,404.217c.087-.021.175-.041.262-.064s.178-.047.265-.075a.592.592,0,0,0,.283-.2c.06-.074.122-.147.182-.221.088-.108.178-.089.265,0a.228.228,0,0,1,.007.328.943.943,0,0,1-.9.347,2.139,2.139,0,0,1-.279-.061.433.433,0,0,1-.083-.04Z" transform="translate(-74.776 -397.909)" fill="#0071bd"/>
          <path id="Path_2710" data-name="Path 2710" d="M85.073,403.616c-.016.013-.038.033-.061.051a1.466,1.466,0,0,1-.739.283,1.652,1.652,0,0,1-.481,0c-.118-.021-.123-.027-.116-.147a.257.257,0,0,1,.254-.267.04.04,0,0,1,.026,0,.852.852,0,0,0,.551.128C84.7,403.66,84.886,403.634,85.073,403.616Z" transform="translate(-76.779 -397.894)" fill="#0071bd"/>
        </g>
      </g>
    </g>
  </g>
</svg>
