<svg width="32" height="32" viewBox="0 0 32 32" fill="none" xmlns="http://www.w3.org/2000/svg">
<path d="M31.4286 1.57141H0.571442V30.1428H31.4286V1.57141Z" stroke="#1971BD" stroke-width="0.5" stroke-linecap="round" stroke-linejoin="round" stroke-dasharray="0.61 1"/>
<path d="M17.76 27.4914H17.3714C17.0235 27.4131 16.7009 27.2486 16.4333 27.0129C16.1657 26.7773 15.9617 26.4781 15.84 26.1429C15.5147 25.4234 15.3359 24.6464 15.3143 23.8571V22.3029C14.7386 22.5266 14.1154 22.5999 13.5035 22.516C12.8916 22.432 12.3112 22.1934 11.8171 21.8229C11.4911 22.0787 11.0887 22.2177 10.6743 22.2177C10.2599 22.2177 9.85746 22.0787 9.53143 21.8229C9.08593 21.4446 8.714 20.9874 8.43428 20.4743C7.94451 19.5318 7.54649 18.5444 7.24571 17.5257C6.81924 16.155 6.48328 14.7577 6.24 13.3429C6.02508 12.1866 6.08775 10.9959 6.42286 9.86858C6.59488 9.12327 6.977 8.44292 7.52391 7.90816C8.07082 7.37341 8.75959 7.00667 9.50857 6.85143C10.473 6.64587 11.4699 6.64587 12.4343 6.85143C12.9371 6.85143 13.3943 7.10286 13.8971 7.21715H14.0343C14.8321 6.78437 15.7334 6.57881 16.64 6.62286H18.0114H18.2857C19.4333 6.27694 20.6436 6.19105 21.8286 6.37143C23.3894 6.58438 24.8027 7.40606 25.76 8.65715C26.0561 9.05638 26.2307 9.53257 26.2629 10.0286C26.3512 10.8709 26.2893 11.7222 26.08 12.5429C25.6476 14.5243 24.9154 16.4281 23.9086 18.1886V18.3486L24.7543 18.2114C25.0539 18.132 25.369 18.132 25.6686 18.2114C25.8071 18.2436 25.9379 18.303 26.0533 18.3861C26.1687 18.4693 26.2664 18.5745 26.3408 18.6957C26.4152 18.8169 26.4649 18.9517 26.4868 19.0922C26.5087 19.2327 26.5025 19.3762 26.4686 19.5143C26.4445 19.6038 26.4059 19.6887 26.3543 19.7657C26.2071 20.0665 25.9871 20.3258 25.7143 20.52C25.0585 21.0459 24.2648 21.3713 23.4286 21.4571L22.1486 21.5714C22.1486 21.6857 22.1486 21.8 22.1486 21.8914C22.1453 22.6978 22.0611 23.5019 21.8971 24.2914C21.7684 24.9524 21.4952 25.5768 21.0971 26.12C20.6675 26.6704 20.0626 27.0575 19.3829 27.2172C19.0629 27.2172 18.72 27.3543 18.4 27.4229H17.76V27.4914ZM15.7943 21.0686V21.2286C15.7943 22.28 15.7943 23.3314 15.7943 24.3829C15.8349 24.8433 15.9588 25.2925 16.16 25.7086C16.3235 26.0735 16.5956 26.3791 16.9393 26.5836C17.2829 26.7882 17.6813 26.8817 18.08 26.8514C18.6706 26.8454 19.251 26.6964 19.7714 26.4172C20.2187 26.1943 20.5744 25.8225 20.7771 25.3657C20.8738 25.1445 20.9503 24.915 21.0057 24.68L21.5086 21.8C21.5086 21.48 21.5086 21.16 21.6229 20.84H22.0343C22.4897 20.8969 22.9503 20.8969 23.4057 20.84C24.1183 20.7268 24.7799 20.4 25.3029 19.9029C25.4414 19.7845 25.5509 19.636 25.6229 19.4686C25.6454 19.4208 25.6579 19.3689 25.6597 19.3161C25.6614 19.2633 25.6524 19.2106 25.6332 19.1614C25.6139 19.1122 25.5848 19.0675 25.5477 19.0299C25.5105 18.9923 25.4661 18.9627 25.4171 18.9429H25.0057L24.2286 19.08C23.82 19.1486 23.4029 19.1486 22.9943 19.08L22.6743 18.9429L22.8571 18.6457C24.0546 16.74 24.8986 14.6339 25.3486 12.4286C25.5229 11.68 25.5845 10.9096 25.5314 10.1429C25.4941 9.78591 25.3597 9.44601 25.1429 9.16001C24.5057 8.32371 23.6286 7.70173 22.6286 7.37715C21.1424 6.89818 19.5433 6.89818 18.0571 7.37715H17.9886C17.5617 7.2716 17.1251 7.21033 16.6857 7.19429C15.7857 7.15822 14.8951 7.38882 14.1257 7.85715C14.1043 7.86731 14.0809 7.87259 14.0571 7.87259C14.0334 7.87259 14.01 7.86731 13.9886 7.85715C13.2514 7.5833 12.484 7.39912 11.7029 7.30858C10.9471 7.17142 10.1729 7.17142 9.41714 7.30858C8.81899 7.42821 8.26469 7.70841 7.8137 8.11914C7.3627 8.52987 7.03203 9.05562 6.85714 9.64001C6.55628 10.5369 6.46251 11.4903 6.58286 12.4286C6.58286 12.9314 6.72 13.4343 6.83428 13.9371C7.13433 15.4961 7.57028 17.0257 8.13714 18.5086C8.3866 19.2258 8.72444 19.9092 9.14286 20.5429C9.32962 20.8097 9.5617 21.0418 9.82857 21.2286C10.0303 21.388 10.28 21.4747 10.5371 21.4747C10.7943 21.4747 11.0439 21.388 11.2457 21.2286C11.4141 21.1103 11.5676 20.9722 11.7029 20.8171L13.2343 19.08H13.3714C13.6102 19.1886 13.8649 19.258 14.1257 19.2857H14.4686L14.1486 19.6743C14.0451 19.8329 13.8926 19.9533 13.7143 20.0171L13.0286 20.2C12.8074 20.252 12.5927 20.3287 12.3886 20.4286C12.3313 20.4551 12.2801 20.4933 12.2382 20.5406C12.1964 20.5879 12.1648 20.6434 12.1455 20.7035C12.1261 20.7636 12.1195 20.8271 12.1259 20.89C12.1324 20.9528 12.1517 21.0136 12.1829 21.0686C12.2091 21.1545 12.2661 21.2277 12.3429 21.2743C12.4645 21.3631 12.5947 21.4397 12.7314 21.5029C13.0513 21.6354 13.3914 21.7126 13.7371 21.7314C14.4444 21.793 15.1482 21.5802 15.7029 21.1371L15.7943 21.0686Z" fill="#1971BD"/>
<path d="M22.0571 11.9485H21.2571C21.024 11.9677 20.7939 12.0137 20.5714 12.0856C20.2683 12.1782 20.0058 12.3713 19.8272 12.6331C19.6485 12.8948 19.5643 13.2096 19.5886 13.5256C19.6057 14.0752 19.7218 14.6173 19.9314 15.1256C20.1712 15.7722 20.4616 16.399 20.8 16.9999C20.9371 17.2742 21.0971 17.5485 21.2343 17.8456C21.3967 18.165 21.5962 18.4642 21.8286 18.7371V18.8742C21.6051 18.9305 21.407 19.0603 21.2661 19.2427C21.1251 19.425 21.0495 19.6494 21.0514 19.8799C21.0514 21.3656 20.7314 22.8285 20.5257 24.2913C20.4859 24.5078 20.4324 24.7216 20.3657 24.9313C20.2857 25.2021 20.1392 25.4485 19.9396 25.6481C19.74 25.8477 19.4936 25.9942 19.2228 26.0742C18.9234 26.1644 18.6178 26.2331 18.3086 26.2799C17.9973 26.3395 17.6751 26.2931 17.3934 26.1481C17.1116 26.0031 16.8866 25.7678 16.7543 25.4799C16.5712 25.1246 16.4624 24.7358 16.4343 24.3371C16.3658 23.0275 16.3658 21.7152 16.4343 20.4056C16.4665 20.1858 16.4665 19.9625 16.4343 19.7428C16.3911 19.5247 16.2828 19.325 16.1236 19.1698C15.9645 19.0147 15.7619 18.9116 15.5428 18.8742H15.1314C15.1212 18.8137 15.1212 18.7519 15.1314 18.6913C15.3143 18.1885 15.52 17.7085 15.7257 17.2056C16.0563 16.4192 16.1897 15.5639 16.1143 14.7142C16.1017 14.2477 16.0636 13.7822 16 13.3199C15.9748 13.124 15.9108 12.9351 15.8117 12.7643C15.7126 12.5934 15.5805 12.444 15.423 12.3248C15.2655 12.2057 15.0858 12.1191 14.8945 12.0702C14.7031 12.0212 14.5039 12.011 14.3086 12.0399C13.7651 12.0866 13.2365 12.242 12.7543 12.4971H12.6171V11.9256C12.7174 11.131 12.9491 10.3585 13.3028 9.63991C13.6558 8.93662 14.2356 8.37291 14.9486 8.03991C15.4902 7.84684 16.0696 7.7842 16.64 7.85706C17.6461 7.8715 18.6301 8.15459 19.4901 8.67702C20.3501 9.19945 21.0549 9.94223 21.5314 10.8285C21.7172 11.1543 21.8851 11.4901 22.0343 11.8342C22.0542 11.8688 22.0622 11.9089 22.0571 11.9485Z" fill="#1971BD"/>
<path d="M13.5314 8.42849C13.2349 8.72739 12.9811 9.06583 12.7771 9.4342C12.3888 10.1459 12.126 10.9191 12 11.7199C11.9157 12.4795 11.9157 13.2461 12 14.0056C12.0569 14.6367 12.0569 15.2717 12 15.9028C11.8993 16.3816 11.9175 16.8779 12.053 17.348C12.1884 17.8182 12.4371 18.2481 12.7771 18.5999L12.48 18.9199L11.1543 20.4285C11.0625 20.5508 10.9456 20.6521 10.8114 20.7256C10.7134 20.7915 10.5981 20.8266 10.48 20.8266C10.362 20.8266 10.2466 20.7915 10.1486 20.7256C9.94706 20.597 9.76922 20.4347 9.62286 20.2456C9.27547 19.7377 8.98424 19.1936 8.75429 18.6228C8.24056 17.2802 7.84292 15.8961 7.56572 14.4856C7.40887 13.8451 7.28679 13.1965 7.20001 12.5428C7.08525 11.6921 7.15542 10.8267 7.40572 10.0056C7.55955 9.49188 7.85598 9.03231 8.26058 8.68031C8.66518 8.32831 9.16134 8.09832 9.69143 8.01706C10.312 7.91432 10.9452 7.91432 11.5657 8.01706C12.2098 8.10474 12.8448 8.25008 13.4629 8.45135L13.5314 8.42849Z" fill="#1971BD"/>
<path d="M22.3314 18.3257C22.3089 18.3006 22.2965 18.268 22.2965 18.2343C22.2965 18.2005 22.3089 18.168 22.3314 18.1428C22.6314 17.6155 22.7667 17.0105 22.72 16.4057C22.7056 15.9772 22.6675 15.5499 22.6057 15.1257C22.5368 14.5946 22.5368 14.0568 22.6057 13.5257C22.6284 13.1146 22.6284 12.7025 22.6057 12.2914C22.6402 12.1179 22.6402 11.9392 22.6057 11.7657C22.0094 10.0551 20.7604 8.64989 19.1314 7.85712H19.8629C20.6196 7.73179 21.3918 7.73179 22.1486 7.85712C23.2041 8.10461 24.1411 8.71046 24.8 9.57141C24.9541 9.7937 25.0413 10.0554 25.0514 10.3257C25.0937 11.0394 25.0321 11.7554 24.8686 12.4514C24.3767 14.526 23.5258 16.4986 22.3543 18.28L22.3314 18.3257Z" fill="#1971BD"/>
<path d="M12.5029 14.3258C12.5029 14.0058 12.5029 13.7086 12.5029 13.3886C12.4907 13.3637 12.4844 13.3363 12.4844 13.3086C12.4844 13.2809 12.4907 13.2535 12.5029 13.2286C13.004 12.884 13.5878 12.6789 14.1943 12.6343C14.3459 12.6121 14.4999 12.6121 14.6514 12.6343C14.8171 12.6742 14.9668 12.7632 15.081 12.8897C15.1952 13.0161 15.2685 13.1741 15.2914 13.3429C15.4775 14.0898 15.5545 14.8597 15.52 15.6286C15.4866 16.1023 15.3706 16.5664 15.1771 17C14.9454 17.5203 14.7469 18.0547 14.5829 18.6C14.0749 18.5775 13.5937 18.3654 13.2343 18.0058C12.9599 17.7303 12.7531 17.395 12.6301 17.0262C12.5072 16.6574 12.4714 16.265 12.5257 15.88C12.5257 15.3315 12.5257 14.7829 12.6629 14.2343L12.5029 14.3258ZM14.4229 12.9315H14.1029C14.1029 12.9315 13.9429 13.0686 14.1029 13.16C14.1547 13.3083 14.2632 13.43 14.4045 13.4985C14.5459 13.5671 14.7086 13.5769 14.8571 13.5258L15.0857 13.3658C15.1188 13.3453 15.1461 13.3167 15.165 13.2827C15.184 13.2487 15.1939 13.2104 15.1939 13.1715C15.1939 13.1326 15.184 13.0943 15.165 13.0603C15.1461 13.0263 15.1188 12.9977 15.0857 12.9772L14.4229 12.9315Z" fill="#1971BD"/>
<path d="M22.1486 12.5886C22.1486 12.8401 22.1486 13.1372 22.1486 13.4115C22.0344 14.0924 22.0344 14.7877 22.1486 15.4686C22.2288 15.9836 22.2288 16.5079 22.1486 17.0229C22.1486 17.2515 22.0343 17.4572 21.9657 17.6858C21.8972 17.9143 21.9657 17.6858 21.9657 17.6858C21.6457 17.0686 21.3029 16.4743 21.0057 15.8343C20.712 15.2962 20.4964 14.719 20.3657 14.1201C20.3194 13.8784 20.3194 13.6302 20.3657 13.3886C20.398 13.1965 20.4908 13.0197 20.6306 12.884C20.7704 12.7483 20.9499 12.6609 21.1429 12.6343C21.5217 12.5773 21.9069 12.5773 22.2857 12.6343L22.1486 12.5886ZM21.0743 13.4115C21.1749 13.4033 21.2718 13.3696 21.3557 13.3136C21.4397 13.2576 21.508 13.1812 21.5543 13.0915C21.5543 13.0915 21.5543 12.8858 21.5543 12.8401C21.4242 12.8017 21.2873 12.7921 21.1532 12.8118C21.019 12.8316 20.8907 12.8802 20.7772 12.9543C20.7772 12.9543 20.7772 12.9543 20.7772 13.1601C20.823 13.226 20.8847 13.2795 20.9566 13.3154C21.0285 13.3513 21.1083 13.3687 21.1886 13.3658L21.0743 13.4115Z" fill="#1971BD"/>
<path d="M12.7771 20.8628L13.3714 20.7257L13.9657 20.5428C14.2323 20.4705 14.4662 20.3092 14.6286 20.0857L15.04 19.5828C15.07 19.5306 15.1133 19.4872 15.1655 19.4571C15.2177 19.4269 15.2769 19.411 15.3371 19.411C15.3974 19.411 15.4566 19.4269 15.5087 19.4571C15.5609 19.4872 15.6042 19.5306 15.6343 19.5828C15.7307 19.6847 15.7845 19.8197 15.7845 19.96C15.7845 20.1003 15.7307 20.2352 15.6343 20.3371C15.3958 20.6441 15.0785 20.8806 14.7163 21.0215C14.354 21.1623 13.9603 21.2023 13.5771 21.1371L12.9371 21H12.7543L12.7771 20.8628Z" fill="#1971BD"/>
<path d="M24.8686 19.5371L24.7314 19.6514C24.239 20.0196 23.6528 20.2414 23.04 20.2914C22.6775 20.3601 22.3053 20.3601 21.9429 20.2914C21.6686 20.2914 21.6457 20.2914 21.6686 19.9486C21.659 19.8668 21.6666 19.784 21.6907 19.7054C21.7148 19.6268 21.755 19.554 21.8087 19.4917C21.8624 19.4294 21.9285 19.3789 22.0027 19.3434C22.077 19.308 22.1578 19.2883 22.24 19.2857C22.615 19.5203 23.0568 19.6247 23.4971 19.5828L24.8686 19.5371Z" fill="#1971BD"/>
</svg>
