<svg xmlns="http://www.w3.org/2000/svg" width="11.426" height="13.648" viewBox="0 0 11.426 13.648">
  <path id="secretengines" d="M5.713,13.648a.966.966,0,0,1-.189-.019.89.89,0,0,1-.13-.036,8.448,8.448,0,0,1-3.172-1.908A6.9,6.9,0,0,1,.6,9.116,15.018,15.018,0,0,1,.013,3.723v-.03c.005-.124.009-.258.012-.424A1.436,1.436,0,0,1,1.365,1.851,5.472,5.472,0,0,0,5.121.241L5.13.232A.848.848,0,0,1,6.3.232l.009.009a5.472,5.472,0,0,0,3.756,1.61A1.436,1.436,0,0,1,11.4,3.268c0,.134.005.269.012.425V3.7a15.068,15.068,0,0,1-.59,5.412A6.9,6.9,0,0,1,9.2,11.683a8.457,8.457,0,0,1-3.169,1.91.935.935,0,0,1-.13.036A.966.966,0,0,1,5.713,13.648ZM5.7,3.511a1.584,1.584,0,0,0-.491.077A1.708,1.708,0,0,0,4.026,5.064c-.014.185-.01.373-.006.556,0,.086,0,.172,0,.258-.33.094-.405.192-.4.526,0,.111,0,.222,0,.333s0,.222,0,.333q0,.556,0,1.11t0,1.109a.747.747,0,0,0,.007.128.4.4,0,0,0,.414.3h3.3a.4.4,0,0,0,.442-.446V6.308A.383.383,0,0,0,7.473,5.9a.628.628,0,0,0-.067-.018V5.676c0-.137,0-.271,0-.405A1.773,1.773,0,0,0,6.981,4.1,1.693,1.693,0,0,0,5.7,3.511ZM6.019,8.6H5.4c.013-.068.026-.135.038-.2.031-.164.06-.32.1-.476a.13.13,0,0,0-.063-.165A.42.42,0,0,1,5.7,7a.415.415,0,0,1,.4.29.4.4,0,0,1-.152.468.128.128,0,0,0-.06.165c.027.127.05.25.075.381.019.1.038.2.058.3Zm.81-2.717H4.571c.008-.116.005-.233,0-.347a1.743,1.743,0,0,1,.11-.8,1.145,1.145,0,0,1,1.026-.66,1.065,1.065,0,0,1,.184.016,1.134,1.134,0,0,1,.931,1,4.882,4.882,0,0,1,.007.526c0,.084,0,.169,0,.256Z" transform="translate(0)" fill="#0071bd"/>
</svg>
