<svg width="32" height="32" viewBox="0 0 32 32" fill="none" xmlns="http://www.w3.org/2000/svg">
<g clip-path="url(#clip0)">
<path d="M30.5433 23.3053C30.1916 23.0802 29.906 22.7652 29.7161 22.3929C29.5261 22.0205 29.4386 21.6042 29.4625 21.1867V21.0454C30.2379 20.0332 30.2379 20.0332 29.3451 19.1151C28.4523 18.197 28.6167 18.4324 27.9824 19.1151C27.348 19.7977 27.1365 19.7036 26.6197 19.3034C26.5048 19.2322 26.3771 19.1842 26.2437 19.1622H26.1028C25.9824 19.1344 25.8687 19.0831 25.7681 19.0113C25.6675 18.9395 25.582 18.8485 25.5166 18.7436C25.4511 18.6386 25.4069 18.5218 25.3866 18.3997C25.3662 18.2776 25.3701 18.1528 25.3979 18.0322C25.3979 18.0322 25.3979 17.8203 25.3979 17.7026C25.375 17.5799 25.3065 17.4703 25.2062 17.3961C25.106 17.3219 24.9814 17.2884 24.8575 17.3024H24.3407C23.1659 17.3024 23.0015 17.0435 22.931 18.503C22.931 19.0209 21.3098 19.8213 20.8399 19.5859H20.699C19.6652 18.809 19.6652 18.809 18.7489 19.7507L18.4669 20.0096C18.3629 20.0854 18.2907 20.1974 18.2647 20.3236C18.2386 20.4499 18.2604 20.5813 18.326 20.6923C18.5002 20.8138 18.6424 20.9758 18.7406 21.1644C18.8388 21.3529 18.89 21.5625 18.8899 21.7752C18.8843 21.9286 18.8525 22.0798 18.7959 22.2224L18.4904 22.858C18.4594 22.9712 18.4032 23.0758 18.326 23.1641C18.2306 23.2542 18.1047 23.3047 17.9736 23.3053H17.5506C17.3157 23.3053 16.9398 23.3053 16.8458 23.5643C16.8235 23.6967 16.8235 23.832 16.8458 23.9645V24.8119C16.8458 25.6594 16.8458 25.6829 17.6916 25.7536H17.9736C18.5609 25.7536 19.3832 27.3308 19.1483 27.8487C19.155 27.8955 19.155 27.9431 19.1483 27.9899C18.42 29.0728 18.42 29.0728 19.3363 30.0144L19.5712 30.2498C19.6174 30.3086 19.6763 30.3561 19.7434 30.3888C19.8106 30.4214 19.8842 30.4384 19.9589 30.4384C20.0335 30.4384 20.1072 30.4214 20.1743 30.3888C20.2415 30.3561 20.3004 30.3086 20.3465 30.2498L20.464 30.1086C20.7225 29.8583 21.0679 29.7184 21.4273 29.7184C21.7867 29.7184 22.1321 29.8583 22.3906 30.1086C22.4813 30.1721 22.5862 30.2125 22.696 30.2263C22.8454 30.2549 22.9787 30.3383 23.07 30.4602C23.1612 30.5821 23.2038 30.7338 23.1894 30.8854C23.1894 31.0738 23.1894 31.2856 23.1894 31.474C23.1658 31.5345 23.1658 31.6017 23.1894 31.6623C23.2178 31.7978 23.297 31.9172 23.4106 31.996C23.5243 32.0748 23.6637 32.107 23.8003 32.086H24.928C25.3744 32.086 25.6094 31.8977 25.5859 31.4504C25.5698 31.2908 25.5857 31.1296 25.6328 30.9762C25.68 30.8229 25.7573 30.6806 25.8602 30.5577C25.9631 30.4348 26.0896 30.3338 26.2322 30.2607C26.3747 30.1876 26.5304 30.1439 26.6901 30.1321C26.8016 30.1096 26.9062 30.0612 26.9956 29.9909C27.1618 29.8659 27.3701 29.8107 27.5763 29.8371C27.7825 29.8634 27.9703 29.9693 28.0998 30.1321C28.2902 30.3225 28.5032 30.4885 28.7342 30.6265C29.4352 30.3654 30.0078 29.8423 30.3318 29.167C30.3235 29.0142 30.2561 28.8706 30.1439 28.7668C29.8609 28.5708 29.6639 28.2733 29.594 27.9358C29.524 27.5983 29.5863 27.2468 29.768 26.9541L29.9089 26.7658C29.9216 26.7037 29.9216 26.6396 29.9089 26.5775C29.9381 26.3859 30.0398 26.2129 30.193 26.0946C30.3461 25.9762 30.5389 25.9215 30.7313 25.9419C31.765 25.9419 31.765 25.9419 31.765 24.8355C31.765 23.7291 31.718 23.5407 30.5433 23.3053ZM27.4655 24.6001C27.4593 25.0174 27.3712 25.4295 27.2061 25.8127C27.0411 26.1959 26.8022 26.5428 26.5033 26.8336C26.2044 27.1243 25.8513 27.3532 25.4641 27.5072C25.0769 27.6612 24.6632 27.7372 24.2467 27.731C23.4556 27.6626 22.7189 27.2994 22.1822 26.7132C21.6454 26.1269 21.3476 25.3603 21.3476 24.5648C21.3476 23.7692 21.6454 23.0026 22.1822 22.4164C22.7189 21.8301 23.4556 21.4669 24.2467 21.3985C25.0735 21.4109 25.8623 21.7487 26.4426 22.3389C27.0229 22.9292 27.3481 23.7245 27.348 24.553L27.4655 24.6001Z" fill="#1971BD"/>
<path d="M19.9706 16.2667C21.1514 16.2667 22.1086 15.3076 22.1086 14.1244C22.1086 12.9413 21.1514 11.9822 19.9706 11.9822C18.7898 11.9822 17.8326 12.9413 17.8326 14.1244C17.8326 15.3076 18.7898 16.2667 19.9706 16.2667Z" fill="#1971BD"/>
<path d="M12.8987 16.2667C14.0795 16.2667 15.0367 15.3076 15.0367 14.1244C15.0367 12.9413 14.0795 11.9822 12.8987 11.9822C11.7178 11.9822 10.7606 12.9413 10.7606 14.1244C10.7606 15.3076 11.7178 16.2667 12.8987 16.2667Z" fill="#1971BD"/>
<path d="M15.2717 26.3186H14.8722C13.6975 26.2009 13.674 26.1773 13.674 24.9767V23.7762C13.6282 23.5906 13.6282 23.3967 13.674 23.2112C13.8385 22.8581 14.3554 22.8581 14.6843 22.8345C13.5093 22.7632 12.3443 22.5739 11.207 22.2695C10.3415 20.8234 9.66257 19.273 9.18649 17.6556C8.92933 15.7379 9.35201 13.7906 10.3809 12.1531C11.4097 10.5157 12.9794 9.29192 14.8165 8.69519C16.6535 8.09847 18.6413 8.16662 20.4333 8.88776C22.2253 9.6089 23.7079 10.9373 24.6226 12.6414C24.6226 13.0887 24.5051 13.5124 24.4581 13.9597H25.163C25.2495 13.9464 25.3378 13.9505 25.4227 13.9719C25.5076 13.9932 25.5874 14.0313 25.6574 14.0839C25.7274 14.1365 25.7862 14.2026 25.8304 14.2783C25.8746 14.3539 25.9033 14.4377 25.9148 14.5246C25.9272 14.5461 25.9337 14.5705 25.9337 14.5953C25.9337 14.6201 25.9272 14.6444 25.9148 14.6659C25.938 14.822 25.938 14.9806 25.9148 15.1367C25.8515 15.4886 25.9261 15.8514 26.123 16.1495C26.32 16.4477 26.6241 16.6583 26.9721 16.7375H27.1366C27.3241 16.7626 27.5021 16.8355 27.6534 16.9493C28.3818 17.4908 28.9691 17.2554 29.58 16.6904C29.7649 16.5004 29.9791 16.3414 30.2144 16.2196C29.8484 16.1253 29.4939 15.9911 29.1571 15.8194C29.4289 14.2652 29.5548 12.6889 29.533 11.1112C28.6145 9.77992 27.5678 8.54203 26.4082 7.41534C26.9188 6.44525 27.6819 5.63178 28.6167 5.06126L29.0631 4.70815L28.7342 4.35504C27.148 2.56548 25.1917 1.14361 23.0015 0.188326L22.5785 0V0.470815C22.2964 1.54992 21.7186 2.52842 20.9104 3.2957C19.7216 2.10974 18.1123 1.44391 16.4346 1.44391C14.757 1.44391 13.1477 2.10974 11.9589 3.2957C11.2021 2.50781 10.6671 1.53313 10.4082 0.470815V0L9.84434 0.188326C7.65744 1.16014 5.70293 2.58876 4.1116 4.37858L3.82966 4.70815L4.22907 4.94356C5.14603 5.5285 5.89825 6.33892 6.41409 7.29763C4.92044 8.06757 3.79094 9.39769 3.27166 10.9983C2.75238 12.5988 2.88539 14.3402 3.6417 15.8429C2.80283 16.2629 1.87757 16.4806 0.939794 16.4785H0.469897H0V16.9493C0.286561 19.3304 1.08839 21.62 2.34948 23.6585L2.58443 24.0586L2.93686 23.7526C3.76819 23.0439 4.77446 22.5723 5.85022 22.3873C6.55659 23.817 7.39011 25.18 8.34067 26.4598C9.86683 26.9931 11.4403 27.3793 13.0396 27.6133C13.1984 28.7028 13.0688 29.8149 12.6637 30.8384L12.4758 31.2857L12.9457 31.4034C14.0975 31.6431 15.27 31.7693 16.4464 31.78C15.7415 30.9796 15.859 30.7442 16.7518 29.4259L16.8928 29.2376C17.2687 28.5549 16.047 26.3892 15.2717 26.3186Z" fill="#1971BD"/>
</g>
<defs>
<clipPath id="clip0">
<rect width="32" height="32" fill="white"/>
</clipPath>
</defs>
</svg>
