<svg width="32" height="32" viewBox="0 0 32 32" fill="none" xmlns="http://www.w3.org/2000/svg">
<g clip-path="url(#clip0)">
<path d="M30.4429 19.2759C30.3817 19.4177 30.3396 19.5403 30.2784 19.6477C30.068 20.0118 29.85 20.3721 29.6281 20.7286C29.5669 20.8282 29.5631 20.9049 29.6166 21.0084C29.7237 21.2307 29.8041 21.4684 29.9112 21.6945C29.9418 21.7558 30.0145 21.8248 30.0795 21.8402C30.573 21.9705 31.0665 22.0893 31.5638 22.2081C31.889 22.2886 31.9999 22.4266 32.0037 22.7601C32.0037 23.2852 32.0037 23.8065 32.0037 24.3316C32.0037 24.6536 31.889 24.7954 31.5753 24.8721C31.0818 24.9947 30.5845 25.1097 30.091 25.2401C30.0221 25.2592 29.9418 25.3321 29.9112 25.3972C29.8041 25.6195 29.7084 25.8495 29.6243 26.0833C29.6013 26.1485 29.6051 26.2481 29.6396 26.3056C29.8461 26.6659 30.0604 27.0186 30.2746 27.3751C30.4812 27.72 30.4659 27.8733 30.1866 28.1532C29.8308 28.5096 29.4751 28.8699 29.1193 29.2226C28.8859 29.4526 28.6947 29.4756 28.4154 29.3069C28.0558 29.0923 27.6962 28.8699 27.3289 28.663C27.2601 28.6246 27.1453 28.6208 27.0688 28.6476C26.824 28.7358 26.583 28.8431 26.3496 28.9543C26.2846 28.9849 26.2157 29.0539 26.2004 29.1191C26.0703 29.6135 25.9518 30.108 25.8332 30.6063C25.7528 30.9398 25.6151 31.0509 25.267 31.0509C24.7582 31.0509 24.2456 31.0509 23.7368 31.0509C23.3886 31.0509 23.2509 30.9398 23.1706 30.6063C23.0482 30.1118 22.9334 29.6135 22.8033 29.1191C22.788 29.0539 22.7153 28.9811 22.6541 28.9543C22.417 28.8431 22.1798 28.7396 21.9349 28.6476C21.8699 28.6246 21.7704 28.6285 21.7092 28.663C21.3496 28.8699 20.9977 29.0846 20.6419 29.2992C20.3512 29.4756 20.1675 29.4526 19.9265 29.2149C19.5669 28.8546 19.2035 28.4943 18.8439 28.1302C18.5991 27.8848 18.5799 27.7047 18.7559 27.4134C18.9587 27.0684 19.1729 26.7234 19.3718 26.367C19.4101 26.298 19.4177 26.183 19.391 26.1102C19.3068 25.8687 19.2035 25.6349 19.0964 25.4049C19.062 25.3359 18.9855 25.2631 18.9166 25.2439C18.4231 25.1136 17.9296 24.9947 17.4323 24.8759C17.1109 24.7954 17 24.6536 17 24.3201C17 23.8027 17 23.2852 17 22.7678C17 22.4305 17.1109 22.2925 17.4361 22.212C17.9296 22.0893 18.4269 21.9743 18.9166 21.8402C18.9855 21.821 19.0543 21.7443 19.0926 21.6792C19.15 21.5795 19.1576 21.453 19.2188 21.361C19.4101 21.0774 19.3565 20.8321 19.1691 20.5676C18.9587 20.2725 18.7904 19.9467 18.6029 19.6362C18.4193 19.3295 18.4384 19.1609 18.6909 18.9041C19.0505 18.5399 19.4101 18.1796 19.7735 17.8193C20.0183 17.5778 20.1714 17.5548 20.4698 17.7312C20.8561 17.9573 21.2387 18.1873 21.6174 18.4211C21.7284 18.4901 21.8202 18.4939 21.9349 18.4364C22.1721 18.3253 22.417 18.2371 22.6503 18.1221C22.7115 18.0915 22.7804 18.0186 22.7957 17.9535C22.9258 17.459 23.0443 16.9646 23.1629 16.4663C23.2471 16.1443 23.3886 16.0331 23.7176 16.0293C24.2417 16.0293 24.762 16.0293 25.2861 16.0293C25.6075 16.0293 25.749 16.1481 25.8255 16.4586C25.9479 16.9531 26.0627 17.4513 26.1928 17.9458C26.2119 18.0148 26.2807 18.0953 26.3496 18.126C26.5791 18.2371 26.8125 18.3368 27.0535 18.4249C27.1185 18.4479 27.218 18.4403 27.2754 18.4096C27.6503 18.195 28.0214 17.965 28.3924 17.7465C28.7138 17.5587 28.8592 17.574 29.1193 17.8347C29.4904 18.2026 29.8615 18.5706 30.2249 18.9462C30.3167 19.0344 30.3702 19.1609 30.4429 19.2759ZM24.498 20.4679C22.7957 20.4679 21.4261 21.844 21.43 23.5497C21.4338 25.2554 22.8033 26.6238 24.5095 26.6199C26.2004 26.6161 27.57 25.2401 27.57 23.5497C27.5661 21.8402 26.2004 20.4679 24.498 20.4679Z" fill="#1971BD"/>
</g>
<path d="M12.4219 27.5057C11.5018 27.5057 10.8116 28.1972 10.8116 29.1191C10.8116 30.041 11.5018 30.7325 12.4219 30.7325C13.3421 30.7325 14.0322 30.041 14.0322 29.1191C14.0322 28.4276 13.3421 27.5057 12.4219 27.5057Z" fill="#1971BD"/>
<path d="M28.9845 1H24.6138C23.6936 1 22.7735 1.23047 22.0834 1.92192C19.7831 3.99628 17.7127 6.53162 16.1024 9.06695C14.4922 6.53162 12.4219 3.99628 10.1216 1.92192C9.43149 1.23047 8.51127 1 7.59113 1H3.22055C1.15023 1 0 2.61342 0 7.2231V24.5094C0 27.7362 1.1502 30.502 2.76045 30.502H8.28134C10.5817 30.502 6.21097 23.1265 6.21097 15.751V13.6766C6.21097 11.1413 6.67101 8.83645 8.05122 9.98887C12.1919 13.2156 12.1919 22.435 14.0322 23.8179V23.1265C14.0322 22.896 14.0322 22.6655 14.0322 22.6655C14.2623 22.2045 14.7222 22.4351 14.9523 22.2046C15.1823 22.2046 15.4123 22.2046 15.6424 22.2046C15.8724 22.2046 16.1024 22.2046 16.1024 21.9741C16.1024 21.7436 16.3326 21.7436 16.3326 21.5131L16.7925 20.5912C17.0226 20.3607 17.0226 19.8997 17.0226 19.6692C17.0226 18.9778 16.7926 18.5168 16.1024 18.0558C15.6424 17.8253 15.8724 17.3644 16.1024 16.9034L16.5625 16.4425C17.9428 15.0596 17.9428 15.0596 19.323 16.212C19.323 16.212 19.553 16.212 19.553 16.4425C20.013 16.4425 20.2431 16.4425 20.7031 16.4425C21.1632 13.9071 22.5434 11.6022 24.1537 9.75837C25.5339 8.83644 25.9939 10.9108 25.9939 13.4461V15.29C26.224 15.751 26.4541 15.9815 26.9141 16.212C26.9141 16.212 26.9141 16.212 27.1441 16.212C27.3741 16.212 27.6042 16.212 27.6042 16.4425C28.2943 16.9034 28.9844 16.6729 29.4444 16.212C30.3646 15.5205 30.3647 15.5205 31.2848 16.4425C31.5149 16.673 31.7449 16.9034 31.9749 17.3644V7.45353C32.205 2.61336 30.8248 1 28.9845 1Z" fill="#1971BD"/>
<defs>
<clipPath id="clip0">
<rect width="15" height="15.0293" fill="white" transform="translate(17 16.0293)"/>
</clipPath>
</defs>
</svg>
