<svg width="32" height="32" viewBox="0 0 32 32" fill="none" xmlns="http://www.w3.org/2000/svg">
<g clip-path="url(#clip0)">
<path d="M15.4429 19.2402C15.3817 19.3818 15.3396 19.5042 15.2784 19.6113C15.068 19.9748 14.85 20.3344 14.6281 20.6901C14.5669 20.7896 14.5631 20.8661 14.6166 20.9694C14.7237 21.1913 14.8041 21.4285 14.9112 21.6542C14.9418 21.7154 15.0145 21.7842 15.0795 21.7995C15.573 21.9296 16.0665 22.0482 16.5638 22.1668C16.889 22.2471 16.9999 22.3849 17.0037 22.7177C17.0037 23.2418 17.0037 23.7621 17.0037 24.2862C17.0037 24.6075 16.889 24.749 16.5753 24.8256C16.0818 24.948 15.5845 25.0627 15.091 25.1928C15.0221 25.2119 14.9418 25.2846 14.9112 25.3497C14.8041 25.5715 14.7084 25.8011 14.6243 26.0344C14.6013 26.0995 14.6051 26.1989 14.6396 26.2563C14.8461 26.6159 15.0604 26.9679 15.2746 27.3236C15.4812 27.6679 15.4659 27.821 15.1866 28.1002C14.8308 28.456 14.4751 28.8156 14.1193 29.1676C13.8859 29.3971 13.6947 29.42 13.4154 29.2517C13.0558 29.0375 12.6962 28.8156 12.3289 28.609C12.2601 28.5708 12.1453 28.5669 12.0688 28.5937C11.824 28.6817 11.583 28.7888 11.3496 28.8998C11.2846 28.9304 11.2157 28.9992 11.2004 29.0643C11.0703 29.5578 10.9518 30.0513 10.8332 30.5486C10.7528 30.8814 10.6151 30.9923 10.267 30.9923C9.75819 30.9923 9.24556 30.9923 8.73677 30.9923C8.38864 30.9923 8.25092 30.8814 8.17059 30.5486C8.04817 30.0551 7.93341 29.5578 7.80334 29.0643C7.78803 28.9992 7.71535 28.9266 7.65414 28.8998C7.41696 28.7888 7.17977 28.6855 6.93494 28.5937C6.86991 28.5708 6.77044 28.5746 6.70923 28.609C6.34963 28.8156 5.99768 29.0298 5.64191 29.2441C5.35117 29.42 5.16754 29.3971 4.92653 29.1599C4.56693 28.8003 4.20351 28.4407 3.84391 28.0773C3.59907 27.8324 3.57995 27.6526 3.75592 27.3619C3.95867 27.0176 4.1729 26.6733 4.37183 26.3175C4.41009 26.2487 4.41774 26.1339 4.39096 26.0612C4.3068 25.8202 4.20351 25.5868 4.09639 25.3573C4.06196 25.2884 3.98545 25.2158 3.91659 25.1966C3.4231 25.0666 2.92961 24.948 2.43229 24.8294C2.11094 24.749 2 24.6075 2 24.2747C2 23.7582 2 23.2418 2 22.7253C2 22.3887 2.11094 22.251 2.43611 22.1706C2.92961 22.0482 3.42692 21.9334 3.91659 21.7995C3.98545 21.7804 4.05431 21.7039 4.09257 21.6389C4.14995 21.5394 4.1576 21.4132 4.21881 21.3213C4.41009 21.0383 4.35653 20.7934 4.16908 20.5295C3.95867 20.2349 3.79035 19.9097 3.6029 19.5998C3.41927 19.2938 3.4384 19.1255 3.69089 18.8692C4.05049 18.5057 4.41009 18.1461 4.77351 17.7865C5.01835 17.5455 5.17137 17.5226 5.46976 17.6985C5.85614 17.9243 6.23869 18.1538 6.61742 18.3871C6.72836 18.456 6.82017 18.4598 6.93494 18.4024C7.17212 18.2915 7.41696 18.2035 7.65032 18.0888C7.71152 18.0581 7.78038 17.9855 7.79569 17.9204C7.92575 17.4269 8.04435 16.9334 8.16294 16.4361C8.2471 16.1148 8.38864 16.0038 8.71764 16C9.24174 16 9.76201 16 10.2861 16C10.6075 16 10.749 16.1186 10.8255 16.4285C10.9479 16.922 11.0627 17.4193 11.1928 17.9128C11.2119 17.9816 11.2807 18.062 11.3496 18.0926C11.5791 18.2035 11.8125 18.303 12.0535 18.391C12.1185 18.4139 12.218 18.4063 12.2754 18.3757C12.6503 18.1614 13.0214 17.9319 13.3924 17.7138C13.7138 17.5264 13.8592 17.5417 14.1193 17.8018C14.4904 18.1691 14.8614 18.5363 15.2249 18.9112C15.3167 18.9992 15.3702 19.1255 15.4429 19.2402ZM9.49805 20.43C7.79569 20.43 6.42614 21.8034 6.42997 23.5057C6.4338 25.2081 7.80334 26.5738 9.50953 26.57C11.2004 26.5662 12.57 25.1928 12.57 23.5057C12.5661 21.7995 11.2004 20.43 9.49805 20.43Z" fill="#1971BD"/>
</g>
<path d="M14.9417 13.4857C15.1703 13.4857 15.1703 13.7143 15.3989 13.7143C15.856 13.9428 16.3131 14.1714 16.5417 14.1714L16.3132 13.9428C15.8561 13.2571 15.3988 13.2571 14.9417 13.4857Z" fill="#1971BD"/>
<path d="M12.656 12.3429C12.4274 12.3429 12.1989 12.5715 11.9703 12.8C11.7417 13.0286 11.5131 13.4857 11.5131 13.7143C11.7417 13.9429 11.9702 13.9429 12.1988 13.9429C12.1988 13.9429 12.1989 13.9429 12.4275 13.9429C12.656 13.9429 12.6561 13.9429 12.8846 14.1715C12.8846 13.9429 12.8846 13.9429 12.8846 13.7143C12.8846 13.4857 13.1131 13.2571 13.3417 13.2571C13.5702 13.2571 13.7989 13.2571 14.0275 13.2571C14.2561 13.2571 14.2559 13.4857 14.4845 13.4857L14.7132 13.7143C14.9417 13.4857 14.9418 13.4857 15.1703 13.2571C14.9418 13.0286 14.7131 12.8 14.256 12.5714C13.7989 12.3429 13.1131 12.1143 12.656 12.3429Z" fill="#1971BD"/>
<path d="M17.4561 14.4C17.2275 14.4 16.9988 14.4 16.7702 14.1715L16.9989 14.4H17.4561Z" fill="#1971BD"/>
<path d="M23.6274 16.2286C23.3988 16.4571 22.9417 16.4571 22.7132 16.4571C22.4846 16.4571 22.0274 16.2285 21.7988 16C21.3417 15.7714 20.6559 15.7714 20.1988 16C19.9702 16 19.7417 16.2286 19.5131 16.4571C19.7417 16.4571 19.7417 16.4571 19.9703 16.4571C20.4274 16.4571 20.656 16.6857 21.1131 16.6857C21.3417 16.6857 21.3417 16.9143 21.3417 17.1428C21.3417 17.3714 21.3417 17.5999 21.5703 17.8285C21.7989 18.0571 22.0274 18.0571 22.256 18.0571C22.7131 18.0571 22.9418 17.8286 23.1703 17.3714H23.3989C23.3989 17.6 23.6274 17.8285 24.0845 17.8285C24.5417 18.0571 24.9989 18.0571 25.4561 18.0571C25.6846 18.0571 25.9132 18.0571 26.1417 18.0571C25.6846 17.8285 25.456 17.8286 24.9989 17.6C24.3132 17.3714 23.8559 16.9143 23.6274 16.2286Z" fill="#1971BD"/>
<path d="M30.7132 12.5714C30.9417 11.8857 30.9417 10.9714 30.9417 10.2857C30.7131 8.91429 30.256 7.77143 29.1131 6.85714C28.656 6.4 27.9703 5.94286 27.2846 5.71429C27.5132 6.17143 27.5132 6.6286 27.2846 7.31431C26.8275 6.17146 26.1417 5.25714 25.2274 4.57143C24.3131 3.65714 23.3989 3.20003 22.256 2.74289C22.4846 3.20003 22.7132 3.65712 22.7132 4.11426C22.4846 3.88569 22.4846 3.88573 22.256 3.65716C21.5703 3.20001 20.6561 2.74287 19.7418 2.5143C19.0561 2.28573 18.3703 2.28573 17.6846 2.5143C17.456 2.5143 17.2274 2.51429 17.2274 2.28571C16.7703 1.82857 16.3132 1.37141 15.856 0.914272C15.6275 0.6857 15.3989 0.457157 15.1703 0.228585C15.1703 0.228585 15.1703 0.228571 15.1703 0L13.7988 0.457171C14.4845 0.914314 15.1702 1.60001 15.6274 2.5143C15.6274 2.5143 15.6275 2.74289 15.856 2.74289C14.9417 2.97146 14.256 3.4286 13.5703 3.88574C13.7989 3.88574 13.7989 3.88573 14.0275 3.65716C14.4846 3.42859 14.9417 3.42856 15.3989 3.19999C15.856 3.19999 16.5417 2.9714 16.9989 2.9714C17.456 2.9714 17.9132 2.9714 18.1417 2.9714C18.5989 2.9714 19.056 3.19999 19.5131 3.19999C20.1988 3.42856 21.1132 3.8857 21.5703 4.34284C22.0275 4.79999 22.4845 5.25713 22.9417 5.4857C22.9417 5.4857 22.9418 5.48571 23.1703 5.71429C23.3989 5.25714 23.3989 4.5714 23.1703 4.11426C23.3989 4.11426 23.3988 4.34284 23.6274 4.34284C24.0845 4.79999 24.5417 5.25714 24.9989 5.71429C25.6846 6.62857 26.3703 7.31431 26.8274 8.45717C26.8274 8.68574 27.0559 8.91429 27.0559 9.14286C27.5131 8.45714 27.7417 7.54284 27.5131 6.62856H27.7418C28.1989 7.0857 28.6561 7.54286 28.8846 8C29.1132 8.45714 29.1131 8.68571 29.3417 9.14286C29.3417 9.6 29.5702 10.2857 29.3417 10.7429L29.1131 11.4286C28.8846 10.7429 28.6559 10.2857 28.1988 9.82854C28.1988 9.59997 27.9703 9.60001 27.7418 9.37144C27.7418 9.37144 27.7418 9.37146 27.7418 9.60003C27.9703 10.2857 28.1989 10.9714 28.4275 11.6572C28.656 12.5714 28.656 13.2572 28.656 14.1715C28.656 15.0857 28.656 16 28.656 16.9143C28.656 17.3714 28.4275 18.0572 28.4275 18.5143C28.1989 19.4286 27.9703 20.1143 27.7418 21.0286C27.5132 21.2572 27.5132 21.7143 27.2846 21.9429C27.2846 22.1714 27.5131 22.4 27.5131 22.4C27.7417 22.8571 27.7417 23.0857 27.5131 23.5428C27.5131 24 27.2846 24.4571 26.8274 24.6857C26.5989 25.1428 26.1417 25.3714 25.6846 25.3714C25.456 25.3714 24.9988 25.1429 24.7702 25.1429C24.0845 24.6857 23.3988 24.2286 22.4845 24C22.0274 24 21.5702 23.7714 21.3417 23.7714C21.5702 23.7714 21.5703 23.7714 21.7988 24C22.4845 24.2286 23.1702 24.6857 23.6274 24.9143C23.8559 24.9143 24.0845 25.1429 24.0845 25.3714C24.0845 25.6 24.0845 25.8286 23.6274 26.0571C23.3988 26.0571 22.9417 26.0571 22.7132 25.8285C22.4846 25.6 22.2561 25.6 22.0275 25.3714C22.0275 25.6 22.256 25.6 22.256 25.8285C22.7131 26.2857 22.9418 26.9714 23.1703 27.6572C23.3989 28.5714 22.9417 29.4857 22.256 30.1715C22.256 30.1715 22.2561 30.1715 22.0275 30.1715C22.0275 30.1715 22.0274 29.9429 22.256 29.9429C22.4846 29.2572 22.256 28.5714 21.7988 28.1143C21.5703 28.1143 21.5702 27.8857 21.3417 27.8857C21.7988 28.3429 21.7988 29.0286 21.7988 29.7143C21.7988 30.4 21.5703 30.8572 21.1131 31.3143H21.3417C22.0274 31.0857 22.7131 30.8571 23.3989 30.4C23.856 29.9428 24.3132 29.4857 24.3132 29.0286C24.3132 28.5715 24.5418 28.1143 24.3132 27.6572V27.4286H24.5417C24.7703 27.2 25.2274 26.9714 25.2274 26.5143C25.2274 26.5143 25.2275 26.5143 25.4561 26.5143C25.6846 26.5143 25.9131 26.5143 25.9131 26.5143C26.8274 26.5143 27.9703 26.0571 28.4275 25.1429C28.656 24.6857 28.8846 24.2285 28.8846 23.5428C28.8846 23.0857 28.8845 22.6286 28.656 22.1715C28.656 22.1715 28.656 22.1714 28.656 21.9429C29.1131 21.2572 29.3417 20.3429 29.5703 19.6572C29.5703 19.2 29.7988 18.7429 29.7988 18.2857C30.0274 17.1429 30.0275 16 30.0275 14.8571C30.0275 14.4 30.0274 13.9428 29.7988 13.4857C29.7988 13.4857 29.7988 13.4857 29.7988 13.2571C30.256 13.4857 30.4846 13.0286 30.7132 12.5714Z" fill="#1971BD"/>
<path d="M21.3417 30.1715C21.1131 30.6286 20.6559 30.8571 20.1988 30.8571C19.7417 31.0857 19.2846 30.8571 18.8274 30.6286C19.056 30.4 19.056 30.4 19.2846 30.1715C19.7417 29.7143 19.9703 28.8 19.7418 28.1143C19.5132 27.6571 19.2846 27.2 18.8274 27.2C18.3703 26.9714 17.6845 26.9714 17.2274 26.9714H16.9989C16.9989 26.9714 16.9988 26.9714 17.2274 26.9714C17.456 26.9714 17.6845 27.2 17.9131 27.2C18.3702 27.4286 18.5989 27.8857 18.5989 28.5714C18.5989 29.0286 18.3703 29.4857 18.1417 29.7143C17.6846 30.1714 17.2274 30.6286 16.7702 31.0857C17.2274 31.0857 17.6845 31.3143 17.9131 31.3143C18.5988 31.3143 19.0561 31.3143 19.7418 31.0857C20.1989 30.8572 20.656 30.6286 21.1131 30.1715C21.3417 30.6286 21.3417 30.4 21.3417 30.1715Z" fill="#1971BD"/>
<path d="M19.0559 3.88574C18.1416 4.11431 17.2274 4.5714 16.5417 5.25712C15.6274 5.94283 14.9417 7.08573 14.7131 8.22859C14.4845 9.82859 14.9416 11.4286 16.0845 12.5714C16.7702 13.2571 17.6846 13.4857 18.5989 13.7143C19.5131 13.9429 20.656 13.7143 21.5703 13.4857C22.4845 13.2571 23.1702 12.3429 23.3988 11.4286C23.6274 10.9714 23.3989 10.2857 23.1703 9.82854C22.9417 9.3714 22.2559 8.91427 21.7988 8.91427C21.3416 8.91427 21.1131 8.91429 20.8846 9.14286C20.656 9.14286 20.4273 9.37146 20.1987 9.60003C20.4273 9.60003 20.8845 9.60003 21.1131 9.60003C21.3417 9.60003 21.7989 9.82856 22.0274 10.0571C22.4846 10.5143 22.713 11.2 22.4845 11.6572C22.4845 12.1143 22.0273 12.5714 21.7988 12.8C21.3416 13.0286 20.8845 13.2571 20.1987 13.2571C19.513 13.2571 19.0559 13.2572 18.3702 12.8C17.6845 12.5714 17.2273 11.8857 16.7702 11.4286C16.0845 10.2857 15.8559 8.91426 16.0845 7.54283C16.3131 6.62854 16.7703 5.71426 17.456 5.25712C17.6846 5.02854 17.9131 4.8 18.1417 4.57143C17.456 5.48571 16.9988 6.62856 16.9988 7.77141C16.9988 8.22856 16.9988 8.68571 17.2273 9.14286C17.6845 9.82857 18.1416 10.2857 19.0559 10.2857C19.513 10.2857 19.9703 10.2857 20.4274 10.2857H20.1987C19.2845 10.2857 18.3703 9.59997 18.1417 8.68569C17.9131 7.99997 17.913 7.54286 17.913 6.85714C17.913 5.94286 18.1417 5.25714 18.5989 4.57143C18.8274 4.34286 18.8273 4.11431 19.0559 3.88574Z" fill="#1971BD"/>
<path d="M25.2274 24.6857C25.4559 24.9143 25.456 24.9143 25.6845 24.9143C25.9131 24.9143 26.1417 24.9143 26.3702 24.9143H26.5989C26.3703 24.6857 26.1416 24.4572 25.9131 24.4572C25.6845 24.2286 25.456 24 25.456 24C25.2275 24 24.9989 24 24.9989 24C24.7703 24.2286 24.7703 24.2286 24.9989 24.4572C24.9989 24.4572 24.9988 24.4571 25.2274 24.6857Z" fill="#1971BD"/>
<path d="M26.1417 23.3143C25.9132 22.8572 25.456 22.4 24.9989 22.4C24.7703 22.4 24.3132 22.4 24.3132 22.6286C24.0846 22.8571 24.0845 23.3143 24.0845 23.7714C24.0845 24 24.0845 24 24.0845 24.2286C24.0845 24 24.0845 24 24.0845 23.7714C24.0845 23.5428 24.0845 23.5429 24.0845 23.3143C24.3131 22.8572 24.5417 22.6286 24.9989 22.8571C25.456 22.8571 25.9132 23.0857 26.1417 23.3143Z" fill="#1971BD"/>
<defs>
<clipPath id="clip0">
<rect width="15" height="15" fill="white" transform="translate(2 16)"/>
</clipPath>
</defs>
</svg>
