<svg width="32" height="32" viewBox="0 0 32 32" fill="none" xmlns="http://www.w3.org/2000/svg">
<g clip-path="url(#clip0)">
<path d="M28.4067 29.5842C28.1856 29.4438 27.9785 29.2824 27.7882 29.1022C27.7275 29.021 27.6512 28.9529 27.5637 28.9019C27.4762 28.8508 27.3794 28.8179 27.279 28.8051C27.1786 28.7922 27.0766 28.7997 26.9792 28.8271C26.8817 28.8545 26.7907 28.9012 26.7116 28.9645L26.4138 29.0793C26.104 29.114 25.8194 29.2668 25.619 29.5061C25.4185 29.7454 25.3177 30.0528 25.3373 30.3645C25.3373 30.3645 25.3373 30.3645 25.3373 30.5022C25.3373 30.9153 25.1311 31.1219 24.6959 31.0989H23.5964C23.4658 31.1261 23.3298 31.1003 23.2181 31.0272C23.1065 30.954 23.0283 30.8395 23.0008 30.7088V30.5252C23.0008 30.3186 23.0008 30.135 23.0008 29.9284C23.0142 29.7832 22.972 29.6384 22.8826 29.5233C22.7933 29.4082 22.6635 29.3315 22.5198 29.3088L22.222 29.194C22.1002 29.0677 21.9543 28.9672 21.793 28.8986C21.6316 28.83 21.4581 28.7946 21.2828 28.7946C21.1076 28.7946 20.9341 28.83 20.7727 28.8986C20.6114 28.9672 20.4655 29.0677 20.3437 29.194V29.3317C20.1146 29.6071 19.8168 29.5383 19.5878 29.3317L19.3587 29.1022C18.4654 28.1842 18.4654 28.1842 19.1984 27.1514V27.0137C19.4274 26.5087 18.6257 25.0169 18.0531 24.971H17.7324C16.9078 24.971 16.8848 24.971 16.8848 24.053V23.2497C16.8612 23.1207 16.8612 22.9885 16.8848 22.8595C16.8848 22.6071 17.3659 22.63 17.572 22.6071H18.0531C18.1765 22.604 18.2961 22.5641 18.3967 22.4923C18.4708 22.4015 18.5325 22.3012 18.5799 22.194L18.8548 21.5513C18.9677 21.3622 19.038 21.1508 19.0609 20.9317C19.0665 20.7183 19.0241 20.5065 18.9368 20.3118C18.8496 20.1172 18.7198 19.9446 18.557 19.8071C18.4716 19.7174 18.4239 19.5982 18.4239 19.4743C18.4239 19.3503 18.4716 19.2311 18.557 19.1415L18.8319 18.8661C19.7252 17.971 19.7252 17.971 20.756 18.7284C21.2141 18.9579 22.7947 18.1775 22.8176 17.6726C22.8176 16.2496 23.0466 16.5251 24.1919 16.5021H24.673C24.7332 16.4924 24.7948 16.4948 24.8541 16.5092C24.9134 16.5236 24.9692 16.5498 25.0183 16.5861C25.0674 16.6225 25.1087 16.6683 25.1399 16.7208C25.1711 16.7734 25.1914 16.8317 25.1998 16.8923C25.1998 16.8923 25.1998 17.0988 25.1998 17.2136C25.1727 17.3311 25.1689 17.4529 25.1888 17.5719C25.2086 17.6909 25.2517 17.8048 25.3155 17.9071C25.3793 18.0095 25.4626 18.0982 25.5607 18.1682C25.6588 18.2382 25.7696 18.2882 25.887 18.3152H26.0473C26.1698 18.3497 26.2859 18.404 26.3909 18.4759C26.4821 18.5875 26.5977 18.6767 26.7287 18.7365C26.8598 18.7962 27.0028 18.825 27.1467 18.8206C27.2906 18.8161 27.4316 18.7786 27.5587 18.7109C27.6858 18.6431 27.7957 18.547 27.8798 18.43C28.4983 17.8792 28.5899 17.9021 29.2084 18.43C29.8269 18.9579 30.0788 19.3251 29.3229 20.3349C29.3229 20.3349 29.3229 20.3349 29.3229 20.4726C29.2996 20.8797 29.385 21.2856 29.5702 21.6486C29.7553 22.0117 30.0337 22.3187 30.3766 22.5382C31.5448 22.6989 31.5448 22.6989 31.5448 23.8694C31.5448 25.0399 31.5448 24.9022 30.537 24.9481C30.1018 24.9481 29.804 25.1087 29.7123 25.5678C29.7321 25.6352 29.7321 25.7069 29.7123 25.7743C29.4732 26.0152 29.3389 26.3411 29.3389 26.6809C29.3389 27.0206 29.4732 27.3466 29.7123 27.5874C29.7558 27.6381 29.8108 27.6775 29.8727 27.7022C29.9684 27.8105 30.0249 27.9479 30.033 28.0924C29.9872 28.4366 28.8648 29.5612 28.4067 29.5842ZM24.2378 20.7251C23.6262 20.7161 23.0258 20.889 22.5123 21.2218C21.9989 21.5547 21.5955 22.0327 21.3531 22.5953C21.1108 23.1579 21.0403 23.7799 21.1508 24.3826C21.2612 24.9853 21.5475 25.5417 21.9735 25.9813C22.3995 26.421 22.9461 26.7242 23.5441 26.8527C24.142 26.9811 24.7646 26.929 25.3331 26.703C25.9015 26.4769 26.3903 26.0871 26.7376 25.5827C27.0849 25.0783 27.2752 24.4821 27.2843 23.8694C27.2965 23.4628 27.2275 23.0578 27.0813 22.6784C26.9351 22.2989 26.7147 21.9525 26.433 21.6596C26.1513 21.3666 25.814 21.1331 25.441 20.9726C25.0679 20.8121 24.6666 20.728 24.2607 20.7251H24.2378Z" fill="#1971BD"/>
<path d="M0.392396 11.3607L15.7167 17.4657H16.0373C16.08 17.3185 16.1588 17.1844 16.2664 17.0755L16.6558 16.6854C17.8469 15.4919 17.9386 15.4231 19.1526 16.3181L22.474 15.0099C22.474 13.128 22.8176 13.4952 24.3981 13.4493H25.1998C25.3142 13.4418 25.4285 13.4631 25.5325 13.5112C25.6365 13.5593 25.7269 13.6327 25.7954 13.7247L31.6823 11.4296C31.8213 11.3918 31.9399 11.301 32.0127 11.1765C32.0855 11.0521 32.1067 10.9039 32.0717 10.764C32.0717 10.0984 32.0717 9.4558 32.0717 8.79023C32.0717 8.1476 32.0717 7.48202 32.0717 6.83939C32.0945 6.6913 32.063 6.53995 31.983 6.41335C31.9029 6.28676 31.7799 6.19351 31.6365 6.15086L16.358 0.0688529C16.2492 0.023401 16.1324 0 16.0144 0C15.8965 0 15.7797 0.023401 15.6709 0.0688529L0.438208 6.17381C0.304742 6.20152 0.186308 6.27792 0.105888 6.38819C0.0254678 6.49845 -0.0112034 6.63472 0.00299007 6.77054V10.8099C-0.00652218 10.9328 0.0272118 11.0552 0.0983399 11.1558C0.169468 11.2565 0.273503 11.3289 0.392396 11.3607ZM16.6558 11.9804L10.8834 9.68532L18.328 8.76728L16.6558 11.9804ZM23.3673 4.95741L27.4905 6.63283L27.6508 6.74759L27.4905 6.95415L24.0316 8.35416C23.8979 8.39963 23.753 8.39963 23.6193 8.35416L19.3358 6.63283L19.1755 6.49513L19.4504 6.35742L22.9092 4.95741C23.0429 4.91194 23.1878 4.91194 23.3215 4.95741H23.3673ZM12.945 1.88198H13.2886C13.9529 2.13444 14.5943 2.40985 15.2814 2.63936C15.5004 2.68582 15.7267 2.68582 15.9457 2.63936L18.6258 2.36395L17.2743 3.5115L19.794 4.49839V4.65905H18.8777C18.1218 4.65905 17.343 4.52134 16.5871 4.49839C16.3901 4.48005 16.1936 4.53749 16.0373 4.65905C15.6021 4.98036 15.2127 5.34758 14.7546 5.73775C14.5484 5.32463 14.3423 4.95741 14.1819 4.56725C14.166 4.46164 14.1139 4.36489 14.0344 4.29367C13.955 4.22245 13.8532 4.18122 13.7467 4.17708L10.8605 3.97052H10.6315L13.6322 3.37379L12.945 1.88198ZM4.69877 6.05906C5.23763 5.67038 5.8702 5.4327 6.53126 5.37053C6.94358 5.37053 7.3788 5.37053 7.81401 5.25577C8.76439 5.23777 9.70816 5.41752 10.5857 5.78365C10.9037 5.88747 11.1991 6.05104 11.4561 6.26562C11.4643 6.32655 11.4643 6.3883 11.4561 6.44923C11.5539 6.60901 11.5871 6.80024 11.5488 6.98372C11.5104 7.1672 11.4035 7.32905 11.2499 7.43612C10.9027 7.70372 10.5055 7.89882 10.0817 8.00989C8.5786 8.45101 6.97452 8.4028 5.50048 7.87219C5.16874 7.74672 4.85935 7.56847 4.58424 7.34431C4.41909 7.23616 4.30269 7.06761 4.25989 6.87463C4.21709 6.68166 4.25128 6.47957 4.35517 6.31152C4.41465 6.20595 4.50177 6.11865 4.60714 6.05906H4.69877Z" fill="#1971BD"/>
<path d="M0.415303 25.8661L15.6479 31.9251C15.8641 31.9937 16.0961 31.9937 16.3122 31.9251L17.2743 31.5349L17.1369 31.3972C15.877 30.089 15.877 30.089 16.9078 28.5972C16.919 28.5365 16.919 28.4743 16.9078 28.4136C16.9623 28.1803 16.9702 27.9385 16.9308 27.7021C16.8915 27.4658 16.8058 27.2395 16.6787 27.0366L16.2435 27.2202C16.0078 27.3123 15.7462 27.3123 15.5105 27.2202L7.26427 23.8693L0.00299072 21.0005V25.3152C0.00299072 25.4394 0.0431785 25.5602 0.117522 25.6595C0.191865 25.7588 0.296354 25.8313 0.415303 25.8661Z" fill="#1971BD"/>
<path d="M0.392387 18.5677L13.8613 23.9153V23.0202C13.8282 22.8381 13.8282 22.6515 13.8613 22.4694C14.0216 22.1251 14.5255 22.1481 14.8462 22.1251H15.5334C15.6299 22.1184 15.7241 22.0927 15.8106 22.0493C15.897 22.006 15.9741 21.9459 16.0373 21.8726C16.1377 21.7457 16.2224 21.607 16.2893 21.4595L16.7016 20.5644C16.8567 20.2812 16.9504 19.9684 16.9765 19.6464L16.3122 19.8989C16.1943 19.9558 16.0651 19.9854 15.9343 19.9854C15.8034 19.9854 15.6742 19.9558 15.5563 19.8989L7.99726 16.8693L0.00298089 13.7021V13.8398V18.0169C-0.00653137 18.1398 0.0272026 18.2622 0.0983308 18.3628C0.169459 18.4634 0.273494 18.5359 0.392387 18.5677Z" fill="#1971BD"/>
<path d="M26.8949 16.1348H27.0782C27.2251 16.1928 27.3638 16.2699 27.4905 16.3643C28.2235 16.9152 28.7961 16.6857 29.3917 16.1119C29.9872 15.5381 30.3996 15.3775 31.2471 16.2725C31.4823 16.4964 31.7041 16.7339 31.9114 16.984V13.9545C31.9114 13.9545 31.9114 13.7939 31.9114 13.6791L31.4074 13.9086L26.3452 15.9053C26.5044 16.03 26.6944 16.1093 26.8949 16.1348Z" fill="#1971BD"/>
</g>
<defs>
<clipPath id="clip0">
<rect width="32" height="32" fill="white"/>
</clipPath>
</defs>
</svg>
