<svg width="32" height="32" viewBox="0 0 32 32" fill="none" xmlns="http://www.w3.org/2000/svg">
<path d="M28.1905 15.2381H25.9047V9.14285C25.9047 7.46666 24.5333 6.09524 22.8571 6.09524H16.7619V3.80953C16.7619 1.70667 15.0552 0 12.9524 0C10.8495 0 9.14285 1.70667 9.14285 3.80953V6.09524H3.04761C1.37143 6.09524 0.0152337 7.46666 0.0152337 9.14285V14.9333H2.28571C4.55619 14.9333 6.4 16.7771 6.4 19.0476C6.4 21.3181 4.55619 23.1619 2.28571 23.1619H0V28.9524C0 30.6286 1.37143 32 3.04761 32H8.83809V29.7143C8.83809 27.4438 10.6819 25.6 12.9524 25.6C15.2228 25.6 17.0667 27.4438 17.0667 29.7143V32H22.8571C24.5333 32 25.9047 30.6286 25.9047 28.9524V22.8571H28.1905C30.2933 22.8571 32 21.1505 32 19.0476C32 16.9448 30.2933 15.2381 28.1905 15.2381Z" fill="#1971BD"/>
</svg>
