<svg xmlns="http://www.w3.org/2000/svg" width="14" height="14.002" viewBox="0 0 14 14.002">
  <g id="Admin" transform="translate(22573 -16274.998)">
    <rect id="Rectangle_1815" data-name="Rectangle 1815" width="14" height="14" transform="translate(-22573 16275)" fill="none"/>
    <g id="Group_2046" data-name="Group 2046" transform="translate(-22624.002 15294.052)">
      <path id="Path_2772" data-name="Path 2772" d="M58.623,983.966c-.018-.334-.359-.277-.692-.277A2.979,2.979,0,0,1,58.623,983.966Z" fill="#0071bd"/>
      <path id="Path_2773" data-name="Path 2773" d="M55.063,983.129a1.379,1.379,0,0,0-.854,2.46,2.981,2.981,0,0,1,1.973-1.883A1.38,1.38,0,0,0,55.063,983.129Z" fill="#0071bd"/>
      <path id="Path_2774" data-name="Path 2774" d="M52.392,985.333a2.916,2.916,0,0,0,.2.485l-.424.424a.293.293,0,0,0,0,.414l.748.749a.3.3,0,0,0,.207.085.3.3,0,0,0,.207-.085l.424-.425c.064.033.134.054.2.083v-.014a4.359,4.359,0,0,1,.111-.983,1.847,1.847,0,1,1,2.6-2.459,3.183,3.183,0,0,1,1.043.03,2.743,2.743,0,0,0-.18-.433l.425-.425a.291.291,0,0,0,0-.413l-.749-.749a.292.292,0,0,0-.412,0l-.426.425a2.831,2.831,0,0,0-.485-.2v-.6a.292.292,0,0,0-.292-.292H54.534a.292.292,0,0,0-.292.292v.6a2.8,2.8,0,0,0-.486.2l-.424-.424a.292.292,0,0,0-.413,0l-.749.749a.291.291,0,0,0,0,.413l.424.425a2.83,2.83,0,0,0-.2.485h-.6a.292.292,0,0,0-.292.293v1.058a.293.293,0,0,0,.292.293Z" fill="#0071bd"/>
      <path id="Path_2775" data-name="Path 2775" d="M61.564,991a1.5,1.5,0,1,0-1.516-2.6,5.448,5.448,0,0,1-.644,1.54A4.52,4.52,0,0,1,61.564,991Z" fill="#0071bd"/>
      <path id="Path_2776" data-name="Path 2776" d="M64.688,989.108a.316.316,0,0,0-.315-.316h-.648a3.005,3.005,0,0,0-.218-.523l.458-.459a.314.314,0,0,0,0-.446l-.807-.807a.313.313,0,0,0-.445,0l-.46.459a2.953,2.953,0,0,0-.524-.218v-.648a.314.314,0,0,0-.314-.315H60.273a.313.313,0,0,0-.2.076,4.307,4.307,0,0,1,.149,1.138,5.553,5.553,0,0,1-.058.779,1.958,1.958,0,0,1,.678-.128,1.976,1.976,0,0,1,1.069,3.64,4.53,4.53,0,0,1,.919,1.533.3.3,0,0,0,.328-.072l.807-.807a.316.316,0,0,0,0-.446l-.459-.459a2.984,2.984,0,0,0,.218-.524h.648a.314.314,0,0,0,.315-.315Z" fill="#0071bd"/>
      <path id="Path_2777" data-name="Path 2777" d="M62.188,993.159a3.817,3.817,0,0,0-3.278-2.567,2.348,2.348,0,0,1-3.642,0,3.816,3.816,0,0,0-3.278,2.567l-.271.8a.751.751,0,0,0,.711.992h9.318a.751.751,0,0,0,.711-.992Z" fill="#0071bd"/>
      <path id="Path_2778" data-name="Path 2778" d="M54.66,987.049c0,1.787,1.088,3.705,2.429,3.705s2.43-1.918,2.43-3.705C59.519,983.343,54.66,983.336,54.66,987.049Z" fill="#0071bd"/>
    </g>
  </g>
</svg>
