<svg width="32" height="32" viewBox="0 0 32 32" fill="none" xmlns="http://www.w3.org/2000/svg">
<g clip-path="url(#clip0)">
<path d="M31.6 14.4857L26.8 9.68571V3.97143C26.8 3.05714 25.8857 2.14286 24.9714 2.14286C24.0571 2.14286 23.1429 3.05714 23.1429 3.97143V5.8L19.4857 2.37143C17.6571 0.542857 14.6857 0.542857 12.8571 2.37143L0.514286 14.4857C-0.171429 15.1714 -0.171429 16.3143 0.514286 17C1.2 17.6857 2.34286 17.6857 3.02857 17L15.1429 4.88571C15.6 4.42857 16.2857 4.42857 16.5143 4.88571L28.8571 17C29.3143 17.4571 29.7714 17.4571 30.2286 17.4571C30.6857 17.4571 31.1429 17.2286 31.6 17C32.2857 16.3143 32.2857 15.1714 31.6 14.4857Z" fill="#1971BD"/>
<path d="M16.7429 8.31429C16.2857 7.85715 15.8286 7.85715 15.3715 8.31429L4.85717 19.0571C4.6286 19.2857 4.40002 19.5143 4.40002 19.7429V27.5143C4.40002 29.3429 5.77145 30.7143 7.60002 30.7143H12.8572V22.7143H18.8V30.7143H24.0572C25.8857 30.7143 27.2572 29.3429 27.2572 27.5143V19.7429C27.2572 19.5143 27.2572 19.2857 27.0286 19.0571L16.7429 8.31429Z" fill="#1971BD"/>
</g>
<defs>
<clipPath id="clip0">
<rect width="32" height="32" fill="white"/>
</clipPath>
</defs>
</svg>
