<svg width="32" height="32" viewBox="0 0 32 32" fill="none" xmlns="http://www.w3.org/2000/svg">
<g clip-path="url(#clip0)">
<path fill-rule="evenodd" clip-rule="evenodd" d="M17.4485 0.33731C16.5331 -0.112436 15.4669 -0.112437 14.5515 0.337309L4.39777 5.32606C3.4824 5.77581 2.81757 6.62635 2.59149 7.63692L0.0837336 18.8466C-0.142346 19.8571 0.0949272 20.9177 0.728387 21.7281L7.75497 30.7176C8.38843 31.528 9.34913 32 10.3651 32H21.6349C22.6509 32 23.6116 31.528 24.245 30.7176L31.2716 21.7281C31.9051 20.9177 32.1423 19.8571 31.9163 18.8466L29.4085 7.63692C29.1824 6.62635 28.5176 5.77581 27.6022 5.32607L17.4485 0.33731ZM23.0647 12.0412C23.0843 11.993 23.1048 11.9427 23.1275 11.8903C23.1014 11.849 23.0773 11.8065 23.0534 11.7643C22.9977 11.6658 22.943 11.5693 22.8659 11.4953C22.4299 11.0452 21.9847 10.6042 21.5395 10.1633C21.2274 9.85098 21.053 9.83261 20.6675 10.0577C20.4918 10.161 20.3161 10.2665 20.14 10.3722C19.8702 10.5342 19.5996 10.6966 19.3274 10.8523C19.2585 10.889 19.1392 10.8982 19.0612 10.8706C18.7721 10.765 18.4921 10.6456 18.2167 10.5124C18.1341 10.4756 18.0515 10.3792 18.0286 10.2965C17.9265 9.90888 17.8322 9.51929 17.7382 9.13031C17.6884 8.92471 17.6387 8.71929 17.588 8.51442C17.4962 8.14238 17.3264 8 16.9408 8H15.0592C14.6645 8.00459 14.4946 8.13779 14.3937 8.5236C14.2514 9.12069 14.1091 9.71319 13.9531 10.3057C13.9347 10.3838 13.8521 10.471 13.7787 10.5078C13.6256 10.5832 13.4683 10.6489 13.3107 10.7148C13.1801 10.7694 13.0494 10.8241 12.9204 10.8844C12.7828 10.9533 12.6726 10.9487 12.5395 10.866C12.0852 10.5859 11.6262 10.3103 11.1627 10.0393C10.8047 9.82802 10.6211 9.85558 10.3274 10.1449C9.89138 10.5767 9.45997 11.0084 9.02856 11.4448C8.72565 11.7525 8.7027 11.9546 8.923 12.322C8.99469 12.4406 9.06404 12.5611 9.13345 12.6816C9.28176 12.9392 9.43029 13.1972 9.60224 13.4381C9.82713 13.755 9.89138 14.049 9.66191 14.3889C9.62334 14.4468 9.6025 14.5161 9.58143 14.5861C9.56238 14.6494 9.54314 14.7134 9.51045 14.7701C9.46456 14.8482 9.38195 14.94 9.29934 14.963C8.88237 15.0771 8.46078 15.1796 8.03949 15.2821C7.86723 15.324 7.69502 15.3659 7.5232 15.4085C7.1331 15.505 7 15.6703 7 16.0745V17.9347C7 18.3343 7.1331 18.5042 7.51861 18.6007C8.11525 18.743 8.70729 18.8854 9.29934 19.0416C9.38195 19.0646 9.47374 19.1518 9.51504 19.2345C9.64355 19.5101 9.76747 19.7903 9.86843 20.0796C9.90056 20.1669 9.89138 20.3047 9.84549 20.3873C9.68819 20.6689 9.52292 20.9444 9.35887 21.2179C9.27402 21.3594 9.1895 21.5003 9.10658 21.6412C8.89546 21.9903 8.91841 22.2062 9.21214 22.5001C9.4999 22.7912 9.7897 23.0802 10.0788 23.3685C10.2232 23.5124 10.3673 23.6562 10.511 23.7999C10.8001 24.0847 11.0204 24.1123 11.3692 23.901C11.4368 23.8602 11.5043 23.8195 11.5718 23.7788C11.93 23.5625 12.2866 23.3473 12.6497 23.1386C12.7231 23.0972 12.8424 23.0926 12.9204 23.1202C13.2142 23.2304 13.4987 23.3544 13.7833 23.4876C13.8567 23.5198 13.9439 23.607 13.9623 23.6851C14.0644 24.0728 14.1586 24.4623 14.2527 24.8513C14.3024 25.0569 14.3521 25.2623 14.4029 25.4672C14.4992 25.8668 14.6645 26 15.0821 26H16.9179C17.3355 26 17.5008 25.8668 17.5971 25.4672C17.7394 24.8701 17.8817 24.2776 18.0377 23.6851C18.0561 23.607 18.1387 23.5244 18.2167 23.4876C18.4967 23.3544 18.7858 23.2258 19.0796 23.1202C19.1713 23.088 19.309 23.0926 19.3916 23.1386C19.7099 23.3177 20.0234 23.5065 20.3355 23.6944C20.4555 23.7666 20.5753 23.8388 20.6951 23.9102C21.0301 24.1123 21.2596 24.0847 21.5395 23.8091C21.824 23.5275 22.1086 23.2417 22.3931 22.9559C22.5354 22.813 22.6777 22.6701 22.82 22.5277C23.155 22.1924 23.1734 22.0087 22.9255 21.5953C22.8849 21.5277 22.8442 21.4603 22.8036 21.3929C22.5874 21.0342 22.3723 20.6773 22.1637 20.3139C22.1224 20.245 22.1178 20.1255 22.1453 20.0475C22.2463 19.7673 22.361 19.4917 22.4895 19.2253C22.5263 19.1472 22.6226 19.06 22.7053 19.037C23.0926 18.9348 23.4819 18.8405 23.8706 18.7464C24.076 18.6966 24.2813 18.6469 24.486 18.5961C24.8623 18.5042 25 18.3343 25 17.9485V16.0653C24.9954 15.6657 24.8623 15.5004 24.4722 15.4039C23.8756 15.2615 23.2835 15.1192 22.6915 14.963C22.6135 14.9446 22.5263 14.862 22.4895 14.7885C22.4268 14.6562 22.3718 14.5207 22.3169 14.3857C22.2593 14.244 22.202 14.1027 22.1362 13.9663C22.0719 13.8423 22.0765 13.7504 22.1499 13.631C22.4161 13.2039 22.6777 12.7721 22.9301 12.3358C22.9809 12.2469 23.0207 12.1492 23.0647 12.0412ZM12.3146 17.0115C12.31 14.9676 13.9531 13.3187 15.9954 13.3187C18.0377 13.3187 19.6762 14.963 19.6808 17.0115C19.6808 19.037 18.0377 20.6859 16.0092 20.6905C13.9623 20.6951 12.3192 19.0554 12.3146 17.0115Z" fill="#1971BD"/>
</g>
<defs>
<clipPath id="clip0">
<rect width="32" height="32" fill="white"/>
</clipPath>
</defs>
</svg>
