<svg xmlns="http://www.w3.org/2000/svg" width="14.01" height="14" viewBox="0 0 14.01 14">
  <g id="Cluster" transform="translate(22573 -15318)">
    <rect id="Rectangle_1789" data-name="Rectangle 1789" width="14" height="14" transform="translate(-22573 15318)" fill="none"/>
    <path id="Path_2694" data-name="Path 2694" d="M63.878,33.676a1.215,1.215,0,0,0-.816.316l-4.388-2.779a1.951,1.951,0,0,0-.556-2.345l1.031-2.042a1.235,1.235,0,0,0,.162.012,1.219,1.219,0,1,0-.8-.3l-1.009,2a1.958,1.958,0,0,0-.6-.094,1.937,1.937,0,0,0-1.052.308l-2.5-2.5a1.22,1.22,0,1,0-.521.469l2.505,2.5a1.953,1.953,0,0,0,.01,2.35l-2.426,2.263a1.218,1.218,0,1,0,.481.51l2.465-2.3a1.954,1.954,0,0,0,2.406-.264l4.43,2.8a1.248,1.248,0,0,0-.039.3,1.217,1.217,0,1,0,1.217-1.217Z" transform="translate(-22624.086 15294.883)" fill="#0071bd"/>
  </g>
</svg>
