<svg xmlns="http://www.w3.org/2000/svg" width="14" height="14" viewBox="0 0 14 14">
  <g id="Config" transform="translate(22573 -15957)">
    <rect id="Rectangle_1818" data-name="Rectangle 1818" width="14" height="14" transform="translate(-22573 15957)" fill="none"/>
    <g id="Group_2025" data-name="Group 2025" transform="translate(-22624.086 15294.24)">
      <path id="Path_2736" data-name="Path 2736" d="M57.72,671.154a2.889,2.889,0,0,0,3.886-.239,2.876,2.876,0,0,0-3.057-4.7,2.888,2.888,0,0,0-1.728,3.652,3.493,3.493,0,0,0-.492.118.375.375,0,0,1-.338-.018.313.313,0,0,1-.18-.225.84.84,0,0,0-.731-.693c-.194-.038-.392-.053-.586-.085-.042-.007-.111-.037-.114-.063-.011-.078-.026-.174.068-.22a1.575,1.575,0,0,0,.846-1.591.894.894,0,0,0-.226-.582,1.061,1.061,0,0,1-.071-.095.62.62,0,0,1,.018-.832,3.708,3.708,0,0,1,.3-.342.545.545,0,0,1,.733-.108.976.976,0,0,0,.995.031,2.628,2.628,0,0,0,.782-.581,1.007,1.007,0,0,0,.264-.577.6.6,0,0,1,.566-.6,3.214,3.214,0,0,1,.537-.029.558.558,0,0,1,.532.39,1.5,1.5,0,0,0,1.474.94,1.085,1.085,0,0,0,.735-.233.7.7,0,0,1,1.013.019,1.828,1.828,0,0,1,.334.348.6.6,0,0,1,0,.645,1.44,1.44,0,0,0,.831,1.869c.16.052.332.066.491.115a.6.6,0,0,1,.436.521c.02.128.043.256.056.384a.638.638,0,0,1-.3.648.885.885,0,0,1-.189.1,1.414,1.414,0,0,0-.856,1.464,1.222,1.222,0,0,0,.265.671,1.538,1.538,0,0,1,.1.14.56.56,0,0,1,.035.6,2.918,2.918,0,0,1-.29.424.624.624,0,0,1-.815.183,1.586,1.586,0,0,0-1.891.749,1.044,1.044,0,0,0-.108.347.68.68,0,0,1-.654.7c-.141.023-.284.039-.426.048a.524.524,0,0,1-.5-.264.611.611,0,0,1-.072-.133,1.273,1.273,0,0,0-.815-.743c-.088-.038-.211-.053-.255-.119s0-.179.008-.272a.908.908,0,0,0-.632-.978.3.3,0,0,1-.151-.462C57.61,671.38,57.66,671.269,57.72,671.154Z" transform="translate(-0.004 0)" fill="#0071bd"/>
      <path id="Path_2737" data-name="Path 2737" d="M52.151,671.428a2.45,2.45,0,0,0-.084-.27.4.4,0,0,1,.147-.586,1.462,1.462,0,0,1,.188-.124.248.248,0,0,1,.3.025.707.707,0,0,0,.866.08,2.119,2.119,0,0,0,.268-.159.523.523,0,0,0,.215-.287.351.351,0,0,1,.455-.268.978.978,0,0,0,.107.012.349.349,0,0,1,.367.314.815.815,0,0,0,.5.612.761.761,0,0,0,.712.025.375.375,0,0,1,.52.133c.077.095.171.186.151.322a.524.524,0,0,1-.073.24.847.847,0,0,0,.392,1.257c.26.072.338.239.295.507-.058.36-.083.387-.435.469a.843.843,0,0,0-.5,1.178.379.379,0,0,1-.077.463.46.46,0,0,1-.676.1.794.794,0,0,0-.25-.089.938.938,0,0,0-.984.552c-.06.22-.16.27-.394.271h-.118c-.255,0-.368-.069-.415-.314a.7.7,0,0,0-.327-.459,2.423,2.423,0,0,0-.488-.242.47.47,0,0,0-.39.078.343.343,0,0,1-.505-.074c-.1-.1-.22-.2-.206-.361a.461.461,0,0,1,.062-.223.851.851,0,0,0-.033-1.016.73.73,0,0,0-.388-.311c-.232-.088-.287-.173-.271-.413.006-.1.016-.193.029-.289a.289.289,0,0,1,.275-.249.828.828,0,0,0,.652-.547A2.41,2.41,0,0,0,52.151,671.428Zm2.135,3.014a1.422,1.422,0,1,0-1.43-1.392A1.427,1.427,0,0,0,54.286,674.442Z" transform="translate(0 -0.008)" fill="#0071bd"/>
      <path id="Path_2738" data-name="Path 2738" d="M61.253,668.919a1.71,1.71,0,1,1-1.7-1.711A1.7,1.7,0,0,1,61.253,668.919Z" transform="translate(-0.008 -0.005)" fill="#0071bd"/>
    </g>
  </g>
</svg>
