<svg xmlns="http://www.w3.org/2000/svg" width="14" height="14.002" viewBox="0 0 14 14.002">
  <g id="DataStore" transform="translate(22573 -15663.998)">
    <rect id="Rectangle_1819" data-name="Rectangle 1819" width="14" height="14" transform="translate(-22573 15664)" fill="none"/>
    <g id="Group_1997" data-name="Group 1997" transform="translate(-22624.086 15293.81)">
      <rect id="Rectangle_1785" data-name="Rectangle 1785" width="12.445" height="3.596" rx="0.525" transform="translate(51.872 370.19)" fill="#0071bd"/>
      <circle id="Ellipse_175" data-name="Ellipse 175" cx="0.581" cy="0.581" r="0.581" transform="translate(52.986 371.408)" fill="#fff"/>
      <circle id="Ellipse_176" data-name="Ellipse 176" cx="0.581" cy="0.581" r="0.581" transform="translate(54.787 371.408)" fill="#fff"/>
      <rect id="Rectangle_1786" data-name="Rectangle 1786" width="12.445" height="3.596" rx="0.525" transform="translate(51.872 374.526)" fill="#0071bd"/>
      <circle id="Ellipse_177" data-name="Ellipse 177" cx="0.581" cy="0.581" r="0.581" transform="translate(52.986 375.743)" fill="#fff"/>
      <circle id="Ellipse_178" data-name="Ellipse 178" cx="0.581" cy="0.581" r="0.581" transform="translate(54.802 375.743)" fill="#fff"/>
      <circle id="Ellipse_179" data-name="Ellipse 179" cx="0.581" cy="0.581" r="0.581" transform="translate(56.617 375.743)" fill="#fff"/>
      <circle id="Ellipse_180" data-name="Ellipse 180" cx="0.581" cy="0.581" r="0.581" transform="translate(58.432 375.743)" fill="#fff"/>
      <rect id="Rectangle_1787" data-name="Rectangle 1787" width="12.445" height="3.596" rx="0.525" transform="translate(51.872 378.861)" fill="#0071bd"/>
      <circle id="Ellipse_181" data-name="Ellipse 181" cx="0.581" cy="0.581" r="0.581" transform="translate(52.986 380.078)" fill="#fff"/>
      <circle id="Ellipse_182" data-name="Ellipse 182" cx="0.581" cy="0.581" r="0.581" transform="translate(54.809 380.078)" fill="#fff"/>
      <circle id="Ellipse_183" data-name="Ellipse 183" cx="0.581" cy="0.581" r="0.581" transform="translate(56.632 380.078)" fill="#fff"/>
      <rect id="Rectangle_1788" data-name="Rectangle 1788" width="8.104" height="0.998" rx="0.499" transform="translate(54.042 383.192)" fill="#0071bd"/>
    </g>
  </g>
</svg>
