<svg xmlns="http://www.w3.org/2000/svg" width="14" height="14" viewBox="0 0 14 14">
  <g id="Helm" transform="translate(22571 -15612)">
    <rect id="Rectangle_1820" data-name="Rectangle 1820" width="14" height="14" transform="translate(-22571 15612)" fill="none"/>
    <path id="Path_2695" data-name="Path 2695" d="M58.693,330.627a5.3,5.3,0,0,1-2.432-1.007c-.168.236-.318.47-.491.685a.819.819,0,0,1-.86.3.833.833,0,0,1-.657-.612.849.849,0,0,1,.3-.927c.214-.166.441-.315.673-.48a5.3,5.3,0,0,1-1.007-2.435c-.265.047-.517.1-.771.135a.874.874,0,0,1-.723-1.524.882.882,0,0,1,.764-.193c.236.041.473.085.727.131a5.31,5.31,0,0,1,1.011-2.434c-.229-.163-.461-.314-.677-.485a.872.872,0,1,1,1.219-1.229c.169.212.316.441.464.649.394-.21.772-.446,1.178-.615s.831-.266,1.272-.4c-.038-.223-.084-.476-.123-.73a.831.831,0,0,1,.382-.88.818.818,0,0,1,.928-.016.829.829,0,0,1,.408.886c-.037.255-.085.509-.131.782a5.323,5.323,0,0,1,2.433,1.007c.172-.241.325-.48.5-.7a.87.87,0,0,1,1.507.34.825.825,0,0,1-.307.909c-.214.167-.441.315-.673.479a5.313,5.313,0,0,1,1.007,2.431c.3-.048.59-.115.882-.137a.855.855,0,0,1,.912.787.844.844,0,0,1-.715.933,3.541,3.541,0,0,1-.769-.071c-.1-.012-.193-.037-.306-.059a5.329,5.329,0,0,1-1.013,2.438c.225.159.451.308.665.472a.83.83,0,0,1,.315.923.87.87,0,0,1-1.509.331c-.175-.214-.325-.449-.5-.692a5.34,5.34,0,0,1-2.437,1c.038.21.086.406.107.6a1.751,1.751,0,0,1,0,.55.87.87,0,0,1-1.7-.331C58.593,331.182,58.645,330.916,58.693,330.627Zm2.6-4.017,1.234,1.238a3.873,3.873,0,0,0,.8-1.984c-.574,0-1.117,0-1.659,0a.177.177,0,0,0-.125.1C61.452,326.184,61.37,326.409,61.293,326.61Zm-5.779-.745a3.891,3.891,0,0,0,.836,2.02c.4-.4.785-.785,1.163-1.174a.2.2,0,0,0,.023-.167c-.07-.2-.151-.39-.236-.58-.019-.041-.071-.1-.108-.1C56.644,325.863,56.1,325.865,55.514,325.865Zm.838-2.882a3.565,3.565,0,0,0-.814,2.009c.552,0,1.106,0,1.66,0,.036,0,.085-.058.1-.1q.129-.287.24-.579a.17.17,0,0,0-.006-.141C57.147,323.773,56.753,323.383,56.352,322.983Zm4.925,1.236c.089.219.183.426.254.642.033.1.074.135.178.134.451,0,.9,0,1.352,0h.27a3.886,3.886,0,0,0-.826-2.008Zm-2.308-.957v-1.741a3.907,3.907,0,0,0-1.978.816l1.234,1.235Zm1.629.3,1.239-1.239a3.875,3.875,0,0,0-1.964-.8v1.738Zm-2.366,3.727L57,328.525a3.872,3.872,0,0,0,1.981.81V327.6Zm1.64,2.048a3.9,3.9,0,0,0,1.973-.809l-1.24-1.235-.733.3Z" transform="translate(-22623.424 15293.574)" fill="#0071bd"/>
  </g>
</svg>
