<svg width="32" height="32" viewBox="0 0 32 32" fill="none" xmlns="http://www.w3.org/2000/svg">
<g clip-path="url(#clip0)">
<path d="M15.9991 0.321411C15.8726 0.32756 15.7487 0.358589 15.6343 0.41272C15.5199 0.466851 15.4172 0.542994 15.3323 0.636841C15.2474 0.730687 15.1818 0.840364 15.1393 0.959595C15.0969 1.07883 15.0783 1.20533 15.0848 1.33173C15.0848 1.33173 15.0848 1.3477 15.0848 1.35685C15.0848 1.43228 15.0848 1.52372 15.0848 1.58543C15.1093 1.87556 15.1505 2.16402 15.2082 2.44941C15.2952 2.99417 15.3289 3.54613 15.3088 4.09743C15.2571 4.27849 15.1548 4.44101 15.0139 4.56597L14.9934 4.94997C14.4411 4.99516 13.8927 5.07921 13.3522 5.20143C11.0774 5.71296 9.00765 6.8935 7.40936 8.59115C7.30879 8.52258 7.13279 8.39685 7.08022 8.36257C6.90045 8.41622 6.70682 8.39732 6.54079 8.30997C6.09743 7.98191 5.6871 7.61144 5.31564 7.20374C5.12846 6.98054 4.92851 6.76834 4.71678 6.56827C4.66193 6.52027 4.57736 6.45626 4.51565 6.40826C4.33438 6.26649 4.11253 6.18639 3.8825 6.17967C3.74508 6.1723 3.60785 6.19745 3.48196 6.25305C3.35606 6.30865 3.24505 6.39317 3.15793 6.4997C3.01101 6.70776 2.95257 6.96557 2.99542 7.21664C3.03826 7.46771 3.17889 7.69157 3.3865 7.83913H3.40022C3.45965 7.88713 3.53279 7.94887 3.58765 7.99001C3.82966 8.15133 4.08073 8.29861 4.33964 8.43114C4.8197 8.70264 5.27214 9.02036 5.6905 9.37973C5.79908 9.53374 5.86242 9.71505 5.87337 9.90316L6.16365 10.1637C4.55727 12.5734 3.89715 15.4914 4.30992 18.358L3.93049 18.4677C3.83103 18.6261 3.69751 18.7604 3.53964 18.8608C3.00715 19.0027 2.4621 19.0923 1.91222 19.1283C1.62081 19.1352 1.33004 19.1588 1.04135 19.1991C0.972781 19.2128 0.874506 19.238 0.799077 19.2563H0.785353C0.656511 19.2695 0.531954 19.3099 0.41991 19.3748C0.307866 19.4398 0.210893 19.5279 0.135434 19.6331C0.0599739 19.7384 0.00774983 19.8585 -0.0177996 19.9855C-0.043349 20.1124 -0.0416325 20.2434 -0.0127598 20.3696C0.0161129 20.4959 0.0714849 20.6146 0.149681 20.7178C0.227877 20.8211 0.327108 20.9065 0.440819 20.9685C0.554529 21.0305 0.680118 21.0677 0.809262 21.0775C0.938406 21.0873 1.06816 21.0696 1.18993 21.0254H1.20364H1.22193C1.29736 21.0094 1.39107 20.9911 1.4505 20.9728C1.7283 20.8843 2.00076 20.7797 2.2665 20.6597C2.77842 20.4563 3.30893 20.3032 3.8505 20.2026C4.03813 20.2142 4.2187 20.2784 4.37164 20.3877L4.76708 20.3191C5.65637 23.0654 7.51979 25.3915 10.0059 26.8586L9.84137 27.254C9.91807 27.4138 9.94589 27.5927 9.92136 27.7683C9.69466 28.2855 9.41912 28.7799 9.0985 29.2448C8.92238 29.4775 8.75983 29.7203 8.61165 29.9717C8.57508 30.0403 8.52936 30.1431 8.49507 30.2163C8.42498 30.3256 8.379 30.4486 8.36016 30.5771C8.34133 30.7056 8.35007 30.8366 8.38583 30.9615C8.42159 31.0863 8.48354 31.2021 8.56754 31.3011C8.65155 31.4001 8.75569 31.4802 8.87303 31.5358C8.99037 31.5915 9.11823 31.6215 9.24807 31.6239C9.37791 31.6262 9.50677 31.6009 9.62607 31.5496C9.74536 31.4983 9.85236 31.4221 9.93993 31.3262C10.0275 31.2303 10.0936 31.1169 10.1339 30.9934V30.9934C10.1682 30.9226 10.2185 30.8288 10.2459 30.7648C10.3495 30.4928 10.4372 30.215 10.5088 29.9329C10.6658 29.3586 10.9028 28.8092 11.2128 28.3008C11.321 28.1997 11.4572 28.1336 11.6036 28.1111L11.8094 27.7385C14.5058 28.775 17.4896 28.7824 20.1911 27.7591L20.3854 28.1089C20.5683 28.1402 20.732 28.2409 20.8425 28.39C21.0996 28.8775 21.3086 29.3888 21.4665 29.9168C21.5381 30.199 21.6259 30.4768 21.7294 30.7489C21.7591 30.8152 21.8071 30.9111 21.8414 30.9774C21.8825 31.0998 21.9491 31.2122 22.0368 31.307C22.1245 31.4018 22.2313 31.4769 22.3502 31.5275C22.469 31.578 22.5972 31.6029 22.7263 31.6003C22.8555 31.5977 22.9826 31.5677 23.0993 31.5125C23.216 31.4572 23.3197 31.3778 23.4035 31.2796C23.4874 31.1813 23.5494 31.0664 23.5856 30.9424C23.6218 30.8185 23.6314 30.6882 23.6136 30.5603C23.5958 30.4324 23.5511 30.3097 23.4825 30.2002C23.4482 30.1294 23.4002 30.0243 23.3636 29.9557C23.2154 29.705 23.0529 29.4631 22.8768 29.2312C22.5623 28.7777 22.2929 28.2946 22.0722 27.7888C22.0249 27.6082 22.0503 27.4161 22.1431 27.254C22.0851 27.1354 22.0347 27.0133 21.9922 26.8883C24.4868 25.4093 26.3505 23.0647 27.2288 20.3008L27.6173 20.3694C27.7556 20.2431 27.9377 20.1759 28.1248 20.182C28.6664 20.2825 29.1969 20.4357 29.7088 20.6391C29.9745 20.7599 30.2469 20.8652 30.5248 20.9546C30.5911 20.9729 30.6848 20.9889 30.7534 21.0049H30.7716H30.7854C30.9071 21.049 31.0369 21.0667 31.166 21.0569C31.2952 21.0471 31.4208 21.0099 31.5345 20.9479C31.6482 20.8859 31.7474 20.8005 31.8256 20.6972C31.9038 20.594 31.9592 20.4753 31.9881 20.349C32.0169 20.2228 32.0186 20.0919 31.9931 19.9649C31.9675 19.8379 31.9153 19.7178 31.8398 19.6126C31.7644 19.5073 31.6674 19.4192 31.5554 19.3543C31.4433 19.2893 31.3188 19.2489 31.1899 19.2357C31.1122 19.2174 31.0025 19.1877 30.9271 19.174C30.6384 19.1337 30.3476 19.11 30.0562 19.1032C29.5063 19.0671 28.9613 18.9775 28.4288 18.8357C28.2638 18.7437 28.1276 18.6076 28.0356 18.4426L27.6699 18.3352C28.0618 15.4707 27.3883 12.5621 25.7774 10.1614L26.0996 9.87115C26.0874 9.6839 26.1489 9.49927 26.2711 9.35685C26.6894 8.99748 27.1419 8.67977 27.6219 8.40826C27.8816 8.27584 28.1335 8.12857 28.3762 7.96713C28.4356 7.9237 28.5156 7.85511 28.5751 7.80711C28.6781 7.73553 28.7653 7.64353 28.8312 7.53681C28.8971 7.43009 28.9404 7.31094 28.9583 7.18679C28.9762 7.06263 28.9684 6.93613 28.9353 6.81513C28.9022 6.69414 28.8446 6.58122 28.766 6.48345C28.6874 6.38568 28.5895 6.30516 28.4784 6.24684C28.3674 6.18852 28.2455 6.15371 28.1204 6.14451C27.9953 6.13532 27.8697 6.15189 27.7513 6.19334C27.6329 6.23479 27.5243 6.30022 27.4322 6.38545C27.3705 6.43345 27.2859 6.49968 27.2311 6.54539C27.0194 6.74553 26.8195 6.95773 26.6322 7.18086C26.2607 7.58924 25.8504 7.96048 25.4071 8.28939C25.2326 8.36015 25.0418 8.38074 24.8562 8.34882L24.5111 8.59569C22.5214 6.5073 19.8409 5.21258 16.9682 4.95227C16.9682 4.83113 16.9499 4.61169 16.9476 4.54769C16.7923 4.44033 16.6856 4.27613 16.6505 4.09059C16.6312 3.53922 16.6657 2.98727 16.7534 2.44257C16.811 2.15718 16.8523 1.86866 16.8768 1.57853C16.8768 1.50538 16.8768 1.4003 16.8768 1.3203C16.8871 1.07284 16.8017 0.830908 16.6382 0.644863C16.4747 0.458817 16.2458 0.342961 15.9991 0.321411V0.321411ZM14.8562 7.36598L14.5865 12.1294H14.5682C14.5621 12.2741 14.5169 12.4144 14.4373 12.5354C14.3577 12.6564 14.2467 12.7535 14.1163 12.8164C13.9858 12.8793 13.8408 12.9056 13.6965 12.8925C13.5523 12.8794 13.4143 12.8273 13.2974 12.742V12.742L9.39107 9.97173C10.6354 8.74934 12.1966 7.89906 13.8985 7.51686C14.2172 7.4502 14.5392 7.39983 14.8631 7.36598H14.8562ZM17.1419 7.36598C19.1954 7.62001 21.1084 8.54202 22.5865 9.99001L18.7008 12.7328H18.6871C18.57 12.8179 18.4322 12.8698 18.2881 12.8829C18.1439 12.8961 17.999 12.8699 17.8685 12.8074C17.738 12.7448 17.6269 12.6482 17.5468 12.5276C17.4668 12.407 17.4209 12.2671 17.4139 12.1225V12.1225L17.1419 7.36598ZM7.97393 11.7683L11.5419 14.9682V14.9866C11.6501 15.0819 11.7306 15.2046 11.7748 15.3418C11.8189 15.4791 11.8252 15.6257 11.7929 15.7662C11.7605 15.9068 11.6909 16.036 11.5912 16.1401C11.4915 16.2443 11.3655 16.3195 11.2265 16.358V16.374L6.65507 17.6929C6.42319 15.6266 6.88646 13.5419 7.97165 11.7683H7.97393ZM24.0059 11.7683C25.0936 13.5345 25.5751 15.6075 25.3774 17.6723L20.7808 16.3488V16.3282C20.6418 16.2898 20.5158 16.2146 20.4161 16.1104C20.3164 16.0062 20.2467 15.877 20.2144 15.7365C20.1821 15.596 20.1884 15.4494 20.2325 15.3121C20.2767 15.1749 20.3571 15.0522 20.4654 14.9569V14.9569L24.0128 11.782L24.0059 11.7683ZM15.2699 15.1968H16.7305L17.6448 16.3397L17.3179 17.7568L16.0059 18.3877L14.6894 17.7546L14.3625 16.3374L15.2699 15.1968ZM19.9556 19.0826C20.0177 19.08 20.0798 19.0845 20.1408 19.0962V19.0962L24.8699 19.8963C24.1712 21.8587 22.8385 23.5323 21.0825 24.6528L19.2539 20.2186C19.2037 20.1005 19.1824 19.9721 19.1919 19.8441C19.2014 19.7161 19.2414 19.5922 19.3085 19.4828C19.3756 19.3734 19.4679 19.2817 19.5777 19.2152C19.6875 19.1488 19.8116 19.1096 19.9396 19.1008L19.9556 19.0826ZM12.0128 19.1008C12.1922 19.1036 12.3655 19.1667 12.5048 19.2798C12.6441 19.393 12.7413 19.5498 12.7808 19.7249C12.8187 19.8901 12.8027 20.0631 12.7351 20.2186L12.7488 20.2369L10.9294 24.6414C9.18561 23.525 7.85909 21.8642 7.15564 19.9168L11.8437 19.1214C11.8987 19.1119 11.9546 19.108 12.0105 19.11L12.0128 19.1008ZM15.9739 21.0231C16.1232 21.0185 16.2708 21.0553 16.4003 21.1296C16.5298 21.2038 16.6362 21.3126 16.7076 21.4437H16.7259L19.0368 25.6197C18.732 25.7203 18.4273 25.8064 18.1225 25.878C16.423 26.2677 14.6486 26.1767 12.9979 25.6151L15.3042 21.446C15.3707 21.3256 15.467 21.2244 15.5838 21.1519C15.7007 21.0795 15.8343 21.0383 15.9716 21.0323L15.9739 21.0231Z" fill="#1971BD"/>
</g>
<defs>
<clipPath id="clip0">
<rect width="32" height="32" fill="white"/>
</clipPath>
</defs>
</svg>
