<svg xmlns="http://www.w3.org/2000/svg" xmlns:xlink="http://www.w3.org/1999/xlink" width="14" height="14" viewBox="0 0 14 14">
  <defs>
    <clipPath id="clip-path">
      <rect id="Rectangle_2810" data-name="Rectangle 2810" width="14" height="14" transform="translate(-20368 16502)" fill="#fff"/>
    </clipPath>
  </defs>
  <g id="Mask_Group_14" data-name="Mask Group 14" transform="translate(20368 -16502)" clip-path="url(#clip-path)">
    <path id="path3059" d="M117.118,274.06a.421.421,0,0,0-.4.442s0,.007,0,.011c0,.033,0,.073,0,.1a3.316,3.316,0,0,0,.054.378,3.712,3.712,0,0,1,.044.721.433.433,0,0,1-.129.205l-.009.168a5.165,5.165,0,0,0-.718.11,5.111,5.111,0,0,0-2.6,1.483c-.044-.03-.121-.085-.144-.1a.314.314,0,0,1-.236-.023,3.712,3.712,0,0,1-.536-.484,3.3,3.3,0,0,0-.262-.278c-.024-.021-.061-.049-.088-.07a.472.472,0,0,0-.277-.1.383.383,0,0,0-.317.14.421.421,0,0,0,.1.586l.006,0c.026.021.058.048.082.066a3.323,3.323,0,0,0,.329.193,3.71,3.71,0,0,1,.591.415.442.442,0,0,1,.08.229l.127.114a5.142,5.142,0,0,0-.811,3.585l-.166.048a.551.551,0,0,1-.171.172,3.707,3.707,0,0,1-.712.117,3.324,3.324,0,0,0-.381.031c-.03.006-.073.017-.106.025h0l-.006,0a.4.4,0,1,0,.177.774h.006l.008,0c.033-.007.074-.015.1-.023a3.312,3.312,0,0,0,.357-.137,3.715,3.715,0,0,1,.693-.2.439.439,0,0,1,.228.081l.173-.03a5.172,5.172,0,0,0,2.292,2.861l-.072.173a.394.394,0,0,1,.035.225,3.884,3.884,0,0,1-.36.646,3.322,3.322,0,0,0-.213.318c-.016.03-.036.075-.051.107a.4.4,0,1,0,.717.34h0s0,0,0,0c.015-.031.037-.072.049-.1a3.315,3.315,0,0,0,.115-.364,2.779,2.779,0,0,1,.308-.714.322.322,0,0,1,.171-.083l.09-.163a5.143,5.143,0,0,0,3.667.009l.085.153a.315.315,0,0,1,.2.123,3.711,3.711,0,0,1,.273.668,3.32,3.32,0,0,0,.115.364c.013.029.034.071.049.1a.4.4,0,1,0,.718-.34c-.015-.031-.036-.077-.052-.107a3.308,3.308,0,0,0-.213-.317,3.713,3.713,0,0,1-.352-.631.312.312,0,0,1,.031-.234,1.366,1.366,0,0,1-.066-.16,5.171,5.171,0,0,0,2.291-2.882l.17.03a.314.314,0,0,1,.222-.082,3.71,3.71,0,0,1,.693.2,3.319,3.319,0,0,0,.357.138c.029.008.07.015.1.022l.008,0h.006a.4.4,0,1,0,.177-.774c-.034-.008-.082-.021-.115-.027a3.317,3.317,0,0,0-.381-.031,3.708,3.708,0,0,1-.712-.117.445.445,0,0,1-.172-.172l-.16-.047a5.162,5.162,0,0,0-.828-3.576l.141-.127a.314.314,0,0,1,.075-.225,3.71,3.71,0,0,1,.591-.415,3.314,3.314,0,0,0,.33-.193c.026-.019.061-.049.087-.07a.4.4,0,1,0-.5-.622c-.027.021-.064.05-.088.07a3.319,3.319,0,0,0-.262.278,3.723,3.723,0,0,1-.536.485.442.442,0,0,1-.241.026l-.151.108a5.207,5.207,0,0,0-3.3-1.594c0-.053-.008-.149-.009-.177a.314.314,0,0,1-.13-.2,3.719,3.719,0,0,1,.045-.721,3.319,3.319,0,0,0,.054-.378c0-.032,0-.078,0-.113A.421.421,0,0,0,117.118,274.06Zm-.5,3.082-.118,2.084-.008,0a.35.35,0,0,1-.556.268l0,0-1.709-1.212a4.094,4.094,0,0,1,1.972-1.074A4.188,4.188,0,0,1,116.621,277.142Zm1,0A4.128,4.128,0,0,1,120,278.29l-1.7,1.2-.006,0a.351.351,0,0,1-.557-.267h0Zm-4.011,1.926,1.561,1.4,0,.008a.35.35,0,0,1-.138.6l0,.007-2,.577A4.092,4.092,0,0,1,113.606,279.068Zm7.014,0a4.168,4.168,0,0,1,.6,2.583l-2.011-.579,0-.009a.35.35,0,0,1-.138-.6v0l1.552-1.389Zm-3.822,1.5h.639l.4.5-.143.62-.574.276-.576-.277-.143-.62Zm2.05,1.7a.351.351,0,0,1,.081.006l0,0,2.069.35a4.1,4.1,0,0,1-1.657,2.081l-.8-1.94,0,0a.352.352,0,0,1,.3-.489Zm-3.475.008a.35.35,0,0,1,.336.273.347.347,0,0,1-.02.216l.006.008L114.9,284.7a4.114,4.114,0,0,1-1.651-2.067l2.051-.348,0,0A.354.354,0,0,1,115.373,282.28Zm1.733.841a.353.353,0,0,1,.321.184h.008l1.011,1.827q-.2.066-.4.113a4.109,4.109,0,0,1-2.242-.115l1.009-1.824h0A.351.351,0,0,1,117.106,283.121Z" transform="translate(-20478.119 16228.08)" fill="#0071bd"/>
  </g>
</svg>
