<svg xmlns="http://www.w3.org/2000/svg" width="14" height="14" viewBox="0 0 14 14">
  <g id="Monitoring" transform="translate(22573 -16203)">
    <rect id="Rectangle_1816" data-name="Rectangle 1816" width="14" height="14" transform="translate(-22573 16203)" fill="none"/>
    <g id="Group_2041" data-name="Group 2041" transform="translate(-22624.096 15294.223)">
      <g id="Group_2040" data-name="Group 2040">
        <g id="Group_2039" data-name="Group 2039">
          <path id="Path_2761" data-name="Path 2761" d="M64.243,909.777h-12.3a.855.855,0,0,0-.852.852v8.841a.855.855,0,0,0,.852.852h12.3a.856.856,0,0,0,.852-.852v-8.841A.855.855,0,0,0,64.243,909.777Zm-.215,9.066H52.161v-7.871H64.028Z" fill="#0071bd"/>
          <path id="Path_2762" data-name="Path 2762" d="M56.517,920.726l-1.609,1.635h6.4L59.7,920.726Z" fill="#0071bd"/>
          <path id="Path_2763" data-name="Path 2763" d="M53.973,917.265a.57.57,0,0,0,.57-.57.583.583,0,0,0-.032-.161c.728-.587,2.016-1.623,2.6-2.075a.515.515,0,0,0,.6.032l1.474,1.254a.537.537,0,0,0-.019.1.57.57,0,1,0,1.141,0,.554.554,0,0,0-.031-.158l1.474-1.331a.559.559,0,0,0,.261.071.57.57,0,1,0-.57-.57.553.553,0,0,0,.043.212l-1.445,1.3a.521.521,0,0,0-.651.032L57.968,914.2a.569.569,0,1,0-1.1-.2.553.553,0,0,0,.04.2l-2.617,2.036a.554.554,0,0,0-.315-.108.57.57,0,1,0,0,1.14Z" fill="#0071bd"/>
        </g>
      </g>
    </g>
  </g>
</svg>
