<svg width="32" height="32" viewBox="0 0 32 32" fill="none" xmlns="http://www.w3.org/2000/svg">
<path d="M19.8802 4H9.03857V10.5735L9.81461 10.7104C11.0331 10.9304 12.2012 11.3713 13.2611 12.0114L14.6762 12.8787V9.66048H19.8802C21.6418 9.66048 23.3312 10.3603 24.5768 11.6059C25.8224 12.8515 26.5222 14.5409 26.5222 16.3024C26.5222 18.064 25.8224 19.7534 24.5768 20.999C23.3312 22.2446 21.6418 22.9444 19.8802 22.9444H17.7804L17.5521 23.6063C17.1386 24.8648 16.4792 26.0285 15.612 27.03L14.2426 28.582H19.9031C23.0712 28.4455 26.0642 27.0908 28.2577 24.8008C30.4512 22.5107 31.6757 19.4621 31.6757 16.291C31.6757 13.1199 30.4512 10.0713 28.2577 7.78125C26.0642 5.49118 23.0712 4.13656 19.9031 4L19.8802 4Z" fill="#1971BD"/>
<path d="M8.10271 12.4451C6.5037 12.4406 4.9393 12.9106 3.60757 13.7957C2.27584 14.6807 1.23667 15.9411 0.621619 17.4171C0.00657042 18.8931 -0.156698 20.5184 0.152483 22.0872C0.461665 23.6561 1.22939 25.0979 2.35847 26.2302C3.48755 27.3625 4.9272 28.1343 6.49517 28.4479C8.06313 28.7615 9.68889 28.6028 11.1666 27.992C12.6444 27.3811 13.9076 26.3455 14.7965 25.0163C15.6853 23.687 16.1598 22.124 16.1598 20.525C16.1598 18.386 15.3116 16.3343 13.8013 14.8197C12.291 13.305 10.2417 12.4511 8.10271 12.4451ZM14.2197 19.5663H11.4579C11.4068 18.0763 11.1455 16.601 10.6819 15.184L10.5449 14.8416C11.506 15.2556 12.3468 15.9059 12.9893 16.7319C13.6318 17.5579 14.055 18.5329 14.2197 19.5663ZM2.00856 21.4608H4.81598C4.85417 22.9484 5.1 24.4234 5.54637 25.8431C5.53662 25.957 5.53662 26.0715 5.54637 26.1854C4.60968 25.7551 3.79541 25.0974 3.17756 24.2723C2.55971 23.4472 2.15787 22.4807 2.00856 21.4608ZM5.54637 15.184C5.1 16.6036 4.85417 18.0787 4.81598 19.5663H2.00856C2.16902 18.5346 2.58805 17.5602 3.22661 16.7341C3.86517 15.908 4.70247 15.2569 5.66049 14.8416C5.65074 14.9556 5.65074 15.0701 5.66049 15.184H5.54637ZM8.97005 24.9757C8.85504 25.6191 8.55342 26.2144 8.10271 26.6876C7.65942 26.2092 7.35896 25.6161 7.23538 24.9757C6.91787 23.8291 6.73406 22.6496 6.68759 21.4608H9.51783C9.47137 22.6496 9.28755 23.8291 8.97005 24.9757ZM6.68759 19.5663C6.73241 18.3773 6.91625 17.1976 7.23538 16.0513C7.35896 15.4109 7.65942 14.8179 8.10271 14.3395C8.55342 14.8127 8.85504 15.408 8.97005 16.0513C9.28917 17.1976 9.47302 18.3773 9.51783 19.5663H6.68759ZM10.5449 26.1854L10.6819 25.8431C11.1455 24.4261 11.4068 22.9508 11.4579 21.4608H14.2197C14.055 22.4942 13.6318 23.4692 12.9893 24.2952C12.3468 25.1212 11.506 25.7714 10.5449 26.1854Z" fill="#1971BD"/>
</svg>
