<svg width="32" height="32" viewBox="0 0 32 32" fill="none" xmlns="http://www.w3.org/2000/svg">
<g clip-path="url(#clip0)">
<path d="M26.7876 5.48313C26.48 5.39155 26.1553 5.37268 25.8391 5.42802C25.5229 5.48335 25.2238 5.61137 24.9656 5.80199V5.57423C24.9656 4.91373 24.9656 4.27601 24.9656 3.61551C24.9717 3.3844 24.9314 3.1544 24.8471 2.93911C24.7629 2.72381 24.6363 2.52758 24.475 2.36199C24.3136 2.1964 24.1208 2.0648 23.9077 1.97498C23.6947 1.88516 23.4658 1.83892 23.2346 1.839H3.73853C3.36107 1.80489 2.98285 1.89559 2.66193 2.0972C2.34101 2.2988 2.09512 2.60016 1.96202 2.95502C1.91614 3.2264 1.91614 3.50356 1.96202 3.77494C1.82536 9.28669 1.82536 14.8212 1.82536 20.333V28.2362C1.80166 28.6565 1.93197 29.0711 2.19189 29.4023C2.45182 29.7334 2.82353 29.9586 3.23746 30.0354H3.62465H23.1435C23.3844 30.0453 23.6247 30.0047 23.8489 29.9164C24.0732 29.828 24.2766 29.6937 24.446 29.5222C24.6153 29.3507 24.747 29.1456 24.8326 28.9202C24.9182 28.6949 24.9557 28.4541 24.9428 28.2134C24.9428 25.5486 24.9428 22.9066 24.9428 20.2418V20.0141C25.5448 19.8996 26.1629 19.8996 26.7649 20.0141V28.4184C26.7471 29.3449 26.368 30.2277 25.7085 30.8787C25.049 31.5297 24.1613 31.8973 23.2346 31.9031H3.5791C3.10782 31.9092 2.64009 31.8209 2.20349 31.6433C1.76689 31.4658 1.37026 31.2026 1.03698 30.8694C0.703714 30.5361 0.440552 30.1395 0.263019 29.7029C0.0854854 29.2663 -0.0028247 28.7985 0.00329655 28.3273V3.66107C-0.0343794 2.78953 0.251965 1.93491 0.807112 1.26201C1.36226 0.589101 2.14689 0.145568 3.0097 0.0169373C3.20645 -0.00564577 3.40513 -0.00564577 3.60187 0.0169373H23.1891C23.6653 0.0107426 24.1379 0.100351 24.5788 0.280436C25.0197 0.460521 25.4199 0.727408 25.7556 1.06523C26.0913 1.40306 26.3556 1.80492 26.5329 2.24694C26.7102 2.68897 26.7968 3.16212 26.7876 3.63829V5.48313Z" fill="#1971BD"/>
<path d="M21.2075 19.9002C21.2075 20.333 21.3669 20.7429 21.4125 21.1529C21.4464 21.448 21.4464 21.746 21.4125 22.0411C21.3725 22.1104 21.3515 22.1889 21.3515 22.2689C21.3515 22.3489 21.3725 22.4274 21.4125 22.4967L22.6652 24.3187L22.8474 24.592L21.0025 25.412C20.8887 25.2525 20.7976 25.0931 20.6837 24.9565L18.2239 21.3807C18.1943 21.3185 18.1441 21.2686 18.0817 21.2395C18.0194 21.2104 17.9488 21.204 17.8822 21.2212C17.6422 21.2573 17.3968 21.2276 17.1722 21.1354C16.9476 21.0431 16.7523 20.8918 16.6068 20.6974C16.6068 20.6974 16.5157 20.5152 16.4474 20.5152C16.1247 20.5431 15.7998 20.5059 15.4918 20.4056C15.1839 20.3054 14.8992 20.1442 14.6548 19.9317C14.4105 19.7192 14.2113 19.4597 14.0693 19.1687C13.9273 18.8776 13.8453 18.561 13.8282 18.2376C13.7941 17.9653 13.7941 17.6899 13.8282 17.4177C13.842 17.1838 13.9112 16.9566 14.03 16.7546C14.1487 16.5527 14.3138 16.3818 14.5114 16.2561C14.5114 16.2561 14.6709 15.96 14.6253 15.96C14.522 15.6366 14.5472 15.2858 14.6956 14.9805C14.844 14.6752 15.1043 14.4387 15.4225 14.3202C17.199 13.5913 18.9527 12.8625 20.7292 12.1792C21.6046 11.8368 22.3855 11.2902 23.0068 10.5849C23.6218 9.8561 24.2822 9.17282 24.92 8.48955C25.3911 7.98533 25.9771 7.60246 26.6282 7.37354C26.947 7.37354 27.0837 7.37353 27.2203 7.62407L31.2516 17.5543C31.4111 17.9643 31.2516 18.192 30.8872 18.3515C29.8894 18.7178 28.8104 18.8045 27.7669 18.602C27.0139 18.48 26.2522 18.4191 25.4894 18.4198C24.626 18.4882 23.7835 18.72 23.0068 19.1031L21.2075 19.9002ZM26.3093 9.12727C25.8809 9.42985 25.4702 9.75685 25.0794 10.1066C24.5328 10.6305 24.0317 11.2226 23.5306 11.792C22.9777 12.4231 22.2718 12.9015 21.4808 13.1814C21.2552 13.2587 21.0346 13.3499 20.8203 13.4547C20.6278 13.5437 20.464 13.6846 20.3473 13.8617C20.2306 14.0387 20.1657 14.2448 20.1598 14.4568C20.1373 14.7297 20.1373 15.0039 20.1598 15.2767C20.3058 16.2828 20.7685 17.2162 21.4808 17.9415C21.6215 18.096 21.8079 18.2014 22.0128 18.2424C22.2177 18.2834 22.4303 18.2577 22.6196 18.1693C22.9302 18.0207 23.2497 17.8914 23.5762 17.7821C24.161 17.517 24.8042 17.4072 25.4438 17.4632L27.7214 17.5999C28.3619 17.5687 28.9965 17.4617 29.6118 17.281L26.3093 9.12727Z" fill="#1971BD"/>
<path d="M13.2816 9.81054H7.01827C6.88917 9.78547 6.77208 9.71814 6.68548 9.61917C6.59888 9.52019 6.54769 9.39521 6.53998 9.26392C6.52975 9.12716 6.5673 8.9911 6.64622 8.87895C6.72514 8.76679 6.84054 8.68551 6.97272 8.64897H19.34C19.7727 8.64897 20.046 8.87673 20.0233 9.26392C20.0301 9.40166 19.9846 9.53688 19.8958 9.64248C19.8071 9.74808 19.6818 9.81624 19.545 9.83331H13.2816V9.81054Z" fill="#1971BD"/>
<path d="M18.3605 24.1821H6.97262C6.83416 24.1505 6.71086 24.0721 6.62368 23.96C6.53649 23.8479 6.49079 23.7091 6.49433 23.5671C6.49951 23.4216 6.55811 23.2831 6.65894 23.1781C6.75978 23.073 6.89577 23.0088 7.04095 22.9977H17.2901C17.3739 22.9856 17.4594 23.0013 17.5334 23.0425C17.6075 23.0836 17.666 23.1479 17.7 23.2255C17.905 23.5216 18.2239 23.8176 18.3605 24.1821Z" fill="#1971BD"/>
<path d="M14.056 13.2725L13.2816 14.4112C13.2816 14.4112 13.2816 14.4112 13.0994 14.4112H7.15491C7.07444 14.4178 6.9935 14.4071 6.91746 14.38C6.84142 14.3529 6.77202 14.3099 6.71387 14.2539C6.65571 14.1979 6.61013 14.1301 6.58015 14.0552C6.55017 13.9802 6.53647 13.8997 6.53996 13.8191C6.53996 13.656 6.60475 13.4996 6.72008 13.3842C6.8354 13.2689 6.99182 13.2041 7.15491 13.2041H13.9876L14.056 13.2725Z" fill="#1971BD"/>
<path d="M12.2566 17.9643L12.4616 19.1486H7.20041C7.11193 19.1554 7.02302 19.143 6.93978 19.1123C6.85654 19.0815 6.78095 19.0331 6.7182 18.9703C6.65545 18.9076 6.60702 18.832 6.57625 18.7487C6.54547 18.6655 6.53308 18.5766 6.53991 18.4881C6.54958 18.3562 6.60488 18.2317 6.69632 18.1361C6.78775 18.0406 6.90962 17.9798 7.04098 17.9643H12.2566Z" fill="#1971BD"/>
<path d="M29.6118 10.4027C30.0815 10.36 30.5529 10.4641 30.9608 10.7007C31.3688 10.9374 31.6933 11.2948 31.8894 11.7237C32.1143 12.1924 32.1805 12.7216 32.0777 13.2312C31.975 13.7408 31.709 14.203 31.32 14.5479L29.6118 10.4027Z" fill="#1971BD"/>
</g>
<defs>
<clipPath id="clip0">
<rect width="32" height="32" fill="white"/>
</clipPath>
</defs>
</svg>
