<svg xmlns="http://www.w3.org/2000/svg" width="14" height="14" viewBox="0 0 14 14">
  <g id="Release" transform="translate(22551 -15637)">
    <rect id="Rectangle_1796" data-name="Rectangle 1796" width="14" height="14" transform="translate(-22551 15637)" fill="none"/>
    <g id="Group_1999" data-name="Group 1999" transform="translate(-22623.965 15293.813)">
      <path id="Path_2696" data-name="Path 2696" d="M84.68,345.586a.869.869,0,0,0-.793.142c0-.046-.008-.075-.008-.1,0-.286,0-.571,0-.857a.757.757,0,0,0-.751-.774H74.595a.757.757,0,0,0-.775.484,1.109,1.109,0,0,0-.054.358q0,3.624,0,7.248,0,1.729,0,3.457a.755.755,0,0,0,.611.785.872.872,0,0,0,.176.015h8.532a.757.757,0,0,0,.794-.794q0-1.744,0-3.488v-.122a2.168,2.168,0,0,1,.8-.024v.116q0,1.781,0,3.562a1.552,1.552,0,0,1-1.557,1.55h-8.6a1.548,1.548,0,0,1-1.563-1.564q0-2.931,0-5.859,0-2.464,0-4.93a1.546,1.546,0,0,1,1.315-1.576,1.5,1.5,0,0,1,.26-.018H83.1a1.552,1.552,0,0,1,1.577,1.584Z" fill="#0071bd"/>
      <path id="Path_2697" data-name="Path 2697" d="M82.258,351.9c.034.19.077.371.093.552a1.6,1.6,0,0,1-.031.383.25.25,0,0,0,.042.2c.186.265.369.532.553.8.025.037.048.075.077.12l-.811.351c-.047-.069-.093-.134-.136-.2q-.532-.78-1.062-1.562a.125.125,0,0,0-.141-.066.579.579,0,0,1-.561-.23.141.141,0,0,0-.1-.054,1.055,1.055,0,0,1-1.148-1.041,1.847,1.847,0,0,1,0-.364.656.656,0,0,1,.306-.509.1.1,0,0,0,.047-.129.565.565,0,0,1,.351-.712c.771-.319,1.542-.638,2.318-.942a2.5,2.5,0,0,0,1-.7c.27-.313.554-.615.839-.916a1.845,1.845,0,0,1,.747-.482c.135-.047.2-.021.254.111q.88,2.18,1.762,4.362c.071.174.018.281-.159.351a2.536,2.536,0,0,1-1.365.1,5.793,5.793,0,0,0-.954-.076,2.946,2.946,0,0,0-1.081.293C82.81,351.666,82.53,351.788,82.258,351.9Zm2.238-4.759a5.977,5.977,0,0,0-.543.421c-.238.233-.454.489-.678.736a2.113,2.113,0,0,1-.895.612,2.2,2.2,0,0,0-.288.123.473.473,0,0,0-.283.44,2.1,2.1,0,0,0,.608,1.517.4.4,0,0,0,.493.1c.136-.062.278-.112.415-.17a1.836,1.836,0,0,1,.816-.137c.32.014.639.041.958.061a3.483,3.483,0,0,0,.844-.091Z" transform="translate(-0.022 -0.012)" fill="#0071bd"/>
      <path id="Path_2698" data-name="Path 2698" d="M78.778,347.489h-2.6a.754.754,0,0,1-.134-.008.261.261,0,0,1-.018-.507.478.478,0,0,1,.114-.012q2.645,0,5.29,0c.2,0,.312.1.3.275a.247.247,0,0,1-.213.245.88.88,0,0,1-.135.007Z" transform="translate(-0.011 -0.014)" fill="#0071bd"/>
      <path id="Path_2699" data-name="Path 2699" d="M81.01,353.8H76.182a.776.776,0,0,1-.135-.01.251.251,0,0,1-.207-.271.256.256,0,0,1,.238-.246c.028,0,.056,0,.084,0q2.186,0,4.373,0a.188.188,0,0,1,.186.1C80.806,353.51,80.9,353.645,81.01,353.8Z" transform="translate(-0.011 -0.037)" fill="#0071bd"/>
      <path id="Path_2700" data-name="Path 2700" d="M79.118,349.017c-.112.165-.22.332-.334.494a.11.11,0,0,1-.08.032q-1.3,0-2.6,0a.253.253,0,0,1-.268-.26.26.26,0,0,1,.263-.266c.025,0,.049,0,.074,0h2.943Z" transform="translate(-0.011 -0.022)" fill="#0071bd"/>
      <path id="Path_2701" data-name="Path 2701" d="M78.34,351.078l.088.514a.645.645,0,0,1-.077.007H76.127a.261.261,0,0,1-.288-.281.25.25,0,0,1,.21-.238.5.5,0,0,1,.094-.008h2.119C78.289,351.072,78.317,351.076,78.34,351.078Z" transform="translate(-0.011 -0.029)" fill="#0071bd"/>
      <path id="Path_2702" data-name="Path 2702" d="M85.918,347.751a1.02,1.02,0,0,1,.989.578,1.049,1.049,0,0,1-.246,1.243Z" transform="translate(-0.048 -0.017)" fill="#0071bd"/>
    </g>
  </g>
</svg>
