<svg width="32" height="32" viewBox="0 0 32 32" fill="none" xmlns="http://www.w3.org/2000/svg">
<g clip-path="url(#clip0)">
<path fill-rule="evenodd" clip-rule="evenodd" d="M17.4485 0.33731C16.5331 -0.112436 15.4669 -0.112437 14.5515 0.337309L4.39777 5.32606C3.4824 5.77581 2.81757 6.62635 2.59149 7.63692L0.0837336 18.8466C-0.142346 19.8571 0.0949272 20.9177 0.728387 21.7281L7.75497 30.7176C8.38843 31.528 9.34913 32 10.3651 32H21.6349C22.6509 32 23.6116 31.528 24.245 30.7176L31.2716 21.7281C31.9051 20.9177 32.1423 19.8571 31.9163 18.8466L29.4085 7.63692C29.1824 6.62635 28.5176 5.77581 27.6022 5.32607L17.4485 0.33731ZM23.154 15.6631H22.4382C22.4116 15.479 22.4007 15.2929 22.4056 15.107V12.8825C22.3546 11.4279 21.7892 10.0392 20.8112 8.96592C19.8331 7.89268 18.5064 7.20525 17.0694 7.02712C15.6704 6.89168 14.2696 7.26654 13.1227 8.08328C11.9757 8.90002 11.1592 10.1042 10.8221 11.4759C10.6521 12.6349 10.5651 13.8046 10.5618 14.9761C10.578 15.2048 10.578 15.4344 10.5618 15.6631H9.9436C9.19523 15.6631 9 15.8593 9 16.6117V25.1168C9 25.8037 9.19523 26 9.84599 26H23.1866C23.8048 26 24 25.8037 24 25.1822V16.579C24 15.892 23.8048 15.6631 23.154 15.6631ZM20.4208 15.6631H12.6768L12.6443 15.6303C12.5856 14.5185 12.5965 13.4042 12.6768 12.2937C12.8277 11.3494 13.3191 10.494 14.0572 9.89065C14.7954 9.28731 15.7286 8.97829 16.679 9.02255C17.6726 9.08719 18.6065 9.52186 19.2984 10.2417C19.9903 10.9615 20.3905 11.9147 20.4208 12.9153V15.6631Z" fill="#1971BD"/>
</g>
<defs>
<clipPath id="clip0">
<rect width="32" height="32" fill="white"/>
</clipPath>
</defs>
</svg>
