<svg xmlns="http://www.w3.org/2000/svg" width="14.018" height="14" viewBox="0 0 14.018 14">
  <g id="Service_Discovery" data-name="Service &amp; Discovery" transform="translate(22573 -15858)">
    <rect id="Rectangle_1798" data-name="Rectangle 1798" width="14" height="14" transform="translate(-22573 15858)" fill="none"/>
    <g id="Group_1993" data-name="Group 1993" transform="translate(-22624.086 15293.883)">
      <path id="Path_1834" data-name="Path 1834" d="M59.781,565.537H55.03v2.883l.338.06a4.3,4.3,0,0,1,1.505.567l.627.382v-1.418h2.28a2.914,2.914,0,0,1,0,5.826h-.929l-.093.284a4.334,4.334,0,0,1-.857,1.506l-.591.683h2.473a5.388,5.388,0,0,0,0-10.775Z" fill="#0071bd"/>
      <path id="Path_1835" data-name="Path 1835" d="M54.618,569.238a3.532,3.532,0,1,0,3.532,3.532h0A3.538,3.538,0,0,0,54.618,569.238Zm2.676,3.12H56.061a7.259,7.259,0,0,0-.318-1.923c-.018-.053-.035-.1-.054-.15A2.71,2.71,0,0,1,57.294,572.358Zm-5.352.825h1.233a7.218,7.218,0,0,0,.317,1.924c.018.052.035.1.054.15A2.714,2.714,0,0,1,51.942,573.183Zm1.55-2.747a7.217,7.217,0,0,0-.317,1.923H51.942a2.716,2.716,0,0,1,1.6-2.074c-.019.047-.037.1-.055.15ZM55,574.723a1.485,1.485,0,0,1-.381.748,1.479,1.479,0,0,1-.382-.748A6.7,6.7,0,0,1,54,573.182h1.237A6.7,6.7,0,0,1,55,574.723Zm-1-2.365a6.7,6.7,0,0,1,.237-1.541,1.475,1.475,0,0,1,.382-.748,1.481,1.481,0,0,1,.381.748,6.7,6.7,0,0,1,.237,1.541Zm1.689,2.9q.029-.072.054-.15a7.219,7.219,0,0,0,.318-1.924h1.233a2.718,2.718,0,0,1-1.6,2.074Z" fill="#0071bd"/>
    </g>
  </g>
</svg>
