<svg xmlns="http://www.w3.org/2000/svg" width="14" height="14" viewBox="0 0 14 14">
  <g id="Storage" transform="translate(22573 -16034)">
    <rect id="Rectangle_1817" data-name="Rectangle 1817" width="14" height="14" transform="translate(-22573 16034)" fill="none"/>
    <g id="Group_2038" data-name="Group 2038" transform="translate(-22624.086 15294.017)">
      <path id="Path_2755" data-name="Path 2755" d="M58.064,740.41h4a1.212,1.212,0,0,1,.2,2.408,1.494,1.494,0,0,1-.24.023q-3.964,0-7.929,0a1.214,1.214,0,0,1-1.084-1.831,1.141,1.141,0,0,1,1.032-.6C55.38,740.406,56.722,740.41,58.064,740.41Zm4.031.682a.524.524,0,0,0-.534.517.551.551,0,0,0,.533.558.565.565,0,0,0,.542-.541A.544.544,0,0,0,62.095,741.092Z" transform="translate(-0.001)" fill="#0071bd"/>
      <path id="Path_2756" data-name="Path 2756" d="M58.051,743.278c1.311,0,2.623,0,3.934,0a1.212,1.212,0,0,1,.184,2.417c-.106.006-.211.013-.316.013q-3.844,0-7.689,0a1.28,1.28,0,0,1-.93-.319,1.171,1.171,0,0,1-.336-1.267,1.135,1.135,0,0,1,.977-.828,2.228,2.228,0,0,1,.316-.017Q56.121,743.276,58.051,743.278Zm4.042,1.745a.533.533,0,1,0,0-1.067.531.531,0,0,0-.535.534A.522.522,0,0,0,62.093,745.023Z" transform="translate(-0.001 -0.001)" fill="#0071bd"/>
      <path id="Path_2757" data-name="Path 2757" d="M58.049,748.575h-3.98A1.215,1.215,0,0,1,53.7,746.2a1.339,1.339,0,0,1,.372-.052q3.981,0,7.96,0a1.214,1.214,0,1,1,.023,2.428C60.722,748.578,59.385,748.575,58.049,748.575Zm4.042-.682a.545.545,0,0,0,.545-.531.569.569,0,0,0-.538-.547.549.549,0,0,0-.537.54A.529.529,0,0,0,62.091,747.893Z" transform="translate(-0.001 -0.003)" fill="#0071bd"/>
      <path id="Path_2758" data-name="Path 2758" d="M58.633,750.707c0,.312-.007.624,0,.935a.378.378,0,0,0,.1.232.97.97,0,0,1,.218,1.081.945.945,0,0,1-1.788-.144.879.879,0,0,1,.242-.9.434.434,0,0,0,.13-.333c0-.6,0-1.2,0-1.8a.5.5,0,0,1,.459-.523.551.551,0,0,1,.6.321.527.527,0,0,1,.032.19C58.634,750.085,58.633,750.4,58.633,750.707Z" transform="translate(-0.003 -0.004)" fill="#0071bd"/>
      <path id="Path_2759" data-name="Path 2759" d="M59.417,752.818v-.492c.038,0,.075-.01.113-.01q2.715,0,5.429,0c.1,0,.134.046.131.189,0,.325,0,.325-.234.325h-5.3C59.51,752.827,59.465,752.821,59.417,752.818Z" transform="translate(-0.004 -0.005)" fill="#0071bd"/>
      <path id="Path_2760" data-name="Path 2760" d="M56.77,752.322v.492a1.129,1.129,0,0,1-.114.01q-2.714,0-5.429,0c-.1,0-.134-.045-.131-.188,0-.326,0-.326.234-.326h5.3C56.676,752.314,56.721,752.319,56.77,752.322Z" transform="translate(0 -0.005)" fill="#0071bd"/>
    </g>
  </g>
</svg>
