<svg xmlns="http://www.w3.org/2000/svg" width="14.002" height="14.002" viewBox="0 0 14.002 14.002">
  <g id="Workloads" transform="translate(22573 -15417.998)">
    <rect id="Rectangle_1821" data-name="Rectangle 1821" width="14" height="14" transform="translate(-22573 15418)" fill="none"/>
    <g id="Group_1998" data-name="Group 1998" transform="translate(-22624.094 15293.786)">
      <path id="Path_2692" data-name="Path 2692" d="M62.179,128.005c.24.448.464.872.7,1.291.022.039.109.054.167.059q.849.083,1.7.156a.2.2,0,0,1,.206.194c.039.294.09.587.141.88a.128.128,0,0,1-.1.162c-.525.2-1.048.412-1.575.608a.226.226,0,0,0-.181.217c-.053.395-.127.788-.213,1.177a.2.2,0,0,0,.072.244,8.234,8.234,0,0,1,1.225,1.23.173.173,0,0,1,.024.231c-.14.232-.269.472-.414.7-.129.2-.309.212-.478.025-.272-.3-.541-.6-.811-.9-.331-.371-.658-.746-.992-1.114a.155.155,0,0,1-.034-.21,3.967,3.967,0,1,0-2.874,2.1.654.654,0,0,0,.18-.036c.248-.122.378,0,.517.2.469.667.953,1.323,1.437,1.98.108.147.058.3.057.459,0,.022-.047.053-.078.064-.3.107-.6.208-.9.316a.137.137,0,0,1-.188-.075c-.291-.482-.589-.96-.875-1.445a.222.222,0,0,0-.235-.134c-.409.012-.819.005-1.228-.005a.18.18,0,0,0-.184.09c-.325.473-.659.939-.986,1.409a.2.2,0,0,1-.292.089c-.262-.116-.534-.209-.8-.309a.141.141,0,0,1-.1-.175c.088-.567.17-1.135.264-1.7a.187.187,0,0,0-.081-.214q-.484-.39-.949-.8a.192.192,0,0,0-.213-.053c-.557.156-1.117.3-1.676.451a.188.188,0,0,1-.247-.11c-.135-.253-.275-.5-.421-.751a.16.16,0,0,1,.041-.236c.414-.359.821-.727,1.239-1.081a.249.249,0,0,0,.1-.291c-.084-.384-.145-.774-.2-1.164a.23.23,0,0,0-.157-.209c-.525-.24-1.045-.494-1.568-.74a.156.156,0,0,1-.1-.2c.061-.307.115-.614.183-.919a.164.164,0,0,1,.121-.1c.563-.021,1.127-.039,1.69-.041a.246.246,0,0,0,.265-.159,8.579,8.579,0,0,1,.545-.943.345.345,0,0,0,.018-.419c-.241-.485-.452-.986-.678-1.479a.175.175,0,0,1,.061-.238c.23-.181.457-.364.679-.554a.15.15,0,0,1,.226-.007c.433.352.873.7,1.3,1.055a.238.238,0,0,0,.292.043c.349-.144.7-.278,1.066-.388a.284.284,0,0,0,.232-.246c.133-.536.288-1.067.433-1.6a.2.2,0,0,1,.233-.168q.438.02.876.02c.1,0,.135.047.151.131.111.563.226,1.125.333,1.688.015.082.029.13.123.162q.6.2,1.181.432a.2.2,0,0,0,.243-.034,8.255,8.255,0,0,1,1.437-1,.162.162,0,0,1,.217.02c.23.2.463.4.7.6a.126.126,0,0,1,.031.185c-.279.5-.554,1-.83,1.507C62.205,127.968,62.178,128.006,62.179,128.005Z" fill="#0071bd"/>
      <path id="Path_2693" data-name="Path 2693" d="M58.757,133.271c-.078.063-.145.118-.212.171a.831.831,0,0,1-1.229-.17q-.551-.8-1.082-1.608a.794.794,0,0,1,.232-1.117l.67.855c.19.242.378.485.57.725a.4.4,0,0,0,.628.066c.248-.2.5-.4.742-.6a.4.4,0,0,0,.058-.628c-.391-.475-.787-.947-1.181-1.42-.032-.038-.064-.078-.094-.116a.734.734,0,0,1,.957-.1,3.106,3.106,0,0,1,.441.4c.344.345.682.7,1.026,1.041a.834.834,0,0,1-.068,1.321l-.179.147c.066.078.126.153.189.224q1.68,1.883,3.361,3.764a1.028,1.028,0,0,1,.3.61.471.471,0,0,1-.175.436c-.255.206-.514.408-.764.621a.508.508,0,0,1-.64.051,1.414,1.414,0,0,1-.392-.359q-1.542-2.1-3.071-4.214C58.819,133.345,58.795,133.318,58.757,133.271Zm3.786,3.938a.557.557,0,1,0-.559-.553A.552.552,0,0,0,62.543,137.209Z" fill="#0071bd"/>
    </g>
  </g>
</svg>
