<?xml version="1.0" encoding="utf-8"?>
<!-- Generator: Adobe Illustrator 23.0.1, SVG Export Plug-In . SVG Version: 6.00 Build 0)  -->
<svg version="1.1"
	 id="svg13826" inkscape:version="0.91 r13725" sodipodi:docname="hpa.svg" xmlns:cc="http://creativecommons.org/ns#" xmlns:dc="http://purl.org/dc/elements/1.1/" xmlns:inkscape="http://www.inkscape.org/namespaces/inkscape" xmlns:rdf="http://www.w3.org/1999/02/22-rdf-syntax-ns#" xmlns:sodipodi="http://sodipodi.sourceforge.net/DTD/sodipodi-0.dtd" xmlns:svg="http://www.w3.org/2000/svg"
	 xmlns="http://www.w3.org/2000/svg" xmlns:xlink="http://www.w3.org/1999/xlink" x="0px" y="0px" viewBox="0 0 50 50"
	 style="enable-background:new 0 0 50 50;" xml:space="preserve">
<style type="text/css">
	.st0{fill-rule:evenodd;clip-rule:evenodd;fill:#1971BD;}
	.st1{fill-rule:evenodd;clip-rule:evenodd;fill:#FFFFFF;}
</style>
<sodipodi:namedview  bordercolor="#666666" borderopacity="1.0" fit-margin-bottom="0" fit-margin-left="0" fit-margin-right="0" fit-margin-top="0" id="base" inkscape:current-layer="layer1" inkscape:cx="-2.090004" inkscape:cy="23.752239" inkscape:document-units="mm" inkscape:pageopacity="0.0" inkscape:pageshadow="2" inkscape:window-height="775" inkscape:window-maximized="1" inkscape:window-width="1440" inkscape:window-x="0" inkscape:window-y="1" inkscape:zoom="8" pagecolor="#ffffff" showgrid="false">
	</sodipodi:namedview>
<g id="g3342" transform="matrix(0.91708941,0,0,0.88661142,0.84998242,1.6871552)">
	<path id="path7034" inkscape:connector-curvature="0" sodipodi:nodetypes="ccccccccccccccccccc" class="st0" d="M-0.9,26.5l8-8v4h3
		v-12h32.6v12h3v-4l8,8l-8,8v-4h-3v12H10.1v-12h-3v4L-0.9,26.5z"/>
	<path id="path7157" inkscape:connector-curvature="0" class="st1" d="M13.9,17.8l12.5-3.6l12.5,3.6l-12.5,3.6L13.9,17.8z"/>
	<path id="path7159" inkscape:connector-curvature="0" class="st1" d="M13.9,19.2v13.3l11.6,6.4l0.1-16.2L13.9,19.2z"/>
	<path id="path7161" inkscape:connector-curvature="0" class="st1" d="M38.8,19.2v13.3l-11.6,6.4l-0.1-16.2L38.8,19.2z"/>
</g>
</svg>
