<svg width="32" height="32" viewBox="0 0 32 32" fill="none" xmlns="http://www.w3.org/2000/svg">
<path d="M24.8634 30.3165L32.0001 26.8633V19.036L24.8634 22.259V30.3165Z" fill="#1971BD"/>
<path d="M7.59715 14.8921L0.690674 18.1151L7.82736 21.3381L14.7338 18.1151L7.59715 14.8921Z" fill="#1971BD"/>
<path d="M24.4029 14.8921L17.2662 18.1151L24.1727 21.3381L31.3094 18.1151L24.4029 14.8921Z" fill="#1971BD"/>
<path d="M0 26.8633L7.13669 30.3165V22.259L0 19.036V26.8633Z" fill="#1971BD"/>
<path d="M8.28772 30.3165L15.4244 27.0935V19.036L8.28772 22.259V30.3165Z" fill="#1971BD"/>
<path d="M16.5754 17.4244L23.7121 13.9712V6.14388L16.5754 9.3669V17.4244Z" fill="#1971BD"/>
<path d="M16.5754 26.8633L23.7121 30.0863V22.259L16.5754 19.036V26.8633Z" fill="#1971BD"/>
<path d="M16.1151 2L8.97839 5.22302L16.1151 8.44604L23.0216 5.22302L16.1151 2Z" fill="#1971BD"/>
<path d="M8.28772 13.9712L15.4244 17.4244V9.3669L8.28772 6.14388V13.9712Z" fill="#1971BD"/>
</svg>
