<svg width="32" height="32" viewBox="0 0 32 32" fill="none" xmlns="http://www.w3.org/2000/svg">
<g clip-path="url(#clip0)">
<path d="M31.8146 25.3276C31.8495 25.2655 31.8808 25.2014 31.9083 25.1356C31.9323 25.0707 31.9521 25.0043 31.9677 24.9368V24.898C31.9822 24.8226 31.9899 24.7461 31.9906 24.6694V7.33475C31.9884 7.21565 31.9707 7.09734 31.938 6.98281L31.9129 6.90281C31.8767 6.79445 31.8276 6.69086 31.7666 6.59429V6.59429C31.7008 6.50096 31.6241 6.4158 31.5381 6.34062L31.4718 6.28576C31.3793 6.21369 31.2779 6.15377 31.1701 6.1075V6.1075L16.5071 0.108351C16.1834 -0.0242356 15.8206 -0.0242356 15.4969 0.108351L0.831583 6.1075C0.724614 6.15394 0.624014 6.21385 0.532205 6.28576L0.46593 6.34062C0.378781 6.41461 0.301924 6.49992 0.237395 6.59429C0.175475 6.69036 0.126301 6.79406 0.0911231 6.90281L0.0659802 6.98281C0.0320667 7.09708 0.0143839 7.21556 0.0134277 7.33475V24.6694C0.0141311 24.7461 0.0217678 24.8226 0.0362691 24.898V24.9368C0.0518609 25.0043 0.0717095 25.0707 0.0956914 25.1356C0.121359 25.2022 0.15271 25.2664 0.189393 25.3276C0.205391 25.3528 0.216829 25.3825 0.232826 25.4076C0.258429 25.4426 0.285883 25.4761 0.31509 25.5082C0.342515 25.5424 0.367661 25.5767 0.397371 25.6087C0.457938 25.6695 0.524557 25.7238 0.596195 25.771L0.644197 25.7961C0.702865 25.8349 0.76479 25.8686 0.829299 25.8967V25.8967L15.4786 31.889H15.4923C15.5283 31.9017 15.5649 31.9124 15.6021 31.9209C15.6458 31.9384 15.6909 31.9522 15.7369 31.9621C15.8227 31.9794 15.9099 31.9886 15.9974 31.9895C16.0849 31.9883 16.1721 31.9791 16.258 31.9621C16.3037 31.9621 16.3448 31.9369 16.3905 31.9232C16.4278 31.9142 16.4644 31.9028 16.5002 31.889H16.5162L31.1655 25.8944C31.2298 25.8667 31.2917 25.8338 31.3507 25.7961L31.4009 25.7687C31.4714 25.7209 31.5372 25.6666 31.5975 25.6064C31.6272 25.5767 31.6523 25.5401 31.6797 25.5082C31.7091 25.4755 31.7366 25.4411 31.762 25.4053C31.7895 25.3825 31.7895 25.3528 31.8146 25.3276ZM2.66675 9.3299L14.665 14.2389V28.678L2.66675 23.769V9.3299ZM17.3321 14.2343L29.3304 9.32533V23.7736L17.3321 28.6826V14.2343ZM15.9997 2.77997L27.1433 7.35074L15.9997 11.9101L4.85615 7.35074L15.9997 2.77997Z" fill="#1971BD"/>
</g>
<defs>
<clipPath id="clip0">
<rect width="31.9954" height="32" fill="white"/>
</clipPath>
</defs>
</svg>
