<svg xmlns="http://www.w3.org/2000/svg" width="14" height="14.002" viewBox="0 0 14 14.002">
  <g id="Machines" transform="translate(22551 -15366)">
    <rect id="Rectangle_1791" data-name="Rectangle 1791" width="14" height="14" transform="translate(-22551 15366)" fill="none"/>
    <path id="Path_2689" data-name="Path 2689" d="M86.911,83.454a.816.816,0,0,0,.041-.084.718.718,0,0,0,.026-.087l0-.017a.556.556,0,0,0,.01-.1V75.581a.6.6,0,0,0-.023-.154l-.011-.035a.62.62,0,0,0-.064-.135v0a.629.629,0,0,0-.1-.111l-.029-.024a.6.6,0,0,0-.132-.078h0l-6.416-2.625a.583.583,0,0,0-.442,0l-6.417,2.625h0a.6.6,0,0,0-.131.078l-.029.024a.561.561,0,0,0-.1.111v0a.577.577,0,0,0-.064.135l-.011.035a.557.557,0,0,0-.023.154v7.585a.556.556,0,0,0,.01.1l0,.017a.718.718,0,0,0,.026.087.544.544,0,0,0,.041.084c.007.011.012.024.019.035a.529.529,0,0,0,.036.044c.012.015.023.03.036.044a.55.55,0,0,0,.087.071l.021.011a.53.53,0,0,0,.081.044h0l6.41,2.622h0l.006,0a.437.437,0,0,0,.048.014.368.368,0,0,0,.059.018.612.612,0,0,0,.114.012.631.631,0,0,0,.114-.012c.02,0,.038-.011.058-.017a.384.384,0,0,0,.048-.015l.007,0h0l6.41-2.623h0a.568.568,0,0,0,.081-.043l.022-.012a.591.591,0,0,0,.086-.071c.013-.013.024-.029.036-.043a.507.507,0,0,0,.036-.045C86.9,83.478,86.9,83.465,86.911,83.454Zm-12.754-7,5.25,2.148V84.92l-5.25-2.148ZM80.574,78.6l5.25-2.148v6.322l-5.25,2.148Zm-.583-5.012,4.876,2-4.876,1.995-4.876-1.995Z" transform="translate(-22623.99 15293.628)" fill="#0071bd"/>
  </g>
</svg>
