<?xml version="1.0" encoding="utf-8"?>
<!-- Generator: Adobe Illustrator 23.0.1, SVG Export Plug-In . SVG Version: 6.00 Build 0)  -->
<svg version="1.1"
	 id="svg13826" inkscape:version="0.91 r13725" sodipodi:docname="c-role.svg" xmlns:cc="http://creativecommons.org/ns#" xmlns:dc="http://purl.org/dc/elements/1.1/" xmlns:inkscape="http://www.inkscape.org/namespaces/inkscape" xmlns:rdf="http://www.w3.org/1999/02/22-rdf-syntax-ns#" xmlns:sodipodi="http://sodipodi.sourceforge.net/DTD/sodipodi-0.dtd" xmlns:svg="http://www.w3.org/2000/svg"
	 xmlns="http://www.w3.org/2000/svg" xmlns:xlink="http://www.w3.org/1999/xlink" x="0px" y="0px" viewBox="0 0 50 50"
	 style="enable-background:new 0 0 50 50;" xml:space="preserve">
<style type="text/css">
	.st0{fill:#1971BD;}
</style>
<sodipodi:namedview  bordercolor="#666666" borderopacity="1.0" fit-margin-bottom="0" fit-margin-left="0" fit-margin-right="0" fit-margin-top="0" id="base" inkscape:current-layer="layer1" inkscape:cx="-2.090004" inkscape:cy="33.752239" inkscape:document-units="mm" inkscape:pageopacity="0.0" inkscape:pageshadow="2" inkscape:window-height="775" inkscape:window-maximized="1" inkscape:window-width="1440" inkscape:window-x="0" inkscape:window-y="1" inkscape:zoom="8" pagecolor="#ffffff" showgrid="false">
	</sodipodi:namedview>
<g id="layer1" transform="translate(-0.99262638,-1.174181)" inkscape:groupmode="layer" inkscape:label="Calque 1">
	<g id="g3341" transform="translate(0,0.28092246)">
		<ellipse id="ellipse7838-2" pointer-events="none" class="st0" cx="25.5" cy="27.9" rx="3.4" ry="3.3"/>
		<path id="path7840-40" pointer-events="none" inkscape:connector-curvature="0" class="st0" d="M26,0.9L5.4,10v13.6
			C5.4,36.3,14.2,48,26,50.9C37.9,48,46.7,36.3,46.7,23.6V10L26,0.9z M37,37.5H15.1V19.2h3.1v-2c0-4.3,3.5-7.8,7.9-7.8
			s7.9,3.5,7.9,7.8v2H37L37,37.5z"/>
		<path id="path7836-7" pointer-events="none" inkscape:connector-curvature="0" class="st0" d="M25.9,12.3c-2.6,0-4.7,2.1-4.7,4.7
			v2h9.5v-2C30.6,14.4,28.5,12.3,25.9,12.3z"/>
	</g>
</g>
</svg>
