<svg width="32" height="32" viewBox="0 0 32 32" fill="none" xmlns="http://www.w3.org/2000/svg">
<path d="M3.03993 15.5254C3.03993 12.7894 5.26398 10.5654 7.99994 10.5654H14.3999V7.52545H7.99994C3.58395 7.52545 0 11.1094 0 15.5254C0 19.9414 3.58395 23.5254 7.99994 23.5254H14.3999V20.4854H7.99994C5.26398 20.4854 3.03993 18.2614 3.03993 15.5254ZM9.59997 17.1254H22.3999V13.9254H9.59997V17.1254ZM23.9999 7.52545H17.5999V10.5654H23.9999C26.7359 10.5654 28.9598 12.7894 28.9598 15.5254C28.9598 18.2614 26.7359 20.4854 23.9999 20.4854H17.5999V23.5254H23.9999C28.4159 23.5254 31.9999 19.9414 31.9999 15.5254C31.9999 11.1094 28.4159 7.52545 23.9999 7.52545Z" fill="#1971BD"/>
</svg>
