<svg width="32" height="32" viewBox="0 0 32 32" fill="none" xmlns="http://www.w3.org/2000/svg">
<path d="M15.8456 19.4286C17.0322 19.4286 17.9942 18.4769 17.9942 17.3029C17.9942 16.1289 17.0322 15.1772 15.8456 15.1772C14.659 15.1772 13.697 16.1289 13.697 17.3029C13.697 18.4769 14.659 19.4286 15.8456 19.4286Z" fill="#1971BD"/>
<path d="M16.2115 0L3.00003 5.82857V14.5371C2.99275 18.4913 4.28034 22.3392 6.66605 25.4926C9.05175 28.646 12.4043 30.9316 16.2115 32C20.0124 30.924 23.3577 28.6358 25.7385 25.4835C28.1192 22.3312 29.4049 18.4874 29.4 14.5371V5.82857L16.2115 0ZM23.1829 23.4286H9.21717V11.7029H11.2057V10.4229C11.2919 9.14482 11.8603 7.94723 12.796 7.07245C13.7317 6.19767 14.9648 5.71103 16.2457 5.71103C17.5267 5.71103 18.7598 6.19767 19.6955 7.07245C20.6312 7.94723 21.1996 9.14482 21.2857 10.4229V11.7029H23.16L23.1829 23.4286Z" fill="#1971BD"/>
<path d="M16.0972 7.26862C15.2989 7.2746 14.5349 7.59439 13.9704 8.15893C13.4059 8.72346 13.0861 9.48741 13.0801 10.2858V11.5429H19.1372V10.2629C19.1194 9.46646 18.792 8.7083 18.2244 8.14928C17.6569 7.59026 16.8938 7.27436 16.0972 7.26862Z" fill="#1971BD"/>
</svg>
