<svg width="32" height="32" viewBox="0 0 32 32" fill="none" xmlns="http://www.w3.org/2000/svg">
<path d="M15.8497 19.4323C17.0373 19.4323 18.0001 18.4771 18.0001 17.299C18.0001 16.1208 17.0373 15.1656 15.8497 15.1656C14.662 15.1656 13.6992 16.1208 13.6992 17.299C13.6992 18.4771 14.662 19.4323 15.8497 19.4323Z" fill="#1971BD"/>
<path d="M16.2002 0L3 5.83628V14.545C3 22.6189 8.62649 30.1657 16.2002 32C23.7631 30.1657 29.395 22.6189 29.395 14.545V5.83628L16.2002 0ZM23.1876 23.4365H9.20743V11.6994H11.2138V10.4192C11.2138 7.6544 13.473 5.41131 16.2647 5.41131C19.0565 5.41131 21.3157 7.6544 21.3157 10.4192V11.6994H23.1876V23.4365Z" fill="#1971BD"/>
<path d="M16.1021 7.27472C14.4293 7.28067 13.0737 8.62486 13.0737 10.2816V11.5403H19.1359V10.2601C19.1198 8.60871 17.7696 7.28009 16.1021 7.27472Z" fill="#1971BD"/>
</svg>
