<?xml version="1.0" encoding="utf-8"?>
<!-- Generator: Adobe Illustrator 23.0.1, SVG Export Plug-In . SVG Version: 6.00 Build 0)  -->
<svg version="1.1"
	 id="svg13826" inkscape:version="0.91 r13725" sodipodi:docname="crb.svg" xmlns:cc="http://creativecommons.org/ns#" xmlns:dc="http://purl.org/dc/elements/1.1/" xmlns:inkscape="http://www.inkscape.org/namespaces/inkscape" xmlns:rdf="http://www.w3.org/1999/02/22-rdf-syntax-ns#" xmlns:sodipodi="http://sodipodi.sourceforge.net/DTD/sodipodi-0.dtd" xmlns:svg="http://www.w3.org/2000/svg"
	 xmlns="http://www.w3.org/2000/svg" xmlns:xlink="http://www.w3.org/1999/xlink" x="0px" y="0px" viewBox="0 0 50 50"
	 style="enable-background:new 0 0 50 50;" xml:space="preserve">
<style type="text/css">
	.st0{fill:#1971BD;}
</style>
<sodipodi:namedview  bordercolor="#666666" borderopacity="1.0" fit-margin-bottom="0" fit-margin-left="0" fit-margin-right="0" fit-margin-top="0" id="base" inkscape:current-layer="layer1" inkscape:cx="-2.090004" inkscape:cy="28.752239" inkscape:document-units="mm" inkscape:pageopacity="0.0" inkscape:pageshadow="2" inkscape:window-height="775" inkscape:window-maximized="1" inkscape:window-width="1440" inkscape:window-x="0" inkscape:window-y="1" inkscape:zoom="8" pagecolor="#ffffff" showgrid="false">
	</sodipodi:namedview>
<g id="layer1" transform="translate(-0.99262638,-1.174181)" inkscape:groupmode="layer" inkscape:label="Calque 1">
	<path id="path8732" inkscape:connector-curvature="0" class="st0" d="M5.7,26.2c0-4.3,3.5-7.8,7.8-7.8h10v-4.8h-10
		C6.6,13.7,1,19.3,1,26.2s5.6,12.5,12.5,12.5h10v-4.8h-10C9.2,33.9,5.7,30.4,5.7,26.2z M16,28.7h20v-5H16V28.7z M38.5,13.7h-10v4.8
		h10c4.3,0,7.7,3.5,7.7,7.8c0,4.3-3.5,7.8-7.7,7.8h-10v4.8h10c6.9,0,12.5-5.6,12.5-12.5S45.4,13.7,38.5,13.7z"/>
</g>
</svg>
