<?xml version="1.0" encoding="utf-8"?>
<!-- Generator: Adobe Illustrator 23.0.1, SVG Export Plug-In . SVG Version: 6.00 Build 0)  -->
<svg version="1.1"
	 id="svg13826" inkscape:version="0.91 r13725" sodipodi:docname="group.svg" xmlns:cc="http://creativecommons.org/ns#" xmlns:dc="http://purl.org/dc/elements/1.1/" xmlns:inkscape="http://www.inkscape.org/namespaces/inkscape" xmlns:rdf="http://www.w3.org/1999/02/22-rdf-syntax-ns#" xmlns:sodipodi="http://sodipodi.sourceforge.net/DTD/sodipodi-0.dtd" xmlns:svg="http://www.w3.org/2000/svg"
	 xmlns="http://www.w3.org/2000/svg" xmlns:xlink="http://www.w3.org/1999/xlink" x="0px" y="0px" viewBox="0 0 50 50"
	 style="enable-background:new 0 0 50 50;" xml:space="preserve">
<style type="text/css">
	.st0{fill:#1971BD;}
</style>
<sodipodi:namedview  bordercolor="#666666" borderopacity="1.0" fit-margin-bottom="0" fit-margin-left="0" fit-margin-right="0" fit-margin-top="0" id="base" inkscape:current-layer="layer1" inkscape:cx="-2.090004" inkscape:cy="33.752239" inkscape:document-units="mm" inkscape:pageopacity="0.0" inkscape:pageshadow="2" inkscape:window-height="775" inkscape:window-maximized="1" inkscape:window-width="1440" inkscape:window-x="0" inkscape:window-y="1" inkscape:zoom="8" pagecolor="#ffffff" showgrid="false">
	</sodipodi:namedview>
<g id="layer1" transform="translate(-0.99262638,-1.174181)" inkscape:groupmode="layer" inkscape:label="Calque 1">
	<path id="rect8317" inkscape:connector-curvature="0" class="st0" d="M5.5,2.2C3,2.2,1,4.3,1,6.8v38.8c0,2.5,2,4.6,4.6,4.6h40.9
		c2.5,0,4.6-2,4.6-4.6V6.8c0-2.5-2-4.6-4.6-4.6H5.5z M19.3,14.5c2.8,0,5,2.2,5,5c0,2.8-2.2,5-5,5c-2.8,0-5-2.2-5-5
		C14.3,16.7,16.6,14.5,19.3,14.5z M32.7,14.5c2.8,0,5,2.2,5,5c0,2.8-2.2,5-5,5c-2.8,0-5-2.2-5-5C27.7,16.7,29.9,14.5,32.7,14.5z
		 M19.3,27.8c3.9,0,11.7,1.9,11.7,5.8v4.2H7.7v-4.2C7.7,29.8,15.4,27.8,19.3,27.8z M32.7,27.8c3.9,0,11.7,1.9,11.7,5.8v4.2h-10v-4.2
		c0-2.5-1.3-4.3-3.3-5.7C31.6,27.9,32.2,27.8,32.7,27.8z"/>
</g>
</svg>
