<?xml version="1.0" encoding="utf-8"?>
<!-- Generator: Adobe Illustrator 23.0.1, SVG Export Plug-In . SVG Version: 6.00 Build 0)  -->
<svg version="1.1"
	 id="svg13826" inkscape:version="0.92.4 5da689c313, 2019-01-14" sodipodi:docname="rb.svg" xmlns:cc="http://creativecommons.org/ns#" xmlns:dc="http://purl.org/dc/elements/1.1/" xmlns:inkscape="http://www.inkscape.org/namespaces/inkscape" xmlns:rdf="http://www.w3.org/1999/02/22-rdf-syntax-ns#" xmlns:sodipodi="http://sodipodi.sourceforge.net/DTD/sodipodi-0.dtd" xmlns:svg="http://www.w3.org/2000/svg"
	 xmlns="http://www.w3.org/2000/svg" xmlns:xlink="http://www.w3.org/1999/xlink" x="0px" y="0px" viewBox="0 0 50 50"
	 style="enable-background:new 0 0 50 50;" xml:space="preserve">
<style type="text/css">
	.st0{fill:none;stroke:#0071BD;stroke-width:0.9797;stroke-linejoin:round;}
	.st1{fill:none;stroke:#0071BD;stroke-width:0.9797;stroke-linejoin:round;stroke-dasharray:1.4212,0.7106;}
	.st2{fill:none;stroke:#0071BD;stroke-width:0.9797;stroke-linejoin:round;stroke-dasharray:1.4252,0.7126;}
	.st3{fill:#0071BD;}
</style>
<sodipodi:namedview  bordercolor="#666666" borderopacity="1.0" fit-margin-bottom="0" fit-margin-left="0" fit-margin-right="0" fit-margin-top="0" id="base" inkscape:current-layer="layer1" inkscape:cx="14.287308" inkscape:cy="20.247642" inkscape:document-units="mm" inkscape:pageopacity="0.0" inkscape:pageshadow="2" inkscape:window-height="1043" inkscape:window-maximized="1" inkscape:window-width="1920" inkscape:window-x="0" inkscape:window-y="0" inkscape:zoom="11.313708" pagecolor="#ffffff" showgrid="false">
	</sodipodi:namedview>
<g id="layer1" transform="translate(-0.99262638,-1.174181)" inkscape:groupmode="layer" inkscape:label="Calque 1">
	<g id="g3345" transform="translate(-0.22511071,0.66897794)">
		<g id="rect8641">
			<g>
				<polyline class="st0" points="1.7,4.8 1.7,4.1 2.4,4.1 				"/>
				<line class="st1" x1="3.1" y1="4.1" x2="49.7" y2="4.1"/>
				<polyline class="st0" points="50,4.1 50.7,4.1 50.7,4.8 				"/>
				<line class="st2" x1="50.7" y1="5.6" x2="50.7" y2="45.8"/>
				<polyline class="st0" points="50.7,46.2 50.7,46.9 50,46.9 				"/>
				<line class="st1" x1="49.3" y1="46.9" x2="2.8" y2="46.9"/>
				<polyline class="st0" points="2.4,46.9 1.7,46.9 1.7,46.2 				"/>
				<line class="st2" x1="1.7" y1="45.5" x2="1.7" y2="5.2"/>
			</g>
		</g>
		<path id="path8433" inkscape:connector-curvature="0" class="st3" d="M10.5,25.5c0-3.3,2.7-6,6-6h7.8v-3.7h-7.8
			c-5.4,0-9.7,4.4-9.7,9.7s4.4,9.7,9.7,9.7h7.8v-3.7h-7.8C13.2,31.5,10.5,28.8,10.5,25.5z M18.4,27.5H34v-3.9H18.4V27.5z M36,15.8
			h-7.8v3.7H36c3.3,0,6,2.7,6,6c0,3.3-2.7,6-6,6h-7.8v3.7H36c5.4,0,9.7-4.4,9.7-9.7C45.7,20.1,41.3,15.8,36,15.8z"/>
	</g>
</g>
</svg>
