<?xml version="1.0" encoding="utf-8"?>
<!-- Generator: Adobe Illustrator 23.0.1, SVG Export Plug-In . SVG Version: 6.00 Build 0)  -->
<svg version="1.1"
	 id="svg13826" inkscape:version="0.91 r13725" sodipodi:docname="role.svg" xmlns:cc="http://creativecommons.org/ns#" xmlns:dc="http://purl.org/dc/elements/1.1/" xmlns:inkscape="http://www.inkscape.org/namespaces/inkscape" xmlns:rdf="http://www.w3.org/1999/02/22-rdf-syntax-ns#" xmlns:sodipodi="http://sodipodi.sourceforge.net/DTD/sodipodi-0.dtd" xmlns:svg="http://www.w3.org/2000/svg"
	 xmlns="http://www.w3.org/2000/svg" xmlns:xlink="http://www.w3.org/1999/xlink" x="0px" y="0px" viewBox="0 0 50 50"
	 style="enable-background:new 0 0 50 50;" xml:space="preserve">
<style type="text/css">
	.st0{fill:#0071BD;}
	.st1{fill:none;stroke:#0071BD;stroke-linejoin:round;}
	.st2{fill:none;stroke:#0071BD;stroke-linejoin:round;stroke-dasharray:1.3965,1.018;}
	.st3{fill:none;stroke:#0071BD;stroke-linejoin:round;stroke-dasharray:1.3515,0.9852;}
</style>
<sodipodi:namedview  bordercolor="#666666" borderopacity="1.0" fit-margin-bottom="0" fit-margin-left="0" fit-margin-right="0" fit-margin-top="0" id="base" inkscape:current-layer="layer1" inkscape:cx="-2.090004" inkscape:cy="33.752239" inkscape:document-units="mm" inkscape:pageopacity="0.0" inkscape:pageshadow="2" inkscape:window-height="775" inkscape:window-maximized="1" inkscape:window-width="1440" inkscape:window-x="0" inkscape:window-y="1" inkscape:zoom="8" pagecolor="#ffffff" showgrid="false">
	</sodipodi:namedview>
<g id="layer1" transform="translate(-0.99262638,-1.174181)" inkscape:groupmode="layer" inkscape:label="Calque 1">
	<g id="g3342" transform="translate(0.1276663,0.1398122)">
		<ellipse id="ellipse7838-2" pointer-events="none" class="st0" cx="26.1" cy="26.9" rx="2.5" ry="2.4"/>
		<path id="path7840-40" pointer-events="none" inkscape:connector-curvature="0" class="st0" d="M26.4,7.1l-15.1,6.7v10
			c0,9.2,6.4,17.9,15.1,20c8.7-2.1,15.1-10.7,15.1-20v-10L26.4,7.1z M34.4,33.9h-16V20.5h2.3V19c0-3.2,2.6-5.7,5.8-5.7
			c3.2,0,5.8,2.6,5.8,5.7v1.5h2.1V33.9z"/>
		<path id="path7836-7" pointer-events="none" inkscape:connector-curvature="0" class="st0" d="M26.4,15.4c-1.9,0-3.5,1.5-3.5,3.4
			v1.4h6.9v-1.5C29.8,16.9,28.3,15.4,26.4,15.4z"/>
		<g id="rect8484">
			<g>
				<polyline class="st1" points="1.7,5.7 1.7,5 2.4,5 				"/>
				<line class="st2" x1="3.4" y1="5" x2="48.8" y2="5"/>
				<polyline class="st1" points="49.3,5 50,5 50,5.7 				"/>
				<line class="st3" x1="50" y1="6.7" x2="50" y2="45.9"/>
				<polyline class="st1" points="50,46.4 50,47.1 49.3,47.1 				"/>
				<line class="st2" x1="48.3" y1="47.1" x2="2.9" y2="47.1"/>
				<polyline class="st1" points="2.4,47.1 1.7,47.1 1.7,46.4 				"/>
				<line class="st3" x1="1.7" y1="45.4" x2="1.7" y2="6.2"/>
			</g>
		</g>
	</g>
</g>
</svg>
