<svg width="32" height="32" viewBox="0 0 32 32" fill="none" xmlns="http://www.w3.org/2000/svg">
<path d="M16.1424 17.6019C17.0129 17.6019 17.7185 16.9019 17.7185 16.0383C17.7185 15.1747 17.0129 14.4747 16.1424 14.4747C15.2718 14.4747 14.5662 15.1747 14.5662 16.0383C14.5662 16.9019 15.2718 17.6019 16.1424 17.6019Z" fill="#1971BD"/>
<path d="M16.3314 3.35883L6.65625 7.63657V14.0196C6.65625 19.9375 10.7802 25.469 16.3314 26.8134C21.8747 25.469 26.0026 19.9375 26.0026 14.0196V7.63657L16.3314 3.35883ZM21.4529 20.5368H11.206V11.934H12.6766V10.9957C12.6766 8.96916 14.3325 7.32508 16.3787 7.32508C18.4249 7.32508 20.0808 8.96916 20.0808 10.9957V11.934H21.4529V20.5368Z" fill="#1971BD"/>
<path d="M16.3276 8.69086C15.1014 8.69522 14.1079 9.68045 14.1079 10.8948V11.8173H18.5512V10.879C18.5394 9.66862 17.5498 8.69479 16.3276 8.69086Z" fill="#1971BD"/>
<path d="M31.4557 2.05078H0.544678V29H31.4557V2.05078Z" stroke="#1971BD" stroke-width="0.4" stroke-miterlimit="10" stroke-linejoin="round" stroke-dasharray="0.8 0.4"/>
</svg>
