<svg width="32" height="32" viewBox="0 0 32 32" fill="none" xmlns="http://www.w3.org/2000/svg">
<path d="M15.8491 18.7414C16.5751 18.7414 17.1637 18.1625 17.1637 17.4483C17.1637 16.7342 16.5751 16.1552 15.8491 16.1552C15.123 16.1552 14.5344 16.7342 14.5344 17.4483C14.5344 18.1625 15.123 18.7414 15.8491 18.7414Z" fill="#1971BD"/>
<path d="M16 6.90942L7.9612 10.4655V15.7672C7.95656 18.1732 8.73996 20.5145 10.1916 22.4332C11.6433 24.3519 13.6834 25.7424 16 26.3922C18.3166 25.7424 20.3567 24.3519 21.8084 22.4332C23.26 20.5145 24.0434 18.1732 24.0388 15.7672V10.4655L16 6.90942ZM20.3103 21.1767H11.7543V14.043H12.9612V13.2456C12.9612 12.4283 13.2859 11.6444 13.8639 11.0664C14.4418 10.4884 15.2257 10.1637 16.0431 10.1637C16.8605 10.1637 17.6444 10.4884 18.2223 11.0664C18.8003 11.6444 19.125 12.4283 19.125 13.2456V14.043H20.2672L20.3103 21.1767Z" fill="#1971BD"/>
<path d="M15.9999 11.3491C15.514 11.3491 15.0481 11.5421 14.7045 11.8857C14.361 12.2292 14.168 12.6952 14.168 13.181V13.9353H17.8533V13.1595C17.8421 12.6754 17.6418 12.215 17.2954 11.8767C16.9491 11.5383 16.4841 11.349 15.9999 11.3491Z" fill="#1971BD"/>
<path d="M31 4H1V30.1638H31V4Z" stroke="#1971BD" stroke-width="0.5" stroke-linejoin="round" stroke-dasharray="0.61 0.5"/>
</svg>
