<svg width="32" height="32" viewBox="0 0 32 32" fill="none" xmlns="http://www.w3.org/2000/svg">
<path d="M31.4557 2.05081H0.544678V29H31.4557V2.05081Z" stroke="#1971BD" stroke-miterlimit="10" stroke-linejoin="round" stroke-dasharray="0.8 0.4"/>
<path d="M6.26239 15.5255C6.26239 13.4697 7.93347 11.7987 9.98919 11.7987H14.798V9.51452H9.98919C6.67115 9.51452 3.97827 12.2074 3.97827 15.5255C3.97827 18.8435 6.67115 21.5364 9.98919 21.5364H14.798V19.2522H9.98919C7.93347 19.2522 6.26239 17.5812 6.26239 15.5255ZM11.1914 16.7276H20.8089V14.3233H11.1914V16.7276ZM22.0111 9.51452H17.2023V11.7987H22.0111C24.0668 11.7987 25.7379 13.4697 25.7379 15.5255C25.7379 17.5812 24.0668 19.2522 22.0111 19.2522H17.2023V21.5364H22.0111C25.3292 21.5364 28.022 18.8435 28.022 15.5255C28.022 12.2074 25.3292 9.51452 22.0111 9.51452Z" fill="#1971BD"/>
</svg>
