<svg width="32" height="32" viewBox="0 0 32 32" fill="none" xmlns="http://www.w3.org/2000/svg">
<g clip-path="url(#clip0)">
<path d="M0 14.7054C0 14.098 0.15984 13.4586 0.255744 12.8832C0.351648 12.2758 0.447552 12.052 0.543457 11.6364C0.575425 11.5725 0.607393 11.5086 0.671329 11.4446C0.735265 11.4127 0.799201 11.3807 0.895105 11.4127H12.3077C12.3716 11.4127 12.4036 11.4127 12.4675 11.4127C12.5315 11.4127 12.5634 11.4446 12.5954 11.4766C12.6274 11.5086 12.6593 11.5405 12.6913 11.6045C12.7233 11.6364 12.7233 11.7004 12.7233 11.7323C13.4266 14.5775 13.4266 17.5505 12.7233 20.3957C12.7233 20.4276 12.6913 20.4596 12.6593 20.4916C12.6274 20.5235 12.5954 20.5555 12.5634 20.5555C12.5315 20.5555 12.4995 20.5875 12.4356 20.5875C12.4036 20.5875 12.3716 20.5875 12.3077 20.5555H1.05495C0.991009 20.5555 0.895105 20.5555 0.831169 20.4916C0.767233 20.4596 0.703297 20.3957 0.703297 20.2998C0.31968 19.3407 0.0959041 18.3178 0 17.2628V16.8153V14.7054Z" fill="#1971BD"/>
<path d="M32 6.58545C30.7852 7.76826 29.2507 8.56746 27.5884 8.85518C26.8851 8.98305 26.1818 9.04698 25.4785 9.04698L14.2258 8.95108C14.002 8.95108 13.9381 8.95108 13.8741 8.66337C13.1389 6.68135 12.0839 4.82721 10.8052 3.1329C10.4535 2.65338 10.038 2.23779 9.65434 1.79024C13.3946 0.0320013 17.5824 -0.447519 21.6423 0.415618C25.6703 1.27875 29.3147 3.45258 32 6.58545Z" fill="#1971BD"/>
<path d="M7.8002 2.78125C9.46253 4.69933 10.8691 6.80922 11.988 9.11092H1.79021C3.16483 6.45757 5.24275 4.28375 7.8002 2.78125Z" fill="#1971BD"/>
<path d="M7.57643 28.9631C5.08292 27.4925 3.005 25.3826 1.5984 22.8252H11.7962C10.8691 25.1589 9.43057 27.2688 7.57643 28.9631Z" fill="#1971BD"/>
<path d="M26.8212 19.6923C27.1089 19.5005 27.3646 19.2767 27.6204 19.0209C28.1319 18.4775 28.4835 17.8061 28.6753 17.0709C28.8671 16.3356 28.8352 15.5684 28.6434 14.8331C28.4516 14.0979 28.0679 13.4265 27.5245 12.915C27.013 12.4036 26.4376 12.0199 25.7662 11.7642C25.0949 11.5084 24.3916 11.3806 23.6883 11.4125H14.8012C15.5684 14.4175 15.5684 17.5504 14.8012 20.5554V20.5874H16.7832C18.1579 15.3446 24.8392 15.0569 26.8212 19.6923Z" fill="#1971BD"/>
<path d="M14.5135 27.2368C15.2488 26.5655 16.1119 26.054 17.007 25.7663C16.7193 24.8392 16.5595 23.8482 16.5595 22.8892H14.3217C14.2258 22.8892 14.1299 22.8892 14.034 22.9531C13.9381 23.017 13.9061 23.1129 13.8741 23.2088C12.9471 25.7663 11.5405 28.068 9.68633 30.05C9.68633 30.1779 9.68633 30.1779 9.68633 30.1779C10.4855 30.5295 11.3167 30.8492 12.1479 31.1049C12.5954 29.5705 13.3946 28.2278 14.5135 27.2368Z" fill="#1971BD"/>
<path d="M21.9621 27.9721C23.8482 27.9721 25.3187 25.2868 25.3187 22.7933C25.3187 17.6145 18.5734 17.6145 18.5734 22.7933C18.5415 25.2868 20.0759 27.9721 21.9621 27.9721Z" fill="#1971BD"/>
<path d="M29.059 31.3287C28.7073 30.3377 28.0999 29.5065 27.3007 28.8672C26.5015 28.2278 25.5105 27.8442 24.4875 27.7483C24.1678 28.0999 23.7842 28.4196 23.3367 28.6114C22.8891 28.8352 22.4096 28.9311 21.9301 28.9631C21.4506 28.9631 20.971 28.8352 20.5235 28.6114C20.0759 28.3877 19.6923 28.0999 19.3726 27.7483C18.3497 27.8442 17.3587 28.2278 16.5595 28.8672C15.7603 29.5065 15.1209 30.3697 14.8012 31.3287L14.7053 31.6484C14.7053 31.7443 14.7692 31.8082 14.8651 31.8082H29.059C29.1549 31.8082 29.2188 31.7443 29.2188 31.6484L29.059 31.3287Z" fill="#1971BD"/>
</g>
<defs>
<clipPath id="clip0">
<rect width="32" height="31.7762" fill="white"/>
</clipPath>
</defs>
</svg>
