<svg width="32" height="32" viewBox="0 0 32 32" fill="none" xmlns="http://www.w3.org/2000/svg">
<path d="M16.864 25.3441C16.864 25.2801 16.832 25.2481 16.832 25.1841L16.704 25.3441H16.864Z" fill="#1971BD"/>
<path d="M16.544 22.048C16.96 16.192 23.008 14.912 25.888 18.24C26.88 16.064 27.552 13.792 27.904 11.456C28.32 9.69602 28.512 9.44002 30.464 7.96802C31.296 7.45602 31.84 6.59202 31.936 5.63202C32.032 4.51202 31.776 4.35202 30.688 4.86402V4.89602C30.08 5.15202 29.44 5.28002 28.768 5.31202C26.08 5.56802 25.024 6.36802 23.136 9.56802C20.864 13.44 19.968 14.08 14.784 15.776C10.336 17.216 9.76 17.472 8.768 18.24C8 18.848 7.328 19.552 6.784 20.32C5.888 21.504 5.696 21.664 4.864 21.664C4.32 21.632 3.808 21.568 3.264 21.504C2.304 21.184 1.28 21.248 0.352 21.632C0.192 21.728 0 21.888 0 21.952C0.544 22.432 1.12 22.88 1.728 23.264C1.856 23.36 1.856 23.424 1.632 23.712C0.992 24.544 0.8 24.928 0.8 25.184C0.8 25.44 0.832 25.472 1.376 25.472C1.792 25.472 2.176 25.408 2.592 25.312C4.064 24.768 5.504 24.096 6.848 23.264C9.504 21.568 10.368 21.408 14.272 21.856C15.04 21.92 15.936 22.016 16.544 22.048Z" fill="#1971BD"/>
<path d="M21.952 28C23.84 28 25.312 25.312 25.312 22.816C25.312 17.632 18.56 17.632 18.56 22.816C18.56 25.312 20.064 28 21.952 28Z" fill="#1971BD"/>
<path d="M29.088 31.36C28.736 30.368 28.128 29.536 27.328 28.896C26.528 28.256 25.536 27.872 24.512 27.776C24.192 28.128 23.808 28.448 23.36 28.64C22.912 28.864 22.432 28.96 21.952 28.992C21.472 28.992 20.992 28.864 20.544 28.64C20.096 28.416 19.712 28.128 19.392 27.776C18.368 27.872 17.376 28.256 16.576 28.896C15.776 29.536 15.136 30.4 14.816 31.36L14.72 31.68C14.72 31.776 14.784 31.84 14.88 31.84H29.088C29.184 31.84 29.248 31.776 29.248 31.68L29.088 31.36Z" fill="#1971BD"/>
</svg>
