<svg width="32" height="32" viewBox="0 0 32 32" fill="none" xmlns="http://www.w3.org/2000/svg">
<path d="M15.36 0H17.408H18.656C20.192 0.128 21.728 0.384 23.232 0.768C24.736 1.152 26.176 1.728 27.52 2.496C28.416 2.976 29.184 3.648 29.792 4.448C30.144 4.864 30.4 5.408 30.496 5.952C30.592 6.496 30.56 7.072 30.4 7.616C30.144 8.384 29.696 9.056 29.088 9.568C28.16 10.4 27.136 11.04 25.984 11.52C24.032 12.32 21.984 12.864 19.904 13.088C18.144 13.28 16.352 13.344 14.592 13.248C12.864 13.216 11.136 12.992 9.44 12.576C7.904 12.224 6.432 11.648 5.088 10.848C4.192 10.336 3.424 9.664 2.816 8.864C2.304 8.256 2.016 7.52 2.016 6.72C1.984 5.952 2.24 5.184 2.72 4.544C3.04 4.128 3.392 3.744 3.808 3.392C4.992 2.464 6.368 1.728 7.808 1.28C9.952 0.544 12.192 0.128 14.464 0H15.36Z" fill="#1971BD"/>
<path d="M18.496 22.5919C18.784 21.8559 19.168 21.1839 19.648 20.5439L19.84 22.3999L18.496 22.5919Z" fill="#1971BD"/>
<path d="M30.144 10.688C28.864 11.744 27.424 12.576 25.856 13.12C23.328 14.016 20.704 14.528 18.016 14.624C16 14.72 13.952 14.656 11.968 14.368C10.176 14.144 8.416 13.696 6.72 13.056C5.376 12.576 4.128 11.904 3.008 11.04L2.016 10.208V10.4C2.016 12.192 2.016 13.984 2.016 15.808C2.016 16.704 2.336 17.568 2.912 18.272C3.52 19.04 4.288 19.648 5.152 20.16C6.56 16.032 11.424 15.328 13.984 18.048C14.016 18.08 14.048 18.08 14.048 18.112L14.208 18.304C14.272 18.4 14.336 18.496 14.432 18.592L16.352 21.12V20.992L18.624 18.08C18.656 18.016 18.72 17.952 18.784 17.92C18.848 17.888 18.944 17.856 19.008 17.888C19.648 17.888 20.256 17.888 20.896 17.888H21.504C21.792 19.328 21.952 20.768 22.016 22.24H22.048C23.552 21.952 24.992 21.472 26.368 20.832C27.552 20.288 28.608 19.52 29.44 18.56C30.176 17.824 30.592 16.832 30.592 15.808C30.592 14.016 30.592 12.256 30.592 10.496V10.272L30.144 10.688Z" fill="#1971BD"/>
<path d="M2.656 27.328C2.688 27.296 2.688 27.296 2.72 27.264C3.456 26.592 4.32 26.08 5.216 25.792C4.928 24.8 4.736 23.712 4.736 22.688C4.736 22.304 4.768 21.92 4.8 21.568C3.776 21.024 2.816 20.352 1.984 19.552V25.344C1.984 25.792 2.048 26.24 2.24 26.656C2.368 26.88 2.496 27.104 2.656 27.328Z" fill="#1971BD"/>
<path d="M30.464 19.7119C30.016 20.0639 29.6 20.4799 29.12 20.8319C27.424 21.9199 25.536 22.6879 23.552 23.1039L22.048 23.4559V28.9599H19.072C19.552 27.2639 19.776 25.5039 19.808 23.7439L18.016 23.8719C17.984 23.8399 17.952 23.8399 17.92 23.8399C17.888 23.8399 17.856 23.8399 17.824 23.8719C17.6 24.6399 17.376 25.4079 17.12 26.1439C17.12 26.2719 17.12 26.2719 17.12 26.2719H16.288C16.768 26.5279 17.216 26.8479 17.632 27.2319C17.696 27.2959 17.792 27.3919 17.856 27.4559C17.952 27.4879 18.048 27.5199 18.144 27.5839C18.272 27.6799 18.368 27.8399 18.4 27.9999C19.168 28.8959 19.744 29.9839 20.096 31.1999L20.256 31.6799C20.448 31.6479 20.64 31.6159 20.832 31.6159C22.56 31.3599 24.256 30.9119 25.92 30.2719C27.136 29.7919 28.288 29.0879 29.248 28.2239C29.952 27.6159 30.432 26.8159 30.656 25.9519C30.656 25.7599 30.656 25.5679 30.656 25.3759V19.7119H30.464Z" fill="#1971BD"/>
<path d="M10.048 28C11.936 28 13.408 25.312 13.408 22.816C13.408 17.632 6.656 17.632 6.656 22.816C6.656 25.312 8.16 28 10.048 28Z" fill="#1971BD"/>
<path d="M17.152 31.3601C16.8 30.3681 16.192 29.5361 15.392 28.8961C14.592 28.2561 13.6 27.8721 12.576 27.7761C12.256 28.1281 11.872 28.4481 11.424 28.6401C10.976 28.8641 10.496 28.9601 10.016 28.9921C9.536 28.9921 9.056 28.8641 8.608 28.6401C8.16 28.4161 7.776 28.1281 7.456 27.7761C6.432 27.8721 5.44 28.2561 4.64 28.8961C3.84 29.5361 3.2 30.4001 2.88 31.3601L2.784 31.6801C2.784 31.7761 2.848 31.8401 2.944 31.8401H17.152C17.248 31.8401 17.312 31.7761 17.312 31.6801L17.152 31.3601Z" fill="#1971BD"/>
</svg>
