<svg width="32" height="32" viewBox="0 0 32 32" fill="none" xmlns="http://www.w3.org/2000/svg">
<g clip-path="url(#clip0)">
<path d="M16.4037 12.8482C16.2403 12.3579 16.1042 11.8406 15.9952 11.3232C15.968 11.1325 15.9135 10.9417 15.8591 10.7511C15.8046 10.5604 15.8049 10.4787 15.7777 10.3426C15.7777 10.2336 15.7501 10.1247 15.7229 9.98858C15.614 9.71624 15.4782 9.4439 15.342 9.17156L15.2059 8.92661C15.1786 8.84491 15.1242 8.7631 15.0697 8.6814C14.4433 7.91884 14.2797 6.88395 14.5793 5.95799C14.9061 5.27714 15.6142 4.89586 16.3495 5.0048C17.2482 5.19544 18.0926 5.65847 18.7734 6.28485C18.8824 6.36655 18.9912 6.47538 19.0729 6.58432C19.1001 6.63879 19.1546 6.69326 19.2091 6.72049L20.1623 6.88405L20.3803 6.9657C20.9523 7.12911 21.4966 7.4014 21.9596 7.7282C22.3409 8.02778 22.6949 8.32746 23.049 8.65427V7.02023C23.049 4.8415 18.2285 3.07129 12.2915 3.07129C6.35448 3.07129 1.53406 4.8415 1.53406 7.02023V10.1793C1.53406 12.358 6.35448 14.1282 12.2915 14.1282C13.7894 14.1282 15.2874 14.0193 16.758 13.7742C16.6491 13.5291 16.5127 13.2022 16.4037 12.8482Z" fill="#1971BD"/>
<path d="M10.7846 20.5463C10.7846 20.8187 10.7574 21.0638 10.7574 21.3361C11.2749 21.3634 11.8195 21.3906 12.3642 21.3906C13.9166 21.3906 15.4689 21.2544 16.994 21.0093C16.8306 20.7914 16.6944 20.5736 16.6127 20.3285C16.1225 19.0757 16.0136 17.6868 16.2859 16.3523C14.9787 16.5429 13.6714 16.6246 12.3642 16.6246C11.2749 16.6246 10.2127 16.5702 9.2323 16.4612C10.1583 17.3327 10.7846 18.6944 10.7846 20.5463Z" fill="#1971BD"/>
<path d="M4.76593 15.4535C2.80508 14.7455 1.60678 13.7378 1.60678 12.6484V17.4144C1.60678 17.7412 1.71572 18.0408 1.90636 18.3404C2.4238 16.8152 3.51316 15.8621 4.76593 15.4535Z" fill="#1971BD"/>
<path d="M31.8366 26.9192L31.5098 26.4834C31.2102 25.9387 30.8017 25.4485 30.3659 25.04C30.0119 24.686 29.1949 24.223 29.0859 23.7328L29.0587 23.7055C29.3583 23.6783 29.6306 23.6511 29.9302 23.5694C30.3659 23.4877 30.7472 23.5694 31.183 23.4877L31.7821 23.3787V23.2426C31.5915 22.9702 31.4553 22.6434 31.2374 22.3983C30.6655 21.7447 30.0391 21.1455 29.3855 20.5736C29.0315 20.2741 28.5685 20.0562 28.16 19.7838C28.0238 19.7021 27.7787 19.6204 27.7242 19.4843C27.5608 19.1302 27.4247 18.7762 27.3157 18.4221C27.0434 17.6596 26.7711 16.8426 26.5532 16.0255C26.4442 15.4809 26.2808 14.9634 26.0902 14.446C25.1642 12.2945 23.6936 10.4426 21.8145 9.0264C21.3515 8.72682 20.834 8.48172 20.3166 8.31831L19.3906 8.15491C19.2 8.04597 19.0366 7.77363 18.8732 7.63746C18.3285 7.14725 17.6477 6.79321 16.9396 6.6298L16.9668 6.60257C16.5311 6.52087 16.0681 6.76597 15.9047 7.17448C15.4962 7.9915 16.2315 8.91746 16.4766 9.40768C16.6672 9.73448 16.8579 10.0885 16.994 10.4698C17.0757 10.7149 17.0757 10.9328 17.1302 11.1779C17.2391 11.8043 17.4025 12.4307 17.5932 13.0298C17.7021 13.3294 17.8111 13.6017 17.9472 13.8741C18.0289 14.0375 18.1923 14.1192 18.2196 14.3643C18.0562 14.6638 17.92 14.9907 17.8383 15.3175C17.2664 16.7336 17.2119 18.3404 17.7566 19.7838C17.92 20.1379 18.3013 20.9004 18.9549 20.7098C19.5268 20.5192 19.4723 19.7566 19.7174 19.1302C19.7719 18.9941 19.7447 18.8579 19.8264 18.7762V18.8034C19.9625 19.1847 20.0987 19.566 20.2077 19.9473C20.5617 20.6553 21.0519 21.309 21.6238 21.8809C21.8689 22.1804 22.1413 22.48 22.4408 22.7524C23.04 23.2153 22.6587 23.3515 27.0162 25.4485C27.0706 25.503 28.7319 26.2383 29.6306 26.6196C30.3932 26.9464 31.2102 27.1915 32.0272 27.4094V27.3821C31.9183 27.246 31.8911 27.0826 31.8366 26.9192ZM20.0987 10.8511C20.017 10.9055 19.9353 10.96 19.8536 10.9872C19.7447 10.497 19.554 10.0068 19.2545 9.57108C18.8732 9.2715 19.3634 8.86299 19.7719 8.99916C19.7991 8.99916 19.8264 8.99916 19.8536 8.99916C20.0442 9.0264 20.1532 9.1898 20.3166 9.35321C20.6706 9.84342 20.5617 10.497 20.0987 10.8511Z" fill="#1971BD"/>
<path d="M22.1685 23.9506C22.0868 23.8689 22.0051 23.7872 21.9234 23.7327C21.6783 23.5148 21.4604 23.297 21.2698 23.0519C21.1608 22.9429 21.0791 22.834 20.9702 22.6978C20.8613 22.5889 20.6979 22.4255 20.5889 22.2893C17.9745 23.297 15.1693 23.7599 12.3642 23.7055C12.0647 23.7055 11.7651 23.7055 11.4655 23.6782C11.8196 23.8961 12.1736 24.1412 12.5004 24.4408C13.4536 25.3123 14.1889 26.4834 14.5702 27.8178L14.7336 28.2536C14.7336 28.2808 14.7336 28.3353 14.7064 28.3625C19.3906 27.9812 22.931 26.4561 23.1217 24.6587C22.7404 24.468 22.4408 24.2229 22.1685 23.9506Z" fill="#1971BD"/>
<path d="M6.15491 25.0673C7.76171 25.0673 9.01448 22.7796 9.01448 20.6554C9.01448 16.2435 3.2681 16.2435 3.2681 20.6554C3.2681 22.7796 4.57533 25.0673 6.15491 25.0673Z" fill="#1971BD"/>
<path d="M12.2281 27.9269C11.9285 27.0827 11.4111 26.3746 10.7302 25.8299C10.0494 25.2852 9.20511 24.9584 8.33362 24.8767C8.06128 25.1763 7.73447 25.4486 7.35319 25.612C6.97191 25.8027 6.5634 25.8844 6.15489 25.9116C5.74638 25.9116 5.33787 25.8027 4.9566 25.612C4.57532 25.4214 4.24851 25.1763 3.97617 24.8767C3.10468 24.9584 2.26043 25.2852 1.57957 25.8299C0.898723 26.3746 0.354043 27.1099 0.0817021 27.9269L0 28.1993C0 28.281 0.0544681 28.3354 0.13617 28.3354H12.2281C12.3098 28.3354 12.3643 28.281 12.3643 28.1993L12.2281 27.9269Z" fill="#1971BD"/>
</g>
<defs>
<clipPath id="clip0">
<rect width="32" height="27.234" fill="white" transform="translate(0 2)"/>
</clipPath>
</defs>
</svg>
