<svg width="32" height="32" viewBox="0 0 32 32" fill="none" xmlns="http://www.w3.org/2000/svg">
<g clip-path="url(#clip0)">
<path d="M24.576 8.35201C24.16 8.35201 23.744 8.32001 23.328 8.35201C22.976 8.38401 22.624 8.44801 22.272 8.57601C21.312 8.89601 20.704 9.79201 20.8 10.784C20.832 11.616 20.992 12.448 21.344 13.216C21.728 14.144 22.144 15.072 22.656 15.936C22.88 16.352 23.104 16.768 23.328 17.216C23.584 17.696 23.872 18.144 24.224 18.56C24.288 18.624 24.352 18.72 24.416 18.816L24.32 18.848C23.616 19.04 23.104 19.68 23.136 20.416C23.008 22.688 22.656 24.896 22.336 27.136C22.272 27.456 22.208 27.776 22.112 28.096C21.856 28.928 21.216 29.6 20.352 29.824C19.904 29.984 19.424 30.08 18.976 30.144C18.016 30.336 17.024 29.824 16.608 28.928C16.32 28.384 16.16 27.808 16.128 27.2C15.968 25.216 15.936 23.2 15.968 21.216C16 20.896 15.968 20.544 15.904 20.224C15.776 19.552 15.232 19.008 14.528 18.912C14.368 18.88 14.208 18.88 14.048 18.912C14.08 18.816 14.08 18.72 14.112 18.624C14.4 17.856 14.688 17.088 15.008 16.352C15.488 15.136 15.68 13.824 15.52 12.544C15.456 11.84 15.328 11.168 15.2 10.496C15.04 9.24801 13.888 8.38401 12.64 8.54401C12.608 8.54401 12.576 8.54401 12.544 8.54401C11.712 8.60801 10.912 8.86401 10.176 9.24801L10.016 9.28001C10.048 8.96001 10.08 8.70401 10.112 8.41601C10.272 7.26401 10.624 6.11201 11.168 5.08801C11.712 4.03201 12.576 3.16801 13.664 2.65601C14.496 2.30401 15.424 2.11201 16.352 2.17601C19.456 2.24001 22.304 3.96801 23.808 6.68801C24.096 7.16801 24.32 7.74401 24.576 8.22401C24.576 8.25601 24.576 8.32001 24.576 8.35201Z" fill="#1971BD"/>
<path d="M24.992 18.08C24.896 18.016 24.832 17.888 24.896 17.792C24.896 17.76 24.928 17.76 24.928 17.728C25.376 16.928 25.6 16 25.536 15.072C25.504 14.4 25.44 13.76 25.376 13.12C25.312 12.32 25.344 11.52 25.472 10.72C25.568 10.08 25.6 9.43998 25.632 8.83198C25.632 8.54398 25.568 8.28798 25.44 8.03198C24.48 5.43998 22.592 3.32798 20.128 2.11198L20 2.01598C20.416 1.95198 20.736 1.88798 21.12 1.85598C22.304 1.69598 23.488 1.75998 24.608 2.04798C26.208 2.43198 27.616 3.32798 28.608 4.63998C28.832 4.99198 28.992 5.37598 28.992 5.79198C29.056 6.87998 28.992 7.96798 28.736 9.02398C28.032 12.192 26.816 15.2 25.056 17.952L24.992 18.08Z" fill="#1971BD"/>
<path d="M10.048 11.968C10.016 11.488 10.016 11.008 9.984 10.528C9.984 10.432 10.016 10.336 10.08 10.304C10.848 9.79198 11.712 9.47198 12.64 9.37598C12.864 9.37598 13.12 9.37598 13.344 9.43998C13.856 9.56798 14.24 9.98398 14.336 10.528C14.592 11.616 14.72 12.736 14.688 13.856C14.656 14.624 14.464 15.392 14.144 16.128C13.76 16.928 13.472 17.728 13.216 18.56C13.184 18.656 13.12 18.656 13.056 18.656C12.288 18.624 11.552 18.304 11.008 17.76C10.144 16.928 9.76 15.744 9.92 14.56C10.016 13.728 10.048 12.864 10.112 12.032L10.048 11.968ZM12.96 9.82398C12.8 9.85598 12.64 9.88798 12.448 9.95198C12.288 9.98398 12.224 10.144 12.256 10.304C12.256 10.304 12.256 10.336 12.288 10.336C12.448 10.784 12.96 11.04 13.44 10.88C13.568 10.848 13.696 10.752 13.792 10.656C14.016 10.432 13.984 10.176 13.696 10.048C13.44 9.98398 13.216 9.88798 12.96 9.82398Z" fill="#1971BD"/>
<path d="M24.736 9.31199C24.672 9.72799 24.64 10.144 24.576 10.56C24.384 11.584 24.384 12.64 24.544 13.696C24.704 14.496 24.704 15.296 24.576 16.096C24.512 16.416 24.416 16.736 24.288 17.12C24.224 17.056 24.224 17.024 24.224 17.024C23.744 16.096 23.232 15.168 22.752 14.208C22.304 13.376 21.984 12.512 21.792 11.584C21.696 11.232 21.696 10.848 21.728 10.464C21.824 9.85599 22.304 9.40799 22.912 9.34399C23.488 9.24799 24.064 9.21599 24.64 9.31199C24.672 9.27999 24.704 9.31199 24.736 9.31199ZM23.072 10.56C23.392 10.528 23.68 10.368 23.808 10.08C23.904 9.88799 23.872 9.75999 23.68 9.69599C23.296 9.56799 22.848 9.63199 22.496 9.85599C22.368 9.91999 22.336 10.048 22.368 10.176C22.368 10.208 22.4 10.24 22.432 10.272C22.592 10.464 22.848 10.56 23.072 10.56Z" fill="#1971BD"/>
<path d="M28.864 19.9041C28.8 19.9361 28.736 20.0321 28.64 20.0961C27.904 20.6401 27.008 20.9921 26.08 21.0881C25.536 21.1841 24.96 21.1841 24.416 21.0881C24 21.0241 24 20.9921 24 20.5761C23.968 20.0961 24.352 19.6801 24.864 19.6481H24.896C24.928 19.6481 24.96 19.6481 24.992 19.6481C25.568 20.0001 26.24 20.1601 26.912 20.0961C27.552 20.0321 28.192 19.9681 28.864 19.9041Z" fill="#1971BD"/>
<path d="M12.704 22.336C13.536 22.208 14.304 21.792 14.848 21.12C14.848 21.12 14.848 21.12 14.88 21.088C15.168 20.768 15.168 20.256 14.848 19.968C14.56 19.648 14.24 19.584 13.92 19.968C13.696 20.224 13.504 20.48 13.28 20.736C13.12 20.96 12.896 21.152 12.64 21.28C12.672 21.632 12.672 21.984 12.704 22.336Z" fill="#1971BD"/>
<path d="M2.496 12.1921C2.88 13.9841 3.36 15.7121 4 17.4081C5.504 16.2241 7.52 15.9681 9.248 16.6721C8.992 16.0001 8.896 15.2641 8.992 14.5281C9.12 13.5681 9.152 12.6081 9.12 11.6161C9.024 10.4321 9.056 9.21607 9.248 8.03207C9.44 6.78407 9.824 5.60007 10.432 4.51207C10.752 3.93607 11.136 3.42407 11.584 2.97607L11.488 2.91207C10.56 2.62407 9.6 2.40007 8.608 2.27207C7.648 2.14407 6.688 2.14407 5.76 2.33607C4.096 2.59207 2.752 3.77607 2.272 5.37607C1.888 6.62407 1.76 7.93607 1.952 9.24807C2.112 10.2401 2.304 11.2321 2.496 12.1921Z" fill="#1971BD"/>
<path d="M15.04 22.208L14.816 22.336C14.208 22.816 13.44 23.136 12.672 23.2C12.64 23.584 12.608 23.936 12.544 24.32C13.12 24.288 13.664 24.16 14.208 23.968C14.208 24 14.208 24.032 14.208 24.064C14.24 24.864 14.272 25.664 14.304 26.464C14.304 26.592 14.304 26.72 14.336 26.816C14.464 26.912 14.56 27.008 14.688 27.104C14.88 27.296 15.072 27.488 15.232 27.68C15.2 27.52 15.2 27.392 15.168 27.232C15.04 25.632 14.976 24.032 15.008 22.432V22.208H15.04Z" fill="#1971BD"/>
<path d="M29.792 18.048C29.344 17.952 28.864 17.952 28.416 18.08C28 18.144 27.584 18.208 27.136 18.272L27.264 18.048C28.8 15.392 29.92 12.48 30.56 9.472C30.848 8.224 30.944 6.912 30.848 5.632C30.784 4.864 30.528 4.16 30.08 3.552C28.608 1.664 26.464 0.448 24.096 0.128C22.304 -0.128 20.448 0 18.688 0.512C18.592 0.544 18.528 0.544 18.432 0.544C17.728 0.48 17.056 0.384 16.352 0.384C14.976 0.32 13.568 0.64 12.352 1.28C12.288 1.28 12.224 1.28 12.16 1.248C11.424 1.056 10.688 0.832 9.952 0.672C8.48 0.32 6.976 0.288 5.472 0.544C3.072 0.928 1.088 2.656 0.448 5.024C-0.0639993 6.752 -0.127999 8.544 0.192001 10.304C0.544001 12.48 1.056 14.592 1.728 16.704C1.984 17.536 2.272 18.368 2.592 19.168C2.784 18.784 3.008 18.464 3.264 18.176C2.464 16 1.824 13.76 1.376 11.488C1.216 10.72 1.088 9.952 0.992 9.184C0.8 7.712 0.992 6.24 1.472 4.864C2.08 3.168 3.52 1.92 5.312 1.568C6.496 1.28 7.68 1.248 8.832 1.408C10.016 1.568 11.2 1.856 12.32 2.24C12.384 2.272 12.48 2.24 12.544 2.208C13.696 1.472 15.072 1.152 16.448 1.216C17.12 1.248 17.792 1.312 18.432 1.472C18.496 1.472 18.592 1.472 18.656 1.44C20.864 0.704 23.296 0.672 25.536 1.344C27.04 1.824 28.384 2.752 29.376 4.032C29.728 4.512 29.92 5.088 29.952 5.664C30.048 6.816 29.952 8 29.664 9.152C28.864 12.544 27.552 15.68 25.728 18.56L25.536 18.88L25.504 18.944C25.664 19.008 25.856 19.072 26.016 19.136C26.624 19.232 27.264 19.232 27.872 19.136C28.256 19.072 28.64 19.008 29.056 18.944C29.216 18.912 29.376 18.944 29.504 18.976C29.568 18.976 29.632 19.008 29.696 19.04C30.016 19.168 30.144 19.552 29.984 19.84C29.888 20.096 29.728 20.32 29.536 20.512C28.736 21.28 27.712 21.76 26.624 21.92C25.92 22.048 25.248 22.08 24.544 22.016C24.352 21.984 24.128 21.952 23.936 21.92C23.872 22.4 23.84 22.912 23.776 23.392C23.584 24.832 23.36 26.304 23.136 27.744C23.072 28.096 22.944 28.448 22.784 28.8C22.496 29.504 21.952 30.08 21.28 30.4C20.48 30.816 19.584 31.04 18.688 31.072C18.08 31.104 17.504 30.976 16.992 30.688C17.056 30.848 17.088 30.976 17.152 31.136L17.344 31.648C17.344 31.712 17.312 31.776 17.28 31.84C17.344 31.872 17.408 31.872 17.472 31.904C17.664 31.968 17.888 32 18.08 32.032H18.848C18.88 32.032 18.88 32 18.912 32C19.424 31.904 19.936 31.808 20.416 31.68C21.44 31.424 22.368 30.848 23.04 29.984C23.648 29.152 24.064 28.192 24.256 27.2C24.512 26.016 24.64 24.8 24.64 23.584C24.64 23.424 24.672 23.264 24.672 23.072H24.768C25.28 23.04 25.824 23.04 26.336 23.008C27.648 22.88 28.896 22.4 29.92 21.6C30.336 21.312 30.656 20.928 30.912 20.48C30.976 20.352 31.04 20.224 31.072 20.064C31.232 19.136 30.688 18.272 29.792 18.048Z" fill="#1971BD"/>
<path d="M12.032 19.36C12.16 19.648 12.288 19.968 12.384 20.288C12.448 20.256 12.48 20.192 12.512 20.128L13.024 19.52L12.512 19.456C12.352 19.456 12.192 19.424 12.032 19.36Z" fill="#1971BD"/>
<path d="M7.264 28.032C9.152 28.032 10.624 25.344 10.624 22.848C10.624 17.664 3.872 17.664 3.872 22.848C3.872 25.376 5.376 28.032 7.264 28.032Z" fill="#1971BD"/>
<path d="M14.4 31.392C14.048 30.4 13.44 29.568 12.64 28.928C11.84 28.288 10.848 27.904 9.824 27.808C9.504 28.16 9.12 28.48 8.672 28.672C8.224 28.896 7.744 28.992 7.264 29.024C6.784 29.024 6.304 28.896 5.856 28.672C5.408 28.448 5.024 28.16 4.704 27.808C3.68 27.904 2.688 28.288 1.888 28.928C1.088 29.568 0.448002 30.432 0.128001 31.392L0.0320015 31.712C0.0320015 31.808 0.0960015 31.872 0.192001 31.872H14.4C14.496 31.872 14.56 31.808 14.56 31.712L14.4 31.392Z" fill="#1971BD"/>
</g>
<defs>
<clipPath id="clip0">
<rect width="31.072" height="32" fill="white"/>
</clipPath>
</defs>
</svg>
