<svg width="32" height="32" viewBox="0 0 32 32" fill="none" xmlns="http://www.w3.org/2000/svg">
<path d="M15.4265 18.4527C15.4265 18.3243 15.4265 18.1959 15.4265 18.0676C15.4265 16.2703 15.94 14.9224 16.7744 13.9275C16.5818 13.9596 16.3893 13.9917 16.2288 14.0238C15.94 14.088 15.6832 14.2805 15.4265 14.3447C15.3944 14.3447 15.3302 14.3447 15.2981 14.3126C15.0414 14.088 15.4265 13.6387 15.5549 13.4782C15.8116 13.2535 16.1004 13.061 16.4214 12.9647C16.9349 12.7721 17.4484 12.6759 17.994 12.6759C18.0902 12.6759 18.1865 12.6759 18.2507 12.6759C18.347 12.6117 18.4433 12.5796 18.5395 12.5475C17.1916 12.3549 15.7474 12.7721 14.7204 13.6387C14.3032 13.9917 13.9502 14.441 13.7897 14.9545C13.5651 15.6285 13.6292 16.3987 13.9823 17.0406C14.2711 17.6183 14.8167 18.1638 15.4265 18.4527Z" fill="#1971BD"/>
<path d="M13.3725 18.9661C14.0143 19.4475 14.7846 19.7684 15.5869 19.8326C15.5548 19.6401 15.5227 19.4154 15.4907 19.2228C15.0734 19.287 14.6241 19.2228 14.239 19.0624C13.6934 18.8377 13.2441 18.4847 12.859 18.0675C12.538 17.7465 12.2492 17.3614 12.0887 16.9442C11.7678 16.1419 11.832 15.2753 11.8962 14.4088C11.8641 14.8902 11.7357 15.3395 11.7678 15.853C11.7999 16.2702 11.8641 16.6554 11.9925 17.0405C12.2492 17.8107 12.7306 18.4847 13.3725 18.9661Z" fill="#1971BD"/>
<path opacity="0.3" d="M16.7744 23.2347C16.8065 23.2668 16.8386 23.2989 16.8707 23.331C15.9721 21.8547 15.4265 19.929 15.4265 18.0676C15.4265 10.1405 25.7927 10.1405 25.7927 18.0676C25.7927 19.929 25.2471 21.8547 24.3806 23.331C24.4126 23.2989 24.4447 23.2668 24.4768 23.2347C24.5089 23.2347 24.5089 23.2347 24.541 23.2347C25.9531 21.0844 26.5308 18.3886 25.6643 15.9494C25.6322 15.8211 25.568 15.6927 25.5038 15.5643C24.9261 14.2164 23.9312 13.0289 22.7117 12.2266C21.3959 11.328 19.727 10.7824 18.1544 10.7503C17.32 10.7182 16.5176 10.8466 15.7153 11.0391C15.2981 11.1354 14.913 11.2638 14.5278 11.4243C14.1427 11.5526 13.7576 11.8415 13.3725 11.9378C13.2762 11.9699 13.1799 11.9378 13.1157 11.8736C12.859 11.6489 12.9874 11.0712 13.1157 10.7824C13.3083 10.3973 13.5971 10.0442 13.9502 9.78749C16.1967 7.99026 19.3098 7.92607 22.0056 8.47166C22.2303 8.53585 22.487 8.56794 22.7117 8.63213L22.7438 8.53585C22.6475 8.47166 22.5191 8.40747 22.4229 8.37538C20.2726 7.7656 18.0581 7.57304 15.8758 8.18282C13.3404 8.88888 10.6766 10.654 9.77801 13.2536C9.26451 14.762 9.45707 16.495 10.1631 17.9072C11.0617 19.6723 12.8911 21.2449 14.8488 21.6621C15.0734 21.7263 15.2981 21.7584 15.5227 21.8226C15.5869 21.8547 15.619 21.8868 15.6511 21.9509C15.6511 21.983 15.5869 22.0472 15.5548 22.0793C13.9502 23.1063 12.0887 23.1063 10.452 22.3682C9.00777 21.7263 7.82031 20.5709 6.82541 19.3193C6.21563 18.549 5.76632 17.7467 5.50957 16.7839C5.25282 15.2113 5.18864 13.6066 5.3812 12.0019C5.18864 13.0931 4.96398 14.1522 5.06026 15.2755C5.22073 16.9123 5.76632 18.549 6.66494 19.929C7.17844 20.7635 7.8524 21.5016 8.59055 22.1114C10.0027 23.2989 11.7678 24.0049 13.5971 24.1975C14.5599 23.684 15.6511 23.331 16.7744 23.2347Z" fill="#1971BD"/>
<path d="M9.2966 30.2953L9.87428 28.6264C9.87428 28.5943 9.90637 28.5622 9.90637 28.498C9.74591 28.4018 9.55335 28.3055 9.39288 28.2092C9.07194 28.0166 8.7831 27.8241 8.46217 27.6315C7.37099 26.8613 6.40818 25.9627 5.60584 24.9036C5.38119 24.6147 5.15654 24.3259 4.86769 24.1333C4.64304 23.9729 4.45048 23.8124 4.22582 23.7161C4.12954 23.6519 4.06536 23.5556 4.06536 23.4273C4.06536 23.2989 4.06536 23.1384 4.06536 22.978C4.06536 22.8175 4.06536 22.657 4.06536 22.4966C4.06536 22.2719 3.93698 22.0793 3.8728 21.8868C3.39139 20.7635 3.07046 19.576 2.90999 18.3886C2.8458 17.9072 2.81371 17.4258 2.78162 16.9444C2.78162 16.4951 2.8779 16.0137 2.78162 15.5644C2.74952 15.4039 2.68534 15.2113 2.65324 15.0509C2.62115 14.8904 2.55696 14.7299 2.49277 14.5695C2.39649 14.409 2.42859 14.2806 2.55696 14.1202C2.71743 13.8955 2.90999 13.6708 3.07046 13.4462C3.10255 13.382 3.16674 13.3178 3.16674 13.2536C3.29511 12.8043 3.42349 12.355 3.58395 11.9378C3.90489 11.0713 4.29001 10.2368 4.80351 9.4666C5.317 8.66426 5.92678 7.99029 6.50446 7.25214C6.76121 6.93121 6.76121 6.51399 6.98587 6.19306C7.05005 6.09678 7.14633 6.03259 7.27471 6.03259C7.40308 6.03259 7.56355 5.9684 7.69192 5.9684C7.8203 5.93631 7.98076 5.93631 8.10914 5.87212C9.16822 5.10188 10.2273 4.4921 11.3827 4.07489C12.0245 3.81814 12.6985 3.62558 13.3725 3.4972C13.7255 3.43302 14.0464 3.36883 14.3995 3.33674C14.6883 3.30464 14.9771 3.33674 15.266 3.24046C15.5869 3.11208 15.8437 2.91952 16.1646 2.79115C16.293 2.82324 16.3893 2.88743 16.4855 2.91952C16.6139 2.98371 16.7423 3.04789 16.9028 3.14418C16.9349 3.11208 17.0311 3.17627 17.1274 3.20836C17.2237 3.24046 17.2879 3.24046 17.3842 3.24046C18.6679 3.27255 19.9837 3.68976 21.1712 4.20326C22.1982 4.62048 23.0968 5.23025 24.0275 5.80794C24.0917 5.84003 24.1238 5.87212 24.1559 5.87212C24.3164 5.90422 24.4768 5.93631 24.6373 5.9684C24.7978 6.0005 24.9582 6.03259 25.1187 6.09678C25.1508 6.09678 25.215 6.16096 25.215 6.19306C25.3754 6.54609 25.4717 6.9954 25.6964 7.31633C26.0494 7.82983 26.4987 8.24704 26.8517 8.72845C27.3973 9.4666 27.8466 10.2689 28.1997 11.1034C28.3922 11.5206 28.5527 11.9378 28.6811 12.3871C28.8095 12.7722 28.8415 13.2215 29.1304 13.5104C29.3229 13.7029 29.4834 13.9918 29.6439 14.2485C29.676 14.3127 29.676 14.3769 29.676 14.4411L29.6439 14.5374C29.5476 14.8583 29.3871 15.1792 29.355 15.5002C29.355 15.7248 29.355 15.9174 29.355 16.142C29.3871 18.0677 29.0341 20.0575 28.296 21.8226C28.2318 22.0152 28.0392 22.2398 28.0392 22.4645V22.6891C28.0071 23.0101 28.1034 23.4273 27.8466 23.684C27.7183 23.8124 27.4936 23.9729 27.3011 24.0691C27.7825 24.2938 28.2318 24.5826 28.649 24.9036C28.8415 25.064 29.0341 25.2245 29.1946 25.385C29.3871 25.2245 29.6118 25.064 29.8364 24.9678C30.029 24.8715 30.1253 24.6789 30.1253 24.4864C30.1253 24.2617 30.1253 24.037 30.1253 23.7803V23.4594C30.1253 23.3631 30.1574 23.2989 30.1895 23.2026C30.4462 22.5607 30.7351 21.951 30.9276 21.277C31.2165 20.3463 31.409 19.3835 31.5374 18.4207C31.6658 17.4579 31.6337 16.5272 31.6337 15.5644C31.6016 15.3718 31.6016 15.1471 31.6658 14.9546C31.7941 14.6978 31.8583 14.409 31.9546 14.1202L31.9867 14.0239C32.0188 13.9597 31.9867 13.8634 31.9546 13.7992C31.7941 13.5425 31.6016 13.2857 31.4411 13.0611C31.3448 12.9327 31.2165 12.8043 31.1844 12.6118C30.9918 11.7452 30.6709 10.9108 30.3178 10.1406C29.9327 9.30613 29.5155 8.50379 29.002 7.76564C28.7453 7.38052 28.4885 7.02749 28.1997 6.67446C28.0713 6.4819 27.9108 6.32143 27.7825 6.16096C27.6541 6.0005 27.4294 5.87212 27.3652 5.67956C27.3331 5.58328 27.2369 5.39072 27.2369 5.39072L27.0122 4.84513C26.948 4.68466 26.8838 4.5242 26.8197 4.39582C26.7876 4.33163 26.7555 4.29954 26.6913 4.29954H26.595C26.4666 4.29954 26.2741 4.23535 26.1457 4.20326C25.921 4.17117 25.7285 4.13907 25.5038 4.07489C25.4396 4.04279 25.3754 4.04279 25.3434 3.97861L25.1829 3.88233C24.4126 3.30464 23.6103 2.82324 22.7438 2.40602C21.9093 2.0209 21.0428 1.66787 20.1763 1.44322C19.727 1.31485 19.2777 1.21856 18.8284 1.12228C18.4432 1.0581 17.9618 0.929723 17.5446 0.961816C17.4483 0.961816 17.3521 0.961816 17.2558 0.897629C16.9349 0.769255 16.6139 0.576694 16.3251 0.416227C16.293 0.416227 16.2288 0.319946 16.1325 0.319946C16.1004 0.319946 16.0041 0.35204 16.0041 0.35204C15.7153 0.512507 15.4586 0.640881 15.1697 0.801349C15.0413 0.801349 14.8809 0.929723 14.7525 0.929723C14.6241 0.961816 14.4637 0.961816 14.3353 0.961816C14.0143 0.99391 13.6934 1.026 13.3404 1.09019C11.4148 1.41113 9.55335 2.14928 7.88448 3.17627C7.65983 3.30464 7.46727 3.43302 7.27471 3.59348L7.17843 3.65767C7.05005 3.75395 6.92168 3.85023 6.7933 3.94651C6.76121 3.97861 6.72912 3.97861 6.69702 3.97861C6.44028 4.04279 6.15143 4.10698 5.86259 4.13907C5.70213 4.17117 5.47747 4.17117 5.38119 4.36373C5.18863 4.78094 5.12444 5.26235 4.80351 5.61538C4.29001 6.22515 3.77652 6.80283 3.29511 7.44471C2.23603 8.9531 1.49788 10.5899 0.98438 12.3229C0.952286 12.4513 0.920193 12.5797 0.856006 12.6759C0.823912 12.7722 0.791819 12.8364 0.727632 12.9006C0.567164 13.1573 0.34251 13.4462 0.117855 13.7029C-0.170986 14.0239 0.149949 14.4732 0.246229 14.8262C0.34251 15.0188 0.374603 15.2113 0.406697 15.4039C0.406697 15.5002 0.406697 15.5965 0.406697 15.6927C0.406697 16.3346 0.374603 16.9765 0.43879 17.6183C0.567164 19.544 1.04857 21.4054 1.81881 23.2026C1.883 23.3631 1.91509 23.4915 1.91509 23.6198C1.91509 24.005 1.94718 24.358 1.94718 24.6789C1.94718 24.8073 2.01137 24.9357 2.10765 24.9999C2.20393 24.9999 2.42859 25.2245 2.52487 25.2887C2.68534 25.385 2.81371 25.4813 2.97418 25.5775L3.03836 25.6096C3.13464 25.6738 3.19883 25.738 3.26302 25.8022C3.77652 26.3799 4.19373 27.0217 4.73932 27.5673C5.3491 28.2092 6.02306 28.819 6.72912 29.3325C7.43517 29.846 8.17333 30.2632 8.94357 30.7125L9.00776 30.7446C9.07194 30.7767 9.13613 30.8088 9.20032 30.8409C9.23241 30.6483 9.23241 30.4878 9.2966 30.2953Z" fill="#1971BD"/>
<path d="M29.0662 28.4981C28.649 27.3427 27.9429 26.3157 26.9801 25.5775C26.0173 24.8394 24.8619 24.358 23.6424 24.2617C23.2573 24.711 22.808 25.032 22.2945 25.2887C21.781 25.5134 21.2033 25.6738 20.6577 25.6738C20.08 25.6417 19.5344 25.5134 19.0209 25.2566C18.5074 24.9999 18.0581 24.6468 17.673 24.2296C16.4535 24.3259 15.2981 24.8073 14.3353 25.5454C13.3725 26.2836 12.6664 27.3106 12.2492 28.466L11.7999 29.7818C11.7357 29.9744 11.7036 30.1669 11.7357 30.3595C11.7678 30.552 11.832 30.7446 11.9604 30.9051C12.0887 31.0655 12.2171 31.1939 12.4097 31.2902C12.5701 31.3865 12.7627 31.4186 12.9874 31.4507H28.3601C28.5527 31.4507 28.7453 31.3865 28.9378 31.3223C29.0983 31.226 29.2588 31.0976 29.3871 30.9372C29.5155 30.7767 29.6118 30.5841 29.6439 30.3916C29.676 30.199 29.676 29.9744 29.6118 29.7818L29.0662 28.4981Z" fill="#1971BD"/>
<path d="M16.646 18.3886C16.646 21.3412 18.4432 24.5185 20.6577 24.5185C22.8721 24.5185 24.6373 21.3412 24.6373 18.3886C24.6052 12.2909 16.646 12.2909 16.646 18.3886Z" fill="#1971BD"/>
</svg>
