<svg width="32" height="32" viewBox="0 0 32 32" fill="none" xmlns="http://www.w3.org/2000/svg">
<path d="M17.2744 6.85716C17.2744 6.08001 16.4516 6.21716 15.6973 6.21716C16.2475 6.36416 16.7773 6.57915 17.2744 6.85716Z" fill="#1971BD"/>
<path d="M9.13718 4.98289C8.48458 4.98717 7.84937 5.19375 7.3191 5.57418C6.78884 5.95461 6.38963 6.49015 6.17649 7.10698C5.96336 7.72381 5.9468 8.39156 6.1291 9.0182C6.31139 9.64484 6.68357 10.1995 7.19432 10.6058C7.55942 9.57742 8.16466 8.65107 8.95975 7.90369C9.75485 7.1563 10.7168 6.60946 11.7658 6.30861C11.4684 5.89054 11.0737 5.5513 10.6156 5.32028C10.1576 5.08927 9.6501 4.97346 9.13718 4.98289Z" fill="#1971BD"/>
<path d="M3.03429 10.0114C3.14891 10.3991 3.30206 10.7743 3.49143 11.1314L2.53143 12.0914C2.46642 12.1533 2.41467 12.2278 2.37931 12.3103C2.34395 12.3928 2.32571 12.4817 2.32571 12.5714C2.32571 12.6612 2.34395 12.75 2.37931 12.8325C2.41467 12.9151 2.46642 12.9895 2.53143 13.0514L4.24571 14.7657C4.3702 14.8812 4.53309 14.9463 4.70286 14.9486C4.88051 14.9521 5.05259 14.8866 5.18286 14.7657L6.16571 13.7143C6.30775 13.7985 6.46195 13.8601 6.62286 13.8971C6.60686 13.1275 6.69138 12.3591 6.87429 11.6114C6.10182 11.119 5.51015 10.3891 5.18828 9.53143C4.86642 8.67378 4.83177 7.7348 5.08956 6.85576C5.34734 5.97672 5.88361 5.20516 6.61769 4.65717C7.35176 4.10917 8.24394 3.81438 9.16 3.81714C9.92196 3.83331 10.6656 4.05401 11.313 4.45612C11.9604 4.85824 12.4878 5.427 12.84 6.10286C13.5976 5.98781 14.3682 5.98781 15.1257 6.10286C15.0141 5.77989 14.8765 5.46648 14.7143 5.16571L15.6971 4.18286C15.818 4.05259 15.8835 3.88051 15.88 3.70286C15.8777 3.53309 15.8126 3.3702 15.6971 3.24571L14.0514 1.53143C13.9895 1.46642 13.9151 1.41467 13.8325 1.37931C13.75 1.34395 13.6612 1.32571 13.5714 1.32571C13.4851 1.32611 13.3998 1.34463 13.321 1.38006C13.2423 1.4155 13.1719 1.46707 13.1143 1.53143L12.1314 2.49143C11.7743 2.30206 11.3991 2.14891 11.0114 2.03429V0.662857C11.0114 0.487056 10.9416 0.318456 10.8173 0.194146C10.693 0.0698365 10.5244 0 10.3486 0L7.85714 0C7.68134 0 7.51274 0.0698365 7.38843 0.194146C7.26412 0.318456 7.19429 0.487056 7.19429 0.662857V2.03429C6.81395 2.14888 6.44632 2.30206 6.09714 2.49143L5.18286 1.53143C5.12095 1.46642 5.04648 1.41467 4.96397 1.37931C4.88146 1.34395 4.79263 1.32571 4.70286 1.32571C4.61651 1.32611 4.5312 1.34463 4.45246 1.38006C4.37371 1.4155 4.30328 1.46707 4.24571 1.53143L2.53143 3.24571C2.46707 3.30328 2.4155 3.37371 2.38006 3.45246C2.34463 3.5312 2.32611 3.61651 2.32571 3.70286C2.32283 3.79304 2.33976 3.88276 2.3753 3.96569C2.41084 4.04862 2.46414 4.12275 2.53143 4.18286L3.49143 5.16571C3.30206 5.5149 3.14888 5.88252 3.03429 6.26286H1.66286C1.49832 6.26197 1.33933 6.32232 1.21681 6.43216C1.0943 6.542 1.01702 6.69348 1 6.85714L1 9.34857C1 9.52437 1.06984 9.69297 1.19415 9.81728C1.31846 9.94159 1.48706 10.0114 1.66286 10.0114H3.03429Z" fill="#1971BD"/>
<path d="M23.9943 22.9715C24.3845 22.7448 24.7262 22.4436 25 22.0849C25.2738 21.7262 25.4743 21.3171 25.5899 20.8809C25.7056 20.4447 25.7342 19.99 25.6742 19.5428C25.6142 19.0956 25.4666 18.6645 25.24 18.2743C25.0134 17.8841 24.7121 17.5424 24.3534 17.2686C23.9947 16.9948 23.5856 16.7943 23.1494 16.6787C22.7132 16.563 22.2586 16.5344 21.8113 16.5944C21.3641 16.6544 20.9331 16.802 20.5428 17.0286C20.2396 18.2812 19.738 19.4772 19.0571 20.5715C20.8888 20.9127 22.5945 21.7418 23.9943 22.9715Z" fill="#1971BD"/>
<path d="M31.1485 18.6515C31.1485 18.4575 31.0714 18.2714 30.9343 18.1343C30.7971 17.9971 30.6111 17.92 30.4171 17.92H28.9314C28.7977 17.5103 28.6295 17.1127 28.4285 16.7315L29.4571 15.68C29.5295 15.6178 29.5877 15.5407 29.6276 15.4539C29.6674 15.3671 29.6881 15.2727 29.6881 15.1772C29.6881 15.0817 29.6674 14.9873 29.6276 14.9005C29.5877 14.8137 29.5295 14.7366 29.4571 14.6743L27.6285 12.8229C27.5589 12.7555 27.4765 12.7026 27.3863 12.6673C27.296 12.632 27.1997 12.6149 27.1028 12.6172C27.0096 12.6167 26.9171 12.6346 26.8309 12.6699C26.7446 12.7052 26.6661 12.7572 26.5999 12.8229L25.5485 13.8743C25.169 13.6697 24.771 13.5014 24.3599 13.3715V11.8858C24.36 11.7908 24.3409 11.6967 24.3039 11.6092C24.2669 11.5217 24.2126 11.4426 24.1444 11.3765C24.0761 11.3104 23.9953 11.2587 23.9067 11.2244C23.8181 11.1902 23.7235 11.1741 23.6285 11.1772H21.0456C20.8809 11.1848 20.722 11.2404 20.5885 11.3372C20.8234 12.1856 20.9388 13.0626 20.9314 13.9429C20.9312 14.5398 20.8853 15.1358 20.7942 15.7258C21.2911 15.5371 21.8171 15.4366 22.3485 15.4286C23.5609 15.4286 24.7237 15.9102 25.581 16.7676C26.4383 17.6249 26.9199 18.7876 26.9199 20C26.9135 20.7551 26.7202 21.4968 26.3573 22.1589C25.9943 22.821 25.473 23.3828 24.8399 23.7943C25.7646 24.8186 26.4791 26.0146 26.9428 27.3143H27.1714C27.3698 27.3103 27.5587 27.2282 27.6971 27.0858L29.5485 25.2572C29.6769 25.1117 29.7498 24.9255 29.7542 24.7315C29.7446 24.5454 29.672 24.3681 29.5485 24.2286L28.4285 23.1772C28.6216 22.7952 28.7822 22.3976 28.9085 21.9886H30.3942C30.5927 21.9846 30.7816 21.9025 30.9199 21.76C31.0505 21.6251 31.1242 21.445 31.1256 21.2572L31.1485 18.6515Z" fill="#1971BD"/>
<path d="M25.4343 27.9086C24.8826 26.3118 23.8817 24.9081 22.5518 23.8661C21.222 22.8241 19.6196 22.188 17.9372 22.0343C17.419 22.6355 16.7818 23.1226 16.0657 23.4649C15.3497 23.8072 14.5704 23.9972 13.7772 24.0229C12.9839 23.9972 12.2047 23.8072 11.4886 23.4649C10.7726 23.1226 10.1353 22.6355 9.61717 22.0343C7.93294 22.1825 6.32796 22.8164 4.99711 23.8592C3.66625 24.902 2.66677 26.3087 2.12002 27.9086L1.50288 29.7143C1.41434 29.9728 1.38888 30.2488 1.42864 30.5192C1.4684 30.7895 1.57223 31.0465 1.73145 31.2686C1.89111 31.4904 2.10023 31.672 2.34224 31.7989C2.58425 31.9259 2.8525 31.9947 3.12574 32H24.4286C24.6999 31.9974 24.9669 31.932 25.2088 31.8091C25.4506 31.6862 25.6608 31.509 25.8229 31.2914C26.0012 31.0748 26.1237 30.8177 26.1794 30.5428C26.2352 30.2678 26.2227 29.9833 26.1429 29.7143L25.4343 27.9086Z" fill="#1971BD"/>
<path d="M8.2229 13.9429C8.2229 18.0344 10.7143 22.4229 13.7772 22.4229C16.84 22.4229 19.2858 18.0344 19.2858 13.9429C19.2858 5.48578 8.2229 5.46292 8.2229 13.9429Z" fill="#1971BD"/>
</svg>
