<svg width="32" height="32" viewBox="0 0 32 32" fill="none" xmlns="http://www.w3.org/2000/svg">
<g clip-path="url(#clip0)">
<path fill-rule="evenodd" clip-rule="evenodd" d="M17.4485 0.33731C16.5331 -0.112436 15.4669 -0.112437 14.5515 0.337309L4.39777 5.32606C3.4824 5.77581 2.81757 6.62635 2.59149 7.63692L0.0837336 18.8466C-0.142346 19.8571 0.0949272 20.9177 0.728387 21.7281L7.75497 30.7176C8.38843 31.528 9.34913 32 10.3651 32H21.6349C22.6509 32 23.6116 31.528 24.245 30.7176L31.2716 21.7281C31.9051 20.9177 32.1423 19.8571 31.9163 18.8466L29.4085 7.63692C29.1824 6.62635 28.5176 5.77581 27.6022 5.32607L17.4485 0.33731ZM15.7575 5.06417C15.836 5.02613 15.9211 5.00432 16.0079 5C16.1773 5.01514 16.3344 5.09657 16.4467 5.22732C16.5589 5.35808 16.6175 5.52812 16.6104 5.70203V5.88352C16.5936 6.08743 16.5653 6.29021 16.5257 6.49079C16.4655 6.87361 16.4419 7.26153 16.4551 7.64904C16.4792 7.77944 16.5524 7.89484 16.6591 7.9703C16.6596 7.9851 16.6613 8.01173 16.6634 8.04384C16.6675 8.1093 16.6732 8.19752 16.6732 8.25464C18.6453 8.43759 20.4854 9.34754 21.8513 10.8153L22.0883 10.6418C22.2157 10.6642 22.3466 10.6498 22.4664 10.6C22.7708 10.3689 23.0525 10.108 23.3075 9.82093C23.436 9.66411 23.5733 9.51498 23.7186 9.37432C23.7563 9.34219 23.8143 9.29564 23.8567 9.2619C23.9199 9.20201 23.9944 9.15602 24.0757 9.12689C24.157 9.09776 24.2432 9.08611 24.3291 9.09257C24.415 9.09904 24.4987 9.1235 24.5749 9.16449C24.6512 9.20548 24.7183 9.26207 24.7723 9.33078C24.8263 9.3995 24.8658 9.47886 24.8885 9.56389C24.9112 9.64893 24.9166 9.73784 24.9043 9.8251C24.892 9.91236 24.8623 9.9961 24.8171 10.0711C24.7718 10.1461 24.712 10.2108 24.6413 10.2611C24.6288 10.2714 24.615 10.283 24.6007 10.2951C24.5682 10.3226 24.5331 10.3523 24.5047 10.3735C24.3381 10.487 24.1652 10.5905 23.9869 10.6836C23.6574 10.8744 23.3468 11.0977 23.0596 11.3503C22.9757 11.4504 22.9335 11.5801 22.9419 11.7117L22.7206 11.9157C23.8266 13.6029 24.2889 15.6472 24.0199 17.6604L24.2709 17.7359C24.3341 17.8518 24.4275 17.9475 24.5408 18.0122C24.9064 18.1118 25.2806 18.1748 25.658 18.2001C25.8581 18.2049 26.0577 18.2216 26.2559 18.2499C26.2914 18.2565 26.3379 18.2684 26.3808 18.2793C26.4005 18.2844 26.4195 18.2892 26.4363 18.2933C26.5248 18.3025 26.6103 18.3309 26.6872 18.3766C26.7641 18.4223 26.8307 18.4842 26.8825 18.5581C26.9343 18.6321 26.9702 18.7165 26.9877 18.8058C27.0053 18.895 27.0041 18.987 26.9843 19.0757C26.9644 19.1645 26.9264 19.2479 26.8727 19.3205C26.8191 19.393 26.7509 19.4531 26.6729 19.4967C26.5948 19.5402 26.5086 19.5664 26.4199 19.5732C26.3313 19.5801 26.2422 19.5677 26.1586 19.5367H26.1492H26.1366C26.1181 19.5322 26.0969 19.5278 26.0752 19.5233C26.0418 19.5163 26.0073 19.5091 25.9797 19.5013C25.789 19.4385 25.6019 19.3645 25.4195 19.2796C25.0681 19.1366 24.7039 19.029 24.3321 18.9583C24.2037 18.9541 24.0787 19.0013 23.9838 19.0901L23.717 19.0419C23.1141 20.9844 21.8347 22.6322 20.1221 23.6717C20.1513 23.7595 20.1859 23.8453 20.2257 23.9286C20.162 24.0426 20.1446 24.1776 20.1771 24.3046C20.3286 24.66 20.5135 24.9995 20.7294 25.3182C20.8503 25.4813 20.9619 25.6513 21.0636 25.8275C21.0812 25.8613 21.1027 25.9077 21.1221 25.9496C21.1303 25.9674 21.1382 25.9845 21.1452 25.9993C21.1923 26.0762 21.223 26.1625 21.2352 26.2524C21.2474 26.3423 21.2409 26.4338 21.216 26.521C21.1912 26.6081 21.1486 26.6889 21.091 26.7579C21.0335 26.827 20.9623 26.8827 20.8822 26.9216C20.802 26.9604 20.7148 26.9815 20.6261 26.9833C20.5375 26.9851 20.4495 26.9677 20.3679 26.9321C20.2863 26.8966 20.213 26.8438 20.1528 26.7772C20.0926 26.7105 20.0468 26.6316 20.0186 26.5455C19.9951 26.4989 19.9621 26.4315 19.9417 26.3849C19.8706 26.1937 19.8104 25.9985 19.7613 25.8002C19.6529 25.4291 19.5094 25.0697 19.3329 24.7271C19.257 24.6223 19.1446 24.5515 19.0191 24.5295L18.8857 24.2837C17.0311 25.0028 14.9828 24.9977 13.1317 24.2692L12.9904 24.5311C12.8899 24.5469 12.7964 24.5933 12.7221 24.6644C12.5093 25.0217 12.3466 25.4078 12.2388 25.8114C12.1897 26.0097 12.1295 26.2049 12.0584 26.3962C12.0464 26.4249 12.0279 26.4621 12.01 26.4983C11.9999 26.5187 11.99 26.5388 11.9815 26.5568C11.9538 26.6436 11.9084 26.7233 11.8483 26.7907C11.7882 26.8581 11.7147 26.9116 11.6329 26.9477C11.551 26.9837 11.4625 27.0016 11.3734 26.9999C11.2842 26.9982 11.1965 26.9771 11.1159 26.938C11.0353 26.8989 10.9639 26.8427 10.9062 26.7731C10.8485 26.7035 10.806 26.6221 10.7814 26.5344C10.7569 26.4466 10.7509 26.3545 10.7638 26.2642C10.7767 26.1739 10.8083 26.0875 10.8564 26.0106C10.8624 25.9976 10.8689 25.9832 10.8756 25.9682C10.8955 25.9241 10.9177 25.8747 10.9365 25.8387C11.0382 25.662 11.1498 25.4914 11.2707 25.3279C11.4908 25.0011 11.6799 24.6536 11.8356 24.2901C11.8524 24.1667 11.8333 24.041 11.7807 23.9286L11.8936 23.6508C10.1869 22.6197 8.90767 20.9849 8.29718 19.0547L8.02571 19.1029C7.92072 19.0261 7.79676 18.981 7.66795 18.9728C7.29616 19.0435 6.93198 19.1512 6.58054 19.2941C6.39811 19.3784 6.21107 19.4519 6.02036 19.5142C5.98668 19.5248 5.93697 19.5354 5.89151 19.5451C5.8819 19.5472 5.87249 19.5492 5.86345 19.5511H5.85089H5.84148C5.75789 19.5821 5.66881 19.5946 5.58015 19.5877C5.4915 19.5808 5.40528 19.5547 5.32722 19.5111C5.24916 19.4676 5.18104 19.4075 5.12736 19.3349C5.07367 19.2624 5.03566 19.1789 5.01584 19.0902C4.99602 19.0015 4.99484 18.9095 5.01238 18.8202C5.02992 18.731 5.06577 18.6466 5.11757 18.5726C5.16938 18.4986 5.23595 18.4367 5.31287 18.3911C5.38978 18.3454 5.47529 18.317 5.56374 18.3077H5.57316C5.58503 18.3048 5.59771 18.3016 5.61079 18.2983C5.65479 18.2872 5.70319 18.275 5.73948 18.2676C5.93767 18.2393 6.13728 18.2226 6.33733 18.2178C6.71482 18.1925 7.089 18.1295 7.45455 18.0298C7.56292 17.9593 7.65458 17.8649 7.72287 17.7535L7.98334 17.6764C7.69997 15.6617 8.15314 13.6109 9.25592 11.9173L9.05664 11.7342C9.04912 11.602 9.00564 11.4746 8.9311 11.3663C8.6439 11.1138 8.3333 10.8905 8.00374 10.6996C7.826 10.6065 7.65365 10.503 7.48751 10.3896C7.46143 10.3696 7.42933 10.3426 7.39851 10.3167C7.38482 10.3052 7.37138 10.294 7.35884 10.2836H7.34941C7.20689 10.1799 7.11035 10.0225 7.08094 9.84608C7.05153 9.66962 7.09164 9.48843 7.1925 9.34221C7.25231 9.26733 7.32852 9.20793 7.41495 9.16885C7.50137 9.12978 7.59558 9.1121 7.68992 9.11728C7.84783 9.122 8.00013 9.1783 8.12457 9.27793C8.13267 9.28438 8.14134 9.29124 8.15033 9.29835C8.18838 9.32845 8.23219 9.36311 8.26265 9.3904C8.408 9.53101 8.54527 9.68014 8.67377 9.83701C8.92877 10.1236 9.21045 10.3839 9.51482 10.6145C9.6288 10.6759 9.76173 10.6892 9.88514 10.6515C9.9044 10.6643 9.94778 10.6955 9.99455 10.7291C10.0354 10.7584 10.0789 10.7896 10.1111 10.8121C11.2083 9.61897 12.6292 8.78927 14.1908 8.42976C14.5619 8.34386 14.9383 8.28479 15.3175 8.25303L15.3316 7.98314C15.4283 7.89532 15.4985 7.7811 15.534 7.65385C15.5478 7.26639 15.5247 6.87846 15.465 6.49559C15.4254 6.29501 15.3971 6.09228 15.3802 5.88837V5.72772V5.71007C15.3758 5.62123 15.3885 5.53232 15.4177 5.44852C15.4468 5.36473 15.4919 5.28764 15.5502 5.22169C15.6085 5.15573 15.6789 5.10221 15.7575 5.06417ZM15.2233 9.95155C15.0025 9.97533 14.7831 10.0106 14.5659 10.0571C13.3975 10.3257 12.3257 10.9233 11.4715 11.7824L14.1532 13.7294C14.2335 13.7894 14.3282 13.826 14.4272 13.8352C14.5262 13.8444 14.6258 13.8259 14.7154 13.7817C14.8049 13.7375 14.8811 13.6692 14.9357 13.5842C14.9904 13.4992 15.0214 13.4006 15.0256 13.2989H15.0382L15.2233 9.95155ZM20.5301 11.7952C19.5155 10.7776 18.2022 10.1296 16.7924 9.95104L16.9792 13.294C16.984 13.3956 17.0155 13.494 17.0704 13.5787C17.1254 13.6634 17.2017 13.7314 17.2912 13.7754C17.3808 13.8193 17.4803 13.8377 17.5793 13.8284C17.6782 13.8192 17.7728 13.7828 17.8532 13.7229H17.8626L20.5301 11.7952ZM12.9481 15.294L10.4987 13.045H10.4971C9.75212 14.2916 9.43409 15.7567 9.59327 17.2089L12.7315 16.282V16.2708C12.8269 16.2437 12.9134 16.1909 12.9819 16.1177C13.0503 16.0444 13.0982 15.9536 13.1203 15.8549C13.1425 15.7561 13.1382 15.6531 13.1079 15.5566C13.0776 15.4602 13.0224 15.3739 12.9481 15.3069V15.294ZM22.446 17.1945C22.5818 15.7433 22.2513 14.2864 21.5046 13.045L21.5093 13.0547L19.074 15.286C18.9997 15.353 18.9445 15.4393 18.9141 15.5357C18.8838 15.6322 18.8795 15.7352 18.9017 15.834C18.9239 15.9328 18.9717 16.0236 19.0402 16.0968C19.1086 16.17 19.1951 16.2229 19.2905 16.2499V16.2643L22.446 17.1945ZM16.51 15.4547H15.5073L14.8844 16.2563L15.1088 17.2523L16.0126 17.6973L16.9133 17.2539L17.1377 16.2579L16.51 15.4547ZM18.8512 18.1953C18.8093 18.187 18.7666 18.1838 18.7241 18.1857L18.7131 18.1985C18.6252 18.2046 18.54 18.2322 18.4646 18.2789C18.3892 18.3256 18.3259 18.3901 18.2798 18.467C18.2337 18.5438 18.2063 18.6309 18.1997 18.7209C18.1932 18.8108 18.2078 18.9011 18.2423 18.9841L19.4976 22.1005C20.7032 21.313 21.618 20.1367 22.0977 18.7575L18.8512 18.1953ZM13.6091 18.3243C13.5135 18.2448 13.3945 18.2005 13.2713 18.1985L13.2698 18.2049C13.2314 18.2035 13.193 18.2062 13.1552 18.213L9.93692 18.772C10.4198 20.1406 11.3305 21.3079 12.5276 22.0925L13.7766 18.9969L13.7672 18.9841C13.8136 18.8748 13.8246 18.7532 13.7985 18.6371C13.7715 18.514 13.7047 18.4038 13.6091 18.3243ZM16.2833 19.6243C16.1944 19.5721 16.0931 19.5463 15.9906 19.5495L15.9891 19.5559C15.8948 19.5601 15.8031 19.5891 15.7228 19.64C15.6426 19.6909 15.5765 19.7621 15.5309 19.8467L13.9476 22.7769C15.0808 23.1716 16.2989 23.2355 17.4656 22.9616C17.6748 22.9113 17.884 22.8507 18.0933 22.78L16.5069 19.8451H16.4943C16.4453 19.7529 16.3723 19.6765 16.2833 19.6243Z" fill="#1971BD"/>
</g>
<defs>
<clipPath id="clip0">
<rect width="32" height="32" fill="white"/>
</clipPath>
</defs>
</svg>
