<svg width="32" height="32" viewBox="0 0 32 32" fill="none" xmlns="http://www.w3.org/2000/svg">
<g clip-path="url(#clip0)">
<path d="M15.1559 19.1879C16.4381 20.2204 18.0597 20.7368 19.7029 20.6357C21.346 20.5346 22.8922 19.8234 24.0382 18.6416C25.073 17.5719 25.7143 16.1828 25.8571 14.7014C25.9999 13.22 25.6358 11.734 24.8244 10.4864C24.0129 9.23882 22.8021 8.30344 21.39 7.83338C19.9779 7.36332 18.4481 7.38647 17.0508 7.89881C15.4317 8.49749 14.1116 9.70649 13.3733 11.2668C12.635 12.8272 12.5372 14.6147 13.101 16.2462C12.7202 16.3088 12.3443 16.3989 11.9765 16.5159C11.8535 16.57 11.7195 16.5946 11.5853 16.5874C11.4511 16.5803 11.3204 16.5416 11.2039 16.4747C11.0991 16.4282 11.0071 16.3573 10.9355 16.2678C10.8639 16.1783 10.8148 16.0729 10.7925 15.9605C10.7226 15.5513 10.522 15.1759 10.2208 14.8903C9.91958 14.6047 9.53392 14.4244 9.12162 14.3765C8.67819 14.2896 8.22561 14.2553 7.78218 14.1821C7.68618 14.1661 7.52847 14.0976 7.52162 14.0382C7.49647 13.8599 7.46219 13.6405 7.67705 13.5354C8.33265 13.1998 8.86955 12.6712 9.21533 12.0209C9.56111 11.3706 9.69913 10.63 9.61075 9.89881C9.60403 9.40771 9.42065 8.93539 9.09419 8.56845C9.03608 8.49915 8.98191 8.42672 8.9319 8.35137C8.70168 8.08574 8.5784 7.74396 8.58601 7.39253C8.59361 7.0411 8.73155 6.70502 8.97304 6.44959C9.1854 6.17523 9.4144 5.91421 9.65875 5.66792C9.85549 5.42318 10.1374 5.26168 10.4481 5.21591C10.7587 5.17014 11.0752 5.24339 11.3342 5.42099C11.672 5.63578 12.0615 5.75576 12.4616 5.76823C12.8618 5.78069 13.2579 5.68521 13.6085 5.49186C14.2818 5.16446 14.8881 4.71407 15.3959 4.16387C15.7339 3.80077 15.9456 3.33826 15.9993 2.8451C15.9988 2.49444 16.1325 2.15681 16.3732 1.90174C16.6138 1.64667 16.9429 1.49345 17.293 1.47358C17.6996 1.41724 18.1102 1.39508 18.5205 1.40732C18.7916 1.40737 19.0556 1.49382 19.2743 1.65411C19.493 1.8144 19.6548 2.04024 19.7365 2.29878C20.003 2.96414 20.4713 3.52918 21.0757 3.91457C21.68 4.29996 22.3899 4.48633 23.1056 4.44736C23.7119 4.48151 24.3097 4.29194 24.7856 3.91471C24.9379 3.76085 25.1199 3.6396 25.3205 3.55813C25.5211 3.47665 25.7362 3.43674 25.9526 3.4408C26.1691 3.44486 26.3825 3.49276 26.5799 3.5817C26.7773 3.67065 26.9546 3.79878 27.101 3.95824C27.3895 4.1885 27.6462 4.45588 27.8645 4.75358C28.0048 4.97381 28.0794 5.22957 28.0794 5.49074C28.0794 5.75191 28.0048 6.00767 27.8645 6.22791C27.7067 6.63294 27.6307 7.06526 27.6409 7.49981C27.6511 7.93437 27.7473 8.36253 27.9239 8.75972C28.1005 9.1569 28.354 9.51517 28.6698 9.81385C28.9856 10.1125 29.3575 10.3458 29.7639 10.5C30.1296 10.6188 30.5228 10.6508 30.8862 10.7628C31.1532 10.8373 31.3913 10.9909 31.5692 11.2035C31.7472 11.4161 31.8565 11.6777 31.8828 11.9536C31.9285 12.2462 31.981 12.5387 32.0108 12.8313C32.0572 13.1184 32.0167 13.4129 31.8945 13.6768C31.7723 13.9408 31.574 14.1621 31.325 14.3125C31.1908 14.4058 31.0458 14.4825 30.8931 14.541C30.249 14.8122 29.7102 15.285 29.3574 15.8883C29.0047 16.4916 28.857 17.193 28.9365 17.8874C28.9794 18.4479 29.1905 18.9824 29.5422 19.421C29.6243 19.5233 29.7006 19.6302 29.7708 19.741C29.9131 19.9384 29.9962 20.1722 30.0103 20.4151C30.0245 20.658 29.9691 20.8998 29.8508 21.1124C29.6587 21.4543 29.4369 21.7786 29.1879 22.0816C28.984 22.3692 28.6808 22.5711 28.3368 22.6484C27.9928 22.7256 27.6323 22.6728 27.325 22.5C26.5182 22.2335 25.6433 22.2589 24.8533 22.5718C24.0633 22.8847 23.4083 23.4652 23.0028 24.2119C22.8747 24.4598 22.7912 24.7282 22.7559 25.005C22.7683 25.4149 22.6181 25.8132 22.338 26.113C22.058 26.4127 21.6709 26.5895 21.261 26.605C20.9388 26.6576 20.6119 26.6942 20.2873 26.7148C20.0591 26.734 19.8301 26.6874 19.6275 26.5804C19.425 26.4735 19.2573 26.3106 19.1445 26.1113C19.0772 26.0172 19.022 25.915 18.9799 25.8073C18.8166 25.4026 18.5644 25.0399 18.2419 24.7459C17.9195 24.4519 17.535 24.2343 17.117 24.109C16.9159 24.0222 16.6348 23.9879 16.5342 23.837C16.4336 23.6861 16.5342 23.4279 16.5525 23.2154C16.6118 22.7325 16.4997 22.2442 16.2357 21.8356C15.9717 21.427 15.5725 21.1241 15.1079 20.9799C15.0047 20.9467 14.9108 20.8896 14.8339 20.8131C14.757 20.7367 14.6994 20.643 14.6657 20.54C14.632 20.4369 14.6232 20.3273 14.6401 20.2202C14.657 20.1131 14.699 20.0116 14.7628 19.9239C14.9045 19.7045 15.0188 19.4507 15.1559 19.1879Z" fill="#1971BD"/>
<path d="M2.43587 19.7958C2.38381 19.5866 2.3197 19.3806 2.24387 19.1788C2.16885 19.0715 2.11775 18.9493 2.09402 18.8205C2.0703 18.6917 2.0745 18.5594 2.10636 18.4324C2.13822 18.3054 2.19698 18.1866 2.27867 18.0843C2.36036 17.982 2.46308 17.8985 2.57987 17.8393C2.71561 17.7339 2.85927 17.6391 3.00959 17.5559C3.11433 17.4889 3.2382 17.4582 3.36211 17.4685C3.48602 17.4788 3.60309 17.5296 3.6953 17.6131C3.95769 17.8597 4.29495 18.0117 4.65357 18.0448C5.01218 18.078 5.37159 17.9903 5.67473 17.7958C5.88756 17.6899 6.0923 17.5684 6.2873 17.4324C6.52329 17.2785 6.69734 17.0462 6.77872 16.7764C6.79998 16.6641 6.84498 16.5577 6.91071 16.4642C6.97644 16.3707 7.06138 16.2923 7.15985 16.2343C7.25831 16.1763 7.36803 16.14 7.48167 16.1278C7.5953 16.1157 7.71022 16.128 7.81873 16.1638C7.89969 16.1775 7.98133 16.1867 8.0633 16.1913C8.26869 16.1797 8.47063 16.2479 8.62694 16.3816C8.78325 16.5153 8.88185 16.7042 8.90216 16.9089C8.95837 17.2199 9.09277 17.5115 9.29269 17.7562C9.49262 18.0009 9.75151 18.1907 10.045 18.3078C10.291 18.4494 10.568 18.5287 10.8516 18.5387C11.1353 18.5487 11.4171 18.489 11.6724 18.365C11.7701 18.3055 11.8786 18.2661 11.9917 18.2492C12.1047 18.2323 12.22 18.2383 12.3308 18.2666C12.4415 18.295 12.5455 18.3451 12.6365 18.4143C12.7276 18.4834 12.8039 18.5699 12.861 18.669C13.037 18.8861 13.2519 19.0942 13.2062 19.405C13.1958 19.5987 13.1385 19.7869 13.0393 19.9536C12.8793 20.1936 12.7749 20.4663 12.7338 20.7519C12.6928 21.0374 12.716 21.3285 12.8019 21.6038C12.8878 21.8792 13.0341 22.1319 13.2302 22.3435C13.4263 22.5551 13.6672 22.7203 13.9353 22.8268C14.5296 22.9913 14.7079 23.373 14.6096 23.9855C14.477 24.8084 14.4199 24.8701 13.6153 25.0575C13.3505 25.1416 13.107 25.282 12.9016 25.4691C12.6961 25.6561 12.5335 25.8853 12.425 26.1411C12.3164 26.3968 12.2644 26.6731 12.2726 26.9508C12.2808 27.2285 12.349 27.5013 12.4724 27.7502C12.5663 27.9207 12.5999 28.1178 12.568 28.3098C12.5361 28.5017 12.4404 28.6774 12.2964 28.8084C12.2149 28.931 12.1085 29.0351 11.9842 29.114C11.8599 29.1929 11.7204 29.2448 11.5747 29.2664C11.4291 29.2879 11.2805 29.2787 11.1386 29.2392C10.9968 29.1996 10.8648 29.1308 10.7513 29.037C10.5736 28.9376 10.3804 28.8689 10.1799 28.8336C9.71885 28.7714 9.25011 28.8609 8.84439 29.0885C8.43867 29.3161 8.11799 29.6695 7.93073 30.0953C7.79359 30.5982 7.56501 30.7125 7.03015 30.7148H6.76044C6.17758 30.7148 5.9193 30.557 5.81187 29.997C5.76679 29.7799 5.67707 29.5745 5.5484 29.3939C5.41974 29.2133 5.25493 29.0614 5.06444 28.9479C4.7146 28.7222 4.34043 28.5366 3.94901 28.3947C3.79643 28.3575 3.63753 28.3542 3.48352 28.385C3.3295 28.4158 3.18411 28.4799 3.05759 28.573C2.97297 28.6434 2.87448 28.6952 2.76855 28.7249C2.66262 28.7547 2.5516 28.7618 2.44273 28.7459C2.33385 28.7299 2.22955 28.6912 2.13661 28.6323C2.04367 28.5734 1.96418 28.4955 1.9033 28.4038C1.67473 28.1752 1.40045 27.9467 1.43245 27.5787C1.43557 27.3995 1.48434 27.2241 1.57415 27.069C1.81313 26.7253 1.93487 26.3138 1.92129 25.8954C1.9077 25.477 1.75951 25.0741 1.49873 24.7467C1.29541 24.4133 0.981572 24.1618 0.611873 24.0359C0.081587 23.8348 -0.0441271 23.6404 -0.00755568 23.0918C0.00615861 22.8633 0.0290142 22.6507 0.0587285 22.4313C0.080067 22.2777 0.154727 22.1366 0.26964 22.0326C0.384553 21.9285 0.532401 21.8681 0.687303 21.8621C1.02561 21.8081 1.34292 21.6633 1.60538 21.4431C1.86784 21.2229 2.0656 20.9356 2.17758 20.6118C2.28471 20.3469 2.37107 20.0741 2.43587 19.7958V19.7958ZM7.31587 26.685C7.96081 26.6813 8.59005 26.4857 9.12352 26.1232C9.65699 25.7608 10.0706 25.2478 10.3116 24.6496C10.5527 24.0514 10.6103 23.3949 10.4772 22.7639C10.344 22.1328 10.0262 21.5557 9.56401 21.1058C9.10186 20.6559 8.51631 20.3537 7.88189 20.2376C7.24747 20.1215 6.59286 20.1968 6.00135 20.4539C5.40985 20.7109 4.90819 21.1381 4.56022 21.6811C4.21225 22.2242 4.0337 22.8584 4.0473 23.5033C4.06821 24.3556 4.422 25.1658 5.03292 25.7605C5.64384 26.3552 6.46331 26.6871 7.31587 26.685Z" fill="#1971BD"/>
<path d="M23.2222 14.0678C23.2217 14.8417 22.9915 15.5981 22.5607 16.2411C22.13 16.884 21.518 17.3846 20.8024 17.6794C20.0869 17.9742 19.2999 18.0498 18.5412 17.8969C17.7826 17.744 17.0864 17.3693 16.5409 16.8203C15.9955 16.2713 15.6252 15.5727 15.4772 14.813C15.3292 14.0534 15.41 13.2669 15.7094 12.5533C16.0088 11.8396 16.5133 11.231 17.159 10.8044C17.8047 10.3778 18.5626 10.1524 19.3365 10.1569C19.8489 10.1569 20.3562 10.2582 20.8293 10.4551C21.3024 10.6519 21.7319 10.9403 22.093 11.3038C22.4542 11.6673 22.7398 12.0987 22.9336 12.5731C23.1274 13.0474 23.2255 13.5554 23.2222 14.0678V14.0678Z" fill="#1971BD"/>
</g>
<defs>
<clipPath id="clip0">
<rect width="32" height="32" fill="white"/>
</clipPath>
</defs>
</svg>
