<svg width="32" height="32" viewBox="0 0 32 32" fill="none" xmlns="http://www.w3.org/2000/svg">
<path d="M29.2457 0H3.18857C2.53214 0 2 0.532141 2 1.18857V7.04C2 7.69643 2.53214 8.22857 3.18857 8.22857H29.2457C29.9021 8.22857 30.4343 7.69643 30.4343 7.04V1.18857C30.4343 0.532141 29.9021 0 29.2457 0Z" fill="#1971BD"/>
<path d="M5.86282 5.44C6.59499 5.44 7.18854 4.84646 7.18854 4.11429C7.18854 3.38212 6.59499 2.78857 5.86282 2.78857C5.13065 2.78857 4.53711 3.38212 4.53711 4.11429C4.53711 4.84646 5.13065 5.44 5.86282 5.44Z" fill="white"/>
<path d="M9.99954 5.44C10.7317 5.44 11.3253 4.84646 11.3253 4.11429C11.3253 3.38212 10.7317 2.78857 9.99954 2.78857C9.26737 2.78857 8.67383 3.38212 8.67383 4.11429C8.67383 4.84646 9.26737 5.44 9.99954 5.44Z" fill="white"/>
<path d="M29.2457 9.91994H3.18857C2.53214 9.91994 2 10.4521 2 11.1085V16.9599C2 17.6164 2.53214 18.1485 3.18857 18.1485H29.2457C29.9021 18.1485 30.4343 17.6164 30.4343 16.9599V11.1085C30.4343 10.4521 29.9021 9.91994 29.2457 9.91994Z" fill="#1971BD"/>
<path d="M5.86282 15.3374C6.59499 15.3374 7.18854 14.7439 7.18854 14.0117C7.18854 13.2796 6.59499 12.686 5.86282 12.686C5.13065 12.686 4.53711 13.2796 4.53711 14.0117C4.53711 14.7439 5.13065 15.3374 5.86282 15.3374Z" fill="white"/>
<path d="M10.023 15.3374C10.7552 15.3374 11.3487 14.7439 11.3487 14.0117C11.3487 13.2796 10.7552 12.686 10.023 12.686C9.29081 12.686 8.69727 13.2796 8.69727 14.0117C8.69727 14.7439 9.29081 15.3374 10.023 15.3374Z" fill="white"/>
<path d="M14.1831 15.3374C14.9153 15.3374 15.5089 14.7439 15.5089 14.0117C15.5089 13.2796 14.9153 12.686 14.1831 12.686C13.451 12.686 12.8574 13.2796 12.8574 14.0117C12.8574 14.7439 13.451 15.3374 14.1831 15.3374Z" fill="white"/>
<path d="M18.3199 15.3374C19.052 15.3374 19.6456 14.7439 19.6456 14.0117C19.6456 13.2796 19.052 12.686 18.3199 12.686C17.5877 12.686 16.9941 13.2796 16.9941 14.0117C16.9941 14.7439 17.5877 15.3374 18.3199 15.3374Z" fill="white"/>
<path d="M29.2457 19.8169H3.18857C2.53214 19.8169 2 20.349 2 21.0055V26.8569C2 27.5133 2.53214 28.0455 3.18857 28.0455H29.2457C29.9021 28.0455 30.4343 27.5133 30.4343 26.8569V21.0055C30.4343 20.349 29.9021 19.8169 29.2457 19.8169Z" fill="#1971BD"/>
<path d="M5.86282 25.2569C6.59499 25.2569 7.18854 24.6634 7.18854 23.9312C7.18854 23.199 6.59499 22.6055 5.86282 22.6055C5.13065 22.6055 4.53711 23.199 4.53711 23.9312C4.53711 24.6634 5.13065 25.2569 5.86282 25.2569Z" fill="white"/>
<path d="M10.0464 25.2569C10.7786 25.2569 11.3721 24.6634 11.3721 23.9312C11.3721 23.199 10.7786 22.6055 10.0464 22.6055C9.31425 22.6055 8.7207 23.199 8.7207 23.9312C8.7207 24.6634 9.31425 25.2569 10.0464 25.2569Z" fill="white"/>
<path d="M14.2046 25.2569C14.9368 25.2569 15.5303 24.6634 15.5303 23.9312C15.5303 23.199 14.9368 22.6055 14.2046 22.6055C13.4724 22.6055 12.8789 23.199 12.8789 23.9312C12.8789 24.6634 13.4724 25.2569 14.2046 25.2569Z" fill="white"/>
<path d="M24.3304 29.7144H8.10184C7.47066 29.7144 6.95898 30.226 6.95898 30.8572C6.95898 31.4884 7.47066 32.0001 8.10184 32.0001H24.3304C24.9616 32.0001 25.4733 31.4884 25.4733 30.8572C25.4733 30.226 24.9616 29.7144 24.3304 29.7144Z" fill="#1971BD"/>
</svg>
