<svg width="32" height="32" viewBox="0 0 32 32" fill="none" xmlns="http://www.w3.org/2000/svg">
<g clip-path="url(#clip0)">
<path d="M14.3314 27.8857C12.3148 27.6119 10.4023 26.8248 8.77709 25.6C8.38851 26.1486 8.04566 26.6743 7.65709 27.1771C7.43391 27.473 7.12807 27.696 6.77819 27.818C6.42831 27.9401 6.05011 27.9557 5.69137 27.8629C5.3326 27.7998 4.99956 27.6348 4.73205 27.3876C4.46453 27.1403 4.27386 26.8213 4.1828 26.4686C4.06788 26.0865 4.07193 25.6786 4.19441 25.2989C4.31689 24.9192 4.552 24.5857 4.86851 24.3429L6.4228 23.2457C5.20151 21.6185 4.41487 19.7069 4.13709 17.6914C3.51994 17.6914 2.94851 17.92 2.37709 17.9886C1.93822 18.0857 1.47938 18.0313 1.0754 17.8342C0.671416 17.6371 0.346123 17.309 0.152562 16.9033C-0.040999 16.4976 -0.091408 16.0383 0.00955496 15.6003C0.110518 15.1623 0.356896 14.7714 0.708514 14.4914C0.943944 14.2883 1.22374 14.1431 1.52544 14.0677C1.82713 13.9923 2.14231 13.9887 2.44566 14.0571L4.11423 14.3543C4.39022 12.3313 5.17685 10.412 6.39994 8.77714C5.87423 8.41143 5.34851 8.06857 4.84566 7.68C4.6536 7.49709 4.50007 7.2776 4.39411 7.03447C4.28815 6.79133 4.2319 6.52945 4.22866 6.26425C4.22543 5.99904 4.27528 5.73587 4.37528 5.49022C4.47528 5.24457 4.62341 5.02141 4.81095 4.83387C4.9985 4.64633 5.22166 4.4982 5.46731 4.3982C5.71296 4.29819 5.97613 4.24834 6.24133 4.25158C6.50654 4.25481 6.76841 4.31106 7.01155 4.41702C7.25469 4.52299 7.47417 4.67651 7.65709 4.86857C8.04566 5.34857 8.38851 5.87429 8.70851 6.35429C9.6228 5.87429 10.4914 5.32572 11.4057 4.93714C12.3199 4.54857 13.3028 4.34286 14.3085 4.02286C14.3085 3.52 14.1257 2.94857 14.0342 2.35429C13.9566 1.97045 13.9982 1.57204 14.1534 1.21252C14.3087 0.852995 14.5702 0.549541 14.9028 0.342858C15.2142 0.124518 15.5853 0.00738525 15.9657 0.00738525C16.346 0.00738525 16.7171 0.124518 17.0285 0.342858C17.3635 0.53321 17.6327 0.82107 17.8001 1.16814C17.9675 1.5152 18.0252 1.90502 17.9657 2.28572C17.9657 2.88 17.7599 3.45143 17.6685 4.06857C19.6789 4.36516 21.586 5.14996 23.2228 6.35429C23.6114 5.80572 23.9771 5.25714 24.3657 4.75429C24.5981 4.4647 24.9104 4.24969 25.2639 4.13593C25.6174 4.02216 25.9965 4.01464 26.3542 4.11429C26.7111 4.17881 27.0407 4.34799 27.3012 4.60033C27.5617 4.85268 27.7413 5.17678 27.8171 5.53143C27.9329 5.90859 27.9268 6.31268 27.7996 6.68616C27.6724 7.05963 27.4305 7.38343 27.1085 7.61143C26.6285 8 26.1028 8.34286 25.5771 8.70857C26.7949 10.3378 27.5811 12.2484 27.8628 14.2629C28.5485 14.2629 29.2114 14.0114 29.8742 13.9657C30.3861 13.9279 30.8922 14.0941 31.2819 14.4282C31.6717 14.7622 31.9134 15.2369 31.9542 15.7486C32.0193 16.2454 31.8851 16.7478 31.5811 17.146C31.277 17.5443 30.8278 17.8061 30.3314 17.8743C29.7405 17.8891 29.1499 17.8354 28.5714 17.7143H27.8628C27.5764 19.7275 26.7906 21.6369 25.5771 23.2686C26.0799 23.6343 26.6057 23.9771 27.0857 24.3657C27.3862 24.5943 27.6155 24.9037 27.7467 25.2578C27.8779 25.6119 27.9055 25.996 27.8264 26.3653C27.7473 26.7345 27.5646 27.0736 27.2999 27.3428C27.0352 27.6121 26.6992 27.8004 26.3314 27.8857C25.975 27.9841 25.5973 27.9736 25.247 27.8555C24.8966 27.7373 24.5897 27.517 24.3657 27.2229C23.9771 26.7429 23.6342 26.1943 23.2228 25.6457C21.587 26.8671 19.6681 27.6535 17.6457 27.9314C17.6457 28.4114 17.8514 28.8686 17.8971 29.3257C17.955 29.7428 17.955 30.1658 17.8971 30.5829C17.7819 31.0981 17.4668 31.5466 17.021 31.8295C16.5751 32.1124 16.0352 32.2066 15.5199 32.0914C15.2648 32.0344 15.0234 31.9277 14.8095 31.7773C14.5956 31.627 14.4134 31.436 14.2733 31.2153C13.9904 30.7695 13.8962 30.2296 14.0114 29.7143C14.1028 29.1657 14.2171 28.5486 14.3314 27.8857ZM20.2742 18.7429L23.0857 21.5314C24.1271 20.2159 24.7696 18.6294 24.9371 16.96H21.1428C21.0793 16.9735 21.0197 17.001 20.9683 17.0406C20.9169 17.0801 20.875 17.1307 20.8457 17.1886C20.5714 17.7371 20.5714 18.2857 20.2742 18.6971V18.7429ZM7.0628 17.0057C7.25883 18.6801 7.92445 20.2649 8.9828 21.5771L11.6342 18.9486C11.6628 18.8878 11.6776 18.8214 11.6776 18.7543C11.6776 18.6871 11.6628 18.6208 11.6342 18.56C11.4285 18.1029 11.4285 17.6686 11.1542 17.2343C11.1542 17.2343 10.9942 17.0057 10.9028 17.0057H7.0628ZM8.9828 10.4229C7.90323 11.7179 7.2488 13.3141 7.10851 14.9943H10.9028C10.9028 14.9943 11.1085 14.8571 11.1542 14.7657L11.7028 13.44C11.7028 13.44 11.7028 13.1886 11.7028 13.12L8.9828 10.4229ZM20.2285 13.2343C20.4342 13.7371 20.6628 14.2171 20.8228 14.72C20.9828 15.2229 20.9828 15.0171 21.2342 15.0171C22.2628 15.0171 23.2914 15.0171 24.3199 15.0171H24.9371C24.7513 13.3442 24.0933 11.7586 23.0399 10.4457L20.2285 13.2343ZM14.9714 10.9486V7.08571C13.3019 7.25324 11.7155 7.89575 10.3999 8.93714L13.2571 11.7714L14.9714 10.9486ZM18.6742 11.6343L21.5085 8.91429C20.1956 7.87198 18.6066 7.23637 16.9371 7.08571V11.04L18.6742 11.6343ZM13.2799 20.2514L10.4457 23.0857C11.7638 24.1227 13.3489 24.7647 15.0171 24.9371V20.96L13.2799 20.2514ZM17.0285 24.9371C18.6989 24.7734 20.2864 24.1305 21.5999 23.0857L18.6971 20.2743L17.0285 20.96V24.9371Z" fill="#1971BD"/>
</g>
<defs>
<clipPath id="clip0">
<rect width="32" height="32" fill="white"/>
</clipPath>
</defs>
</svg>
