<svg width="32" height="32" viewBox="0 0 32 32" fill="none" xmlns="http://www.w3.org/2000/svg">
<path d="M30.0571 2H1.94286C1.42758 2 0.933406 2.20469 0.56905 2.56905C0.204693 2.93341 0 3.42758 0 3.94286L0 24.1486C0 24.6638 0.204693 25.158 0.56905 25.5224C0.933406 25.8867 1.42758 26.0914 1.94286 26.0914H30.0571C30.3123 26.0914 30.5649 26.0412 30.8006 25.9435C31.0364 25.8459 31.2505 25.7028 31.431 25.5224C31.6114 25.342 31.7545 25.1278 31.8521 24.8921C31.9497 24.6564 32 24.4037 32 24.1486V3.94286C32 3.68772 31.9497 3.43508 31.8521 3.19936C31.7545 2.96364 31.6114 2.74946 31.431 2.56905C31.2505 2.38864 31.0364 2.24553 30.8006 2.14789C30.5649 2.05025 30.3123 2 30.0571 2V2ZM29.5543 22.7314H2.44571V4.72H29.5543V22.7314Z" fill="#1971BD"/>
<path d="M12.3887 27.0286L8.70874 30.7543H23.3373L19.6573 27.0286H12.3887Z" fill="#1971BD"/>
<path d="M6.58272 19.12C6.92642 19.1141 7.25441 18.975 7.49748 18.7319C7.74055 18.4889 7.8797 18.1609 7.88558 17.8172C7.89845 17.6956 7.89845 17.573 7.88558 17.4515C9.53129 16.1029 12.457 13.7257 13.8284 12.6972C14.0374 12.8602 14.2948 12.9487 14.5599 12.9486C14.7854 12.9441 15.006 12.8811 15.1999 12.7657L18.4913 15.7143C18.4806 15.7825 18.4806 15.8519 18.4913 15.92C18.4912 16.2677 18.6278 16.6015 18.8715 16.8495C19.1152 17.0974 19.4465 17.2397 19.7941 17.2457C19.9672 17.2458 20.1385 17.2113 20.2981 17.1444C20.4576 17.0775 20.6023 16.9795 20.7236 16.8561C20.8449 16.7327 20.9404 16.5863 21.0045 16.4256C21.0686 16.2649 21.1 16.093 21.097 15.92C21.1077 15.806 21.1077 15.6912 21.097 15.5772L24.457 12.5372C24.6473 12.6382 24.8587 12.6931 25.0741 12.6972C25.4179 12.6913 25.7458 12.5521 25.9889 12.3091C26.232 12.066 26.3711 11.738 26.377 11.3943C26.377 11.0488 26.2397 10.7174 25.9954 10.4731C25.7511 10.2287 25.4197 10.0915 25.0741 10.0915C24.9022 10.0884 24.7314 10.1199 24.5719 10.1843C24.4125 10.2487 24.2676 10.3445 24.146 10.4662C24.0244 10.5878 23.9285 10.7326 23.8642 10.8921C23.7998 11.0516 23.7682 11.2224 23.7713 11.3943C23.7386 11.5526 23.7386 11.716 23.7713 11.8743L20.4341 14.7772C20.2323 14.6367 19.9942 14.5573 19.7484 14.5486C19.4532 14.5614 19.1711 14.6743 18.9484 14.8686C18.1027 14.1143 16.6627 12.9486 15.7027 12.1029C15.737 11.9524 15.737 11.7962 15.7027 11.6457C15.7027 11.3002 15.5655 10.9688 15.3211 10.7245C15.0768 10.4801 14.7454 10.3429 14.3999 10.3429C14.0562 10.3488 13.7282 10.4879 13.4851 10.731C13.242 10.9741 13.1029 11.302 13.097 11.6457C13.0734 11.7972 13.0734 11.9514 13.097 12.1029L7.10843 16.6743C6.90827 16.5114 6.65797 16.4225 6.39986 16.4229C6.22792 16.4198 6.05711 16.4514 5.89764 16.5157C5.73817 16.5801 5.59331 16.676 5.4717 16.7976C5.3501 16.9192 5.25424 17.064 5.18987 17.2235C5.12549 17.383 5.09391 17.5538 5.09701 17.7257C5.08124 17.9209 5.10965 18.117 5.18012 18.2997C5.25059 18.4823 5.36132 18.6467 5.50407 18.7807C5.64682 18.9147 5.81792 19.0147 6.00466 19.0735C6.1914 19.1322 6.38898 19.1481 6.58272 19.12Z" fill="#1971BD"/>
</svg>
