<svg width="32" height="32" viewBox="0 0 32 32" fill="none" xmlns="http://www.w3.org/2000/svg">
<path d="M29.2571 24.2571C28.5714 24.2571 27.8857 24.4857 27.4286 24.9429L17.3714 18.5429C17.6 18.0857 17.8286 17.4 17.8286 16.7143C17.8286 15.3429 17.1429 13.9714 16.2286 13.2857L18.5143 8.71429C18.7429 8.71429 18.7429 8.71429 18.9714 8.71429C20.5714 8.71429 21.7143 7.57143 21.7143 5.97143C21.4857 4.14286 20.3429 3 18.7429 3C17.1429 3 16 4.14286 16 5.74286C16 6.65714 16.4571 7.34286 16.9143 7.8L14.6286 12.3714C14.1714 12.3714 13.7143 12.1429 13.2571 12.1429C12.3429 12.1429 11.6571 12.3714 10.9714 12.8286L5.25714 7.11429C5.48571 6.65714 5.71429 6.2 5.71429 5.74286C5.48571 4.14286 4.34286 3 2.74286 3C1.14286 3 0 4.14286 0 5.74286C0 7.34286 1.14286 8.48571 2.74286 8.48571C3.2 8.48571 3.65714 8.48571 3.88571 8.25714L9.6 13.9714C9.14286 14.6571 8.91429 15.8 8.91429 16.7143C8.91429 17.6286 9.14286 18.7714 9.82857 19.4571L4.11429 24.4857C3.65714 24.2571 3.2 24.2571 2.74286 24.2571C1.14286 24.2571 0 25.4 0 27C0 28.6 1.14286 29.7429 2.74286 29.7429C4.34286 29.7429 5.48571 28.6 5.48571 27C5.48571 26.5429 5.48571 26.0857 5.25714 25.8571L10.9714 20.6C11.6571 21.0571 12.5714 21.2857 13.2571 21.2857C14.4 21.2857 15.5429 20.8286 16.4571 19.9143L26.5143 26.3143C26.5143 26.5429 26.5143 26.7714 26.5143 27C26.5143 28.6 27.6571 29.7429 29.2571 29.7429C30.8571 29.7429 32 28.6 32 27C32 25.4 30.8571 24.2571 29.2571 24.2571Z" fill="#1971BD"/>
</svg>
