<svg width="32" height="32" viewBox="0 0 32 32" fill="none" xmlns="http://www.w3.org/2000/svg">
<path d="M16 32C14.0701 32 12.5 30.4299 12.5 28.5V27.4814C11.7586 27.256 11.0418 26.9589 10.3567 26.5931L9.63587 27.314C8.975 27.9748 8.09619 28.3388 7.16125 28.3388C6.22587 28.3388 5.34681 27.9748 4.686 27.314C3.32169 25.9488 3.32181 23.7284 4.68606 22.3642L5.40694 21.6433C5.04113 20.9583 4.74413 20.2414 4.51869 19.5001H3.5C2.56544 19.5001 1.68663 19.1359 1.02538 18.4746C0.364125 17.8134 0 16.9345 0 16C0 14.0701 1.57006 12.5 3.5 12.5H4.51869C4.74406 11.7586 5.04113 11.0418 5.40694 10.3567L4.68606 9.63587C4.02519 8.975 3.66125 8.09619 3.66125 7.16125C3.66125 6.22594 4.02519 5.34687 4.686 4.686C6.05125 3.32156 8.27162 3.32175 9.63587 4.686L10.3567 5.40688C11.0418 5.04106 11.7586 4.74406 12.5 4.51862V3.5C12.5 2.5655 12.8641 1.68669 13.5253 1.02544C14.1866 0.364187 15.0654 0 16 0C16.2326 0 16.467 0.0234375 16.6968 0.0695625C18.3221 0.39975 19.5 1.84231 19.5 3.5V4.51862C20.2414 4.744 20.9582 5.04106 21.6432 5.40688L22.3641 4.686C23.025 4.02519 23.9038 3.66125 24.8388 3.66125C25.7741 3.66125 26.6532 4.02519 27.314 4.686C28.6783 6.05119 28.6782 8.27163 27.3139 9.63581L26.5931 10.3567C26.9589 11.0417 27.2559 11.7586 27.4813 12.4999H28.5C29.4346 12.4999 30.3134 12.8641 30.9746 13.5254C31.6359 14.1866 32 15.0655 32 16C32 17.9299 30.4299 19.5 28.5 19.5H27.4813C27.2559 20.2414 26.9589 20.9582 26.5931 21.6432L27.3139 22.3641C27.9748 23.025 28.3387 23.9038 28.3387 24.8388C28.3387 25.7741 27.9748 26.6531 27.3139 27.314C26.6314 27.9961 25.7348 28.3372 24.8387 28.3372C23.9423 28.3373 23.0463 27.9963 22.3641 27.3141L21.6432 26.5932C20.9581 26.959 20.2414 27.256 19.4999 27.4814V28.5C19.4999 29.4345 19.1358 30.3133 18.4746 30.9746C17.9863 31.4629 17.3723 31.7933 16.699 31.93C16.6982 31.9301 16.6976 31.9303 16.6968 31.9304C16.467 31.9766 16.2326 32 16 32ZM16.5 30.95H16.5006H16.5ZM10.1922 24.3438C10.3742 24.3438 10.5574 24.3933 10.7205 24.4949C11.6512 25.0746 12.6624 25.4936 13.726 25.7403C14.1792 25.8454 14.5 26.2493 14.5 26.7144V28.5C14.5 29.3271 15.1729 30 16 30C16.1001 30 16.2014 29.9899 16.3013 29.9699C16.5883 29.9116 16.8508 29.7699 17.0604 29.5604C17.3439 29.2769 17.5 28.9003 17.5 28.5V26.7144C17.5 26.2492 17.8208 25.8454 18.274 25.7402C19.3376 25.4935 20.3487 25.0745 21.2795 24.4949C21.6741 24.2491 22.1864 24.3078 22.5152 24.6366L23.7783 25.8997C24.363 26.4844 25.3147 26.4844 25.8999 25.8995C26.1828 25.6166 26.3388 25.2398 26.3388 24.8387C26.3388 24.438 26.1829 24.0614 25.8997 23.7783L24.6367 22.5152C24.3078 22.1864 24.2491 21.6742 24.4949 21.2796C25.0745 20.3487 25.4936 19.3376 25.7402 18.2741C25.8454 17.8209 26.2492 17.5001 26.7144 17.5001H28.5C29.3271 17.5001 30 16.8271 30 16.0001C30 15.5998 29.8439 15.2232 29.5604 14.9397C29.2769 14.6561 28.9003 14.5 28.5 14.5H26.7144C26.2492 14.5 25.8454 14.1792 25.7402 13.726C25.4936 12.6625 25.0746 11.6513 24.4949 10.7205C24.2491 10.3258 24.3078 9.81363 24.6367 9.48481L25.8998 8.22175C26.4845 7.63706 26.4844 6.68531 25.8996 6.10012C25.6168 5.81725 25.2399 5.66138 24.8388 5.66138C24.4381 5.66138 24.0614 5.81731 23.7783 6.10038L22.5152 7.36344C22.1863 7.69238 21.6742 7.751 21.2795 7.50519C20.3487 6.92556 19.3376 6.50656 18.274 6.25981C17.8208 6.15462 17.5 5.75081 17.5 5.28562V3.5C17.5 2.78938 16.9958 2.17112 16.3009 2.02994C16.2026 2.01025 16.1006 2 16 2C15.5997 2 15.2231 2.15613 14.9396 2.43963C14.6561 2.72312 14.5 3.09969 14.5 3.5V5.28562C14.5 5.75081 14.1792 6.15462 13.726 6.25975C12.6624 6.5065 11.6512 6.9255 10.7205 7.50513C10.3259 7.751 9.81363 7.69225 9.48481 7.36338L8.22169 6.10025C7.637 5.51556 6.68525 5.51569 6.10006 6.1005C5.81719 6.38338 5.66125 6.76019 5.66125 7.16131C5.66125 7.562 5.81712 7.93862 6.10025 8.22169L7.36331 9.48475C7.69219 9.81362 7.75087 10.3257 7.50513 10.7204C6.9255 11.6512 6.50644 12.6624 6.25975 13.7259C6.15469 14.1792 5.75087 14.5 5.28562 14.5H3.5C2.67294 14.5 2 15.1729 2 16C2 16.4003 2.15613 16.7769 2.43963 17.0604C2.72306 17.3439 3.09969 17.5 3.5 17.5H5.28562C5.75081 17.5 6.15462 17.8208 6.25975 18.274C6.50644 19.3375 6.92544 20.3487 7.50513 21.2795C7.75094 21.6742 7.69219 22.1864 7.36331 22.5152L6.10019 23.7782C5.5155 24.3629 5.51556 25.3147 6.10044 25.8999C6.38325 26.1828 6.76013 26.3386 7.16125 26.3386C7.56194 26.3386 7.93862 26.1827 8.22169 25.8996L9.48481 24.6366C9.67775 24.4437 9.93381 24.3438 10.1922 24.3438Z" fill="#1971BD"/>
<path d="M16 23C12.1402 23 9 19.8598 9 16C9 12.1402 12.1402 9 16 9C16.1988 9 16.3962 9.00844 16.5868 9.025C18.3273 9.16806 19.9457 9.95719 21.139 11.2467C22.3391 12.5436 23 14.2318 23 16C23 17.7682 22.3391 19.4564 21.139 20.7533C19.9457 22.0428 18.3273 22.8319 16.5819 22.9754C16.3962 22.9916 16.1988 23 16 23ZM16 11C13.243 11 11 13.243 11 16C11 18.757 13.243 21 16 21C16.1411 21 16.2801 20.9941 16.4132 20.9826C18.9874 20.7709 21 18.5826 21 16C21 13.4174 18.9874 11.2291 16.4181 11.0179C16.2801 11.0059 16.1411 11 16 11Z" fill="#1971BD"/>
</svg>
