<svg width="32" height="32" viewBox="0 0 32 32" fill="none" xmlns="http://www.w3.org/2000/svg">
<path d="M25.75 3H6.25C4.45763 3 3 4.45763 3 6.25V25.75C3 27.5424 4.45763 29 6.25 29H25.75C27.5424 29 29 27.5424 29 25.75V6.25C29 4.45763 27.5424 3 25.75 3ZM5.16667 25.75V6.25C5.16667 5.65254 5.65254 5.16667 6.25 5.16667H10.5833V26.8333H6.25C5.65254 26.8333 5.16667 26.3475 5.16667 25.75ZM26.8333 25.75C26.8333 26.3475 26.3475 26.8333 25.75 26.8333H12.75V5.16667H25.75C26.3475 5.16667 26.8333 5.65254 26.8333 6.25V25.75Z" fill="#1971BD"/>
</svg>
