<svg width="32" height="32" viewBox="0 0 32 32" fill="none" xmlns="http://www.w3.org/2000/svg">
<path d="M16.0001 1.00282H25.1429C25.8577 0.970532 26.5572 1.2165 27.0944 1.68904C27.6316 2.16159 27.9648 2.82395 28.024 3.53698C28.0832 4.25002 27.8637 4.95824 27.4117 5.51288C26.9597 6.06752 26.3104 6.42542 25.6001 6.51139H25.0515H6.85723C6.3653 6.5275 5.87798 6.41205 5.44558 6.17694C5.01317 5.94183 4.65134 5.59559 4.39742 5.17396C4.14351 4.75232 4.00671 4.27056 4.00115 3.7784C3.99559 3.28624 4.12147 2.80151 4.3658 2.37425C4.59178 1.9642 4.92231 1.6213 5.32378 1.38042C5.72526 1.13953 6.18336 1.00925 6.65151 1.00282H16.0001ZM25.1429 2.55711C24.9849 2.55407 24.8279 2.58257 24.6811 2.64093C24.5342 2.6993 24.4005 2.78637 24.2877 2.89704C24.1749 3.00772 24.0853 3.13977 24.0241 3.28549C23.963 3.4312 23.9315 3.58765 23.9315 3.74568C23.9253 4.07525 24.0488 4.39409 24.2754 4.6335C24.502 4.87291 24.8135 5.01375 25.1429 5.02568C25.4667 5.01431 25.7741 4.88062 26.0031 4.65156C26.2322 4.42251 26.3659 4.11512 26.3772 3.79139C26.3772 3.46404 26.2472 3.15009 26.0157 2.91862C25.7842 2.68715 25.4703 2.55711 25.1429 2.55711Z" fill="#1971BD"/>
<path d="M15.9999 7.56281H24.9828C25.4812 7.55223 25.9729 7.67882 26.4042 7.92874C26.8355 8.17866 27.1898 8.5423 27.4285 8.97995C27.6555 9.38159 27.7784 9.83362 27.786 10.2949C27.7937 10.7562 27.6858 11.212 27.4723 11.621C27.2587 12.0299 26.9462 12.3789 26.5633 12.6362C26.1804 12.8935 25.7392 13.051 25.2799 13.0942H6.99422C6.61735 13.1273 6.23766 13.0857 5.87685 12.972C5.51603 12.8583 5.18116 12.6746 4.89136 12.4314C4.48206 12.0738 4.18928 11.6018 4.05076 11.0762C3.91224 10.5507 3.93435 9.99568 4.11422 9.48281C4.26054 8.97565 4.55743 8.52489 4.96559 8.1902C5.37376 7.8555 5.87394 7.65266 6.39993 7.60852C6.64318 7.58511 6.88812 7.58511 7.13136 7.60852L15.9999 7.56281ZM25.1428 11.54C25.4668 11.5346 25.7766 11.4066 26.0099 11.1818C26.2433 10.957 26.3826 10.6521 26.3999 10.3285C26.3826 10.005 26.2433 9.70005 26.0099 9.47522C25.7766 9.2504 25.4668 9.12242 25.1428 9.11709C24.8215 9.11709 24.5134 9.24473 24.2862 9.47191C24.059 9.6991 23.9314 10.0072 23.9314 10.3285C23.9283 10.4885 23.9575 10.6474 24.0172 10.7958C24.077 10.9441 24.1661 11.0789 24.2793 11.1921C24.3924 11.3052 24.5272 11.3943 24.6755 11.4541C24.8239 11.5138 24.9828 11.5431 25.1428 11.54Z" fill="#1971BD"/>
<path d="M16.0001 19.6771H6.85721C6.19686 19.6676 5.5613 19.4241 5.0637 18.9898C4.56611 18.5556 4.23878 17.9589 4.14001 17.3059C4.04124 16.6529 4.17743 15.986 4.52434 15.424C4.87124 14.8621 5.40634 14.4414 6.03436 14.2371C6.31451 14.1926 6.59992 14.1926 6.88007 14.2371H25.1658C25.8993 14.2371 26.6028 14.5285 27.1214 15.0471C27.6401 15.5658 27.9315 16.2693 27.9315 17.0028C27.9315 17.7363 27.6401 18.4398 27.1214 18.9585C26.6028 19.4771 25.8993 19.7685 25.1658 19.7685L16.0001 19.6771ZM25.1429 18.1228C25.4514 18.1241 25.7492 18.0099 25.9777 17.8026C26.2061 17.5953 26.3487 17.31 26.3772 17.0028C26.3864 16.8328 26.3617 16.6627 26.3043 16.5024C26.247 16.3421 26.1583 16.1949 26.0433 16.0693C25.9284 15.9437 25.7895 15.8423 25.6349 15.771C25.4803 15.6998 25.3131 15.6601 25.1429 15.6542C24.8174 15.6601 24.5069 15.792 24.2766 16.0222C24.0464 16.2525 23.9145 16.563 23.9086 16.8885C23.9055 17.0515 23.9353 17.2134 23.9963 17.3645C24.0572 17.5157 24.148 17.653 24.2632 17.7682C24.3785 17.8834 24.5158 17.9742 24.6669 18.0352C24.8181 18.0961 24.98 18.1259 25.1429 18.1228Z" fill="#1971BD"/>
<path d="M17.2344 24.5457C17.2344 25.2543 17.2344 25.9628 17.2344 26.6714C17.2418 26.8759 17.323 27.0708 17.463 27.22C17.7483 27.5535 17.9316 27.9621 17.9909 28.397C18.0502 28.8319 17.983 29.2747 17.7974 29.6724C17.6118 30.0701 17.3156 30.406 16.9442 30.6399C16.5728 30.8738 16.1419 30.9958 15.703 30.9914C15.2664 30.9373 14.8569 30.7505 14.5299 30.4562C14.2029 30.1618 13.9741 29.7742 13.8744 29.3457C13.7662 28.9893 13.7602 28.6096 13.8572 28.2499C13.9541 27.8903 14.1502 27.5651 14.423 27.3114C14.5251 27.2106 14.6045 27.089 14.6557 26.955C14.707 26.821 14.7289 26.6775 14.7201 26.5343V22.4428C14.707 22.1447 14.8088 21.8529 15.0044 21.6275C15.2 21.4021 15.4746 21.2604 15.7716 21.2314C16.0488 21.186 16.3332 21.2329 16.581 21.3651C16.8289 21.4973 17.0263 21.7073 17.143 21.9628C17.1754 22.1058 17.1754 22.2542 17.143 22.3971L17.2344 24.5457Z" fill="#1971BD"/>
<path d="M19.0173 29.3686V28.2486H31.6802C31.9316 28.2486 32.0002 28.2486 32.0002 28.6829C32.0002 29.4372 32.0002 29.4372 31.4516 29.4372H19.0173V29.3686Z" fill="#1971BD"/>
<path d="M12.9829 28.2257V29.3686H0.297143C0.0685714 29.3686 0 29.2543 0 28.9343C0 28.18 0 28.18 0.525714 28.18H12.9829V28.2257Z" fill="#1971BD"/>
</svg>
