<svg width="32" height="32" viewBox="0 0 32 32" fill="none" xmlns="http://www.w3.org/2000/svg">
<g clip-path="url(#clip0)">
<path d="M30.999 15.7868C29.9291 14.905 28.2379 14.8293 27.128 16.0205L24.3726 18.9785C24.0163 17.8335 22.947 16.9998 21.6865 16.9998H16.7693C16.3962 16.9998 16.2712 16.8573 15.6231 16.358C13.152 14.2038 9.44038 14.2106 6.97675 16.3786L5.16938 17.9698C4.35694 17.5398 3.40825 17.5291 2.59138 17.9373L0.518375 18.9735C0.0552505 19.2053 -0.132187 19.7684 0.0990005 20.2315L5.72369 31.4808C5.95556 31.944 6.51863 32.1314 6.98175 31.9002L9.05475 30.8634C10.0766 30.3528 10.6452 29.3103 10.6084 28.2492H21.6864C23.7407 28.2492 25.7037 27.268 26.9361 25.6244L31.4365 19.6235C32.3096 18.4604 32.1714 16.7548 30.999 15.7868ZM8.216 29.1866L6.98169 29.804L2.19513 20.2315L3.43006 19.6141C3.89319 19.3828 4.45563 19.5697 4.6875 20.0335L8.63538 27.9292C8.86662 28.3923 8.67912 28.9547 8.216 29.1866ZM29.9366 18.4985L25.4363 24.4994C24.5557 25.6737 23.1539 26.3743 21.6865 26.3743H9.95406L6.44113 19.3478L8.21537 17.7861C9.98088 16.233 12.6432 16.233 14.4087 17.7861C15.4487 18.7016 16.0955 18.8748 16.7693 18.8748H21.6864C22.2033 18.8748 22.6239 19.2954 22.6239 19.8122C22.6239 20.329 22.2033 20.7496 21.6864 20.7496H16.8986C16.3811 20.7496 15.9612 21.1696 15.9612 21.6871C15.9612 22.2045 16.3812 22.6245 16.8986 22.6245H22.3146C23.0926 22.6245 23.8426 22.2983 24.3726 21.729L28.4998 17.2986C28.8773 16.8936 29.456 16.9273 29.811 17.238C30.1822 17.5629 30.2222 18.1185 29.9366 18.4985Z" fill="#1971BD"/>
<path d="M17.0682 2.68732e-05C15.7358 -0.00373674 14.4324 0.387901 13.3228 1.12536C12.2131 1.86281 11.3473 2.91293 10.8348 4.14275C10.3224 5.37256 10.1863 6.72679 10.4439 8.03396C10.7016 9.34114 11.3412 10.5425 12.282 11.4859C13.2228 12.4293 14.4223 13.0724 15.7287 13.3337C17.0352 13.595 18.3898 13.4628 19.621 12.9538C20.8523 12.4449 21.9049 11.582 22.6455 10.4745C23.3861 9.36695 23.7814 8.06458 23.7814 6.73226C23.7814 4.95005 23.0747 3.24056 21.8163 1.97856C20.5579 0.71657 18.8504 0.00506137 17.0682 2.68732e-05ZM22.1649 5.93353H19.8637C19.8211 4.69203 19.6034 3.46278 19.2171 2.28214L19.103 1.99688C19.9038 2.34183 20.6044 2.8836 21.1397 3.57184C21.675 4.26009 22.0277 5.07248 22.1649 5.93353ZM11.9904 7.51199H14.3296C14.3614 8.75152 14.5663 9.98052 14.9382 11.1634C14.9301 11.2583 14.9301 11.3537 14.9382 11.4486C14.1577 11.0901 13.4793 10.5421 12.9645 9.85459C12.4497 9.16708 12.1149 8.36182 11.9904 7.51199ZM14.9382 2.28214C14.5663 3.46499 14.3614 4.694 14.3296 5.93353H11.9904C12.1241 5.07386 12.4733 4.26203 13.0053 3.57369C13.5374 2.88534 14.235 2.34289 15.0333 1.99688C15.0252 2.09179 15.0252 2.18723 15.0333 2.28214H14.9382ZM17.7908 10.4407C17.695 10.9767 17.4437 11.4727 17.0682 11.867C16.6988 11.4684 16.4485 10.9743 16.3455 10.4407C16.0809 9.48533 15.9278 8.50256 15.8891 7.51199H18.2472C18.2085 8.50256 18.0554 9.48533 17.7908 10.4407ZM15.8891 5.93353C15.9264 4.94282 16.0796 3.9599 16.3455 3.00481C16.4485 2.47121 16.6988 1.97712 17.0682 1.57849C17.4437 1.97278 17.695 2.4688 17.7908 3.00481C18.0567 3.9599 18.2099 4.94282 18.2472 5.93353H15.8891ZM19.103 11.4486L19.2171 11.1634C19.6034 9.98274 19.8211 8.75348 19.8637 7.51199H22.1649C22.0277 8.37303 21.675 9.18542 21.1397 9.87367C20.6044 10.5619 19.9038 11.1037 19.103 11.4486Z" fill="#1971BD"/>
</g>
<defs>
<clipPath id="clip0">
<rect width="32" height="32" fill="white"/>
</clipPath>
</defs>
</svg>
