<svg width="32" height="32" viewBox="0 0 32 32" fill="none" xmlns="http://www.w3.org/2000/svg">
<path d="M25.3182 8.67031L26.9177 11.618C27.0245 11.7124 27.1638 11.7616 27.3062 11.7551L31.1907 12.1207C31.2508 12.1176 31.3108 12.1264 31.3675 12.1466C31.4241 12.1668 31.4762 12.1979 31.5208 12.2382C31.5653 12.2786 31.6015 12.3273 31.6272 12.3816C31.6529 12.436 31.6677 12.4948 31.6706 12.5549C31.742 13.2303 31.8487 13.9015 31.9905 14.5657C32.0006 14.6048 32.0027 14.6455 31.9965 14.6853C31.9904 14.7252 31.9762 14.7634 31.9548 14.7976C31.9335 14.8318 31.9053 14.8613 31.8722 14.8843C31.839 14.9073 31.8015 14.9233 31.762 14.9313C30.5509 15.4112 29.3627 15.891 28.1516 16.3252C28.0385 16.3542 27.9375 16.4187 27.8636 16.5091C27.7896 16.5995 27.7464 16.7112 27.7403 16.8279C27.6261 17.7191 27.4661 18.6331 27.2605 19.5242C27.2605 19.7756 27.2605 19.9127 27.4204 20.0726C28.4555 20.8974 29.3978 21.8321 30.231 22.8604C30.2924 22.9342 30.3259 23.0272 30.3259 23.1232C30.3259 23.2191 30.2924 23.3121 30.231 23.3859L29.2942 24.9855C28.9971 25.4653 28.5858 25.4882 28.1973 24.9855L26.3465 22.9061L24.13 20.5753C24.0721 20.5088 24.0402 20.4236 24.0402 20.3354C24.0402 20.2472 24.0721 20.162 24.13 20.0955C25.079 18.2656 25.3817 16.1687 24.9888 14.1451C24.5959 12.1216 23.5305 10.2902 21.9656 8.94849C20.4007 7.60674 18.4282 6.83337 16.3684 6.75393C14.3086 6.6745 12.2824 7.29367 10.6189 8.51092C8.9553 9.72816 7.75204 11.472 7.20445 13.4593C6.65687 15.4466 6.79713 17.5606 7.60245 19.4581C8.40776 21.3556 9.83085 22.9252 11.6406 23.912C13.4504 24.8988 15.5407 25.2449 17.5719 24.8941C17.708 24.9175 17.8471 24.9175 17.9832 24.8941C18.5545 24.6199 18.8516 24.8941 19.1715 25.3511C20.2226 26.8592 21.4565 28.3673 22.4391 29.9211C22.6904 30.2411 22.5762 30.6067 22.5762 30.9723C22.5762 31.043 22.4619 31.0865 22.3934 31.1094L20.3368 31.8406C20.1312 31.8406 20.0169 31.8406 19.9027 31.6578C19.24 30.561 18.5545 29.3727 17.9147 28.3673C17.874 28.2591 17.7973 28.1681 17.6974 28.1098C17.5975 28.0516 17.4805 28.0295 17.3663 28.0474H14.4871C14.4022 28.028 14.3132 28.0378 14.2344 28.0751C14.1557 28.1124 14.0918 28.1751 14.053 28.2531L11.7679 31.475C11.7372 31.5343 11.6944 31.5865 11.6424 31.6283C11.5903 31.6701 11.5301 31.7006 11.4656 31.7178C11.401 31.735 11.3336 31.7385 11.2677 31.7282C11.2017 31.7179 11.1386 31.6939 11.0824 31.6578C10.4883 31.4064 9.87136 31.2008 9.2544 30.9723C9.07159 30.9723 8.98019 30.7666 9.02589 30.561C9.23155 29.2585 9.41435 27.9789 9.62 26.6764C9.64848 26.5875 9.6459 26.4916 9.61268 26.4044C9.57946 26.3172 9.51758 26.2439 9.4372 26.1965C8.70599 25.6024 7.97478 24.9855 7.15216 24.3457C7.08004 24.3012 6.99697 24.2776 6.91224 24.2776C6.8275 24.2776 6.74443 24.3012 6.67231 24.3457L2.83345 25.3739C2.78114 25.3956 2.72491 25.4063 2.66829 25.4053C2.61166 25.4043 2.55586 25.3916 2.50438 25.368C2.45289 25.3444 2.40683 25.3104 2.36909 25.2682C2.33135 25.2259 2.30273 25.1764 2.28504 25.1226C1.96513 24.5513 1.64523 23.9801 1.30247 23.4088C1.26723 23.3747 1.2392 23.3339 1.22006 23.2887C1.20092 23.2436 1.19106 23.195 1.19106 23.146C1.19106 23.097 1.20092 23.0484 1.22006 23.0033C1.2392 22.9582 1.26723 22.9173 1.30247 22.8832L4.38727 20.0269C4.48871 19.9539 4.56214 19.8483 4.59538 19.7278C4.62863 19.6073 4.6197 19.479 4.57007 19.3643C4.38727 18.496 4.22732 17.6048 4.11307 16.7136C4.10297 16.6075 4.06338 16.5063 3.99877 16.4215C3.93416 16.3367 3.84711 16.2717 3.74746 16.2338L0.228504 14.5429C0 14.4514 0 14.3143 0 14.0858C0.137102 13.4003 0.251354 12.692 0.411307 11.9836C0.439344 11.9291 0.47807 11.8807 0.525178 11.8415C0.572286 11.8022 0.626813 11.7728 0.685511 11.7551L4.57007 11.6637C4.69668 11.686 4.82705 11.6611 4.93653 11.5937C5.04601 11.5263 5.127 11.4212 5.16418 11.2981C5.55264 10.5669 5.96394 9.83567 6.42095 9.15016C6.52843 9.01331 6.58686 8.84433 6.58686 8.67031C6.58686 8.49629 6.52843 8.32731 6.42095 8.19045C5.87254 7.09363 5.39269 5.90541 4.86713 4.80859C4.83898 4.76582 4.82013 4.71761 4.81179 4.66709C4.80346 4.61657 4.80584 4.56486 4.81876 4.51532C4.83169 4.46577 4.85488 4.41949 4.88682 4.37948C4.91877 4.33946 4.95877 4.30661 5.00423 4.28304L6.55805 3.00342C6.58799 2.96539 6.62617 2.93465 6.66971 2.91352C6.71324 2.89238 6.76101 2.8814 6.80941 2.8814C6.85781 2.8814 6.90557 2.89238 6.94911 2.91352C6.99265 2.93465 7.03082 2.96539 7.06076 3.00342C8.06618 3.80318 9.07159 4.58009 10.0542 5.28845C10.1478 5.36453 10.2648 5.40605 10.3855 5.40605C10.5062 5.40605 10.6232 5.36453 10.7168 5.28845C11.5166 4.96855 12.3163 4.64864 13.139 4.39729C13.256 4.39568 13.3705 4.36312 13.4708 4.30292C13.5711 4.24271 13.6537 4.15701 13.7102 4.05453C14.0073 2.82061 14.35 1.60954 14.6928 0.398474C14.7009 0.33585 14.7218 0.275581 14.7544 0.221469C14.7869 0.167357 14.8303 0.120577 14.8819 0.0840782C14.9334 0.0475796 14.9919 0.0221551 15.0538 0.00940836C15.1156 -0.00333837 15.1794 -0.00313071 15.2412 0.0100182H17.252C17.4805 0.0100182 17.5491 0.12427 17.5948 0.307073L18.2803 4.21449C18.2803 4.39729 18.2803 4.51154 18.5773 4.58009L21.2737 5.56266C21.3528 5.62199 21.449 5.65406 21.5479 5.65406C21.6468 5.65406 21.743 5.62199 21.8221 5.56266C22.8356 4.65741 23.9469 3.86801 25.1354 3.20907C25.2019 3.1512 25.2871 3.11933 25.3753 3.11933C25.4635 3.11933 25.5487 3.1512 25.6153 3.20907L27.2148 4.58009C27.2445 4.60788 27.2683 4.64149 27.2845 4.67884C27.3007 4.71618 27.3091 4.75646 27.3091 4.79717C27.3091 4.83788 27.3007 4.87816 27.2845 4.9155C27.2683 4.95285 27.2445 4.98646 27.2148 5.01425L25.3182 8.46465C25.3285 8.53281 25.3285 8.60215 25.3182 8.67031Z" fill="#1971BD"/>
<path d="M17.5033 20.7124L17.0234 21.1009C16.8197 21.2752 16.5813 21.4043 16.3241 21.4798C16.0668 21.5552 15.7964 21.5752 15.5308 21.5385C15.2652 21.5018 15.0104 21.4092 14.7833 21.2668C14.5561 21.1244 14.3617 20.9355 14.2128 20.7124C13.3674 19.5014 12.5448 18.2903 11.745 17.0335C11.6089 16.8318 11.5145 16.6049 11.4672 16.3662C11.4199 16.1275 11.4208 15.8818 11.4697 15.6434C11.5187 15.4051 11.6147 15.1789 11.7523 14.9781C11.8898 14.7773 12.066 14.6061 12.2706 14.4743L13.7101 16.4394L15.0126 18.0847C15.077 18.2247 15.1757 18.3463 15.2996 18.4379C15.4236 18.5296 15.5687 18.5884 15.7215 18.609C15.8743 18.6295 16.0298 18.611 16.1735 18.5553C16.3172 18.4996 16.4445 18.4084 16.5436 18.2903L18.2802 16.8736C18.3895 16.7881 18.4778 16.6788 18.5386 16.5541C18.5993 16.4294 18.6309 16.2925 18.6309 16.1538C18.6309 16.0151 18.5993 15.8782 18.5386 15.7535C18.4778 15.6288 18.3895 15.5195 18.2802 15.434C17.389 14.36 16.475 13.2861 15.5839 12.1893L15.3554 11.9379C15.6345 11.6144 16.0271 11.4104 16.4523 11.3678C16.8775 11.3253 17.3027 11.4476 17.6404 11.7094C18.0071 11.9774 18.3442 12.2838 18.6458 12.6234C19.4456 13.4003 20.1996 14.2001 20.9309 14.9085C21.15 15.0999 21.3227 15.3387 21.4359 15.6067C21.5492 15.8747 21.6 16.1649 21.5846 16.4555C21.5692 16.746 21.488 17.0293 21.347 17.2838C21.206 17.5383 21.009 17.7575 20.7709 17.9247L20.4281 18.2903L20.8623 18.793L28.54 27.4305C28.9243 27.8008 29.1668 28.2939 29.2255 28.8243C29.2461 29.0096 29.2191 29.197 29.1472 29.3689C29.0752 29.5408 28.9606 29.6915 28.8142 29.8069L27.0776 31.2236C26.886 31.4113 26.6345 31.5255 26.3671 31.5464C26.0998 31.5673 25.8336 31.4935 25.6152 31.3379C25.2673 31.134 24.9642 30.862 24.724 30.5381L17.709 20.9409L17.5033 20.7124ZM26.1636 29.7155C26.499 29.7095 26.8186 29.572 27.0537 29.3327C27.2887 29.0934 27.4204 28.7713 27.4204 28.4359C27.4145 28.0983 27.2778 27.7762 27.0391 27.5375C26.8004 27.2988 26.4783 27.1621 26.1407 27.1562C25.8014 27.1562 25.4759 27.2911 25.2359 27.531C24.9959 27.771 24.8611 28.0965 24.8611 28.4359C24.8611 28.7752 24.9959 29.1007 25.2359 29.3407C25.4759 29.5807 25.8014 29.7155 26.1407 29.7155H26.1636Z" fill="#1971BD"/>
</svg>
