<svg width="32" height="32" viewBox="0 0 32 32" fill="none" xmlns="http://www.w3.org/2000/svg">
<g clip-path="url(#clip0)">
<path fill-rule="evenodd" clip-rule="evenodd" d="M26.9368 12.9867C26.0984 12.4081 25.5076 11.536 25.2813 10.543C25.0549 9.5498 25.2094 8.50781 25.7143 7.62317C25.9639 7.18677 26.0769 6.68555 26.0387 6.1842C26.0006 5.68286 25.813 5.20459 25.5002 4.81091C25.1874 4.41736 24.7639 4.12659 24.2841 3.97607C23.8044 3.82568 23.2906 3.82251 22.8091 3.96704C21.8348 4.26416 20.7846 4.18494 19.866 3.74512C18.9473 3.30518 18.2272 2.53674 17.8478 1.59143C17.6627 1.12219 17.3406 0.719482 16.9235 0.435547C16.5065 0.151733 16.0136 0 15.5091 0C15.0046 0 14.5118 0.151733 14.0947 0.435547C13.6776 0.719482 13.3555 1.12219 13.1704 1.59143C12.7929 2.53589 12.0752 3.30457 11.1589 3.74597C10.2426 4.18726 9.19422 4.26941 8.22034 3.97595C7.73877 3.83142 7.22498 3.83459 6.74524 3.98499C6.26563 4.1355 5.84192 4.42627 5.52918 4.81995C5.21644 5.2135 5.02881 5.69189 4.99073 6.19312C4.95252 6.69446 5.06556 7.19568 5.31507 7.63208C5.81995 8.51685 5.97449 9.55872 5.74817 10.5519C5.52186 11.545 4.93104 12.4171 4.09266 12.9956C3.67676 13.2808 3.35621 13.6843 3.17261 14.1539C2.98902 14.6237 2.95081 15.1376 3.06312 15.6293C3.17542 16.1208 3.43299 16.5673 3.80225 16.9106C4.17164 17.254 4.63563 17.4784 5.13404 17.5546C6.1388 17.7126 7.04773 18.2412 7.68189 19.0364C8.31605 19.8314 8.6294 20.8352 8.56006 21.8499C8.52369 22.3527 8.63929 22.8549 8.89185 23.2911C9.14441 23.7274 9.52234 24.0776 9.97657 24.2964C10.4307 24.5153 10.9402 24.5924 11.4388 24.5179C11.9374 24.4436 12.4021 24.2209 12.7726 23.879C13.5225 23.1925 14.5024 22.8116 15.5192 22.8116C16.536 22.8116 17.5158 23.1925 18.2658 23.879C18.6362 24.2209 19.101 24.4436 19.5996 24.5179C20.0982 24.5924 20.6076 24.5153 21.0618 24.2964C21.516 24.0776 21.8939 23.7274 22.1465 23.2911C22.3991 22.8549 22.5147 22.3527 22.4783 21.8499C22.409 20.8352 22.7222 19.8314 23.3565 19.0364C23.9906 18.2412 24.8996 17.7126 25.9042 17.5546C26.4027 17.4784 26.8668 17.254 27.2361 16.9106C27.6054 16.5673 27.8629 16.1208 27.9752 15.6293C28.0875 15.1376 28.0494 14.6237 27.8658 14.1539C27.6822 13.6843 27.3616 13.2808 26.9457 12.9956L26.9368 12.9867ZM15.5103 20.9962C13.8832 20.9962 12.2928 20.5137 10.9399 19.6097C9.58716 18.7059 8.53272 17.4211 7.91016 15.918C7.28748 14.4148 7.12464 12.7607 7.44202 11.165C7.7594 9.56934 8.54297 8.10352 9.69336 6.953C10.8439 5.80261 12.3096 5.01904 13.9054 4.70166C15.5011 4.38428 17.1552 4.54724 18.6583 5.1698C20.1614 5.79248 21.4462 6.8468 22.3502 8.19958C23.254 9.55237 23.7365 11.1429 23.7365 12.7699C23.7341 14.9509 22.8667 17.0419 21.3245 18.5841C19.7823 20.1263 17.6912 20.9938 15.5103 20.9962ZM11.5495 26.0399C12.3548 25.92 13.1039 25.5558 13.6956 24.9963C13.9823 24.7333 14.3267 24.5411 14.7012 24.4354L11.387 31.7678C11.355 31.8372 11.3038 31.8959 11.2394 31.937C11.1751 31.9781 11.1003 32 11.0239 32C10.9475 32 10.8727 31.9781 10.8084 31.937C10.7823 31.9204 10.7584 31.9009 10.737 31.8789C10.7056 31.8466 10.6798 31.8091 10.6607 31.7678L9.97461 30.351C9.77747 29.9424 9.44275 29.6162 9.0293 29.4294C8.61585 29.2428 8.14991 29.2074 7.71302 29.3296L6.19556 29.752C6.12208 29.7726 6.04432 29.7717 5.9712 29.7495C5.8982 29.7273 5.83314 29.6847 5.78345 29.6266C5.76417 29.6041 5.74756 29.5796 5.73389 29.5537C5.71241 29.5128 5.69788 29.4683 5.69141 29.422C5.68726 29.3925 5.68653 29.3628 5.68897 29.3335C5.69288 29.2875 5.70472 29.2423 5.72413 29.2L7.80689 24.5919C8.1858 25.0459 8.65845 25.4126 9.19251 25.6667C9.92139 26.0295 10.7441 26.1599 11.5495 26.0399ZM23.2158 24.5986L25.2986 29.2046H25.3031C25.3255 29.2533 25.3378 29.3057 25.3396 29.3588C25.34 29.3712 25.3398 29.3837 25.3391 29.3961C25.3385 29.4065 25.3375 29.417 25.336 29.4274C25.33 29.4706 25.3169 29.5123 25.2976 29.551C25.283 29.5802 25.2648 29.6077 25.2434 29.6327C25.1934 29.6908 25.1279 29.7334 25.0545 29.7554C24.9811 29.7773 24.903 29.7777 24.8293 29.7566L23.3118 29.3341C22.8749 29.2119 22.409 29.2473 21.9956 29.4341C21.5821 29.6207 21.2474 29.9469 21.0502 30.3555L20.3641 31.7723C20.3321 31.8417 20.2809 31.9004 20.2166 31.9415C20.1967 31.9542 20.1758 31.9652 20.1542 31.9742C20.1416 31.9794 20.1287 31.9839 20.1157 31.9878C20.1082 31.9901 20.1006 31.9921 20.093 31.9939C20.063 32.001 20.0322 32.0046 20.001 32.0046C19.9866 32.0046 19.9722 32.0038 19.9579 32.0022C19.9327 31.9995 19.9079 31.9945 19.8838 31.9871C19.8668 31.9818 19.8501 31.9755 19.8339 31.968C19.8173 31.9603 19.801 31.9515 19.7855 31.9415C19.7588 31.9244 19.7344 31.9044 19.7127 31.8818C19.6884 31.8567 19.6676 31.8284 19.6507 31.7976C19.6461 31.7893 19.6419 31.7809 19.6379 31.7723L16.3237 24.4399C16.6976 24.5466 17.0413 24.7395 17.3271 25.0032C17.9187 25.5626 18.6679 25.9269 19.4732 26.0468C20.2785 26.1666 21.1013 26.0364 21.8302 25.6736C22.3641 25.4193 22.8367 25.0526 23.2158 24.5986ZM10.7805 17.4972C12.0346 18.7512 13.7344 19.4574 15.5079 19.4609C17.2837 19.4609 18.9871 18.7563 20.244 17.502C21.501 16.2476 22.2087 14.5458 22.2123 12.7699C22.2123 10.9918 21.506 9.2865 20.2487 8.02917C18.9913 6.77185 17.286 6.06555 15.5079 6.06555C13.7321 6.06909 12.0303 6.77698 10.7759 8.03394C9.52149 9.29089 8.8169 10.9941 8.8169 12.7699C8.82044 14.5435 9.52649 16.2432 10.7805 17.4972ZM15.0979 15.3857C15.2293 15.3391 15.369 15.3213 15.5079 15.3333L15.5169 15.3354C15.6548 15.3248 15.7933 15.3436 15.9234 15.3907C16.0534 15.4377 16.1718 15.512 16.2709 15.6084C16.3264 15.6624 16.3752 15.7225 16.4163 15.7876C16.4486 15.8389 16.4761 15.8932 16.4985 15.9498C16.5491 16.0785 16.5718 16.2164 16.565 16.3545C16.5716 16.4932 16.5485 16.6317 16.4971 16.7606C16.4457 16.8895 16.3673 17.006 16.2671 17.1022C16.2035 17.1632 16.132 17.2152 16.0548 17.2568C16.0105 17.2806 15.9643 17.3011 15.9166 17.3179C15.7856 17.3639 15.6462 17.3815 15.5079 17.3691C15.4237 17.376 15.3391 17.3718 15.2563 17.3571C15.2034 17.3475 15.1513 17.3337 15.1003 17.3156C14.9698 17.2692 14.8504 17.1956 14.7503 17.0997C14.6503 17.0039 14.5718 16.8879 14.5198 16.7595C14.4678 16.631 14.4434 16.493 14.4486 16.3545C14.4417 16.2153 14.4647 16.0762 14.516 15.9467C14.5673 15.817 14.6459 15.7 14.7462 15.6031C14.8466 15.5065 14.9665 15.4323 15.0979 15.3857ZM16.0911 9.29675C15.9327 9.24902 15.7661 9.23474 15.6018 9.25464L15.6108 9.25684C15.433 9.24048 15.2537 9.26099 15.0842 9.31714C14.9147 9.37317 14.7586 9.46362 14.6257 9.58276C14.4927 9.7019 14.3857 9.84717 14.3114 10.0095C14.2371 10.1718 14.1971 10.3477 14.1939 10.5262H12.6942C12.6997 10.1523 12.7838 9.78394 12.9409 9.4447C13.098 9.10547 13.3247 8.8031 13.6062 8.55713C13.8878 8.31116 14.2179 8.1272 14.5752 8.01709C14.9325 7.9071 15.3089 7.87329 15.6801 7.91821C16.0319 7.87317 16.389 7.901 16.7295 8.00024C17.0701 8.09937 17.3866 8.2677 17.6592 8.49451C17.9318 8.72144 18.1546 9.00208 18.314 9.31897C18.4733 9.63574 18.5656 9.98206 18.5851 10.3362C18.5863 10.7878 18.4616 11.231 18.2247 11.6155C17.9879 12 17.6482 12.3108 17.2443 12.5129C16.413 13.0001 16.1716 13.3241 16.1716 13.9589V14.3231H14.6922V13.8918C14.6483 13.4678 14.7402 13.0409 14.9547 12.6726C15.1691 12.3042 15.4954 12.0135 15.8857 11.8425C16.6947 11.353 16.9426 11.0156 16.9426 10.3966C16.936 10.2312 16.8954 10.069 16.8231 9.92017C16.7507 9.77136 16.6484 9.63916 16.5225 9.53186C16.3965 9.42456 16.2496 9.34448 16.0911 9.29675Z" fill="#1971BD"/>
</g>
<defs>
<clipPath id="clip0">
<rect width="32" height="32" fill="white"/>
</clipPath>
</defs>
</svg>
