<svg xmlns="http://www.w3.org/2000/svg" width="11.206" height="14.319" viewBox="0 0 11.206 14.319">
  <g id="certificates" transform="translate(-55.666)">
    <g id="Group_9377" data-name="Group 9377" transform="translate(56.872 10.933)">
      <g id="Group_9376" data-name="Group 9376" transform="translate(0)">
        <path id="Path_21133" data-name="Path 21133" d="M102.343,391.178a1.779,1.779,0,0,1-2.015.3,1.836,1.836,0,0,1-.62-.481l-.932,2.062a.179.179,0,0,0,.211.247l.679-.189a.865.865,0,0,1,1.012.457l.307.634a.179.179,0,0,0,.325,0l1.483-3.281A1.113,1.113,0,0,0,102.343,391.178Z" transform="translate(-98.758 -390.926)" fill="#0071bd"/>
      </g>
    </g>
    <g id="Group_9379" data-name="Group 9379" transform="translate(61.633 10.933)">
      <g id="Group_9378" data-name="Group 9378">
        <path id="Path_21134" data-name="Path 21134" d="M273.038,393.061,272.106,391a1.836,1.836,0,0,1-.62.481,1.779,1.779,0,0,1-2.015-.3,1.113,1.113,0,0,0-.449-.252l1.483,3.281a.179.179,0,0,0,.325,0l.307-.634a.865.865,0,0,1,1.012-.457l.679.189a.179.179,0,0,0,.211-.247Z" transform="translate(-269.022 -390.926)" fill="#0071bd"/>
      </g>
    </g>
    <g id="Group_9381" data-name="Group 9381" transform="translate(55.666)">
      <g id="Group_9380" data-name="Group 9380" transform="translate(0)">
        <path id="Path_21135" data-name="Path 21135" d="M66.382,5.811a1.82,1.82,0,0,1-.547-2.4,1.125,1.125,0,0,0-1.3-1.636A1.82,1.82,0,0,1,62.315.712a1.125,1.125,0,0,0-2.093,0,1.82,1.82,0,0,1-2.215,1.067,1.125,1.125,0,0,0-1.3,1.636,1.82,1.82,0,0,1-.547,2.4,1.125,1.125,0,0,0,.466,2.04,1.82,1.82,0,0,1,1.533,1.922,1.125,1.125,0,0,0,1.885.908,1.82,1.82,0,0,1,2.458,0,1.125,1.125,0,0,0,1.885-.908,1.82,1.82,0,0,1,1.533-1.922,1.125,1.125,0,0,0,.466-2.04ZM61.269,9.395A3.681,3.681,0,1,1,64.95,5.714,3.685,3.685,0,0,1,61.269,9.395Z" transform="translate(-55.666 0)" fill="#0071bd"/>
      </g>
    </g>
    <g id="Group_9383" data-name="Group 9383" transform="translate(58.274 2.719)">
      <g id="Group_9382" data-name="Group 9382" transform="translate(0)">
        <path id="Path_21136" data-name="Path 21136" d="M151.915,97.225a2.995,2.995,0,1,0,2.995,2.995A3,3,0,0,0,151.915,97.225Zm1.535,2.7-1.864,1.361a.343.343,0,0,1-.483-.08l-.558-.794a.343.343,0,1,1,.562-.395l.357.508,1.582-1.155a.343.343,0,1,1,.4.554Z" transform="translate(-148.92 -97.225)" fill="#0071bd"/>
      </g>
    </g>
  </g>
</svg>
