<svg width="32" height="32" viewBox="0 0 32 32" fill="none" xmlns="http://www.w3.org/2000/svg">
<g clip-path="url(#clip0)">
<path fill-rule="evenodd" clip-rule="evenodd" d="M4.42029 13.6545C4.62572 10.4588 9.30764 6.44372 14.9662 6.10361V4.50575V1.00882C14.9662 0.255555 15.1946 0.0181363 15.9387 0.0112885H20.0771C20.2078 -0.0103678 20.3419 -0.000774265 20.4683 0.0392918C20.5946 0.0793578 20.7094 0.148737 20.8037 0.241793C20.8981 0.334849 20.9692 0.448933 21.0111 0.574698C21.0529 0.700463 21.0648 0.834357 21.045 0.965421C21.045 1.2592 21.0463 1.55273 21.0476 1.84618C21.0501 2.43282 21.0527 3.01913 21.045 3.60644C21.0314 4.35057 20.7982 4.57422 20.038 4.58335C19.2686 4.59092 18.4982 4.58844 17.7134 4.58592L17.713 4.58592H17.7129H17.7129H17.7129H17.7128C17.3152 4.58464 16.9139 4.58335 16.5071 4.58335V6.03743C21.3006 6.74961 25.334 8.52548 27.208 13.6522L4.42029 13.6545ZM15.7105 32.0136H3.21522C2.20402 32.0136 2.01455 31.8219 2.00313 30.8061L2.00313 30.8059C1.98487 28.98 1.98487 28.98 3.8611 28.98H27.9952C29.3191 28.98 29.4335 29.0896 29.4335 30.3907V30.9613C29.4084 31.7831 29.1776 32.0159 28.3513 32.0182H17.9998L15.7105 32.0136ZM27.6231 15.2615H15.7102H15.7079H12.3525H3.71973C3.33736 15.2091 2.9495 15.3057 2.63638 15.5313C2.32325 15.7569 2.1087 16.0942 2.0373 16.4735C1.83415 17.5007 2.57618 18.2996 3.76542 18.2996H27.6688C27.8881 18.3276 28.1112 18.3083 28.3225 18.2433C28.5338 18.1782 28.7287 18.0687 28.8943 17.9222C29.0598 17.7757 29.1919 17.5954 29.2821 17.3936C29.3724 17.1918 29.4187 16.9731 29.4176 16.752C29.4016 15.8207 28.737 15.2615 27.6231 15.2615ZM8.05203 27.4094H5.09845V19.8768H8.05203V27.4094ZM23.3549 19.8745V27.4072H26.3224V19.8745H23.3549ZM14.1994 19.8176V22.9105C14.1994 23.3455 14.1973 23.7806 14.1953 24.2156L14.1953 24.2162C14.1912 25.0866 14.1872 25.9571 14.1994 26.8275C14.1994 27.284 14.0876 27.4803 13.6014 27.4552C13.2966 27.4395 12.9913 27.4425 12.6862 27.4456H12.6862C12.3263 27.4491 11.9668 27.4527 11.6086 27.4255C11.5013 27.3984 11.4032 27.344 11.3232 27.2676C11.2433 27.1912 11.1842 27.0954 11.1522 26.9895C11.1217 24.7587 11.1217 22.5271 11.1522 20.2947C11.1787 20.1879 11.2326 20.0897 11.3082 20.0097C11.3838 19.9298 11.4784 19.8706 11.5835 19.8381C12.1927 19.8047 12.7995 19.8092 13.4546 19.814C13.6955 19.8157 13.9429 19.8176 14.1994 19.8176ZM20.2643 27.0055C20.2848 24.659 20.2849 22.3102 20.2849 19.8199C20.0664 19.8199 19.8526 19.819 19.6425 19.818C18.9246 19.8149 18.2515 19.812 17.591 19.8473C17.4723 19.8541 17.265 20.1577 17.265 20.3266C17.2536 22.5293 17.2533 24.7389 17.2533 26.9462C17.251 27.3091 17.3834 27.4484 17.7532 27.4484C18.0493 27.4375 18.3455 27.4403 18.6417 27.4431C19.0305 27.4468 19.4192 27.4505 19.8079 27.4233C19.9722 27.4119 20.2643 27.1539 20.2643 27.0055Z" fill="#1971BD"/>
</g>
<defs>
<clipPath id="clip0">
<rect width="32" height="32" fill="white"/>
</clipPath>
</defs>
</svg>
