<svg width="32" height="32" viewBox="0 0 32 32" fill="none" xmlns="http://www.w3.org/2000/svg">
<path d="M31.4286 1.57141H0.571426V30.1428H31.4286V1.57141Z" stroke="#1971BD" stroke-width="0.5" stroke-linecap="round" stroke-linejoin="round" stroke-dasharray="0.61 1"/>
<path fill-rule="evenodd" clip-rule="evenodd" d="M8.81139 14.4537C8.93711 12.4948 11.7968 10.0491 15.2528 9.84108V8.86737V6.73024C15.2528 6.27309 15.3968 6.12454 15.8471 6.12226H18.375C18.4547 6.10955 18.5364 6.11578 18.6133 6.14046C18.6902 6.16515 18.7601 6.2076 18.8175 6.26435C18.8749 6.3211 18.9181 6.39055 18.9436 6.46712C18.9692 6.54369 18.9766 6.62526 18.9649 6.70513V8.31883C18.9649 8.77597 18.8139 8.91079 18.3499 8.91537H16.192V9.80222C17.619 9.84701 19.0012 10.3124 20.1646 11.14C21.3281 11.9675 22.2211 13.1203 22.7316 14.4537H8.81139ZM15.7076 25.6744H8.07311C7.45368 25.6744 7.33945 25.5579 7.3326 24.9362C7.3326 24.3788 7.3326 24.0988 7.47259 23.9582C7.6139 23.8162 7.89785 23.8162 8.46842 23.8162H8.47545H23.2182C24.0273 23.8162 24.096 23.8847 24.096 24.6779V25.0276C24.0823 25.5282 23.9404 25.6721 23.4375 25.6721H15.7076V25.6744ZM22.9896 15.4342H15.7095L15.7189 15.4434H13.6615H8.38636C8.15244 15.41 7.91461 15.4684 7.72285 15.6065C7.5311 15.7445 7.40042 15.9515 7.3579 16.184C7.23218 16.808 7.68684 17.2948 8.4137 17.2948H23.0169C23.1509 17.3117 23.2869 17.2998 23.4159 17.2599C23.545 17.22 23.6642 17.1531 23.7653 17.0635C23.8663 16.9739 23.9468 16.8638 24.0019 16.7405C24.0569 16.6172 24.0852 16.4836 24.0845 16.3485C24.0776 15.7771 23.6753 15.4342 22.9896 15.4342ZM11.0307 22.856H9.2249V18.2503H11.0307V22.856ZM20.3795 18.2573V22.8539H22.1875V18.2573H20.3795ZM14.786 18.2161V20.1041V22.4972C14.786 22.7692 14.7177 22.8949 14.4205 22.8812C14.2344 22.8718 14.0473 22.8734 13.8604 22.8751H13.8604C13.641 22.877 13.4218 22.879 13.2046 22.8629C13.1402 22.8453 13.0814 22.8115 13.0338 22.7647C12.9862 22.7178 12.951 22.6596 12.9322 22.5955C12.914 21.2332 12.914 19.8702 12.9322 18.5064C12.9492 18.4415 12.9824 18.382 13.0288 18.3336C13.0752 18.2852 13.1332 18.2494 13.1973 18.2298C13.5692 18.2094 13.9437 18.2118 14.3506 18.2143H14.3508C14.4916 18.2152 14.6362 18.2161 14.786 18.2161ZM18.4888 22.6069C18.5026 21.1738 18.5028 19.7383 18.5028 18.2183C18.3623 18.2183 18.2244 18.2177 18.0883 18.217C17.6597 18.2149 17.2494 18.213 16.8365 18.2321C16.7634 18.2366 16.6373 18.4217 16.6373 18.5246V22.5726C16.6373 22.7943 16.7151 22.8789 16.9436 22.8789C17.1265 22.8719 17.3099 22.8736 17.4931 22.8753C17.7311 22.8775 17.969 22.8797 18.2054 22.8629C18.3105 22.8538 18.4888 22.6983 18.4888 22.6069Z" fill="#1971BD"/>
</svg>
