<svg xmlns="http://www.w3.org/2000/svg" width="12.525" height="14.011" viewBox="0 0 12.525 14.011">
  <g id="issuers" transform="translate(-3829.789 -2864.143)">
    <path id="Path_21140" data-name="Path 21140" d="M3839.316,2940.948c-.094.562-.156,1.048-.269,1.522a.545.545,0,0,1-.324.344,13.932,13.932,0,0,1-6.221.02c-.3-.063-.353-.24-.389-.478a10.436,10.436,0,0,0-.36-1.669v2.024c-.7-.351-1.285-.634-1.855-.935a.359.359,0,0,1-.109-.278c.021-.915.006-1.834.1-2.743a2.7,2.7,0,0,1,1.611-2.3,17.179,17.179,0,0,1,2.445-.711.357.357,0,0,1,.226.01,2.107,2.107,0,0,1,2.53,3.363A3.548,3.548,0,0,0,3839.316,2940.948Z" transform="translate(0 -65.021)" fill="#0071bd"/>
    <path id="Path_21141" data-name="Path 21141" d="M3865.955,2867.22a3,3,0,0,1-3.061,3.03,3.037,3.037,0,0,1-3.026-3.037,3.083,3.083,0,0,1,3.056-3.071A3.04,3.04,0,0,1,3865.955,2867.22Z" transform="translate(-27.318 0)" fill="#0071bd"/>
    <path id="Path_21142" data-name="Path 21142" d="M3935.646,2989.126l1.773-.423c0,.346.005.717,0,1.088a.247.247,0,0,1-.1.185c-.523.264-1.052.515-1.663.81Z" transform="translate(-96.141 -113.129)" fill="#0071bd"/>
    <path id="Path_21143" data-name="Path 21143" d="M3909.852,2926.216a2.711,2.711,0,0,0-.018,5.423,2.711,2.711,0,1,0,.018-5.423Zm.051,4.822a.342.342,0,1,1,.343-.343A.342.342,0,0,1,3909.9,2931.037Zm.508-3.409c-.022.331-.053.662-.084.992-.03.309-.059.618-.089.927a.5.5,0,0,1-.173.405.317.317,0,0,1-.349-.044.669.669,0,0,1-.2-.314,3.544,3.544,0,0,1-.135-.723c-.038-.308-.084-.616-.1-.925-.005-.084-.008-.168-.008-.253a1.086,1.086,0,0,1,.071-.428.437.437,0,0,1,.325-.237.956.956,0,0,1,.329,0,.522.522,0,0,1,.3.117A.607.607,0,0,1,3910.411,2927.628Z" transform="translate(-70.245 -56.376)" fill="#0071bd"/>
  </g>
</svg>
