<svg width="32" height="32" viewBox="0 0 32 32" fill="none" xmlns="http://www.w3.org/2000/svg">
<g clip-path="url(#clip0)">
<path fill-rule="evenodd" clip-rule="evenodd" d="M20.5504 10.8792C20.6156 10.9057 20.6854 10.9189 20.7558 10.918C20.8283 10.9261 20.9018 10.9179 20.9707 10.8941C21.0397 10.8703 21.1025 10.8314 21.1545 10.7802C21.2065 10.7291 21.2465 10.667 21.2715 10.5984C21.2965 10.5298 21.3059 10.4566 21.299 10.3839C21.299 9.02029 21.0304 7.67001 20.5086 6.41017C19.9867 5.15033 19.2218 4.00562 18.2576 3.04138C17.2934 2.07714 16.1486 1.31227 14.8888 0.790429C13.629 0.268588 12.2787 0 10.9151 0C9.55142 0 8.20113 0.268588 6.9413 0.790429C5.68146 1.31227 4.53675 2.07714 3.57251 3.04138C2.60827 4.00562 1.8434 5.15033 1.32156 6.41017C0.799715 7.67001 0.531128 9.02029 0.531128 10.3839C0.540711 10.5224 0.600052 10.6527 0.698202 10.7509C0.796351 10.849 0.926686 10.9084 1.06516 10.918C1.13573 10.9192 1.20584 10.9062 1.27131 10.8799C1.33678 10.8535 1.3963 10.8142 1.44631 10.7644C1.49633 10.7146 1.53584 10.6553 1.56249 10.5899C1.58914 10.5246 1.6024 10.4545 1.60147 10.3839C1.63974 7.93996 2.63746 5.60905 4.37929 3.89427C6.12112 2.1795 8.46737 1.2184 10.9116 1.2184C13.3559 1.2184 15.7021 2.1795 17.444 3.89427C19.1858 5.60905 20.1835 7.93996 20.2218 10.3839C20.2209 10.4543 20.2341 10.5242 20.2606 10.5894C20.2871 10.6546 20.3264 10.7138 20.3762 10.7636C20.4259 10.8134 20.4852 10.8527 20.5504 10.8792ZM11.1462 31.9299C12.9337 31.141 14.6225 30.1509 16.1805 28.9805C16.6914 29.5522 17.2756 30.0597 17.9211 30.4884C19.4137 31.4796 21.167 32.0051 22.9587 31.9984C25.348 31.9971 27.639 31.0475 29.3285 29.358C31.0179 27.6686 31.9676 25.3776 31.9688 22.9883C31.9756 21.1966 31.45 19.4433 30.4588 17.9507C29.4676 16.4582 28.0555 15.2937 26.4014 14.6049C25.006 14.0238 23.4915 13.8034 21.9966 13.9576C22.0076 13.9496 22.0185 13.9414 22.0292 13.9329C22.147 13.8395 22.2391 13.7177 22.2969 13.579C22.2978 13.5086 22.2847 13.4387 22.2581 13.3735C22.2316 13.3083 22.1923 13.2491 22.1426 13.1993C22.0928 13.1496 22.0335 13.1103 21.9683 13.0837C21.9031 13.0572 21.8333 13.044 21.7629 13.045C21.0553 13.0432 20.3772 12.7613 19.8768 12.2609C19.3764 11.7605 19.0945 11.0824 19.0927 10.3748C19.0954 9.21919 18.8456 8.07695 18.3607 7.02797C17.8758 5.97899 17.1676 5.04862 16.2856 4.30192C15.0996 3.28034 13.6424 2.62531 12.091 2.41647C10.5397 2.20762 8.96106 2.45396 7.54709 3.12552C6.13313 3.79709 4.94472 4.86496 4.12632 6.19932C3.30793 7.53368 2.8948 9.07706 2.93717 10.6418C2.93868 10.9578 2.87755 11.271 2.75732 11.5632C2.63708 11.8555 2.46013 12.121 2.23667 12.3445C2.01322 12.5679 1.7477 12.7449 1.45546 12.8651C1.16321 12.9853 0.850038 13.0465 0.534031 13.045C0.392397 13.045 0.256564 13.1012 0.156414 13.2014C0.0562639 13.3015 0 13.4374 0 13.579C0 13.7206 0.0562639 13.8565 0.156414 13.9566C0.256564 14.0568 0.392397 14.113 0.534031 14.113C0.990802 14.117 1.4438 14.0301 1.86668 13.8573C2.28956 13.6846 2.67389 13.4296 2.99731 13.107C3.32073 12.7844 3.5768 12.4008 3.75062 11.9784C3.92443 11.5559 4.01253 11.1032 4.00979 10.6464C3.97397 8.9413 4.55428 7.28049 5.64424 5.96878C6.73419 4.65706 8.26065 3.78245 9.94347 3.50545C10.9274 3.34422 11.9349 3.40392 12.8929 3.68022C13.8509 3.95653 14.7354 4.44253 15.4823 5.10297C16.236 5.75922 16.8404 6.56924 17.255 7.47857C17.6695 8.3879 17.8845 9.37545 17.8855 10.3748C17.8846 10.866 17.9806 11.3525 18.1682 11.8064C18.3557 12.2604 18.631 12.6728 18.9783 13.0201C19.3256 13.3674 19.7381 13.6428 20.1921 13.8303C20.5012 13.958 20.8254 14.0433 21.1559 14.0845C20.2889 14.2573 19.4568 14.5554 18.6843 14.9654C18.3538 14.7312 18.0485 14.4587 17.7754 14.1515C16.8866 13.1517 16.4026 11.8563 16.418 10.5186C16.4244 9.70877 16.2546 8.90724 15.9204 8.16955C15.5863 7.43186 15.0957 6.77564 14.4828 6.24635C13.8775 5.69325 13.154 5.28551 12.3674 5.05415C11.5808 4.8228 10.7518 4.77394 9.9435 4.91127C8.57774 5.16011 7.34493 5.88639 6.46532 6.9604C5.58571 8.03441 5.1166 9.38619 5.14179 10.7742C5.14058 11.9777 4.66195 13.1316 3.81093 13.9826C2.95992 14.8336 1.80604 15.3122 0.602526 15.3135C0.460892 15.3135 0.32506 15.3697 0.224909 15.4699C0.124759 15.57 0.0684952 15.7059 0.0684952 15.8475C0.0684952 15.9891 0.124759 16.1249 0.224909 16.2251C0.32506 16.3252 0.460892 16.3815 0.602526 16.3815C1.34775 16.3821 2.08578 16.2358 2.77439 15.9509C3.463 15.666 4.08868 15.2481 4.61564 14.7211C5.14259 14.1942 5.56048 13.5685 5.84538 12.8799C6.13029 12.1913 6.27663 11.4532 6.27603 10.708C6.25054 9.58514 6.62769 8.49023 7.33928 7.62126C8.05086 6.75229 9.0499 6.16664 10.1557 5.9702C10.8083 5.8724 11.4743 5.91723 12.1078 6.10162C12.7413 6.28601 13.3274 6.60557 13.8255 7.03826C14.3225 7.45576 14.7228 7.9763 14.9986 8.56386C15.2745 9.15141 15.4193 9.79192 15.423 10.441C15.4149 12.0758 16.0197 13.6542 17.1181 14.865C17.328 15.0963 17.5529 15.311 17.7909 15.508C17.3859 15.7872 17.0029 16.1 16.646 16.4442C16.4007 16.1613 16.182 15.8547 15.9936 15.528C15.9305 15.446 15.8497 15.3794 15.7572 15.3332C15.6647 15.2869 15.5629 15.2622 15.4595 15.2609C15.3588 15.2642 15.2614 15.2978 15.18 15.3572C15.0986 15.4166 15.037 15.4992 15.0031 15.5941C13.9693 17.9307 12.3632 19.969 10.3333 21.5207C8.30334 23.0723 5.91504 24.0873 3.38908 24.4718C3.31403 24.4828 3.24206 24.5092 3.17771 24.5494C3.11335 24.5896 3.058 24.6426 3.01513 24.7052C2.97227 24.7678 2.94281 24.8386 2.92861 24.9131C2.91442 24.9876 2.91579 25.0643 2.93265 25.1382C2.94752 25.2677 3.01087 25.3867 3.10994 25.4714C3.20901 25.5561 3.33647 25.6001 3.46668 25.5946H3.53971C6.09376 25.2022 8.51903 24.2121 10.6181 22.7051C12.7172 21.1982 14.4308 19.2168 15.6193 16.9223C15.7111 17.0352 15.8062 17.145 15.9045 17.2517C14.9776 18.3928 14.3397 19.7467 14.0524 21.198C14.0037 21.4443 13.9653 21.6918 13.9373 21.94C11.4302 24.5613 8.18825 26.4008 4.60542 27.1945C4.46958 27.2386 4.35429 27.3303 4.28087 27.4528C4.20745 27.5754 4.18086 27.7203 4.20604 27.8609C4.24339 27.9742 4.31467 28.0732 4.41019 28.1446C4.5057 28.2161 4.62085 28.2564 4.74007 28.2603H4.7402C4.81538 28.2603 4.81541 28.2603 4.86103 28.1964C8.25323 27.4368 11.3632 25.8017 13.8957 23.4818C13.9382 24.2098 14.0688 24.9317 14.2856 25.6315C12.0795 27.4313 9.53797 28.78 6.80543 29.5976C6.73454 29.6135 6.66763 29.6436 6.60875 29.6862C6.54987 29.7287 6.50024 29.7829 6.46289 29.8452C6.42554 29.9075 6.40126 29.9768 6.39149 30.0487C6.38171 30.1207 6.38667 30.1939 6.40606 30.264C6.43167 30.3839 6.49989 30.4905 6.59809 30.5639C6.6963 30.6374 6.8178 30.6727 6.94007 30.6634H7.15004C9.90157 29.85 12.4677 28.5176 14.7117 26.7421C14.9333 27.2226 15.1959 27.681 15.4955 28.1125C14.013 29.2431 12.3956 30.1901 10.6784 30.9304C10.5471 30.9941 10.4458 31.1064 10.3959 31.2436C10.3461 31.3808 10.3516 31.532 10.4113 31.6652C10.4672 31.7594 10.5449 31.8388 10.6378 31.8968C10.7307 31.9547 10.8362 31.9896 10.9454 31.9984C10.9818 32.0026 11.0188 31.9987 11.0535 31.9869C11.0883 31.975 11.1199 31.9556 11.1462 31.9299ZM2.18104 23.1984C2.28011 23.283 2.40757 23.3271 2.53778 23.3216L2.59484 23.3307C5.77144 23.0369 8.72754 21.5799 10.8955 19.2396C13.0636 16.8994 14.2906 13.8407 14.3412 10.6509C14.3257 10.1686 14.2111 9.69458 14.0046 9.25839C13.7981 8.82221 13.5041 8.43315 13.1408 8.11542C12.7707 7.78975 12.3336 7.54925 11.8604 7.41084C11.3872 7.27244 10.8895 7.2395 10.4022 7.31438C9.56617 7.47203 8.81282 7.92019 8.27533 8.57963C7.73784 9.23908 7.45082 10.0673 7.46501 10.918C7.46053 11.7988 7.28259 12.6701 6.94137 13.4821C6.60014 14.2942 6.10231 15.0311 5.4763 15.6507C4.85028 16.2704 4.10835 16.7607 3.29285 17.0936C2.47735 17.4265 1.60427 17.5955 0.723446 17.591C0.581813 17.591 0.44598 17.6473 0.34583 17.7474C0.24568 17.8476 0.189416 17.9834 0.189416 18.1251C0.189416 18.2667 0.24568 18.4025 0.34583 18.5027C0.44598 18.6028 0.581813 18.6591 0.723446 18.6591C2.79019 18.663 4.77533 17.8528 6.24929 16.4041C7.72324 14.9553 8.56746 12.9845 8.59926 10.918C8.5614 10.3329 8.7365 9.7539 9.09221 9.28787C9.44792 8.82184 9.96023 8.50024 10.5345 8.38245C10.8661 8.33566 11.2038 8.359 11.5258 8.451C11.8478 8.54299 12.1468 8.70158 12.4037 8.91648C12.6617 9.1244 12.8682 9.38909 13.0072 9.68994C13.1461 9.99079 13.2137 10.3197 13.2047 10.6509L13.2048 10.6733C13.2084 11.317 13.2598 20.4875 2.46019 22.265C2.38831 22.2681 2.318 22.2871 2.25427 22.3205C2.19053 22.3539 2.13491 22.4009 2.09136 22.4581C2.0478 22.5154 2.01738 22.5816 2.00224 22.6519C1.9871 22.7222 1.98762 22.7951 2.00375 22.8652C2.01863 22.9946 2.08197 23.1137 2.18104 23.1984ZM1.53592 20.987C1.40571 20.9924 1.27826 20.9484 1.17918 20.8637C1.08011 20.779 1.01677 20.66 1.00189 20.5305C0.985033 20.4566 0.98366 20.3799 0.997855 20.3054C1.01205 20.2309 1.04151 20.1601 1.08438 20.0975C1.12724 20.0349 1.1826 19.9819 1.24695 19.9417C1.31131 19.9015 1.38327 19.8751 1.45833 19.8641C10.6407 18.3164 10.4258 11.0601 10.4034 10.3061L10.4034 10.306L10.4034 10.3055C10.4027 10.2815 10.4022 10.2642 10.4022 10.2539C10.3946 10.1787 10.4027 10.1028 10.426 10.031C10.4492 9.95911 10.4872 9.89289 10.5374 9.83647C10.5876 9.78004 10.649 9.73467 10.7176 9.7032C10.7863 9.67173 10.8607 9.65484 10.9362 9.65365C11.0856 9.64901 11.2311 9.70179 11.3427 9.80112C11.4543 9.90045 11.5237 10.0388 11.5364 10.1877L11.537 10.1997C11.5567 10.5715 12.0154 19.23 1.72306 21.0007L1.53592 20.987ZM22.9587 15.9135C22.0278 15.8967 21.103 16.0656 20.2381 16.4102C19.3732 16.7548 18.5856 17.2683 17.9214 17.9206C17.2571 18.573 16.7295 19.3512 16.3693 20.2097C16.0092 21.0683 15.8237 21.9899 15.8237 22.921C15.8237 23.852 16.0092 24.7737 16.3693 25.6322C16.7295 26.4908 17.2571 27.2689 17.9214 27.9213C18.5856 28.5737 19.3732 29.0872 20.2381 29.4318C21.103 29.7764 22.0278 29.9452 22.9587 29.9284C23.877 29.9418 24.7888 29.7719 25.6407 29.4287C26.4925 29.0855 27.2674 28.5759 27.92 27.9297C28.5726 27.2835 29.0898 26.5136 29.4413 25.6652C29.7928 24.8167 29.9716 23.9067 29.9673 22.9883C29.9742 22.0629 29.7981 21.1452 29.4492 20.288C29.1002 19.4309 28.5853 18.6512 27.934 17.9937C27.2827 17.3362 26.5078 16.814 25.654 16.457C24.8002 16.1 23.8842 15.9153 22.9587 15.9135ZM26.657 19.4358C26.9071 19.4606 27.1373 19.5833 27.2972 19.7773C27.3778 19.8825 27.4365 20.0027 27.4699 20.131C27.5033 20.2592 27.5107 20.3929 27.4918 20.5241C27.4729 20.6552 27.428 20.7813 27.3597 20.8949C27.2914 21.0084 27.2011 21.1072 27.0941 21.1854C25.1139 22.6798 23.4376 24.5389 22.1554 26.6626C22.0839 26.7823 21.9873 26.8851 21.8722 26.9639C21.7572 27.0427 21.6265 27.0956 21.489 27.1191C21.3439 27.1439 21.1947 27.1326 21.055 27.086C20.9153 27.0394 20.7892 26.959 20.688 26.852L18.0179 24.1818C17.8525 24.0025 17.7629 23.7662 17.7679 23.5223C17.7729 23.2784 17.872 23.0459 18.0445 22.8734C18.2169 22.7009 18.4495 22.6019 18.6934 22.5969C18.9372 22.5919 19.1736 22.6815 19.3529 22.8468L21.1559 24.6497C22.5015 22.7529 24.1212 21.0662 25.9621 19.6449C26.157 19.4862 26.4068 19.411 26.657 19.4358Z" fill="#1971BD"/>
</g>
<defs>
<clipPath id="clip0">
<rect width="32" height="32" fill="white"/>
</clipPath>
</defs>
</svg>
