<svg xmlns="http://www.w3.org/2000/svg" width="14.008" height="9.708" viewBox="0 0 14.008 9.708">
  <g id="challenges" transform="translate(-4063.988 -2839.574)">
    <path id="Path_21138" data-name="Path 21138" d="M4124.023,2839.574l2.366.9c-.657.209-1.245.417-1.845.579-.263.071-.354.2-.325.446a.361.361,0,0,1,0,.04c-.024,1.7-.013,1.69,1.239,3.252,1.128,1.409,2.226,2.844,3.337,4.268a1.745,1.745,0,0,1,.11.2h-9.595c.206-.284.38-.537.568-.779,1.3-1.68,2.607-3.355,3.9-5.043a1.129,1.129,0,0,0,.2-.617c.026-.957.018-1.914.024-2.871C4124,2839.8,4124.019,2839.662,4124.023,2839.574Z" transform="translate(-50.91 0)" fill="#0071bd"/>
    <path id="Path_21139" data-name="Path 21139" d="M4063.988,2901.539l4.13-5.177c.669.621,1.3,1.2,1.921,1.8.053.051.028.256-.032.338q-1.051,1.45-2.132,2.88a.425.425,0,0,1-.292.154C4066.43,2901.542,4065.275,2901.539,4063.988,2901.539Z" transform="translate(0 -52.257)" fill="#0071bd"/>
  </g>
</svg>
