<svg width="32" height="32" viewBox="0 0 32 32" fill="none" xmlns="http://www.w3.org/2000/svg">
<g clip-path="url(#clip0)">
<path fill-rule="evenodd" clip-rule="evenodd" d="M7.09021 6.02869H9.01453V11.2239H22.3153V6.02869H24.7532C25.6063 6.02991 26.4243 6.36938 27.0276 6.97266C27.631 7.57593 27.9705 8.39392 27.9716 9.24719V26.91C27.9709 27.7634 27.6317 28.5817 27.0283 29.1852C26.4248 29.7886 25.6066 30.1279 24.7532 30.1285H7.09021C6.23706 30.1273 5.41907 29.7878 4.8158 29.1846C4.2124 28.5812 3.87292 27.7633 3.8717 26.91V9.24719C3.87231 8.39368 4.21167 7.57544 4.81506 6.97205C5.41858 6.36853 6.23682 6.0293 7.09021 6.02869ZM24.7485 4.15686H22.3153V3.12061H19.6082C19.3984 2.2323 18.8949 1.44092 18.1792 0.874512C17.4635 0.308105 16.5776 0 15.6649 0C14.7522 0 13.8662 0.308105 13.1505 0.874512C12.4349 1.44092 11.9314 2.2323 11.7217 3.12061H9.01453V4.15686H7.09021C5.74084 4.15869 4.44714 4.69556 3.49292 5.64978C2.5387 6.604 2.00183 7.89771 2 9.24719V26.91C2.00183 28.2595 2.5387 29.5531 3.49292 30.5073C4.44714 31.4615 5.74084 31.9984 7.09021 32.0002H24.7509C26.1005 31.9996 27.3947 31.4631 28.3488 30.5085C29.3029 29.5541 29.8387 28.2596 29.8387 26.91V9.24719C29.837 7.89771 29.3 6.604 28.3459 5.64978C27.3917 4.69556 26.098 4.15869 24.7485 4.15686ZM17.8459 4.99011H20.439V9.35217H10.8885V4.99011H13.4839V4.05188C13.4744 3.75952 13.5238 3.46826 13.6292 3.19543C13.7345 2.92249 13.8937 2.67358 14.0972 2.4635C14.3005 2.2533 14.5442 2.08618 14.8135 1.97205C15.0829 1.85791 15.3724 1.79919 15.6649 1.79919C15.9574 1.79919 16.2469 1.85791 16.5162 1.97205C16.7855 2.08618 17.0292 2.2533 17.2327 2.4635C17.4362 2.67358 17.5952 2.92249 17.7006 3.19543C17.8059 3.46826 17.8553 3.75952 17.8459 4.05188V4.99011ZM19.3251 24.9468H13.1278C13.1099 24.9585 13.0913 24.9692 13.0721 24.9789C13.0575 24.9863 13.0426 24.9932 13.0273 24.9993L10.7836 25.9122H19.3297C19.457 25.9122 19.5793 25.8617 19.6694 25.7716C19.7595 25.6814 19.8102 25.5593 19.8102 25.4319C19.8102 25.3044 19.7595 25.1823 19.6694 25.092C19.5793 25.002 19.457 24.9514 19.3297 24.9514L19.3251 24.9468ZM19.8136 13.0703L21.7607 15.0128L21.7653 15.0151C21.8361 15.0869 21.8757 15.1837 21.8757 15.2844C21.8757 15.3853 21.8361 15.4821 21.7653 15.5538L12.9384 24.3807C12.902 24.4174 12.8584 24.446 12.8105 24.4652L11.6213 24.9446L9.55103 25.78C9.50562 25.7996 9.45654 25.8097 9.4071 25.8097C9.35669 25.8103 9.30664 25.8007 9.26001 25.7815C9.21326 25.7622 9.1709 25.7338 9.1355 25.6978C9.08191 25.6447 9.04529 25.5769 9.03015 25.5029C9.02405 25.4731 9.02161 25.4429 9.02283 25.4127C9.02454 25.3682 9.03406 25.324 9.05115 25.2823L10.3658 22.0205C10.385 21.9727 10.4137 21.9291 10.4503 21.8927L19.2727 13.0703C19.3445 12.9988 19.4418 12.9587 19.5431 12.9587C19.6445 12.9587 19.7418 12.9988 19.8136 13.0703ZM11.174 24.2963L12.4476 23.7827L20.9412 15.2822L20.4573 14.7983L12.3768 22.8833C12.3402 22.9191 12.291 22.939 12.2399 22.939C12.1887 22.939 12.1395 22.9191 12.1029 22.8833C12.0851 22.8655 12.0709 22.8444 12.0612 22.821C12.0515 22.7977 12.0465 22.7727 12.0465 22.7474C12.0465 22.7223 12.0515 22.6973 12.0612 22.674C12.0709 22.6506 12.0851 22.6295 12.1029 22.6117L20.188 14.5244L19.542 13.8784L11.0461 22.3789L10.5302 23.6526L11.174 24.2963Z" fill="#1971BD"/>
</g>
<defs>
<clipPath id="clip0">
<rect width="32" height="32" fill="white"/>
</clipPath>
</defs>
</svg>
