<svg xmlns="http://www.w3.org/2000/svg" width="15.618" height="15.618" viewBox="0 0 15.618 15.618">
  <g id="vaultserverversions" transform="translate(-667.778 -104.086)">
    <path id="Subtraction_7" data-name="Subtraction 7" d="M6.976,14v0L0,0H14L10.824,6.331h-.059l-.129,0c-.328,0-.4.062-.426.723-.011.276-.753.685-1.134.685a.3.3,0,0,1-.134-.026.853.853,0,0,1-.081-.059c-.307-.225-.461-.337-.6-.337s-.291.135-.584.431L7.5,7.91a.366.366,0,0,0-.13.264.285.285,0,0,0,.11.207.847.847,0,0,1,.353.659.964.964,0,0,1-.115.4l-.184.392a.624.624,0,0,1-.108.181.341.341,0,0,1-.216.081c-.1.011-.2.018-.3.02l-.069.006c-.137.01-.306.023-.364.152a.6.6,0,0,0-.037.238v.513c0,.51.011.521.516.568l.037,0a1.253,1.253,0,0,0,.131.009c.223.02.52.419.659.779L6.977,14ZM6.594,6.462v.812h.821V6.462ZM5.377,5.245v.821h.813V5.245Zm2.438,0v.806l.812.005V5.245Zm-1.22,0v.812h.821V5.245ZM5.377,4.028v.821h.813V4.028Zm1.218,0v.812h.821V4.028Zm1.22-.005-.009.812h.821V4.022ZM5.377,2.811v.821h.813V2.811H5.377Zm2.429,0v.806h.812V2.811H7.806Zm-1.211,0v.806h.821V2.811H6.594Z" transform="translate(668.586 104.586)" fill="#0071bd" stroke="rgba(0,0,0,0)" stroke-width="1"/>
    <path id="Path_21085" data-name="Path 21085" d="M872.99,644.9a1,1,0,0,1-.455-.9.342.342,0,0,1,.042-.058c.324-.433.324-.433-.056-.823-.266-.276-.31-.286-.574-.044-.185.169-.362.243-.585.077a.387.387,0,0,0-.153-.063.408.408,0,0,1-.061-.008.4.4,0,0,1-.306-.476,1.121,1.121,0,0,0-.012-.141.217.217,0,0,0,0-.044.2.2,0,0,0-.228-.167h-.213c-.5.012-.576-.107-.6.507-.009.225-.693.565-.893.465a.612.612,0,0,1-.057-.042c-.447-.327-.447-.327-.837.066l-.118.116a.206.206,0,0,0-.014.332.6.6,0,0,1,.248.464.667.667,0,0,1-.081.278l-.129.276a.457.457,0,0,1-.076.127.243.243,0,0,1-.152.057,2.069,2.069,0,0,1-.208.014c-.1.011-.257,0-.3.111a.42.42,0,0,0-.026.168v.361c0,.358.009.367.363.4a1.163,1.163,0,0,0,.118.009c.243.022.6.673.5.892a.334.334,0,0,1-.039.059c-.318.456-.318.456.073.856l.1.1c.106.1.232.132.332.015a.452.452,0,0,1,.048-.06.58.58,0,0,1,.819-.04.411.411,0,0,0,.132.049.255.255,0,0,1,.212.273c0,.086.019.172.019.259a.234.234,0,0,0,0,.079.223.223,0,0,0,.265.172,4.649,4.649,0,0,1,.473,0c.192.01.294-.08.28-.263,0-.018-.006-.036-.008-.054a.519.519,0,0,1,.474-.561.385.385,0,0,0,.129-.058h0a.331.331,0,0,1,.464.063,2.262,2.262,0,0,0,.276.211c.2-.005.692-.495.674-.628a.256.256,0,0,0-.073-.167.557.557,0,0,1-.1-.845.277.277,0,0,0,.033-.088c.04-.2.17-.256.359-.268.44-.028.44-.035.44-.47C873.505,644.972,873.505,644.972,872.99,644.9Zm-1.309.551a1.348,1.348,0,1,1-1.334-1.362h.013a1.334,1.334,0,0,1,1.321,1.345Z" transform="translate(-190.768 -530)" fill="#0071bd"/>
  </g>
</svg>
