<svg xmlns="http://www.w3.org/2000/svg" width="33" height="33" fill="none" xmlns:v="https://vecta.io/nano"><g clip-path="url(#A)"><g clip-path="url(#B)" fill="#1971bd"><path d="M5.251 17.985a1.39 1.39 0 0 0 .129.133l.032.029.01.006c.095.046.172.074.235.086a10.71 10.71 0 0 1-.181-2.312c.036-1.048.234-1.933.608-2.707a9.92 9.92 0 0 1 .415-.684l-.266 2.2c-.044.764.025 1.568.21 2.456l.095-.065a7.43 7.43 0 0 1 .005-1.605c.081-.752.262-1.492.551-2.263.321-.857.752-1.693 1.28-2.488-2.609.275-3.179 2.761-3.179 2.761l.032-.571c.074-.853.162-1.263.27-1.692a4.6 4.6 0 0 0-.358.906c-.182.618-.284 1.248-.358 1.782-.087.625-.128 1.179-.126 1.694.003.5.032 1.089.231 1.66.096.271.216.492.366.674zm1.893-.97a3.09 3.09 0 0 1 .823-.352l1.921-.498.25-.061 1.893-.546c.372-.142.726-.329 1.083-.573a5.95 5.95 0 0 0 1.331-1.251c.203-.258.305-.458.407-.795l.15-.498s.609.682-.006 1.888c.39-.141.765-.542 1.049-1.036.238-.414.645-1.907.645-1.907s.748 1.15-.138 2.645c.054-.018.354-.184.468-.298 3.296-3.273.459-5.127-.136-5.57-.354-.264-.773-.488-1.291-.69l-.077-.03c-.039-.016-.062-.043-.072-.056l-.423-.461.74.204.3.084c.807.24 1.422.527 1.936.901.585.427 2.817 2.303.457 5.045.731-.251 2.111-1.015 2.579-1.672 2.252-3.162-.334-5.006-.224-5.006a1 1 0 0 1 .13.013.62.62 0 0 0 .091.008c.047 0 .127-.008.143-.054.02-.055-.018-.16-.096-.221-.202-.153-.422-.266-.701-.222-2.326.36-3.148-.362-3.148-.362s3.264.169 3.368-.368c-.432-.452-.962-.845-1.61-1.199a8.75 8.75 0 0 0-2.93-.976c-1.588-.236-2.8.069-2.8.069.126-.159.754-.877 3.36-.672 1.054.083 2.057.416 2.984.88.239.12.381-.165.385-.293.005-.15.264.498.267.532l.147-.404c.062 0 .316.792.316.792.003-.032.338-.376.338-.376.1.451.087.676.063.738.002-.012.35-.226.35-.226s.2.839.541 1.171a2.24 2.24 0 0 1 .431.692c.249-.174.554-1.05.554-1.05s.157.464.025 1.299c.009-.01.396-.288.396-.288s.055.59-.198 1.325a.83.83 0 0 0-.029.124c.213-.119.531-.51.531-.51l-.056.247c-.064.281-.18.827-.43 1.254-.16.274-.297.562-.381.902a1.59 1.59 0 0 1 .199-.157 1.93 1.93 0 0 1 .385-.198l.305-.111 1.542-.63c1.068-.473.829-1.131.829-1.131-.274.536-1.27 1.073-1.27 1.073s1.289-1.155.739-2.505l-.43 1.041c-.189.464-.413.954-.775 1.387a1.92 1.92 0 0 1-.587.491.89.89 0 0 1-.151.063l-.056.021s.226-.372.242-1.397l.016-1.086v-.074l-.002-.52c.006-.734.02-1.291.173-1.805-.016-.029-.007-.059-.024-.09-.035-.061-.062-.13-.094-.206l-.133-.362c-.167-.473-.405-.708-.48-.773-.049.152-.357.777-.357.777l-.001-.516c-.088-.671-1.748-1.278-1.782-1.299l.088.527s-.502-.037-.716-.374c-.044-.069-.111-.118-.17-.165l.118.402.122.281s-.389-.031-.572-.353l-.148-.248a.98.98 0 0 0-.755-.521l-.79-.081c-.186-.012-.408-.04-.63-.145L17.583.58l.061.114c.02.038.033.076.052.125l.01.029.042.103.064.226s-.465-.019-1.005-.393C16.69.703 16.543.703 16.38.69l-.046-.004-.436-.019a4.1 4.1 0 0 0-1.205.171l-.077.025.14-.004.088.001c.891.015 1.167.543 1.167.543l-1.032.03-.81.14c-.736.202-1.435.544-2.134 1.044l-.511.337a2.5 2.5 0 0 0-.757.758c-.022.034-.037.063-.046.089-.018.047-.01.052.02.067.062.032.136.06.221.081 1.261.307 2.204 1.366 2.349 2.637l.019.162c.047.402.095.818.074 1.239a4.49 4.49 0 0 1-1.184 2.881c-.776.849-1.739.907-1.731.901.572-.534.949-1.249 1.151-2.183.076-.352.043-.695-.11-1.087l-.021.061c-.128.363-.289.782-.588 1.127-.173.198-.41.424-.685.685-1.198 1.14-3.202 3.046-3.168 6.078.001.177.037.395.074.562zm18.364-7.673l-.448.383a2.49 2.49 0 0 1-.876.518c-.362.131-.642-.163-.642-.163.24-.12.418-.293.588-.511-.464.242-1.015.55-1.518.933-.166.127-.393.313-.512.464-.163.205-.27.418-.27.636v.002c0-.004.058-.007.07-.009.58-.149 1.158-.41 1.613-.645.726-.376 1.482-.838 2.31-1.412.031-.021.07-.046.125-.063l.487-.139-.3.413a.41.41 0 0 1-.036.045c-.979.975-1.993 1.674-3.102 2.134a6.01 6.01 0 0 1-.647.228 12.08 12.08 0 0 0 1.99-.69c.706-.321 1.2-.634 1.604-1.015.625-.592 1.071-1.289 1.327-2.072a1.11 1.11 0 0 0 .032-.132l-.145.043c-.167.048-.339.098-.49.171-.211.102-.41.255-.561.376l-.6.506zM3.128 20.286l.53.792.027.04c-.462-1.625.294-2.605.294-2.605l.187.514a1.55 1.55 0 0 0 .219.397c.193-.361.428-.707.703-1.031-.234-.124-.438-.304-.621-.546-.263-.347-.436-.764-.546-1.309-.125-.623-.156-1.296-.091-2.054l.077-.69a10.99 10.99 0 0 0-2.138 3.571c-.001.004 0 .015.004.028.308.983.752 1.93 1.354 2.894zM25.012 4.99c.003-.927.16-1.757.482-2.541l.023-.054c-.117.079-.222.186-.323.331-.22.319-.383.696-.522 1.225-.239.903-.381 1.876-.443 3.034.252-.269.666-.864.753-1.597l.031-.398zm4.428 24.996c-.521-.086-1.622-.474-1.93-1.243-.378.93.403 1.606.986 1.908.102.053.132.065.238.108.11.049-.217.649.059.925s.538.194.64.194c0 0 .475.441.746.146.069-.076.129-.345.038-.506-.114-.2-.388-.163-.414-.163-.539.007-.491-.247-.408-.355.059-.077.173-.073.27-.073a.54.54 0 0 1 .069.005 3.17 3.17 0 0 0 .353.021c.44 0 .954-.045 1.296-.235.244-.136.645-.599.625-.91-.023.009-1.086.42-2.566.177zm3.055-10.235l-.166-.372-.079-.166-.087-.182c-.072-.146-.147-.297-.199-.46-.045-.14-.057-.284-.068-.421l-.015-.149c-.177-1.52-1.147-2.802-2.466-3.422a1.62 1.62 0 0 1-.283.548c-.119.158-.19.182-.344.181-.206 0-.236-.237-.175-.348.144-.255.239-.511.258-.713.044-.495-.233-1.034-.572-1.405-.314-.344-.853-.741-1.287-.872-.104.403.022 1.068.163 1.458.173.474.715 1.406.584 1.971 0 0-.038.362-.399.589-.201.126-.283.069-.283.069.387-.825.391-1.172-.037-1.953-.322-.588-.471-1.181-.355-1.839l.018-.079-.116.261c-.329.577-.639.877-.826 1.474-.196.668.013 1.392.428 2.102-.394-.24-.636-.637-.728-1.058-.667.372-1.245.873-1.754 1.533-.105.137-.23.252-.34.353-.719.664-1.594 1.15-2.601 1.445l-1.975.51-.172.04c-.898.217-1.852.462-2.758.865-1.041.463-1.867.995-2.521 1.629-.963.931-1.551 2.078-1.744 3.409-.15 1.026-.072 2.097.237 3.274.011.042-1.355-1.237-.65-4.919l-.31-.009-.089.001c-2.541.076-3.598 1.477-3.598 1.477s.165-1.555 2.613-2.077l1.777-.403a6.75 6.75 0 0 1 .733-1.169l-.218.034-1.282.188-.331.043c-.759.097-1.544.196-2.288.416-.781.229-1.392.559-1.87 1.01-.512.481-.878 1.103-1.121 1.895l-.03.113-.059.199c-.026.068-.032.144.024.289.457 1.213 1.243 2.265 2.333 3.124.835.659 1.784 1.18 2.822 1.551a.36.36 0 0 1 .144.084l.457.443-.716-.171-.251-.061c-1.465-.402-2.742-1.08-3.794-2.014-.359-.13-2.193-1.045-2.971-2.546l-.13-.25s.996.981 1.694 1.124a7.4 7.4 0 0 1-.742-1.604.38.38 0 0 0-.064-.115c-1.192-1.487-2.045-2.988-2.608-4.592l-.112-.345a11.38 11.38 0 0 0-.084 1.39c0 .145 1.255 3.48 1.255 3.48s-.553-.614-1.01-1.392l-.091-.279A10.53 10.53 0 0 0 2.4 26.253c1.535 2.823 3.887 4.673 7.192 5.538a10.16 10.16 0 0 0 2.571.336l10.328.009c.485 0 .857-.029 1.203-.091l.054-.009c.117-.022.238-.045.37-.045a2.03 2.03 0 0 1 .453.057l.082.019c.151.036.294.07.434.07 1.736.013 1.494-1.032 1.494-1.032-.072-.272-.387-.461-.733-.543a1.58 1.58 0 0 0-.368-.044 1.92 1.92 0 0 0-.735.158l-.378.161-.226.098a1.67 1.67 0 0 1-.129.05.71.71 0 0 1-.223.047c-.261 0-.273-.256-.28-.411-.008-.186.071-.361.223-.49a4.5 4.5 0 0 1 .397-.3c.256-.173.521-.352.725-.587.257-.296.413-.597.475-.919a1.08 1.08 0 0 0-.058-.616c-.018-.046-.035-.056-.052-.061l-.483-.147c-.642-.18-1.113-.449-1.482-.845-.26-.279-.437-.602-.577-.882a7.7 7.7 0 0 1-.547-1.44c-.21-.79-.704-1.424-1.512-1.936-.601-.381-1.29-.613-2.047-.689l-.556-.037a5.83 5.83 0 0 1-.273-.031l-.247-.029-.276-.017s.071-.1.643-.319c.108-.041.219-.051.329-.071.265-.046.526-.07.776-.07a3.6 3.6 0 0 1 1.694.413c.65.342 1.168.863 1.586 1.592a5.98 5.98 0 0 1 .547 1.304l.076.284.16.521c.403.994 1.151 1.575 2.222 1.729a5.91 5.91 0 0 0 .823.061 4.53 4.53 0 0 0 1.416-.218c.599-.196 1.055-.503 1.396-.936a1.86 1.86 0 0 0 .335-.649l.046-.159.267.063.171.039c.04.008.081.012.123.012.121 0 .245-.029.378-.058l.023-.006a1.51 1.51 0 0 1 .293-.03l.08-.004c.094 0 .174.063.209.122.04.069.107.11.23.137a.45.45 0 0 0 .099.01c.301 0 .617-.276.625-.547.003-.104-.024-.168-.092-.214l-.172-.11-.3-.189.2-.152c.059-.044.123-.066.193-.066.059 0 .112.017.158.037 0 0-.251-1.328-2.008-.942l-.431.172-.068.026a.36.36 0 0 1-.133.025c-.089 0-.163-.033-.218-.061-.615-.309-1.217-.172-1.317-.172-.257 0-.489-.025-.707-.078-.039-.009-.098-.029-.152-.089l-.114-.127a3.45 3.45 0 0 1-1.555-.259c-.573-.245-1.031-.618-1.308-1.188a1.96 1.96 0 0 1-.197-.901l.034.088a2.88 2.88 0 0 0 .491.891c.403.498.922.833 1.512 1.069.32.127.651.217 1.004.276 0 0 1.255.047 1.815-.417.425-.237.808-.348 1.205-.348h.082c1.35-.002 1.47-.654 1.47-.654s.154.1.369.066c.191-.028.374-.086.552-.267a.88.88 0 0 0 .243-.561l-.448-.402-.094-.083-.177-.139.121-.139c.075-.085.168-.13.272-.13a.36.36 0 0 1 .176.046c.08.045.151.101.216.153l.067.052.084.065a.72.72 0 0 0-.047-.344zm-1.666-.359c-.05.14-.115.162-.262.13-.077-.017-.159-.022-.238-.018l-.436.034c-.364.007-.713-.059-1.003-.297-.411-.337-.489-.735-.232-1.239l.005.049a.98.98 0 0 0 .453.803c.236.159.506.223.783.258.224.028.444.066.64.187l.053.028a.72.72 0 0 1-.023-.328c.032-.124.04-.291.003-.39-.067.169-.177.299-.33.398-.025.02-.039.025-.07.027a2.75 2.75 0 0 1-.303-.079 3.35 3.35 0 0 1-.558-.228.54.54 0 0 1-.307-.637c.021-.094-.005-.177-.074-.248-.03-.031-.057-.066-.089-.103l.204-.188.207-.144c.568-.323 1.335-.08 1.588.512.064.149.099.316.116.478a2.21 2.21 0 0 1-.128.993z"/><path d="M3.653 23.24l-.061-.994c-.001-.035-.008-.057-.027-.084-.828-1.195-1.432-2.23-1.901-3.256l-.222-.518c.297 1.796 1.039 3.426 2.212 4.857zm24.969 5.395c.232.154.52.267.962.377a5.18 5.18 0 0 0 1.27.165c.244 0 .44-.025.617-.078.419-.126.68-.409.776-.84l.169-.938c.065-.652-.1-1.237-.489-1.739l-.139.116a1.48 1.48 0 0 1-.26.16c-.128.063-.257.094-.382.094a.79.79 0 0 1-.369-.095 1.26 1.26 0 0 0-.606-.137c-.083 0-.172.006-.273.017-.036.005-.051.012-.07.053-.34.698-.897 1.194-1.706 1.517l-.023.009a1.53 1.53 0 0 0-.005.614c.069.286.241.515.529.705zm-7.86-15.548c-.678.69-1.5 1.259-2.583 1.793-.684.336-1.447.58-2.4.765l-1.635.312-.112.021-1.388.263c-1.222.235-2.524.511-3.776.934-.909.307-1.61.633-2.205 1.024-.584.383-.987.777-1.268 1.24a3.8 3.8 0 0 0-.193.382l-.099.21a.55.55 0 0 1-.1.149c-.636.622-.908 1.399-.806 2.309.061.547.231 1.079.519 1.625.167-1.112.754-1.961 1.746-2.525.539-.307 1.134-.53 1.819-.68l2.053-.399.403-.071 2.049-.453.457-.159c.193-.073.361-.158.515-.271a6.39 6.39 0 0 1 .583-.382l-2.766-.024c-1.012-.006-1.709.078-2.582.411-.912.347-3.519 1.671-3.519 1.671s1.295-1.386 3.73-2.424a10.29 10.29 0 0 1 2.617-.635 11.58 11.58 0 0 1 1.232-.062l1.146.044 2.019.144.018.001a.36.36 0 0 0 .098-.015c.722-.219 1.45-.339 2.067-.427l.694-.128-.136-.04a1.36 1.36 0 0 1-.156-.058l-.115-.046-.453-.306 1.703.037c.367 0 3.986-.583 5.536-4.895l.293-.889c-1.088.692-2.267 1.161-3.509 1.398a9.65 9.65 0 0 1-1.498.156zm6.291-2.46l-.001.001h.001v-.001zm2.237 7.393c0 .195.159.355.355.355s.354-.158.354-.355-.158-.355-.354-.355-.355.158-.355.355z"/></g></g><defs><clipPath id="A"><path fill="#fff" transform="translate(.894 .359)" d="M0 0h32v32H0z"/></clipPath><clipPath id="B"><path fill="#fff" transform="matrix(1 0 0 -1 1.1167 32.1368)" d="M0 0h31.429v31.556H0z"/></clipPath></defs></svg>