<svg width="32" height="32" viewBox="0 0 32 32" fill="none" xmlns="http://www.w3.org/2000/svg">
<g clip-path="url(#clip0)">
<path d="M15.3492 0H17.4063H18.6635C20.2065 0.11638 21.7363 0.368789 23.2349 0.754286C24.7394 1.13586 26.185 1.72026 27.532 2.49143C28.4167 2.97896 29.1941 3.63973 29.8177 4.43429C30.1778 4.86559 30.4232 5.38083 30.5311 5.93224C30.639 6.48364 30.6059 7.05336 30.4349 7.58857C30.1881 8.35041 29.7375 9.03019 29.132 9.55429C28.2182 10.3797 27.1659 11.0374 26.0235 11.4971C24.0805 12.3047 22.0339 12.8355 19.9435 13.0743C18.1758 13.2756 16.3943 13.3291 14.6177 13.2343C12.8855 13.1878 11.1623 12.9657 9.47489 12.5714C7.9462 12.2084 6.47644 11.6313 5.10917 10.8571C4.21875 10.3583 3.44067 9.68141 2.82346 8.86857C2.32063 8.27004 2.03742 7.51765 2.0208 6.73611C2.00417 5.95457 2.25511 5.19081 2.73203 4.57143C3.04813 4.15307 3.40829 3.76992 3.80632 3.42857C5.00186 2.48659 6.35664 1.76663 7.80632 1.30286C9.95162 0.559652 12.1906 0.121092 14.4577 0L15.3492 0Z" fill="#1971BD"/>
<path d="M30.5949 25.3714C30.6059 25.5618 30.6059 25.7526 30.5949 25.9429C30.3748 26.8349 29.8789 27.6348 29.1778 28.2286C28.2013 29.1136 27.07 29.811 25.8406 30.2857C24.2059 30.9266 22.5035 31.379 20.7663 31.6343C19.0962 31.9012 17.4061 32.0236 15.7149 32C13.2205 31.9818 10.7418 31.6046 8.3549 30.88C6.79104 30.4389 5.31978 29.7187 4.01205 28.7543C3.25987 28.2009 2.65544 27.4708 2.25205 26.6286C2.07747 26.2168 1.9918 25.7729 2.00062 25.3257V19.52C3.21787 20.6955 4.66543 21.606 6.25205 22.1943C7.58809 22.7326 8.97379 23.1384 10.3892 23.4057H10.572V28.96H13.4292C12.9686 27.2525 12.7229 25.4941 12.6978 23.7257H13.132H14.4806C14.5077 23.7226 14.5351 23.7248 14.5612 23.7323C14.5874 23.7398 14.6118 23.7524 14.6331 23.7694C14.6544 23.7864 14.672 23.8075 14.6851 23.8314C14.6982 23.8553 14.7063 23.8815 14.7092 23.9086L15.3949 26.1943V26.3086H17.0863C17.0863 26.3086 17.0863 26.3086 17.0863 26.1943C17.3378 25.44 17.5663 24.6857 17.7949 23.9086C17.8237 23.8844 17.8601 23.8711 17.8978 23.8711C17.9354 23.8711 17.9718 23.8844 18.0006 23.9086L19.7835 23.7714C19.7695 25.5332 19.5235 27.2854 19.052 28.9829H22.0235V23.4743L23.532 23.1086C25.5124 22.6848 27.4011 21.9108 29.1092 20.8229C29.5892 20.48 30.0006 20.0686 30.4578 19.7029H30.5949V25.3714ZM17.6578 28.7314C17.7478 28.7314 17.837 28.7137 17.9202 28.6793C18.0034 28.6448 18.079 28.5943 18.1426 28.5306C18.2063 28.4669 18.2568 28.3913 18.2913 28.3081C18.3257 28.225 18.3435 28.1358 18.3435 28.0457C18.3138 27.8825 18.2277 27.7348 18.1003 27.6285C17.9729 27.5222 17.8123 27.4639 17.6463 27.4639C17.4804 27.4639 17.3197 27.5222 17.1923 27.6285C17.0649 27.7348 16.9789 27.8825 16.9492 28.0457C16.9491 28.1377 16.9676 28.2288 17.0035 28.3135C17.0394 28.3983 17.0919 28.4749 17.158 28.5389C17.2242 28.6029 17.3025 28.6529 17.3883 28.686C17.4742 28.719 17.5658 28.7345 17.6578 28.7314ZM15.7149 28.0686C15.718 27.9766 15.7025 27.885 15.6694 27.7992C15.6363 27.7133 15.5863 27.635 15.5223 27.5689C15.4583 27.5028 15.3817 27.4502 15.297 27.4143C15.2123 27.3784 15.1212 27.36 15.0292 27.36C14.8473 27.36 14.6729 27.4323 14.5443 27.5609C14.4157 27.6895 14.3435 27.8639 14.3435 28.0457C14.3403 28.1366 14.3558 28.2272 14.3892 28.3119C14.4225 28.3965 14.4729 28.4734 14.5372 28.5377C14.6015 28.602 14.6784 28.6524 14.763 28.6858C14.8477 28.7191 14.9383 28.7346 15.0292 28.7314C15.1181 28.7345 15.2068 28.7196 15.2899 28.6877C15.373 28.6558 15.4488 28.6074 15.5127 28.5456C15.5767 28.4837 15.6276 28.4096 15.6624 28.3276C15.6971 28.2457 15.715 28.1576 15.7149 28.0686Z" fill="#1971BD"/>
<path d="M30.572 10.2171V10.4457C30.572 12.2057 30.572 13.9886 30.572 15.7714C30.5657 16.807 30.1557 17.7992 29.4292 18.5371C28.5681 19.5024 27.5178 20.2804 26.3435 20.8228C24.9614 21.451 23.512 21.9188 22.0235 22.2171H22.0006C21.9474 20.7585 21.7792 19.3064 21.4978 17.8743H20.8806C20.2635 17.8743 19.6463 17.8743 19.0063 17.8743C18.9284 17.8653 18.8495 17.8802 18.7802 17.9169C18.7108 17.9536 18.6542 18.0105 18.6178 18.08L16.332 20.9828V21.12L14.0463 18.1257C14.0109 18.0813 13.9655 18.0458 13.914 18.022C13.8624 17.9982 13.806 17.9868 13.7492 17.9886H11.4635C11.3263 17.9886 11.2578 17.9886 11.2578 18.1714C11.2578 18.9486 11.0063 19.7257 10.9149 20.4571C10.8235 21.1886 10.9149 21.6 10.8006 22.1486C10.788 22.2011 10.788 22.256 10.8006 22.3086L9.86348 22.1028C8.31487 21.7123 6.82408 21.1206 5.42919 20.3428C4.45278 19.8362 3.58958 19.1363 2.89205 18.2857C2.31419 17.5931 1.99861 16.7191 2.00062 15.8171C2.00062 14.0114 2.00062 12.2057 2.00062 10.4228V10.2171L2.98348 11.0628C4.12179 11.9096 5.37671 12.5871 6.70919 13.0743C8.40743 13.7035 10.1708 14.1405 11.9663 14.3771C13.9655 14.6495 15.9858 14.7337 18.0006 14.6286C20.6757 14.5293 23.3197 14.0205 25.8406 13.12C27.4077 12.5787 28.8636 11.7578 30.1378 10.6971L30.572 10.2171Z" fill="#1971BD"/>
<path d="M12.6749 22.4914L12.8806 20.5714C13.3534 21.1729 13.7453 21.8338 14.0464 22.5372L12.6749 22.4914Z" fill="#1971BD"/>
<path d="M18.5035 22.6057C18.8024 21.8847 19.186 21.2018 19.6464 20.5714L19.8521 22.4L18.5035 22.6057Z" fill="#1971BD"/>
</g>
<defs>
<clipPath id="clip0">
<rect width="32" height="32" fill="white"/>
</clipPath>
</defs>
</svg>
