<svg width="32" height="32" viewBox="0 0 32 32" fill="none" xmlns="http://www.w3.org/2000/svg">
<g clip-path="url(#clip0)">
<path d="M18.0583 31.9913C17.8522 32.0132 17.6443 32.0132 17.4381 31.9913C16.9199 31.8585 16.441 31.6035 16.0414 31.2479C15.6417 30.8922 15.333 30.4461 15.1409 29.9468C14.6662 28.8979 14.4009 27.7664 14.3599 26.6159C14.3599 25.8119 14.3599 25.0078 14.3599 24.3187C13.4758 24.6446 12.5252 24.748 11.5918 24.6198C10.6584 24.4916 9.7708 24.1358 9.00738 23.5836C8.48178 23.9856 7.83349 24.1937 7.17213 24.1727C6.51077 24.1518 5.87693 23.9031 5.3778 23.4687C4.71142 22.8949 4.15824 22.2014 3.74679 21.4242C2.9066 19.9232 2.22892 18.3368 1.72526 16.692C1.06646 14.601 0.552205 12.4673 0.186133 10.3058C-0.134382 8.54711 -0.0399897 6.73794 0.461797 5.0222C0.769894 3.87359 1.40889 2.84091 2.29929 2.05262C3.18969 1.26432 4.29221 0.755207 5.46969 0.5886C6.94018 0.289721 8.45577 0.289721 9.92626 0.5886C10.6843 0.749404 11.4194 0.956152 12.2235 1.1629C12.2908 1.18406 12.3629 1.18406 12.4302 1.1629C13.6335 0.540072 14.9829 0.254318 16.3354 0.335908L18.38 0.519684H18.6326C20.4066 0.00248328 22.2705 -0.130649 24.1 0.12916C26.4675 0.447386 28.618 1.67508 30.0957 3.55199C30.5377 4.16483 30.8002 4.88872 30.8538 5.64244C30.9576 6.92018 30.8647 8.20629 30.5781 9.45579C29.9222 12.4757 28.7983 15.3745 27.2471 18.0473V18.277L28.5336 18.0703C28.9859 17.9556 29.4596 17.9556 29.9119 18.0703C30.1463 18.1308 30.3643 18.2428 30.5501 18.398C30.7358 18.5533 30.8847 18.748 30.9859 18.9679C31.0871 19.1879 31.138 19.4276 31.135 19.6696C31.132 19.9117 31.0752 20.1501 30.9686 20.3675C30.737 20.8246 30.3981 21.2187 29.9808 21.5161C28.9565 22.3249 27.7197 22.8196 26.4202 22.9404H24.8581C24.8478 23.1087 24.8478 23.2774 24.8581 23.4457C24.8544 24.6659 24.7235 25.8823 24.4675 27.0753C24.1987 28.1489 23.688 29.1468 22.9744 29.9928C22.3116 30.8268 21.3904 31.4167 20.3555 31.6697C19.8502 31.8076 19.3448 31.8765 18.8394 31.9684H18.0583V31.9913ZM15.049 22.2282V22.4579C15.0108 24.0677 15.0645 25.6784 15.2098 27.2821C15.2517 27.9868 15.4394 28.6752 15.7611 29.3036C16.0122 29.8568 16.4259 30.3203 16.9472 30.6322C17.4684 30.9442 18.0724 31.0897 18.6786 31.0495C19.5759 31.0275 20.4562 30.7995 21.2515 30.3833C21.9413 30.0461 22.4816 29.4649 22.7676 28.7523C22.9166 28.42 23.032 28.0737 23.1122 27.7185C23.3419 26.2713 23.5257 24.8011 23.7324 23.3539C23.7324 22.8714 23.8473 22.3661 23.9162 21.8836H24.5365C25.2303 21.9749 25.9331 21.9749 26.6269 21.8836C27.7212 21.7152 28.7385 21.2186 29.5443 20.4594C29.7374 20.2765 29.8934 20.0581 30.0038 19.8162C30.0441 19.728 30.0633 19.6315 30.0596 19.5346C30.0559 19.4377 30.0296 19.343 29.9827 19.2581C29.9357 19.1732 29.8696 19.1005 29.7895 19.0458C29.7093 18.9911 29.6175 18.956 29.5214 18.9432C29.3691 18.9199 29.2142 18.9199 29.0619 18.9432L27.8904 19.15C27.2744 19.2532 26.6456 19.2532 26.0296 19.15L25.5242 18.9892L25.708 18.6905C27.5579 15.7768 28.8726 12.5561 29.5903 9.18013C29.8604 8.06058 29.9534 6.90564 29.866 5.7573C29.8519 5.17029 29.6596 4.60145 29.3146 4.12629C28.344 2.86598 27.0146 1.92899 25.5013 1.43856C23.2618 0.710235 20.8491 0.710235 18.6097 1.43856C18.5348 1.46159 18.4548 1.46159 18.38 1.43856C17.7349 1.32877 17.0816 1.27497 16.4273 1.27776C15.0524 1.203 13.6881 1.55611 12.5221 2.28853C12.4907 2.30667 12.455 2.31623 12.4187 2.31623C12.3824 2.31623 12.3468 2.30667 12.3153 2.28853C11.1905 1.88966 10.0284 1.6049 8.84658 1.43856C7.68505 1.26958 6.50274 1.30847 5.35483 1.55342C4.49196 1.73065 3.68869 2.12547 3.02129 2.7004C2.35389 3.27533 1.8445 4.01129 1.54148 4.83842C1.05005 6.22956 0.884993 7.71505 1.05907 9.18013C1.05907 9.93821 1.28879 10.7193 1.42662 11.4773C1.88535 13.8671 2.55413 16.2117 3.42518 18.4838C3.81453 19.5268 4.3233 20.5212 4.94134 21.4472C5.22764 21.8597 5.58553 22.2176 5.99805 22.5039C6.30903 22.7387 6.68807 22.8657 7.07773 22.8657C7.4674 22.8657 7.84644 22.7387 8.15742 22.5039C8.41456 22.3121 8.64616 22.0882 8.84658 21.8377C9.6506 20.9648 10.4087 20.0918 11.1438 19.1959C11.1764 19.1698 11.2169 19.1556 11.2586 19.1556C11.3004 19.1556 11.3409 19.1698 11.3735 19.1959C11.7229 19.3866 12.1045 19.5112 12.4991 19.5635H13.0275L12.5221 20.1837C12.3556 20.4199 12.1118 20.5905 11.8329 20.6661C11.4884 20.6661 11.1208 20.8269 10.7762 20.9418C10.4496 21.0184 10.1334 21.1341 9.83437 21.2864C9.71948 21.3499 9.6237 21.4431 9.55701 21.5563C9.49032 21.6694 9.45515 21.7983 9.45515 21.9296C9.45515 22.0609 9.49032 22.1898 9.55701 22.3029C9.6237 22.4161 9.71948 22.5092 9.83437 22.5728C9.99148 22.7171 10.1605 22.8477 10.3398 22.9633C10.8324 23.1517 11.352 23.2602 11.8789 23.2849C12.9462 23.3888 14.0113 23.0667 14.8423 22.389L15.049 22.2282Z" fill="#1971BD"/>
<path d="M24.5824 8.35313C24.1689 8.35313 23.7554 8.35313 23.3419 8.35313C22.9908 8.39663 22.6447 8.47356 22.3082 8.58285C21.8313 8.73044 21.422 9.04208 21.1529 9.46255C20.8838 9.88302 20.7722 10.3852 20.838 10.88C20.8756 11.686 21.0544 12.4791 21.3663 13.2232C21.7423 14.1993 22.1797 15.1507 22.6757 16.0717C22.9054 16.4852 23.1352 16.8987 23.3419 17.3352C23.5782 17.8252 23.8795 18.2811 24.2378 18.6905C24.3047 18.7705 24.3661 18.8549 24.4216 18.9432C24.0734 19.0304 23.7644 19.2315 23.5438 19.5146C23.3232 19.7977 23.2036 20.1464 23.2041 20.5053C23.0662 22.8025 22.7446 24.9849 22.423 27.2361C22.3682 27.555 22.2915 27.8697 22.1933 28.178C22.0745 28.5946 21.8488 28.9728 21.5384 29.2751C21.2281 29.5774 20.8441 29.7931 20.4245 29.9009C19.9715 30.0622 19.5012 30.1702 19.0232 30.2225C18.5597 30.3005 18.0834 30.2235 17.668 30.0034C17.2527 29.7833 16.9216 29.4323 16.726 29.005C16.3865 28.4436 16.1675 27.8177 16.0828 27.1672C15.9219 25.1686 15.9219 23.1701 15.9449 21.1715C15.9905 20.8438 15.9905 20.5114 15.9449 20.1837C15.8855 19.8506 15.7225 19.5448 15.4792 19.3097C15.2358 19.0746 14.9245 18.9222 14.5896 18.8743C14.4219 18.8507 14.2518 18.8507 14.0842 18.8743V18.5986L14.9801 16.3014C15.4846 15.1059 15.6668 13.799 15.5085 12.5111C15.4538 11.8162 15.3541 11.1255 15.2098 10.4436C15.1678 10.1405 15.0657 9.84877 14.9094 9.58566C14.7531 9.32255 14.5459 9.09331 14.2998 8.91141C14.0537 8.72952 13.7737 8.59862 13.4763 8.52642C13.179 8.45422 12.8701 8.44216 12.568 8.49096C11.7643 8.5818 10.985 8.8234 10.2708 9.20309H10.0641C10.0641 8.88148 10.0641 8.60582 10.1789 8.30718C10.3309 7.143 10.6887 6.01512 11.2357 4.97624C11.8009 3.93839 12.6991 3.12109 13.7856 2.65607C14.5981 2.34734 15.4688 2.22183 16.3354 2.28852C17.874 2.33028 19.3743 2.777 20.6851 3.58363C21.9958 4.39027 23.0707 5.52829 23.8013 6.88292C24.1 7.36533 24.3067 7.91666 24.5594 8.42204C24.5594 8.28421 24.5824 8.30718 24.5824 8.35313Z" fill="#1971BD"/>
<path d="M11.6263 3.00064C11.1618 3.47013 10.7673 4.00394 10.4547 4.58571C9.84398 5.66384 9.41699 6.83612 9.19125 8.05448C9.05322 9.25272 9.05322 10.4628 9.19125 11.6611C9.21413 12.628 9.16807 13.5952 9.05341 14.5556C8.97611 15.2543 9.06018 15.9614 9.29913 16.6225C9.53809 17.2836 9.92557 17.8811 10.4317 18.3689V18.4838L9.99527 18.9432L7.97373 21.2404C7.82743 21.4097 7.65717 21.5568 7.46835 21.6769C7.31944 21.7786 7.1433 21.833 6.96296 21.833C6.78262 21.833 6.60648 21.7786 6.45758 21.6769C6.14192 21.48 5.8686 21.2223 5.65356 20.9188C5.10712 20.151 4.65948 19.3174 4.32118 18.4378C3.49179 16.3777 2.84606 14.2484 2.39153 12.0746C2.29965 11.2476 2.0929 10.2828 1.97804 9.29497C1.78492 7.99338 1.89498 6.66477 2.29965 5.4127C2.5177 4.61432 2.96057 3.89541 3.57553 3.34153C4.1905 2.78766 4.95166 2.42215 5.76842 2.28851C6.71967 2.13802 7.68867 2.13802 8.63992 2.28851C9.60606 2.43225 10.5588 2.65506 11.4884 2.95469L11.6263 3.00064Z" fill="#1971BD"/>
<path d="M24.9959 18.0703C24.8581 18.0703 24.8351 17.8865 24.9959 17.7257C25.4457 16.9212 25.6531 16.0037 25.5932 15.0839C25.5932 14.4177 25.5932 13.7745 25.4324 13.1083C25.3363 12.3456 25.3363 11.5739 25.4324 10.8111C25.5202 10.1789 25.5739 9.54245 25.5932 8.90447C25.5874 8.63412 25.5247 8.36802 25.4094 8.12342C24.9692 6.82703 24.2753 5.63125 23.3682 4.60581C22.4611 3.58036 21.3589 2.74577 20.1259 2.1507L19.988 2.05881L21.0907 1.89801C22.2639 1.75181 23.4538 1.81403 24.6054 2.08178C26.1835 2.43816 27.5933 3.32127 28.6025 4.58573C28.8472 4.91959 28.9836 5.32051 28.9931 5.73433C29.0979 6.89025 29.0047 8.05558 28.7174 9.18013C28.0162 12.3483 26.7727 15.3715 25.0419 18.1162L24.9959 18.0703Z" fill="#1971BD"/>
<path d="M10.0641 11.9827V10.5355C10.038 10.5029 10.0238 10.4624 10.0238 10.4206C10.0238 10.3789 10.038 10.3384 10.0641 10.3058C10.823 9.78942 11.7002 9.47333 12.614 9.38689C12.8424 9.35224 13.0748 9.35224 13.3032 9.38689C13.558 9.44517 13.7891 9.57971 13.9655 9.7726C14.142 9.96548 14.2555 10.2076 14.291 10.4666C14.57 11.5462 14.6937 12.66 14.6585 13.7745C14.6197 14.568 14.4327 15.3471 14.1072 16.0717C13.7273 16.8537 13.4198 17.6688 13.1883 18.5068C13.1883 18.6216 13.1883 18.5068 13.0275 18.5068C12.2574 18.4767 11.5271 18.1567 10.983 17.6109C10.563 17.1966 10.2448 16.6906 10.0534 16.1325C9.86208 15.5745 9.80284 14.9796 9.88034 14.3948C9.88034 13.5448 10.0182 12.6949 10.0871 11.8449L10.0641 11.9827ZM12.9586 9.84633H12.4762C12.4378 9.85852 12.4026 9.87896 12.373 9.90621C12.3433 9.93347 12.3201 9.96688 12.3047 10.0041C12.2894 10.0413 12.2824 10.0814 12.2842 10.1217C12.2861 10.1619 12.2967 10.2012 12.3154 10.2369C12.348 10.3904 12.4215 10.5323 12.5281 10.6476C12.6346 10.7629 12.7703 10.8473 12.9208 10.892C13.0713 10.9367 13.231 10.94 13.3832 10.9015C13.5354 10.863 13.6744 10.7842 13.7856 10.6733C14.0153 10.4436 13.9694 10.1909 13.7856 10.0761C13.5165 9.97746 13.24 9.90064 12.9586 9.84633Z" fill="#1971BD"/>
<path d="M24.7202 9.31797C24.6891 9.73408 24.6354 10.1482 24.5594 10.5585C24.3987 11.6014 24.3987 12.6627 24.5594 13.7056C24.6879 14.466 24.6879 15.2425 24.5594 16.0028C24.5594 16.3244 24.3756 16.646 24.2837 17.0136C23.7783 16.0717 23.2729 15.1529 22.8135 14.211C22.3516 13.351 22.0115 12.431 21.8027 11.4773C21.7218 11.1065 21.7218 10.7226 21.8027 10.3517C21.8378 10.0615 21.9707 9.7919 22.1794 9.58729C22.3882 9.38269 22.6605 9.25529 22.9513 9.22609C23.5287 9.1229 24.1198 9.1229 24.6972 9.22609L24.7202 9.31797ZM23.0891 10.5814C23.2434 10.5733 23.3927 10.5243 23.5219 10.4395C23.651 10.3548 23.7554 10.2373 23.8243 10.099C23.9391 9.91525 23.8243 9.77741 23.6864 9.7085C23.4902 9.64659 23.2823 9.63097 23.0791 9.66285C22.8758 9.69474 22.6827 9.77326 22.5148 9.89227C22.4811 9.90967 22.4528 9.93602 22.433 9.96843C22.4133 10.0009 22.4028 10.0381 22.4028 10.0761C22.4028 10.114 22.4133 10.1512 22.433 10.1837C22.4528 10.2161 22.4811 10.2424 22.5148 10.2598C22.5802 10.3532 22.6658 10.4305 22.7653 10.4862C22.8647 10.5419 22.9754 10.5744 23.0891 10.5814Z" fill="#1971BD"/>
<path d="M10.4546 21.9296L11.3505 21.7228L12.2924 21.4472C12.6912 21.3002 13.0304 21.0256 13.2572 20.6661C13.4639 20.4134 13.6937 20.1607 13.9004 19.8851C14.1072 19.6094 14.5207 19.5864 14.8193 19.8851C14.8957 19.9599 14.9564 20.0493 14.9978 20.1479C15.0393 20.2465 15.0606 20.3524 15.0606 20.4594C15.0606 20.5663 15.0393 20.6722 14.9978 20.7709C14.9564 20.8695 14.8957 20.9588 14.8193 21.0337C14.4496 21.4962 13.9626 21.8511 13.409 22.0612C12.8554 22.2713 12.2556 22.329 11.6721 22.2282C11.3462 22.1813 11.0238 22.1123 10.7073 22.0215L10.4316 21.8836L10.4546 21.9296Z" fill="#1971BD"/>
<path d="M28.8552 19.9081L28.6484 20.0689C27.9001 20.6323 27.0087 20.9745 26.0755 21.0567C25.5203 21.1484 24.9538 21.1484 24.3986 21.0567C23.9851 21.0567 23.9621 21.0567 23.9851 20.5513C23.982 20.4317 24.0029 20.3127 24.0466 20.2014C24.0902 20.09 24.1557 19.9885 24.2392 19.9029C24.3227 19.8172 24.4225 19.7492 24.5328 19.7027C24.643 19.6563 24.7614 19.6324 24.881 19.6324C25.446 19.9975 26.1184 20.1595 26.7877 20.0918L28.8552 19.9081Z" fill="#1971BD"/>
</g>
<defs>
<clipPath id="clip0">
<rect width="32" height="32" fill="white"/>
</clipPath>
</defs>
</svg>
