<svg xmlns="http://www.w3.org/2000/svg" width="33" height="33" fill="none" xmlns:v="https://vecta.io/nano"><g clip-path="url(#A)"><path d="M29.114 13.395H20.03c-.357-.048-.685-.226-.921-.499a1.49 1.49 0 0 1-.362-.987V2.328a1.48 1.48 0 0 0-.1-.577c-.071-.184-.179-.351-.316-.493a1.47 1.47 0 0 0-.482-.331C17.669.85 17.475.81 17.278.81h-3.176c-.39 0-.763.155-1.039.432a1.48 1.48 0 0 0-.43 1.043v9.675a1.51 1.51 0 0 1-.427.939 1.5 1.5 0 0 1-.929.443h-2.39a1.49 1.49 0 0 1-.886-.462 1.5 1.5 0 0 1-.397-.92V2.328a1.48 1.48 0 0 0-.1-.577c-.071-.184-.179-.351-.316-.493a1.47 1.47 0 0 0-.482-.331C6.527.85 6.332.81 6.136.81H2.959c-.196 0-.391.039-.572.116a1.47 1.47 0 0 0-.482.331c-.137.141-.244.309-.316.493a1.48 1.48 0 0 0-.1.577v27.954a1.48 1.48 0 0 0 .43 1.043c.276.277.649.432 1.039.432h26.165c.39 0 .763-.155 1.039-.432a1.48 1.48 0 0 0 .43-1.043V14.871c0-.195-.038-.387-.113-.567s-.184-.343-.321-.48a1.47 1.47 0 0 0-.48-.319c-.179-.074-.372-.111-.565-.109zm-4.138 10.569a1.48 1.48 0 0 1-.43 1.043c-.276.277-.649.432-1.039.432h-3.228c-.39 0-.763-.155-1.039-.432a1.48 1.48 0 0 1-.43-1.043V20.95a1.48 1.48 0 0 1 .445-1.017c.274-.268.642-.418 1.024-.417h3.176c.39 0 .763.155 1.039.432a1.48 1.48 0 0 1 .43 1.043l.052 2.972z" fill="#1971bd"/></g><defs><clipPath id="A"><path fill="#fff" transform="translate(.148 .342)" d="M0 0h32v32H0z"/></clipPath></defs></svg>