<svg width="32" height="32" viewBox="0 0 32 32" fill="none" xmlns="http://www.w3.org/2000/svg">
<path d="M31.9744 8.79181C31.9744 9.43121 31.9744 10.0935 31.9744 10.7329C31.9914 10.8707 31.9597 11.0101 31.8846 11.127C31.8095 11.2438 31.6958 11.3306 31.5633 11.3723L18.2728 16.6245L16.2176 17.4238C16.0414 17.4926 15.8458 17.4926 15.6695 17.4238L0.392352 11.3494C0.269588 11.3172 0.162635 11.2417 0.0912699 11.1367C0.0199045 11.0318 -0.011046 10.9045 0.00414177 10.7785C0.00414177 9.43122 0.00414177 8.0839 0.00414177 6.75942C-0.0109268 6.62745 0.0224456 6.49449 0.0980532 6.38528C0.173661 6.27607 0.286358 6.19803 0.415187 6.16569C5.48475 4.15613 10.5543 2.12374 15.6467 0.0685076C15.7552 0.0232837 15.8717 0 15.9893 0C16.1068 0 16.2233 0.0232837 16.3318 0.0685076L31.5176 6.14285C31.6001 6.16128 31.6778 6.19646 31.7461 6.24619C31.8144 6.29591 31.8717 6.35914 31.9145 6.43194C31.9573 6.50474 31.9847 6.58556 31.995 6.66939C32.0053 6.75322 31.9983 6.83827 31.9744 6.91927C31.9744 7.55867 31.9744 8.22091 31.9744 8.88315V8.79181ZM7.79117 5.25225C7.36523 5.22869 6.93831 5.22869 6.51236 5.25225C5.84387 5.30317 5.20305 5.54051 4.66266 5.93733C4.55411 6.00503 4.46459 6.09925 4.40252 6.21111C4.34045 6.32298 4.30789 6.4488 4.30789 6.57673C4.30789 6.70466 4.34045 6.83048 4.40252 6.94235C4.46459 7.05421 4.55411 7.14843 4.66266 7.21614C4.96363 7.44246 5.29397 7.62684 5.6446 7.7642C7.1164 8.27994 8.7117 8.3278 10.2118 7.90121C10.6356 7.78266 11.0315 7.58082 11.3764 7.30748C11.4755 7.24604 11.5574 7.16031 11.6141 7.0584C11.6708 6.9565 11.7006 6.8418 11.7006 6.72516C11.7006 6.60853 11.6708 6.49383 11.6141 6.39193C11.5574 6.29002 11.4755 6.20429 11.3764 6.14285C11.1592 5.93495 10.9031 5.77198 10.6228 5.6633C9.71676 5.33497 8.7532 5.19509 7.79117 5.25225ZM27.7269 6.73658H27.5442L23.3652 5.06956C23.2398 5.02422 23.1025 5.02422 22.977 5.06956L19.4375 6.46255L19.1634 6.6224L19.3461 6.73658L23.5479 8.44927C23.6812 8.49451 23.8257 8.49451 23.959 8.44927L27.4072 6.91927L27.7269 6.73658ZM18.661 2.35209L15.9893 2.78598C15.7645 2.84301 15.529 2.84301 15.3042 2.78598L13.2718 1.96388H12.9292L13.6143 3.33404L10.6 3.92777H10.8283L13.7057 4.17896C13.8036 4.17283 13.9009 4.19839 13.9831 4.25186C14.0654 4.30532 14.1282 4.38386 14.1624 4.47583L14.7333 5.64046C15.19 5.25225 15.601 4.88688 16.0349 4.56717C16.1765 4.45042 16.3538 4.38591 16.5373 4.38449L18.8209 4.56717H19.7343V4.49867L17.2224 3.51672L18.661 2.35209ZM16.6515 11.9432L18.2728 8.74614L10.8283 9.49972L16.6515 11.9432Z" fill="#1971BD"/>
<path d="M0.00451062 20.9405L7.24348 23.8178L15.6014 27.1519C15.7205 27.2028 15.8487 27.229 15.9782 27.229C16.1077 27.229 16.2359 27.2028 16.355 27.1519L31.4723 21.1232L31.9747 20.9405C31.9747 20.9405 31.9747 21.1689 31.9747 21.2602C31.9747 22.5847 31.9747 23.8863 31.9747 25.2108C31.995 25.3496 31.9614 25.4909 31.8806 25.6056C31.7999 25.7203 31.6783 25.7997 31.5408 25.8274C26.4713 27.837 21.4017 29.8693 16.3093 31.8561C16.2046 31.9007 16.092 31.9236 15.9782 31.9236C15.8644 31.9236 15.7518 31.9007 15.6471 31.8561L0.415556 25.8274C0.283077 25.7857 0.169399 25.6989 0.0942987 25.5821C0.0191979 25.4653 -0.0125737 25.3258 0.00451062 25.188C0.00451062 23.8863 0.00451062 22.5619 0.00451062 21.2602V20.9405Z" fill="#1971BD"/>
<path d="M0.0045046 13.77L7.97422 16.83L15.6014 19.8672C15.7229 19.9242 15.8554 19.9538 15.9896 19.9538C16.1238 19.9538 16.2564 19.9242 16.3778 19.8672L31.4267 13.8842L31.9747 13.77C31.9747 13.77 31.9747 13.9527 31.9747 14.044C31.9747 15.3914 31.9747 16.7387 31.9747 18.0632C31.9899 18.1892 31.959 18.3164 31.8876 18.4214C31.8162 18.5263 31.7093 18.6019 31.5865 18.6341L16.3093 24.5714C16.2046 24.616 16.092 24.639 15.9782 24.639C15.8644 24.639 15.7518 24.616 15.6471 24.5714L0.392714 18.5199C0.272353 18.4837 0.168097 18.4072 0.097419 18.3032C0.0267412 18.1993 -0.00606284 18.0742 0.0045046 17.949C0.0045046 16.6017 0.0045046 15.2772 0.0045046 13.9299C0.0045046 13.77 0.0045046 13.77 0.0045046 13.77Z" fill="#1971BD"/>
</svg>
