<svg xmlns="http://www.w3.org/2000/svg" width="14" height="14" viewBox="0 0 14 14">
  <g id="Machines_Sets" data-name="Machines Sets" transform="translate(22551 -15390)">
    <rect id="Rectangle_1792" data-name="Rectangle 1792" width="14" height="14" transform="translate(-22551 15390)" fill="none"/>
    <g id="Group_1993" data-name="Group 1993" transform="translate(-22624.029 15294.402)">
      <path id="Path_2679" data-name="Path 2679" d="M83.805,108.868l3.146-1.454v-3.449L83.805,105.4Z" fill="#0071bd"/>
      <path id="Path_2680" data-name="Path 2680" d="M76.376,102.21l-3.027,1.4L76.4,105l3.027-1.383Z" fill="#0071bd"/>
      <path id="Path_2681" data-name="Path 2681" d="M83.605,102.21l-3.056,1.411L83.576,105l3.056-1.4Z" fill="#0071bd"/>
      <path id="Path_2682" data-name="Path 2682" d="M73.03,107.414l3.146,1.454V105.4l-3.146-1.438Z" fill="#0071bd"/>
      <path id="Path_2683" data-name="Path 2683" d="M76.634,108.868l3.128-1.445v-3.45l-3.128,1.43Z" fill="#0071bd"/>
      <path id="Path_2684" data-name="Path 2684" d="M80.219,103.27l3.147-1.454V98.369l-3.147,1.453Z" fill="#0071bd"/>
      <path id="Path_2685" data-name="Path 2685" d="M80.219,107.423l3.128,1.445V105.4l-3.128-1.43Z" fill="#0071bd"/>
      <path id="Path_2686" data-name="Path 2686" d="M79.991,96.6l-3.059,1.413,3.059,1.413,3.058-1.413Z" fill="#0071bd"/>
      <path id="Path_2687" data-name="Path 2687" d="M76.615,101.816l3.147,1.454V99.822l-3.147-1.453Z" fill="#0071bd"/>
    </g>
  </g>
</svg>
