<?xml version="1.0" encoding="utf-8"?>
<!-- Generator: Adobe Illustrator 23.0.1, SVG Export Plug-In . SVG Version: 6.00 Build 0)  -->
<svg version="1.1"
	 id="svg13826" inkscape:version="0.91 r13725" sodipodi:docname="ds.svg" xmlns:cc="http://creativecommons.org/ns#" xmlns:dc="http://purl.org/dc/elements/1.1/" xmlns:inkscape="http://www.inkscape.org/namespaces/inkscape" xmlns:rdf="http://www.w3.org/1999/02/22-rdf-syntax-ns#" xmlns:sodipodi="http://sodipodi.sourceforge.net/DTD/sodipodi-0.dtd" xmlns:svg="http://www.w3.org/2000/svg"
	 xmlns="http://www.w3.org/2000/svg" xmlns:xlink="http://www.w3.org/1999/xlink" x="0px" y="0px" viewBox="0 0 50 50"
	 style="enable-background:new 0 0 50 50;" xml:space="preserve">
<style type="text/css">
	.st0{fill:none;stroke:#1971BD;stroke-linecap:square;stroke-linejoin:round;}
	.st1{fill:none;stroke:#1971BD;stroke-linecap:square;stroke-linejoin:round;stroke-dasharray:2.6727,2.6727;}
	.st2{fill:none;stroke:#1971BD;stroke-linecap:square;stroke-linejoin:round;stroke-dasharray:2.8328,2.8328;}
	.st3{fill:none;stroke:#1971BD;stroke-width:1.2719;stroke-linecap:round;}
	.st4{fill:none;stroke:#FFFFFF;stroke-width:0.9201;stroke-linejoin:round;stroke-miterlimit:10;}
	.st5{fill-rule:evenodd;clip-rule:evenodd;fill:#1971BD;}
</style>
<sodipodi:namedview  bordercolor="#666666" borderopacity="1.0" fit-margin-bottom="0" fit-margin-left="0" fit-margin-right="0" fit-margin-top="0" id="base" inkscape:current-layer="layer1" inkscape:cx="12.232062" inkscape:cy="30.427122" inkscape:document-units="mm" inkscape:pageopacity="0.0" inkscape:pageshadow="2" inkscape:window-height="775" inkscape:window-maximized="1" inkscape:window-width="1440" inkscape:window-x="0" inkscape:window-y="1" inkscape:zoom="9.1810446" pagecolor="#ffffff" showgrid="false">
	</sodipodi:namedview>
<g id="layer1" transform="translate(-0.99262638,-1.174181)" inkscape:groupmode="layer" inkscape:label="Calque 1">
	<g id="g3343" transform="translate(0.58627835,0.45731048)">
		<g id="path9163" inkscape:connector-curvature="0">
			<g>
				<polyline class="st0" points="17.7,6.6 17.7,5.2 19,5.2 				"/>
				<line class="st1" x1="21.7" y1="5.2" x2="47.1" y2="5.2"/>
				<polyline class="st0" points="48.4,5.2 49.8,5.2 49.8,6.6 				"/>
				<line class="st2" x1="49.8" y1="9.4" x2="49.8" y2="25"/>
				<polyline class="st0" points="49.8,26.4 49.8,27.8 48.4,27.8 				"/>
				<line class="st1" x1="45.8" y1="27.8" x2="20.4" y2="27.8"/>
				<polyline class="st0" points="19,27.8 17.7,27.8 17.7,26.4 				"/>
				<line class="st2" x1="17.7" y1="23.6" x2="17.7" y2="8"/>
			</g>
		</g>
		<path id="path9179" inkscape:connector-curvature="0" class="st3" d="M1.1,46.3h33.3"/>
		<g id="path9167" inkscape:connector-curvature="0">
			<g>
				<polyline class="st0" points="10.1,13.5 10.1,12.2 11.5,12.2 				"/>
				<line class="st1" x1="14.1" y1="12.2" x2="39.5" y2="12.2"/>
				<polyline class="st0" points="40.9,12.2 42.2,12.2 42.2,13.5 				"/>
				<line class="st2" x1="42.2" y1="16.4" x2="42.2" y2="32"/>
				<polyline class="st0" points="42.2,33.4 42.2,34.7 40.9,34.7 				"/>
				<line class="st1" x1="38.2" y1="34.7" x2="12.8" y2="34.7"/>
				<polyline class="st0" points="11.5,34.7 10.1,34.7 10.1,33.4 				"/>
				<line class="st2" x1="10.1" y1="30.5" x2="10.1" y2="15"/>
			</g>
		</g>
		<path id="path9171" inkscape:connector-curvature="0" class="st4" d="M2.5,19.1h32.2v22.6H2.5V19.1z"/>
		<path id="path9169" inkscape:connector-curvature="0" class="st5" d="M2.3,19.2h32.2v22.6H2.3L2.3,19.2z"/>
	</g>
</g>
</svg>
