<svg width="32" height="32" viewBox="0 0 32 32" fill="none" xmlns="http://www.w3.org/2000/svg">
<path fill-rule="evenodd" clip-rule="evenodd" d="M10.6147 3.95663H31.0001V18.2758H10.6147V3.95663Z" stroke="#1971BD" stroke-width="0.529146" stroke-miterlimit="10" stroke-linecap="square" stroke-linejoin="round" stroke-dasharray="1.59 1.59"/>
<path fill-rule="evenodd" clip-rule="evenodd" d="M5.80688 8.36591H26.1922V22.6851H5.80688V8.36591Z" stroke="#1971BD" stroke-width="0.529146" stroke-miterlimit="10" stroke-linecap="square" stroke-linejoin="round" stroke-dasharray="1.59 1.59"/>
<path fill-rule="evenodd" clip-rule="evenodd" d="M1 12.7752H21.3853V27.0944H1V12.7752Z" fill="#1971BD"/>
<path fill-rule="evenodd" clip-rule="evenodd" d="M1 12.7752H21.3853V27.0944H1V12.7752Z" stroke="#1971BD" stroke-width="0.529167" stroke-miterlimit="10" stroke-linejoin="round"/>
<path fill-rule="evenodd" clip-rule="evenodd" d="M2.66553 16.7563C2.66553 15.4147 6.48294 14.3272 11.1919 14.3272C15.901 14.3272 19.7184 15.4147 19.7184 16.7563C19.7184 18.0978 15.901 19.1854 11.1919 19.1854C6.48294 19.1854 2.66553 18.0978 2.66553 16.7563Z" fill="#1971BD"/>
<path d="M19.7184 16.7563C19.7184 18.0978 15.9009 19.1854 11.1919 19.1854C6.48293 19.1854 2.66553 18.0978 2.66553 16.7563C2.66553 15.4147 6.48293 14.3272 11.1919 14.3272C15.9009 14.3272 19.7184 15.4147 19.7184 16.7563ZM19.7184 16.7563V23.3275C19.7184 24.669 15.9009 25.7565 11.1919 25.7565C6.48293 25.7565 2.66553 24.669 2.66553 23.3275V16.7563" stroke="white" stroke-width="0.529167" stroke-miterlimit="10" stroke-linejoin="round"/>
</svg>
