<?xml version="1.0" encoding="utf-8"?>
<!-- Generator: Adobe Illustrator 23.0.1, SVG Export Plug-In . SVG Version: 6.00 Build 0)  -->
<svg version="1.1"
	 id="svg13826" inkscape:version="0.91 r13725" sodipodi:docname="sts.svg" xmlns:cc="http://creativecommons.org/ns#" xmlns:dc="http://purl.org/dc/elements/1.1/" xmlns:inkscape="http://www.inkscape.org/namespaces/inkscape" xmlns:rdf="http://www.w3.org/1999/02/22-rdf-syntax-ns#" xmlns:sodipodi="http://sodipodi.sourceforge.net/DTD/sodipodi-0.dtd" xmlns:svg="http://www.w3.org/2000/svg"
	 xmlns="http://www.w3.org/2000/svg" xmlns:xlink="http://www.w3.org/1999/xlink" x="0px" y="0px" viewBox="0 0 50 50"
	 style="enable-background:new 0 0 50 50;" xml:space="preserve">
<style type="text/css">
	
		.st0{fill:none;stroke:#0071BD;stroke-width:0.9531;stroke-linecap:square;stroke-linejoin:round;stroke-miterlimit:10;stroke-dasharray:2.8594,2.8594;stroke-dashoffset:6;}
	
		.st1{fill-rule:evenodd;clip-rule:evenodd;fill:none;stroke:#0071BD;stroke-width:0.9531;stroke-linecap:square;stroke-linejoin:round;stroke-miterlimit:10;stroke-dasharray:2.8594,2.8594;stroke-dashoffset:6;}
	.st2{fill-rule:evenodd;clip-rule:evenodd;fill:#0071BD;}
	.st3{fill:none;stroke:#FFFFFF;stroke-width:0.9532;stroke-linejoin:round;stroke-miterlimit:10;}
	.st4{fill-rule:evenodd;clip-rule:evenodd;fill-opacity:0;}
</style>
<sodipodi:namedview  bordercolor="#666666" borderopacity="1.0" fit-margin-bottom="0" fit-margin-left="0" fit-margin-right="0" fit-margin-top="0" id="base" inkscape:current-layer="layer1" inkscape:cx="-2.090004" inkscape:cy="28.752239" inkscape:document-units="mm" inkscape:pageopacity="0.0" inkscape:pageshadow="2" inkscape:window-height="775" inkscape:window-maximized="1" inkscape:window-width="1440" inkscape:window-x="0" inkscape:window-y="1" inkscape:zoom="8" pagecolor="#ffffff" showgrid="false">
	</sodipodi:namedview>
<g id="layer1" transform="translate(-0.99262638,-1.174181)" inkscape:groupmode="layer" inkscape:label="Calque 1">
	<g id="g4221" transform="translate(0.26877762,1.0923105)">
		<path id="path1234" inkscape:connector-curvature="0" class="st0" d="M17,6.2h33.3v23.4H17L17,6.2z"/>
		<g id="g4213">
			<path id="path1238" inkscape:connector-curvature="0" class="st1" d="M9.1,13.4h33.3v23.4H9.1V13.4z"/>
			<path id="path1240" inkscape:connector-curvature="0" class="st2" d="M1.3,20.6h33.3V44H1.3L1.3,20.6z"/>
			<path id="path1242" inkscape:connector-curvature="0" class="st3" d="M1.3,20.6h33.3V44H1.3L1.3,20.6z"/>
			<path id="path1246" inkscape:connector-curvature="0" class="st2" d="M4,27.1L4,27.1c0-2.2,6.2-4,13.9-4s13.9,1.8,13.9,4l0,0
				c0,2.2-6.2,4-13.9,4S4,29.3,4,27.1z"/>
			<path id="path1248" inkscape:connector-curvature="0" class="st4" d="M31.8,27.1L31.8,27.1c0,2.2-6.2,4-13.9,4
				c-7.7,0-13.9-1.8-13.9-4l0,0c0-2.2,6.2-4,13.9-4S31.8,24.9,31.8,27.1v10.7c0,2.2-6.2,4-13.9,4C10.2,41.8,4,40,4,37.8V27.1"/>
			<path id="path1250" inkscape:connector-curvature="0" class="st3" d="M31.8,27.1L31.8,27.1c0,2.2-6.2,4-13.9,4
				c-7.7,0-13.9-1.8-13.9-4l0,0c0-2.2,6.2-4,13.9-4S31.8,24.9,31.8,27.1v10.7c0,2.2-6.2,4-13.9,4C10.2,41.8,4,40,4,37.8V27.1"/>
		</g>
	</g>
</g>
</svg>
