<svg width="32" height="32" viewBox="0 0 32 32" fill="none" xmlns="http://www.w3.org/2000/svg">
<path d="M27.0086 23.9243H11.3422C10.8526 23.9243 10.4548 23.5225 10.4548 23.028C10.4548 22.5334 10.8526 22.1316 11.3422 22.1316H27.0086C27.4981 22.1316 27.8959 22.5334 27.8959 23.028C27.8959 23.5225 27.4981 23.9243 27.0086 23.9243Z" fill="#1971BD"/>
<path d="M4.74314 22.1213C5.24291 22.111 5.65089 22.5334 5.64069 23.0383C5.63049 23.5225 5.24291 23.914 4.76354 23.914C4.28416 23.914 3.88638 23.5328 3.86599 23.0486C3.84559 22.554 4.24337 22.1316 4.74314 22.1213Z" fill="#1971BD"/>
<path d="M8.16011 23.9243C7.67054 23.9139 7.29316 23.5327 7.28296 23.0485C7.28296 22.5333 7.68074 22.1212 8.18051 22.1212C8.68028 22.1315 9.07806 22.5539 9.05767 23.0588C9.03727 23.543 8.64969 23.9243 8.16011 23.9243Z" fill="#1971BD"/>
<path d="M31.9858 20.5655C31.996 19.8855 31.8328 19.2879 31.435 18.7315C31.435 18.7315 31.435 18.7315 31.4248 18.7212C31.0985 18.2679 30.5783 18 30.0275 18H29.1912C20.3482 18 11.6175 18 2.81536 18H1.68322C1.29564 18 0.918258 18.1958 0.69387 18.5152C0.234894 19.1642 -0.00989315 19.8442 0.000306311 20.6479C0.0207052 22.1727 0.0717025 23.7079 0.0105058 25.2328C-0.0608904 27.0976 0.775465 28.0249 2.52977 28.0249C6.99714 28.0249 11.4645 28.0249 15.9421 28.0249C20.3992 28.0249 24.8462 27.9734 29.3034 28.0455C31.1801 28.0764 32.0674 26.8709 31.996 25.3461C31.9246 23.7594 31.9654 22.1624 31.9858 20.5655ZM30.5681 25.5934C30.5681 25.82 30.5069 26.0364 30.3947 26.2322C30.1091 26.6855 29.7521 26.6237 29.4053 26.6237C20.491 26.6237 11.5665 26.6237 2.65217 26.6237C1.63222 26.6237 1.43843 26.4176 1.42823 25.3873C1.42823 23.7697 1.42823 22.1624 1.42823 20.5449C1.42823 19.6794 1.66282 19.4321 2.50937 19.4321C5.55901 19.4321 8.61885 19.4321 11.6685 19.4321C13.127 19.4321 14.5855 19.4321 16.0339 19.4321C16.0339 19.4218 16.0339 19.4218 16.0339 19.4115C18.5123 19.4115 20.9908 19.4115 23.4591 19.4115C25.5602 19.4115 27.6612 19.4115 29.7623 19.4218C30.2111 19.4218 30.5579 19.7515 30.5681 20.2461C30.5783 22.0285 30.5783 23.8109 30.5681 25.5934Z" fill="#1971BD"/>
<path d="M21.5257 12.2523C21.2041 12.2523 20.9104 12.1679 20.6586 12.0414C20.3229 12.8288 19.5957 13.4194 18.6866 13.5318C18.5887 13.5459 18.4908 13.5459 18.3929 13.5459C17.1482 13.5459 16.0992 12.6038 15.9454 11.3524C15.9454 11.3242 15.9314 11.2821 15.9314 11.2399C15.7915 10.4524 15.372 9.7775 14.7846 9.29942C14.9804 9.3416 15.1762 9.35566 15.386 9.35566C16.0433 9.35566 16.7286 9.15881 17.4279 8.79322H17.4419C17.4559 8.79322 17.4698 8.77916 17.4698 8.77916C17.4698 8.77916 17.6796 8.65261 18.0153 8.56824C18.0293 8.56824 18.0433 8.56824 18.0712 8.56824C18.1691 8.55418 18.253 8.55418 18.3509 8.55418C18.9803 8.55418 19.5677 8.80728 20.0153 9.21505C20.3649 8.75103 20.9104 8.45575 21.5257 8.45575C21.5537 8.45575 21.5957 8.45575 21.6236 8.45575C21.3859 8.16046 21.1062 7.8933 20.7985 7.66832C20.1271 7.11993 19.3439 6.83871 18.5048 6.83871C17.8335 6.83871 17.1342 7.0215 16.6167 7.34491C16.309 7.51365 15.8475 7.69644 15.372 7.69644C14.9384 7.69644 14.5748 7.52771 14.2811 7.19024C14.0293 6.89495 13.9035 6.55749 13.8895 6.17783C13.9174 5.78412 14.0713 5.41853 14.337 5.15137C14.6307 4.85608 15.0223 4.70141 15.4419 4.70141C15.8615 4.70141 16.2671 4.87014 16.5468 5.16542C16.6587 5.27791 16.7566 5.40447 16.8265 5.54508C16.9664 5.8263 17.2601 6.0091 17.5817 6.0091C17.7216 6.0091 17.8475 5.98098 17.9733 5.91067C18.3929 5.69975 18.5467 5.17949 18.337 4.75765C18.1831 4.46237 17.9873 4.1952 17.7635 3.97022C17.1482 3.35153 16.323 3 15.4559 3C14.6867 3 13.9314 3.26716 13.358 3.77337C13.344 3.77337 13.33 3.78743 13.3161 3.80149C13.2881 3.82961 13.2601 3.84367 13.2461 3.87179C13.2321 3.88586 13.2182 3.88586 13.2182 3.89992L13.2042 3.91398C13.1902 3.92804 13.1762 3.9421 13.1622 3.9421C13.1482 3.95616 13.1482 3.95616 13.1342 3.97022C13.0783 4.02647 13.0224 4.08271 12.9664 4.15302L12.9524 4.16708C12.9384 4.18114 12.9245 4.1952 12.9245 4.20926C12.5189 4.72953 12.2811 5.34822 12.2391 5.99504C12.1972 6.82465 12.4909 7.62614 13.0363 8.27295C13.1482 8.3995 13.2741 8.52605 13.386 8.62448C13.0363 8.55418 12.6727 8.52606 12.3091 8.56824C10.5189 8.77916 9.24618 10.4103 9.45597 12.2101C9.65177 13.8553 11.0364 15.1067 12.6867 15.1067C12.8126 15.1067 12.9524 15.0926 13.0783 15.0786C13.414 15.0364 13.7216 14.952 14.0153 14.8114C14.4349 14.6146 14.6307 14.1224 14.4489 13.6865C14.309 13.3772 14.0153 13.1803 13.6797 13.1803C13.5678 13.1803 13.4419 13.2084 13.33 13.2506C13.1902 13.3209 13.0363 13.3631 12.8825 13.3772C12.8126 13.3912 12.7566 13.3912 12.7007 13.3912C11.9035 13.3912 11.2322 12.8007 11.1483 11.9992C11.0923 11.5773 11.2182 11.1696 11.4699 10.8462C11.7357 10.5087 12.0993 10.2978 12.5189 10.2556C12.5888 10.2415 12.6447 10.2415 12.7007 10.2415C13.4979 10.2415 14.1692 10.8321 14.2531 11.6195C14.2531 11.6476 14.2671 11.6898 14.2671 11.7179C14.4209 12.6882 14.9244 13.574 15.6797 14.2208C16.4349 14.8536 17.3859 15.2192 18.3649 15.2192C18.5328 15.2192 18.7006 15.2051 18.8544 15.1911C20.6306 14.9801 22.0292 13.6443 22.4208 11.9851C22.1691 12.182 21.8614 12.2523 21.5257 12.2523Z" fill="#1971BD"/>
</svg>
