<svg width="32" height="32" viewBox="0 0 32 32" fill="none" xmlns="http://www.w3.org/2000/svg">
<path fill-rule="evenodd" clip-rule="evenodd" d="M10.997 9.51351V6.82283H21.952V9.51351H10.997ZM9.84397 10.1006C9.8439 10.0971 9.84387 10.0936 9.84387 10.0901V6.24625C9.84387 5.92782 10.102 5.66968 10.4204 5.66968H22.5286C22.847 5.66968 23.1051 5.92782 23.1051 6.24625V10.0796C23.1052 10.0831 23.1052 10.0866 23.1052 10.0901V13.9339C23.1052 14.2524 22.8471 14.5105 22.5287 14.5105H10.4205C10.1021 14.5105 9.84397 14.2524 9.84397 13.9339V10.1006ZM10.9971 10.6667V13.3574H21.9521V10.6667H10.9971Z" fill="#1971BD"/>
<path d="M21.9391 26.1842C21.6249 26.1842 21.3241 26.1038 21.0634 25.9697C20.7292 26.7539 19.994 27.3504 19.0849 27.4576C18.9913 27.471 18.891 27.4777 18.7908 27.4777C17.5408 27.4777 16.4914 26.5394 16.3376 25.2928C16.3309 25.2593 16.3309 25.2258 16.3176 25.1856C16.1705 24.4014 15.7561 23.7178 15.1745 23.2419C15.3684 23.2754 15.5756 23.2955 15.7828 23.2955C16.4446 23.2955 17.1331 23.1012 17.8282 22.7325C17.8282 22.7325 17.8349 22.7325 17.8349 22.7258L17.8416 22.7191C17.8483 22.7124 17.8616 22.7057 17.8683 22.699C17.8683 22.699 18.0822 22.565 18.4164 22.4845C18.4365 22.4778 18.4499 22.4778 18.4699 22.4778C18.5635 22.4711 18.6571 22.4577 18.7573 22.4577C19.3924 22.4577 19.9739 22.7124 20.4284 23.1213C20.776 22.6588 21.3241 22.3639 21.9391 22.3639C21.9725 22.3639 22.0059 22.3706 22.0394 22.3706C21.7987 22.0757 21.5247 21.8143 21.2172 21.5864C20.5421 21.0369 19.7667 20.7621 18.9178 20.7621C18.2493 20.7621 17.5408 20.9497 17.0261 21.2647C16.7186 21.4323 16.2574 21.62 15.7828 21.62C15.3416 21.62 14.9807 21.4524 14.6866 21.1173C14.4393 20.8291 14.2989 20.4806 14.2989 20.1052C14.3189 19.7165 14.4794 19.3479 14.7534 19.0798C15.0542 18.7849 15.4419 18.624 15.8563 18.624C16.2775 18.624 16.6785 18.7916 16.9726 19.0865C17.0796 19.2004 17.1798 19.3278 17.2534 19.4685C17.4004 19.7567 17.6879 19.931 18.0087 19.931C18.1491 19.931 18.2761 19.8975 18.4031 19.8371C18.8175 19.6227 18.9779 19.1066 18.764 18.6911C18.6103 18.3962 18.4164 18.1281 18.1892 17.9002C17.5675 17.2769 16.752 16.9351 15.8697 16.9351C15.101 16.9351 14.3457 17.2031 13.7641 17.7058C13.7575 17.7125 13.7374 17.7259 13.724 17.7393C13.6973 17.7594 13.6706 17.7862 13.6505 17.8064C13.6438 17.8131 13.6305 17.8265 13.6171 17.8399C13.6104 17.8466 13.6104 17.8466 13.6037 17.8533C13.5903 17.86 13.5837 17.8734 13.5703 17.8868C13.5636 17.8935 13.5569 17.9002 13.5502 17.9069C13.4901 17.9672 13.4366 18.0275 13.3831 18.0946L13.3631 18.108C13.3564 18.1214 13.343 18.1281 13.3297 18.1415C12.9152 18.6575 12.6813 19.2742 12.6479 19.931C12.6144 20.7554 12.8952 21.5663 13.45 22.2098C13.5636 22.3371 13.6839 22.4577 13.8042 22.565C13.4633 22.4912 13.089 22.4711 12.7281 22.5114C10.9367 22.7258 9.65326 24.3612 9.86716 26.1574C10.061 27.8062 11.458 29.0461 13.1091 29.0461C13.2361 29.0461 13.3698 29.0394 13.4968 29.026C13.8243 28.9858 14.1451 28.8986 14.4393 28.7646C14.8671 28.5702 15.0609 28.0675 14.8671 27.6386C14.7267 27.3303 14.4259 27.1359 14.0917 27.1359C13.9714 27.1359 13.8577 27.156 13.7508 27.2097C13.6104 27.2767 13.45 27.3169 13.2962 27.337C13.2294 27.3437 13.1692 27.3437 13.1091 27.3437C12.3136 27.3437 11.6452 26.7472 11.5516 25.9563C11.4981 25.5408 11.6185 25.1319 11.8792 24.7968C12.1398 24.4684 12.5142 24.2539 12.9286 24.207C12.9954 24.2003 13.0556 24.2003 13.1158 24.2003C13.9112 24.2003 14.5796 24.7968 14.6732 25.581C14.6799 25.6145 14.6799 25.648 14.6866 25.6748C14.847 26.6467 15.3483 27.5381 16.1103 28.1815C16.859 28.8182 17.8215 29.1734 18.7975 29.1734C18.9646 29.1734 19.125 29.1667 19.2921 29.1466C21.0768 28.9321 22.4738 27.6051 22.8615 25.9429C22.5875 26.1038 22.2733 26.1842 21.9391 26.1842Z" fill="#1971BD"/>
<path opacity="0.6" d="M21.9391 26.1842C21.6249 26.1842 21.3241 26.1038 21.0634 25.9697C20.7292 26.7539 19.994 27.3504 19.0849 27.4576C18.9913 27.471 18.891 27.4777 18.7908 27.4777C17.5408 27.4777 16.4914 26.5394 16.3376 25.2928C16.3309 25.2593 16.3309 25.2258 16.3176 25.1856C16.1705 24.4014 15.7561 23.7178 15.1745 23.2419C15.3684 23.2754 15.5756 23.2955 15.7828 23.2955C16.4446 23.2955 17.1331 23.1012 17.8282 22.7325C17.8282 22.7325 17.8349 22.7325 17.8349 22.7258L17.8416 22.7191C17.8483 22.7124 17.8616 22.7057 17.8683 22.699C17.8683 22.699 18.0822 22.565 18.4164 22.4845C18.4365 22.4778 18.4499 22.4778 18.4699 22.4778C18.5635 22.4711 18.6571 22.4577 18.7573 22.4577C19.3924 22.4577 19.9739 22.7124 20.4284 23.1213C20.776 22.6588 21.3241 22.3639 21.9391 22.3639C21.9725 22.3639 22.0059 22.3706 22.0394 22.3706C21.7987 22.0757 21.5247 21.8143 21.2172 21.5864C20.5421 21.0369 19.7667 20.7621 18.9178 20.7621C18.2493 20.7621 17.5408 20.9497 17.0261 21.2647C16.7186 21.4323 16.2574 21.62 15.7828 21.62C15.3416 21.62 14.9807 21.4524 14.6866 21.1173C14.4393 20.8291 14.2989 20.4806 14.2989 20.1052C14.3189 19.7165 14.4794 19.3479 14.7534 19.0798C15.0542 18.7849 15.4419 18.624 15.8563 18.624C16.2775 18.624 16.6785 18.7916 16.9726 19.0865C17.0796 19.2004 17.1798 19.3278 17.2534 19.4685C17.4004 19.7567 17.6879 19.931 18.0087 19.931C18.1491 19.931 18.2761 19.8975 18.4031 19.8371C18.8175 19.6227 18.9779 19.1066 18.764 18.6911C18.6103 18.3962 18.4164 18.1281 18.1892 17.9002C17.5675 17.2769 16.752 16.9351 15.8697 16.9351C15.101 16.9351 14.3457 17.2031 13.7641 17.7058C13.7575 17.7125 13.7374 17.7259 13.724 17.7393C13.6973 17.7594 13.6706 17.7862 13.6505 17.8064C13.6438 17.8131 13.6305 17.8265 13.6171 17.8399C13.6104 17.8466 13.6104 17.8466 13.6037 17.8533C13.5903 17.86 13.5837 17.8734 13.5703 17.8868C13.5636 17.8935 13.5569 17.9002 13.5502 17.9069C13.4901 17.9672 13.4366 18.0275 13.3831 18.0946L13.3631 18.108C13.3564 18.1214 13.343 18.1281 13.3297 18.1415C12.9152 18.6575 12.6813 19.2742 12.6479 19.931C12.6144 20.7554 12.8952 21.5663 13.45 22.2098C13.5636 22.3371 13.6839 22.4577 13.8042 22.565C13.4633 22.4912 13.089 22.4711 12.7281 22.5114C10.9367 22.7258 9.65326 24.3612 9.86716 26.1574C10.061 27.8062 11.458 29.0461 13.1091 29.0461C13.2361 29.0461 13.3698 29.0394 13.4968 29.026C13.8243 28.9858 14.1451 28.8986 14.4393 28.7646C14.8671 28.5702 15.0609 28.0675 14.8671 27.6386C14.7267 27.3303 14.4259 27.1359 14.0917 27.1359C13.9714 27.1359 13.8577 27.156 13.7508 27.2097C13.6104 27.2767 13.45 27.3169 13.2962 27.337C13.2294 27.3437 13.1692 27.3437 13.1091 27.3437C12.3136 27.3437 11.6452 26.7472 11.5516 25.9563C11.4981 25.5408 11.6185 25.1319 11.8792 24.7968C12.1398 24.4684 12.5142 24.2539 12.9286 24.207C12.9954 24.2003 13.0556 24.2003 13.1158 24.2003C13.9112 24.2003 14.5796 24.7968 14.6732 25.581C14.6799 25.6145 14.6799 25.648 14.6866 25.6748C14.847 26.6467 15.3483 27.5381 16.1103 28.1815C16.859 28.8182 17.8215 29.1734 18.7975 29.1734C18.9646 29.1734 19.125 29.1667 19.2921 29.1466C21.0768 28.9321 22.4738 27.6051 22.8615 25.9429C22.5875 26.1038 22.2733 26.1842 21.9391 26.1842Z" fill="#1971BD"/>
<path d="M22.9425 24.4449C23.0324 23.8896 22.6563 23.3663 22.1024 23.2761C21.5485 23.186 21.0266 23.5632 20.9367 24.1185C20.8468 24.6739 21.2229 25.1972 21.7768 25.2873C22.3307 25.3775 22.8526 25.0003 22.9425 24.4449Z" fill="#1971BD"/>
<path opacity="0.6" d="M22.9425 24.4449C23.0324 23.8896 22.6563 23.3663 22.1024 23.2761C21.5485 23.186 21.0266 23.5632 20.9367 24.1185C20.8468 24.6739 21.2229 25.1972 21.7768 25.2873C22.3307 25.3775 22.8526 25.0003 22.9425 24.4449Z" fill="#1971BD"/>
<path fill-rule="evenodd" clip-rule="evenodd" d="M8.58518 0C8.39515 0 8.21732 0.093639 8.10979 0.250325L6.19728 3.03711C6.14789 3.10909 6.11705 3.18831 6.10372 3.2691C6.03712 3.41489 6 3.57699 6 3.74775V30.8468C6 31.4837 6.51628 32 7.15315 32H25.7958C26.4327 32 26.9489 31.4837 26.9489 30.8468V3.74775C26.9489 3.57699 26.9118 3.4149 26.8452 3.26911C26.8312 3.18407 26.7978 3.10089 26.744 3.02623L24.7354 0.239447C24.6271 0.0890935 24.453 0 24.2677 0H8.58518ZM25.0115 2.59459L23.9725 1.15315H8.88878L7.89956 2.59459H25.0115ZM7.15315 3.74775L25.7958 3.74775V30.8468H7.15315V3.74775Z" fill="#1971BD"/>
</svg>
