<?xml version="1.0" encoding="utf-8"?>
<!-- Generator: Adobe Illustrator 23.0.1, SVG Export Plug-In . SVG Version: 6.00 Build 0)  -->
<svg version="1.1"
	 id="svg13826" inkscape:version="0.91 r13725" sodipodi:docname="sc.svg" xmlns:cc="http://creativecommons.org/ns#" xmlns:dc="http://purl.org/dc/elements/1.1/" xmlns:inkscape="http://www.inkscape.org/namespaces/inkscape" xmlns:rdf="http://www.w3.org/1999/02/22-rdf-syntax-ns#" xmlns:sodipodi="http://sodipodi.sourceforge.net/DTD/sodipodi-0.dtd" xmlns:svg="http://www.w3.org/2000/svg"
	 xmlns="http://www.w3.org/2000/svg" xmlns:xlink="http://www.w3.org/1999/xlink" x="0px" y="0px" viewBox="0 0 50 50"
	 style="enable-background:new 0 0 50 50;" xml:space="preserve">
<style type="text/css">
	.st0{fill-rule:evenodd;clip-rule:evenodd;fill:#0071BD;}
	.st1{fill:none;stroke:#0071BD;stroke-width:0.7634;stroke-linejoin:round;stroke-miterlimit:10;stroke-dasharray:3.0536,0.7634;}
	.st2{fill:none;stroke:#0071BD;stroke-width:0.7634;stroke-linejoin:round;stroke-miterlimit:10;}
	.st3{fill:none;stroke:#0071BD;stroke-width:0.7637;stroke-linejoin:round;stroke-miterlimit:10;stroke-dasharray:3.0547,0.7637;}
</style>
<sodipodi:namedview  bordercolor="#666666" borderopacity="1.0" fit-margin-bottom="0" fit-margin-left="0" fit-margin-right="0" fit-margin-top="0" id="base" inkscape:current-layer="g3347" inkscape:cx="3.0086534" inkscape:cy="26.225672" inkscape:document-units="mm" inkscape:pageopacity="0.0" inkscape:pageshadow="2" inkscape:window-height="775" inkscape:window-maximized="1" inkscape:window-width="1440" inkscape:window-x="0" inkscape:window-y="1" inkscape:zoom="8.01" pagecolor="#ffffff" showgrid="false">
	</sodipodi:namedview>
<g id="layer1" transform="translate(-0.99262638,-1.174181)" inkscape:groupmode="layer" inkscape:label="Calque 1">
	<path id="path6479" inkscape:connector-curvature="0" class="st0" d="M1.1,19.3L1.1,19.3c0,2,11.1,3.6,24.9,3.6
		c13.7,0,24.9-1.6,24.9-3.6v9.6c0,2-11.1,3.6-24.9,3.6c-13.7,0-24.9-1.6-24.9-3.6L1.1,19.3z"/>
	<g id="g3347" transform="translate(-0.10787059,0.73050426)">
		<g id="g3348">
			<path id="path6477" inkscape:connector-curvature="0" class="st1" d="M50.6,34.2L50.6,34.2c0,2-11,3.6-24.5,3.6
				S1.6,36.2,1.6,34.2l0,0c0-2,11-3.6,24.5-3.6S50.6,32.3,50.6,34.2v9.6c0,2-11,3.6-24.5,3.6S1.6,45.8,1.6,43.9v-9.6"/>
			<path id="path6483" inkscape:connector-curvature="0" class="st2" d="M50.6,18.5L50.6,18.5c0,2-11,3.6-24.5,3.6
				S1.6,20.5,1.6,18.5l0,0c0-2,11-3.6,24.5-3.6S50.6,16.5,50.6,18.5v9.6c0,2-11,3.6-24.5,3.6S1.6,30.1,1.6,28.1v-9.6"/>
			<path id="path6489" inkscape:connector-curvature="0" class="st3" d="M50.6,7L50.6,7c0,2-11,3.6-24.5,3.6C12.6,10.6,1.6,9,1.6,7
				l0,0c0-2,11-3.6,24.5-3.6C39.6,3.5,50.6,5.1,50.6,7l0,9.6c0,2-11,3.6-24.5,3.6c-13.5,0-24.5-1.6-24.5-3.6V7"/>
		</g>
	</g>
</g>
</svg>
