<svg width="32" height="32" viewBox="0 0 32 32" fill="none" xmlns="http://www.w3.org/2000/svg">
<g clip-path="url(#clip0)">
<path fill-rule="evenodd" clip-rule="evenodd" d="M0.365723 18.4105C0.365723 17.1375 7.45143 16.0959 16.1828 16.0959C24.9143 16.0959 32 17.1375 32 18.4105C32 19.7067 24.9143 20.7251 16.1828 20.7251C7.45143 20.7251 0.365723 19.7067 0.365723 18.4105Z" fill="#1971BD"/>
<path fill-rule="evenodd" clip-rule="evenodd" d="M0 12.1143C0 13.3106 7.13626 14.2894 15.93 14.2894C24.7237 14.2894 31.86 13.3106 31.86 12.1143V18.0306C31.86 19.2269 24.7237 20.2057 15.93 20.2057C7.13626 20.2057 0 19.2269 0 18.0306V12.1143Z" fill="#1971BD" stroke="#1971BD" stroke-width="0.11" stroke-miterlimit="10" stroke-linecap="square"/>
<path d="M31.7485 22.1139C31.7485 23.41 24.6628 24.4285 15.9314 24.4285C7.19999 24.4285 0 23.41 0 22.1139C0 20.8408 7.08571 19.7993 15.8171 19.7993C24.5485 19.7993 31.7485 20.8408 31.7485 22.1139ZM31.7485 22.1139V28.4096C31.7485 29.6826 24.6628 30.7242 15.9314 30.7242C7.19999 30.7242 0.114286 29.6826 0.114286 28.4096V22.1139" stroke="#1971BD" stroke-width="0.5" stroke-linejoin="round" stroke-dasharray="0.86 0.22"/>
<path d="M31.7485 11.8371C31.7485 13.1101 24.6628 14.1517 15.9314 14.1517C7.19999 14.1517 0 13.1101 0 11.8371M31.7485 11.8371C31.7485 10.5409 24.5485 9.52246 15.8171 9.52246C7.08571 9.52246 0 10.5409 0 11.8371M31.7485 11.8371V18.1097C31.7485 19.4058 24.6628 20.4243 15.9314 20.4243C7.19999 20.4243 0 19.4058 0 18.1097V11.8371" stroke="#1971BD" stroke-width="0.5" stroke-linejoin="round"/>
<path d="M31.7485 4.31461C31.7485 5.61079 24.6628 6.62922 15.9314 6.62922C7.19999 6.62922 0 5.61079 0 4.31461M31.7485 4.31461C31.7485 3.04157 24.5485 2 15.8171 2C7.08571 2 0 3.04157 0 4.31461M31.7485 4.31461V10.6103C31.7485 11.9065 24.6628 12.925 15.9314 12.925C7.19999 12.925 0 11.9065 0 10.6103V4.31461" stroke="#1971BD" stroke-width="0.5" stroke-linejoin="round" stroke-dasharray="0.86 0.22"/>
</g>
<defs>
<clipPath id="clip0">
<rect width="32" height="32" fill="white"/>
</clipPath>
</defs>
</svg>
