<svg width="32" height="32" viewBox="0 0 32 32" fill="none" xmlns="http://www.w3.org/2000/svg">
<g clip-path="url(#clip0)">
<path fill-rule="evenodd" clip-rule="evenodd" d="M0.758789 18.0726C0.758789 16.8288 7.70491 15.8204 16.2734 15.8204C24.8419 15.8204 31.788 16.8288 31.788 18.0726C31.788 19.3165 24.8419 20.3249 16.2734 20.3249C7.70491 20.3249 0.758789 19.3165 0.758789 18.0726Z" fill="#1971BD"/>
<path fill-rule="evenodd" clip-rule="evenodd" d="M0.51709 11.7396C0.51709 12.9835 7.47031 13.9918 16.0476 13.9918C24.6248 13.9918 31.578 12.9835 31.578 11.7396V17.8324C31.578 19.0762 24.6248 20.0846 16.0476 20.0846C7.47031 20.0846 0.51709 19.0762 0.51709 17.8324V11.7396Z" fill="#1971BD"/>
<path d="M31.4323 21.655C31.4323 22.8989 24.4862 23.9072 15.9177 23.9072C7.34923 23.9072 0.403076 22.8989 0.403076 21.655C0.403076 20.4111 7.34923 19.4028 15.9177 19.4028C24.4862 19.4028 31.4323 20.4111 31.4323 21.655V27.7478C31.4323 28.9916 24.4862 30 15.9177 30C7.34923 30 0.403076 28.9916 0.403076 27.7478V21.655" stroke="#1971BD" stroke-width="0.415" stroke-miterlimit="10" stroke-linejoin="round" stroke-dasharray="1.66 0.41"/>
<path d="M31.4323 11.6918C31.4323 12.9356 24.4862 13.944 15.9177 13.944C7.34923 13.944 0.403076 12.9356 0.403076 11.6918C0.403076 10.4479 7.34923 9.43954 15.9177 9.43954C24.4862 9.43954 31.4323 10.4479 31.4323 11.6918V17.7846C31.4323 19.0284 24.4862 20.0368 15.9177 20.0368C7.34923 20.0368 0.403076 19.0284 0.403076 17.7846V11.6918" stroke="#1971BD" stroke-width="0.415" stroke-miterlimit="10" stroke-linejoin="round"/>
<path d="M31.4323 4.41924C31.4323 5.66311 24.4862 6.67147 15.9177 6.67147C7.34922 6.67147 0.403076 5.66311 0.403076 4.41924C0.403076 3.17537 7.34922 2.16701 15.9177 2.16701C24.4862 2.16701 31.4323 3.17537 31.4323 4.41924V10.512C31.4323 11.7559 24.4862 12.7642 15.9177 12.7642C7.34922 12.7642 0.403076 11.7559 0.403076 10.512V4.41924" stroke="#1971BD" stroke-width="0.415149" stroke-miterlimit="10" stroke-linejoin="round" stroke-dasharray="1.66 0.42"/>
</g>
<defs>
<clipPath id="clip0">
<rect width="32" height="32" fill="white"/>
</clipPath>
</defs>
</svg>
