<svg width="32" height="32" viewBox="0 0 32 32" fill="none" xmlns="http://www.w3.org/2000/svg">
<path d="M19.25 10.5C19.5952 10.5 19.875 10.2201 19.875 9.875V4C19.875 3.65488 19.5952 3.375 19.25 3.375H4C3.65481 3.375 3.375 3.65488 3.375 4V9.875C3.375 10.2201 3.65481 10.5 4 10.5H19.25ZM4.625 4.625H18.625V9.25H4.625V4.625Z" fill="#1971BD"/>
<path d="M3.375 17.75C3.375 18.7839 4.21613 19.625 5.25 19.625H9C10.0339 19.625 10.875 18.7839 10.875 17.75V14C10.875 12.9661 10.0339 12.125 9 12.125H5.25C4.21613 12.125 3.375 12.9661 3.375 14V17.75ZM4.625 14C4.625 13.6554 4.90538 13.375 5.25 13.375H9C9.34462 13.375 9.625 13.6554 9.625 14V17.75C9.625 18.0946 9.34462 18.375 9 18.375H5.25C4.90538 18.375 4.625 18.0946 4.625 17.75V14Z" fill="#1971BD"/>
<path d="M3.375 26.75C3.375 27.7839 4.21613 28.625 5.25 28.625H9C10.0339 28.625 10.875 27.7839 10.875 26.75V23C10.875 21.9661 10.0339 21.125 9 21.125H5.25C4.21613 21.125 3.375 21.9661 3.375 23V26.75ZM4.625 23C4.625 22.6554 4.90538 22.375 5.25 22.375H9C9.34462 22.375 9.625 22.6554 9.625 23V26.75C9.625 27.0946 9.34462 27.375 9 27.375H5.25C4.90538 27.375 4.625 27.0946 4.625 26.75V23Z" fill="#1971BD"/>
<path d="M23.875 15.75C23.6647 15.75 23.4563 15.7581 23.25 15.7738V3.125C23.25 1.40188 21.8481 0 20.125 0H3.125C1.40188 0 0 1.40188 0 3.125V13.1954C0 13.5406 0.279813 13.8204 0.625 13.8204C0.970187 13.8204 1.25 13.5406 1.25 13.1954V3.125C1.25 2.09113 2.09113 1.25 3.125 1.25H20.125C21.1589 1.25 22 2.09113 22 3.125V15.9688C21.2458 16.1476 20.532 16.4318 19.875 16.805V14C19.875 12.9661 19.0339 12.125 18 12.125H14.25C13.2161 12.125 12.375 12.9661 12.375 14V17.75C12.375 18.7839 13.2161 19.625 14.25 19.625H16.953C16.6631 20.0956 16.4197 20.5977 16.2294 21.125H14.25C13.2161 21.125 12.375 21.9661 12.375 23V26.75C12.375 27.7839 13.2161 28.625 14.25 28.625H17.2873C17.8979 29.4695 18.6666 30.1924 19.5497 30.75H3.125C2.09113 30.75 1.25 29.9089 1.25 28.875V18.8204C1.25 18.4753 0.970187 18.1954 0.625 18.1954C0.279813 18.1954 0 18.4753 0 18.8204V28.875C0 30.5981 1.40188 32 3.125 32H20.125C20.6214 32 21.1069 31.8824 21.5448 31.6589C22.2833 31.8804 23.0654 32 23.875 32C28.3551 32 32 28.3552 32 23.875C32 19.3948 28.3551 15.75 23.875 15.75ZM14.25 18.375C13.9054 18.375 13.625 18.0946 13.625 17.75V14C13.625 13.6554 13.9054 13.375 14.25 13.375H18C18.3446 13.375 18.625 13.6554 18.625 14V17.6793C18.3694 17.8962 18.1273 18.1286 17.9002 18.375H14.25ZM14.25 27.375C13.9054 27.375 13.625 27.0946 13.625 26.75V23C13.625 22.6554 13.9054 22.375 14.25 22.375H15.8894C15.7982 22.8613 15.75 23.3626 15.75 23.875C15.75 25.1274 16.0351 26.3145 16.5434 27.375H14.25ZM23.875 30.75C20.0841 30.75 17 27.6659 17 23.875C17 20.0841 20.0841 17 23.875 17C27.6659 17 30.75 20.0841 30.75 23.875C30.75 27.6659 27.6659 30.75 23.875 30.75Z" fill="#1971BD"/>
<path d="M24.0348 20C25.1698 21.1313 26.3511 22.2857 27.5556 23.4863C26.9997 23.4863 26.4437 23.4863 25.8415 23.4863C25.8415 24.71 25.8415 25.9105 25.8415 27.1111C24.5907 27.1111 23.4094 27.1111 22.1817 27.1111C22.1817 25.9105 22.1817 24.733 22.1817 23.5094C21.5795 23.5094 21.0235 23.5094 20.4445 23.5094C21.6721 22.3319 22.8766 21.1544 24.0348 20Z" fill="#1971BD"/>
<path d="M0.625 16.6331C0.789375 16.6331 0.950625 16.5662 1.06687 16.4499C1.18312 16.3337 1.25 16.1724 1.25 16.0081C1.25 15.8431 1.18312 15.6824 1.06687 15.5662C0.950625 15.4493 0.789375 15.3831 0.625 15.3831C0.460625 15.3831 0.299375 15.4493 0.183125 15.5662C0.066875 15.6824 0 15.8431 0 16.0081C0 16.1724 0.066875 16.3337 0.183125 16.4499C0.299375 16.5662 0.460625 16.6331 0.625 16.6331Z" fill="#1971BD"/>
</svg>
