<?xml version="1.0" encoding="utf-8"?>
<!-- Generator: Adobe Illustrator 23.0.1, SVG Export Plug-In . SVG Version: 6.00 Build 0)  -->
<svg version="1.1"
	 id="svg13826" inkscape:version="0.91 r13725" sodipodi:docname="psp.svg" xmlns:cc="http://creativecommons.org/ns#" xmlns:dc="http://purl.org/dc/elements/1.1/" xmlns:inkscape="http://www.inkscape.org/namespaces/inkscape" xmlns:rdf="http://www.w3.org/1999/02/22-rdf-syntax-ns#" xmlns:sodipodi="http://sodipodi.sourceforge.net/DTD/sodipodi-0.dtd" xmlns:svg="http://www.w3.org/2000/svg"
	 xmlns="http://www.w3.org/2000/svg" xmlns:xlink="http://www.w3.org/1999/xlink" x="0px" y="0px" viewBox="0 0 50 50"
	 style="enable-background:new 0 0 50 50;" xml:space="preserve">
<style type="text/css">
	.st0{fill-rule:evenodd;clip-rule:evenodd;fill:#0071BD;}
	.st1{fill:#0071BD;}
</style>
<sodipodi:namedview  bordercolor="#666666" borderopacity="1.0" fit-margin-bottom="0" fit-margin-left="0" fit-margin-right="0" fit-margin-top="0" id="base" inkscape:current-layer="layer1" inkscape:cx="-2.090004" inkscape:cy="23.752239" inkscape:document-units="mm" inkscape:pageopacity="0.0" inkscape:pageshadow="2" inkscape:window-height="775" inkscape:window-maximized="1" inkscape:window-width="1440" inkscape:window-x="0" inkscape:window-y="1" inkscape:zoom="8" pagecolor="#ffffff" showgrid="false">
	</sodipodi:namedview>
<g id="layer1" transform="translate(-0.99262638,-1.174181)" inkscape:groupmode="layer" inkscape:label="Calque 1">
	<g id="g1901" transform="matrix(1.3480498,0,0,1.3480498,461.39111,77.03907)">
		<path id="path1848" inkscape:connector-curvature="0" class="st0" d="M-327.1-56.3l-14,4.1l14,4.1l4.2-1.2
			c1.9-1.8,4.4-2.9,7.2-2.9c0.7,0,1.3,0.1,2,0.2l0.7-0.2L-327.1-56.3z"/>
		<path id="path1850" inkscape:connector-curvature="0" class="st0" d="M-341.1-50.7v14.9l11.7,6.5v-4.6c0-1.4,0.6-2.5,1.4-3.4
			l0-9.4L-341.1-50.7z"/>
		<path id="path1852" inkscape:connector-curvature="0" class="st0" d="M-324.7-47.2l-1.5,0.4l0,3.3
			C-325.9-44.8-325.4-46.1-324.7-47.2L-324.7-47.2z M-315.7-43.2c-1,0-1.7,0.7-1.7,1.7v1.7h3.4v-1.7
			C-314-42.5-314.7-43.2-315.7-43.2z"/>
		
			<path id="path7594-3" inkscape:original="M -329.23047 -49.712891 C -329.82864 -49.712891 -330.31445 -49.22707 -330.31445 -48.628906 L -330.31445 -47.978516 C -330.55285 -47.978516 -330.74805 -47.783319 -330.74805 -47.544922 L -330.74805 -45.810547 C -330.74805 -45.572146 -330.55285 -45.378906 -330.31445 -45.378906 L -328.14648 -45.378906 C -327.90808 -45.378906 -327.71289 -45.572146 -327.71289 -45.810547 L -327.71289 -47.544922 C -327.71289 -47.783319 -327.90808 -47.978516 -328.14648 -47.978516 L -328.14648 -48.628906 C -328.14648 -49.22707 -328.63231 -49.712891 -329.23047 -49.712891 z M -329.23047 -49.279297 C -328.87071 -49.279297 -328.58008 -48.988673 -328.58008 -48.628906 L -328.58008 -47.978516 L -329.88086 -47.978516 L -329.88086 -48.628906 C -329.88086 -48.988673 -329.59024 -49.279297 -329.23047 -49.279297 z " inkscape:radius="0" sodipodi:type="inkscape:offset" class="st1" d="
			M-315.7-50c-4.3,0-7.7,3.5-7.7,7.7v4.6c-1.7,0-3.1,1.4-3.1,3.1v12.3c0,1.7,1.4,3.1,3.1,3.1h15.4c1.7,0,3.1-1.4,3.1-3.1v-12.3
			c0-1.7-1.4-3.1-3.1-3.1v-4.6C-308-46.5-311.4-50-315.7-50z M-315.7-46.9c2.6,0,4.6,2.1,4.6,4.6v4.6h-9.2v-4.6
			C-320.3-44.8-318.2-46.9-315.7-46.9z"/>
	</g>
</g>
</svg>
