<svg width="32" height="32" viewBox="0 0 32 32" fill="none" xmlns="http://www.w3.org/2000/svg">
<path d="M0 0L16 32L32 0H0ZM17.8514 6.42286H19.7029V8.27429H17.8514V6.42286ZM14.1486 13.8743H12.2971V11.9771H14.1486V13.8743ZM14.1486 11.0857H12.2971V9.14286H14.1486V11.0857ZM14.1486 8.29714H12.2971V6.42286H14.1486V8.29714ZM16.9371 16.6171H15.0629V14.7657H16.9371V16.6171ZM16.9371 13.8514H15.0629V11.9771H16.9371V13.8514ZM16.9371 11.0629H15.0629V9.14286H16.9371V11.0629ZM16.9371 8.27429H15.0629V6.42286H16.9371V8.27429ZM17.8743 9.18857H19.7257V11.04H17.8514L17.8743 9.18857ZM17.8743 13.76V11.9771H19.7257V13.8514L17.8743 13.76Z" fill="#1971BD"/>
</svg>
