<svg width="32" height="32" viewBox="0 0 32 32" fill="none" xmlns="http://www.w3.org/2000/svg">
<path d="M1.54302 16.1434L1.54303 16.1433C1.18552 16.131 0.905642 15.8313 0.91763 15.4738L0.917636 15.4737C1.03221 12.1682 2.22966 8.99201 4.32579 6.43361C9.54044 0.0690162 18.8748 -0.931556 25.3143 4.12832V1.55614C25.3143 1.19823 25.6045 0.90806 25.9624 0.90806C26.3203 0.90806 26.6104 1.19823 26.6104 1.55614V5.54074V5.54973L26.6094 5.55865C26.6065 5.58232 26.6022 5.60573 26.5965 5.62876C26.5919 5.67884 26.5812 5.72806 26.5649 5.77542L26.5625 5.78245L26.5594 5.78921C26.5388 5.83399 26.513 5.87608 26.4827 5.91465C26.471 5.93509 26.4583 5.95468 26.4446 5.97337L26.4299 5.9935L26.4135 6.00498C26.3715 6.04391 26.3244 6.07693 26.2734 6.10305L26.2715 6.10456L26.2707 6.10517C26.264 6.11056 26.2445 6.12608 26.2182 6.13734L26.2101 6.14082L26.2016 6.14332C26.1741 6.15145 26.1462 6.15781 26.118 6.16243C26.0735 6.17591 26.0277 6.18456 25.9815 6.18832L25.9693 6.18931V6.18882H25.9624H21.9778C21.6199 6.18882 21.3297 5.89865 21.3297 5.54074C21.3297 5.18284 21.6199 4.89267 21.9778 4.89267H24.1841C21.9489 3.2459 19.2654 2.30978 16.4839 2.2124C8.86923 1.9459 2.48024 7.90268 2.21361 15.5173L1.54302 16.1434ZM1.54302 16.1434H1.54819M1.54302 16.1434H1.54819M1.54819 16.1434H1.56552H1.54819Z" fill="#1971BD" stroke="#1971BD" stroke-width="0.3"/>
<path d="M4.79561 25.9642L4.79551 25.9641C4.59441 25.7371 4.61537 25.3901 4.84237 25.1889C5.06936 24.9879 5.41635 25.0088 5.61746 25.2358M4.79561 25.9642L5.61748 25.2358C5.61747 25.2358 5.61747 25.2358 5.61746 25.2358M4.79561 25.9642C5.1396 26.3502 5.50302 26.7185 5.88449 27.0675L5.88449 27.0675M4.79561 25.9642L5.88449 27.0675M5.61746 25.2358C5.93528 25.5937 6.27121 25.9351 6.62395 26.2586M5.61746 25.2358L6.62395 26.2586M5.88449 27.0675L5.88526 27.0682M5.88449 27.0675L5.88526 27.0682M5.88526 27.0682C6.11279 27.2679 6.45903 27.2453 6.65873 27.0179L6.65874 27.0179M5.88526 27.0682L6.65874 27.0179M6.65874 27.0179C6.85276 26.7968 6.83768 26.462 6.62462 26.2593L6.62463 26.2593M6.65874 27.0179L6.62463 26.2593M6.62463 26.2593L6.62395 26.2586M6.62463 26.2593L6.62395 26.2586" fill="#1971BD" stroke="#1971BD" stroke-width="0.1"/>
<path d="M9.74815 29.6305C9.73863 29.6265 9.72939 29.6222 9.72047 29.6178L9.72037 29.6177C9.44914 29.4834 9.33816 29.1546 9.47251 28.8833C9.60674 28.6123 9.93515 28.5013 10.2062 28.6351C10.6414 28.8348 11.0866 29.0118 11.5401 29.1653L9.74815 29.6305ZM9.74815 29.6305C10.218 29.8468 10.6989 30.0381 11.1888 30.2039L11.1888 30.2039C11.4756 30.3009 11.7867 30.1471 11.8837 29.8603M9.74815 29.6305L11.5401 29.1653C11.8269 29.2624 11.9808 29.5735 11.8837 29.8603M11.8837 29.8603C11.8837 29.8603 11.8837 29.8603 11.8837 29.8603L11.8364 29.8443L11.8837 29.8603Z" fill="#1971BD" stroke="#1971BD" stroke-width="0.1"/>
<path d="M8.95766 27.9833V27.9819L8.93315 27.9674C8.52086 27.7232 8.12121 27.4583 7.73562 27.1738C7.49798 26.9868 7.15383 27.0277 6.9665 27.2651C6.77898 27.5028 6.81969 27.8474 7.05734 28.0349L7.05744 28.035C7.06589 28.0416 7.07471 28.0482 7.08397 28.0546C7.49917 28.362 7.92979 28.6479 8.37413 28.9112L8.37413 28.9112C8.63459 29.0656 8.9709 28.9796 9.12525 28.7191C9.27471 28.4669 9.19889 28.1438 8.95766 27.9833Z" fill="#1971BD" stroke="#1971BD" stroke-width="0.1"/>
<path d="M4.71921 24.1163L4.71922 24.1163L4.71864 24.1155C4.43884 23.7265 4.17915 23.3234 3.94042 22.908L3.94038 22.9079C3.78906 22.6453 3.45354 22.5552 3.19098 22.7065C2.92841 22.8578 2.83827 23.1933 2.98957 23.4559C3.24705 23.9032 3.52727 24.337 3.82911 24.7557L3.8291 24.7557L3.82969 24.7565C4.01144 24.9985 4.35502 25.0473 4.59706 24.8656C4.83219 24.689 4.8861 24.3584 4.71921 24.1163ZM4.67805 24.1447L4.67805 24.1447L4.67805 24.1447Z" fill="#1971BD" stroke="#1971BD" stroke-width="0.1"/>
<path d="M3.2937 21.6341L3.29323 21.6343L3.29329 21.6345C3.32325 21.7034 3.33879 21.7778 3.33879 21.853L3.2937 21.6341ZM3.2937 21.6341L3.29085 21.6277M3.2937 21.6341L3.29085 21.6277M3.29085 21.6277C3.09677 21.1906 2.92543 20.7437 2.77756 20.2889M3.29085 21.6277L2.77756 20.2889M1.72026 20.578L1.72023 20.5779C1.64069 20.2859 1.81306 19.9846 2.10511 19.9052L1.72026 20.578ZM1.72026 20.578C1.72477 20.5945 1.73003 20.6109 1.73609 20.627C1.89549 21.1189 2.08021 21.6023 2.28944 22.0752L2.28945 22.0752M1.72026 20.578L2.28945 22.0752M2.28945 22.0752C2.37734 22.2736 2.57396 22.4014 2.79093 22.4013L2.28945 22.0752ZM2.77756 20.2889C2.69759 19.9975 2.39678 19.8257 2.10512 19.9052L2.77756 20.2889ZM2.79093 22.4013C3.0936 22.4011 3.33886 22.1557 3.33879 21.853L2.79093 22.4013Z" fill="#1971BD" stroke="#1971BD" stroke-width="0.1"/>
<path d="M2.18202 17.4803C2.15009 17.1791 1.88004 16.9608 1.57889 16.9928C1.27773 17.0247 1.05948 17.2947 1.0914 17.5959L1.0914 17.5959C1.14612 18.1098 1.22714 18.6206 1.33427 19.1261C1.39631 19.4189 1.68133 19.6071 1.97391 19.5508C1.97727 19.5501 1.98064 19.5494 1.98401 19.5487L1.98433 19.5487C2.28007 19.4856 2.46888 19.195 2.40635 18.8992L2.35754 18.9095L2.40634 18.8992C2.30746 18.4304 2.23258 17.9568 2.18202 17.4803ZM2.18202 17.4803L2.13229 17.4855L2.18201 17.4803C2.18201 17.4803 2.18202 17.4803 2.18202 17.4803Z" fill="#1971BD" stroke="#1971BD" stroke-width="0.1"/>
<path d="M30.1583 18.9429L30.1578 18.9428C29.864 18.87 29.5669 19.0491 29.4941 19.3428L29.4941 19.3429L30.1583 18.9429ZM30.1583 18.9429L30.1583 18.9429L30.1587 18.943C30.4523 19.0158 30.6315 19.3127 30.5589 19.6065L30.5589 19.6065C30.4346 20.1083 30.2845 20.6034 30.1091 21.0897L30.1583 18.9429Z" fill="#1971BD" stroke="#1971BD" stroke-width="0.1"/>
<path d="M12.681 30.6232L12.681 30.6232C12.3857 30.5565 12.2005 30.263 12.2672 29.9677C12.3339 29.6724 12.6274 29.4872 12.9227 29.5539L12.681 30.6232ZM12.681 30.6232C13.1853 30.7369 13.6952 30.8245 14.2086 30.8856M12.681 30.6232L14.2086 30.8856M14.2745 30.8894C14.5772 30.8888 14.822 30.6429 14.8214 30.3402C14.8209 30.063 14.6134 29.8299 14.3381 29.7971C13.8624 29.7405 13.39 29.6593 12.9227 29.5539L14.2745 30.8894ZM14.2745 30.8894L14.2744 30.8394L14.2745 30.8894C14.2745 30.8894 14.2745 30.8894 14.2745 30.8894ZM14.2086 30.8856C14.2086 30.8856 14.2086 30.8856 14.2086 30.8856L14.2146 30.8359L14.2087 30.8856L14.2086 30.8856Z" fill="#1971BD" stroke="#1971BD" stroke-width="0.1"/>
<path d="M29.5039 22.5196C29.6359 22.2472 29.522 21.9194 29.2496 21.7874L29.2496 21.7873L28.0159 24.0534C28.2696 24.2046 28.5975 24.1275 28.7573 23.8791L28.7573 23.8791L28.7578 23.8784C29.0297 23.4387 29.2788 22.9851 29.5039 22.5196ZM29.5039 22.5196C29.5039 22.5196 29.5039 22.5196 29.5039 22.5196L29.4589 22.4978L29.5039 22.5196C29.5039 22.5196 29.5039 22.5196 29.5039 22.5196ZM29.2278 21.8324C28.9802 21.7128 28.6826 21.8165 28.5628 22.064L28.7152 23.8521C28.9863 23.4138 29.2345 22.9618 29.4589 22.4978C29.5788 22.2503 29.4754 21.9523 29.2278 21.8324Z" fill="#1971BD" stroke="#1971BD" stroke-width="0.1"/>
<path d="M27.0976 24.3895V24.3662L27.008 24.4824C26.7152 24.8622 26.403 25.2266 26.0725 25.5742L27.0976 24.3895ZM27.0976 24.3895C27.293 24.2281 27.5811 24.2195 27.7874 24.3836C28.0242 24.5719 28.0636 24.9165 27.8754 25.1534M27.0976 24.3895L27.8754 25.1534M27.8754 25.1534C27.8754 25.1535 27.8753 25.1536 27.8752 25.1537L27.8361 25.1226L27.8757 25.1531C27.8756 25.1532 27.8755 25.1533 27.8754 25.1534Z" fill="#1971BD" stroke="#1971BD" stroke-width="0.1"/>
<path d="M29.888 16.4862L29.888 16.4861C29.9031 16.1881 30.157 15.9588 30.455 15.9738C30.7572 15.9847 30.9935 16.2383 30.983 16.5405L30.983 16.5405C30.9645 17.057 30.9197 17.5723 30.8485 18.0842L30.8485 18.0842C30.8109 18.3547 30.5796 18.5562 30.3065 18.5566M29.888 16.4862L30.3065 18.5566M29.888 16.4862L29.8874 16.5021L29.8874 16.5021C29.8706 16.981 29.829 17.4588 29.7628 17.9334L29.7628 17.9335C29.7215 18.2329 29.9304 18.5091 30.2296 18.5511L29.888 16.4862ZM30.3065 18.5566L30.3064 18.5066M30.3065 18.5566C30.3065 18.5566 30.3065 18.5566 30.3066 18.5566L30.3064 18.5066M30.3064 18.5066C30.2831 18.5067 30.2598 18.505 30.2367 18.5016C29.9647 18.4635 29.7748 18.2124 29.8124 17.9403C29.8787 17.464 29.9205 16.9845 29.9374 16.5039L30.3064 18.5066Z" fill="#1971BD" stroke="#1971BD" stroke-width="0.1"/>
<path d="M25.0153 26.5763L25.0328 26.5613C25.2628 26.3646 25.6089 26.3915 25.8056 26.6216M25.0153 26.5763L25.7676 26.6541M25.0153 26.5763V26.5777M25.0153 26.5763V26.5777M25.8056 26.6216L25.7676 26.6541M25.8056 26.6216C25.8056 26.6216 25.8056 26.6216 25.8056 26.6216L25.7676 26.6541M25.8056 26.6216C26.0023 26.8517 25.9753 27.1976 25.7453 27.3944M25.7676 26.6541C25.9464 26.8632 25.9219 27.1776 25.7128 27.3564M25.7453 27.3944C25.7453 27.3944 25.7453 27.3944 25.7453 27.3944L25.7128 27.3564M25.7453 27.3944C25.3518 27.7314 24.9416 28.0483 24.516 28.3438L24.516 28.3439C24.2664 28.5163 23.9243 28.4539 23.7518 28.2044C23.5794 27.9549 23.6418 27.6128 23.8913 27.4403L23.8913 27.4403C24.2802 27.1718 24.6554 26.884 25.0153 26.5777M25.7453 27.3944L25.7128 27.3564M25.7128 27.3564L25.0153 26.5777" fill="#1971BD" stroke="#1971BD" stroke-width="0.1"/>
<path d="M20.0269 29.3045L20.0269 29.3045C20.3085 29.2272 20.6013 29.3841 20.6927 29.6615M20.0269 29.3045L20.6927 29.6615C20.6927 29.6615 20.6927 29.6615 20.6927 29.6615M20.0269 29.3045L20.0257 29.3049M20.0269 29.3045L20.0257 29.3049M20.6927 29.6615C20.7874 29.9489 20.6312 30.2588 20.3437 30.3535M20.6927 29.6615L20.3437 30.3535M20.0257 29.3049C19.5671 29.4431 19.1016 29.5573 18.6312 29.6473L18.6311 29.6473M20.0257 29.3049L18.6311 29.6473M18.6311 29.6473C18.3339 29.7045 18.1392 29.9918 18.1964 30.289L18.6311 29.6473ZM18.8369 30.7243L18.8369 30.7243C18.8028 30.7306 18.7682 30.7337 18.7335 30.7336L18.7337 30.6836L18.7336 30.7336C18.4712 30.7331 18.246 30.5467 18.1964 30.289L18.8369 30.7243ZM18.8369 30.7243L18.8372 30.7242M18.8369 30.7243L18.8372 30.7242M18.8372 30.7242C19.3451 30.6272 19.8476 30.5036 20.3425 30.3539L20.3425 30.3539M18.8372 30.7242L20.3425 30.3539M20.3425 30.3539L20.3437 30.3535M20.3425 30.3539L20.3437 30.3535" fill="#1971BD" stroke="#1971BD" stroke-width="0.1"/>
<path d="M17.8139 30.3581C17.7964 30.056 17.5374 29.8251 17.2352 29.8425L17.2053 29.845L17.1269 29.8536C16.7561 29.8828 16.3777 29.8965 16.0004 29.8965H15.7728V29.8965L15.7721 29.8966C15.4741 29.9008 15.2305 30.1355 15.2153 30.4331L15.2153 30.4331L15.2152 30.4348C15.2097 30.7374 15.4506 30.9872 15.7532 30.9927L15.7532 30.9927H15.7541H15.7541H15.7541H15.7541H15.7542H15.7542H15.7542H15.7542H15.7542H15.7542H15.7542H15.7542H15.7542H15.7542H15.7542H15.7542H15.7542H15.7542H15.7542H15.7542H15.7542H15.7542H15.7542H15.7542H15.7542H15.7542H15.7542H15.7542H15.7542H15.7542H15.7542H15.7542H15.7542H15.7542H15.7542H15.7542H15.7542H15.7542H15.7542H15.7542H15.7542H15.7542H15.7542H15.7542H15.7542H15.7542H15.7542H15.7542H15.7542H15.7542H15.7542H15.7542H15.7542H15.7542H15.7542H15.7542H15.7542H15.7542H15.7542H15.7542H15.7542H15.7542H15.7542H15.7542H15.7542H15.7542H15.7542H15.7542H15.7542H15.7542H15.7542H15.7542H15.7542H15.7542H15.7542H15.7542H15.7542H15.7542H15.7542H15.7542H15.7542H15.7542H15.7542H15.7542H15.7542H15.7542H15.7542H15.7542H15.7542H15.7542H15.7542H15.7542H15.7542H15.7542H15.7542H15.7543H15.7543H15.7543H15.7543H15.7543H15.7543H15.7543H15.7543H15.7543H15.7543H15.7543H15.7543H15.7543H15.7543H15.7543H15.7543H15.7543H15.7543H15.7543H15.7543H15.7543H15.7543H15.7543H15.7543H15.7543H15.7543H15.7543H15.7543H15.7543H15.7543H15.7543H15.7543H15.7543H15.7543H15.7543H15.7543H15.7543H15.7543H15.7543H15.7543H15.7543H15.7543H15.7543H15.7543H15.7543H15.7543H15.7543H15.7543H15.7543H15.7543H15.7543H15.7543H15.7543H15.7543H15.7543H15.7543H15.7543H15.7543H15.7543H15.7543H15.7543H15.7543H15.7543H15.7543H15.7543H15.7543H15.7543H15.7543H15.7543H15.7543H15.7543H15.7543H15.7543H15.7543H15.7543H15.7543H16.0004C16.4369 30.9927 16.8744 30.9732 17.299 30.9368C17.6008 30.919 17.8313 30.6601 17.8139 30.3581Z" fill="#1971BD" stroke="#1971BD" stroke-width="0.1"/>
<path d="M22.67 28.194L22.6699 28.1938C22.9354 28.0483 23.2686 28.1456 23.4139 28.4111L22.67 28.194ZM22.67 28.194C22.25 28.424 21.8186 28.6322 21.3774 28.818C21.0971 28.9319 20.9621 29.2514 21.0757 29.5317C21.1895 29.8122 21.5091 29.9474 21.7896 29.8337L21.8013 29.8287L21.8013 29.8287C22.2777 29.6283 22.7434 29.4035 23.1966 29.1551C23.1966 29.1551 23.1966 29.1551 23.1966 29.1551L23.1725 29.1113M22.67 28.194L23.4139 28.4111L23.37 28.4351C23.5022 28.6764 23.4138 28.9791 23.1725 29.1113M23.1725 29.1113C22.7208 29.3588 22.2567 29.5829 21.7819 29.7827L23.1725 29.1113Z" fill="#1971BD" stroke="#1971BD" stroke-width="0.1"/>
<path d="M16.0005 5.39077H16.0004C10.1408 5.39077 5.39077 10.1408 5.39077 16.0004C5.39077 21.8599 10.1408 26.61 16.0004 26.61C21.8599 26.61 26.61 21.8599 26.61 16.0004V16.0002C26.6033 10.1435 21.8572 5.39747 16.0005 5.39077ZM23.9696 16.6484H25.2788C24.9532 21.2714 21.2714 24.9532 16.6484 25.2788V23.9696C16.6484 23.6117 16.3583 23.3215 16.0004 23.3215C15.6425 23.3215 15.3523 23.6117 15.3523 23.9696V25.2788C10.7293 24.9532 7.04752 21.2714 6.72191 16.6484H8.03115C8.38906 16.6484 8.67923 16.3583 8.67923 16.0004C8.67923 15.6425 8.38906 15.3523 8.03115 15.3523H6.72191C7.04752 10.7293 10.7293 7.04752 15.3523 6.72191V8.03115C15.3523 8.38906 15.6425 8.67923 16.0004 8.67923C16.3583 8.67923 16.6484 8.38906 16.6484 8.03115V6.72191C21.2714 7.04752 24.9532 10.7293 25.2788 15.3523H23.9696C23.6117 15.3523 23.3215 15.6425 23.3215 16.0004C23.3215 16.3583 23.6117 16.6484 23.9696 16.6484Z" fill="#1971BD" stroke="#1971BD" stroke-width="0.3"/>
<path d="M16.5983 14.5285C17.0218 14.699 17.3528 15.0439 17.5049 15.4767C17.5049 15.4767 17.5049 15.4767 17.5049 15.4767L17.4106 15.5099C17.6835 16.2866 17.2751 17.1376 16.4983 17.4105C15.7216 17.6835 14.8706 17.2751 14.5977 16.4983L16.5983 14.5285ZM16.5983 14.5285V10.0233C16.5983 9.69305 16.3306 9.42527 16.0003 9.42527C15.67 9.42527 15.4022 9.69305 15.4022 10.0233V14.5289C15.0057 14.6908 14.6908 15.0056 14.5289 15.4022H12.0157C11.6854 15.4022 11.4176 15.67 11.4176 16.0002C11.4176 16.3305 11.6854 16.5983 12.0157 16.5983H14.5285L16.5983 14.5285ZM16.0003 16.3983C15.7804 16.3983 15.6022 16.2201 15.6022 16.0002C15.6022 15.7804 15.7804 15.6022 16.0003 15.6022C16.2201 15.6022 16.3983 15.7804 16.3983 16.0002C16.3983 16.2201 16.2201 16.3983 16.0003 16.3983Z" fill="#1971BD" stroke="#1971BD" stroke-width="0.2"/>
</svg>
