<svg width="32" height="32" viewBox="0 0 32 32" fill="none" xmlns="http://www.w3.org/2000/svg">
<g clip-path="url(#clip0)">
<path d="M6.34048 10.4799H28.5432V9.84488C28.5697 9.49951 28.5219 9.15246 28.4032 8.82708C28.2844 8.50169 28.0973 8.20551 27.8545 7.95844C27.6118 7.71136 27.3189 7.51913 26.9956 7.39466C26.6724 7.27019 26.3262 7.21636 25.9805 7.2368C21.989 7.2368 17.9748 7.2368 13.9833 7.2368C13.857 7.24269 13.731 7.22144 13.6136 7.1745C13.4962 7.12755 13.3903 7.056 13.3029 6.96465L10.5361 4.2205C10.3977 4.09793 10.2218 4.02597 10.0372 4.01639H2.39435C2.21357 3.99454 2.03082 3.99454 1.85005 4.01639C1.28892 4.12157 0.78811 4.43452 0.447591 4.89275C0.107071 5.35098 -0.0480997 5.92078 0.0130551 6.48839V25.7655C0.0471718 25.7433 0.0753412 25.7131 0.0951064 25.6775C0.114872 25.642 0.125632 25.6021 0.12645 25.5614C1.147 21.3658 2.16756 17.1702 3.16543 12.9519C3.31958 12.2323 3.72236 11.5901 4.30302 11.138C4.88368 10.6859 5.60508 10.4529 6.34048 10.4799Z" fill="#1971BD" stroke="#1971BD" stroke-width="0.11" stroke-miterlimit="10" stroke-linecap="square"/>
<path d="M30.6749 11.4551H6.29507C5.77701 11.44 5.2694 11.6028 4.85676 11.9164C4.44412 12.23 4.15135 12.6755 4.02718 13.1787C3.48288 15.7641 2.87055 18.3495 2.1675 20.9349L1.01088 26.1283C0.829447 26.8314 1.14695 27.2169 1.85 27.2396H26.9783C27.3283 27.2796 27.6805 27.1846 27.9628 26.9739C28.2452 26.7631 28.4365 26.4526 28.4978 26.1057L31.6501 12.7478C31.9223 11.8179 31.6501 11.4551 30.6749 11.4551ZM23.0095 21.2524C22.7755 21.9141 22.3426 22.4872 21.7701 22.8933C21.1976 23.2993 20.5136 23.5183 19.8117 23.5203H10.7401C10.4153 23.5489 10.0885 23.4975 9.78813 23.3706C9.48778 23.2437 9.2231 23.0451 9.01723 22.7923C8.81137 22.5394 8.67059 22.24 8.60722 21.9201C8.54384 21.6003 8.55979 21.2698 8.65368 20.9575C8.84809 20.4396 9.15104 19.9693 9.5422 19.5782C9.93336 19.187 10.4037 18.8841 10.9216 18.6896H11.0803V18.5536V18.1C11.2477 17.6315 11.555 17.2257 11.9607 16.9377C12.3664 16.6497 12.8507 16.4933 13.3482 16.4898H13.6431H13.8245H14.0286H14.1873C14.3957 16.6461 14.5509 16.8626 14.632 17.1101C14.7132 17.3575 14.7163 17.6239 14.6409 17.8732C14.6339 17.9005 14.6333 17.9291 14.6392 17.9566C14.6451 17.9842 14.6573 18.01 14.6749 18.032C14.6925 18.054 14.715 18.0716 14.7406 18.0834C14.7662 18.0952 14.7942 18.1009 14.8224 18.1C14.893 18.1029 14.9625 18.0822 15.0201 18.0411C15.0776 18 15.1197 17.941 15.1399 17.8732C15.2326 17.5956 15.2457 17.2976 15.1775 17.0129C15.1093 16.7283 14.9627 16.4685 14.7543 16.263C15.834 15.4554 17.1777 15.083 18.519 15.2198C18.9336 15.1869 19.3502 15.2487 19.7374 15.4005C20.1245 15.5522 20.4722 15.79 20.754 16.0958C21.0357 16.4017 21.2444 16.7675 21.364 17.1658C21.4836 17.5641 21.5112 17.9843 21.4446 18.3948C21.0976 18.3621 20.7484 18.3621 20.4014 18.3948C20.3297 18.4031 20.2626 18.4339 20.2096 18.4828C20.1566 18.5317 20.1205 18.5962 20.1066 18.667C20.0986 18.6963 20.0981 18.7271 20.1051 18.7566C20.1121 18.7862 20.1264 18.8135 20.1467 18.836C20.1671 18.8586 20.1927 18.8757 20.2213 18.8858C20.25 18.8959 20.2807 18.8986 20.3107 18.8938C20.7097 18.8425 21.1136 18.8425 21.5126 18.8938C21.7773 18.9275 22.0312 19.0191 22.2563 19.1622C22.4815 19.3052 22.6723 19.4962 22.8152 19.7214C22.9582 19.9466 23.0497 20.2006 23.0832 20.4652C23.1168 20.7298 23.0916 20.9986 23.0095 21.2524Z" fill="#1971BD" stroke="#1971BD" stroke-width="0.11" stroke-miterlimit="10" stroke-linecap="square"/>
</g>
<defs>
<clipPath id="clip0">
<rect width="32" height="32" fill="white"/>
</clipPath>
</defs>
</svg>
