<svg xmlns="http://www.w3.org/2000/svg" xmlns:xlink="http://www.w3.org/1999/xlink" width="33" height="33" fill="none" xmlns:v="https://vecta.io/nano"><g clip-path="url(#B)"><g clip-path="url(#C)"><mask id="A" maskUnits="userSpaceOnUse" x="0" y="0" width="106" height="32"><path d="M105.828.665H.521v30.772h105.307V.665z" fill="#fff"/></mask><g mask="url(#A)"><path d="M6.723 3.276H4.456c-.167 0-.302.136-.302.303v25.356c0 .168.135.303.302.303h2.267c.167 0 .302-.136.302-.303V3.58c0-.168-.135-.303-.302-.303z" fill="#1971bd"/><path d="M4.154 26.355h2.871v2.581c0 .168-.135.304-.302.304H4.456c-.167 0-.302-.136-.302-.304v-2.581z" fill="#1971bd"/><use xlink:href="#D" fill="#1971bd"/><path d="M18.206 3.276h-2.267c-.167 0-.302.136-.302.303v25.356c0 .168.135.303.302.303h2.267c.167 0 .302-.136.302-.303V3.58c0-.168-.135-.303-.302-.303zm5.74 0h-2.267c-.167 0-.302.136-.302.303v25.356c0 .168.135.303.302.303h2.267c.167 0 .302-.136.302-.303V3.58c0-.168-.135-.303-.302-.303zm5.742 10.098h-2.267c-.167 0-.302.136-.302.303v5.163c0 .168.135.303.302.303h2.267c.167 0 .302-.136.302-.303v-5.163c0-.168-.135-.303-.302-.303z" fill="#1971bd"/></g></g></g><defs><clipPath id="B"><path fill="#fff" transform="translate(.271 .196)" d="M0 0h32v32H0z"/></clipPath><clipPath id="C"><path fill="#fff" transform="translate(.521 .665)" d="M0 0h31.446v30.791H0z"/></clipPath><path id="D" d="M12.464 3.276h-2.267c-.167 0-.302.136-.302.303v25.356c0 .168.135.303.302.303h2.267c.167 0 .302-.136.302-.303V3.58c0-.168-.135-.303-.302-.303z"/></defs></svg>