<svg xmlns="http://www.w3.org/2000/svg" width="33" height="32" fill="none" xmlns:v="https://vecta.io/nano"><path fill-rule="evenodd" d="M26.358 18.894c0 .906-.533 1.733-1.573 1.893-1.786.32-5.518.506-8.664.506s-6.878-.187-8.664-.506c-1.04-.187-1.546-1.013-1.546-1.893v-5.945c0-.906.693-1.759 1.546-1.893.533-.107 1.759-.187 2.719-.187.373 0 .64.293.667.72v4.132l5.305-.107 5.305.107V11.59c0-.427.293-.72.64-.72.96 0 2.186.08 2.719.187.853.16 1.573 1.013 1.573 1.893l-.027 5.945zM16.088 1C7.771 1 1 7.824 1 16.222s6.771 15.195 15.088 15.195 15.088-6.824 15.088-15.195S24.465 1 16.088 1z" fill="#ec1218"/></svg>