<svg width="32" height="32" viewBox="0 0 32 32" fill="none" xmlns="http://www.w3.org/2000/svg">
<g clip-path="url(#clip0)">
<path d="M12.5527 12.656C13.6966 12.656 14.6551 13.5835 14.6551 14.7584C14.6551 15.9024 13.7276 16.8608 12.5527 16.8608C11.4087 16.8608 10.4503 15.9333 10.4503 14.7584C10.4812 13.5835 11.4087 12.656 12.5527 12.656Z" fill="#1971BD"/>
<path d="M19.4473 12.656C20.6531 12.656 21.5498 13.6763 21.5188 14.8203C21.4879 15.9333 20.5295 16.8609 19.3546 16.8299C18.1797 16.799 17.2831 15.8096 17.3449 14.6348C17.3759 13.5526 18.3343 12.6251 19.4473 12.656Z" fill="#1971BD"/>
<path d="M30.1758 16.9536C29.5884 16.8609 29.001 16.6754 28.4444 16.3971C28.4444 16.3353 28.4754 16.2734 28.4754 16.2116C28.5681 15.5932 28.6609 15.0058 28.6918 14.3874C28.7845 13.5527 28.8155 12.687 28.7845 11.8522C28.7845 11.7285 28.7536 11.6667 28.6918 11.5739C27.9188 10.4609 27.0531 9.44058 26.1256 8.48213C26.0019 8.35845 25.8783 8.23478 25.7546 8.11111C26.0638 7.52367 26.4348 7.02899 26.8985 6.59614C27.2696 6.22512 27.6715 5.94686 28.1353 5.6686C28.1971 5.63768 28.228 5.60676 28.2898 5.57585C26.5584 3.53527 24.456 2.02029 21.9826 1C21.8589 1.58744 21.6734 2.17488 21.4261 2.70048C21.1478 3.257 20.8077 3.72077 20.3749 4.18454C20.313 4.15362 20.2512 4.12271 20.2203 4.09179C18.9217 3.41159 17.5613 2.85507 16.1391 2.42222C16.0464 2.3913 15.9536 2.3913 15.8609 2.42222C14.4386 2.85507 13.0783 3.41159 11.7797 4.09179C11.7179 4.12271 11.687 4.15362 11.6251 4.18454C11.5942 4.15362 11.5633 4.09179 11.5324 4.06087C11.2541 3.78261 11.0377 3.47343 10.8213 3.16425C10.4502 2.54589 10.2029 1.89662 10.0483 1.18551C10.0483 1.12367 10.0174 1.09275 10.0174 1.03092C7.54396 2.05121 5.44154 3.5971 3.71014 5.63768C4.79227 6.22512 5.65797 7.0599 6.24541 8.17295C6.21449 8.20387 6.15266 8.23478 6.12174 8.2657C5.07053 9.28599 4.11208 10.43 3.27729 11.6357C3.21546 11.6976 3.21546 11.7903 3.21546 11.8522C3.21546 12.5633 3.21546 13.2744 3.27729 13.9855C3.33913 14.6348 3.40097 15.2841 3.49372 15.9024C3.52464 16.0879 3.55555 16.2425 3.55555 16.428C2.41159 16.9536 1.23671 17.1391 0 16.9536C0.185507 19.6435 0.989372 22.1169 2.41159 24.3739C2.50435 24.2812 2.5971 24.2193 2.68985 24.1575C2.62802 23.7246 2.5971 23.3227 2.5971 22.8899C2.5971 18.4995 5.75072 16.4899 8.59517 16.9227C8.50241 16.5826 8.44058 16.2425 8.37874 15.9024C8.22415 15.0676 8.1314 14.2638 8.06956 13.429C8.06956 13.3362 8.10048 13.2435 8.16232 13.1507C10.2647 10.6155 12.8309 8.72947 15.8918 7.52367C15.9845 7.49275 16.0464 7.49275 16.1391 7.52367C19.2 8.72947 21.7971 10.6155 23.8995 13.1816C23.9613 13.2744 23.9923 13.3671 23.9923 13.4599C23.8686 15.3459 23.4976 17.17 22.8174 18.9324C22.3536 20.1691 21.7662 21.3749 21.0551 22.4879C20.9932 22.5807 20.9314 22.6425 20.8077 22.6734C19.7565 22.9517 18.7362 23.1372 17.6541 23.23C17.0976 23.2609 16.572 23.2918 16.0155 23.3227C15.057 23.3227 14.0676 23.23 13.1401 23.0754C13.1401 24.0338 12.9855 25.0232 12.7072 25.9507C13.5729 26.2599 14.3768 26.7237 15.0879 27.3729C16.17 28.3623 17.0048 29.6918 17.4377 31.2068L17.6232 31.7015C17.6232 31.7324 17.6232 31.7324 17.6232 31.7633C17.6541 31.7633 17.6541 31.7633 17.685 31.7633C18.2725 31.7014 18.8908 31.6396 19.4783 31.5778C19.6328 31.5469 19.7874 31.5159 19.942 31.485C19.942 31.4541 19.942 31.4541 19.942 31.4232C19.8802 31.2995 19.8493 31.1758 19.7874 31.0522C19.4473 30.2174 19.2927 29.3208 19.3546 28.3932C19.3546 28.2077 19.3855 28.0531 19.4164 27.8676C19.5092 27.8676 19.5401 27.8367 19.6019 27.8367C21.0551 27.6203 22.4464 27.2493 23.8377 26.7855C23.9613 26.7546 24.0232 26.6928 24.085 26.6C24.9507 25.4251 25.6927 24.2193 26.342 22.9208C26.3729 22.8589 26.4039 22.828 26.4348 22.7662C26.6512 22.828 26.8985 22.8589 27.115 22.9208C27.9807 23.1681 28.7536 23.601 29.4338 24.2193C29.4956 24.2812 29.5575 24.343 29.6502 24.4048C31.0725 22.1169 31.8763 19.6744 32.0618 16.9845C31.3816 17.0464 30.7633 17.0464 30.1758 16.9536Z" fill="#1971BD"/>
<path d="M7.85313 28.0533C9.67729 28.0533 11.0995 25.4562 11.0995 23.0446C11.0995 18.0359 4.57584 18.0359 4.57584 23.0446C4.57584 25.4562 6.02898 28.0533 7.85313 28.0533Z" fill="#1971BD"/>
<path d="M14.7169 31.2997C14.3768 30.3413 13.7894 29.5374 13.0164 28.919C12.2435 28.3007 11.285 27.9297 10.2956 27.8369C9.98647 28.177 9.61545 28.4862 9.1826 28.6717C8.74975 28.8881 8.28598 28.9809 7.82222 29.0118C7.35845 29.0118 6.89468 28.8881 6.46183 28.6717C6.02898 28.4553 5.65797 28.177 5.34879 27.8369C4.35942 27.9297 3.40096 28.3007 2.62801 28.919C1.85507 29.5374 1.23671 30.3722 0.927531 31.2997L0.834778 31.6089C0.834778 31.7017 0.896614 31.7635 0.989367 31.7635H14.7169C14.8097 31.7635 14.8715 31.7017 14.8715 31.6089L14.7169 31.2997Z" fill="#1971BD"/>
</g>
<defs>
<clipPath id="clip0">
<rect width="32" height="30.7324" fill="white" transform="translate(0 1)"/>
</clipPath>
</defs>
</svg>
