<svg width="32" height="32" viewBox="0 0 32 32" fill="none" xmlns="http://www.w3.org/2000/svg">
<g clip-path="url(#clip0)">
<path d="M23.6606 11.4747C23.8545 11.0869 24.0485 10.699 24.2747 10.3111C25.1475 8.79192 26.1495 7.3697 27.2808 6.01212V6.04444V6.01212L27.3455 6.10909V4.97778C27.3131 2.2303 21.204 0 13.6727 0C6.14141 0 0 2.2303 0 4.97778V8.59798C0 11.3455 6.10909 13.5758 13.6727 13.5758C16.9697 13.6404 20.2343 13.1232 23.3374 12.1212C23.4343 11.8949 23.5313 11.6687 23.6606 11.4747ZM30.4808 13.0909C30.0929 11.9919 29.4788 10.9576 28.6707 10.1172C28.1535 9.50303 27.7333 8.79192 27.4101 8.08081C26.5374 9.1798 25.7616 10.3434 25.0828 11.5717C24.9212 11.8626 24.7596 12.1859 24.598 12.5091C20.6222 20.8162 26.7313 24.5657 26.7313 24.5657C26.9253 25.3414 27.0545 26.1172 27.0869 26.9253H27.9919L28.1212 24.501C29.2848 23.3374 30.2545 21.9798 30.9657 20.4929C31.6121 18.0364 31.4182 15.4505 30.4808 13.0909Z" fill="#1971BD"/>
<path d="M2.16566 20.396C3.87879 14.2222 12.8646 14.9657 12.8646 22.5616C12.8646 22.594 12.8646 22.6263 12.8646 22.6909C13.1232 22.6909 13.3818 22.6909 13.6727 22.6909C16.6788 22.7232 19.6525 22.3354 22.5293 21.495C21.7535 19.297 21.7212 16.9374 22.4 14.7071C19.5556 15.5152 16.6141 15.903 13.6727 15.8384C6.10909 15.8707 0 13.6404 0 10.8929V17.7131C0 18.7152 0.808081 19.6202 2.16566 20.396Z" fill="#1971BD"/>
<path d="M26.4081 26.4081C25.2444 25.6323 24.2424 24.6303 23.499 23.4343C20.3313 24.501 17.0343 25.0182 13.6727 24.9535C13.3172 24.9535 12.9616 24.9535 12.606 24.9212C12.5414 25.1798 12.4768 25.4384 12.4121 25.697C13.3172 26.0202 14.1576 26.505 14.901 27.1838C16.0323 28.2182 16.905 29.6081 17.3576 31.1919L17.5192 31.6444C21.9798 31.1596 25.503 29.899 26.8283 28.2505C26.6667 27.6363 26.505 26.8283 26.4081 26.4081Z" fill="#1971BD"/>
<path d="M2.32727 25.7293C2.03636 24.7272 1.84242 23.6283 1.84242 22.5939C1.84242 22.5616 1.84242 22.5616 1.84242 22.5293C0.678788 21.7535 0 20.9131 0 20.0081V26.9252C0 26.9899 0 27.0222 0 27.0868C0.711111 26.4727 1.48687 25.9879 2.32727 25.7293Z" fill="#1971BD"/>
<path d="M7.36968 28.1212C9.27675 28.1212 10.7636 25.406 10.7636 22.8848C10.7636 17.6484 3.94342 17.6484 3.94342 22.8848C3.94342 25.4383 5.46261 28.1212 7.36968 28.1212Z" fill="#1971BD"/>
<path d="M14.5778 31.5151C14.2222 30.5131 13.6081 29.6727 12.8 29.0262C11.9919 28.3797 10.9899 27.9919 9.95554 27.8949C9.63231 28.2505 9.24443 28.5737 8.79191 28.7676C8.33938 28.9939 7.85453 29.0909 7.36969 29.1232C6.88484 29.1232 6.39999 28.9939 5.94746 28.7676C5.49494 28.5414 5.10706 28.2505 4.78383 27.8949C3.74948 27.9919 2.74746 28.3797 1.93938 29.0262C1.1313 29.6727 0.484838 30.5454 0.161606 31.5151L0.0646362 31.8383C0.0646362 31.9353 0.129283 31.9999 0.226252 31.9999H14.5454C14.6424 31.9999 14.7071 31.9353 14.7071 31.8383L14.5778 31.5151Z" fill="#1971BD"/>
</g>
<defs>
<clipPath id="clip0">
<rect width="31.3535" height="32" fill="white"/>
</clipPath>
</defs>
</svg>
