<svg width="32" height="32" viewBox="0 0 32 32" fill="none" xmlns="http://www.w3.org/2000/svg">
<g clip-path="url(#clip0)">
<path d="M26.3495 26.6984L26.0062 26.2864L23.5569 23.6541C18.2394 25.2866 12.5992 25.5698 7.14493 24.4781C5.27992 24.1779 3.48696 23.5337 1.85737 22.5782C1.38483 22.3496 0.972787 22.0129 0.654642 21.5953C0.336498 21.1777 0.121197 20.6911 0.026185 20.1748C0.163524 22.1891 0.026185 24.2492 0.026185 26.2635C-0.00536633 26.7966 0.0566078 27.3311 0.209304 27.8429C0.495634 28.4264 0.939686 28.918 1.49113 29.2621C2.88303 30.1796 4.43657 30.8243 6.0691 31.1619C9.77339 32.0228 13.5971 32.2473 17.3767 31.8257C20.1898 31.6168 22.9311 30.838 25.4339 29.5367C25.7871 29.3961 26.0997 29.1697 26.3435 28.8779C26.5873 28.5862 26.7545 28.2384 26.8302 27.8658C26.8042 27.434 26.635 27.0233 26.3495 26.6984Z" fill="#1971BD"/>
<path d="M22.4812 14.8415C19.6459 15.6549 16.7098 16.0633 13.7602 16.0546C6.18361 16.0546 0.0262451 13.7656 0.0262451 10.996V17.8629C0.0262451 20.6326 6.18361 22.9216 13.7602 22.9216C16.7624 22.9536 19.7536 22.5527 22.6414 21.7313C21.8532 19.5176 21.805 17.1078 22.5041 14.8644L22.4812 14.8415Z" fill="#1971BD"/>
<path d="M23.7629 11.4767C24.7869 9.55487 26.0397 7.76407 27.494 6.14333C27.6232 5.65605 27.6214 5.14327 27.4888 4.65691C27.3561 4.17054 27.0973 3.72785 26.7386 3.37366C25.984 2.64191 25.066 2.10049 24.0605 1.79426C18.9245 -0.0315045 13.3985 -0.473584 8.03759 0.512431C5.57476 0.76727 3.21446 1.63271 1.17064 3.03031C0.670754 3.37299 0.287425 3.86014 0.0719249 4.42659C-0.019099 4.98754 -0.019099 5.5595 0.0719249 6.12044C-0.0818886 7.31697 0.011601 8.53233 0.346603 9.69126C0.791589 10.4843 1.48255 11.111 2.31513 11.4767C4.27563 12.4546 6.38918 13.0894 8.56406 13.3536C13.3147 14.0895 18.1675 13.8086 22.8015 12.5296C22.9984 12.4917 23.1854 12.4138 23.3509 12.3007C23.526 12.1313 23.666 11.9291 23.7629 11.7056V11.4767ZM30.6299 13.0561C30.5783 12.9221 30.5171 12.7921 30.4467 12.6669C29.8287 11.5224 29.0047 10.5153 28.2951 9.43947C28.112 9.16479 27.9289 8.89011 27.7686 8.59255C27.7014 8.443 27.6249 8.29776 27.5397 8.15764C27.4253 8.15764 27.3337 8.15764 27.2651 8.29498C26.853 8.82144 26.4639 9.3708 26.0748 9.94305C25.3778 10.9673 24.7799 12.0557 24.2894 13.1934C23.4706 15.0392 23.1547 17.0688 23.3738 19.0761C23.4865 20.0797 23.8024 21.0498 24.3021 21.9274C24.8019 22.805 25.4751 23.5716 26.2808 24.1805C26.4209 24.2827 26.5512 24.3976 26.6699 24.5239C26.7544 24.6741 26.8162 24.8361 26.853 25.0046C26.9909 25.6534 27.0827 26.3113 27.1277 26.9731H28.0204L28.1349 24.9817C28.1001 24.8233 28.1001 24.6593 28.1349 24.501C28.2085 24.3667 28.3099 24.2496 28.4324 24.1576C29.967 22.7147 30.9879 20.8096 31.3395 18.7327C31.7014 16.8513 31.486 14.9044 30.7214 13.1476L30.6299 13.0561Z" fill="#1971BD"/>
</g>
<defs>
<clipPath id="clip0">
<rect width="32" height="32" fill="white"/>
</clipPath>
</defs>
</svg>
