<svg width="32" height="32" viewBox="0 0 32 32" fill="none" xmlns="http://www.w3.org/2000/svg">
<path d="M30.8687 11.75C30.2439 11.75 29.7374 12.2565 29.7374 12.8813C29.7374 22.1907 22.1907 29.7374 12.8813 29.7374C12.2565 29.7374 11.75 30.2439 11.75 30.8687C11.75 31.4935 12.2565 32 12.8813 32C23.4403 32 32 23.4403 32 12.8813C32 12.2565 31.4935 11.75 30.8687 11.75Z" fill="#1870BC"/>
<path d="M24.0407 19C25.1286 17.2253 26.1808 14.8589 25.9738 11.5461C25.545 4.68365 19.3295 -0.522314 13.4603 0.041866C11.1627 0.262736 8.80341 2.1356 9.01301 5.49025C9.10411 6.94805 9.81761 7.80845 10.9772 8.46995C12.0809 9.0996 13.4989 9.49845 15.1064 9.95055C17.0481 10.4967 19.3005 11.1102 21.0316 12.3859C23.1063 13.9148 24.5246 15.6872 24.0407 19Z" fill="#1870BC"/>
<path d="M1.95931 7C0.87138 8.77475 -0.180753 11.1411 0.0262465 14.4539C0.455036 21.3163 6.67055 26.5223 12.5397 25.9582C14.8374 25.7373 17.1966 23.8644 16.987 20.5098C16.8959 19.052 16.1824 18.1916 15.0228 17.5301C13.9191 16.9004 12.5011 16.5015 10.8936 16.0494C8.9519 15.5033 6.69955 14.8899 4.96848 13.6142C2.89374 12.0852 1.47546 10.3128 1.95931 7Z" fill="#1870BC"/>
</svg>
