<svg width="32" height="32" viewBox="0 0 32 32" fill="none" xmlns="http://www.w3.org/2000/svg">
<g clip-path="url(#clip0)">
<path d="M12.6467 22.5601C12.6467 23.6161 12.487 24.6721 12.1996 25.6961C13.0938 26.0161 13.9242 26.4961 14.6587 27.1681C14.8822 27.3601 15.0739 27.5841 15.2655 27.8081C15.2655 27.7761 15.2655 27.7441 15.2655 27.7441C15.2974 27.2641 15.0419 26.8161 14.6587 26.5281C14.4032 26.3681 14.1477 26.2401 13.8603 26.1761L13.7645 26.1441C13.7645 26.1441 13.7325 26.1441 13.7325 26.1121C14.3074 25.9841 14.9142 26.0161 15.489 26.2081C15.9042 26.3681 16.2236 26.7201 16.3513 27.1681C16.511 27.7441 16.4152 28.3841 16.0639 28.8641C16.2236 29.0881 16.3513 29.3441 16.4791 29.6001C16.5749 29.6001 16.6707 29.5681 16.7665 29.5361C17.1497 29.3761 17.501 29.1201 17.7565 28.7681L17.7884 28.8001C17.7246 28.9601 17.6607 29.1201 17.5649 29.2481C17.3413 29.6001 17.022 29.8881 16.6707 30.0481C16.8304 30.4001 16.9581 30.7841 17.0858 31.1681L17.2775 31.6801C17.2775 31.6801 17.2775 31.6801 17.2775 31.7121L17.5329 31.9681C21.014 31.6481 24.3673 30.1761 27.0499 27.6481C32.7026 22.2721 33.6607 13.6001 29.3174 7.13608C26.9541 3.58408 23.3134 1.12008 19.1617 0.320078C16.7665 -0.159922 14.3074 -0.0959217 11.9761 0.544078C12.008 0.608078 12.0399 0.640078 12.0719 0.672078C12.2635 0.864078 12.4551 1.02408 12.6467 1.21608C13.0938 1.60008 13.509 2.08008 13.8603 2.56008C13.9242 2.72008 14.1158 2.81608 14.2755 2.75208C14.8822 2.68808 15.521 2.68808 16.1597 2.81608C16.9581 2.97608 17.7565 3.32808 18.3952 3.80808C18.5549 3.90408 18.6826 4.03208 18.8423 4.16008C18.8743 3.71208 18.7465 3.29608 18.523 2.94408C19.513 3.32808 20.4391 3.90408 21.2056 4.67208C22.004 5.40808 22.6747 6.27208 23.1537 7.23208C23.2814 6.78408 23.2814 6.27208 23.1218 5.82408H23.1537L23.2176 5.85608C23.8244 6.11208 24.3992 6.43208 24.8783 6.88008C25.8363 7.68008 26.4431 8.83208 26.5709 10.0801C26.6347 10.7841 26.5709 11.5201 26.3473 12.2241C26.1876 12.7361 25.9641 13.2481 25.7086 13.6961C25.6767 13.7281 25.6767 13.7921 25.6767 13.8561C25.7405 14.3041 25.8044 14.7521 25.8363 15.1681C25.9002 16.2241 25.8363 17.2481 25.6767 18.3041C25.6128 18.7521 25.517 19.1681 25.4212 19.6161C25.2615 20.3841 24.9741 21.0881 24.5908 21.7601C24.5589 21.7921 24.5589 21.8561 24.5908 21.8881C24.7186 22.2721 24.7824 22.6561 24.7505 23.0721C24.7186 23.5841 24.5908 24.0641 24.3353 24.4801C23.8882 25.3441 22.994 25.8561 22.0679 25.7921C21.8763 25.7921 21.7166 25.7601 21.5569 25.7281C21.493 25.7281 21.4292 25.7281 21.3972 25.8241C21.3333 26.1761 21.1098 26.4641 20.7904 26.5921C20.7266 26.6241 20.6308 26.6241 20.5669 26.6881C20.5349 26.7521 20.5669 26.8481 20.5669 26.9441V26.9761C20.6308 27.3601 20.5988 27.7761 20.503 28.1601C20.3753 28.7041 20.0559 29.1841 19.6407 29.5041C19.0978 29.8881 18.4591 30.1761 17.7884 30.3041C17.6926 30.3361 17.6288 30.3361 17.5329 30.3361C17.9162 29.8881 18.1397 29.3441 18.2036 28.7361C18.2355 28.1601 18.1078 27.5521 17.7565 27.0721C17.9162 27.1681 18.0439 27.2641 18.1717 27.3601C18.7465 27.7121 18.9381 28.4481 18.6826 29.0561C18.6507 29.1521 18.6188 29.2481 18.5549 29.3121L18.5868 29.3441C18.6507 29.3121 18.6826 29.2801 18.7465 29.2481C19.4811 28.7361 19.8323 27.8401 19.6088 26.9761C19.4811 26.3681 19.2256 25.8241 18.8423 25.3441C18.7465 25.2161 18.6507 25.1201 18.5549 24.9921C18.7785 25.1201 19.002 25.2801 19.2256 25.4401C19.4491 25.6001 19.7365 25.6641 20.024 25.6001C20.2795 25.5361 20.4072 25.3121 20.3753 25.0561C20.3114 24.8321 20.1836 24.6721 19.992 24.5761C19.4172 24.2241 18.8423 23.9361 18.2355 23.6801C18.1078 23.6161 17.9481 23.5841 17.8204 23.5201C17.8523 23.4881 17.8842 23.4881 17.9162 23.4881C18.2994 23.4881 18.6826 23.5201 19.0659 23.6161C19.8004 23.8081 20.4711 24.1281 21.1098 24.5761C21.3333 24.7681 21.5888 24.8641 21.8763 24.8961C22.3234 24.8961 22.7385 24.6721 23.026 24.3521C23.3134 24.0321 23.5369 23.6481 23.6327 23.2321C23.7286 22.8801 23.6966 22.5281 23.5689 22.2081C23.4731 22.0161 23.3773 21.8561 23.2814 21.6641C23.4411 21.3761 23.6008 21.1201 23.7286 20.8321C24.0479 20.0641 24.2715 19.2961 24.3992 18.4961C24.495 18.0161 24.5589 17.5361 24.6228 17.0561C24.7186 16.2241 24.7505 15.3921 24.7186 14.5601C24.6866 13.7921 24.6228 13.0241 24.495 12.2881C24.3673 11.6161 24.1757 10.9441 23.8882 10.3041C23.8882 10.2721 23.8563 10.2081 23.8563 10.1761C23.984 10.3041 24.1118 10.4001 24.2076 10.4961C24.5908 10.9441 24.9102 11.4561 25.1337 12.0001C25.1657 12.0321 25.1657 12.0641 25.1976 12.0961H25.2296C25.2615 11.8401 25.3254 11.6161 25.3573 11.3601C25.4531 10.8161 25.4531 10.2721 25.3254 9.76008C25.2615 9.37608 25.1337 8.99208 24.9421 8.60808C24.6866 8.09608 24.3353 7.61608 23.8882 7.26408C23.8244 7.23208 23.7605 7.20008 23.6966 7.16808C23.8882 7.96808 23.7286 8.80008 23.2495 9.47208C23.1537 9.24808 23.0579 9.02408 22.9621 8.83208C22.5789 7.90408 22.0359 7.04008 21.3972 6.30408C21.014 5.82408 20.5669 5.40808 20.0559 5.05608C19.9282 4.96008 19.7685 4.86408 19.6088 4.80008H19.5769C19.7365 5.31208 19.7365 5.88808 19.6088 6.40008C19.5449 6.33608 19.4811 6.30408 19.4491 6.27208C19.0339 5.88808 18.6507 5.50408 18.2036 5.12008C17.6288 4.60808 16.9262 4.22408 16.1916 3.96808C15.7765 3.80808 15.3613 3.71208 14.9142 3.68008C14.531 3.64808 14.1477 3.61608 13.7645 3.61608C13.2535 3.64808 12.7425 3.68008 12.2316 3.77608C11.7844 3.84008 11.3373 4.00008 10.8902 4.09608C10.7306 4.12808 10.5709 4.19208 10.4431 4.22408C11.1138 3.77608 11.8803 3.42408 12.6467 3.13608C12.6148 3.04008 12.5509 2.97608 12.519 2.91208C12.008 2.20808 11.4012 1.56808 10.6986 1.05608C10.6347 0.992078 10.5389 0.992078 10.4431 1.02408C9.32537 1.44008 8.23954 1.98408 7.24952 2.65608C5.78046 3.61608 4.50301 4.83208 3.41718 6.20808C2.4591 7.42408 1.69263 8.80008 1.14972 10.2401C0.9581 10.7521 0.79842 11.2961 0.638739 11.8401C0.510995 12.2561 0.415186 12.7041 0.319378 13.1521C0.255506 13.4401 0.22357 13.7601 0.191634 14.0801C0.159697 14.4961 0.0958252 14.8801 0.0958252 15.2961C0.0958252 15.9041 0.0958252 16.5121 0.127761 17.1521C0.159697 17.8881 0.255506 18.6241 0.415186 19.3601C0.542931 19.9041 0.670675 20.4481 0.830356 20.9921C1.08584 21.7601 1.40521 22.5921 1.82038 23.3601C1.82038 23.3601 1.82038 23.3601 1.82038 23.3921C1.78844 23.1041 1.78844 22.8481 1.78844 22.5601C1.82038 14.2401 12.6467 14.2401 12.6467 22.5601ZM20.4072 22.4321C20.3753 22.5601 20.3433 22.6561 20.3114 22.7841C20.2795 22.9121 20.2795 23.0081 20.2475 23.1361C20.2156 23.0081 20.1836 22.8801 20.1517 22.7521C20.0559 22.4321 20.1198 22.0481 20.3114 21.7601C20.503 21.5361 20.7585 21.4401 21.0459 21.4721C21.493 21.5041 21.8763 21.7601 22.0998 22.1761C22.0998 22.2081 22.1317 22.2401 22.1317 22.2721C21.8763 22.0801 21.5888 21.9841 21.2695 21.9201C20.9182 21.8561 20.5349 22.0801 20.4072 22.4321ZM22.8024 23.8081C22.8024 23.8081 22.8024 23.8401 22.8024 23.8081L22.483 23.8401C22.2276 23.8401 22.004 23.8081 21.7804 23.8081C21.5888 23.8081 21.3972 23.7441 21.3014 23.5841C21.2056 23.4881 21.1098 23.3601 21.0459 23.2321C20.9501 23.0721 20.982 22.9121 21.1098 22.7841C21.2375 22.6561 21.4292 22.6561 21.5888 22.7521C21.7805 22.8801 21.9401 23.0401 22.0998 23.2001C22.2914 23.3921 22.515 23.5521 22.7385 23.7121L22.8024 23.8081ZM19.8323 15.7441C19.8323 15.7441 19.8643 15.7441 19.8643 15.7121H19.8962C20.0878 16.2561 20.5349 16.6721 21.0779 16.8641C21.4292 17.0241 22.1637 17.2801 22.1637 17.2801C21.9721 17.2801 21.7485 17.2801 21.5569 17.2801C21.1417 17.2481 20.7266 17.1521 20.3114 16.9921C20.0559 16.8961 19.8643 16.7361 19.7685 16.4801C19.6727 16.5121 19.6088 16.5441 19.5449 16.5761C19.513 16.6081 19.513 16.6081 19.513 16.6401C19.4491 17.0241 19.1298 17.3121 18.7146 17.3121C18.4272 17.3761 18.1717 17.2481 17.9801 17.0561C17.8523 16.8641 17.7884 16.6401 17.7884 16.4161C17.8204 16.2561 17.7246 16.0641 17.5329 16.0321C17.2136 15.8721 16.8942 15.7761 16.5429 15.7121C16.4152 15.6801 16.2555 15.7121 16.0958 15.6801C16.2874 15.5201 16.4791 15.4241 16.7026 15.3601C17.2136 15.2001 17.7246 15.2321 18.2036 15.4561C18.491 15.5521 18.7465 15.6801 19.0339 15.8081C19.3214 16.0001 19.6407 15.9361 19.8323 15.7441ZM11.3693 8.19208C11.5928 7.07208 12.2316 6.08008 13.1258 5.40808C13.7964 4.89608 14.5629 4.51208 15.3932 4.28808L15.521 4.25608C15.3932 4.44808 15.2655 4.60808 15.1697 4.76808C14.7545 5.44008 14.499 6.17608 14.4351 6.97608C14.3713 7.52008 14.4671 8.09608 14.6906 8.64008C15.01 9.44008 15.7765 9.98408 16.6387 10.0801L16.8304 10.1121C16.8304 10.1121 16.8623 10.1121 16.8623 10.1441C16.4471 10.2401 16 10.2401 15.5848 10.2081C14.9142 10.1761 14.3074 9.79208 13.9561 9.21608C13.7645 8.83208 13.6367 8.41608 13.6687 8.00008C13.6367 6.88008 14.0519 5.79208 14.7864 4.96008C14.8184 4.92808 14.8503 4.89608 14.8503 4.89608L14.8822 4.86408L14.7864 4.80008C14.5629 4.99208 14.3393 5.15208 14.1158 5.34408C13.4771 5.92008 12.998 6.68808 12.8064 7.55208C12.6467 8.12808 12.6148 8.73608 12.7106 9.31208C12.7745 9.98408 13.03 10.6561 13.3813 11.2321C13.7325 11.8081 14.2435 12.2881 14.8503 12.6081C15.3613 12.8641 15.9361 12.9921 16.511 12.9281C17.022 12.8961 17.5329 12.7361 17.9801 12.4161C18.3314 12.1601 18.5549 11.8081 18.6507 11.3921C18.8104 10.8161 18.6507 10.2401 18.2355 9.82408C18.012 9.60008 17.7246 9.44008 17.4052 9.40808C17.1497 9.37608 16.8623 9.37608 16.5749 9.37608C16.7665 9.28008 16.9581 9.15208 17.1497 9.05608C17.4371 8.89608 17.7565 8.83208 18.0759 8.80008C18.6507 8.76808 19.1936 9.08808 19.4172 9.63208C19.6407 10.0801 19.6727 10.5921 19.5449 11.0721C19.2894 11.9361 18.6507 12.6081 17.7884 12.8961C17.3413 13.0561 16.8942 13.1521 16.4471 13.2161C16 13.2801 15.5529 13.2481 15.1058 13.1841C14.2435 13.1201 13.4132 12.7361 12.7425 12.1601C12.1677 11.6481 11.7206 10.9761 11.497 10.2401C11.2735 9.56808 11.2415 8.86408 11.3693 8.19208ZM9.10181 14.9441C8.62277 14.5601 8.33534 13.9521 8.43115 13.3121C8.46309 12.9601 8.59083 12.6401 8.84632 12.3521C9.03794 12.1601 9.29343 12.0641 9.54892 12.0321C10.0918 11.9681 10.6667 12.1281 11.0819 12.5121C11.4651 12.8001 11.8483 13.0881 12.2316 13.3761C12.7745 13.7601 13.4132 13.9841 14.0838 14.0481C13.8922 14.0801 13.6687 14.1121 13.4451 14.1121C12.5509 14.2081 11.6886 13.9201 11.018 13.3761C10.8902 13.2801 10.7306 13.1521 10.5709 13.0561C10.4112 12.9281 10.1876 12.8961 9.99602 12.9601C9.80441 13.0241 9.64473 13.1841 9.61279 13.4081C9.48505 13.8561 9.58085 14.3681 9.86828 14.7521C10.1238 15.1361 10.4431 15.4241 10.8583 15.6481L11.018 15.7441V15.7761C10.8583 15.7441 10.7306 15.7121 10.5709 15.6801C9.99602 15.5201 9.51698 15.2961 9.10181 14.9441Z" fill="#1971BD"/>
<path d="M7.21757 27.872C9.1018 27.872 10.5709 25.184 10.5709 22.688C10.5709 17.504 3.83234 17.504 3.83234 22.688C3.83234 25.184 5.36527 27.872 7.21757 27.872Z" fill="#1971BD"/>
<path d="M14.3393 31.2321C13.988 30.2401 13.3812 29.4081 12.5828 28.7681C11.7844 28.1281 10.7944 27.7441 9.77246 27.6481C9.45309 28.0001 9.06986 28.3201 8.62275 28.5121C8.17565 28.7361 7.69661 28.8321 7.21756 28.8641C6.73852 28.8641 6.25948 28.7361 5.81238 28.5121C5.36527 28.2881 4.98204 28.0001 4.66267 27.6481C3.64072 27.7441 2.6507 28.1281 1.8523 28.7681C1.05389 29.4081 0.41517 30.2721 0.0958084 31.2321L0 31.5521C0 31.6481 0.0638722 31.7121 0.159681 31.7121H14.3393C14.4351 31.7121 14.499 31.6481 14.499 31.5521L14.3393 31.2321Z" fill="#1971BD"/>
</g>
<defs>
<clipPath id="clip0">
<rect width="32" height="32" fill="white"/>
</clipPath>
</defs>
</svg>
