<svg width="32" height="32" viewBox="0 0 32 32" fill="none" xmlns="http://www.w3.org/2000/svg">
<g clip-path="url(#clip0)">
<path d="M8.232 28.16C10.12 28.16 11.592 25.472 11.592 22.976C11.592 17.792 4.84 17.792 4.84 22.976C4.84 25.504 6.376 28.16 8.232 28.16Z" fill="#1971BD"/>
<path d="M15.368 31.52C15.016 30.528 14.408 29.696 13.608 29.056C12.808 28.416 11.816 28.032 10.792 27.936C10.472 28.288 10.088 28.608 9.64 28.8C9.192 29.024 8.712 29.12 8.232 29.152C7.752 29.152 7.272 29.024 6.824 28.8C6.376 28.576 5.992 28.288 5.672 27.936C4.648 28.032 3.656 28.416 2.856 29.056C2.056 29.696 1.416 30.56 1.096 31.52L1 31.84C1 31.936 1.064 32 1.16 32H15.368C15.464 32 15.528 31.936 15.528 31.84L15.368 31.52Z" fill="#1971BD"/>
<path d="M30.952 20.992C30.408 20.896 29.832 20.864 29.288 20.96C29.128 20.992 28.968 20.992 28.808 21.024V20.992C29.032 20.928 29.288 20.864 29.512 20.8C30.024 20.672 30.536 20.64 31.048 20.672C31.048 20.64 31.048 20.64 31.048 20.608C30.984 20.096 30.952 19.552 30.888 19.04C30.888 18.944 30.824 18.944 30.76 18.944C30.12 18.912 29.48 19.008 28.872 19.232C28.712 19.296 28.552 19.328 28.424 19.392C29.16 18.912 29.992 18.624 30.856 18.592C30.76 18.176 30.664 17.792 30.568 17.376C30.44 16.896 30.44 16.928 29.96 16.896C29.16 16.864 28.36 17.024 27.624 17.344L27.56 17.376C27.528 17.376 27.528 17.376 27.496 17.376C28.328 16.768 29.32 16.48 30.344 16.544C30.12 15.968 29.928 15.456 29.704 14.912C29.672 14.88 29.64 14.848 29.608 14.848C29.192 14.752 28.744 14.72 28.328 14.784C27.56 14.912 26.792 15.168 26.12 15.552C26.088 15.584 26.056 15.584 26.024 15.584C26.952 14.72 28.168 14.272 29.448 14.336C29.416 14.272 29.416 14.24 29.384 14.176C29.192 13.856 29.032 13.504 28.872 13.184C28.84 13.12 28.776 13.056 28.68 13.024C28.136 12.864 27.592 12.832 27.016 12.928C26.152 13.088 25.32 13.376 24.552 13.856L24.424 13.92C24.424 13.888 24.456 13.856 24.52 13.824C24.84 13.6 25.128 13.376 25.448 13.184C26.344 12.576 27.4 12.32 28.488 12.48C28.328 12.224 28.168 12 28.04 11.744C28.008 11.68 27.944 11.648 27.88 11.616C27.272 11.264 26.568 11.136 25.896 11.264C25.064 11.392 24.264 11.712 23.56 12.192C23.304 12.352 23.048 12.544 22.792 12.704V12.672C23.432 12 24.2 11.424 25.032 11.04C25.768 10.72 26.568 10.656 27.336 10.88C27.368 10.88 27.368 10.88 27.4 10.88C27.368 10.848 27.336 10.816 27.336 10.784C27.144 10.592 27.08 10.304 27.112 10.048C27.144 9.56797 27.24 9.08797 27.368 8.63997C27.656 7.80797 27.656 6.91197 27.368 6.07997C26.856 4.67197 25.992 3.45597 24.84 2.49597C23.656 1.53597 22.28 0.831974 20.776 0.511974C19.88 0.287974 18.984 0.159974 18.056 0.0959736C17.192 0.0319736 16.328 0.0319736 15.464 0.0959736C14.632 0.159974 13.864 0.255974 13.032 0.351974C12.84 0.319974 12.68 0.351974 12.52 0.383974C13.288 0.671974 14.056 0.991974 14.76 1.40797C14.696 1.40797 14.632 1.40797 14.568 1.37597C13.672 1.11997 12.744 0.927974 11.816 0.831974C11.048 0.767974 10.28 0.831974 9.54401 1.02397C8.07201 1.34397 6.66401 1.91997 5.38401 2.75197C4.07201 3.58397 3.01601 4.73597 2.28001 6.11197C1.25601 8.03197 0.840006 10.24 1.09601 12.384C1.19201 13.312 1.48001 14.208 1.92801 15.04C2.08801 15.328 2.24801 15.584 2.44001 15.872C2.50401 15.52 2.53601 15.2 2.60001 14.88C2.66401 14.56 2.69601 14.24 2.79201 13.92C2.88801 13.6 2.98401 13.28 3.08001 12.96C3.17601 12.64 3.33601 12.352 3.49601 12.064C3.49601 12.096 3.49601 12.096 3.49601 12.128C2.98401 13.44 2.82401 14.816 2.92001 16.224C2.92001 16.352 2.98401 16.448 3.04801 16.512C3.62401 16.928 4.16801 17.376 4.74401 17.792C4.93601 17.632 5.12801 17.472 5.32001 17.312C5.35201 15.52 5.64001 13.76 6.15201 12.064C6.18401 12.096 6.21601 11.968 6.18401 12.096C6.18401 12.192 6.15201 12.288 6.12001 12.352C5.92801 13.376 5.80001 14.432 5.76801 15.488C5.73601 16 5.76801 16.512 5.76801 17.024C6.63201 16.576 7.59201 16.384 8.52001 16.448C8.52001 15.616 8.55201 14.752 8.61601 13.92C8.68001 13.152 8.77601 12.384 8.96801 11.648C8.96801 11.584 9.00001 11.52 9.03201 11.456C9.06401 11.488 9.06401 11.52 9.06401 11.552C9.00001 12.224 8.93601 12.896 8.90401 13.6C8.87201 14.56 8.90401 15.552 8.96801 16.512C11.144 16.832 13.192 18.528 13.576 21.568C13.864 21.664 14.152 21.76 14.44 21.888C14.472 21.472 14.408 21.056 14.28 20.64C13.992 19.52 13.48 18.432 12.808 17.472C12.232 16.704 11.816 15.84 11.528 14.912C11.208 13.824 10.92 12.704 10.728 11.584C10.696 11.328 10.632 11.04 10.6 10.784C10.632 10.816 10.664 10.848 10.664 10.912C10.728 11.296 10.792 11.712 10.888 12.096C11.144 13.44 11.592 14.752 12.264 15.936C12.968 17.248 14.024 18.304 15.336 19.008C16.552 19.648 17.896 19.968 19.272 19.968C20.232 19.968 21.224 19.904 22.152 19.712C22.44 19.648 22.696 19.584 22.984 19.52C22.056 18.72 21.416 17.664 21.064 16.48C21.256 16.8 21.416 17.12 21.64 17.408C22.184 18.272 22.952 18.944 23.848 19.424C24.328 19.68 24.712 20.064 24.936 20.544C25.352 21.408 25.544 22.304 25.576 23.264C25.608 24.096 25.544 24.96 25.352 25.792C25.224 26.56 24.936 27.328 24.52 28C24.104 28.672 23.464 29.184 22.664 29.376C22.6 29.408 22.504 29.408 22.44 29.408C22.536 29.344 22.632 29.28 22.76 29.248C23.08 29.12 23.368 28.896 23.56 28.576C23.592 28.512 23.624 28.448 23.528 28.384C23.304 28.192 23.176 27.936 23.08 27.648C22.888 27.104 22.856 26.528 22.984 25.984C23.176 25.152 23.496 24.352 23.912 23.648C24.168 23.2 24.36 22.784 24.584 22.304C24.616 22.176 24.648 22.048 24.648 21.92C24.648 21.792 24.584 21.728 24.456 21.728C24.36 21.728 24.264 21.76 24.168 21.792C23.72 21.952 23.24 22.016 22.76 21.952C22.344 21.92 21.96 21.856 21.544 21.824C21.096 21.792 21 21.92 21.064 22.336C21.128 22.656 21.128 22.944 21.064 23.264C20.968 23.808 20.808 24.32 20.584 24.832C20.072 26.08 19.848 27.456 19.976 28.832C20.008 29.472 20.264 30.048 20.648 30.528C21.448 31.424 22.568 31.968 23.752 32C24.648 32.064 25.512 31.872 26.312 31.456C27.528 30.848 28.552 29.888 29.256 28.736C29.352 28.576 29.48 28.384 29.576 28.192L29.128 28.064C29.256 28.064 29.384 28.064 29.512 28.096C29.608 28.128 29.64 28.128 29.672 28C29.736 27.872 29.8 27.776 29.832 27.648C29.992 27.296 30.12 26.912 30.28 26.56L29.512 26.368V26.336L30.312 26.4C30.408 25.888 30.536 25.408 30.664 24.896L29.352 24.608V24.576L30.76 24.64C30.824 24.096 30.92 23.52 30.984 22.976C30.44 22.816 29.864 22.752 29.256 22.752C29.832 22.656 30.408 22.624 30.984 22.688C30.984 22.656 30.984 22.624 31.016 22.624C31.016 22.112 31.048 21.632 31.048 21.152C31.048 21.024 31.016 20.992 30.952 20.992ZM16.104 8.92797C15.816 9.08797 15.464 9.08797 15.176 8.92797C14.888 8.76797 14.632 8.51197 14.472 8.22397C14.92 7.99997 15.432 8.03197 15.88 8.28797C16.04 8.41597 16.136 8.57597 16.2 8.73597C16.232 8.83197 16.168 8.89597 16.104 8.92797Z" fill="#1971BD"/>
</g>
<defs>
<clipPath id="clip0">
<rect width="30.048" height="32" fill="white" transform="translate(1)"/>
</clipPath>
</defs>
</svg>
