<svg width="32" height="32" viewBox="0 0 32 32" fill="none" xmlns="http://www.w3.org/2000/svg">
<g clip-path="url(#clip0)">
<path d="M16.0143 32.1147H14.7527L13.3534 31.9312C12.8946 31.9312 12.4588 31.7018 12 31.633H11.7018H10.9448C10.7538 31.6429 10.5624 31.6429 10.3713 31.633C10.2834 31.6097 10.2039 31.562 10.1419 31.4953L9.86667 31.1971L9.36201 30.6007H9.20143H8.99498C8.19858 30.2057 7.43192 29.7534 6.70108 29.2473C5.98805 28.7149 5.32052 28.1241 4.70538 27.481C4.17778 26.9305 3.74194 26.2882 3.23728 25.7147L2.96201 25.233L2.52617 24.9348C2.52617 24.9348 2.2509 24.5907 2.04444 24.5907C1.98816 24.5582 1.94152 24.5113 1.90928 24.4549C1.87703 24.3985 1.86035 24.3345 1.86093 24.2695C1.86093 23.9484 1.86093 23.6043 1.86093 23.2143C1.88135 23.0775 1.88135 22.9383 1.86093 22.8014C1.05489 21.0401 0.550847 19.1558 0.369893 17.2272C0.369893 16.6079 0.369893 15.9656 0.369893 15.3233C0.393288 15.2253 0.393288 15.1231 0.369893 15.0251C0.334873 14.839 0.288915 14.6552 0.232258 14.4746C0.232258 14.1305 -0.180645 13.6717 0.0946237 13.3505C0.307877 13.094 0.506978 12.8259 0.691039 12.5477C0.710793 12.4803 0.710793 12.4086 0.691039 12.3412C0.697937 12.219 0.697937 12.0964 0.691039 11.9742C1.18372 10.2454 1.9588 8.60999 2.98495 7.13405C3.44373 6.46882 3.97133 5.91828 4.47599 5.29892C4.71323 4.90089 4.90557 4.47775 5.04946 4.03728C5.04946 3.8767 5.37061 3.85376 5.53118 3.83082L6.33405 3.64731L6.72401 3.37204L7.34337 2.95914C9.13709 1.83379 11.1443 1.09183 13.2387 0.779928C13.5599 0.779928 13.9039 0.779928 14.2251 0.642294H14.6609C14.6609 0.642294 14.9591 0.527599 15.0509 0.527599L16.0143 0C16.0143 0 16.1749 0 16.2437 0.114695C16.3125 0.229391 16.8631 0.458781 17.1842 0.596416C17.2744 0.620774 17.3694 0.620774 17.4595 0.596416C17.9026 0.606164 18.3424 0.675607 18.767 0.802867C19.2029 0.802867 19.6616 0.98638 20.0975 1.12401C20.9793 1.37294 21.8386 1.69521 22.6667 2.08746C23.5547 2.49123 24.4001 2.98306 25.19 3.55556V3.67025H25.3505C25.5544 3.72704 25.7612 3.77299 25.9699 3.80789C26.1226 3.81867 26.2759 3.81867 26.4287 3.80789V3.80789C26.4776 3.83373 26.5175 3.8737 26.5434 3.92258L26.7269 4.38136L26.9563 4.9319L27.0939 5.23011C27.0939 5.41362 27.3921 5.55125 27.5068 5.71183C27.6215 5.8724 27.805 6.05591 27.9427 6.21649L28.7455 7.31756C29.2436 8.04501 29.6809 8.81224 30.053 9.61147C30.4177 10.407 30.7021 11.2369 30.9018 12.0889C30.9626 12.2516 31.0563 12.3999 31.1771 12.5247C31.3659 12.7678 31.542 13.0204 31.7047 13.2817C31.7228 13.3172 31.7322 13.3565 31.7322 13.3964C31.7322 13.4363 31.7228 13.4756 31.7047 13.5111V13.7634C31.6372 14.0462 31.5451 14.3225 31.4294 14.5892C31.3733 14.7841 31.3733 14.9908 31.4294 15.1857C31.4866 16.1406 31.4866 17.0981 31.4294 18.053C31.3101 19.0086 31.1106 19.9525 30.833 20.8746C30.6265 21.5398 30.3513 22.1591 30.0989 22.7785C30.0785 22.8614 30.0785 22.948 30.0989 23.0308V24.0631C30.0958 24.1567 30.0689 24.2479 30.0208 24.3282C29.9726 24.4084 29.9048 24.4751 29.8237 24.5219C29.5646 24.6473 29.3251 24.8095 29.1125 25.0036V25.0036C28.9464 25.0806 28.8096 25.2094 28.7226 25.3706L28.3097 25.8982C28.0344 26.2423 27.7362 26.5864 27.438 26.9075C26.8288 27.5636 26.1608 28.1626 25.4423 28.6968C24.765 29.2059 24.052 29.6659 23.309 30.0731L23.0796 30.1878C22.7379 30.4498 22.4432 30.7678 22.2079 31.1283V31.1283C22.1401 31.1449 22.0693 31.1449 22.0014 31.1283C21.4748 31.0827 20.9453 31.0827 20.4186 31.1283L19.524 31.3118C18.9505 31.4265 18.3541 31.5183 17.7577 31.5871C17.191 31.8074 16.6081 31.9838 16.0143 32.1147V32.1147ZM12.3211 29.1556H12.4817C13.4681 29.1556 14.3857 29.5455 15.372 29.5914C16.6066 29.6422 17.8422 29.5186 19.0423 29.2244C19.2645 29.1513 19.4966 29.1126 19.7305 29.1097H20.8774C20.9295 29.1272 20.9859 29.1272 21.038 29.1097L21.4509 28.628C21.5704 28.4733 21.7091 28.3345 21.8638 28.2151C22.773 27.6955 23.6398 27.1049 24.4559 26.4487C24.8675 26.1135 25.2582 25.7535 25.6258 25.3706C25.7864 25.21 26.3828 24.2466 26.5892 24.2466C26.7957 24.2466 26.8416 23.8337 27.071 23.7649C27.323 23.6721 27.5505 23.523 27.7362 23.329C27.9885 23.0767 27.8968 22.6638 27.9197 22.3427V22.1133C27.9596 21.8843 28.0454 21.6658 28.172 21.471C28.8895 19.6691 29.2479 17.7444 29.2272 15.805C29.2039 15.5916 29.2039 15.3762 29.2272 15.1627C29.2977 14.8359 29.3896 14.514 29.5025 14.1993C29.5235 14.1399 29.5235 14.0751 29.5025 14.0158C29.3692 13.7488 29.1994 13.5018 28.9979 13.2817C28.7658 12.9444 28.6093 12.561 28.5391 12.1577C28.4206 11.718 28.2672 11.2884 28.0803 10.8731C27.7065 10.0654 27.2531 9.29699 26.7269 8.57921C26.3828 8.09749 25.924 7.66165 25.5799 7.15699C25.3899 6.80656 25.2362 6.43761 25.1211 6.05591C25.0842 6.04179 25.0434 6.04179 25.0065 6.05591H24.5247L24.043 5.94122H23.9054C23.0049 5.31909 22.0533 4.77425 21.0609 4.31255C19.8694 3.78779 18.5972 3.46975 17.2989 3.37204H17.0237C17.0237 3.37204 16.8401 3.25735 16.7254 3.21147L16.3125 2.5233C16.22 2.43829 16.1202 2.36154 16.0143 2.29391L15.1427 2.75269C14.8632 2.81337 14.5794 2.85172 14.2939 2.86738C13.9541 2.89671 13.6168 2.95037 13.2846 3.02796C12.613 3.16726 11.9534 3.35901 11.3118 3.60143C10.1523 4.05257 9.05719 4.65414 8.05448 5.39068C7.91894 5.42467 7.77711 5.42467 7.64158 5.39068H7.20574C7.10244 5.40719 7.00852 5.4603 6.94114 5.54032C6.87375 5.62034 6.8374 5.72192 6.83871 5.82652C6.63226 6.14767 6.60932 6.56057 6.35699 6.88172C5.75071 7.61558 5.18407 8.38131 4.6595 9.17563C4.1833 9.89313 3.79078 10.6628 3.48961 11.4695C3.32033 11.9048 3.17484 12.3489 3.05376 12.8C3.06612 12.8605 3.06612 12.923 3.05376 12.9835L2.43441 13.7634C2.38409 13.8249 2.3566 13.9019 2.3566 13.9814C2.3566 14.0608 2.38409 14.1378 2.43441 14.1993C2.49822 14.3562 2.55186 14.5171 2.59498 14.681L2.73262 15.1857C2.73262 15.6215 2.73262 16.1262 2.73262 16.562C2.73569 17.0535 2.77402 17.5441 2.84731 18.0301C3.00889 19.2281 3.32502 20.4001 3.78781 21.5168C3.90085 21.7058 3.97131 21.9172 3.99427 22.1362C4.00513 22.2889 4.00513 22.4422 3.99427 22.595C3.99427 22.7556 3.99427 22.8932 3.99427 23.0538C3.98718 23.1081 3.9965 23.1634 4.02102 23.2124C4.04554 23.2615 4.08415 23.3021 4.1319 23.329C4.35435 23.4532 4.56886 23.5911 4.77419 23.7419C5.06574 23.9607 5.32117 24.2239 5.53118 24.5219C6.33563 25.5786 7.3036 26.5001 8.39857 27.2516C8.69677 27.4581 8.99498 27.6645 9.31613 27.848C9.60944 28.0314 9.91616 28.1925 10.2337 28.3298H10.3713L10.509 28.5133L10.9219 28.972C10.9885 28.9966 11.0617 28.9966 11.1283 28.972H11.6789C11.9013 28.9991 12.118 29.061 12.3211 29.1556Z" fill="#1971BD"/>
<path opacity="0.3" d="M25.3277 15.2086C24.7378 13.8516 23.7654 12.6957 22.5292 11.8824C21.1712 10.9626 19.5807 10.4457 17.9414 10.3914C17.1133 10.3758 16.2871 10.4762 15.4869 10.6896C15.0907 10.791 14.7001 10.9135 14.317 11.0566C13.9524 11.2203 13.5768 11.3583 13.193 11.4695C13.1546 11.4917 13.1111 11.5033 13.0668 11.5033C13.0225 11.5033 12.979 11.4917 12.9406 11.4695C12.6654 11.2401 12.9406 10.6667 12.9406 10.3914C13.1204 10.0129 13.3878 9.6826 13.7206 9.42796C14.8851 8.64338 16.2057 8.12026 17.5917 7.89455C18.9776 7.66884 20.3959 7.7459 21.7492 8.12043L22.4604 8.28101C22.3606 8.21391 22.2527 8.15994 22.1392 8.12043C20.0272 7.45329 17.7707 7.38973 15.6245 7.93692C14.3113 8.25 13.0871 8.85921 12.0454 9.71798C11.0037 10.5768 10.1722 11.6623 9.61448 12.8918C9.13537 14.4127 9.2755 16.0613 10.0044 17.4796C10.4721 18.3865 11.1203 19.1881 11.9093 19.835C12.6983 20.482 13.6113 20.9607 14.5923 21.2416L15.2346 21.4022C15.267 21.412 15.2966 21.4297 15.3206 21.4537C15.3446 21.4777 15.3623 21.5073 15.3722 21.5398V21.6774C14.6263 22.144 13.7743 22.4139 12.8958 22.4621C12.0173 22.5102 11.141 22.3349 10.3485 21.9527C8.95723 21.243 7.75434 20.2131 6.83885 18.9477C6.22136 18.2139 5.77474 17.352 5.53133 16.4244C5.31332 14.8491 5.31332 13.2513 5.53133 11.676C5.26854 12.741 5.15277 13.8369 5.18724 14.9333C5.3514 16.5682 5.90177 18.1407 6.79298 19.5212C7.93132 21.3246 9.66233 22.6753 11.6885 23.3409C13.7147 24.0065 15.9094 23.9455 17.8955 23.1685C19.3867 22.4999 20.6618 21.4287 21.5777 20.0752C22.4935 18.7218 23.0136 17.1397 23.0797 15.5068C23.0706 15.4306 23.0706 15.3536 23.0797 15.2774H23.2862C23.9225 15.9333 24.3776 16.7433 24.6068 17.6279C24.836 18.5126 24.8315 19.4416 24.5937 20.324C24.1918 22.0822 23.2731 23.68 21.9557 24.9118L21.7722 25.233C21.8061 25.2557 21.8461 25.2678 21.8869 25.2678C21.9277 25.2678 21.9676 25.2557 22.0016 25.233C22.2329 25.0777 22.455 24.9092 22.6668 24.7283C23.9748 23.6365 24.9362 22.1871 25.4332 20.5575C25.9302 18.9278 25.9414 17.1886 25.4654 15.5527L25.3277 15.2086Z" fill="#1971BD"/>
<path d="M20.6023 15.6444C20.2918 14.8831 19.7121 14.2626 18.9737 13.9011C18.3739 13.6125 17.7115 13.4784 17.0468 13.5111C16.6941 13.555 16.3477 13.6396 16.0145 13.7634C15.7163 13.7634 15.464 14.0387 15.1887 14.1075C14.9593 13.8781 15.1887 13.4423 15.464 13.2817C15.7171 13.0504 16.0133 12.8711 16.3357 12.7541C16.8374 12.5759 17.3634 12.4753 17.8955 12.4559C18.1774 12.422 18.4624 12.422 18.7443 12.4559C18.98 12.4908 19.2196 12.4908 19.4554 12.4559C19.4026 12.4433 19.3476 12.4433 19.2948 12.4559C18.5214 12.1928 17.6934 12.1327 16.8901 12.2813C16.0868 12.4299 15.3351 12.7823 14.707 13.3047C14.2767 13.6444 13.9377 14.0858 13.7206 14.5893C13.6141 14.9286 13.5754 15.2855 13.6069 15.6398C13.6384 15.994 13.7394 16.3386 13.9041 16.6538C14.116 17.0698 14.4136 17.4362 14.7773 17.7287C15.1411 18.0213 15.5628 18.2335 16.0145 18.3513H16.3127L16.0145 18.6265C15.7157 18.7628 15.391 18.8334 15.0625 18.8334C14.7341 18.8334 14.4094 18.7628 14.1106 18.6265C13.5851 18.4025 13.1152 18.0658 12.7342 17.6401C12.4035 17.3199 12.1385 16.938 11.9543 16.5161C11.7014 15.7003 11.6309 14.8389 11.7478 13.9928C11.7478 14.4975 11.5873 14.9333 11.6102 15.438C11.6277 15.8468 11.7129 16.2499 11.8625 16.6308C12.14 17.3911 12.6247 18.0586 13.2618 18.5577C13.7061 18.9026 14.2157 19.1536 14.7599 19.2955C15.304 19.4375 15.8713 19.4674 16.4274 19.3835C17.1049 19.2703 17.7402 18.9792 18.2682 18.5398C18.7962 18.1005 19.198 17.5288 19.4324 16.8832C19.5694 16.5243 19.6393 16.1433 19.6389 15.7591C19.6389 15.7591 19.6389 15.7591 19.6389 15.7591C19.8963 16.0214 20.0869 16.3417 20.1946 16.693C20.3024 17.0443 20.3242 17.4163 20.2582 17.7778C20.1348 18.6564 19.7138 19.4661 19.0654 20.0717L18.9507 20.2093L19.2489 19.9799C19.854 19.5429 20.3192 18.9396 20.588 18.2433C20.8568 17.547 20.9175 16.7876 20.7629 16.0574L20.6023 15.6444Z" fill="#1971BD"/>
</g>
<defs>
<clipPath id="clip0">
<rect width="32" height="32" fill="white"/>
</clipPath>
</defs>
</svg>
