<svg width="32" height="32" viewBox="0 0 32 32" fill="none" xmlns="http://www.w3.org/2000/svg">
<g clip-path="url(#clip0_5105_2525)">
<path d="M0.00451062 20.9404L7.24348 23.8177L15.6014 27.1518C15.7205 27.2027 15.8487 27.2289 15.9782 27.2289C16.1077 27.2289 16.2359 27.2027 16.355 27.1518L31.4723 21.1231L31.9747 20.9404C31.9747 20.9404 31.9747 21.1688 31.9747 21.2601C31.9747 22.5846 31.9747 23.8863 31.9747 25.2107C31.995 25.3495 31.9614 25.4908 31.8806 25.6055C31.7999 25.7202 31.6783 25.7996 31.5408 25.8273C26.4713 27.8369 21.4017 29.8693 16.3093 31.856C16.2046 31.9006 16.092 31.9236 15.9782 31.9236C15.8644 31.9236 15.7518 31.9006 15.6471 31.856L0.415556 25.8273C0.283077 25.7856 0.169399 25.6988 0.0942987 25.582C0.0191979 25.4652 -0.0125737 25.3257 0.00451062 25.1879C0.00451062 23.8863 0.00451062 22.5618 0.00451062 21.2601V20.9404Z" fill="#1971BD"/>
<path d="M0.00444356 13.77L7.97416 16.83L15.6013 19.8672C15.7228 19.9242 15.8554 19.9538 15.9896 19.9538C16.1237 19.9538 16.2563 19.9242 16.3778 19.8672L31.4266 13.8842L31.9747 13.77C31.9747 13.77 31.9747 13.9527 31.9747 14.044C31.9747 15.3914 31.9747 16.7387 31.9747 18.0632C31.9898 18.1892 31.9589 18.3164 31.8875 18.4214C31.8162 18.5263 31.7092 18.6019 31.5865 18.6341L16.3093 24.5714C16.2046 24.616 16.0919 24.639 15.9781 24.639C15.8643 24.639 15.7517 24.616 15.647 24.5714L0.392653 18.5199C0.272292 18.4837 0.168036 18.4072 0.097358 18.3032C0.0266802 18.1993 -0.00612388 18.0742 0.00444356 17.949C0.00444356 16.6017 0.00444356 15.2772 0.00444356 13.9299C0.00444356 13.77 0.00444356 13.77 0.00444356 13.77Z" fill="#1971BD"/>
<path fill-rule="evenodd" clip-rule="evenodd" d="M31.9743 8.88315V8.79181V6.91927C31.9982 6.83827 32.0053 6.75322 31.995 6.66939C31.9847 6.58556 31.9573 6.50474 31.9144 6.43194C31.8716 6.35914 31.8143 6.29591 31.746 6.24619C31.6778 6.19646 31.6 6.16128 31.5176 6.14285L16.3317 0.0685076C16.2232 0.0232837 16.1068 0 15.9892 0C15.8716 0 15.7552 0.0232837 15.6467 0.0685076C10.5543 2.12374 5.48469 4.15613 0.415126 6.16569C0.286297 6.19803 0.1736 6.27607 0.0979922 6.38528C0.0223845 6.49449 -0.0109879 6.62745 0.00408073 6.75942V10.7785C-0.0111071 10.9045 0.0198434 11.0318 0.0912089 11.1367C0.162574 11.2417 0.269527 11.3172 0.392291 11.3494L15.6695 17.4238C15.8457 17.4926 16.0413 17.4926 16.2175 17.4238L18.2728 16.6245L31.5633 11.3723C31.6957 11.3306 31.8094 11.2438 31.8845 11.127C31.9596 11.0101 31.9914 10.8707 31.9743 10.7329V8.88315ZM6.5123 5.25225C6.93825 5.22869 7.36517 5.22869 7.79111 5.25225C8.75313 5.19509 9.7167 5.33497 10.6228 5.6633C10.9031 5.77198 11.1592 5.93495 11.3763 6.14285C11.4755 6.20429 11.5573 6.29002 11.614 6.39193C11.6708 6.49383 11.7005 6.60853 11.7005 6.72516C11.7005 6.8418 11.6708 6.9565 11.614 7.0584C11.5573 7.16031 11.4755 7.24604 11.3763 7.30748C11.0314 7.58082 10.6355 7.78266 10.2117 7.90121C8.71164 8.3278 7.11634 8.27994 5.64454 7.7642C5.29391 7.62684 4.96357 7.44246 4.6626 7.21614C4.55405 7.14843 4.46453 7.05421 4.40246 6.94235C4.34039 6.83048 4.30783 6.70466 4.30783 6.57673C4.30783 6.4488 4.34039 6.32298 4.40246 6.21111C4.46453 6.09925 4.55405 6.00503 4.6626 5.93733C5.20299 5.54051 5.84381 5.30317 6.5123 5.25225ZM27.5441 6.73658H27.7268L27.4071 6.91927L23.9589 8.44927C23.8256 8.49451 23.6811 8.49451 23.5479 8.44927L19.3461 6.73658L19.1634 6.6224L19.4374 6.46255L22.977 5.06956C23.1024 5.02422 23.2397 5.02422 23.3652 5.06956L27.5441 6.73658ZM15.9892 2.78598L18.661 2.35209L17.2223 3.51672L19.7343 4.49867V4.56717H18.8208L16.5373 4.38449C16.3538 4.38591 16.1764 4.45042 16.0349 4.56717C15.6878 4.82294 15.3553 5.10793 15.0023 5.41046C14.9141 5.48609 14.8246 5.56282 14.7332 5.64046L14.1623 4.47583C14.1282 4.38386 14.0653 4.30532 13.9831 4.25186C13.9008 4.19839 13.8035 4.17283 13.7056 4.17896L10.8283 3.92777H10.5999L13.6143 3.33404L12.9292 1.96388H13.2717L15.3041 2.78598C15.5289 2.84301 15.7644 2.84301 15.9892 2.78598ZM18.2728 8.74614L16.6514 11.9432L10.8283 9.49972L18.2728 8.74614ZM18.9038 13.8223C18.8125 13.9299 18.6892 13.9914 18.56 13.994C18.4872 14.0065 18.4129 13.9994 18.3427 13.9734C18.2726 13.9474 18.2082 13.9032 18.1546 13.8439C18.1009 13.7847 18.0593 13.7119 18.0328 13.6311C18.0063 13.5503 17.9957 13.4636 18.0016 13.3772C18.0004 13.3012 18.0123 13.2256 18.0365 13.1551C18.0607 13.0845 18.0967 13.0204 18.1424 12.9667C18.1881 12.9129 18.2426 12.8705 18.3025 12.842C18.3625 12.8135 18.4267 12.7995 18.4913 12.8009C18.5883 12.8008 18.6824 12.84 18.7576 12.9121L21.0085 10.8899C20.9996 10.8229 20.9996 10.7547 21.0085 10.6877C21.0107 10.5356 21.063 10.3905 21.1544 10.283C21.2457 10.1755 21.369 10.1139 21.4982 10.1113C21.6281 10.1113 21.7526 10.172 21.8445 10.2801C21.9363 10.3882 21.9879 10.5348 21.9879 10.6877C22.0008 10.7542 22.0008 10.8233 21.9879 10.8899C22.1636 11.072 22.382 11.2877 22.5967 11.4997C22.8228 11.723 23.0448 11.9421 23.2079 12.1133C23.2915 12.0274 23.3976 11.9775 23.5086 11.9718C23.6009 11.9756 23.6904 12.0107 23.7663 12.0729L25.0206 10.7888C25.0083 10.7187 25.0083 10.6465 25.0206 10.5764C25.0194 10.5004 25.0313 10.4248 25.0555 10.3543C25.0797 10.2837 25.1157 10.2196 25.1614 10.1658C25.2071 10.1121 25.2616 10.0696 25.3215 10.0412C25.3815 10.0127 25.4457 9.99872 25.5103 10.0001C25.6402 10.0001 25.7647 10.0608 25.8566 10.1689C25.9484 10.277 26 10.4236 26 10.5764C25.9978 10.7285 25.9455 10.8736 25.8541 10.9811C25.7628 11.0886 25.6395 11.1502 25.5103 11.1528C25.4293 11.151 25.3499 11.1267 25.2783 11.082L24.0154 12.4268C24.0195 12.4772 24.0195 12.528 24.0154 12.5785C24.0166 12.655 24.0047 12.731 23.9807 12.8021C23.9566 12.8732 23.9207 12.9379 23.8751 12.9925C23.8295 13.0471 23.7751 13.0905 23.7151 13.1201C23.6552 13.1497 23.5908 13.1649 23.5257 13.1649C23.3951 13.1623 23.2705 13.0993 23.1789 12.9896C23.0873 12.8799 23.036 12.7323 23.036 12.5785C23.032 12.5483 23.032 12.5176 23.036 12.4875L21.7989 11.1831C21.726 11.2341 21.6431 11.262 21.5583 11.264C21.4587 11.264 21.362 11.2249 21.2834 11.1528C20.768 11.6078 19.6683 12.6593 19.0497 13.2559C19.0546 13.3097 19.0546 13.3639 19.0497 13.4177C19.0475 13.5697 18.9952 13.7148 18.9038 13.8223Z" fill="#1971BD"/>
</g>
<defs>
<clipPath id="clip0_5105_2525">
<rect width="32" height="32" fill="white"/>
</clipPath>
</defs>
</svg>
