<svg width="32" height="32" viewBox="0 0 32 32" fill="none" xmlns="http://www.w3.org/2000/svg">
<g clip-path="url(#clip0)">
<path d="M31.9682 8.74752C31.9682 9.3837 31.9682 10.0517 31.9682 10.6879C32 10.8151 31.9682 10.9742 31.8728 11.0696C31.8092 11.1968 31.6819 11.2604 31.5547 11.3241L18.3221 16.5726L16.2863 17.3678C16.0954 17.4314 15.9046 17.4314 15.7455 17.3678L0.508953 11.3241C0.381716 11.2922 0.286289 11.2286 0.22267 11.1014C0.159052 11.006 0.127243 10.8787 0.127243 10.7515C0.127243 9.41551 0.127243 8.07952 0.127243 6.74354C0.127243 6.6163 0.159052 6.48907 0.22267 6.36183C0.286289 6.2664 0.413525 6.17098 0.540762 6.13917C5.56661 4.13519 10.6243 2.13121 15.7137 0.0636183C15.8092 0.0318092 15.9364 0 16.0318 0C16.1591 0 16.2545 0.0318092 16.3817 0.0636183L31.5229 6.10736C31.6183 6.13917 31.6819 6.17098 31.7455 6.20278C31.8092 6.2664 31.8728 6.33002 31.9046 6.39364C31.9364 6.45726 31.9682 6.55268 32 6.6163C32 6.71173 32 6.77535 31.9682 6.87078C31.9682 7.50696 31.9682 8.17495 31.9682 8.84294V8.74752ZM7.88867 5.24851C7.47516 5.2167 7.02983 5.2167 6.61631 5.24851C5.94832 5.31213 5.31213 5.53479 4.77138 5.9165C4.67595 5.98012 4.58052 6.07555 4.51691 6.20278C4.45329 6.33002 4.42148 6.42545 4.42148 6.55269C4.42148 6.67992 4.45329 6.80716 4.51691 6.90259C4.58052 7.02982 4.67595 7.09344 4.77138 7.18887C5.05766 7.41153 5.40756 7.60239 5.75746 7.72962C7.22068 8.23857 8.81114 8.30219 10.3062 7.85686C10.7197 7.72962 11.1332 7.53877 11.4513 7.25249C11.5467 7.18887 11.6422 7.09344 11.674 6.99801C11.7376 6.90259 11.7694 6.77535 11.7694 6.67992C11.7694 6.55269 11.7376 6.45726 11.674 6.36183C11.6103 6.2664 11.5467 6.17098 11.4513 6.10736C11.2286 5.88469 10.9742 5.72565 10.6879 5.63022C9.79722 5.31213 8.84295 5.18489 7.88867 5.24851ZM27.7376 6.71173H27.5467L23.3797 5.05765C23.2525 5.02585 23.1253 5.02585 22.998 5.05765L19.4672 6.45726L19.1809 6.6163L19.3718 6.74354L23.5706 8.46123C23.6978 8.49304 23.8569 8.49304 23.9841 8.46123L27.4195 6.93439L27.7376 6.71173ZM18.7038 2.35388L16.0318 2.79921C15.8092 2.86282 15.5865 2.86282 15.3638 2.79921L13.328 1.97217H12.9781L13.6461 3.33996L10.6561 3.94433H10.8787L13.7416 4.19881C13.837 4.19881 13.9324 4.23062 14.0278 4.26243C14.1233 4.32604 14.1869 4.38966 14.2187 4.48509L14.7913 5.63022C15.2366 5.24851 15.6501 4.8668 16.0954 4.54871C16.2227 4.42147 16.4135 4.35785 16.6044 4.35785L18.8946 4.54871H19.8171V4.48509L17.2724 3.49901L18.7038 2.35388ZM16.6998 11.8966L18.3221 8.71571L10.9105 9.47913L16.6998 11.8966Z" fill="#1971BD"/>
<path d="M0.508953 18.4493L2.51293 19.2445C3.43539 17.3996 5.1849 16.4135 6.9344 16.3499L0.127243 13.7097C0.127243 13.7097 0.127243 13.7097 0.127243 13.8688C0.127243 15.2047 0.127243 16.5407 0.127243 17.8767C0.127243 18.004 0.159052 18.1312 0.22267 18.2266C0.286289 18.322 0.381716 18.4175 0.508953 18.4493Z" fill="#1971BD"/>
<path d="M31.4274 13.837L16.4453 19.7853C16.3181 19.849 16.1909 19.8808 16.0636 19.8808C15.9364 19.8808 15.8091 19.849 15.6819 19.7853L10.9742 17.9086C11.9602 18.9583 12.6282 20.4851 12.6282 22.5209C12.6282 22.7436 12.6282 22.9981 12.5964 23.2207L15.7137 24.4613C15.8091 24.4931 15.9364 24.5249 16.0318 24.5249C16.1272 24.5249 16.2545 24.4931 16.3499 24.4613L31.5865 18.5448C31.7137 18.513 31.8091 18.4493 31.8728 18.3221C31.9364 18.2267 31.9682 18.0994 31.9682 17.9722C31.9682 16.668 31.9682 15.3002 31.9682 13.9643C31.9682 13.8688 31.9682 13.678 31.9682 13.678L31.4274 13.837Z" fill="#1971BD"/>
<path d="M0.540758 25.7335L1.33599 26.0516C1.65408 25.8925 1.97217 25.7335 2.29026 25.6381C2.00398 24.652 1.81312 23.5705 1.81312 22.5526C1.81312 22.2027 1.84493 21.8846 1.87674 21.5665L0.127239 20.8667V21.1848C0.127239 22.489 0.127239 23.7931 0.127239 25.0973C0.09543 25.2246 0.127239 25.3836 0.222667 25.479C0.286285 25.6063 0.381712 25.7017 0.540758 25.7335Z" fill="#1971BD"/>
<path d="M31.9682 25.1291C31.9682 23.825 31.9682 22.5208 31.9682 21.1848C31.9682 21.0894 31.9682 20.8667 31.9682 20.8667L31.4593 21.0576L16.4135 27.0695C16.2863 27.1331 16.1591 27.1331 16.0318 27.1331C15.9046 27.1331 15.7773 27.1013 15.6501 27.0695L12.8191 25.9244C13.4553 26.2106 14.0278 26.6242 14.5686 27.1013C15.6819 28.1192 16.5408 29.487 16.9861 31.0456L17.1133 31.4273C21.9483 29.5506 26.7515 27.642 31.5547 25.7335C31.6819 25.7017 31.8092 25.6381 31.9046 25.5108C31.9682 25.3836 32 25.2564 31.9682 25.1291Z" fill="#1971BD"/>
<path d="M7.18886 27.8331C9.0656 27.8331 10.5288 25.1611 10.5288 22.68C10.5288 17.5269 3.81709 17.5269 3.81709 22.68C3.81709 25.1611 5.34393 27.8331 7.18886 27.8331Z" fill="#1971BD"/>
<path d="M14.2823 31.1732C13.9324 30.1871 13.328 29.3601 12.5328 28.7239C11.7376 28.0877 10.7515 27.706 9.7336 27.6106C9.41551 27.9605 9.0338 28.2786 8.58847 28.4694C8.14314 28.6921 7.666 28.7875 7.18887 28.8193C6.71173 28.8193 6.23459 28.6921 5.78926 28.4694C5.34394 28.2468 4.96223 27.9605 4.64414 27.6106C3.62624 27.706 2.64016 28.0877 1.84493 28.7239C1.0497 29.3601 0.413519 30.2189 0.0954274 31.1732L0 31.4913C0 31.5867 0.0636183 31.6504 0.159046 31.6504H14.2823C14.3777 31.6504 14.4414 31.5867 14.4414 31.4913L14.2823 31.1732Z" fill="#1971BD"/>
</g>
<defs>
<clipPath id="clip0">
<rect width="32" height="31.6183" fill="white"/>
</clipPath>
</defs>
</svg>
